<svg width="146.127mm" height="118.399mm" viewBox="0 0 146.127 118.399" xmlns="http://www.w3.org/2000/svg"><g id="svgGroup" stroke-linecap="round" fill-rule="evenodd" font-size="9pt" stroke="#000" stroke-width="0.25mm" fill="none" style="stroke:#000;stroke-width:0.25mm;fill:none"><path d="M 122.441 83.077 L 135.169 95.805 L 122.441 108.533 L 109.713 95.805 L 122.441 83.077 Z M 0 53.343 L 18 53.343 L 18 71.343 L 0 71.343 L 0 53.343 Z M 0 34.343 L 18 34.343 L 18 52.343 L 0 52.343 L 0 34.343 Z M 0 15.343 L 18 15.343 L 18 33.343 L 0 33.343 L 0 15.343 Z M 19 53.343 L 37 53.343 L 37 71.343 L 19 71.343 L 19 53.343 Z M 19 34.343 L 37 34.343 L 37 52.343 L 19 52.343 L 19 34.343 Z M 19 15.343 L 37 15.343 L 37 33.343 L 19 33.343 L 19 15.343 Z M 38 43.843 L 56 43.843 L 56 61.843 L 38 61.843 L 38 43.843 Z M 38 24.843 L 56 24.843 L 56 42.843 L 38 42.843 L 38 24.843 Z M 38 5.843 L 56 5.843 L 56 23.843 L 38 23.843 L 38 5.843 Z M 57 39.093 L 75 39.093 L 75 57.093 L 57 57.093 L 57 39.093 Z M 57 20.093 L 75 20.093 L 75 38.093 L 57 38.093 L 57 20.093 Z M 57 1.093 L 75 1.093 L 75 19.093 L 57 19.093 L 57 1.093 Z M 76 42.26 L 94 42.26 L 94 60.26 L 76 60.26 L 76 42.26 Z M 76 23.26 L 94 23.26 L 94 41.26 L 76 41.26 L 76 23.26 Z M 76 4.26 L 94 4.26 L 94 22.26 L 76 22.26 L 76 4.26 Z M 95 44.635 L 113 44.635 L 113 62.635 L 95 62.635 L 95 44.635 Z M 95 25.635 L 113 25.635 L 113 43.635 L 95 43.635 L 95 25.635 Z M 95 6.635 L 113 6.635 L 113 24.635 L 95 24.635 L 95 6.635 Z M 57 64.093 L 75 64.093 L 75 82.093 L 57 82.093 L 57 64.093 Z M 95 17.835 L 113 17.835 L 113 35.835 L 95 35.835 L 95 17.835 Z M 57 12.293 L 75 12.293 L 75 30.293 L 57 30.293 L 57 12.293 Z M 19 26.543 L 37 26.543 L 37 44.543 L 19 44.543 L 19 26.543 Z M 19 45.543 L 37 45.543 L 37 63.543 L 19 63.543 L 19 45.543 Z M 57 50.293 L 75 50.293 L 75 68.293 L 57 68.293 L 57 50.293 Z M 95 55.835 L 113 55.835 L 113 73.835 L 95 73.835 L 95 55.835 Z M 46.935 62.903 L 64.935 62.903 L 64.935 80.903 L 46.935 80.903 L 46.935 62.903 Z M 47.06 73.218 L 65.06 73.218 L 65.06 91.218 L 47.06 91.218 L 47.06 73.218 Z M 66.579 73.172 L 84.579 73.172 L 84.579 91.172 L 66.579 91.172 L 66.579 73.172 Z M 84.271 77.729 L 102.271 77.729 L 102.271 95.729 L 84.271 95.729 L 84.271 77.729 Z M 100.413 86.823 L 118.413 86.823 L 118.413 104.823 L 100.413 104.823 L 100.413 86.823 Z M 113.989 100.399 L 131.989 100.399 L 131.989 118.399 L 113.989 118.399 L 113.989 100.399 Z M 126.977 87.411 L 144.977 87.411 L 144.977 105.411 L 126.977 105.411 L 126.977 87.411 Z M 105.113 0 L 123.113 0 L 123.113 18 L 105.113 18 L 105.113 0 Z M 124.833 0 L 142.833 0 L 142.833 18 L 124.833 18 L 124.833 0 Z M 105.113 49.076 L 123.113 49.076 L 123.113 67.076 L 105.113 67.076 L 105.113 49.076 Z M 104.083 0 L 122.083 0 L 122.083 18 L 104.083 18 L 104.083 0 Z M 104.083 49.208 L 122.083 49.208 L 122.083 67.208 L 104.083 67.208 L 104.083 49.208 Z M 9.5 24.843 L 27.5 24.843 L 27.5 42.843 L 9.5 42.843 L 9.5 24.843 Z M 9.5 43.843 L 27.5 43.843 L 27.5 61.843 L 9.5 61.843 L 9.5 43.843 Z M 85.468 14.996 L 103.468 14.996 L 103.468 32.996 L 85.468 32.996 L 85.468 14.996 Z M 43.157 56.958 L 61.157 56.958 L 61.157 74.958 L 43.157 74.958 L 43.157 56.958 Z M 107.762 47.486 L 125.762 47.486 L 125.762 65.486 L 107.762 65.486 L 107.762 47.486 Z M 122.194 56.005 L 140.194 56.005 L 140.194 74.005 L 122.194 74.005 L 122.194 56.005 Z M 102.557 71.046 L 118.145 80.046 L 109.145 95.634 L 93.557 86.634 L 102.557 71.046 Z M 121.539 72.755 L 130.539 57.167 L 146.127 66.167 L 137.127 81.755 L 121.539 72.755 Z M 121.224 73.301 L 130.224 57.712 L 145.812 66.712 L 136.812 82.301 L 121.224 73.301 Z M 120.083 62.689 L 135.672 71.689 L 126.672 87.278 L 111.083 78.278 L 120.083 62.689 Z M 80.236 64.571 L 97.623 69.229 L 92.964 86.616 L 75.577 81.957 L 80.236 64.571 Z" vector-effect="non-scaling-stroke"/></g></svg>