0
SECTION
2
HEADER
9
$INSUNITS
70
4
0
ENDSEC
0
SECTION
2
TABLES
0
TABLE
2
LTYPE
0
LTYPE
72
65
70
0
2
CONTINUOUS
3
______
73
0
40
0
0
LTYPE
72
65
70
0
2
DASHED
3
_ _ _ 
73
2
40
7.5
49
5
49
-2.5
0
LTYPE
72
65
70
0
2
DOTTED
3
. . . 
73
2
40
1.5
49
0.5
49
-1
0
ENDTAB
0
TABLE
2
LAYER
0
ENDTAB
0
ENDSEC
0
SECTION
2
ENTITIES
0
LINE
8
0
6
CONTINUOUS
10
91
20
-91
11
109
21
-91
0
LINE
8
0
6
CONTINUOUS
10
109
20
-91
11
109
21
-109
0
LINE
8
0
6
CONTINUOUS
10
109
20
-109
11
91
21
-109
0
LINE
8
0
6
CONTINUOUS
10
91
20
-109
11
91
21
-91
0
LINE
8
0
6
CONTINUOUS
10
91
20
-72
11
109
21
-72
0
LINE
8
0
6
CONTINUOUS
10
109
20
-72
11
109
21
-90
0
LINE
8
0
6
CONTINUOUS
10
109
20
-90
11
91
21
-90
0
LINE
8
0
6
CONTINUOUS
10
91
20
-90
11
91
21
-72
0
LINE
8
0
6
CONTINUOUS
10
91
20
-53
11
109
21
-53
0
LINE
8
0
6
CONTINUOUS
10
109
20
-53
11
109
21
-71
0
LINE
8
0
6
CONTINUOUS
10
109
20
-71
11
91
21
-71
0
LINE
8
0
6
CONTINUOUS
10
91
20
-71
11
91
21
-53
0
LINE
8
0
6
CONTINUOUS
10
110
20
-91
11
128
21
-91
0
LINE
8
0
6
CONTINUOUS
10
128
20
-91
11
128
21
-109
0
LINE
8
0
6
CONTINUOUS
10
128
20
-109
11
110
21
-109
0
LINE
8
0
6
CONTINUOUS
10
110
20
-109
11
110
21
-91
0
LINE
8
0
6
CONTINUOUS
10
110
20
-72
11
128
21
-72
0
LINE
8
0
6
CONTINUOUS
10
128
20
-72
11
128
21
-90
0
LINE
8
0
6
CONTINUOUS
10
128
20
-90
11
110
21
-90
0
LINE
8
0
6
CONTINUOUS
10
110
20
-90
11
110
21
-72
0
LINE
8
0
6
CONTINUOUS
10
110
20
-53
11
128
21
-53
0
LINE
8
0
6
CONTINUOUS
10
128
20
-53
11
128
21
-71
0
LINE
8
0
6
CONTINUOUS
10
128
20
-71
11
110
21
-71
0
LINE
8
0
6
CONTINUOUS
10
110
20
-71
11
110
21
-53
0
LINE
8
0
6
CONTINUOUS
10
129
20
-81.5
11
147
21
-81.5
0
LINE
8
0
6
CONTINUOUS
10
147
20
-81.5
11
147
21
-99.5
0
LINE
8
0
6
CONTINUOUS
10
147
20
-99.5
11
129
21
-99.5
0
LINE
8
0
6
CONTINUOUS
10
129
20
-99.5
11
129
21
-81.5
0
LINE
8
0
6
CONTINUOUS
10
129
20
-62.5
11
147
21
-62.5
0
LINE
8
0
6
CONTINUOUS
10
147
20
-62.5
11
147
21
-80.5
0
LINE
8
0
6
CONTINUOUS
10
147
20
-80.5
11
129
21
-80.5
0
LINE
8
0
6
CONTINUOUS
10
129
20
-80.5
11
129
21
-62.5
0
LINE
8
0
6
CONTINUOUS
10
129
20
-43.5
11
147
21
-43.5
0
LINE
8
0
6
CONTINUOUS
10
147
20
-43.5
11
147
21
-61.5
0
LINE
8
0
6
CONTINUOUS
10
147
20
-61.5
11
129
21
-61.5
0
LINE
8
0
6
CONTINUOUS
10
129
20
-61.5
11
129
21
-43.5
0
LINE
8
0
6
CONTINUOUS
10
148
20
-76.75
11
166
21
-76.75
0
LINE
8
0
6
CONTINUOUS
10
166
20
-76.75
11
166
21
-94.75
0
LINE
8
0
6
CONTINUOUS
10
166
20
-94.75
11
148
21
-94.75
0
LINE
8
0
6
CONTINUOUS
10
148
20
-94.75
11
148
21
-76.75
0
LINE
8
0
6
CONTINUOUS
10
148
20
-57.75
11
166
21
-57.75
0
LINE
8
0
6
CONTINUOUS
10
166
20
-57.75
11
166
21
-75.75
0
LINE
8
0
6
CONTINUOUS
10
166
20
-75.75
11
148
21
-75.75
0
LINE
8
0
6
CONTINUOUS
10
148
20
-75.75
11
148
21
-57.75
0
LINE
8
0
6
CONTINUOUS
10
148
20
-38.75
11
166
21
-38.75
0
LINE
8
0
6
CONTINUOUS
10
166
20
-38.75
11
166
21
-56.75
0
LINE
8
0
6
CONTINUOUS
10
166
20
-56.75
11
148
21
-56.75
0
LINE
8
0
6
CONTINUOUS
10
148
20
-56.75
11
148
21
-38.75
0
LINE
8
0
6
CONTINUOUS
10
167
20
-79.9166667
11
185
21
-79.9166667
0
LINE
8
0
6
CONTINUOUS
10
185
20
-79.9166667
11
185
21
-97.9166667
0
LINE
8
0
6
CONTINUOUS
10
185
20
-97.9166667
11
167
21
-97.9166667
0
LINE
8
0
6
CONTINUOUS
10
167
20
-97.9166667
11
167
21
-79.9166667
0
LINE
8
0
6
CONTINUOUS
10
167
20
-60.9166667
11
185
21
-60.9166667
0
LINE
8
0
6
CONTINUOUS
10
185
20
-60.9166667
11
185
21
-78.9166667
0
LINE
8
0
6
CONTINUOUS
10
185
20
-78.9166667
11
167
21
-78.9166667
0
LINE
8
0
6
CONTINUOUS
10
167
20
-78.9166667
11
167
21
-60.9166667
0
LINE
8
0
6
CONTINUOUS
10
167
20
-41.9166667
11
185
21
-41.9166667
0
LINE
8
0
6
CONTINUOUS
10
185
20
-41.9166667
11
185
21
-59.9166667
0
LINE
8
0
6
CONTINUOUS
10
185
20
-59.9166667
11
167
21
-59.9166667
0
LINE
8
0
6
CONTINUOUS
10
167
20
-59.9166667
11
167
21
-41.9166667
0
LINE
8
0
6
CONTINUOUS
10
186
20
-82.2916667
11
204
21
-82.2916667
0
LINE
8
0
6
CONTINUOUS
10
204
20
-82.2916667
11
204
21
-100.2916667
0
LINE
8
0
6
CONTINUOUS
10
204
20
-100.2916667
11
186
21
-100.2916667
0
LINE
8
0
6
CONTINUOUS
10
186
20
-100.2916667
11
186
21
-82.2916667
0
LINE
8
0
6
CONTINUOUS
10
186
20
-63.2916667
11
204
21
-63.2916667
0
LINE
8
0
6
CONTINUOUS
10
204
20
-63.2916667
11
204
21
-81.2916667
0
LINE
8
0
6
CONTINUOUS
10
204
20
-81.2916667
11
186
21
-81.2916667
0
LINE
8
0
6
CONTINUOUS
10
186
20
-81.2916667
11
186
21
-63.2916667
0
LINE
8
0
6
CONTINUOUS
10
186
20
-44.2916667
11
204
21
-44.2916667
0
LINE
8
0
6
CONTINUOUS
10
204
20
-44.2916667
11
204
21
-62.2916667
0
LINE
8
0
6
CONTINUOUS
10
204
20
-62.2916667
11
186
21
-62.2916667
0
LINE
8
0
6
CONTINUOUS
10
186
20
-62.2916667
11
186
21
-44.2916667
0
LINE
8
0
6
CONTINUOUS
10
148
20
-101.75
11
166
21
-101.75
0
LINE
8
0
6
CONTINUOUS
10
166
20
-101.75
11
166
21
-119.75
0
LINE
8
0
6
CONTINUOUS
10
166
20
-119.75
11
148
21
-119.75
0
LINE
8
0
6
CONTINUOUS
10
148
20
-119.75
11
148
21
-101.75
0
LINE
8
0
6
CONTINUOUS
10
171.236039
20
-102.2272962
11
188.6227038
21
-106.886039
0
LINE
8
0
6
CONTINUOUS
10
188.6227038
20
-106.886039
11
183.963961
21
-124.2727038
0
LINE
8
0
6
CONTINUOUS
10
183.963961
20
-124.2727038
11
166.5772962
21
-119.613961
0
LINE
8
0
6
CONTINUOUS
10
166.5772962
20
-119.613961
11
171.236039
21
-102.2272962
0
LINE
8
0
6
CONTINUOUS
10
193.5567958
20
-108.7022583
11
209.145253
21
-117.7022583
0
LINE
8
0
6
CONTINUOUS
10
209.145253
20
-117.7022583
11
200.145253
21
-133.2907155
0
LINE
8
0
6
CONTINUOUS
10
200.145253
20
-133.2907155
11
184.5567958
21
-124.2907155
0
LINE
8
0
6
CONTINUOUS
10
184.5567958
20
-124.2907155
11
193.5567958
21
-108.7022583
0
LINE
8
0
6
CONTINUOUS
10
213.4411477
20
-120.7336283
11
226.1690698
21
-133.4615504
0
LINE
8
0
6
CONTINUOUS
10
226.1690698
20
-133.4615504
11
213.4411477
21
-146.1894725
0
LINE
8
0
6
CONTINUOUS
10
213.4411477
20
-146.1894725
11
200.7132256
21
-133.4615504
0
LINE
8
0
6
CONTINUOUS
10
200.7132256
20
-133.4615504
11
213.4411477
21
-120.7336283
0
LINE
8
0
6
CONTINUOUS
10
186
20
-55.4916667
11
204
21
-55.4916667
0
LINE
8
0
6
CONTINUOUS
10
204
20
-55.4916667
11
204
21
-73.4916667
0
LINE
8
0
6
CONTINUOUS
10
204
20
-73.4916667
11
186
21
-73.4916667
0
LINE
8
0
6
CONTINUOUS
10
186
20
-73.4916667
11
186
21
-55.4916667
0
LINE
8
0
6
CONTINUOUS
10
148
20
-49.95
11
166
21
-49.95
0
LINE
8
0
6
CONTINUOUS
10
166
20
-49.95
11
166
21
-67.95
0
LINE
8
0
6
CONTINUOUS
10
166
20
-67.95
11
148
21
-67.95
0
LINE
8
0
6
CONTINUOUS
10
148
20
-67.95
11
148
21
-49.95
0
LINE
8
0
6
CONTINUOUS
10
110
20
-64.2
11
128
21
-64.2
0
LINE
8
0
6
CONTINUOUS
10
128
20
-64.2
11
128
21
-82.2
0
LINE
8
0
6
CONTINUOUS
10
128
20
-82.2
11
110
21
-82.2
0
LINE
8
0
6
CONTINUOUS
10
110
20
-82.2
11
110
21
-64.2
0
LINE
8
0
6
CONTINUOUS
10
110
20
-83.2
11
128
21
-83.2
0
LINE
8
0
6
CONTINUOUS
10
128
20
-83.2
11
128
21
-101.2
0
LINE
8
0
6
CONTINUOUS
10
128
20
-101.2
11
110
21
-101.2
0
LINE
8
0
6
CONTINUOUS
10
110
20
-101.2
11
110
21
-83.2
0
LINE
8
0
6
CONTINUOUS
10
148
20
-87.95
11
166
21
-87.95
0
LINE
8
0
6
CONTINUOUS
10
166
20
-87.95
11
166
21
-105.95
0
LINE
8
0
6
CONTINUOUS
10
166
20
-105.95
11
148
21
-105.95
0
LINE
8
0
6
CONTINUOUS
10
148
20
-105.95
11
148
21
-87.95
0
LINE
8
0
6
CONTINUOUS
10
186
20
-93.4916667
11
204
21
-93.4916667
0
LINE
8
0
6
CONTINUOUS
10
204
20
-93.4916667
11
204
21
-111.4916667
0
LINE
8
0
6
CONTINUOUS
10
204
20
-111.4916667
11
186
21
-111.4916667
0
LINE
8
0
6
CONTINUOUS
10
186
20
-111.4916667
11
186
21
-93.4916667
0
LINE
8
0
6
CONTINUOUS
10
137.935
20
-100.56
11
155.935
21
-100.56
0
LINE
8
0
6
CONTINUOUS
10
155.935
20
-100.56
11
155.935
21
-118.56
0
LINE
8
0
6
CONTINUOUS
10
155.935
20
-118.56
11
137.935
21
-118.56
0
LINE
8
0
6
CONTINUOUS
10
137.935
20
-118.56
11
137.935
21
-100.56
0
LINE
8
0
6
CONTINUOUS
10
138.06
20
-110.875
11
156.06
21
-110.875
0
LINE
8
0
6
CONTINUOUS
10
156.06
20
-110.875
11
156.06
21
-128.875
0
LINE
8
0
6
CONTINUOUS
10
156.06
20
-128.875
11
138.06
21
-128.875
0
LINE
8
0
6
CONTINUOUS
10
138.06
20
-128.875
11
138.06
21
-110.875
0
LINE
8
0
6
CONTINUOUS
10
157.5790436
20
-110.8290957
11
175.5790436
21
-110.8290957
0
LINE
8
0
6
CONTINUOUS
10
175.5790436
20
-110.8290957
11
175.5790436
21
-128.8290957
0
LINE
8
0
6
CONTINUOUS
10
175.5790436
20
-128.8290957
11
157.5790436
21
-128.8290957
0
LINE
8
0
6
CONTINUOUS
10
157.5790436
20
-128.8290957
11
157.5790436
21
-110.8290957
0
LINE
8
0
6
CONTINUOUS
10
175.2710907
20
-115.3855712
11
193.2710907
21
-115.3855712
0
LINE
8
0
6
CONTINUOUS
10
193.2710907
20
-115.3855712
11
193.2710907
21
-133.3855712
0
LINE
8
0
6
CONTINUOUS
10
193.2710907
20
-133.3855712
11
175.2710907
21
-133.3855712
0
LINE
8
0
6
CONTINUOUS
10
175.2710907
20
-133.3855712
11
175.2710907
21
-115.3855712
0
LINE
8
0
6
CONTINUOUS
10
191.4127053
20
-124.4792281
11
209.4127053
21
-124.4792281
0
LINE
8
0
6
CONTINUOUS
10
209.4127053
20
-124.4792281
11
209.4127053
21
-142.4792281
0
LINE
8
0
6
CONTINUOUS
10
209.4127053
20
-142.4792281
11
191.4127053
21
-142.4792281
0
LINE
8
0
6
CONTINUOUS
10
191.4127053
20
-142.4792281
11
191.4127053
21
-124.4792281
0
LINE
8
0
6
CONTINUOUS
10
204.9891555
20
-138.0556783
11
222.9891555
21
-138.0556783
0
LINE
8
0
6
CONTINUOUS
10
222.9891555
20
-138.0556783
11
222.9891555
21
-156.0556783
0
LINE
8
0
6
CONTINUOUS
10
222.9891555
20
-156.0556783
11
204.9891555
21
-156.0556783
0
LINE
8
0
6
CONTINUOUS
10
204.9891555
20
-156.0556783
11
204.9891555
21
-138.0556783
0
LINE
8
0
6
CONTINUOUS
10
217.9772928
20
-125.0675409
11
235.9772928
21
-125.0675409
0
LINE
8
0
6
CONTINUOUS
10
235.9772928
20
-125.0675409
11
235.9772928
21
-143.0675409
0
LINE
8
0
6
CONTINUOUS
10
235.9772928
20
-143.0675409
11
217.9772928
21
-143.0675409
0
LINE
8
0
6
CONTINUOUS
10
217.9772928
20
-143.0675409
11
217.9772928
21
-125.0675409
0
LINE
8
0
6
CONTINUOUS
10
196.113
20
-37.6566667
11
214.113
21
-37.6566667
0
LINE
8
0
6
CONTINUOUS
10
214.113
20
-37.6566667
11
214.113
21
-55.6566667
0
LINE
8
0
6
CONTINUOUS
10
214.113
20
-55.6566667
11
196.113
21
-55.6566667
0
LINE
8
0
6
CONTINUOUS
10
196.113
20
-55.6566667
11
196.113
21
-37.6566667
0
LINE
8
0
6
CONTINUOUS
10
215.833
20
-37.6566667
11
233.833
21
-37.6566667
0
LINE
8
0
6
CONTINUOUS
10
233.833
20
-37.6566667
11
233.833
21
-55.6566667
0
LINE
8
0
6
CONTINUOUS
10
233.833
20
-55.6566667
11
215.833
21
-55.6566667
0
LINE
8
0
6
CONTINUOUS
10
215.833
20
-55.6566667
11
215.833
21
-37.6566667
0
LINE
8
0
6
CONTINUOUS
10
212.5387714
20
-110.4118953
11
221.5387714
21
-94.8234381
0
LINE
8
0
6
CONTINUOUS
10
221.5387714
20
-94.8234381
11
237.1272286
21
-103.8234381
0
LINE
8
0
6
CONTINUOUS
10
237.1272286
20
-103.8234381
11
228.1272286
21
-119.4118953
0
LINE
8
0
6
CONTINUOUS
10
228.1272286
20
-119.4118953
11
212.5387714
21
-110.4118953
0
LINE
8
0
6
CONTINUOUS
10
196.113
20
-86.7323194
11
214.113
21
-86.7323194
0
LINE
8
0
6
CONTINUOUS
10
214.113
20
-86.7323194
11
214.113
21
-104.7323194
0
LINE
8
0
6
CONTINUOUS
10
214.113
20
-104.7323194
11
196.113
21
-104.7323194
0
LINE
8
0
6
CONTINUOUS
10
196.113
20
-104.7323194
11
196.113
21
-86.7323194
0
LINE
8
0
6
CONTINUOUS
10
195.083
20
-37.6566667
11
213.083
21
-37.6566667
0
LINE
8
0
6
CONTINUOUS
10
213.083
20
-37.6566667
11
213.083
21
-55.6566667
0
LINE
8
0
6
CONTINUOUS
10
213.083
20
-55.6566667
11
195.083
21
-55.6566667
0
LINE
8
0
6
CONTINUOUS
10
195.083
20
-55.6566667
11
195.083
21
-37.6566667
0
LINE
8
0
6
CONTINUOUS
10
212.2237714
20
-110.9574913
11
221.2237714
21
-95.3690341
0
LINE
8
0
6
CONTINUOUS
10
221.2237714
20
-95.3690341
11
236.8122286
21
-104.3690341
0
LINE
8
0
6
CONTINUOUS
10
236.8122286
20
-104.3690341
11
227.8122286
21
-119.9574913
0
LINE
8
0
6
CONTINUOUS
10
227.8122286
20
-119.9574913
11
212.2237714
21
-110.9574913
0
LINE
8
0
6
CONTINUOUS
10
195.083
20
-86.8651099
11
213.083
21
-86.8651099
0
LINE
8
0
6
CONTINUOUS
10
213.083
20
-86.8651099
11
213.083
21
-104.8651099
0
LINE
8
0
6
CONTINUOUS
10
213.083
20
-104.8651099
11
195.083
21
-104.8651099
0
LINE
8
0
6
CONTINUOUS
10
195.083
20
-104.8651099
11
195.083
21
-86.8651099
0
LINE
8
0
6
CONTINUOUS
10
100.5
20
-62.5
11
118.5
21
-62.5
0
LINE
8
0
6
CONTINUOUS
10
118.5
20
-62.5
11
118.5
21
-80.5
0
LINE
8
0
6
CONTINUOUS
10
118.5
20
-80.5
11
100.5
21
-80.5
0
LINE
8
0
6
CONTINUOUS
10
100.5
20
-80.5
11
100.5
21
-62.5
0
LINE
8
0
6
CONTINUOUS
10
100.5
20
-81.5
11
118.5
21
-81.5
0
LINE
8
0
6
CONTINUOUS
10
118.5
20
-81.5
11
118.5
21
-99.5
0
LINE
8
0
6
CONTINUOUS
10
118.5
20
-99.5
11
100.5
21
-99.5
0
LINE
8
0
6
CONTINUOUS
10
100.5
20
-99.5
11
100.5
21
-81.5
0
LINE
8
0
6
CONTINUOUS
10
176.468
20
-52.6526667
11
194.468
21
-52.6526667
0
LINE
8
0
6
CONTINUOUS
10
194.468
20
-52.6526667
11
194.468
21
-70.6526667
0
LINE
8
0
6
CONTINUOUS
10
194.468
20
-70.6526667
11
176.468
21
-70.6526667
0
LINE
8
0
6
CONTINUOUS
10
176.468
20
-70.6526667
11
176.468
21
-52.6526667
0
LINE
8
0
6
CONTINUOUS
10
134.157
20
-94.615
11
152.157
21
-94.615
0
LINE
8
0
6
CONTINUOUS
10
152.157
20
-94.615
11
152.157
21
-112.615
0
LINE
8
0
6
CONTINUOUS
10
152.157
20
-112.615
11
134.157
21
-112.615
0
LINE
8
0
6
CONTINUOUS
10
134.157
20
-112.615
11
134.157
21
-94.615
0
LINE
8
0
6
CONTINUOUS
10
211.0830752
20
-100.3458518
11
226.6715324
21
-109.3458518
0
LINE
8
0
6
CONTINUOUS
10
226.6715324
20
-109.3458518
11
217.6715324
21
-124.934309
0
LINE
8
0
6
CONTINUOUS
10
217.6715324
20
-124.934309
11
202.0830752
21
-115.934309
0
LINE
8
0
6
CONTINUOUS
10
202.0830752
20
-115.934309
11
211.0830752
21
-100.3458518
0
LINE
8
0
6
CONTINUOUS
10
198.762
20
-85.1426667
11
216.762
21
-85.1426667
0
LINE
8
0
6
CONTINUOUS
10
216.762
20
-85.1426667
11
216.762
21
-103.1426667
0
LINE
8
0
6
CONTINUOUS
10
216.762
20
-103.1426667
11
198.762
21
-103.1426667
0
LINE
8
0
6
CONTINUOUS
10
198.762
20
-103.1426667
11
198.762
21
-85.1426667
0
LINE
8
0
6
CONTINUOUS
10
213.194
20
-93.6616667
11
231.194
21
-93.6616667
0
LINE
8
0
6
CONTINUOUS
10
231.194
20
-93.6616667
11
231.194
21
-111.6616667
0
LINE
8
0
6
CONTINUOUS
10
231.194
20
-111.6616667
11
213.194
21
-111.6616667
0
LINE
8
0
6
CONTINUOUS
10
213.194
20
-111.6616667
11
213.194
21
-93.6616667
0
ENDSEC
0
EOF