<svg width="136.407mm" height="108.796mm" viewBox="0 0 136.407 108.796" xmlns="http://www.w3.org/2000/svg"><g id="svgGroup" stroke-linecap="round" fill-rule="evenodd" font-size="9pt" stroke="#000" stroke-width="0.25mm" fill="none" style="stroke:#000;stroke-width:0.25mm;fill:none"><path d="M 0.002 70.627 L 0 14.377 L 0 14.127 L 37.5 14.137 A 0.5 0.5 0 0 0 38 13.637 L 38 4.626 L 56.498 4.685 A 0.5 0.5 0 0 0 57 4.185 L 57 0 L 75.502 0 L 75.502 2.585 A 0.5 0.5 0 0 0 76.003 3.085 L 94.502 3.043 L 94.502 5.042 A 0.5 0.5 0 0 0 95.002 5.542 L 113.502 5.542 L 113.502 5.792 L 113.503 7.294 A 0.5 0.5 0 0 0 114.003 7.794 L 134.253 7.794 L 134.253 68.572 L 134.024 68.968 A 0.5 0.5 0 0 0 133.959 69.265 L 136.396 95.431 L 136.407 95.548 L 123.159 108.796 L 109.479 95.116 A 0.5 0.5 0 0 0 109.37 95.034 L 93.404 86.039 A 0.5 0.5 0 0 0 93.283 85.99 L 75.78 81.482 A 0.5 0.5 0 0 0 75.654 81.466 L 55.983 81.513 L 55.98 81.265 L 55.864 71.687 A 0.5 0.5 0 0 0 55.367 71.193 L 0.002 70.876 L 0.002 70.627 Z" vector-effect="non-scaling-stroke"/></g></svg>