0
SECTION
2
HEADER
9
$INSUNITS
70
4
0
ENDSEC
0
SECTION
2
TABLES
0
TABLE
2
LTYPE
0
LTYPE
72
65
70
0
2
CONTINUOUS
3
______
73
0
40
0
0
LTYPE
72
65
70
0
2
DASHED
3
_ _ _ 
73
2
40
7.5
49
5
49
-2.5
0
LTYPE
72
65
70
0
2
DOTTED
3
. . . 
73
2
40
1.5
49
0.5
49
-1
0
ENDTAB
0
TABLE
2
LAYER
0
ENDTAB
0
ENDSEC
0
SECTION
2
ENTITIES
0
LINE
8
0
6
CONTINUOUS
10
90.832
20
-109.2400089
11
90.83
21
-52.9900089
0
LINE
8
0
6
CONTINUOUS
10
90.8299911
20
-52.7399342
11
90.83
21
-52.9900089
0
LINE
8
0
6
CONTINUOUS
10
90.8299911
20
-52.7399342
11
128.3298684
21
-52.7498026
0
LINE
8
0
6
CONTINUOUS
10
128.83
20
-52.2498026
11
128.83
21
-43.2392092
0
LINE
8
0
6
CONTINUOUS
10
128.83
20
-43.2392092
11
147.3284211
21
-43.2976253
0
LINE
8
0
6
CONTINUOUS
10
147.83
20
-42.7976278
11
147.83
21
-38.613
0
LINE
8
0
6
CONTINUOUS
10
147.83
20
-38.613
11
166.332
21
-38.613
0
LINE
8
0
6
CONTINUOUS
10
166.332
20
-41.1982876
11
166.332
21
-38.613
0
LINE
8
0
6
CONTINUOUS
10
166.8331403
20
-41.6982863
11
185.332
21
-41.6560959
0
LINE
8
0
6
CONTINUOUS
10
185.332
20
-43.6546667
11
185.332
21
-41.6560959
0
LINE
8
0
6
CONTINUOUS
10
185.832
20
-44.1546667
11
204.331889
21
-44.1546667
0
LINE
8
0
6
CONTINUOUS
10
204.332
20
-44.4045557
11
204.331889
21
-44.1546667
0
LINE
8
0
6
CONTINUOUS
10
204.332
20
-44.4045557
11
204.3326671
21
-45.9068887
0
LINE
8
0
6
CONTINUOUS
10
204.8326671
20
-46.4066667
11
225.083
21
-46.4066667
0
LINE
8
0
6
CONTINUOUS
10
225.083
20
-107.184654
11
225.083
21
-46.4066667
0
LINE
8
0
6
CONTINUOUS
10
224.8538999
20
-107.5814671
11
225.083
21
-107.184654
0
LINE
8
0
6
CONTINUOUS
10
224.7890674
20
-107.8778364
11
227.2262154
21
-134.0443563
0
LINE
8
0
6
CONTINUOUS
10
227.2371058
20
-134.1612813
11
227.2262154
21
-134.0443563
0
LINE
8
0
6
CONTINUOUS
10
213.9891555
20
-147.4092317
11
227.2371058
21
-134.1612813
0
LINE
8
0
6
CONTINUOUS
10
200.308596
20
-133.7286722
11
213.9891555
21
-147.4092317
0
LINE
8
0
6
CONTINUOUS
10
200.2004601
20
-133.6465993
11
184.2341372
21
-124.651696
0
LINE
8
0
6
CONTINUOUS
10
184.1134222
20
-124.6031227
11
166.6095856
21
-120.0951196
0
LINE
8
0
6
CONTINUOUS
10
146.8130182
20
-120.1255815
11
166.4837071
21
-120.0793206
0
LINE
8
0
6
CONTINUOUS
10
146.8100184
20
-119.8780293
11
146.8130182
21
-120.1255815
0
LINE
8
0
6
CONTINUOUS
10
146.8100184
20
-119.8780293
11
146.6939457
21
-110.2997081
0
LINE
8
0
6
CONTINUOUS
10
90.8320088
20
-109.4885718
11
146.196847
21
-109.805775
0
LINE
8
0
6
CONTINUOUS
10
90.832
20
-109.2400089
11
90.8320088
21
-109.4885718
0
ARC
8
0
6
CONTINUOUS
10
128.33
20
-52.2498026
40
0.5
50
269.9849198
51
0
0
ARC
8
0
6
CONTINUOUS
10
147.33
20
-42.7976278
40
0.5
50
269.8190654
51
0
0
ARC
8
0
6
CONTINUOUS
10
166.832
20
-41.1982876
40
0.5
50
180
51
270.1306746
0
ARC
8
0
6
CONTINUOUS
10
185.832
20
-43.6546667
40
0.5
50
180
51
270
0
ARC
8
0
6
CONTINUOUS
10
204.8326671
20
-45.9066667
40
0.5
50
180.0254393
51
270
0
ARC
8
0
6
CONTINUOUS
10
225.2869126
20
-107.8314671
40
0.5
50
149.9999999
51
185.3211707
0
ARC
8
0
6
CONTINUOUS
10
199.9550426
20
-134.0822256
40
0.5
50
45
51
60.6045152
0
ARC
8
0
6
CONTINUOUS
10
183.9887197
20
-125.0873223
40
0.5
50
60.6045152
51
75.5576875
0
ARC
8
0
6
CONTINUOUS
10
166.484883
20
-120.5793192
40
0.5
50
75.5576875
51
90.1347483
0
ARC
8
0
6
CONTINUOUS
10
146.1939824
20
-110.3057668
40
0.5
50
0.6942929
51
89.6717392
0
ENDSEC
0
EOF