0
SECTION
2
HEADER
9
$INSUNITS
70
4
0
ENDSEC
0
SECTION
2
TABLES
0
TABLE
2
LTYPE
0
LTYPE
72
65
70
0
2
CONTINUOUS
3
______
73
0
40
0
0
LTYPE
72
65
70
0
2
DASHED
3
_ _ _ 
73
2
40
7.5
49
5
49
-2.5
0
LTYPE
72
65
70
0
2
DOTTED
3
. . . 
73
2
40
1.5
49
0.5
49
-1
0
ENDTAB
0
TABLE
2
LAYER
0
ENDTAB
0
ENDSEC
0
SECTION
2
ENTITIES
0
LINE
8
0
6
CONTINUOUS
10
93.4818975
20
-106.3565847
11
93.4801031
21
-55.8907811
0
LINE
8
0
6
CONTINUOUS
10
93.9802347
20
-55.3907633
11
130.9798684
21
-55.4005001
0
LINE
8
0
6
CONTINUOUS
10
131.48
20
-54.9005001
11
131.48
21
-46.3991723
0
LINE
8
0
6
CONTINUOUS
10
131.9815789
20
-45.8991748
11
149.9784211
21
-45.956007
0
LINE
8
0
6
CONTINUOUS
10
150.48
20
-45.4560095
11
150.48
21
-41.763
0
LINE
8
0
6
CONTINUOUS
10
150.98
20
-41.263
11
163.182
21
-41.263
0
LINE
8
0
6
CONTINUOUS
10
163.682
20
-43.8543383
11
163.682
21
-41.763
0
LINE
8
0
6
CONTINUOUS
10
164.1831404
20
-44.354337
11
182.682
21
-44.3121467
0
LINE
8
0
6
CONTINUOUS
10
182.682
20
-46.3046667
11
182.682
21
-44.3121467
0
LINE
8
0
6
CONTINUOUS
10
183.182
20
-46.8046667
11
201.2175064
21
-46.8046667
0
LINE
8
0
6
CONTINUOUS
10
201.7165548
20
-47.2738334
11
201.7977187
21
-48.5875
0
LINE
8
0
6
CONTINUOUS
10
202.2967671
20
-49.0566667
11
221.933
21
-49.0566667
0
LINE
8
0
6
CONTINUOUS
10
222.433
20
-49.5566667
11
222.433
21
-106.342152
0
LINE
8
0
6
CONTINUOUS
10
222.367375
20
-106.5897775
11
222.1362437
21
-106.995219
0
LINE
8
0
6
CONTINUOUS
10
222.0727735
20
-107.2892137
11
224.4613071
21
-132.9337832
0
LINE
8
0
6
CONTINUOUS
10
224.3170153
20
-133.3337058
11
214.3427089
21
-143.3080123
0
LINE
8
0
6
CONTINUOUS
10
201.8772257
20
-131.5496359
11
213.6356021
21
-143.3080123
0
LINE
8
0
6
CONTINUOUS
10
185.1746781
20
-122.1399677
11
201.8772257
21
-131.5496359
0
LINE
8
0
6
CONTINUOUS
10
166.8803573
20
-117.4283804
11
185.1746781
21
-122.1399677
0
LINE
8
0
6
CONTINUOUS
10
149.9261641
20
-117.4682528
11
166.8803573
21
-117.4283804
0
LINE
8
0
6
CONTINUOUS
10
149.4250249
20
-116.9743129
11
149.3348238
21
-109.5309183
0
LINE
8
0
6
CONTINUOUS
10
149.3348238
20
-109.5309183
11
149.312208
21
-107.6646655
0
LINE
8
0
6
CONTINUOUS
10
93.9790329
20
-106.8565587
11
148.8151094
21
-107.1707324
0
ARC
8
0
6
CONTINUOUS
10
93.9801031
20
-55.8907633
40
0.5
50
89.9849198
51
180.0020397
0
ARC
8
0
6
CONTINUOUS
10
130.98
20
-54.9005001
40
0.5
50
269.9849198
51
0
0
ARC
8
0
6
CONTINUOUS
10
131.98
20
-46.3991723
40
0.5
50
89.8190654
51
180
0
ARC
8
0
6
CONTINUOUS
10
149.98
20
-45.4560095
40
0.5
50
269.8190654
51
0
0
ARC
8
0
6
CONTINUOUS
10
150.98
20
-41.763
40
0.5
50
90
51
180
0
ARC
8
0
6
CONTINUOUS
10
163.182
20
-41.763
40
0.5
50
0
51
90
0
ARC
8
0
6
CONTINUOUS
10
164.182
20
-43.8543383
40
0.5
50
180
51
270.1306746
0
ARC
8
0
6
CONTINUOUS
10
183.182
20
-46.3046667
40
0.5
50
180
51
270
0
ARC
8
0
6
CONTINUOUS
10
201.2175064
20
-47.3046667
40
0.5
50
3.5354791
51
90
0
ARC
8
0
6
CONTINUOUS
10
202.2967671
20
-48.5566667
40
0.5
50
183.5354791
51
270
0
ARC
8
0
6
CONTINUOUS
10
221.933
20
-49.5566667
40
0.5
50
0
51
90
0
ARC
8
0
6
CONTINUOUS
10
221.933
20
-106.342152
40
0.5
50
330.3137039
51
0
0
ARC
8
0
6
CONTINUOUS
10
222.5706187
20
-107.2428444
40
0.5
50
150.3137039
51
185.3211764
0
ARC
8
0
6
CONTINUOUS
10
223.9634619
20
-132.9801524
40
0.5
50
315
51
5.3211707
0
ARC
8
0
6
CONTINUOUS
10
213.9891555
20
-142.9544589
40
0.5
50
225
51
315
0
ARC
8
0
6
CONTINUOUS
10
149.9249882
20
-116.9682542
40
0.5
50
180.6942929
51
270.1347483
0
ARC
8
0
6
CONTINUOUS
10
148.8122447
20
-107.6707242
40
0.5
50
0.6942929
51
89.6717335
0
ARC
8
0
6
CONTINUOUS
10
93.9818975
20
-106.3565669
40
0.5
50
180.0020397
51
269.6717392
0
ENDSEC
0
EOF