<svg width="138.835mm" height="111.486mm" viewBox="0 0 138.835 111.486" xmlns="http://www.w3.org/2000/svg"><g id="svgGroup" stroke-linecap="round" fill-rule="evenodd" font-size="9pt" stroke="#000" stroke-width="0.25mm" fill="none" style="stroke:#000;stroke-width:0.25mm;fill:none"><path d="M 0.002 71.827 L 0 15.577 L 0 14.627 A 0.5 0.5 0 0 1 0.5 14.127 L 37.5 14.136 A 0.5 0.5 0 0 0 38 13.636 L 38 5.124 A 0.5 0.5 0 0 1 38.502 4.624 L 56.498 4.681 A 0.5 0.5 0 0 0 57 4.181 L 57 0.5 A 0.5 0.5 0 0 1 57.5 0 L 77.402 0 A 0.5 0.5 0 0 1 77.902 0.5 L 77.902 2.583 A 0.5 0.5 0 0 0 78.403 3.083 L 96.401 3.041 A 0.5 0.5 0 0 1 96.902 3.541 L 96.902 5.042 A 0.5 0.5 0 0 0 97.402 5.542 L 115.402 5.542 A 0.5 0.5 0 0 1 115.902 6.041 L 115.902 6.991 L 115.902 7.294 A 0.5 0.5 0 0 0 116.402 7.794 L 136.153 7.794 A 0.5 0.5 0 0 1 136.653 8.294 L 136.653 70.093 L 136.375 70.575 L 138.791 96.52 L 138.832 96.964 A 0.5 0.5 0 0 1 138.688 97.364 L 124.713 111.34 A 0.5 0.5 0 0 1 124.006 111.34 L 109.946 97.28 A 0.5 0.5 0 0 0 109.838 97.198 L 94.152 88.361 A 0.5 0.5 0 0 0 94.032 88.313 L 76.829 83.882 A 0.5 0.5 0 0 0 76.703 83.867 L 56.493 83.914 A 0.5 0.5 0 0 1 55.992 83.42 L 55.98 82.48 L 55.878 74.08 A 0.5 0.5 0 0 0 55.381 73.586 L 0.499 73.272 A 0.5 0.5 0 0 1 0.002 72.772 L 0.002 71.827 Z M 1.202 71.827 L 1.2 15.577 L 1.2 15.327 L 38.7 15.337 A 0.5 0.5 0 0 0 39.2 14.837 L 39.2 5.826 L 57.698 5.885 A 0.5 0.5 0 0 0 58.2 5.385 L 58.2 1.2 L 76.702 1.2 L 76.702 3.785 A 0.5 0.5 0 0 0 77.203 4.285 L 95.702 4.243 L 95.702 6.242 A 0.5 0.5 0 0 0 96.202 6.742 L 114.702 6.742 L 114.702 6.992 L 114.703 8.494 A 0.5 0.5 0 0 0 115.203 8.994 L 135.453 8.994 L 135.453 69.772 L 135.224 70.168 A 0.5 0.5 0 0 0 135.159 70.465 L 137.596 96.631 L 137.607 96.748 L 124.359 109.996 L 110.679 96.316 A 0.5 0.5 0 0 0 110.57 96.234 L 94.604 87.239 A 0.5 0.5 0 0 0 94.483 87.19 L 76.98 82.682 A 0.5 0.5 0 0 0 76.854 82.666 L 57.183 82.713 L 57.18 82.465 L 57.064 72.887 A 0.5 0.5 0 0 0 56.567 72.393 L 1.202 72.076 L 1.202 71.827 Z" vector-effect="non-scaling-stroke"/></g></svg>