0
SECTION
2
HEADER
9
$INSUNITS
70
4
0
ENDSEC
0
SECTION
2
TABLES
0
TABLE
2
LTYPE
0
LTYPE
72
65
70
0
2
CONTINUOUS
3
______
73
0
40
0
0
LTYPE
72
65
70
0
2
DASHED
3
_ _ _ 
73
2
40
7.5
49
5
49
-2.5
0
LTYPE
72
65
70
0
2
DOTTED
3
. . . 
73
2
40
1.5
49
0.5
49
-1
0
ENDTAB
0
TABLE
2
LAYER
0
ENDTAB
0
ENDSEC
0
SECTION
2
ENTITIES
0
LINE
8
0
6
CONTINUOUS
10
89.632
20
-109.2400516
11
89.63
21
-52.9900516
0
LINE
8
0
6
CONTINUOUS
10
89.6299662
20
-52.0397678
11
89.63
21
-52.9900516
0
LINE
8
0
6
CONTINUOUS
10
90.1300978
20
-51.53975
11
127.1298684
21
-51.5494868
0
LINE
8
0
6
CONTINUOUS
10
127.63
20
-51.0494868
11
127.63
21
-42.5369952
0
LINE
8
0
6
CONTINUOUS
10
128.1315789
20
-42.0369977
11
146.1284211
21
-42.0938299
0
LINE
8
0
6
CONTINUOUS
10
146.63
20
-41.5938324
11
146.63
21
-37.913
0
LINE
8
0
6
CONTINUOUS
10
147.13
20
-37.413
11
167.032
21
-37.413
0
LINE
8
0
6
CONTINUOUS
10
167.532
20
-39.9955476
11
167.532
21
-37.913
0
LINE
8
0
6
CONTINUOUS
10
168.0331403
20
-40.4955463
11
186.0308596
21
-40.4544989
0
LINE
8
0
6
CONTINUOUS
10
186.532
20
-42.4546667
11
186.532
21
-40.9544976
0
LINE
8
0
6
CONTINUOUS
10
187.032
20
-42.9546667
11
205.0315782
21
-42.9546667
0
LINE
8
0
6
CONTINUOUS
10
205.5319999
20
-44.4040228
11
205.5315782
21
-43.4544446
0
LINE
8
0
6
CONTINUOUS
10
205.5319999
20
-44.4040228
11
205.5321344
21
-44.7068887
0
LINE
8
0
6
CONTINUOUS
10
206.0321344
20
-45.2066667
11
225.783
21
-45.2066667
0
LINE
8
0
6
CONTINUOUS
10
226.283
20
-107.506193
11
226.283
21
-45.7066667
0
LINE
8
0
6
CONTINUOUS
10
226.0045644
20
-107.9884575
11
226.283
21
-107.506193
0
LINE
8
0
6
CONTINUOUS
10
226.0045644
20
-107.9884575
11
228.421044
21
-133.93307
0
LINE
8
0
6
CONTINUOUS
10
228.4624275
20
-134.377385
11
228.421044
21
-133.93307
0
LINE
8
0
6
CONTINUOUS
10
214.3427089
20
-148.7527345
11
228.3181356
21
-134.7773077
0
LINE
8
0
6
CONTINUOUS
10
199.5763359
20
-134.6934683
11
213.6356021
21
-148.7527345
0
LINE
8
0
6
CONTINUOUS
10
199.4682001
20
-134.6113955
11
183.7823436
21
-125.7744978
0
LINE
8
0
6
CONTINUOUS
10
183.6616286
20
-125.7259244
11
166.4589288
21
-121.2954772
0
LINE
8
0
6
CONTINUOUS
10
146.1226453
20
-121.3272085
11
166.3330503
21
-121.2796782
0
LINE
8
0
6
CONTINUOUS
10
145.6101065
20
-119.8925702
11
145.6215061
21
-120.8332685
0
LINE
8
0
6
CONTINUOUS
10
145.6101065
20
-119.8925702
11
145.5083174
21
-111.4929349
0
LINE
8
0
6
CONTINUOUS
10
90.129169
20
-110.6845647
11
145.0112187
21
-110.9990018
0
LINE
8
0
6
CONTINUOUS
10
89.632
20
-109.2400516
11
89.6320336
21
-110.1845907
0
ARC
8
0
6
CONTINUOUS
10
90.1299662
20
-52.03975
40
0.5
50
89.9849198
51
180.0020398
0
ARC
8
0
6
CONTINUOUS
10
127.13
20
-51.0494868
40
0.5
50
269.9849198
51
0
0
ARC
8
0
6
CONTINUOUS
10
128.13
20
-42.5369952
40
0.5
50
89.8190654
51
180
0
ARC
8
0
6
CONTINUOUS
10
146.13
20
-41.5938324
40
0.5
50
269.8190654
51
0
0
ARC
8
0
6
CONTINUOUS
10
147.13
20
-37.913
40
0.5
50
90
51
180
0
ARC
8
0
6
CONTINUOUS
10
167.032
20
-37.913
40
0.5
50
0
51
90
0
ARC
8
0
6
CONTINUOUS
10
168.032
20
-39.9955476
40
0.5
50
180
51
270.1306746
0
ARC
8
0
6
CONTINUOUS
10
186.032
20
-40.9544976
40
0.5
50
0
51
90.1306746
0
ARC
8
0
6
CONTINUOUS
10
187.032
20
-42.4546667
40
0.5
50
180
51
270
0
ARC
8
0
6
CONTINUOUS
10
205.0315782
20
-43.4546667
40
0.5
50
0.0254451
51
90
0
ARC
8
0
6
CONTINUOUS
10
206.0321344
20
-44.7066667
40
0.5
50
180.0254393
51
270
0
ARC
8
0
6
CONTINUOUS
10
225.783
20
-45.7066667
40
0.5
50
0
51
90
0
ARC
8
0
6
CONTINUOUS
10
227.9645823
20
-134.4237543
40
0.5
50
314.9999919
51
5.3211764
0
ARC
8
0
6
CONTINUOUS
10
213.9891555
20
-148.3991812
40
0.5
50
224.9999959
51
315.0000041
0
ARC
8
0
6
CONTINUOUS
10
199.2227825
20
-135.0470217
40
0.5
50
45
51
60.6045152
0
ARC
8
0
6
CONTINUOUS
10
183.536926
20
-126.210124
40
0.5
50
60.6045152
51
75.5576875
0
ARC
8
0
6
CONTINUOUS
10
166.3342262
20
-121.7796768
40
0.5
50
75.5576875
51
90.1347483
0
ARC
8
0
6
CONTINUOUS
10
146.1214694
20
-120.8272099
40
0.5
50
180.6942871
51
270.1347483
0
ARC
8
0
6
CONTINUOUS
10
145.0083541
20
-111.4989936
40
0.5
50
0.6942929
51
89.6717392
0
ARC
8
0
6
CONTINUOUS
10
90.1320336
20
-110.1845729
40
0.5
50
180.0020398
51
269.6717392
0
LINE
8
0
6
CONTINUOUS
10
90.832
20
-109.2400089
11
90.83
21
-52.9900089
0
LINE
8
0
6
CONTINUOUS
10
90.8299911
20
-52.7399342
11
90.83
21
-52.9900089
0
LINE
8
0
6
CONTINUOUS
10
90.8299911
20
-52.7399342
11
128.3298684
21
-52.7498026
0
LINE
8
0
6
CONTINUOUS
10
128.83
20
-52.2498026
11
128.83
21
-43.2392092
0
LINE
8
0
6
CONTINUOUS
10
128.83
20
-43.2392092
11
147.3284211
21
-43.2976253
0
LINE
8
0
6
CONTINUOUS
10
147.83
20
-42.7976278
11
147.83
21
-38.613
0
LINE
8
0
6
CONTINUOUS
10
147.83
20
-38.613
11
166.332
21
-38.613
0
LINE
8
0
6
CONTINUOUS
10
166.332
20
-41.1982876
11
166.332
21
-38.613
0
LINE
8
0
6
CONTINUOUS
10
166.8331403
20
-41.6982863
11
185.332
21
-41.6560959
0
LINE
8
0
6
CONTINUOUS
10
185.332
20
-43.6546667
11
185.332
21
-41.6560959
0
LINE
8
0
6
CONTINUOUS
10
185.832
20
-44.1546667
11
204.331889
21
-44.1546667
0
LINE
8
0
6
CONTINUOUS
10
204.332
20
-44.4045557
11
204.331889
21
-44.1546667
0
LINE
8
0
6
CONTINUOUS
10
204.332
20
-44.4045557
11
204.3326671
21
-45.9068887
0
LINE
8
0
6
CONTINUOUS
10
204.8326671
20
-46.4066667
11
225.083
21
-46.4066667
0
LINE
8
0
6
CONTINUOUS
10
225.083
20
-107.184654
11
225.083
21
-46.4066667
0
LINE
8
0
6
CONTINUOUS
10
224.8538999
20
-107.5814671
11
225.083
21
-107.184654
0
LINE
8
0
6
CONTINUOUS
10
224.7890674
20
-107.8778364
11
227.2262154
21
-134.0443563
0
LINE
8
0
6
CONTINUOUS
10
227.2371058
20
-134.1612813
11
227.2262154
21
-134.0443563
0
LINE
8
0
6
CONTINUOUS
10
213.9891555
20
-147.4092317
11
227.2371058
21
-134.1612813
0
LINE
8
0
6
CONTINUOUS
10
200.308596
20
-133.7286722
11
213.9891555
21
-147.4092317
0
LINE
8
0
6
CONTINUOUS
10
200.2004601
20
-133.6465993
11
184.2341372
21
-124.651696
0
LINE
8
0
6
CONTINUOUS
10
184.1134222
20
-124.6031227
11
166.6095856
21
-120.0951196
0
LINE
8
0
6
CONTINUOUS
10
146.8130182
20
-120.1255815
11
166.4837071
21
-120.0793206
0
LINE
8
0
6
CONTINUOUS
10
146.8100184
20
-119.8780293
11
146.8130182
21
-120.1255815
0
LINE
8
0
6
CONTINUOUS
10
146.8100184
20
-119.8780293
11
146.6939457
21
-110.2997081
0
LINE
8
0
6
CONTINUOUS
10
90.8320088
20
-109.4885718
11
146.196847
21
-109.805775
0
LINE
8
0
6
CONTINUOUS
10
90.832
20
-109.2400089
11
90.8320088
21
-109.4885718
0
ARC
8
0
6
CONTINUOUS
10
128.33
20
-52.2498026
40
0.5
50
269.9849198
51
0
0
ARC
8
0
6
CONTINUOUS
10
147.33
20
-42.7976278
40
0.5
50
269.8190654
51
0
0
ARC
8
0
6
CONTINUOUS
10
166.832
20
-41.1982876
40
0.5
50
180
51
270.1306746
0
ARC
8
0
6
CONTINUOUS
10
185.832
20
-43.6546667
40
0.5
50
180
51
270
0
ARC
8
0
6
CONTINUOUS
10
204.8326671
20
-45.9066667
40
0.5
50
180.0254393
51
270
0
ARC
8
0
6
CONTINUOUS
10
225.2869126
20
-107.8314671
40
0.5
50
149.9999999
51
185.3211707
0
ARC
8
0
6
CONTINUOUS
10
199.9550426
20
-134.0822256
40
0.5
50
45
51
60.6045152
0
ARC
8
0
6
CONTINUOUS
10
183.9887197
20
-125.0873223
40
0.5
50
60.6045152
51
75.5576875
0
ARC
8
0
6
CONTINUOUS
10
166.484883
20
-120.5793192
40
0.5
50
75.5576875
51
90.1347483
0
ARC
8
0
6
CONTINUOUS
10
146.1939824
20
-110.3057668
40
0.5
50
0.6942929
51
89.6717392
0
ENDSEC
0
EOF