<svg width="130.983mm" height="102.191mm" viewBox="0 0 130.983 102.191" xmlns="http://www.w3.org/2000/svg"><g id="svgGroup" stroke-linecap="round" fill-rule="evenodd" font-size="9pt" stroke="#000" stroke-width="0.25mm" fill="none" style="stroke:#000;stroke-width:0.25mm;fill:none"><path d="M 0.002 65.094 L 0 14.628 A 0.5 0.5 0 0 1 0.5 14.128 L 37.5 14.138 A 0.5 0.5 0 0 0 38 13.638 L 38 5.136 A 0.5 0.5 0 0 1 38.501 4.636 L 56.498 4.693 A 0.5 0.5 0 0 0 57 4.193 L 57 0.5 A 0.5 0.5 0 0 1 57.5 0 L 69.702 0 A 0.5 0.5 0 0 1 70.202 0.5 L 70.202 2.591 A 0.5 0.5 0 0 0 70.703 3.091 L 89.202 3.049 L 89.202 5.042 A 0.5 0.5 0 0 0 89.702 5.542 L 107.737 5.542 A 0.5 0.5 0 0 1 108.236 6.011 L 108.318 7.324 A 0.5 0.5 0 0 0 108.817 7.794 L 128.453 7.794 A 0.5 0.5 0 0 1 128.953 8.294 L 128.953 65.079 A 0.5 0.5 0 0 1 128.887 65.327 L 128.656 65.732 A 0.5 0.5 0 0 0 128.593 66.026 L 130.981 91.671 A 0.5 0.5 0 0 1 130.837 92.071 L 120.863 102.045 A 0.5 0.5 0 0 1 120.155 102.045 L 108.397 90.287 L 91.695 80.877 L 73.4 76.165 L 56.446 76.205 A 0.5 0.5 0 0 1 55.945 75.711 L 55.855 68.268 L 55.832 66.402 A 0.5 0.5 0 0 0 55.335 65.908 L 0.499 65.594 A 0.5 0.5 0 0 1 0.002 65.094 Z" vector-effect="non-scaling-stroke"/></g></svg>