0
SECTION
2
HEADER
9
$INSUNITS
70
4
0
ENDSEC
0
SECTION
2
TABLES
0
TABLE
2
LTYPE
0
LTYPE
72
65
70
0
2
CONTINUOUS
3
______
73
0
40
0
0
LTYPE
72
65
70
0
2
DASHED
3
_ _ _ 
73
2
40
7.5
49
5
49
-2.5
0
LTYPE
72
65
70
0
2
DOTTED
3
. . . 
73
2
40
1.5
49
0.5
49
-1
0
ENDTAB
0
TABLE
2
LAYER
0
ENDTAB
0
ENDSEC
0
SECTION
2
ENTITIES
0
LINE
8
0
6
CONTINUOUS
10
97
20
-100.005
11
99.995
21
-100.005
0
LINE
8
0
6
CONTINUOUS
10
100.005
20
-100.005
11
102.6000313
21
-100.005
0
LINE
8
0
6
CONTINUOUS
10
102.6000313
20
-99.995
11
100.005
21
-99.995
0
LINE
8
0
6
CONTINUOUS
10
99.995
20
-99.995
11
97
21
-99.995
0
LINE
8
0
6
CONTINUOUS
10
97
20
-99.995
11
97
21
-100.005
0
LINE
8
0
6
CONTINUOUS
10
97
20
-81.005
11
99.995
21
-81.005
0
LINE
8
0
6
CONTINUOUS
10
100.005
20
-81.005
11
102.6000313
21
-81.005
0
LINE
8
0
6
CONTINUOUS
10
102.6000313
20
-80.995
11
100.005
21
-80.995
0
LINE
8
0
6
CONTINUOUS
10
99.995
20
-80.995
11
97
21
-80.995
0
LINE
8
0
6
CONTINUOUS
10
97
20
-80.995
11
97
21
-81.005
0
LINE
8
0
6
CONTINUOUS
10
97
20
-62.005
11
99.995
21
-62.005
0
LINE
8
0
6
CONTINUOUS
10
100.005
20
-62.005
11
102.6000313
21
-62.005
0
LINE
8
0
6
CONTINUOUS
10
102.6000313
20
-61.995
11
100.005
21
-61.995
0
LINE
8
0
6
CONTINUOUS
10
99.995
20
-61.995
11
97
21
-61.995
0
LINE
8
0
6
CONTINUOUS
10
97
20
-61.995
11
97
21
-62.005
0
LINE
8
0
6
CONTINUOUS
10
116
20
-100.005
11
118.995
21
-100.005
0
LINE
8
0
6
CONTINUOUS
10
119.005
20
-100.005
11
121.6000313
21
-100.005
0
LINE
8
0
6
CONTINUOUS
10
121.6000313
20
-99.995
11
119.005
21
-99.995
0
LINE
8
0
6
CONTINUOUS
10
118.995
20
-99.995
11
116
21
-99.995
0
LINE
8
0
6
CONTINUOUS
10
116
20
-99.995
11
116
21
-100.005
0
LINE
8
0
6
CONTINUOUS
10
116
20
-81.005
11
118.995
21
-81.005
0
LINE
8
0
6
CONTINUOUS
10
119.005
20
-81.005
11
121.6000313
21
-81.005
0
LINE
8
0
6
CONTINUOUS
10
121.6000313
20
-80.995
11
119.005
21
-80.995
0
LINE
8
0
6
CONTINUOUS
10
118.995
20
-80.995
11
116
21
-80.995
0
LINE
8
0
6
CONTINUOUS
10
116
20
-80.995
11
116
21
-81.005
0
LINE
8
0
6
CONTINUOUS
10
116
20
-62.005
11
118.995
21
-62.005
0
LINE
8
0
6
CONTINUOUS
10
119.005
20
-62.005
11
121.6000313
21
-62.005
0
LINE
8
0
6
CONTINUOUS
10
121.6000313
20
-61.995
11
119.005
21
-61.995
0
LINE
8
0
6
CONTINUOUS
10
118.995
20
-61.995
11
116
21
-61.995
0
LINE
8
0
6
CONTINUOUS
10
116
20
-61.995
11
116
21
-62.005
0
LINE
8
0
6
CONTINUOUS
10
135
20
-90.505
11
137.995
21
-90.505
0
LINE
8
0
6
CONTINUOUS
10
138.005
20
-90.505
11
140.6000313
21
-90.505
0
LINE
8
0
6
CONTINUOUS
10
140.6000313
20
-90.495
11
138.005
21
-90.495
0
LINE
8
0
6
CONTINUOUS
10
137.995
20
-90.495
11
135
21
-90.495
0
LINE
8
0
6
CONTINUOUS
10
135
20
-90.495
11
135
21
-90.505
0
LINE
8
0
6
CONTINUOUS
10
135
20
-71.505
11
137.995
21
-71.505
0
LINE
8
0
6
CONTINUOUS
10
138.005
20
-71.505
11
140.6000313
21
-71.505
0
LINE
8
0
6
CONTINUOUS
10
140.6000313
20
-71.495
11
138.005
21
-71.495
0
LINE
8
0
6
CONTINUOUS
10
137.995
20
-71.495
11
135
21
-71.495
0
LINE
8
0
6
CONTINUOUS
10
135
20
-71.495
11
135
21
-71.505
0
LINE
8
0
6
CONTINUOUS
10
135
20
-52.505
11
137.995
21
-52.505
0
LINE
8
0
6
CONTINUOUS
10
138.005
20
-52.505
11
140.6000313
21
-52.505
0
LINE
8
0
6
CONTINUOUS
10
140.6000313
20
-52.495
11
138.005
21
-52.495
0
LINE
8
0
6
CONTINUOUS
10
137.995
20
-52.495
11
135
21
-52.495
0
LINE
8
0
6
CONTINUOUS
10
135
20
-52.495
11
135
21
-52.505
0
LINE
8
0
6
CONTINUOUS
10
154
20
-85.755
11
156.995
21
-85.755
0
LINE
8
0
6
CONTINUOUS
10
157.005
20
-85.755
11
159.6000313
21
-85.755
0
LINE
8
0
6
CONTINUOUS
10
159.6000313
20
-85.745
11
157.005
21
-85.745
0
LINE
8
0
6
CONTINUOUS
10
156.995
20
-85.745
11
154
21
-85.745
0
LINE
8
0
6
CONTINUOUS
10
154
20
-85.745
11
154
21
-85.755
0
LINE
8
0
6
CONTINUOUS
10
154
20
-66.755
11
156.995
21
-66.755
0
LINE
8
0
6
CONTINUOUS
10
157.005
20
-66.755
11
159.6000313
21
-66.755
0
LINE
8
0
6
CONTINUOUS
10
159.6000313
20
-66.745
11
157.005
21
-66.745
0
LINE
8
0
6
CONTINUOUS
10
156.995
20
-66.745
11
154
21
-66.745
0
LINE
8
0
6
CONTINUOUS
10
154
20
-66.745
11
154
21
-66.755
0
LINE
8
0
6
CONTINUOUS
10
154
20
-47.755
11
156.995
21
-47.755
0
LINE
8
0
6
CONTINUOUS
10
157.005
20
-47.755
11
159.6000313
21
-47.755
0
LINE
8
0
6
CONTINUOUS
10
159.6000313
20
-47.745
11
157.005
21
-47.745
0
LINE
8
0
6
CONTINUOUS
10
156.995
20
-47.745
11
154
21
-47.745
0
LINE
8
0
6
CONTINUOUS
10
154
20
-47.745
11
154
21
-47.755
0
LINE
8
0
6
CONTINUOUS
10
173
20
-88.9216667
11
175.995
21
-88.9216667
0
LINE
8
0
6
CONTINUOUS
10
176.005
20
-88.9216667
11
178.6000313
21
-88.9216667
0
LINE
8
0
6
CONTINUOUS
10
178.6000313
20
-88.9116667
11
176.005
21
-88.9116667
0
LINE
8
0
6
CONTINUOUS
10
175.995
20
-88.9116667
11
173
21
-88.9116667
0
LINE
8
0
6
CONTINUOUS
10
173
20
-88.9116667
11
173
21
-88.9216667
0
LINE
8
0
6
CONTINUOUS
10
173
20
-69.9216667
11
175.995
21
-69.9216667
0
LINE
8
0
6
CONTINUOUS
10
176.005
20
-69.9216667
11
178.6000313
21
-69.9216667
0
LINE
8
0
6
CONTINUOUS
10
178.6000313
20
-69.9116667
11
176.005
21
-69.9116667
0
LINE
8
0
6
CONTINUOUS
10
175.995
20
-69.9116667
11
173
21
-69.9116667
0
LINE
8
0
6
CONTINUOUS
10
173
20
-69.9116667
11
173
21
-69.9216667
0
LINE
8
0
6
CONTINUOUS
10
173
20
-50.9216667
11
175.995
21
-50.9216667
0
LINE
8
0
6
CONTINUOUS
10
176.005
20
-50.9216667
11
178.6000313
21
-50.9216667
0
LINE
8
0
6
CONTINUOUS
10
178.6000313
20
-50.9116667
11
176.005
21
-50.9116667
0
LINE
8
0
6
CONTINUOUS
10
175.995
20
-50.9116667
11
173
21
-50.9116667
0
LINE
8
0
6
CONTINUOUS
10
173
20
-50.9116667
11
173
21
-50.9216667
0
LINE
8
0
6
CONTINUOUS
10
192
20
-91.2966667
11
194.995
21
-91.2966667
0
LINE
8
0
6
CONTINUOUS
10
195.005
20
-91.2966667
11
197.6000313
21
-91.2966667
0
LINE
8
0
6
CONTINUOUS
10
197.6000313
20
-91.2866667
11
195.005
21
-91.2866667
0
LINE
8
0
6
CONTINUOUS
10
194.995
20
-91.2866667
11
192
21
-91.2866667
0
LINE
8
0
6
CONTINUOUS
10
192
20
-91.2866667
11
192
21
-91.2966667
0
LINE
8
0
6
CONTINUOUS
10
192
20
-72.2966667
11
194.995
21
-72.2966667
0
LINE
8
0
6
CONTINUOUS
10
195.005
20
-72.2966667
11
197.6000313
21
-72.2966667
0
LINE
8
0
6
CONTINUOUS
10
197.6000313
20
-72.2866667
11
195.005
21
-72.2866667
0
LINE
8
0
6
CONTINUOUS
10
194.995
20
-72.2866667
11
192
21
-72.2866667
0
LINE
8
0
6
CONTINUOUS
10
192
20
-72.2866667
11
192
21
-72.2966667
0
LINE
8
0
6
CONTINUOUS
10
192
20
-53.2966667
11
194.995
21
-53.2966667
0
LINE
8
0
6
CONTINUOUS
10
195.005
20
-53.2966667
11
197.6000313
21
-53.2966667
0
LINE
8
0
6
CONTINUOUS
10
197.6000313
20
-53.2866667
11
195.005
21
-53.2866667
0
LINE
8
0
6
CONTINUOUS
10
194.995
20
-53.2866667
11
192
21
-53.2866667
0
LINE
8
0
6
CONTINUOUS
10
192
20
-53.2866667
11
192
21
-53.2966667
0
LINE
8
0
6
CONTINUOUS
10
154
20
-110.755
11
156.995
21
-110.755
0
LINE
8
0
6
CONTINUOUS
10
157.005
20
-110.755
11
159.6000313
21
-110.755
0
LINE
8
0
6
CONTINUOUS
10
159.6000313
20
-110.745
11
157.005
21
-110.745
0
LINE
8
0
6
CONTINUOUS
10
156.995
20
-110.745
11
154
21
-110.745
0
LINE
8
0
6
CONTINUOUS
10
154
20
-110.745
11
154
21
-110.755
0
LINE
8
0
6
CONTINUOUS
10
174.7009284
20
-112.4783725
11
177.5938763
21
-113.2535356
0
LINE
8
0
6
CONTINUOUS
10
177.6035355
20
-113.2561237
11
180.1101432
21
-113.9277673
0
LINE
8
0
6
CONTINUOUS
10
180.1127315
20
-113.9181079
11
177.6061237
21
-113.2464644
0
LINE
8
0
6
CONTINUOUS
10
177.5964645
20
-113.2438763
11
174.7035166
21
-112.4687132
0
LINE
8
0
6
CONTINUOUS
10
174.7035166
20
-112.4687132
11
174.7009284
21
-112.4783725
0
LINE
8
0
6
CONTINUOUS
10
194.2504482
20
-119.500817
11
196.8441943
21
-120.998317
0
LINE
8
0
6
CONTINUOUS
10
196.8528545
20
-121.003317
11
199.1002175
21
-122.3008327
0
LINE
8
0
6
CONTINUOUS
10
199.1052175
20
-122.2921724
11
196.8578545
21
-120.9946568
0
LINE
8
0
6
CONTINUOUS
10
196.8491943
20
-120.9896568
11
194.2554482
21
-119.4921568
0
LINE
8
0
6
CONTINUOUS
10
194.2554482
20
-119.4921568
11
194.2504482
21
-119.500817
0
LINE
8
0
6
CONTINUOUS
10
211.3162918
20
-131.3437656
11
213.4340766
21
-133.4615504
0
LINE
8
0
6
CONTINUOUS
10
213.4411477
20
-133.4686215
11
215.2761119
21
-135.3035856
0
LINE
8
0
6
CONTINUOUS
10
215.2831829
20
-135.2965146
11
213.4482188
21
-133.4615504
0
LINE
8
0
6
CONTINUOUS
10
213.4411477
20
-133.4544793
11
211.3233629
21
-131.3366945
0
LINE
8
0
6
CONTINUOUS
10
211.3233629
20
-131.3366945
11
211.3162918
21
-131.3437656
0
LINE
8
0
6
CONTINUOUS
10
192
20
-64.4966667
11
194.995
21
-64.4966667
0
LINE
8
0
6
CONTINUOUS
10
195.005
20
-64.4966667
11
197.6000313
21
-64.4966667
0
LINE
8
0
6
CONTINUOUS
10
197.6000313
20
-64.4866667
11
195.005
21
-64.4866667
0
LINE
8
0
6
CONTINUOUS
10
194.995
20
-64.4866667
11
192
21
-64.4866667
0
LINE
8
0
6
CONTINUOUS
10
192
20
-64.4866667
11
192
21
-64.4966667
0
LINE
8
0
6
CONTINUOUS
10
154
20
-58.955
11
156.995
21
-58.955
0
LINE
8
0
6
CONTINUOUS
10
157.005
20
-58.955
11
159.6000313
21
-58.955
0
LINE
8
0
6
CONTINUOUS
10
159.6000313
20
-58.945
11
157.005
21
-58.945
0
LINE
8
0
6
CONTINUOUS
10
156.995
20
-58.945
11
154
21
-58.945
0
LINE
8
0
6
CONTINUOUS
10
154
20
-58.945
11
154
21
-58.955
0
LINE
8
0
6
CONTINUOUS
10
116
20
-73.205
11
118.995
21
-73.205
0
LINE
8
0
6
CONTINUOUS
10
119.005
20
-73.205
11
121.6000313
21
-73.205
0
LINE
8
0
6
CONTINUOUS
10
121.6000313
20
-73.195
11
119.005
21
-73.195
0
LINE
8
0
6
CONTINUOUS
10
118.995
20
-73.195
11
116
21
-73.195
0
LINE
8
0
6
CONTINUOUS
10
116
20
-73.195
11
116
21
-73.205
0
LINE
8
0
6
CONTINUOUS
10
116
20
-92.205
11
118.995
21
-92.205
0
LINE
8
0
6
CONTINUOUS
10
119.005
20
-92.205
11
121.6000313
21
-92.205
0
LINE
8
0
6
CONTINUOUS
10
121.6000313
20
-92.195
11
119.005
21
-92.195
0
LINE
8
0
6
CONTINUOUS
10
118.995
20
-92.195
11
116
21
-92.195
0
LINE
8
0
6
CONTINUOUS
10
116
20
-92.195
11
116
21
-92.205
0
LINE
8
0
6
CONTINUOUS
10
154
20
-96.955
11
156.995
21
-96.955
0
LINE
8
0
6
CONTINUOUS
10
157.005
20
-96.955
11
159.6000313
21
-96.955
0
LINE
8
0
6
CONTINUOUS
10
159.6000313
20
-96.945
11
157.005
21
-96.945
0
LINE
8
0
6
CONTINUOUS
10
156.995
20
-96.945
11
154
21
-96.945
0
LINE
8
0
6
CONTINUOUS
10
154
20
-96.945
11
154
21
-96.955
0
LINE
8
0
6
CONTINUOUS
10
192
20
-102.4966667
11
194.995
21
-102.4966667
0
LINE
8
0
6
CONTINUOUS
10
195.005
20
-102.4966667
11
197.6000313
21
-102.4966667
0
LINE
8
0
6
CONTINUOUS
10
197.6000313
20
-102.4866667
11
195.005
21
-102.4866667
0
LINE
8
0
6
CONTINUOUS
10
194.995
20
-102.4866667
11
192
21
-102.4866667
0
LINE
8
0
6
CONTINUOUS
10
192
20
-102.4866667
11
192
21
-102.4966667
0
LINE
8
0
6
CONTINUOUS
10
143.935
20
-109.565
11
146.93
21
-109.565
0
LINE
8
0
6
CONTINUOUS
10
146.94
20
-109.565
11
149.5350313
21
-109.565
0
LINE
8
0
6
CONTINUOUS
10
149.5350313
20
-109.555
11
146.94
21
-109.555
0
LINE
8
0
6
CONTINUOUS
10
146.93
20
-109.555
11
143.935
21
-109.555
0
LINE
8
0
6
CONTINUOUS
10
143.935
20
-109.555
11
143.935
21
-109.565
0
LINE
8
0
6
CONTINUOUS
10
144.06
20
-119.88
11
147.055
21
-119.88
0
LINE
8
0
6
CONTINUOUS
10
147.065
20
-119.88
11
149.6600313
21
-119.88
0
LINE
8
0
6
CONTINUOUS
10
149.6600313
20
-119.87
11
147.065
21
-119.87
0
LINE
8
0
6
CONTINUOUS
10
147.055
20
-119.87
11
144.06
21
-119.87
0
LINE
8
0
6
CONTINUOUS
10
144.06
20
-119.87
11
144.06
21
-119.88
0
LINE
8
0
6
CONTINUOUS
10
163.5790436
20
-119.8340957
11
166.5740436
21
-119.8340957
0
LINE
8
0
6
CONTINUOUS
10
166.5840436
20
-119.8340957
11
169.1790749
21
-119.8340957
0
LINE
8
0
6
CONTINUOUS
10
169.1790749
20
-119.8240957
11
166.5840436
21
-119.8240957
0
LINE
8
0
6
CONTINUOUS
10
166.5740436
20
-119.8240957
11
163.5790436
21
-119.8240957
0
LINE
8
0
6
CONTINUOUS
10
163.5790436
20
-119.8240957
11
163.5790436
21
-119.8340957
0
LINE
8
0
6
CONTINUOUS
10
181.2710907
20
-124.3905712
11
184.2660907
21
-124.3905712
0
LINE
8
0
6
CONTINUOUS
10
184.2760907
20
-124.3905712
11
186.871122
21
-124.3905712
0
LINE
8
0
6
CONTINUOUS
10
186.871122
20
-124.3805712
11
184.2760907
21
-124.3805712
0
LINE
8
0
6
CONTINUOUS
10
184.2660907
20
-124.3805712
11
181.2710907
21
-124.3805712
0
LINE
8
0
6
CONTINUOUS
10
181.2710907
20
-124.3805712
11
181.2710907
21
-124.3905712
0
LINE
8
0
6
CONTINUOUS
10
197.4127053
20
-133.4842281
11
200.4077053
21
-133.4842281
0
LINE
8
0
6
CONTINUOUS
10
200.4177053
20
-133.4842281
11
203.0127366
21
-133.4842281
0
LINE
8
0
6
CONTINUOUS
10
203.0127366
20
-133.4742281
11
200.4177053
21
-133.4742281
0
LINE
8
0
6
CONTINUOUS
10
200.4077053
20
-133.4742281
11
197.4127053
21
-133.4742281
0
LINE
8
0
6
CONTINUOUS
10
197.4127053
20
-133.4742281
11
197.4127053
21
-133.4842281
0
LINE
8
0
6
CONTINUOUS
10
210.9891555
20
-147.0606783
11
213.9841555
21
-147.0606783
0
LINE
8
0
6
CONTINUOUS
10
213.9941555
20
-147.0606783
11
216.5891868
21
-147.0606783
0
LINE
8
0
6
CONTINUOUS
10
216.5891868
20
-147.0506783
11
213.9941555
21
-147.0506783
0
LINE
8
0
6
CONTINUOUS
10
213.9841555
20
-147.0506783
11
210.9891555
21
-147.0506783
0
LINE
8
0
6
CONTINUOUS
10
210.9891555
20
-147.0506783
11
210.9891555
21
-147.0606783
0
LINE
8
0
6
CONTINUOUS
10
223.9772928
20
-134.0725409
11
226.9722928
21
-134.0725409
0
LINE
8
0
6
CONTINUOUS
10
226.9822928
20
-134.0725409
11
229.5773241
21
-134.0725409
0
LINE
8
0
6
CONTINUOUS
10
229.5773241
20
-134.0625409
11
226.9822928
21
-134.0625409
0
LINE
8
0
6
CONTINUOUS
10
226.9722928
20
-134.0625409
11
223.9772928
21
-134.0625409
0
LINE
8
0
6
CONTINUOUS
10
223.9772928
20
-134.0625409
11
223.9772928
21
-134.0725409
0
LINE
8
0
6
CONTINUOUS
10
201.083
20
-46.6616667
11
204.078
21
-46.6616667
0
LINE
8
0
6
CONTINUOUS
10
204.088
20
-46.6616667
11
205.108
21
-46.6616667
0
LINE
8
0
6
CONTINUOUS
10
205.118
20
-46.6616667
11
206.6830313
21
-46.6616667
0
LINE
8
0
6
CONTINUOUS
10
207.4829687
20
-46.6616667
11
207.7130313
21
-46.6616667
0
LINE
8
0
6
CONTINUOUS
10
207.7130313
20
-46.6516667
11
207.4829687
21
-46.6516667
0
LINE
8
0
6
CONTINUOUS
10
206.6830313
20
-46.6516667
11
205.118
21
-46.6516667
0
LINE
8
0
6
CONTINUOUS
10
205.108
20
-46.6516667
11
204.088
21
-46.6516667
0
LINE
8
0
6
CONTINUOUS
10
201.083
20
-46.6516667
11
204.078
21
-46.6516667
0
LINE
8
0
6
CONTINUOUS
10
221.833
20
-46.6616667
11
224.828
21
-46.6616667
0
LINE
8
0
6
CONTINUOUS
10
224.838
20
-46.6616667
11
227.4330313
21
-46.6616667
0
LINE
8
0
6
CONTINUOUS
10
227.4330313
20
-46.6516667
11
224.838
21
-46.6516667
0
LINE
8
0
6
CONTINUOUS
10
224.828
20
-46.6516667
11
221.833
21
-46.6516667
0
LINE
8
0
6
CONTINUOUS
10
221.833
20
-46.6516667
11
221.833
21
-46.6616667
0
LINE
8
0
6
CONTINUOUS
10
223.0223301
20
-110.2638389
11
224.5198301
21
-107.6700928
0
LINE
8
0
6
CONTINUOUS
10
224.5248301
20
-107.6614326
11
224.8348301
21
-107.1244968
0
LINE
8
0
6
CONTINUOUS
10
224.8398301
20
-107.1158366
11
225.8223458
21
-105.4140696
0
LINE
8
0
6
CONTINUOUS
10
225.8136855
20
-105.4090696
11
224.8311699
21
-107.1108366
0
LINE
8
0
6
CONTINUOUS
10
224.8261699
20
-107.1194968
11
224.5161699
21
-107.6564326
0
LINE
8
0
6
CONTINUOUS
10
223.0136699
20
-110.2588389
11
224.5111699
21
-107.6650928
0
LINE
8
0
6
CONTINUOUS
10
202.113
20
-95.7373194
11
204.078
21
-95.7373194
0
LINE
8
0
6
CONTINUOUS
10
204.088
20
-95.7373194
11
205.108
21
-95.7373194
0
LINE
8
0
6
CONTINUOUS
10
205.118
20
-95.7373194
11
206.7039623
21
-95.7373193
0
LINE
8
0
6
CONTINUOUS
10
207.4620377
20
-95.7373193
11
207.7130313
21
-95.7373194
0
LINE
8
0
6
CONTINUOUS
10
207.7130313
20
-95.7273194
11
207.458518
21
-95.7273193
0
LINE
8
0
6
CONTINUOUS
10
206.707482
20
-95.7273193
11
205.118
21
-95.7273194
0
LINE
8
0
6
CONTINUOUS
10
205.108
20
-95.7273194
11
204.088
21
-95.7273194
0
LINE
8
0
6
CONTINUOUS
10
204.078
20
-95.7273194
11
202.113
21
-95.7273194
0
LINE
8
0
6
CONTINUOUS
10
202.113
20
-95.7273194
11
202.113
21
-95.7373194
0
LINE
8
0
6
CONTINUOUS
10
201.083
20
-46.6516667
11
201.083
21
-46.6616667
0
LINE
8
0
6
CONTINUOUS
10
223.0136699
20
-110.2588389
11
223.0223301
21
-110.2638389
0
LINE
8
0
6
CONTINUOUS
10
201.083
20
-95.8701099
11
204.078
21
-95.8701099
0
LINE
8
0
6
CONTINUOUS
10
204.088
20
-95.8701099
11
205.108
21
-95.8701099
0
LINE
8
0
6
CONTINUOUS
10
205.118
20
-95.8701099
11
206.6830313
21
-95.8701099
0
LINE
8
0
6
CONTINUOUS
10
206.6830313
20
-95.8601099
11
205.118
21
-95.8601099
0
LINE
8
0
6
CONTINUOUS
10
205.108
20
-95.8601099
11
204.088
21
-95.8601099
0
LINE
8
0
6
CONTINUOUS
10
204.078
20
-95.8601099
11
201.083
21
-95.8601099
0
LINE
8
0
6
CONTINUOUS
10
201.083
20
-95.8601099
11
201.083
21
-95.8701099
0
LINE
8
0
6
CONTINUOUS
10
106.5
20
-71.505
11
109.495
21
-71.505
0
LINE
8
0
6
CONTINUOUS
10
109.505
20
-71.505
11
112.1000313
21
-71.505
0
LINE
8
0
6
CONTINUOUS
10
112.1000313
20
-71.495
11
109.505
21
-71.495
0
LINE
8
0
6
CONTINUOUS
10
109.495
20
-71.495
11
106.5
21
-71.495
0
LINE
8
0
6
CONTINUOUS
10
106.5
20
-71.495
11
106.5
21
-71.505
0
LINE
8
0
6
CONTINUOUS
10
106.5
20
-90.505
11
109.495
21
-90.505
0
LINE
8
0
6
CONTINUOUS
10
109.505
20
-90.505
11
112.1000313
21
-90.505
0
LINE
8
0
6
CONTINUOUS
10
112.1000313
20
-90.495
11
109.505
21
-90.495
0
LINE
8
0
6
CONTINUOUS
10
109.495
20
-90.495
11
106.5
21
-90.495
0
LINE
8
0
6
CONTINUOUS
10
106.5
20
-90.495
11
106.5
21
-90.505
0
LINE
8
0
6
CONTINUOUS
10
182.468
20
-61.6576667
11
185.463
21
-61.6576667
0
LINE
8
0
6
CONTINUOUS
10
185.473
20
-61.6576667
11
188.0680313
21
-61.6576667
0
LINE
8
0
6
CONTINUOUS
10
188.0680313
20
-61.6476667
11
185.473
21
-61.6476667
0
LINE
8
0
6
CONTINUOUS
10
185.463
20
-61.6476667
11
182.468
21
-61.6476667
0
LINE
8
0
6
CONTINUOUS
10
182.468
20
-61.6476667
11
182.468
21
-61.6576667
0
LINE
8
0
6
CONTINUOUS
10
140.157
20
-103.62
11
143.152
21
-103.62
0
LINE
8
0
6
CONTINUOUS
10
143.162
20
-103.62
11
145.7570313
21
-103.62
0
LINE
8
0
6
CONTINUOUS
10
145.7570313
20
-103.61
11
143.162
21
-103.61
0
LINE
8
0
6
CONTINUOUS
10
143.152
20
-103.61
11
140.157
21
-103.61
0
LINE
8
0
6
CONTINUOUS
10
140.157
20
-103.61
11
140.157
21
-103.62
0
LINE
8
0
6
CONTINUOUS
10
211.7767276
20
-111.1444105
11
214.3704737
21
-112.6419105
0
LINE
8
0
6
CONTINUOUS
10
214.3791339
20
-112.6469105
11
216.6264969
21
-113.9444262
0
LINE
8
0
6
CONTINUOUS
10
216.6314969
20
-113.9357659
11
214.3841339
21
-112.6382503
0
LINE
8
0
6
CONTINUOUS
10
214.3754737
20
-112.6332503
11
211.7817276
21
-111.1357503
0
LINE
8
0
6
CONTINUOUS
10
211.7817276
20
-111.1357503
11
211.7767276
21
-111.1444105
0
LINE
8
0
6
CONTINUOUS
10
204.762
20
-94.1476667
11
205.108
21
-94.1476667
0
LINE
8
0
6
CONTINUOUS
10
205.118
20
-94.1476667
11
207.757
21
-94.1476667
0
LINE
8
0
6
CONTINUOUS
10
207.767
20
-94.1476667
11
210.3620313
21
-94.1476667
0
LINE
8
0
6
CONTINUOUS
10
210.3620313
20
-94.1376667
11
207.767
21
-94.1376667
0
LINE
8
0
6
CONTINUOUS
10
207.757
20
-94.1376667
11
205.118
21
-94.1376667
0
LINE
8
0
6
CONTINUOUS
10
205.108
20
-94.1376667
11
204.762
21
-94.1376667
0
LINE
8
0
6
CONTINUOUS
10
204.762
20
-94.1376667
11
204.762
21
-94.1476667
0
LINE
8
0
6
CONTINUOUS
10
219.194
20
-102.6666667
11
222.189
21
-102.6666667
0
LINE
8
0
6
CONTINUOUS
10
222.199
20
-102.6666667
11
224.7940313
21
-102.6666667
0
LINE
8
0
6
CONTINUOUS
10
224.7940313
20
-102.6566667
11
222.199
21
-102.6566667
0
LINE
8
0
6
CONTINUOUS
10
222.189
20
-102.6566667
11
219.194
21
-102.6566667
0
LINE
8
0
6
CONTINUOUS
10
219.194
20
-102.6566667
11
219.194
21
-102.6666667
0
LINE
8
0
6
CONTINUOUS
10
99.995
20
-102
11
100.005
21
-102
0
LINE
8
0
6
CONTINUOUS
10
100.005
20
-102
11
100.005
21
-100.005
0
LINE
8
0
6
CONTINUOUS
10
100.005
20
-99.995
11
100.005
21
-98.3999687
0
LINE
8
0
6
CONTINUOUS
10
99.995
20
-98.3999687
11
99.995
21
-99.995
0
LINE
8
0
6
CONTINUOUS
10
99.995
20
-100.005
11
99.995
21
-102
0
LINE
8
0
6
CONTINUOUS
10
99.995
20
-83
11
100.005
21
-83
0
LINE
8
0
6
CONTINUOUS
10
100.005
20
-83
11
100.005
21
-81.005
0
LINE
8
0
6
CONTINUOUS
10
100.005
20
-80.995
11
100.005
21
-79.3999687
0
LINE
8
0
6
CONTINUOUS
10
99.995
20
-79.3999687
11
99.995
21
-80.995
0
LINE
8
0
6
CONTINUOUS
10
99.995
20
-81.005
11
99.995
21
-83
0
LINE
8
0
6
CONTINUOUS
10
99.995
20
-64
11
100.005
21
-64
0
LINE
8
0
6
CONTINUOUS
10
100.005
20
-64
11
100.005
21
-62.005
0
LINE
8
0
6
CONTINUOUS
10
100.005
20
-61.995
11
100.005
21
-60.3999687
0
LINE
8
0
6
CONTINUOUS
10
99.995
20
-60.3999687
11
99.995
21
-61.995
0
LINE
8
0
6
CONTINUOUS
10
99.995
20
-62.005
11
99.995
21
-64
0
LINE
8
0
6
CONTINUOUS
10
118.995
20
-102
11
119.005
21
-102
0
LINE
8
0
6
CONTINUOUS
10
119.005
20
-102
11
119.005
21
-100.005
0
LINE
8
0
6
CONTINUOUS
10
119.005
20
-99.995
11
119.005
21
-98.3999687
0
LINE
8
0
6
CONTINUOUS
10
118.995
20
-98.3999687
11
118.995
21
-99.995
0
LINE
8
0
6
CONTINUOUS
10
118.995
20
-100.005
11
118.995
21
-102
0
LINE
8
0
6
CONTINUOUS
10
118.995
20
-83
11
119.005
21
-83
0
LINE
8
0
6
CONTINUOUS
10
119.005
20
-83
11
119.005
21
-81.005
0
LINE
8
0
6
CONTINUOUS
10
119.005
20
-80.995
11
119.005
21
-79.3999687
0
LINE
8
0
6
CONTINUOUS
10
118.995
20
-79.3999687
11
118.995
21
-80.995
0
LINE
8
0
6
CONTINUOUS
10
118.995
20
-81.005
11
118.995
21
-83
0
LINE
8
0
6
CONTINUOUS
10
118.995
20
-64
11
119.005
21
-64
0
LINE
8
0
6
CONTINUOUS
10
119.005
20
-64
11
119.005
21
-62.005
0
LINE
8
0
6
CONTINUOUS
10
119.005
20
-61.995
11
119.005
21
-60.3999687
0
LINE
8
0
6
CONTINUOUS
10
118.995
20
-60.3999687
11
118.995
21
-61.995
0
LINE
8
0
6
CONTINUOUS
10
118.995
20
-62.005
11
118.995
21
-64
0
LINE
8
0
6
CONTINUOUS
10
137.995
20
-92.5
11
138.005
21
-92.5
0
LINE
8
0
6
CONTINUOUS
10
138.005
20
-92.5
11
138.005
21
-90.505
0
LINE
8
0
6
CONTINUOUS
10
138.005
20
-90.495
11
138.005
21
-88.8999687
0
LINE
8
0
6
CONTINUOUS
10
137.995
20
-88.8999687
11
137.995
21
-90.495
0
LINE
8
0
6
CONTINUOUS
10
137.995
20
-90.505
11
137.995
21
-92.5
0
LINE
8
0
6
CONTINUOUS
10
137.995
20
-73.5
11
138.005
21
-73.5
0
LINE
8
0
6
CONTINUOUS
10
138.005
20
-73.5
11
138.005
21
-71.505
0
LINE
8
0
6
CONTINUOUS
10
138.005
20
-71.495
11
138.005
21
-69.8999687
0
LINE
8
0
6
CONTINUOUS
10
137.995
20
-69.8999687
11
137.995
21
-71.495
0
LINE
8
0
6
CONTINUOUS
10
137.995
20
-71.505
11
137.995
21
-73.5
0
LINE
8
0
6
CONTINUOUS
10
137.995
20
-54.5
11
138.005
21
-54.5
0
LINE
8
0
6
CONTINUOUS
10
138.005
20
-54.5
11
138.005
21
-52.505
0
LINE
8
0
6
CONTINUOUS
10
138.005
20
-52.495
11
138.005
21
-50.8999687
0
LINE
8
0
6
CONTINUOUS
10
137.995
20
-50.8999687
11
137.995
21
-52.495
0
LINE
8
0
6
CONTINUOUS
10
137.995
20
-52.505
11
137.995
21
-54.5
0
LINE
8
0
6
CONTINUOUS
10
156.995
20
-87.75
11
157.005
21
-87.75
0
LINE
8
0
6
CONTINUOUS
10
157.005
20
-87.75
11
157.005
21
-85.755
0
LINE
8
0
6
CONTINUOUS
10
157.005
20
-85.745
11
157.005
21
-84.1499687
0
LINE
8
0
6
CONTINUOUS
10
156.995
20
-84.1499687
11
156.995
21
-85.745
0
LINE
8
0
6
CONTINUOUS
10
156.995
20
-85.755
11
156.995
21
-87.75
0
LINE
8
0
6
CONTINUOUS
10
156.995
20
-68.75
11
157.005
21
-68.75
0
LINE
8
0
6
CONTINUOUS
10
157.005
20
-68.75
11
157.005
21
-66.755
0
LINE
8
0
6
CONTINUOUS
10
157.005
20
-66.745
11
157.005
21
-65.1499687
0
LINE
8
0
6
CONTINUOUS
10
156.995
20
-65.1499687
11
156.995
21
-66.745
0
LINE
8
0
6
CONTINUOUS
10
156.995
20
-66.755
11
156.995
21
-68.75
0
LINE
8
0
6
CONTINUOUS
10
156.995
20
-49.75
11
157.005
21
-49.75
0
LINE
8
0
6
CONTINUOUS
10
157.005
20
-49.75
11
157.005
21
-47.755
0
LINE
8
0
6
CONTINUOUS
10
157.005
20
-47.745
11
157.005
21
-46.1499687
0
LINE
8
0
6
CONTINUOUS
10
156.995
20
-46.1499687
11
156.995
21
-47.745
0
LINE
8
0
6
CONTINUOUS
10
156.995
20
-47.755
11
156.995
21
-49.75
0
LINE
8
0
6
CONTINUOUS
10
175.995
20
-90.9166667
11
176.005
21
-90.9166667
0
LINE
8
0
6
CONTINUOUS
10
176.005
20
-90.9166667
11
176.005
21
-88.9216667
0
LINE
8
0
6
CONTINUOUS
10
176.005
20
-88.9116667
11
176.005
21
-87.3166354
0
LINE
8
0
6
CONTINUOUS
10
175.995
20
-87.3166354
11
175.995
21
-88.9116667
0
LINE
8
0
6
CONTINUOUS
10
175.995
20
-88.9216667
11
175.995
21
-90.9166667
0
LINE
8
0
6
CONTINUOUS
10
175.995
20
-71.9166667
11
176.005
21
-71.9166667
0
LINE
8
0
6
CONTINUOUS
10
176.005
20
-71.9166667
11
176.005
21
-69.9216667
0
LINE
8
0
6
CONTINUOUS
10
176.005
20
-69.9116667
11
176.005
21
-68.3166354
0
LINE
8
0
6
CONTINUOUS
10
175.995
20
-68.3166354
11
175.995
21
-69.9116667
0
LINE
8
0
6
CONTINUOUS
10
175.995
20
-69.9216667
11
175.995
21
-71.9166667
0
LINE
8
0
6
CONTINUOUS
10
175.995
20
-52.9166667
11
176.005
21
-52.9166667
0
LINE
8
0
6
CONTINUOUS
10
176.005
20
-52.9166667
11
176.005
21
-50.9216667
0
LINE
8
0
6
CONTINUOUS
10
176.005
20
-50.9116667
11
176.005
21
-49.3166354
0
LINE
8
0
6
CONTINUOUS
10
175.995
20
-49.3166354
11
175.995
21
-50.9116667
0
LINE
8
0
6
CONTINUOUS
10
175.995
20
-50.9216667
11
175.995
21
-52.9166667
0
LINE
8
0
6
CONTINUOUS
10
194.995
20
-93.2916667
11
195.005
21
-93.2916667
0
LINE
8
0
6
CONTINUOUS
10
195.005
20
-93.2916667
11
195.005
21
-91.2966667
0
LINE
8
0
6
CONTINUOUS
10
195.005
20
-91.2866667
11
195.005
21
-89.6916354
0
LINE
8
0
6
CONTINUOUS
10
194.995
20
-89.6916354
11
194.995
21
-91.2866667
0
LINE
8
0
6
CONTINUOUS
10
194.995
20
-91.2966667
11
194.995
21
-93.2916667
0
LINE
8
0
6
CONTINUOUS
10
194.995
20
-74.2916667
11
195.005
21
-74.2916667
0
LINE
8
0
6
CONTINUOUS
10
195.005
20
-74.2916667
11
195.005
21
-72.2966667
0
LINE
8
0
6
CONTINUOUS
10
195.005
20
-72.2866667
11
195.005
21
-70.6916354
0
LINE
8
0
6
CONTINUOUS
10
194.995
20
-70.6916354
11
194.995
21
-72.2866667
0
LINE
8
0
6
CONTINUOUS
10
194.995
20
-72.2966667
11
194.995
21
-74.2916667
0
LINE
8
0
6
CONTINUOUS
10
194.995
20
-55.2916667
11
195.005
21
-55.2916667
0
LINE
8
0
6
CONTINUOUS
10
195.005
20
-55.2916667
11
195.005
21
-53.2966667
0
LINE
8
0
6
CONTINUOUS
10
195.005
20
-53.2866667
11
195.005
21
-51.6916354
0
LINE
8
0
6
CONTINUOUS
10
194.995
20
-51.6916354
11
194.995
21
-53.2866667
0
LINE
8
0
6
CONTINUOUS
10
194.995
20
-53.2966667
11
194.995
21
-55.2916667
0
LINE
8
0
6
CONTINUOUS
10
156.995
20
-112.75
11
157.005
21
-112.75
0
LINE
8
0
6
CONTINUOUS
10
157.005
20
-112.75
11
157.005
21
-110.755
0
LINE
8
0
6
CONTINUOUS
10
157.005
20
-110.745
11
157.005
21
-109.1499687
0
LINE
8
0
6
CONTINUOUS
10
156.995
20
-109.1499687
11
156.995
21
-110.745
0
LINE
8
0
6
CONTINUOUS
10
156.995
20
-110.755
11
156.995
21
-112.75
0
LINE
8
0
6
CONTINUOUS
10
177.0775323
20
-115.1805576
11
177.0871915
21
-115.1831457
0
LINE
8
0
6
CONTINUOUS
10
177.0871915
20
-115.1831457
11
177.6035355
21
-113.2561237
0
LINE
8
0
6
CONTINUOUS
10
177.6061237
20
-113.2464644
11
178.0189482
21
-111.7057825
0
LINE
8
0
6
CONTINUOUS
10
178.009289
20
-111.7031944
11
177.5964645
21
-113.2438763
0
LINE
8
0
6
CONTINUOUS
10
177.5938763
20
-113.2535356
11
177.0775323
21
-115.1805576
0
LINE
8
0
6
CONTINUOUS
10
195.8466943
20
-122.7260377
11
195.8553545
21
-122.7310377
0
LINE
8
0
6
CONTINUOUS
10
195.8553545
20
-122.7310377
11
196.8528545
21
-121.003317
0
LINE
8
0
6
CONTINUOUS
10
196.8578545
20
-120.9946568
11
197.6553702
21
-119.6133192
0
LINE
8
0
6
CONTINUOUS
10
197.6467099
20
-119.6083192
11
196.8491943
21
-120.9896568
0
LINE
8
0
6
CONTINUOUS
10
196.8441943
20
-120.998317
11
195.8466943
21
-122.7260377
0
LINE
8
0
6
CONTINUOUS
10
212.0233986
20
-134.8722284
11
212.0304697
21
-134.8792995
0
LINE
8
0
6
CONTINUOUS
10
212.0304697
20
-134.8792995
11
213.4411477
21
-133.4686215
0
LINE
8
0
6
CONTINUOUS
10
213.4482188
20
-133.4615504
11
214.5760762
21
-132.3336929
0
LINE
8
0
6
CONTINUOUS
10
214.5690052
20
-132.3266219
11
213.4411477
21
-133.4544793
0
LINE
8
0
6
CONTINUOUS
10
213.4340766
20
-133.4615504
11
212.0233986
21
-134.8722284
0
LINE
8
0
6
CONTINUOUS
10
194.995
20
-66.4916667
11
195.005
21
-66.4916667
0
LINE
8
0
6
CONTINUOUS
10
195.005
20
-66.4916667
11
195.005
21
-64.4966667
0
LINE
8
0
6
CONTINUOUS
10
195.005
20
-64.4866667
11
195.005
21
-62.8916354
0
LINE
8
0
6
CONTINUOUS
10
194.995
20
-62.8916354
11
194.995
21
-64.4866667
0
LINE
8
0
6
CONTINUOUS
10
194.995
20
-64.4966667
11
194.995
21
-66.4916667
0
LINE
8
0
6
CONTINUOUS
10
156.995
20
-60.95
11
157.005
21
-60.95
0
LINE
8
0
6
CONTINUOUS
10
157.005
20
-60.95
11
157.005
21
-58.955
0
LINE
8
0
6
CONTINUOUS
10
157.005
20
-58.945
11
157.005
21
-57.3499687
0
LINE
8
0
6
CONTINUOUS
10
156.995
20
-57.3499687
11
156.995
21
-58.945
0
LINE
8
0
6
CONTINUOUS
10
156.995
20
-58.955
11
156.995
21
-60.95
0
LINE
8
0
6
CONTINUOUS
10
118.995
20
-75.2
11
119.005
21
-75.2
0
LINE
8
0
6
CONTINUOUS
10
119.005
20
-75.2
11
119.005
21
-73.205
0
LINE
8
0
6
CONTINUOUS
10
119.005
20
-73.195
11
119.005
21
-71.5999687
0
LINE
8
0
6
CONTINUOUS
10
118.995
20
-71.5999687
11
118.995
21
-73.195
0
LINE
8
0
6
CONTINUOUS
10
118.995
20
-73.205
11
118.995
21
-75.2
0
LINE
8
0
6
CONTINUOUS
10
118.995
20
-94.2
11
119.005
21
-94.2
0
LINE
8
0
6
CONTINUOUS
10
119.005
20
-94.2
11
119.005
21
-92.205
0
LINE
8
0
6
CONTINUOUS
10
119.005
20
-92.195
11
119.005
21
-90.5999687
0
LINE
8
0
6
CONTINUOUS
10
118.995
20
-90.5999687
11
118.995
21
-92.195
0
LINE
8
0
6
CONTINUOUS
10
118.995
20
-92.205
11
118.995
21
-94.2
0
LINE
8
0
6
CONTINUOUS
10
156.995
20
-98.95
11
157.005
21
-98.95
0
LINE
8
0
6
CONTINUOUS
10
157.005
20
-98.95
11
157.005
21
-96.955
0
LINE
8
0
6
CONTINUOUS
10
157.005
20
-96.945
11
157.005
21
-95.3499687
0
LINE
8
0
6
CONTINUOUS
10
156.995
20
-95.3499687
11
156.995
21
-96.945
0
LINE
8
0
6
CONTINUOUS
10
156.995
20
-96.955
11
156.995
21
-98.95
0
LINE
8
0
6
CONTINUOUS
10
194.995
20
-104.4916667
11
195.005
21
-104.4916667
0
LINE
8
0
6
CONTINUOUS
10
195.005
20
-104.4916667
11
195.005
21
-102.4966667
0
LINE
8
0
6
CONTINUOUS
10
195.005
20
-102.4866667
11
195.005
21
-100.8916354
0
LINE
8
0
6
CONTINUOUS
10
194.995
20
-100.8916354
11
194.995
21
-102.4866667
0
LINE
8
0
6
CONTINUOUS
10
194.995
20
-102.4966667
11
194.995
21
-104.4916667
0
LINE
8
0
6
CONTINUOUS
10
146.93
20
-111.56
11
146.94
21
-111.56
0
LINE
8
0
6
CONTINUOUS
10
146.94
20
-111.56
11
146.94
21
-109.565
0
LINE
8
0
6
CONTINUOUS
10
146.94
20
-109.555
11
146.94
21
-107.9599687
0
LINE
8
0
6
CONTINUOUS
10
146.93
20
-107.9599687
11
146.93
21
-109.555
0
LINE
8
0
6
CONTINUOUS
10
146.93
20
-109.565
11
146.93
21
-111.56
0
LINE
8
0
6
CONTINUOUS
10
147.055
20
-121.875
11
147.065
21
-121.875
0
LINE
8
0
6
CONTINUOUS
10
147.065
20
-121.875
11
147.065
21
-119.88
0
LINE
8
0
6
CONTINUOUS
10
147.065
20
-119.87
11
147.065
21
-118.2749687
0
LINE
8
0
6
CONTINUOUS
10
147.055
20
-118.2749687
11
147.055
21
-119.87
0
LINE
8
0
6
CONTINUOUS
10
147.055
20
-119.88
11
147.055
21
-121.875
0
LINE
8
0
6
CONTINUOUS
10
166.5740436
20
-121.8290957
11
166.5840436
21
-121.8290957
0
LINE
8
0
6
CONTINUOUS
10
166.5840436
20
-121.8290957
11
166.5840436
21
-119.8340957
0
LINE
8
0
6
CONTINUOUS
10
166.5840436
20
-119.8240957
11
166.5840436
21
-118.2290644
0
LINE
8
0
6
CONTINUOUS
10
166.5740436
20
-118.2290644
11
166.5740436
21
-119.8240957
0
LINE
8
0
6
CONTINUOUS
10
166.5740436
20
-119.8340957
11
166.5740436
21
-121.8290957
0
LINE
8
0
6
CONTINUOUS
10
184.2660907
20
-126.3855712
11
184.2760907
21
-126.3855712
0
LINE
8
0
6
CONTINUOUS
10
184.2760907
20
-126.3855712
11
184.2760907
21
-124.3905712
0
LINE
8
0
6
CONTINUOUS
10
184.2760907
20
-124.3805712
11
184.2760907
21
-122.7855399
0
LINE
8
0
6
CONTINUOUS
10
184.2660907
20
-122.7855399
11
184.2660907
21
-124.3805712
0
LINE
8
0
6
CONTINUOUS
10
184.2660907
20
-124.3905712
11
184.2660907
21
-126.3855712
0
LINE
8
0
6
CONTINUOUS
10
200.4077053
20
-135.4792281
11
200.4177053
21
-135.4792281
0
LINE
8
0
6
CONTINUOUS
10
200.4177053
20
-135.4792281
11
200.4177053
21
-133.4842281
0
LINE
8
0
6
CONTINUOUS
10
200.4177053
20
-133.4742281
11
200.4177053
21
-131.8791968
0
LINE
8
0
6
CONTINUOUS
10
200.4077053
20
-131.8791968
11
200.4077053
21
-133.4742281
0
LINE
8
0
6
CONTINUOUS
10
200.4077053
20
-133.4842281
11
200.4077053
21
-135.4792281
0
LINE
8
0
6
CONTINUOUS
10
213.9841555
20
-149.0556783
11
213.9941555
21
-149.0556783
0
LINE
8
0
6
CONTINUOUS
10
213.9941555
20
-149.0556783
11
213.9941555
21
-147.0606783
0
LINE
8
0
6
CONTINUOUS
10
213.9941555
20
-147.0506783
11
213.9941555
21
-145.455647
0
LINE
8
0
6
CONTINUOUS
10
213.9841555
20
-145.455647
11
213.9841555
21
-147.0506783
0
LINE
8
0
6
CONTINUOUS
10
213.9841555
20
-147.0606783
11
213.9841555
21
-149.0556783
0
LINE
8
0
6
CONTINUOUS
10
226.9722928
20
-136.0675409
11
226.9822928
21
-136.0675409
0
LINE
8
0
6
CONTINUOUS
10
226.9822928
20
-136.0675409
11
226.9822928
21
-134.0725409
0
LINE
8
0
6
CONTINUOUS
10
226.9822928
20
-134.0625409
11
226.9822928
21
-132.4675096
0
LINE
8
0
6
CONTINUOUS
10
226.9722928
20
-132.4675096
11
226.9722928
21
-134.0625409
0
LINE
8
0
6
CONTINUOUS
10
226.9722928
20
-134.0725409
11
226.9722928
21
-136.0675409
0
LINE
8
0
6
CONTINUOUS
10
205.108
20
-48.6566667
11
205.118
21
-48.6566667
0
LINE
8
0
6
CONTINUOUS
10
205.118
20
-48.6566667
11
205.118
21
-46.6616667
0
LINE
8
0
6
CONTINUOUS
10
205.118
20
-46.6516667
11
205.118
21
-45.0566354
0
LINE
8
0
6
CONTINUOUS
10
205.108
20
-45.0566354
11
205.108
21
-46.6516667
0
LINE
8
0
6
CONTINUOUS
10
205.108
20
-46.6616667
11
205.108
21
-48.6566667
0
LINE
8
0
6
CONTINUOUS
10
224.828
20
-48.6566667
11
224.838
21
-48.6566667
0
LINE
8
0
6
CONTINUOUS
10
224.838
20
-48.6566667
11
224.838
21
-46.6616667
0
LINE
8
0
6
CONTINUOUS
10
224.838
20
-46.6516667
11
224.838
21
-45.0566354
0
LINE
8
0
6
CONTINUOUS
10
224.828
20
-45.0566354
11
224.828
21
-46.6516667
0
LINE
8
0
6
CONTINUOUS
10
224.828
20
-46.6616667
11
224.828
21
-48.6566667
0
LINE
8
0
6
CONTINUOUS
10
226.5625508
20
-108.1219968
11
226.5675508
21
-108.1133366
0
LINE
8
0
6
CONTINUOUS
10
226.5675508
20
-108.1133366
11
224.8398301
21
-107.1158366
0
LINE
8
0
6
CONTINUOUS
10
224.8311699
20
-107.1108366
11
223.4498323
21
-106.3133209
0
LINE
8
0
6
CONTINUOUS
10
223.4448323
20
-106.3219812
11
224.8261699
21
-107.1194968
0
LINE
8
0
6
CONTINUOUS
10
224.8348301
20
-107.1244968
11
226.5625508
21
-108.1219968
0
LINE
8
0
6
CONTINUOUS
10
205.108
20
-97.7323194
11
205.118
21
-97.7323194
0
LINE
8
0
6
CONTINUOUS
10
205.118
20
-97.7323194
11
205.118
21
-95.8701099
0
LINE
8
0
6
CONTINUOUS
10
205.118
20
-95.7273194
11
205.118
21
-94.1476667
0
LINE
8
0
6
CONTINUOUS
10
205.118
20
-95.8601099
11
205.118
21
-95.7373194
0
LINE
8
0
6
CONTINUOUS
10
205.118
20
-94.1376667
11
205.118
21
-94.1322881
0
LINE
8
0
6
CONTINUOUS
10
205.108
20
-94.1322881
11
205.108
21
-94.1376667
0
LINE
8
0
6
CONTINUOUS
10
205.108
20
-95.7373194
11
205.108
21
-95.8601099
0
LINE
8
0
6
CONTINUOUS
10
205.108
20
-95.8701099
11
205.108
21
-97.7323194
0
LINE
8
0
6
CONTINUOUS
10
205.108
20
-94.1476667
11
205.108
21
-95.7273194
0
LINE
8
0
6
CONTINUOUS
10
204.078
20
-48.6566667
11
204.088
21
-48.6566667
0
LINE
8
0
6
CONTINUOUS
10
204.088
20
-48.6566667
11
204.088
21
-46.6616667
0
LINE
8
0
6
CONTINUOUS
10
204.088
20
-46.6516667
11
204.088
21
-45.0566354
0
LINE
8
0
6
CONTINUOUS
10
204.078
20
-45.0566354
11
204.078
21
-46.6516667
0
LINE
8
0
6
CONTINUOUS
10
204.078
20
-46.6616667
11
204.078
21
-48.6566667
0
LINE
8
0
6
CONTINUOUS
10
226.2475508
20
-108.6675928
11
226.2525508
21
-108.6589326
0
LINE
8
0
6
CONTINUOUS
10
226.2525508
20
-108.6589326
11
224.5248301
21
-107.6614326
0
LINE
8
0
6
CONTINUOUS
10
224.5161699
20
-107.6564326
11
223.1348323
21
-106.8589169
0
LINE
8
0
6
CONTINUOUS
10
223.1298323
20
-106.8675772
11
224.5111699
21
-107.6650928
0
LINE
8
0
6
CONTINUOUS
10
224.5198301
20
-107.6700928
11
226.2475508
21
-108.6675928
0
LINE
8
0
6
CONTINUOUS
10
204.078
20
-97.8651099
11
204.088
21
-97.8651099
0
LINE
8
0
6
CONTINUOUS
10
204.088
20
-97.8651099
11
204.088
21
-95.8701099
0
LINE
8
0
6
CONTINUOUS
10
204.088
20
-95.7273194
11
204.088
21
-94.2650786
0
LINE
8
0
6
CONTINUOUS
10
204.088
20
-95.8601099
11
204.088
21
-95.7373194
0
LINE
8
0
6
CONTINUOUS
10
204.078
20
-94.2650786
11
204.078
21
-95.7273194
0
LINE
8
0
6
CONTINUOUS
10
204.078
20
-95.7373194
11
204.078
21
-95.8601099
0
LINE
8
0
6
CONTINUOUS
10
204.078
20
-95.8701099
11
204.078
21
-97.8651099
0
LINE
8
0
6
CONTINUOUS
10
109.495
20
-73.5
11
109.505
21
-73.5
0
LINE
8
0
6
CONTINUOUS
10
109.505
20
-73.5
11
109.505
21
-71.505
0
LINE
8
0
6
CONTINUOUS
10
109.505
20
-71.495
11
109.505
21
-69.8999687
0
LINE
8
0
6
CONTINUOUS
10
109.495
20
-69.8999687
11
109.495
21
-71.495
0
LINE
8
0
6
CONTINUOUS
10
109.495
20
-71.505
11
109.495
21
-73.5
0
LINE
8
0
6
CONTINUOUS
10
109.495
20
-92.5
11
109.505
21
-92.5
0
LINE
8
0
6
CONTINUOUS
10
109.505
20
-92.5
11
109.505
21
-90.505
0
LINE
8
0
6
CONTINUOUS
10
109.505
20
-90.495
11
109.505
21
-88.8999687
0
LINE
8
0
6
CONTINUOUS
10
109.495
20
-88.8999687
11
109.495
21
-90.495
0
LINE
8
0
6
CONTINUOUS
10
109.495
20
-90.505
11
109.495
21
-92.5
0
LINE
8
0
6
CONTINUOUS
10
185.463
20
-63.6526667
11
185.473
21
-63.6526667
0
LINE
8
0
6
CONTINUOUS
10
185.473
20
-63.6526667
11
185.473
21
-61.6576667
0
LINE
8
0
6
CONTINUOUS
10
185.473
20
-61.6476667
11
185.473
21
-60.0526354
0
LINE
8
0
6
CONTINUOUS
10
185.463
20
-60.0526354
11
185.463
21
-61.6476667
0
LINE
8
0
6
CONTINUOUS
10
185.463
20
-61.6576667
11
185.463
21
-63.6526667
0
LINE
8
0
6
CONTINUOUS
10
143.152
20
-105.615
11
143.162
21
-105.615
0
LINE
8
0
6
CONTINUOUS
10
143.162
20
-105.615
11
143.162
21
-103.62
0
LINE
8
0
6
CONTINUOUS
10
143.162
20
-103.61
11
143.162
21
-102.0149687
0
LINE
8
0
6
CONTINUOUS
10
143.152
20
-102.0149687
11
143.152
21
-103.61
0
LINE
8
0
6
CONTINUOUS
10
143.152
20
-103.62
11
143.152
21
-105.615
0
LINE
8
0
6
CONTINUOUS
10
213.3729737
20
-114.3696312
11
213.3816339
21
-114.3746312
0
LINE
8
0
6
CONTINUOUS
10
213.3816339
20
-114.3746312
11
214.3791339
21
-112.6469105
0
LINE
8
0
6
CONTINUOUS
10
214.3841339
20
-112.6382503
11
215.1816496
21
-111.2569127
0
LINE
8
0
6
CONTINUOUS
10
215.1729893
20
-111.2519127
11
214.3754737
21
-112.6332503
0
LINE
8
0
6
CONTINUOUS
10
214.3704737
20
-112.6419105
11
213.3729737
21
-114.3696312
0
LINE
8
0
6
CONTINUOUS
10
207.757
20
-96.1426667
11
207.767
21
-96.1426667
0
LINE
8
0
6
CONTINUOUS
10
207.767
20
-96.1426667
11
207.767
21
-95.9330281
0
LINE
8
0
6
CONTINUOUS
10
207.767
20
-95.5316107
11
207.767
21
-94.1476667
0
LINE
8
0
6
CONTINUOUS
10
207.767
20
-94.1376667
11
207.767
21
-92.5426354
0
LINE
8
0
6
CONTINUOUS
10
207.757
20
-92.5426354
11
207.757
21
-94.1376667
0
LINE
8
0
6
CONTINUOUS
10
207.757
20
-95.9147036
11
207.757
21
-96.1426667
0
LINE
8
0
6
CONTINUOUS
10
207.757
20
-94.1476667
11
207.757
21
-95.5499352
0
LINE
8
0
6
CONTINUOUS
10
222.189
20
-104.6616667
11
222.199
21
-104.6616667
0
LINE
8
0
6
CONTINUOUS
10
222.199
20
-104.6616667
11
222.199
21
-102.6666667
0
LINE
8
0
6
CONTINUOUS
10
222.199
20
-102.6566667
11
222.199
21
-101.0616354
0
LINE
8
0
6
CONTINUOUS
10
222.189
20
-101.0616354
11
222.189
21
-102.6566667
0
LINE
8
0
6
CONTINUOUS
10
222.189
20
-102.6666667
11
222.189
21
-104.6616667
0
ARC
8
0
6
CONTINUOUS
10
103
20
-100
40
0.4
50
180.716216
51
539.283784
0
ARC
8
0
6
CONTINUOUS
10
103
20
-81
40
0.4
50
180.716216
51
539.283784
0
ARC
8
0
6
CONTINUOUS
10
103
20
-62
40
0.4
50
180.716216
51
539.283784
0
ARC
8
0
6
CONTINUOUS
10
122
20
-100
40
0.4
50
180.716216
51
539.283784
0
ARC
8
0
6
CONTINUOUS
10
122
20
-81
40
0.4
50
180.716216
51
539.283784
0
ARC
8
0
6
CONTINUOUS
10
122
20
-62
40
0.4
50
180.716216
51
539.283784
0
ARC
8
0
6
CONTINUOUS
10
141
20
-90.5
40
0.4
50
180.716216
51
539.283784
0
ARC
8
0
6
CONTINUOUS
10
141
20
-71.5
40
0.4
50
180.716216
51
539.283784
0
ARC
8
0
6
CONTINUOUS
10
141
20
-52.5
40
0.4
50
180.716216
51
539.283784
0
ARC
8
0
6
CONTINUOUS
10
160
20
-85.75
40
0.4
50
180.716216
51
539.283784
0
ARC
8
0
6
CONTINUOUS
10
160
20
-66.75
40
0.4
50
180.716216
51
539.283784
0
ARC
8
0
6
CONTINUOUS
10
160
20
-47.75
40
0.4
50
180.716216
51
539.283784
0
ARC
8
0
6
CONTINUOUS
10
179
20
-88.9166667
40
0.4
50
180.716216
51
539.283784
0
ARC
8
0
6
CONTINUOUS
10
179
20
-69.9166667
40
0.4
50
180.716216
51
539.283784
0
ARC
8
0
6
CONTINUOUS
10
179
20
-50.9166667
40
0.4
50
180.716216
51
539.283784
0
ARC
8
0
6
CONTINUOUS
10
198
20
-91.2916667
40
0.4
50
180.716216
51
539.283784
0
ARC
8
0
6
CONTINUOUS
10
198
20
-72.2916667
40
0.4
50
180.716216
51
539.283784
0
ARC
8
0
6
CONTINUOUS
10
198
20
-53.2916667
40
0.4
50
180.716216
51
539.283784
0
ARC
8
0
6
CONTINUOUS
10
160
20
-110.75
40
0.4
50
180.716216
51
539.283784
0
ARC
8
0
6
CONTINUOUS
10
180.4977775
20
-114.0264571
40
0.4
50
165.716232
51
524.2837765
0
ARC
8
0
6
CONTINUOUS
10
199.4491006
20
-122.4964869
40
0.4
50
150.716222
51
509.2837845
0
ARC
8
0
6
CONTINUOUS
10
215.562468
20
-135.5828707
40
0.4
50
135.7162091
51
494.2837909
0
ARC
8
0
6
CONTINUOUS
10
198
20
-64.4916667
40
0.4
50
180.716216
51
539.283784
0
ARC
8
0
6
CONTINUOUS
10
160
20
-58.95
40
0.4
50
180.716216
51
539.283784
0
ARC
8
0
6
CONTINUOUS
10
122
20
-73.2
40
0.4
50
180.716216
51
539.283784
0
ARC
8
0
6
CONTINUOUS
10
122
20
-92.2
40
0.4
50
180.716216
51
539.283784
0
ARC
8
0
6
CONTINUOUS
10
160
20
-96.95
40
0.4
50
180.716216
51
539.283784
0
ARC
8
0
6
CONTINUOUS
10
198
20
-102.4916667
40
0.4
50
180.716216
51
539.283784
0
ARC
8
0
6
CONTINUOUS
10
149.935
20
-109.56
40
0.4
50
180.716216
51
539.283784
0
ARC
8
0
6
CONTINUOUS
10
150.06
20
-119.875
40
0.4
50
180.716216
51
539.283784
0
ARC
8
0
6
CONTINUOUS
10
169.5790436
20
-119.8290957
40
0.4
50
180.716216
51
539.283784
0
ARC
8
0
6
CONTINUOUS
10
187.2710907
20
-124.3855712
40
0.4
50
180.716216
51
539.283784
0
ARC
8
0
6
CONTINUOUS
10
203.4127053
20
-133.4792281
40
0.4
50
180.716216
51
539.283784
0
ARC
8
0
6
CONTINUOUS
10
216.9891555
20
-147.0556783
40
0.4
50
180.716216
51
539.283784
0
ARC
8
0
6
CONTINUOUS
10
229.9772928
20
-134.0675409
40
0.4
50
180.716216
51
539.283784
0
ARC
8
0
6
CONTINUOUS
10
208.113
20
-46.6566667
40
0.4
50
180.716216
51
539.283784
0
ARC
8
0
6
CONTINUOUS
10
227.833
20
-46.6566667
40
0.4
50
180.716216
51
539.283784
0
ARC
8
0
6
CONTINUOUS
10
226.333
20
-104.5195905
40
0.4
50
278.0475141
51
561.952494
0
ARC
8
0
6
CONTINUOUS
10
208.113
20
-95.7323194
40
0.4
50
180.716216
51
207.1267519
0
ARC
8
0
6
CONTINUOUS
10
208.113
20
-95.7323194
40
0.4
50
210.1172893
51
509.8827107
0
ARC
8
0
6
CONTINUOUS
10
208.113
20
-95.7323194
40
0.4
50
512.8732481
51
539.283784
0
ARC
8
0
6
CONTINUOUS
10
207.083
20
-46.6566667
40
0.4
50
180.716216
51
359.283784
0
ARC
8
0
6
CONTINUOUS
10
207.083
20
-46.6566667
40
0.4
50
360.716216
51
539.283784
0
ARC
8
0
6
CONTINUOUS
10
226.018
20
-105.0651865
40
0.4
50
240.716222
51
381.952494
0
ARC
8
0
6
CONTINUOUS
10
226.018
20
-105.0651865
40
0.4
50
458.0475141
51
599.2837845
0
ARC
8
0
6
CONTINUOUS
10
207.083
20
-95.8651099
40
0.4
50
161.3687321
51
179.283784
0
ARC
8
0
6
CONTINUOUS
10
207.083
20
-95.8651099
40
0.4
50
380.1498415
51
519.8501585
0
ARC
8
0
6
CONTINUOUS
10
207.083
20
-95.8651099
40
0.4
50
180.716216
51
378.6312679
0
ARC
8
0
6
CONTINUOUS
10
112.5
20
-71.5
40
0.4
50
180.716216
51
539.283784
0
ARC
8
0
6
CONTINUOUS
10
112.5
20
-90.5
40
0.4
50
180.716216
51
539.283784
0
ARC
8
0
6
CONTINUOUS
10
188.468
20
-61.6526667
40
0.4
50
180.716216
51
539.283784
0
ARC
8
0
6
CONTINUOUS
10
146.157
20
-103.615
40
0.4
50
180.716216
51
539.283784
0
ARC
8
0
6
CONTINUOUS
10
216.97538
20
-114.1400804
40
0.4
50
150.716222
51
509.2837845
0
ARC
8
0
6
CONTINUOUS
10
210.762
20
-94.1426667
40
0.4
50
180.716216
51
539.283784
0
ARC
8
0
6
CONTINUOUS
10
225.194
20
-102.6616667
40
0.4
50
180.716216
51
539.283784
0
ARC
8
0
6
CONTINUOUS
10
100
20
-98
40
0.4
50
270.716216
51
629.283784
0
ARC
8
0
6
CONTINUOUS
10
100
20
-79
40
0.4
50
270.716216
51
629.283784
0
ARC
8
0
6
CONTINUOUS
10
100
20
-60
40
0.4
50
270.716216
51
629.283784
0
ARC
8
0
6
CONTINUOUS
10
119
20
-98
40
0.4
50
270.716216
51
629.283784
0
ARC
8
0
6
CONTINUOUS
10
119
20
-79
40
0.4
50
270.716216
51
629.283784
0
ARC
8
0
6
CONTINUOUS
10
119
20
-60
40
0.4
50
270.716216
51
629.283784
0
ARC
8
0
6
CONTINUOUS
10
138
20
-88.5
40
0.4
50
270.716216
51
629.283784
0
ARC
8
0
6
CONTINUOUS
10
138
20
-69.5
40
0.4
50
270.716216
51
629.283784
0
ARC
8
0
6
CONTINUOUS
10
138
20
-50.5
40
0.4
50
270.716216
51
629.283784
0
ARC
8
0
6
CONTINUOUS
10
157
20
-83.75
40
0.4
50
270.716216
51
629.283784
0
ARC
8
0
6
CONTINUOUS
10
157
20
-64.75
40
0.4
50
270.716216
51
629.283784
0
ARC
8
0
6
CONTINUOUS
10
157
20
-45.75
40
0.4
50
270.716216
51
629.283784
0
ARC
8
0
6
CONTINUOUS
10
176
20
-86.9166667
40
0.4
50
270.716216
51
629.283784
0
ARC
8
0
6
CONTINUOUS
10
176
20
-67.9166667
40
0.4
50
270.716216
51
629.283784
0
ARC
8
0
6
CONTINUOUS
10
176
20
-48.9166667
40
0.4
50
270.716216
51
629.283784
0
ARC
8
0
6
CONTINUOUS
10
195
20
-89.2916667
40
0.4
50
270.716216
51
629.283784
0
ARC
8
0
6
CONTINUOUS
10
195
20
-70.2916667
40
0.4
50
270.716216
51
629.283784
0
ARC
8
0
6
CONTINUOUS
10
195
20
-51.2916667
40
0.4
50
270.716216
51
629.283784
0
ARC
8
0
6
CONTINUOUS
10
157
20
-108.75
40
0.4
50
270.716216
51
629.283784
0
ARC
8
0
6
CONTINUOUS
10
178.1176381
20
-111.3181483
40
0.4
50
255.7162146
51
614.2837942
0
ARC
8
0
6
CONTINUOUS
10
197.8510244
20
-119.2644361
40
0.4
50
240.716222
51
599.2837845
0
ARC
8
0
6
CONTINUOUS
10
214.8553613
20
-132.0473368
40
0.4
50
225.7162091
51
584.2837909
0
ARC
8
0
6
CONTINUOUS
10
195
20
-62.4916667
40
0.4
50
270.716216
51
629.283784
0
ARC
8
0
6
CONTINUOUS
10
157
20
-56.95
40
0.4
50
270.716216
51
629.283784
0
ARC
8
0
6
CONTINUOUS
10
119
20
-71.2
40
0.4
50
270.716216
51
629.283784
0
ARC
8
0
6
CONTINUOUS
10
119
20
-90.2
40
0.4
50
270.716216
51
629.283784
0
ARC
8
0
6
CONTINUOUS
10
157
20
-94.95
40
0.4
50
270.716216
51
629.283784
0
ARC
8
0
6
CONTINUOUS
10
195
20
-100.4916667
40
0.4
50
270.716216
51
629.283784
0
ARC
8
0
6
CONTINUOUS
10
146.935
20
-107.56
40
0.4
50
270.716216
51
629.283784
0
ARC
8
0
6
CONTINUOUS
10
147.06
20
-117.875
40
0.4
50
270.716216
51
629.283784
0
ARC
8
0
6
CONTINUOUS
10
166.5790436
20
-117.8290957
40
0.4
50
270.716216
51
629.283784
0
ARC
8
0
6
CONTINUOUS
10
184.2710907
20
-122.3855712
40
0.4
50
270.716216
51
629.283784
0
ARC
8
0
6
CONTINUOUS
10
200.4127053
20
-131.4792281
40
0.4
50
270.716216
51
629.283784
0
ARC
8
0
6
CONTINUOUS
10
213.9891555
20
-145.0556783
40
0.4
50
270.716216
51
629.283784
0
ARC
8
0
6
CONTINUOUS
10
226.9772928
20
-132.0675409
40
0.4
50
270.716216
51
629.283784
0
ARC
8
0
6
CONTINUOUS
10
205.113
20
-44.6566667
40
0.4
50
270.716216
51
629.283784
0
ARC
8
0
6
CONTINUOUS
10
224.833
20
-44.6566667
40
0.4
50
270.716216
51
629.283784
0
ARC
8
0
6
CONTINUOUS
10
223.1009492
20
-106.1176667
40
0.4
50
330.716222
51
561.952494
0
ARC
8
0
6
CONTINUOUS
10
223.1009492
20
-106.1176667
40
0.4
50
638.0475141
51
689.2837845
0
ARC
8
0
6
CONTINUOUS
10
205.113
20
-93.7323194
40
0.4
50
270.716216
51
629.283784
0
ARC
8
0
6
CONTINUOUS
10
204.083
20
-44.6566667
40
0.4
50
270.716216
51
629.283784
0
ARC
8
0
6
CONTINUOUS
10
222.7859492
20
-106.6632627
40
0.4
50
330.716222
51
381.952494
0
ARC
8
0
6
CONTINUOUS
10
222.7859492
20
-106.6632627
40
0.4
50
458.0475141
51
689.2837845
0
ARC
8
0
6
CONTINUOUS
10
204.083
20
-93.8651099
40
0.4
50
270.716216
51
629.283784
0
ARC
8
0
6
CONTINUOUS
10
109.5
20
-69.5
40
0.4
50
270.716216
51
629.283784
0
ARC
8
0
6
CONTINUOUS
10
109.5
20
-88.5
40
0.4
50
270.716216
51
629.283784
0
ARC
8
0
6
CONTINUOUS
10
185.468
20
-59.6526667
40
0.4
50
270.716216
51
629.283784
0
ARC
8
0
6
CONTINUOUS
10
143.157
20
-101.615
40
0.4
50
270.716216
51
629.283784
0
ARC
8
0
6
CONTINUOUS
10
215.3773038
20
-110.9080296
40
0.4
50
240.716222
51
599.2837845
0
ARC
8
0
6
CONTINUOUS
10
207.762
20
-92.1426667
40
0.4
50
270.716216
51
629.283784
0
ARC
8
0
6
CONTINUOUS
10
222.194
20
-100.6616667
40
0.4
50
270.716216
51
629.283784
0
LINE
8
0
6
CONTINUOUS
10
90.5
20
-109.5
11
128.5
21
-109.5
0
LINE
8
0
6
CONTINUOUS
10
109.5
20
-109.5
11
109.5
21
-52.5
0
LINE
8
0
6
CONTINUOUS
10
90.5
20
-90.5
11
128.5
21
-90.5
0
LINE
8
0
6
CONTINUOUS
10
90.5
20
-109.5
11
90.5
21
-52.5
0
LINE
8
0
6
CONTINUOUS
10
90.5
20
-71.5
11
128.5
21
-71.5
0
LINE
8
0
6
CONTINUOUS
10
90.5
20
-52.5
11
128.5
21
-52.5
0
LINE
8
0
6
CONTINUOUS
10
128.5
20
-109.5
11
128.5
21
-43
0
LINE
8
0
6
CONTINUOUS
10
128.5
20
-100
11
147.5
21
-100
0
LINE
8
0
6
CONTINUOUS
10
147.5
20
-100
11
147.5
21
-38.25
0
LINE
8
0
6
CONTINUOUS
10
128.5
20
-81
11
147.5
21
-81
0
LINE
8
0
6
CONTINUOUS
10
128.5
20
-62
11
147.5
21
-62
0
LINE
8
0
6
CONTINUOUS
10
147.5
20
-43
11
128.5
21
-43
0
LINE
8
0
6
CONTINUOUS
10
147.5
20
-95.25
11
166.5
21
-95.25
0
LINE
8
0
6
CONTINUOUS
10
166.5
20
-98.4166667
11
166.5
21
-38.25
0
LINE
8
0
6
CONTINUOUS
10
147.5
20
-76.25
11
166.5
21
-76.25
0
LINE
8
0
6
CONTINUOUS
10
147.5
20
-57.25
11
166.5
21
-57.25
0
LINE
8
0
6
CONTINUOUS
10
166.5
20
-38.25
11
147.5
21
-38.25
0
LINE
8
0
6
CONTINUOUS
10
166.5
20
-98.4166667
11
185.5
21
-98.4166667
0
LINE
8
0
6
CONTINUOUS
10
185.5
20
-100.7916667
11
185.5
21
-41.4166667
0
LINE
8
0
6
CONTINUOUS
10
166.5
20
-79.4166667
11
185.5
21
-79.4166667
0
LINE
8
0
6
CONTINUOUS
10
166.5
20
-60.4166667
11
185.5
21
-60.4166667
0
LINE
8
0
6
CONTINUOUS
10
185.5
20
-41.4166667
11
166.5
21
-41.4166667
0
LINE
8
0
6
CONTINUOUS
10
185.5
20
-100.7916667
11
204.5
21
-100.7916667
0
LINE
8
0
6
CONTINUOUS
10
204.5
20
-100.7916667
11
204.5
21
-43.7916667
0
LINE
8
0
6
CONTINUOUS
10
185.5
20
-81.7916667
11
204.5
21
-81.7916667
0
LINE
8
0
6
CONTINUOUS
10
185.5
20
-62.7916667
11
204.5
21
-62.7916667
0
LINE
8
0
6
CONTINUOUS
10
204.5
20
-43.7916667
11
185.5
21
-43.7916667
0
LINE
8
0
6
CONTINUOUS
10
147.5
20
-120.25
11
166.5
21
-120.25
0
LINE
8
0
6
CONTINUOUS
10
166.5
20
-120.25
11
166.5
21
-101.25
0
LINE
8
0
6
CONTINUOUS
10
166.5
20
-101.25
11
147.5
21
-101.25
0
LINE
8
0
6
CONTINUOUS
10
147.5
20
-101.25
11
147.5
21
-120.25
0
LINE
8
0
6
CONTINUOUS
10
165.9649237
20
-119.9675144
11
184.3175144
21
-124.8850763
0
LINE
8
0
6
CONTINUOUS
10
184.3175144
20
-124.8850763
11
189.2350763
21
-106.5324856
0
LINE
8
0
6
CONTINUOUS
10
189.2350763
20
-106.5324856
11
170.8824856
21
-101.6149237
0
LINE
8
0
6
CONTINUOUS
10
170.8824856
20
-101.6149237
11
165.9649237
21
-119.9675144
0
LINE
8
0
6
CONTINUOUS
10
183.8737831
20
-124.4737282
11
200.3282657
21
-133.9737282
0
LINE
8
0
6
CONTINUOUS
10
200.3282657
20
-133.9737282
11
209.8282657
21
-117.5192456
0
LINE
8
0
6
CONTINUOUS
10
209.8282657
20
-117.5192456
11
193.3737831
21
-108.0192456
0
LINE
8
0
6
CONTINUOUS
10
193.3737831
20
-108.0192456
11
183.8737831
21
-124.4737282
0
LINE
8
0
6
CONTINUOUS
10
200.0061189
20
-133.4615504
11
213.4411477
21
-146.8965792
0
LINE
8
0
6
CONTINUOUS
10
213.4411477
20
-146.8965792
11
226.8761765
21
-133.4615504
0
LINE
8
0
6
CONTINUOUS
10
226.8761765
20
-133.4615504
11
213.4411477
21
-120.0265216
0
LINE
8
0
6
CONTINUOUS
10
213.4411477
20
-120.0265216
11
200.0061189
21
-133.4615504
0
LINE
8
0
6
CONTINUOUS
10
93.1
20
-106.9
11
106.9
21
-106.9
0
LINE
8
0
6
CONTINUOUS
10
106.9
20
-106.9
11
106.9
21
-93.1
0
LINE
8
0
6
CONTINUOUS
10
106.9
20
-93.1
11
93.1
21
-93.1
0
LINE
8
0
6
CONTINUOUS
10
93.1
20
-93.1
11
93.1
21
-106.9
0
LINE
8
0
6
CONTINUOUS
10
93.1
20
-87.9
11
106.9
21
-87.9
0
LINE
8
0
6
CONTINUOUS
10
106.9
20
-87.9
11
106.9
21
-74.1
0
LINE
8
0
6
CONTINUOUS
10
106.9
20
-74.1
11
93.1
21
-74.1
0
LINE
8
0
6
CONTINUOUS
10
93.1
20
-74.1
11
93.1
21
-87.9
0
LINE
8
0
6
CONTINUOUS
10
93.1
20
-68.9
11
106.9
21
-68.9
0
LINE
8
0
6
CONTINUOUS
10
106.9
20
-68.9
11
106.9
21
-55.1
0
LINE
8
0
6
CONTINUOUS
10
106.9
20
-55.1
11
93.1
21
-55.1
0
LINE
8
0
6
CONTINUOUS
10
93.1
20
-55.1
11
93.1
21
-68.9
0
LINE
8
0
6
CONTINUOUS
10
112.1
20
-106.9
11
125.9
21
-106.9
0
LINE
8
0
6
CONTINUOUS
10
125.9
20
-106.9
11
125.9
21
-93.1
0
LINE
8
0
6
CONTINUOUS
10
125.9
20
-93.1
11
112.1
21
-93.1
0
LINE
8
0
6
CONTINUOUS
10
112.1
20
-93.1
11
112.1
21
-106.9
0
LINE
8
0
6
CONTINUOUS
10
112.1
20
-87.9
11
125.9
21
-87.9
0
LINE
8
0
6
CONTINUOUS
10
125.9
20
-87.9
11
125.9
21
-74.1
0
LINE
8
0
6
CONTINUOUS
10
125.9
20
-74.1
11
112.1
21
-74.1
0
LINE
8
0
6
CONTINUOUS
10
112.1
20
-74.1
11
112.1
21
-87.9
0
LINE
8
0
6
CONTINUOUS
10
112.1
20
-68.9
11
125.9
21
-68.9
0
LINE
8
0
6
CONTINUOUS
10
125.9
20
-68.9
11
125.9
21
-55.1
0
LINE
8
0
6
CONTINUOUS
10
125.9
20
-55.1
11
112.1
21
-55.1
0
LINE
8
0
6
CONTINUOUS
10
112.1
20
-55.1
11
112.1
21
-68.9
0
LINE
8
0
6
CONTINUOUS
10
131.1
20
-97.4
11
144.9
21
-97.4
0
LINE
8
0
6
CONTINUOUS
10
144.9
20
-97.4
11
144.9
21
-83.6
0
LINE
8
0
6
CONTINUOUS
10
144.9
20
-83.6
11
131.1
21
-83.6
0
LINE
8
0
6
CONTINUOUS
10
131.1
20
-83.6
11
131.1
21
-97.4
0
LINE
8
0
6
CONTINUOUS
10
131.1
20
-78.4
11
144.9
21
-78.4
0
LINE
8
0
6
CONTINUOUS
10
144.9
20
-78.4
11
144.9
21
-64.6
0
LINE
8
0
6
CONTINUOUS
10
144.9
20
-64.6
11
131.1
21
-64.6
0
LINE
8
0
6
CONTINUOUS
10
131.1
20
-64.6
11
131.1
21
-78.4
0
LINE
8
0
6
CONTINUOUS
10
131.1
20
-59.4
11
144.9
21
-59.4
0
LINE
8
0
6
CONTINUOUS
10
144.9
20
-59.4
11
144.9
21
-45.6
0
LINE
8
0
6
CONTINUOUS
10
144.9
20
-45.6
11
131.1
21
-45.6
0
LINE
8
0
6
CONTINUOUS
10
131.1
20
-45.6
11
131.1
21
-59.4
0
LINE
8
0
6
CONTINUOUS
10
150.1
20
-92.65
11
163.9
21
-92.65
0
LINE
8
0
6
CONTINUOUS
10
163.9
20
-92.65
11
163.9
21
-78.85
0
LINE
8
0
6
CONTINUOUS
10
163.9
20
-78.85
11
150.1
21
-78.85
0
LINE
8
0
6
CONTINUOUS
10
150.1
20
-78.85
11
150.1
21
-92.65
0
LINE
8
0
6
CONTINUOUS
10
150.1
20
-73.65
11
163.9
21
-73.65
0
LINE
8
0
6
CONTINUOUS
10
163.9
20
-73.65
11
163.9
21
-59.85
0
LINE
8
0
6
CONTINUOUS
10
163.9
20
-59.85
11
150.1
21
-59.85
0
LINE
8
0
6
CONTINUOUS
10
150.1
20
-59.85
11
150.1
21
-73.65
0
LINE
8
0
6
CONTINUOUS
10
150.1
20
-54.65
11
163.9
21
-54.65
0
LINE
8
0
6
CONTINUOUS
10
163.9
20
-54.65
11
163.9
21
-40.85
0
LINE
8
0
6
CONTINUOUS
10
163.9
20
-40.85
11
150.1
21
-40.85
0
LINE
8
0
6
CONTINUOUS
10
150.1
20
-40.85
11
150.1
21
-54.65
0
LINE
8
0
6
CONTINUOUS
10
169.1
20
-95.8166667
11
182.9
21
-95.8166667
0
LINE
8
0
6
CONTINUOUS
10
182.9
20
-95.8166667
11
182.9
21
-82.0166667
0
LINE
8
0
6
CONTINUOUS
10
182.9
20
-82.0166667
11
169.1
21
-82.0166667
0
LINE
8
0
6
CONTINUOUS
10
169.1
20
-82.0166667
11
169.1
21
-95.8166667
0
LINE
8
0
6
CONTINUOUS
10
169.1
20
-76.8166667
11
182.9
21
-76.8166667
0
LINE
8
0
6
CONTINUOUS
10
182.9
20
-76.8166667
11
182.9
21
-63.0166667
0
LINE
8
0
6
CONTINUOUS
10
182.9
20
-63.0166667
11
169.1
21
-63.0166667
0
LINE
8
0
6
CONTINUOUS
10
169.1
20
-63.0166667
11
169.1
21
-76.8166667
0
LINE
8
0
6
CONTINUOUS
10
169.1
20
-57.8166667
11
182.9
21
-57.8166667
0
LINE
8
0
6
CONTINUOUS
10
182.9
20
-57.8166667
11
182.9
21
-44.0166667
0
LINE
8
0
6
CONTINUOUS
10
182.9
20
-44.0166667
11
169.1
21
-44.0166667
0
LINE
8
0
6
CONTINUOUS
10
169.1
20
-44.0166667
11
169.1
21
-57.8166667
0
LINE
8
0
6
CONTINUOUS
10
188.1
20
-98.1916667
11
201.9
21
-98.1916667
0
LINE
8
0
6
CONTINUOUS
10
201.9
20
-98.1916667
11
201.9
21
-84.3916667
0
LINE
8
0
6
CONTINUOUS
10
201.9
20
-84.3916667
11
188.1
21
-84.3916667
0
LINE
8
0
6
CONTINUOUS
10
188.1
20
-84.3916667
11
188.1
21
-98.1916667
0
LINE
8
0
6
CONTINUOUS
10
188.1
20
-79.1916667
11
201.9
21
-79.1916667
0
LINE
8
0
6
CONTINUOUS
10
201.9
20
-79.1916667
11
201.9
21
-65.3916667
0
LINE
8
0
6
CONTINUOUS
10
201.9
20
-65.3916667
11
188.1
21
-65.3916667
0
LINE
8
0
6
CONTINUOUS
10
188.1
20
-65.3916667
11
188.1
21
-79.1916667
0
LINE
8
0
6
CONTINUOUS
10
188.1
20
-60.1916667
11
201.9
21
-60.1916667
0
LINE
8
0
6
CONTINUOUS
10
201.9
20
-60.1916667
11
201.9
21
-46.3916667
0
LINE
8
0
6
CONTINUOUS
10
201.9
20
-46.3916667
11
188.1
21
-46.3916667
0
LINE
8
0
6
CONTINUOUS
10
188.1
20
-46.3916667
11
188.1
21
-60.1916667
0
LINE
8
0
6
CONTINUOUS
10
150.1
20
-117.65
11
163.9
21
-117.65
0
LINE
8
0
6
CONTINUOUS
10
163.9
20
-117.65
11
163.9
21
-103.85
0
LINE
8
0
6
CONTINUOUS
10
163.9
20
-103.85
11
150.1
21
-103.85
0
LINE
8
0
6
CONTINUOUS
10
150.1
20
-103.85
11
150.1
21
-117.65
0
LINE
8
0
6
CONTINUOUS
10
169.1492604
20
-118.1290368
11
182.4790368
21
-121.7007396
0
LINE
8
0
6
CONTINUOUS
10
182.4790368
20
-121.7007396
11
186.0507396
21
-108.3709632
0
LINE
8
0
6
CONTINUOUS
10
186.0507396
20
-108.3709632
11
172.7209632
21
-104.7992604
0
LINE
8
0
6
CONTINUOUS
10
172.7209632
20
-104.7992604
11
169.1492604
21
-118.1290368
0
LINE
8
0
6
CONTINUOUS
10
187.4254491
20
-123.5220622
11
199.3765997
21
-130.4220622
0
LINE
8
0
6
CONTINUOUS
10
199.3765997
20
-130.4220622
11
206.2765997
21
-118.4709116
0
LINE
8
0
6
CONTINUOUS
10
206.2765997
20
-118.4709116
11
194.3254491
21
-111.5709116
0
LINE
8
0
6
CONTINUOUS
10
194.3254491
20
-111.5709116
11
187.4254491
21
-123.5220622
0
LINE
8
0
6
CONTINUOUS
10
203.6830741
20
-133.4615504
11
213.4411477
21
-143.219624
0
LINE
8
0
6
CONTINUOUS
10
213.4411477
20
-143.219624
11
223.1992213
21
-133.4615504
0
LINE
8
0
6
CONTINUOUS
10
223.1992213
20
-133.4615504
11
213.4411477
21
-123.7034768
0
LINE
8
0
6
CONTINUOUS
10
213.4411477
20
-123.7034768
11
203.6830741
21
-133.4615504
0
CIRCLE
8
0
6
CONTINUOUS
10
109.5
20
-71.5
40
2
0
CIRCLE
8
0
6
CONTINUOUS
10
109.5
20
-90.5
40
2
0
CIRCLE
8
0
6
CONTINUOUS
10
185.468
20
-61.6526667
40
2
0
CIRCLE
8
0
6
CONTINUOUS
10
143.157
20
-103.615
40
2
0
CIRCLE
8
0
6
CONTINUOUS
10
214.3773038
20
-112.6400804
40
2
0
CIRCLE
8
0
6
CONTINUOUS
10
207.762
20
-94.1426667
40
2
0
CIRCLE
8
0
6
CONTINUOUS
10
222.194
20
-102.6616667
40
2
0
ENDSEC
0
EOF