<svg width="139.877mm" height="110.806mm" viewBox="0 0 139.877 110.806" xmlns="http://www.w3.org/2000/svg"><g id="svgGroup" stroke-linecap="round" fill-rule="evenodd" font-size="9pt" stroke="#000" stroke-width="0.25mm" fill="none" style="stroke:#000;stroke-width:0.25mm;fill:none"><path d="M 57 4.75 L 38 4.75 L 38 71.25 L 0 71.25 L 0 14.25 L 38 14.25 M 95 60.167 L 76 60.167 L 76 0 L 57 0 L 57 61.75 L 38 61.75 M 76 3.167 L 95 3.167 L 95 62.542 L 114 62.542 L 114 5.542 L 95 5.542 M 75.465 81.718 L 93.818 86.635 L 98.735 68.282 L 80.382 63.365 L 75.465 81.718 Z M 57 82 L 76 82 L 76 63 L 57 63 L 57 82 Z M 109.506 95.212 L 122.941 108.647 L 136.376 95.212 L 122.941 81.777 L 109.506 95.212 Z M 93.374 86.224 L 109.828 95.724 L 119.328 79.269 L 102.874 69.769 L 93.374 86.224 Z M 113.183 95.212 L 122.941 104.97 L 132.699 95.212 L 122.941 85.453 L 113.183 95.212 Z M 96.925 85.272 L 108.877 92.172 L 115.777 80.221 L 103.825 73.321 L 96.925 85.272 Z M 40.6 21.15 L 54.4 21.15 L 54.4 7.35 L 40.6 7.35 L 40.6 21.15 Z M 59.6 16.4 L 73.4 16.4 L 73.4 2.6 L 59.6 2.6 L 59.6 16.4 Z M 78.6 19.567 L 92.4 19.567 L 92.4 5.767 L 78.6 5.767 L 78.6 19.567 Z M 97.6 21.942 L 111.4 21.942 L 111.4 8.142 L 97.6 8.142 L 97.6 21.942 Z M 40.6 59.15 L 54.4 59.15 L 54.4 45.35 L 40.6 45.35 L 40.6 59.15 Z M 40.6 40.15 L 54.4 40.15 L 54.4 26.35 L 40.6 26.35 L 40.6 40.15 Z M 59.6 54.4 L 73.4 54.4 L 73.4 40.6 L 59.6 40.6 L 59.6 54.4 Z M 59.6 35.4 L 73.4 35.4 L 73.4 21.6 L 59.6 21.6 L 59.6 35.4 Z M 78.6 57.567 L 92.4 57.567 L 92.4 43.767 L 78.6 43.767 L 78.6 57.567 Z M 78.6 38.567 L 92.4 38.567 L 92.4 24.767 L 78.6 24.767 L 78.6 38.567 Z M 97.6 59.942 L 111.4 59.942 L 111.4 46.142 L 97.6 46.142 L 97.6 59.942 Z M 97.6 40.942 L 111.4 40.942 L 111.4 27.142 L 97.6 27.142 L 97.6 40.942 Z M 59.6 79.4 L 73.4 79.4 L 73.4 65.6 L 59.6 65.6 L 59.6 79.4 Z M 2.6 68.65 L 16.4 68.65 L 16.4 54.85 L 2.6 54.85 L 2.6 68.65 Z M 2.6 49.65 L 16.4 49.65 L 16.4 35.85 L 2.6 35.85 L 2.6 49.65 Z M 2.6 30.65 L 16.4 30.65 L 16.4 16.85 L 2.6 16.85 L 2.6 30.65 Z M 21.6 68.65 L 35.4 68.65 L 35.4 54.85 L 21.6 54.85 L 21.6 68.65 Z M 21.6 49.65 L 35.4 49.65 L 35.4 35.85 L 21.6 35.85 L 21.6 49.65 Z M 21.6 30.65 L 35.4 30.65 L 35.4 16.85 L 21.6 16.85 L 21.6 30.65 Z M 78.649 79.879 L 91.979 83.451 L 95.551 70.121 L 82.221 66.549 L 78.649 79.879 Z M 111.613 57.487 L 113.578 57.487 L 113.578 57.61 L 110.583 57.61 L 110.583 57.62 L 113.578 57.62 L 113.578 59.615 L 113.588 59.615 L 113.588 57.62 L 114.608 57.62 L 114.608 59.482 L 114.618 59.482 L 114.618 57.62 L 116.183 57.62 A 0.4 0.4 0 1 0 116.962 57.487 L 117.213 57.487 A 0.4 0.4 0 0 0 117.257 57.665 L 117.257 57.893 L 117.267 57.893 L 117.267 57.683 A 0.4 0.4 0 1 0 117.267 57.282 L 117.267 55.898 L 119.862 55.898 A 0.4 0.4 0 1 0 119.862 55.888 L 117.267 55.888 L 117.267 54.293 A 0.4 0.4 0 1 0 117.257 54.293 L 117.257 55.888 L 114.618 55.888 L 114.618 55.882 A 0.4 0.4 0 1 0 114.608 55.882 L 114.608 55.888 L 114.262 55.888 L 114.262 55.898 L 114.608 55.898 L 114.608 57.477 L 113.588 57.477 L 113.588 56.015 A 0.4 0.4 0 1 0 113.578 56.015 L 113.578 57.477 L 111.613 57.477 L 111.613 57.487 Z M 110.583 8.412 L 113.578 8.412 L 113.578 10.407 L 113.588 10.407 L 113.588 8.412 L 114.608 8.412 L 114.608 10.407 L 114.618 10.407 L 114.618 8.412 L 116.183 8.412 A 0.4 0.4 0 0 0 116.983 8.412 L 117.213 8.412 A 0.4 0.4 0 1 0 117.213 8.402 L 116.983 8.402 A 0.4 0.4 0 0 0 116.183 8.402 L 114.618 8.402 L 114.618 6.807 A 0.4 0.4 0 1 0 114.608 6.807 L 114.608 8.402 L 113.588 8.402 L 113.588 6.807 A 0.4 0.4 0 1 0 113.578 6.807 L 113.578 8.402 L 110.583 8.402 L 110.583 8.412 Z M 132.522 72.014 L 134.02 69.42 L 135.748 70.418 L 135.753 70.409 L 134.025 69.411 L 134.335 68.874 L 136.063 69.872 L 136.068 69.863 L 134.34 68.866 L 135.322 67.164 A 0.4 0.4 0 0 0 135.889 66.666 A 0.4 0.4 0 1 0 135.462 66.419 A 0.4 0.4 0 0 0 135.314 67.159 L 134.331 68.861 L 132.95 68.063 A 0.4 0.4 0 1 0 132.23 68.017 A 0.4 0.4 0 1 0 132.63 68.618 L 134.011 69.415 L 132.514 72.009 L 132.522 72.014 Z M 106.913 95.234 L 109.908 95.234 L 109.908 97.229 L 109.918 97.229 L 109.918 95.234 L 112.513 95.234 A 0.4 0.4 0 1 0 112.513 95.224 L 109.918 95.224 L 109.918 93.629 A 0.4 0.4 0 1 0 109.908 93.629 L 109.908 95.224 L 106.913 95.224 L 106.913 95.234 Z M 120.489 108.811 L 123.484 108.811 L 123.484 110.806 L 123.494 110.806 L 123.494 108.811 L 126.089 108.811 A 0.4 0.4 0 1 0 126.089 108.801 L 123.494 108.801 L 123.494 107.206 A 0.4 0.4 0 1 0 123.484 107.206 L 123.484 108.801 L 120.489 108.801 L 120.489 108.811 Z M 133.477 95.823 L 136.472 95.823 L 136.472 97.818 L 136.482 97.818 L 136.482 95.823 L 139.077 95.823 A 0.4 0.4 0 1 0 139.077 95.813 L 136.482 95.813 L 136.482 94.218 A 0.4 0.4 0 1 0 136.472 94.218 L 136.472 95.813 L 133.477 95.813 L 133.477 95.823 Z M 44.5 52.255 L 47.495 52.255 L 47.495 54.25 L 47.505 54.25 L 47.505 52.255 L 50.1 52.255 A 0.4 0.4 0 1 0 50.1 52.245 L 47.505 52.245 L 47.505 50.65 A 0.4 0.4 0 1 0 47.495 50.65 L 47.495 52.245 L 44.5 52.245 L 44.5 52.255 Z M 44.5 33.255 L 47.495 33.255 L 47.495 35.25 L 47.505 35.25 L 47.505 33.255 L 50.1 33.255 A 0.4 0.4 0 1 0 50.1 33.245 L 47.505 33.245 L 47.505 31.65 A 0.4 0.4 0 1 0 47.495 31.65 L 47.495 33.245 L 44.5 33.245 L 44.5 33.255 Z M 63.5 47.505 L 66.495 47.505 L 66.495 49.5 L 66.505 49.5 L 66.505 47.505 L 69.1 47.505 A 0.4 0.4 0 1 0 69.1 47.495 L 66.505 47.495 L 66.505 45.9 A 0.4 0.4 0 1 0 66.495 45.9 L 66.495 47.495 L 63.5 47.495 L 63.5 47.505 Z M 63.5 28.505 L 66.495 28.505 L 66.495 30.5 L 66.505 30.5 L 66.505 28.505 L 69.1 28.505 A 0.4 0.4 0 1 0 69.1 28.495 L 66.505 28.495 L 66.505 26.9 A 0.4 0.4 0 1 0 66.495 26.9 L 66.495 28.495 L 63.5 28.495 L 63.5 28.505 Z M 82.5 50.672 L 85.495 50.672 L 85.495 52.667 L 85.505 52.667 L 85.505 50.672 L 88.1 50.672 A 0.4 0.4 0 1 0 88.1 50.662 L 85.505 50.662 L 85.505 49.067 A 0.4 0.4 0 1 0 85.495 49.067 L 85.495 50.662 L 82.5 50.662 L 82.5 50.672 Z M 82.5 31.672 L 85.495 31.672 L 85.495 33.667 L 85.505 33.667 L 85.505 31.672 L 88.1 31.672 A 0.4 0.4 0 1 0 88.1 31.662 L 85.505 31.662 L 85.505 30.067 A 0.4 0.4 0 1 0 85.495 30.067 L 85.495 31.662 L 82.5 31.662 L 82.5 31.672 Z M 101.5 53.047 L 104.495 53.047 L 104.495 55.042 L 104.505 55.042 L 104.505 53.047 L 107.1 53.047 A 0.4 0.4 0 1 0 107.1 53.037 L 104.505 53.037 L 104.505 51.442 A 0.4 0.4 0 1 0 104.495 51.442 L 104.495 53.037 L 101.5 53.037 L 101.5 53.047 Z M 101.5 34.047 L 104.495 34.047 L 104.495 36.042 L 104.505 36.042 L 104.505 34.047 L 107.1 34.047 A 0.4 0.4 0 1 0 107.1 34.037 L 104.505 34.037 L 104.505 32.442 A 0.4 0.4 0 1 0 104.495 32.442 L 104.495 34.037 L 101.5 34.037 L 101.5 34.047 Z M 63.5 72.505 L 66.495 72.505 L 66.495 74.5 L 66.505 74.5 L 66.505 72.505 L 69.1 72.505 A 0.4 0.4 0 1 0 69.1 72.495 L 66.505 72.495 L 66.505 70.9 A 0.4 0.4 0 1 0 66.495 70.9 L 66.495 72.495 L 63.5 72.495 L 63.5 72.505 Z M 101.5 26.247 L 104.495 26.247 L 104.495 28.242 L 104.505 28.242 L 104.505 26.247 L 107.1 26.247 A 0.4 0.4 0 1 0 107.1 26.237 L 104.505 26.237 L 104.505 24.642 A 0.4 0.4 0 1 0 104.495 24.642 L 104.495 26.237 L 101.5 26.237 L 101.5 26.247 Z M 63.5 58.705 L 66.495 58.705 L 66.495 60.7 L 66.505 60.7 L 66.505 58.705 L 69.1 58.705 A 0.4 0.4 0 1 0 69.1 58.695 L 66.505 58.695 L 66.505 57.1 A 0.4 0.4 0 1 0 66.495 57.1 L 66.495 58.695 L 63.5 58.695 L 63.5 58.705 Z M 101.5 64.247 L 104.495 64.247 L 104.495 66.242 L 104.505 66.242 L 104.505 64.247 L 107.1 64.247 A 0.4 0.4 0 1 0 107.1 64.237 L 104.505 64.237 L 104.505 62.642 A 0.4 0.4 0 1 0 104.495 62.642 L 104.495 64.237 L 101.5 64.237 L 101.5 64.247 Z M 53.435 71.315 L 56.43 71.315 L 56.43 73.31 L 56.44 73.31 L 56.44 71.315 L 59.035 71.315 A 0.4 0.4 0 1 0 59.035 71.305 L 56.44 71.305 L 56.44 69.71 A 0.4 0.4 0 1 0 56.43 69.71 L 56.43 71.305 L 53.435 71.305 L 53.435 71.315 Z M 53.56 81.63 L 56.555 81.63 L 56.555 83.625 L 56.565 83.625 L 56.565 81.63 L 59.16 81.63 A 0.4 0.4 0 1 0 59.16 81.62 L 56.565 81.62 L 56.565 80.025 A 0.4 0.4 0 1 0 56.555 80.025 L 56.555 81.62 L 53.56 81.62 L 53.56 81.63 Z M 73.079 81.584 L 76.074 81.584 L 76.074 83.579 L 76.084 83.579 L 76.084 81.584 L 78.679 81.584 A 0.4 0.4 0 1 0 78.679 81.574 L 76.084 81.574 L 76.084 79.979 A 0.4 0.4 0 1 0 76.074 79.979 L 76.074 81.574 L 73.079 81.574 L 73.079 81.584 Z M 90.771 86.141 L 93.766 86.141 L 93.766 88.136 L 93.776 88.136 L 93.776 86.141 L 96.371 86.141 A 0.4 0.4 0 1 0 96.371 86.131 L 93.776 86.131 L 93.776 84.536 A 0.4 0.4 0 1 0 93.766 84.536 L 93.766 86.131 L 90.771 86.131 L 90.771 86.141 Z M 49.657 65.37 L 52.652 65.37 L 52.652 67.365 L 52.662 67.365 L 52.662 65.37 L 55.257 65.37 A 0.4 0.4 0 1 0 55.257 65.36 L 52.662 65.36 L 52.662 63.765 A 0.4 0.4 0 1 0 52.652 63.765 L 52.652 65.36 L 49.657 65.36 L 49.657 65.37 Z M 128.694 64.417 L 131.689 64.417 L 131.689 66.412 L 131.699 66.412 L 131.699 64.417 L 134.294 64.417 A 0.4 0.4 0 1 0 134.294 64.407 L 131.699 64.407 L 131.699 62.812 A 0.4 0.4 0 1 0 131.689 62.812 L 131.689 64.407 L 128.694 64.407 L 128.694 64.417 Z M 44.5 14.255 L 47.495 14.255 L 47.495 16.25 L 47.505 16.25 L 47.505 14.255 L 50.1 14.255 A 0.4 0.4 0 1 0 50.1 14.245 L 47.505 14.245 L 47.505 12.65 A 0.4 0.4 0 1 0 47.495 12.65 L 47.495 14.245 L 44.5 14.245 L 44.5 14.255 Z M 63.5 9.505 L 66.495 9.505 L 66.495 11.5 L 66.505 11.5 L 66.505 9.505 L 69.1 9.505 A 0.4 0.4 0 1 0 69.1 9.495 L 66.505 9.495 L 66.505 7.9 A 0.4 0.4 0 1 0 66.495 7.9 L 66.495 9.495 L 63.5 9.495 L 63.5 9.505 Z M 82.5 12.672 L 85.495 12.672 L 85.495 14.667 L 85.505 14.667 L 85.505 12.672 L 88.1 12.672 A 0.4 0.4 0 1 0 88.1 12.662 L 85.505 12.662 L 85.505 11.067 A 0.4 0.4 0 1 0 85.495 11.067 L 85.495 12.662 L 82.5 12.662 L 82.5 12.672 Z M 101.5 15.047 L 104.495 15.047 L 104.495 17.042 L 104.505 17.042 L 104.505 15.047 L 107.1 15.047 A 0.4 0.4 0 1 0 107.1 15.037 L 104.505 15.037 L 104.505 13.442 A 0.4 0.4 0 1 0 104.495 13.442 L 104.495 15.037 L 101.5 15.037 L 101.5 15.047 Z M 63.5 20.705 L 66.495 20.705 L 66.495 22.7 L 66.505 22.7 L 66.505 20.705 L 69.1 20.705 A 0.4 0.4 0 1 0 69.1 20.695 L 66.505 20.695 L 66.505 19.1 A 0.4 0.4 0 1 0 66.495 19.1 L 66.495 20.695 L 63.5 20.695 L 63.5 20.705 Z M 131.333 8.412 L 134.328 8.412 L 134.328 10.407 L 134.338 10.407 L 134.338 8.412 L 136.933 8.412 A 0.4 0.4 0 1 0 136.933 8.402 L 134.338 8.402 L 134.338 6.807 A 0.4 0.4 0 1 0 134.328 6.807 L 134.328 8.402 L 131.333 8.402 L 131.333 8.412 Z M 91.968 23.408 L 94.963 23.408 L 94.963 25.403 L 94.973 25.403 L 94.973 23.408 L 97.568 23.408 A 0.4 0.4 0 1 0 97.568 23.398 L 94.973 23.398 L 94.973 21.803 A 0.4 0.4 0 1 0 94.963 21.803 L 94.963 23.398 L 91.968 23.398 L 91.968 23.408 Z M 6.5 61.755 L 9.495 61.755 L 9.495 63.75 L 9.505 63.75 L 9.505 61.755 L 12.1 61.755 A 0.4 0.4 0 1 0 12.1 61.745 L 9.505 61.745 L 9.505 60.15 A 0.4 0.4 0 1 0 9.495 60.15 L 9.495 61.745 L 6.5 61.745 L 6.5 61.755 Z M 6.5 42.755 L 9.495 42.755 L 9.495 44.75 L 9.505 44.75 L 9.505 42.755 L 12.1 42.755 A 0.4 0.4 0 1 0 12.1 42.745 L 9.505 42.745 L 9.505 41.15 A 0.4 0.4 0 1 0 9.495 41.15 L 9.495 42.745 L 6.5 42.745 L 6.5 42.755 Z M 25.5 61.755 L 28.495 61.755 L 28.495 63.75 L 28.505 63.75 L 28.505 61.755 L 31.1 61.755 A 0.4 0.4 0 1 0 31.1 61.745 L 28.505 61.745 L 28.505 60.15 A 0.4 0.4 0 1 0 28.495 60.15 L 28.495 61.745 L 25.5 61.745 L 25.5 61.755 Z M 25.5 42.755 L 28.495 42.755 L 28.495 44.75 L 28.505 44.75 L 28.505 42.755 L 31.1 42.755 A 0.4 0.4 0 1 0 31.1 42.745 L 28.505 42.745 L 28.505 41.15 A 0.4 0.4 0 1 0 28.495 41.15 L 28.495 42.745 L 25.5 42.745 L 25.5 42.755 Z M 25.5 34.955 L 28.495 34.955 L 28.495 36.95 L 28.505 36.95 L 28.505 34.955 L 31.1 34.955 A 0.4 0.4 0 1 0 31.1 34.945 L 28.505 34.945 L 28.505 33.35 A 0.4 0.4 0 1 0 28.495 33.35 L 28.495 34.945 L 25.5 34.945 L 25.5 34.955 Z M 25.5 53.955 L 28.495 53.955 L 28.495 55.95 L 28.505 55.95 L 28.505 53.955 L 31.1 53.955 A 0.4 0.4 0 1 0 31.1 53.945 L 28.505 53.945 L 28.505 52.35 A 0.4 0.4 0 1 0 28.495 52.35 L 28.495 53.945 L 25.5 53.945 L 25.5 53.955 Z M 16 33.255 L 18.995 33.255 L 18.995 35.25 L 19.005 35.25 L 19.005 33.255 L 21.6 33.255 A 0.4 0.4 0 1 0 21.6 33.245 L 19.005 33.245 L 19.005 31.65 A 0.4 0.4 0 1 0 18.995 31.65 L 18.995 33.245 L 16 33.245 L 16 33.255 Z M 16 52.255 L 18.995 52.255 L 18.995 54.25 L 19.005 54.25 L 19.005 52.255 L 21.6 52.255 A 0.4 0.4 0 1 0 21.6 52.245 L 19.005 52.245 L 19.005 50.65 A 0.4 0.4 0 1 0 18.995 50.65 L 18.995 52.245 L 16 52.245 L 16 52.255 Z M 6.5 23.755 L 9.495 23.755 L 9.495 25.75 L 9.505 25.75 L 9.505 23.755 L 12.1 23.755 A 0.4 0.4 0 1 0 12.1 23.745 L 9.505 23.745 L 9.505 22.15 A 0.4 0.4 0 1 0 9.495 22.15 L 9.495 23.745 L 6.5 23.745 L 6.5 23.755 Z M 25.5 23.755 L 28.495 23.755 L 28.495 25.75 L 28.505 25.75 L 28.505 23.755 L 31.1 23.755 A 0.4 0.4 0 1 0 31.1 23.745 L 28.505 23.745 L 28.505 22.15 A 0.4 0.4 0 1 0 28.495 22.15 L 28.495 23.745 L 25.5 23.745 L 25.5 23.755 Z M 120.816 93.094 L 122.934 95.212 L 121.523 96.622 L 121.53 96.629 L 122.941 95.219 L 124.776 97.054 A 0.4 0.4 0 1 0 124.783 97.047 L 122.948 95.212 L 124.076 94.084 A 0.4 0.4 0 1 0 124.069 94.077 L 122.941 95.204 L 120.823 93.087 L 120.816 93.094 Z M 84.201 74.228 L 87.094 75.004 L 86.578 76.931 L 86.587 76.933 L 87.104 75.006 L 89.61 75.678 A 0.4 0.4 0 1 0 89.613 75.668 L 87.106 74.996 L 87.519 73.456 A 0.4 0.4 0 1 0 87.509 73.453 L 87.096 74.994 L 84.204 74.219 L 84.201 74.228 Z M 103.75 81.251 L 106.344 82.748 L 105.347 84.476 L 105.355 84.481 L 106.353 82.753 L 108.6 84.051 A 0.4 0.4 0 1 0 108.605 84.042 L 106.358 82.745 L 107.155 81.363 A 0.4 0.4 0 1 0 107.147 81.358 L 106.349 82.74 L 103.755 81.242 L 103.75 81.251 Z M 121.277 72.894 L 123.87 74.392 L 122.873 76.12 L 122.882 76.125 L 123.879 74.397 L 126.126 75.694 A 0.4 0.4 0 1 0 126.131 75.686 L 123.884 74.388 L 124.682 73.007 A 0.4 0.4 0 1 0 124.673 73.002 L 123.875 74.383 L 121.282 72.886 L 121.277 72.894 Z M 19 33.25 m -2 0 a 2 2 0 0 1 4 0 a 2 2 0 0 1 -4 0 z M 19 52.25 m -2 0 a 2 2 0 0 1 4 0 a 2 2 0 0 1 -4 0 z M 94.968 23.403 m -2 0 a 2 2 0 0 1 4 0 a 2 2 0 0 1 -4 0 z M 52.657 65.365 m -2 0 a 2 2 0 0 1 4 0 a 2 2 0 0 1 -4 0 z M 123.877 74.39 m -2 0 a 2 2 0 0 1 4 0 a 2 2 0 0 1 -4 0 z M 117.262 55.893 m -2 0 a 2 2 0 0 1 4 0 a 2 2 0 0 1 -4 0 z M 131.694 64.412 m -2 0 a 2 2 0 0 1 4 0 a 2 2 0 0 1 -4 0 z M 117.213 57.477 L 116.959 57.477 A 0.4 0.4 0 0 0 116.207 57.477 L 114.618 57.477 L 114.618 55.898 L 117.257 55.898 L 117.257 57.3 A 0.4 0.4 0 0 0 117.213 57.477 Z M 134.326 68.869 L 134.016 69.406 L 132.635 68.609 A 0.4 0.4 0 0 0 132.657 68.264 A 0.4 0.4 0 0 0 132.945 68.072 L 134.326 68.869 Z M 114.618 57.487 L 116.204 57.487 A 0.4 0.4 0 0 0 116.183 57.61 L 114.618 57.61 L 114.618 57.487 Z M 113.588 57.487 L 114.608 57.487 L 114.608 57.61 L 113.588 57.61 L 113.588 57.487 Z M 19 71.25 19 14.25 M 0 52.25 38 52.25 M 0 33.25 38 33.25 M 38 42.75 57 42.75 M 38 23.75 57 23.75 M 57 57 76 57 M 57 38 76 38 M 57 19 76 19 M 76 41.167 95 41.167 M 76 22.167 95 22.167 M 95 43.542 114 43.542 M 95 24.542 114 24.542" vector-effect="non-scaling-stroke"/></g></svg>