0
SECTION
2
HEADER
9
$INSUNITS
70
4
0
ENDSEC
0
SECTION
2
TABLES
0
TABLE
2
LTYPE
0
LTYPE
72
65
70
0
2
CONTINUOUS
3
______
73
0
40
0
0
LTYPE
72
65
70
0
2
DASHED
3
_ _ _ 
73
2
40
7.5
49
5
49
-2.5
0
LTYPE
72
65
70
0
2
DOTTED
3
. . . 
73
2
40
1.5
49
0.5
49
-1
0
ENDTAB
0
TABLE
2
LAYER
0
ENDTAB
0
ENDSEC
0
SECTION
2
ENTITIES
0
LINE
8
0
6
CONTINUOUS
10
91.0819823
20
-108.7428741
11
91.0800178
21
-53.4901494
0
LINE
8
0
6
CONTINUOUS
10
91.5801494
20
-52.9901316
11
128.5798684
21
-52.9998684
0
LINE
8
0
6
CONTINUOUS
10
129.08
20
-52.4998684
11
129.08
21
-43.9915814
0
LINE
8
0
6
CONTINUOUS
10
129.5815789
20
-43.4915839
11
147.5784211
21
-43.5484161
0
LINE
8
0
6
CONTINUOUS
10
148.08
20
-43.0484186
11
148.08
21
-39.363
0
LINE
8
0
6
CONTINUOUS
10
148.58
20
-38.863
11
165.582
21
-38.863
0
LINE
8
0
6
CONTINUOUS
10
166.082
20
-39.363
11
166.082
21
-41.4488583
0
LINE
8
0
6
CONTINUOUS
10
166.5831403
20
-41.948857
11
184.5808597
21
-41.9078097
0
LINE
8
0
6
CONTINUOUS
10
185.082
20
-42.4078084
11
185.082
21
-43.9046667
0
LINE
8
0
6
CONTINUOUS
10
185.582
20
-44.4046667
11
203.5822219
21
-44.4046667
0
LINE
8
0
6
CONTINUOUS
10
204.0822219
20
-44.9044447
11
204.083
21
-46.6566667
0
LINE
8
0
6
CONTINUOUS
10
204.083
20
-46.6568887
11
204.083
21
-95.5764348
0
LINE
8
0
6
CONTINUOUS
10
204.333
20
-96.0094475
11
224.2941282
21
-107.5340102
0
LINE
8
0
6
CONTINUOUS
10
224.5419734
20
-107.9206537
11
226.955512
21
-133.8336908
0
LINE
8
0
6
CONTINUOUS
10
226.8112202
20
-134.2336135
11
214.3427089
21
-146.7021249
0
LINE
8
0
6
CONTINUOUS
10
213.6356021
20
-146.7021249
11
200.4611502
21
-133.527673
0
LINE
8
0
6
CONTINUOUS
10
200.3530143
20
-133.4456002
11
184.3282609
21
-124.417779
0
LINE
8
0
6
CONTINUOUS
10
184.2075459
20
-124.3692056
11
166.6409724
21
-119.8450451
0
LINE
8
0
6
CONTINUOUS
10
166.515094
20
-119.8292461
11
147.5551394
21
-119.8738355
0
LINE
8
0
6
CONTINUOUS
10
147.0540002
20
-119.3798956
11
146.9409515
21
-110.0511192
0
LINE
8
0
6
CONTINUOUS
10
146.4438528
20
-109.5571861
11
91.5791177
21
-109.2428481
0
ARC
8
0
6
CONTINUOUS
10
91.5800178
20
-53.4901316
40
0.5
50
89.9849198
51
180.0020398
0
ARC
8
0
6
CONTINUOUS
10
128.58
20
-52.4998684
40
0.5
50
269.9849198
51
0
0
ARC
8
0
6
CONTINUOUS
10
129.58
20
-43.9915814
40
0.5
50
89.8190654
51
180
0
ARC
8
0
6
CONTINUOUS
10
147.58
20
-43.0484186
40
0.5
50
269.8190654
51
0
0
ARC
8
0
6
CONTINUOUS
10
148.58
20
-39.363
40
0.5
50
90
51
180
0
ARC
8
0
6
CONTINUOUS
10
165.582
20
-39.363
40
0.5
50
0
51
90
0
ARC
8
0
6
CONTINUOUS
10
166.582
20
-41.4488583
40
0.5
50
180
51
270.1306746
0
ARC
8
0
6
CONTINUOUS
10
184.582
20
-42.4078084
40
0.5
50
0
51
90.1306746
0
ARC
8
0
6
CONTINUOUS
10
185.582
20
-43.9046667
40
0.5
50
180
51
270
0
ARC
8
0
6
CONTINUOUS
10
203.5822219
20
-44.9046667
40
0.5
50
0.0254393
51
90
0
ARC
8
0
6
CONTINUOUS
10
203.583
20
-46.6568887
40
0.5
50
0
51
0.0254393
0
ARC
8
0
6
CONTINUOUS
10
204.583
20
-95.5764348
40
0.5
50
180
51
239.9999999
0
ARC
8
0
6
CONTINUOUS
10
224.0441282
20
-107.9670229
40
0.5
50
5.3211707
51
59.9999999
0
ARC
8
0
6
CONTINUOUS
10
226.4576668
20
-133.8800601
40
0.5
50
315
51
5.3211707
0
ARC
8
0
6
CONTINUOUS
10
213.9891555
20
-146.3485715
40
0.5
50
225
51
315
0
ARC
8
0
6
CONTINUOUS
10
200.1075968
20
-133.8812264
40
0.5
50
45
51
60.6045152
0
ARC
8
0
6
CONTINUOUS
10
184.0828434
20
-124.8534053
40
0.5
50
60.6045152
51
75.5576875
0
ARC
8
0
6
CONTINUOUS
10
166.5162699
20
-120.3292447
40
0.5
50
75.5576875
51
90.1347483
0
ARC
8
0
6
CONTINUOUS
10
147.5539635
20
-119.3738369
40
0.5
50
180.6942929
51
270.1347483
0
ARC
8
0
6
CONTINUOUS
10
146.4409882
20
-110.0571779
40
0.5
50
0.6942929
51
89.6717392
0
ARC
8
0
6
CONTINUOUS
10
91.5819823
20
-108.7428563
40
0.5
50
180.0020397
51
269.6717392
0
LINE
8
0
6
CONTINUOUS
10
93
20
-107
11
107
21
-107
0
LINE
8
0
6
CONTINUOUS
10
107
20
-107
11
107
21
-93
0
LINE
8
0
6
CONTINUOUS
10
107
20
-93
11
93
21
-93
0
LINE
8
0
6
CONTINUOUS
10
93
20
-93
11
93
21
-107
0
LINE
8
0
6
CONTINUOUS
10
93
20
-88
11
107
21
-88
0
LINE
8
0
6
CONTINUOUS
10
107
20
-88
11
107
21
-74
0
LINE
8
0
6
CONTINUOUS
10
107
20
-74
11
93
21
-74
0
LINE
8
0
6
CONTINUOUS
10
93
20
-74
11
93
21
-88
0
LINE
8
0
6
CONTINUOUS
10
93
20
-69
11
107
21
-69
0
LINE
8
0
6
CONTINUOUS
10
107
20
-69
11
107
21
-55
0
LINE
8
0
6
CONTINUOUS
10
107
20
-55
11
93
21
-55
0
LINE
8
0
6
CONTINUOUS
10
93
20
-55
11
93
21
-69
0
LINE
8
0
6
CONTINUOUS
10
112
20
-107
11
126
21
-107
0
LINE
8
0
6
CONTINUOUS
10
126
20
-107
11
126
21
-93
0
LINE
8
0
6
CONTINUOUS
10
126
20
-93
11
112
21
-93
0
LINE
8
0
6
CONTINUOUS
10
112
20
-93
11
112
21
-107
0
LINE
8
0
6
CONTINUOUS
10
112
20
-88
11
126
21
-88
0
LINE
8
0
6
CONTINUOUS
10
126
20
-88
11
126
21
-74
0
LINE
8
0
6
CONTINUOUS
10
126
20
-74
11
112
21
-74
0
LINE
8
0
6
CONTINUOUS
10
112
20
-74
11
112
21
-88
0
LINE
8
0
6
CONTINUOUS
10
112
20
-69
11
126
21
-69
0
LINE
8
0
6
CONTINUOUS
10
126
20
-69
11
126
21
-55
0
LINE
8
0
6
CONTINUOUS
10
126
20
-55
11
112
21
-55
0
LINE
8
0
6
CONTINUOUS
10
112
20
-55
11
112
21
-69
0
LINE
8
0
6
CONTINUOUS
10
131
20
-97.5
11
145
21
-97.5
0
LINE
8
0
6
CONTINUOUS
10
145
20
-97.5
11
145
21
-83.5
0
LINE
8
0
6
CONTINUOUS
10
145
20
-83.5
11
131
21
-83.5
0
LINE
8
0
6
CONTINUOUS
10
131
20
-83.5
11
131
21
-97.5
0
LINE
8
0
6
CONTINUOUS
10
131
20
-78.5
11
145
21
-78.5
0
LINE
8
0
6
CONTINUOUS
10
145
20
-78.5
11
145
21
-64.5
0
LINE
8
0
6
CONTINUOUS
10
145
20
-64.5
11
131
21
-64.5
0
LINE
8
0
6
CONTINUOUS
10
131
20
-64.5
11
131
21
-78.5
0
LINE
8
0
6
CONTINUOUS
10
131
20
-59.5
11
145
21
-59.5
0
LINE
8
0
6
CONTINUOUS
10
145
20
-59.5
11
145
21
-45.5
0
LINE
8
0
6
CONTINUOUS
10
145
20
-45.5
11
131
21
-45.5
0
LINE
8
0
6
CONTINUOUS
10
131
20
-45.5
11
131
21
-59.5
0
LINE
8
0
6
CONTINUOUS
10
150
20
-92.75
11
164
21
-92.75
0
LINE
8
0
6
CONTINUOUS
10
164
20
-92.75
11
164
21
-78.75
0
LINE
8
0
6
CONTINUOUS
10
164
20
-78.75
11
150
21
-78.75
0
LINE
8
0
6
CONTINUOUS
10
150
20
-78.75
11
150
21
-92.75
0
LINE
8
0
6
CONTINUOUS
10
150
20
-73.75
11
164
21
-73.75
0
LINE
8
0
6
CONTINUOUS
10
164
20
-73.75
11
164
21
-59.75
0
LINE
8
0
6
CONTINUOUS
10
164
20
-59.75
11
150
21
-59.75
0
LINE
8
0
6
CONTINUOUS
10
150
20
-59.75
11
150
21
-73.75
0
LINE
8
0
6
CONTINUOUS
10
150
20
-54.75
11
164
21
-54.75
0
LINE
8
0
6
CONTINUOUS
10
164
20
-54.75
11
164
21
-40.75
0
LINE
8
0
6
CONTINUOUS
10
164
20
-40.75
11
150
21
-40.75
0
LINE
8
0
6
CONTINUOUS
10
150
20
-40.75
11
150
21
-54.75
0
LINE
8
0
6
CONTINUOUS
10
169
20
-95.9166667
11
183
21
-95.9166667
0
LINE
8
0
6
CONTINUOUS
10
183
20
-95.9166667
11
183
21
-81.9166667
0
LINE
8
0
6
CONTINUOUS
10
183
20
-81.9166667
11
169
21
-81.9166667
0
LINE
8
0
6
CONTINUOUS
10
169
20
-81.9166667
11
169
21
-95.9166667
0
LINE
8
0
6
CONTINUOUS
10
169
20
-76.9166667
11
183
21
-76.9166667
0
LINE
8
0
6
CONTINUOUS
10
183
20
-76.9166667
11
183
21
-62.9166667
0
LINE
8
0
6
CONTINUOUS
10
183
20
-62.9166667
11
169
21
-62.9166667
0
LINE
8
0
6
CONTINUOUS
10
169
20
-62.9166667
11
169
21
-76.9166667
0
LINE
8
0
6
CONTINUOUS
10
169
20
-57.9166667
11
183
21
-57.9166667
0
LINE
8
0
6
CONTINUOUS
10
183
20
-57.9166667
11
183
21
-43.9166667
0
LINE
8
0
6
CONTINUOUS
10
183
20
-43.9166667
11
169
21
-43.9166667
0
LINE
8
0
6
CONTINUOUS
10
169
20
-43.9166667
11
169
21
-57.9166667
0
LINE
8
0
6
CONTINUOUS
10
188
20
-98.2916667
11
202
21
-98.2916667
0
LINE
8
0
6
CONTINUOUS
10
202
20
-98.2916667
11
202
21
-84.2916667
0
LINE
8
0
6
CONTINUOUS
10
202
20
-84.2916667
11
188
21
-84.2916667
0
LINE
8
0
6
CONTINUOUS
10
188
20
-84.2916667
11
188
21
-98.2916667
0
LINE
8
0
6
CONTINUOUS
10
188
20
-79.2916667
11
202
21
-79.2916667
0
LINE
8
0
6
CONTINUOUS
10
202
20
-79.2916667
11
202
21
-65.2916667
0
LINE
8
0
6
CONTINUOUS
10
202
20
-65.2916667
11
188
21
-65.2916667
0
LINE
8
0
6
CONTINUOUS
10
188
20
-65.2916667
11
188
21
-79.2916667
0
LINE
8
0
6
CONTINUOUS
10
188
20
-60.2916667
11
202
21
-60.2916667
0
LINE
8
0
6
CONTINUOUS
10
202
20
-60.2916667
11
202
21
-46.2916667
0
LINE
8
0
6
CONTINUOUS
10
202
20
-46.2916667
11
188
21
-46.2916667
0
LINE
8
0
6
CONTINUOUS
10
188
20
-46.2916667
11
188
21
-60.2916667
0
LINE
8
0
6
CONTINUOUS
10
150
20
-117.75
11
164
21
-117.75
0
LINE
8
0
6
CONTINUOUS
10
164
20
-117.75
11
164
21
-103.75
0
LINE
8
0
6
CONTINUOUS
10
164
20
-103.75
11
150
21
-103.75
0
LINE
8
0
6
CONTINUOUS
10
150
20
-103.75
11
150
21
-117.75
0
LINE
8
0
6
CONTINUOUS
10
169.0267859
20
-118.1997475
11
182.5497475
21
-121.8232141
0
LINE
8
0
6
CONTINUOUS
10
182.5497475
20
-121.8232141
11
186.1732141
21
-108.3002525
0
LINE
8
0
6
CONTINUOUS
10
186.1732141
20
-108.3002525
11
172.6502525
21
-104.6767859
0
LINE
8
0
6
CONTINUOUS
10
172.6502525
20
-104.6767859
11
169.0267859
21
-118.1997475
0
LINE
8
0
6
CONTINUOUS
10
187.2888466
20
-123.5586647
11
199.4132022
21
-130.5586647
0
LINE
8
0
6
CONTINUOUS
10
199.4132022
20
-130.5586647
11
206.4132022
21
-118.4343091
0
LINE
8
0
6
CONTINUOUS
10
206.4132022
20
-118.4343091
11
194.2888466
21
-111.4343091
0
LINE
8
0
6
CONTINUOUS
10
194.2888466
20
-111.4343091
11
187.2888466
21
-123.5586647
0
LINE
8
0
6
CONTINUOUS
10
203.5416528
20
-133.4615504
11
213.4411477
21
-143.3610453
0
LINE
8
0
6
CONTINUOUS
10
213.4411477
20
-143.3610453
11
223.3406426
21
-133.4615504
0
LINE
8
0
6
CONTINUOUS
10
223.3406426
20
-133.4615504
11
213.4411477
21
-123.5620555
0
LINE
8
0
6
CONTINUOUS
10
213.4411477
20
-123.5620555
11
203.5416528
21
-133.4615504
0
ENDSEC
0
EOF