<svg width="131.602mm" height="102.634mm" viewBox="0 0 131.602 102.634" xmlns="http://www.w3.org/2000/svg"><g id="svgGroup" stroke-linecap="round" fill-rule="evenodd" font-size="9pt" stroke="#000" stroke-width="0.25mm" fill="none" style="stroke:#000;stroke-width:0.25mm;fill:none"><path d="M 80.306 80.032 L 89.228 82.423 L 95.76 75.891 L 93.37 66.968 L 84.447 64.577 L 77.915 71.109 L 80.306 80.032 Z M 113.756 96.102 L 120.288 102.634 L 129.211 100.244 L 131.602 91.321 L 125.07 84.789 L 116.147 87.18 L 113.756 96.102 Z M 4.619 68.25 L 13.856 68.25 L 18.475 60.25 L 13.856 52.25 L 4.619 52.25 L 0 60.25 L 4.619 68.25 Z M 4.619 49.25 L 13.856 49.25 L 18.475 41.25 L 13.856 33.25 L 4.619 33.25 L 0 41.25 L 4.619 49.25 Z M 4.619 30.25 L 13.856 30.25 L 18.475 22.25 L 13.856 14.25 L 4.619 14.25 L 0 22.25 L 4.619 30.25 Z M 42.619 58.75 L 51.856 58.75 L 56.475 50.75 L 51.856 42.75 L 42.619 42.75 L 38 50.75 L 42.619 58.75 Z M 42.619 39.75 L 51.856 39.75 L 56.475 31.75 L 51.856 23.75 L 42.619 23.75 L 38 31.75 L 42.619 39.75 Z M 42.619 20.75 L 51.856 20.75 L 56.475 12.75 L 51.856 4.75 L 42.619 4.75 L 38 12.75 L 42.619 20.75 Z M 61.619 54 L 70.856 54 L 75.475 46 L 70.856 38 L 61.619 38 L 57 46 L 61.619 54 Z M 61.619 35 L 70.856 35 L 75.475 27 L 70.856 19 L 61.619 19 L 57 27 L 61.619 35 Z M 61.619 16 L 70.856 16 L 75.475 8 L 70.856 0 L 61.619 0 L 57 8 L 61.619 16 Z M 80.619 57.167 L 89.856 57.167 L 94.475 49.167 L 89.856 41.167 L 80.619 41.167 L 76 49.167 L 80.619 57.167 Z M 80.619 38.167 L 89.856 38.167 L 94.475 30.167 L 89.856 22.167 L 80.619 22.167 L 76 30.167 L 80.619 38.167 Z M 80.619 19.167 L 89.856 19.167 L 94.475 11.167 L 89.856 3.167 L 80.619 3.167 L 76 11.167 L 80.619 19.167 Z M 99.619 59.542 L 108.856 59.542 L 113.475 51.542 L 108.856 43.542 L 99.619 43.542 L 95 51.542 L 99.619 59.542 Z M 99.619 40.542 L 108.856 40.542 L 113.475 32.542 L 108.856 24.542 L 99.619 24.542 L 95 32.542 L 99.619 40.542 Z M 99.619 21.542 L 108.856 21.542 L 113.475 13.542 L 108.856 5.542 L 99.619 5.542 L 95 13.542 L 99.619 21.542 Z M 61.619 79 L 70.856 79 L 75.475 71 L 70.856 63 L 61.619 63 L 57 71 L 61.619 79 Z M 23.619 68.25 L 32.856 68.25 L 37.475 60.25 L 32.856 52.25 L 23.619 52.25 L 19 60.25 L 23.619 68.25 Z M 23.619 49.25 L 32.856 49.25 L 37.475 41.25 L 32.856 33.25 L 23.619 33.25 L 19 41.25 L 23.619 49.25 Z M 23.619 30.25 L 32.856 30.25 L 37.475 22.25 L 32.856 14.25 L 23.619 14.25 L 19 22.25 L 23.619 30.25 Z M 98.089 85.865 L 106.089 90.484 L 114.089 85.865 L 114.089 76.628 L 106.089 72.009 L 98.089 76.628 L 98.089 85.865 Z" vector-effect="non-scaling-stroke"/></g></svg>