0
SECTION
2
HEADER
9
$INSUNITS
70
4
0
ENDSEC
0
SECTION
2
TABLES
0
TABLE
2
LTYPE
0
LTYPE
72
65
70
0
2
CONTINUOUS
3
______
73
0
40
0
0
LTYPE
72
65
70
0
2
DASHED
3
_ _ _ 
73
2
40
7.5
49
5
49
-2.5
0
LTYPE
72
65
70
0
2
DOTTED
3
. . . 
73
2
40
1.5
49
0.5
49
-1
0
ENDTAB
0
TABLE
2
LAYER
0
ENDTAB
0
ENDSEC
0
SECTION
2
ENTITIES
0
LINE
8
0
6
CONTINUOUS
10
95.3812
20
-108
11
104.6188
21
-108
0
LINE
8
0
6
CONTINUOUS
10
104.6188
20
-92
11
95.3812
21
-92
0
LINE
8
0
6
CONTINUOUS
10
95.3812
20
-89
11
104.6188
21
-89
0
LINE
8
0
6
CONTINUOUS
10
104.6188
20
-73
11
95.3812
21
-73
0
LINE
8
0
6
CONTINUOUS
10
95.3812
20
-70
11
104.6188
21
-70
0
LINE
8
0
6
CONTINUOUS
10
104.6188
20
-54
11
95.3812
21
-54
0
LINE
8
0
6
CONTINUOUS
10
114.3812
20
-108
11
123.6188
21
-108
0
LINE
8
0
6
CONTINUOUS
10
123.6188
20
-92
11
114.3812
21
-92
0
LINE
8
0
6
CONTINUOUS
10
114.3812
20
-89
11
123.6188
21
-89
0
LINE
8
0
6
CONTINUOUS
10
123.6188
20
-73
11
114.3812
21
-73
0
LINE
8
0
6
CONTINUOUS
10
114.3812
20
-70
11
123.6188
21
-70
0
LINE
8
0
6
CONTINUOUS
10
123.6188
20
-54
11
114.3812
21
-54
0
LINE
8
0
6
CONTINUOUS
10
133.3812
20
-98.5
11
142.6188
21
-98.5
0
LINE
8
0
6
CONTINUOUS
10
142.6188
20
-82.5
11
133.3812
21
-82.5
0
LINE
8
0
6
CONTINUOUS
10
133.3812
20
-79.5
11
142.6188
21
-79.5
0
LINE
8
0
6
CONTINUOUS
10
142.6188
20
-63.5
11
133.3812
21
-63.5
0
LINE
8
0
6
CONTINUOUS
10
133.3812
20
-60.5
11
142.6188
21
-60.5
0
LINE
8
0
6
CONTINUOUS
10
142.6188
20
-44.5
11
133.3812
21
-44.5
0
LINE
8
0
6
CONTINUOUS
10
152.3812
20
-93.75
11
161.6188
21
-93.75
0
LINE
8
0
6
CONTINUOUS
10
161.6188
20
-77.75
11
152.3812
21
-77.75
0
LINE
8
0
6
CONTINUOUS
10
152.3812
20
-74.75
11
161.6188
21
-74.75
0
LINE
8
0
6
CONTINUOUS
10
161.6188
20
-58.75
11
152.3812
21
-58.75
0
LINE
8
0
6
CONTINUOUS
10
152.3812
20
-55.75
11
161.6188
21
-55.75
0
LINE
8
0
6
CONTINUOUS
10
161.6188
20
-39.75
11
152.3812
21
-39.75
0
LINE
8
0
6
CONTINUOUS
10
171.3812
20
-96.9166667
11
180.6188
21
-96.9166667
0
LINE
8
0
6
CONTINUOUS
10
180.6188
20
-80.9166667
11
171.3812
21
-80.9166667
0
LINE
8
0
6
CONTINUOUS
10
171.3812
20
-77.9166667
11
180.6188
21
-77.9166667
0
LINE
8
0
6
CONTINUOUS
10
180.6188
20
-61.9166667
11
171.3812
21
-61.9166667
0
LINE
8
0
6
CONTINUOUS
10
171.3812
20
-58.9166667
11
180.6188
21
-58.9166667
0
LINE
8
0
6
CONTINUOUS
10
180.6188
20
-42.9166667
11
171.3812
21
-42.9166667
0
LINE
8
0
6
CONTINUOUS
10
190.3812
20
-99.2916667
11
199.6188
21
-99.2916667
0
LINE
8
0
6
CONTINUOUS
10
199.6188
20
-83.2916667
11
190.3812
21
-83.2916667
0
LINE
8
0
6
CONTINUOUS
10
190.3812
20
-80.2916667
11
199.6188
21
-80.2916667
0
LINE
8
0
6
CONTINUOUS
10
199.6188
20
-64.2916667
11
190.3812
21
-64.2916667
0
LINE
8
0
6
CONTINUOUS
10
190.3812
20
-61.2916667
11
199.6188
21
-61.2916667
0
LINE
8
0
6
CONTINUOUS
10
199.6188
20
-45.2916667
11
190.3812
21
-45.2916667
0
LINE
8
0
6
CONTINUOUS
10
152.3812
20
-118.75
11
161.6188
21
-118.75
0
LINE
8
0
6
CONTINUOUS
10
161.6188
20
-102.75
11
152.3812
21
-102.75
0
LINE
8
0
6
CONTINUOUS
10
171.0680294
20
-119.7819732
11
179.9908658
21
-122.17284
0
LINE
8
0
6
CONTINUOUS
10
184.1319706
20
-106.7180268
11
175.2091342
21
-104.32716
0
LINE
8
0
6
CONTINUOUS
10
188.8510263
20
-125.6152901
11
196.8510225
21
-130.2340901
0
LINE
8
0
6
CONTINUOUS
10
204.8510225
20
-116.3776837
11
196.8510263
21
-111.7588837
0
LINE
8
0
6
CONTINUOUS
10
204.5183086
20
-135.8524198
11
211.0502783
21
-142.3843895
0
LINE
8
0
6
CONTINUOUS
10
222.3639868
20
-131.070681
11
215.8320171
21
-124.5387113
0
LINE
8
0
6
CONTINUOUS
10
104.6188032
20
-107.9999981
11
109.2376032
21
-100.0000019
0
LINE
8
0
6
CONTINUOUS
10
95.3811968
20
-92.0000019
11
90.7623968
21
-99.9999981
0
LINE
8
0
6
CONTINUOUS
10
104.6188032
20
-88.9999981
11
109.2376032
21
-81.0000019
0
LINE
8
0
6
CONTINUOUS
10
95.3811968
20
-73.0000019
11
90.7623968
21
-80.9999981
0
LINE
8
0
6
CONTINUOUS
10
104.6188032
20
-69.9999981
11
109.2376032
21
-62.0000019
0
LINE
8
0
6
CONTINUOUS
10
95.3811968
20
-54.0000019
11
90.7623968
21
-61.9999981
0
LINE
8
0
6
CONTINUOUS
10
123.6188032
20
-107.9999981
11
128.2376032
21
-100.0000019
0
LINE
8
0
6
CONTINUOUS
10
114.3811968
20
-92.0000019
11
109.7623968
21
-99.9999981
0
LINE
8
0
6
CONTINUOUS
10
123.6188032
20
-88.9999981
11
128.2376032
21
-81.0000019
0
LINE
8
0
6
CONTINUOUS
10
114.3811968
20
-73.0000019
11
109.7623968
21
-80.9999981
0
LINE
8
0
6
CONTINUOUS
10
123.6188032
20
-69.9999981
11
128.2376032
21
-62.0000019
0
LINE
8
0
6
CONTINUOUS
10
114.3811968
20
-54.0000019
11
109.7623968
21
-61.9999981
0
LINE
8
0
6
CONTINUOUS
10
142.6188032
20
-98.4999981
11
147.2376032
21
-90.5000019
0
LINE
8
0
6
CONTINUOUS
10
133.3811968
20
-82.5000019
11
128.7623968
21
-90.4999981
0
LINE
8
0
6
CONTINUOUS
10
142.6188032
20
-79.4999981
11
147.2376032
21
-71.5000019
0
LINE
8
0
6
CONTINUOUS
10
133.3811968
20
-63.5000019
11
128.7623968
21
-71.4999981
0
LINE
8
0
6
CONTINUOUS
10
142.6188032
20
-60.4999981
11
147.2376032
21
-52.5000019
0
LINE
8
0
6
CONTINUOUS
10
133.3811968
20
-44.5000019
11
128.7623968
21
-52.4999981
0
LINE
8
0
6
CONTINUOUS
10
161.6188032
20
-93.7499981
11
166.2376032
21
-85.7500019
0
LINE
8
0
6
CONTINUOUS
10
152.3811968
20
-77.7500019
11
147.7623968
21
-85.7499981
0
LINE
8
0
6
CONTINUOUS
10
161.6188032
20
-74.7499981
11
166.2376032
21
-66.7500019
0
LINE
8
0
6
CONTINUOUS
10
152.3811968
20
-58.7500019
11
147.7623968
21
-66.7499981
0
LINE
8
0
6
CONTINUOUS
10
161.6188032
20
-55.7499981
11
166.2376032
21
-47.7500019
0
LINE
8
0
6
CONTINUOUS
10
152.3811968
20
-39.7500019
11
147.7623968
21
-47.7499981
0
LINE
8
0
6
CONTINUOUS
10
180.6188032
20
-96.9166648
11
185.2376032
21
-88.9166686
0
LINE
8
0
6
CONTINUOUS
10
171.3811968
20
-80.9166686
11
166.7623968
21
-88.9166648
0
LINE
8
0
6
CONTINUOUS
10
180.6188032
20
-77.9166648
11
185.2376032
21
-69.9166686
0
LINE
8
0
6
CONTINUOUS
10
171.3811968
20
-61.9166686
11
166.7623968
21
-69.9166648
0
LINE
8
0
6
CONTINUOUS
10
180.6188032
20
-58.9166648
11
185.2376032
21
-50.9166686
0
LINE
8
0
6
CONTINUOUS
10
171.3811968
20
-42.9166686
11
166.7623968
21
-50.9166648
0
LINE
8
0
6
CONTINUOUS
10
199.6188032
20
-99.2916648
11
204.2376032
21
-91.2916686
0
LINE
8
0
6
CONTINUOUS
10
190.3811968
20
-83.2916686
11
185.7623968
21
-91.2916648
0
LINE
8
0
6
CONTINUOUS
10
199.6188032
20
-80.2916648
11
204.2376032
21
-72.2916686
0
LINE
8
0
6
CONTINUOUS
10
190.3811968
20
-64.2916686
11
185.7623968
21
-72.2916648
0
LINE
8
0
6
CONTINUOUS
10
199.6188032
20
-61.2916648
11
204.2376032
21
-53.2916686
0
LINE
8
0
6
CONTINUOUS
10
190.3811968
20
-45.2916686
11
185.7623968
21
-53.2916648
0
LINE
8
0
6
CONTINUOUS
10
161.6188032
20
-118.7499981
11
166.2376032
21
-110.7500019
0
LINE
8
0
6
CONTINUOUS
10
152.3811968
20
-102.7500019
11
147.7623968
21
-110.7499981
0
LINE
8
0
6
CONTINUOUS
10
179.9908694
20
-122.1728391
11
186.5228391
21
-115.6408694
0
LINE
8
0
6
CONTINUOUS
10
175.2091306
20
-104.3271609
11
168.6771609
21
-110.8591306
0
LINE
8
0
6
CONTINUOUS
10
196.8510263
20
-130.2340901
11
204.8510225
21
-125.6152901
0
LINE
8
0
6
CONTINUOUS
10
196.8510225
20
-111.7588837
11
188.8510263
21
-116.3776837
0
LINE
8
0
6
CONTINUOUS
10
211.0502819
20
-142.3843904
11
219.9731183
21
-139.9935236
0
LINE
8
0
6
CONTINUOUS
10
215.8320135
20
-124.5387104
11
206.9091771
21
-126.9295772
0
LINE
8
0
6
CONTINUOUS
10
90.7623968
20
-100.0000019
11
95.3811968
21
-107.9999981
0
LINE
8
0
6
CONTINUOUS
10
109.2376032
20
-99.9999981
11
104.6188032
21
-92.0000019
0
LINE
8
0
6
CONTINUOUS
10
90.7623968
20
-81.0000019
11
95.3811968
21
-88.9999981
0
LINE
8
0
6
CONTINUOUS
10
109.2376032
20
-80.9999981
11
104.6188032
21
-73.0000019
0
LINE
8
0
6
CONTINUOUS
10
90.7623968
20
-62.0000019
11
95.3811968
21
-69.9999981
0
LINE
8
0
6
CONTINUOUS
10
109.2376032
20
-61.9999981
11
104.6188032
21
-54.0000019
0
LINE
8
0
6
CONTINUOUS
10
109.7623968
20
-100.0000019
11
114.3811968
21
-107.9999981
0
LINE
8
0
6
CONTINUOUS
10
128.2376032
20
-99.9999981
11
123.6188032
21
-92.0000019
0
LINE
8
0
6
CONTINUOUS
10
109.7623968
20
-81.0000019
11
114.3811968
21
-88.9999981
0
LINE
8
0
6
CONTINUOUS
10
128.2376032
20
-80.9999981
11
123.6188032
21
-73.0000019
0
LINE
8
0
6
CONTINUOUS
10
109.7623968
20
-62.0000019
11
114.3811968
21
-69.9999981
0
LINE
8
0
6
CONTINUOUS
10
128.2376032
20
-61.9999981
11
123.6188032
21
-54.0000019
0
LINE
8
0
6
CONTINUOUS
10
128.7623968
20
-90.5000019
11
133.3811968
21
-98.4999981
0
LINE
8
0
6
CONTINUOUS
10
147.2376032
20
-90.4999981
11
142.6188032
21
-82.5000019
0
LINE
8
0
6
CONTINUOUS
10
128.7623968
20
-71.5000019
11
133.3811968
21
-79.4999981
0
LINE
8
0
6
CONTINUOUS
10
147.2376032
20
-71.4999981
11
142.6188032
21
-63.5000019
0
LINE
8
0
6
CONTINUOUS
10
128.7623968
20
-52.5000019
11
133.3811968
21
-60.4999981
0
LINE
8
0
6
CONTINUOUS
10
147.2376032
20
-52.4999981
11
142.6188032
21
-44.5000019
0
LINE
8
0
6
CONTINUOUS
10
147.7623968
20
-85.7500019
11
152.3811968
21
-93.7499981
0
LINE
8
0
6
CONTINUOUS
10
166.2376032
20
-85.7499981
11
161.6188032
21
-77.7500019
0
LINE
8
0
6
CONTINUOUS
10
147.7623968
20
-66.7500019
11
152.3811968
21
-74.7499981
0
LINE
8
0
6
CONTINUOUS
10
166.2376032
20
-66.7499981
11
161.6188032
21
-58.7500019
0
LINE
8
0
6
CONTINUOUS
10
147.7623968
20
-47.7500019
11
152.3811968
21
-55.7499981
0
LINE
8
0
6
CONTINUOUS
10
166.2376032
20
-47.7499981
11
161.6188032
21
-39.7500019
0
LINE
8
0
6
CONTINUOUS
10
166.7623968
20
-88.9166686
11
171.3811968
21
-96.9166648
0
LINE
8
0
6
CONTINUOUS
10
185.2376032
20
-88.9166648
11
180.6188032
21
-80.9166686
0
LINE
8
0
6
CONTINUOUS
10
166.7623968
20
-69.9166686
11
171.3811968
21
-77.9166648
0
LINE
8
0
6
CONTINUOUS
10
185.2376032
20
-69.9166648
11
180.6188032
21
-61.9166686
0
LINE
8
0
6
CONTINUOUS
10
166.7623968
20
-50.9166686
11
171.3811968
21
-58.9166648
0
LINE
8
0
6
CONTINUOUS
10
185.2376032
20
-50.9166648
11
180.6188032
21
-42.9166686
0
LINE
8
0
6
CONTINUOUS
10
185.7623968
20
-91.2916686
11
190.3811968
21
-99.2916648
0
LINE
8
0
6
CONTINUOUS
10
204.2376032
20
-91.2916648
11
199.6188032
21
-83.2916686
0
LINE
8
0
6
CONTINUOUS
10
185.7623968
20
-72.2916686
11
190.3811968
21
-80.2916648
0
LINE
8
0
6
CONTINUOUS
10
204.2376032
20
-72.2916648
11
199.6188032
21
-64.2916686
0
LINE
8
0
6
CONTINUOUS
10
185.7623968
20
-53.2916686
11
190.3811968
21
-61.2916648
0
LINE
8
0
6
CONTINUOUS
10
204.2376032
20
-53.2916648
11
199.6188032
21
-45.2916686
0
LINE
8
0
6
CONTINUOUS
10
147.7623968
20
-110.7500019
11
152.3811968
21
-118.7499981
0
LINE
8
0
6
CONTINUOUS
10
166.2376032
20
-110.7499981
11
161.6188032
21
-102.7500019
0
LINE
8
0
6
CONTINUOUS
10
168.67716
20
-110.8591342
11
171.0680268
21
-119.7819706
0
LINE
8
0
6
CONTINUOUS
10
186.52284
20
-115.6408658
11
184.1319732
21
-106.7180294
0
LINE
8
0
6
CONTINUOUS
10
188.8510244
20
-116.3776869
11
188.8510244
21
-125.6152869
0
LINE
8
0
6
CONTINUOUS
10
204.8510244
20
-125.6152869
11
204.8510244
21
-116.3776869
0
LINE
8
0
6
CONTINUOUS
10
206.9091745
20
-126.9295798
11
204.5183077
21
-135.8524162
0
LINE
8
0
6
CONTINUOUS
10
219.9731209
20
-139.993521
11
222.3639877
21
-131.0706846
0
ENDSEC
0
EOF