<svg width="134.341mm" height="106.611mm" viewBox="0 0 134.341 106.611" xmlns="http://www.w3.org/2000/svg"><g id="svgGroup" stroke-linecap="round" fill-rule="evenodd" font-size="9pt" stroke="#000" stroke-width="0.25mm" fill="none" style="stroke:#000;stroke-width:0.25mm;fill:none"><path d="M 2 70.25 L 16 70.25 A 2 2 0 0 0 18 68.25 L 18 54.25 A 2 2 0 0 0 16 52.25 L 2 52.25 A 2 2 0 0 0 0 54.25 L 0 68.25 A 2 2 0 0 0 2 70.25 Z M 2 51.25 L 16 51.25 A 2 2 0 0 0 18 49.25 L 18 35.25 A 2 2 0 0 0 16 33.25 L 2 33.25 A 2 2 0 0 0 0 35.25 L 0 49.25 A 2 2 0 0 0 2 51.25 Z M 2 32.25 L 16 32.25 A 2 2 0 0 0 18 30.25 L 18 16.25 A 2 2 0 0 0 16 14.25 L 2 14.25 A 2 2 0 0 0 0 16.25 L 0 30.25 A 2 2 0 0 0 2 32.25 Z M 21 70.25 L 35 70.25 A 2 2 0 0 0 37 68.25 L 37 54.25 A 2 2 0 0 0 35 52.25 L 21 52.25 A 2 2 0 0 0 19 54.25 L 19 68.25 A 2 2 0 0 0 21 70.25 Z M 21 51.25 L 35 51.25 A 2 2 0 0 0 37 49.25 L 37 35.25 A 2 2 0 0 0 35 33.25 L 21 33.25 A 2 2 0 0 0 19 35.25 L 19 49.25 A 2 2 0 0 0 21 51.25 Z M 21 32.25 L 35 32.25 A 2 2 0 0 0 37 30.25 L 37 16.25 A 2 2 0 0 0 35 14.25 L 21 14.25 A 2 2 0 0 0 19 16.25 L 19 30.25 A 2 2 0 0 0 21 32.25 Z M 40 60.75 L 54 60.75 A 2 2 0 0 0 56 58.75 L 56 44.75 A 2 2 0 0 0 54 42.75 L 40 42.75 A 2 2 0 0 0 38 44.75 L 38 58.75 A 2 2 0 0 0 40 60.75 Z M 40 41.75 L 54 41.75 A 2 2 0 0 0 56 39.75 L 56 25.75 A 2 2 0 0 0 54 23.75 L 40 23.75 A 2 2 0 0 0 38 25.75 L 38 39.75 A 2 2 0 0 0 40 41.75 Z M 40 22.75 L 54 22.75 A 2 2 0 0 0 56 20.75 L 56 6.75 A 2 2 0 0 0 54 4.75 L 40 4.75 A 2 2 0 0 0 38 6.75 L 38 20.75 A 2 2 0 0 0 40 22.75 Z M 59 56 L 73 56 A 2 2 0 0 0 75 54 L 75 40 A 2 2 0 0 0 73 38 L 59 38 A 2 2 0 0 0 57 40 L 57 54 A 2 2 0 0 0 59 56 Z M 59 37 L 73 37 A 2 2 0 0 0 75 35 L 75 21 A 2 2 0 0 0 73 19 L 59 19 A 2 2 0 0 0 57 21 L 57 35 A 2 2 0 0 0 59 37 Z M 59 18 L 73 18 A 2 2 0 0 0 75 16 L 75 2 A 2 2 0 0 0 73 0 L 59 0 A 2 2 0 0 0 57 2 L 57 16 A 2 2 0 0 0 59 18 Z M 78 59.167 L 92 59.167 A 2 2 0 0 0 94 57.167 L 94 43.167 A 2 2 0 0 0 92 41.167 L 78 41.167 A 2 2 0 0 0 76 43.167 L 76 57.167 A 2 2 0 0 0 78 59.167 Z M 78 40.167 L 92 40.167 A 2 2 0 0 0 94 38.167 L 94 24.167 A 2 2 0 0 0 92 22.167 L 78 22.167 A 2 2 0 0 0 76 24.167 L 76 38.167 A 2 2 0 0 0 78 40.167 Z M 78 21.167 L 92 21.167 A 2 2 0 0 0 94 19.167 L 94 5.167 A 2 2 0 0 0 92 3.167 L 78 3.167 A 2 2 0 0 0 76 5.167 L 76 19.167 A 2 2 0 0 0 78 21.167 Z M 97 61.542 L 111 61.542 A 2 2 0 0 0 113 59.542 L 113 45.542 A 2 2 0 0 0 111 43.542 L 97 43.542 A 2 2 0 0 0 95 45.542 L 95 59.542 A 2 2 0 0 0 97 61.542 Z M 97 42.542 L 111 42.542 A 2 2 0 0 0 113 40.542 L 113 26.542 A 2 2 0 0 0 111 24.542 L 97 24.542 A 2 2 0 0 0 95 26.542 L 95 40.542 A 2 2 0 0 0 97 42.542 Z M 97 23.542 L 111 23.542 A 2 2 0 0 0 113 21.542 L 113 7.542 A 2 2 0 0 0 111 5.542 L 97 5.542 A 2 2 0 0 0 95 7.542 L 95 21.542 A 2 2 0 0 0 97 23.542 Z M 59 81 L 73 81 A 2 2 0 0 0 75 79 L 75 65 A 2 2 0 0 0 73 63 L 59 63 A 2 2 0 0 0 57 65 L 57 79 A 2 2 0 0 0 59 81 Z M 95.289 86.541 L 107.413 93.541 A 2 2 0 0 0 110.145 92.809 L 117.145 80.684 A 2 2 0 0 0 116.413 77.952 L 104.289 70.952 A 2 2 0 0 0 101.557 71.684 L 94.557 83.809 A 2 2 0 0 0 95.289 86.541 Z M 111.127 96.126 L 121.027 106.025 A 2 2 0 0 0 123.855 106.025 L 133.755 96.126 A 2 2 0 0 0 133.755 93.297 L 123.855 83.398 A 2 2 0 0 0 121.027 83.398 L 111.127 93.297 A 2 2 0 0 0 111.127 96.126 Z M 77.509 81.382 L 91.032 85.005 A 2 2 0 0 0 93.482 83.591 L 97.105 70.068 A 2 2 0 0 0 95.691 67.618 L 82.168 63.995 A 2 2 0 0 0 79.718 65.409 L 76.095 78.932 A 2 2 0 0 0 77.509 81.382 Z" vector-effect="non-scaling-stroke"/></g></svg>