0
SECTION
2
HEADER
9
$INSUNITS
70
4
0
ENDSEC
0
SECTION
2
TABLES
0
TABLE
2
LTYPE
0
LTYPE
72
65
70
0
2
CONTINUOUS
3
______
73
0
40
0
0
LTYPE
72
65
70
0
2
DASHED
3
_ _ _ 
73
2
40
7.5
49
5
49
-2.5
0
LTYPE
72
65
70
0
2
DOTTED
3
. . . 
73
2
40
1.5
49
0.5
49
-1
0
ENDTAB
0
TABLE
2
LAYER
0
ENDTAB
0
ENDSEC
0
SECTION
2
ENTITIES
0
LINE
8
0
6
CONTINUOUS
10
93
20
-109
11
107
21
-109
0
LINE
8
0
6
CONTINUOUS
10
109
20
-107
11
109
21
-93
0
LINE
8
0
6
CONTINUOUS
10
107
20
-91
11
93
21
-91
0
LINE
8
0
6
CONTINUOUS
10
91
20
-93
11
91
21
-107
0
LINE
8
0
6
CONTINUOUS
10
93
20
-90
11
107
21
-90
0
LINE
8
0
6
CONTINUOUS
10
109
20
-88
11
109
21
-74
0
LINE
8
0
6
CONTINUOUS
10
107
20
-72
11
93
21
-72
0
LINE
8
0
6
CONTINUOUS
10
91
20
-74
11
91
21
-88
0
LINE
8
0
6
CONTINUOUS
10
93
20
-71
11
107
21
-71
0
LINE
8
0
6
CONTINUOUS
10
109
20
-69
11
109
21
-55
0
LINE
8
0
6
CONTINUOUS
10
107
20
-53
11
93
21
-53
0
LINE
8
0
6
CONTINUOUS
10
91
20
-55
11
91
21
-69
0
LINE
8
0
6
CONTINUOUS
10
112
20
-109
11
126
21
-109
0
LINE
8
0
6
CONTINUOUS
10
128
20
-107
11
128
21
-93
0
LINE
8
0
6
CONTINUOUS
10
126
20
-91
11
112
21
-91
0
LINE
8
0
6
CONTINUOUS
10
110
20
-93
11
110
21
-107
0
LINE
8
0
6
CONTINUOUS
10
112
20
-90
11
126
21
-90
0
LINE
8
0
6
CONTINUOUS
10
128
20
-88
11
128
21
-74
0
LINE
8
0
6
CONTINUOUS
10
126
20
-72
11
112
21
-72
0
LINE
8
0
6
CONTINUOUS
10
110
20
-74
11
110
21
-88
0
LINE
8
0
6
CONTINUOUS
10
112
20
-71
11
126
21
-71
0
LINE
8
0
6
CONTINUOUS
10
128
20
-69
11
128
21
-55
0
LINE
8
0
6
CONTINUOUS
10
126
20
-53
11
112
21
-53
0
LINE
8
0
6
CONTINUOUS
10
110
20
-55
11
110
21
-69
0
LINE
8
0
6
CONTINUOUS
10
131
20
-99.5
11
145
21
-99.5
0
LINE
8
0
6
CONTINUOUS
10
147
20
-97.5
11
147
21
-83.5
0
LINE
8
0
6
CONTINUOUS
10
145
20
-81.5
11
131
21
-81.5
0
LINE
8
0
6
CONTINUOUS
10
129
20
-83.5
11
129
21
-97.5
0
LINE
8
0
6
CONTINUOUS
10
131
20
-80.5
11
145
21
-80.5
0
LINE
8
0
6
CONTINUOUS
10
147
20
-78.5
11
147
21
-64.5
0
LINE
8
0
6
CONTINUOUS
10
145
20
-62.5
11
131
21
-62.5
0
LINE
8
0
6
CONTINUOUS
10
129
20
-64.5
11
129
21
-78.5
0
LINE
8
0
6
CONTINUOUS
10
131
20
-61.5
11
145
21
-61.5
0
LINE
8
0
6
CONTINUOUS
10
147
20
-59.5
11
147
21
-45.5
0
LINE
8
0
6
CONTINUOUS
10
145
20
-43.5
11
131
21
-43.5
0
LINE
8
0
6
CONTINUOUS
10
129
20
-45.5
11
129
21
-59.5
0
LINE
8
0
6
CONTINUOUS
10
150
20
-94.75
11
164
21
-94.75
0
LINE
8
0
6
CONTINUOUS
10
166
20
-92.75
11
166
21
-78.75
0
LINE
8
0
6
CONTINUOUS
10
164
20
-76.75
11
150
21
-76.75
0
LINE
8
0
6
CONTINUOUS
10
148
20
-78.75
11
148
21
-92.75
0
LINE
8
0
6
CONTINUOUS
10
150
20
-75.75
11
164
21
-75.75
0
LINE
8
0
6
CONTINUOUS
10
166
20
-73.75
11
166
21
-59.75
0
LINE
8
0
6
CONTINUOUS
10
164
20
-57.75
11
150
21
-57.75
0
LINE
8
0
6
CONTINUOUS
10
148
20
-59.75
11
148
21
-73.75
0
LINE
8
0
6
CONTINUOUS
10
150
20
-56.75
11
164
21
-56.75
0
LINE
8
0
6
CONTINUOUS
10
166
20
-54.75
11
166
21
-40.75
0
LINE
8
0
6
CONTINUOUS
10
164
20
-38.75
11
150
21
-38.75
0
LINE
8
0
6
CONTINUOUS
10
148
20
-40.75
11
148
21
-54.75
0
LINE
8
0
6
CONTINUOUS
10
169
20
-97.9166667
11
183
21
-97.9166667
0
LINE
8
0
6
CONTINUOUS
10
185
20
-95.9166667
11
185
21
-81.9166667
0
LINE
8
0
6
CONTINUOUS
10
183
20
-79.9166667
11
169
21
-79.9166667
0
LINE
8
0
6
CONTINUOUS
10
167
20
-81.9166667
11
167
21
-95.9166667
0
LINE
8
0
6
CONTINUOUS
10
169
20
-78.9166667
11
183
21
-78.9166667
0
LINE
8
0
6
CONTINUOUS
10
185
20
-76.9166667
11
185
21
-62.9166667
0
LINE
8
0
6
CONTINUOUS
10
183
20
-60.9166667
11
169
21
-60.9166667
0
LINE
8
0
6
CONTINUOUS
10
167
20
-62.9166667
11
167
21
-76.9166667
0
LINE
8
0
6
CONTINUOUS
10
169
20
-59.9166667
11
183
21
-59.9166667
0
LINE
8
0
6
CONTINUOUS
10
185
20
-57.9166667
11
185
21
-43.9166667
0
LINE
8
0
6
CONTINUOUS
10
183
20
-41.9166667
11
169
21
-41.9166667
0
LINE
8
0
6
CONTINUOUS
10
167
20
-43.9166667
11
167
21
-57.9166667
0
LINE
8
0
6
CONTINUOUS
10
188
20
-100.2916667
11
202
21
-100.2916667
0
LINE
8
0
6
CONTINUOUS
10
204
20
-98.2916667
11
204
21
-84.2916667
0
LINE
8
0
6
CONTINUOUS
10
202
20
-82.2916667
11
188
21
-82.2916667
0
LINE
8
0
6
CONTINUOUS
10
186
20
-84.2916667
11
186
21
-98.2916667
0
LINE
8
0
6
CONTINUOUS
10
188
20
-81.2916667
11
202
21
-81.2916667
0
LINE
8
0
6
CONTINUOUS
10
204
20
-79.2916667
11
204
21
-65.2916667
0
LINE
8
0
6
CONTINUOUS
10
202
20
-63.2916667
11
188
21
-63.2916667
0
LINE
8
0
6
CONTINUOUS
10
186
20
-65.2916667
11
186
21
-79.2916667
0
LINE
8
0
6
CONTINUOUS
10
188
20
-62.2916667
11
202
21
-62.2916667
0
LINE
8
0
6
CONTINUOUS
10
204
20
-60.2916667
11
204
21
-46.2916667
0
LINE
8
0
6
CONTINUOUS
10
202
20
-44.2916667
11
188
21
-44.2916667
0
LINE
8
0
6
CONTINUOUS
10
186
20
-46.2916667
11
186
21
-60.2916667
0
LINE
8
0
6
CONTINUOUS
10
150
20
-119.75
11
164
21
-119.75
0
LINE
8
0
6
CONTINUOUS
10
166
20
-117.75
11
166
21
-103.75
0
LINE
8
0
6
CONTINUOUS
10
164
20
-101.75
11
150
21
-101.75
0
LINE
8
0
6
CONTINUOUS
10
148
20
-103.75
11
148
21
-117.75
0
LINE
8
0
6
CONTINUOUS
10
168.509148
20
-120.1315991
11
182.0321094
21
-123.7550657
0
LINE
8
0
6
CONTINUOUS
10
184.4815991
20
-122.340852
11
188.1050657
21
-108.8178906
0
LINE
8
0
6
CONTINUOUS
10
186.690852
20
-106.3684009
11
173.1678906
21
-102.7449343
0
LINE
8
0
6
CONTINUOUS
10
170.7184009
20
-104.159148
11
167.0949343
21
-117.6821094
0
LINE
8
0
6
CONTINUOUS
10
186.2888466
20
-125.2907155
11
198.4132022
21
-132.2907155
0
LINE
8
0
6
CONTINUOUS
10
201.145253
20
-131.5586647
11
208.145253
21
-119.4343091
0
LINE
8
0
6
CONTINUOUS
10
207.4132022
20
-116.7022583
11
195.2888466
21
-109.7022583
0
LINE
8
0
6
CONTINUOUS
10
192.5567958
20
-110.4343091
11
185.5567958
21
-122.5586647
0
LINE
8
0
6
CONTINUOUS
10
202.1274392
20
-134.875764
11
212.0269341
21
-144.7752589
0
LINE
8
0
6
CONTINUOUS
10
214.8553613
20
-144.7752589
11
224.7548562
21
-134.875764
0
LINE
8
0
6
CONTINUOUS
10
224.7548562
20
-132.0473368
11
214.8553613
21
-122.1478419
0
LINE
8
0
6
CONTINUOUS
10
212.0269341
20
-122.1478419
11
202.1274392
21
-132.0473368
0
ARC
8
0
6
CONTINUOUS
10
213.4411477
20
-143.3610453
40
2
50
225
51
315
0
ARC
8
0
6
CONTINUOUS
10
223.3406426
20
-133.4615504
40
2
50
315
51
45
0
ARC
8
0
6
CONTINUOUS
10
213.4411477
20
-123.5620555
40
2
50
45
51
135
0
ARC
8
0
6
CONTINUOUS
10
203.5416528
20
-133.4615504
40
2
50
135
51
225
0
ARC
8
0
6
CONTINUOUS
10
107
20
-107
40
2
50
270
51
0
0
ARC
8
0
6
CONTINUOUS
10
107
20
-93
40
2
50
0
51
90
0
ARC
8
0
6
CONTINUOUS
10
93
20
-93
40
2
50
90
51
180
0
ARC
8
0
6
CONTINUOUS
10
93
20
-107
40
2
50
180
51
270
0
ARC
8
0
6
CONTINUOUS
10
107
20
-88
40
2
50
270
51
0
0
ARC
8
0
6
CONTINUOUS
10
107
20
-74
40
2
50
0
51
90
0
ARC
8
0
6
CONTINUOUS
10
93
20
-74
40
2
50
90
51
180
0
ARC
8
0
6
CONTINUOUS
10
93
20
-88
40
2
50
180
51
270
0
ARC
8
0
6
CONTINUOUS
10
107
20
-69
40
2
50
270
51
0
0
ARC
8
0
6
CONTINUOUS
10
107
20
-55
40
2
50
0
51
90
0
ARC
8
0
6
CONTINUOUS
10
93
20
-55
40
2
50
90
51
180
0
ARC
8
0
6
CONTINUOUS
10
93
20
-69
40
2
50
180
51
270
0
ARC
8
0
6
CONTINUOUS
10
126
20
-107
40
2
50
270
51
0
0
ARC
8
0
6
CONTINUOUS
10
126
20
-93
40
2
50
0
51
90
0
ARC
8
0
6
CONTINUOUS
10
112
20
-93
40
2
50
90
51
180
0
ARC
8
0
6
CONTINUOUS
10
112
20
-107
40
2
50
180
51
270
0
ARC
8
0
6
CONTINUOUS
10
126
20
-88
40
2
50
270
51
0
0
ARC
8
0
6
CONTINUOUS
10
126
20
-74
40
2
50
0
51
90
0
ARC
8
0
6
CONTINUOUS
10
112
20
-74
40
2
50
90
51
180
0
ARC
8
0
6
CONTINUOUS
10
112
20
-88
40
2
50
180
51
270
0
ARC
8
0
6
CONTINUOUS
10
126
20
-69
40
2
50
270
51
0
0
ARC
8
0
6
CONTINUOUS
10
126
20
-55
40
2
50
0
51
90
0
ARC
8
0
6
CONTINUOUS
10
112
20
-55
40
2
50
90
51
180
0
ARC
8
0
6
CONTINUOUS
10
112
20
-69
40
2
50
180
51
270
0
ARC
8
0
6
CONTINUOUS
10
145
20
-97.5
40
2
50
270
51
0
0
ARC
8
0
6
CONTINUOUS
10
145
20
-83.5
40
2
50
0
51
90
0
ARC
8
0
6
CONTINUOUS
10
131
20
-83.5
40
2
50
90
51
180
0
ARC
8
0
6
CONTINUOUS
10
131
20
-97.5
40
2
50
180
51
270
0
ARC
8
0
6
CONTINUOUS
10
145
20
-78.5
40
2
50
270
51
0
0
ARC
8
0
6
CONTINUOUS
10
145
20
-64.5
40
2
50
0
51
90
0
ARC
8
0
6
CONTINUOUS
10
131
20
-64.5
40
2
50
90
51
180
0
ARC
8
0
6
CONTINUOUS
10
131
20
-78.5
40
2
50
180
51
270
0
ARC
8
0
6
CONTINUOUS
10
145
20
-59.5
40
2
50
270
51
0
0
ARC
8
0
6
CONTINUOUS
10
145
20
-45.5
40
2
50
0
51
90
0
ARC
8
0
6
CONTINUOUS
10
131
20
-45.5
40
2
50
90
51
180
0
ARC
8
0
6
CONTINUOUS
10
131
20
-59.5
40
2
50
180
51
270
0
ARC
8
0
6
CONTINUOUS
10
164
20
-92.75
40
2
50
270
51
0
0
ARC
8
0
6
CONTINUOUS
10
164
20
-78.75
40
2
50
0
51
90
0
ARC
8
0
6
CONTINUOUS
10
150
20
-78.75
40
2
50
90
51
180
0
ARC
8
0
6
CONTINUOUS
10
150
20
-92.75
40
2
50
180
51
270
0
ARC
8
0
6
CONTINUOUS
10
164
20
-73.75
40
2
50
270
51
0
0
ARC
8
0
6
CONTINUOUS
10
164
20
-59.75
40
2
50
0
51
90
0
ARC
8
0
6
CONTINUOUS
10
150
20
-59.75
40
2
50
90
51
180
0
ARC
8
0
6
CONTINUOUS
10
150
20
-73.75
40
2
50
180
51
270
0
ARC
8
0
6
CONTINUOUS
10
164
20
-54.75
40
2
50
270
51
0
0
ARC
8
0
6
CONTINUOUS
10
164
20
-40.75
40
2
50
0
51
90
0
ARC
8
0
6
CONTINUOUS
10
150
20
-40.75
40
2
50
90
51
180
0
ARC
8
0
6
CONTINUOUS
10
150
20
-54.75
40
2
50
180
51
270
0
ARC
8
0
6
CONTINUOUS
10
183
20
-95.9166667
40
2
50
270
51
0
0
ARC
8
0
6
CONTINUOUS
10
183
20
-81.9166667
40
2
50
0
51
90
0
ARC
8
0
6
CONTINUOUS
10
169
20
-81.9166667
40
2
50
90
51
180
0
ARC
8
0
6
CONTINUOUS
10
169
20
-95.9166667
40
2
50
180
51
270
0
ARC
8
0
6
CONTINUOUS
10
183
20
-76.9166667
40
2
50
270
51
0
0
ARC
8
0
6
CONTINUOUS
10
183
20
-62.9166667
40
2
50
0
51
90
0
ARC
8
0
6
CONTINUOUS
10
169
20
-62.9166667
40
2
50
90
51
180
0
ARC
8
0
6
CONTINUOUS
10
169
20
-76.9166667
40
2
50
180
51
270
0
ARC
8
0
6
CONTINUOUS
10
183
20
-57.9166667
40
2
50
270
51
0
0
ARC
8
0
6
CONTINUOUS
10
183
20
-43.9166667
40
2
50
0
51
90
0
ARC
8
0
6
CONTINUOUS
10
169
20
-43.9166667
40
2
50
90
51
180
0
ARC
8
0
6
CONTINUOUS
10
169
20
-57.9166667
40
2
50
180
51
270
0
ARC
8
0
6
CONTINUOUS
10
202
20
-98.2916667
40
2
50
270
51
0
0
ARC
8
0
6
CONTINUOUS
10
202
20
-84.2916667
40
2
50
0
51
90
0
ARC
8
0
6
CONTINUOUS
10
188
20
-84.2916667
40
2
50
90
51
180
0
ARC
8
0
6
CONTINUOUS
10
188
20
-98.2916667
40
2
50
180
51
270
0
ARC
8
0
6
CONTINUOUS
10
202
20
-79.2916667
40
2
50
270
51
0
0
ARC
8
0
6
CONTINUOUS
10
202
20
-65.2916667
40
2
50
0
51
90
0
ARC
8
0
6
CONTINUOUS
10
188
20
-65.2916667
40
2
50
90
51
180
0
ARC
8
0
6
CONTINUOUS
10
188
20
-79.2916667
40
2
50
180
51
270
0
ARC
8
0
6
CONTINUOUS
10
202
20
-60.2916667
40
2
50
270
51
0
0
ARC
8
0
6
CONTINUOUS
10
202
20
-46.2916667
40
2
50
0
51
90
0
ARC
8
0
6
CONTINUOUS
10
188
20
-46.2916667
40
2
50
90
51
180
0
ARC
8
0
6
CONTINUOUS
10
188
20
-60.2916667
40
2
50
180
51
270
0
ARC
8
0
6
CONTINUOUS
10
164
20
-117.75
40
2
50
270
51
0
0
ARC
8
0
6
CONTINUOUS
10
164
20
-103.75
40
2
50
0
51
90
0
ARC
8
0
6
CONTINUOUS
10
150
20
-103.75
40
2
50
90
51
180
0
ARC
8
0
6
CONTINUOUS
10
150
20
-117.75
40
2
50
180
51
270
0
ARC
8
0
6
CONTINUOUS
10
199.4132022
20
-130.5586647
40
2
50
239.9999999
51
329.9999999
0
ARC
8
0
6
CONTINUOUS
10
206.4132022
20
-118.4343091
40
2
50
329.9999999
51
59.9999999
0
ARC
8
0
6
CONTINUOUS
10
194.2888466
20
-111.4343091
40
2
50
59.9999999
51
149.9999999
0
ARC
8
0
6
CONTINUOUS
10
187.2888466
20
-123.5586647
40
2
50
149.9999999
51
239.9999999
0
ARC
8
0
6
CONTINUOUS
10
182.5497474
20
-121.823214
40
2
50
255.0000021
51
345.0000021
0
ARC
8
0
6
CONTINUOUS
10
186.173214
20
-108.3002526
40
2
50
345.0000021
51
75.0000021
0
ARC
8
0
6
CONTINUOUS
10
172.6502526
20
-104.676786
40
2
50
75.0000021
51
165.0000021
0
ARC
8
0
6
CONTINUOUS
10
169.026786
20
-118.1997474
40
2
50
165.0000021
51
255.0000021
0
ENDSEC
0
EOF