<svg width="130.341mm" height="102.611mm" viewBox="0 0 130.341 102.611" xmlns="http://www.w3.org/2000/svg"><g id="svgGroup" stroke-linecap="round" fill-rule="evenodd" font-size="9pt" stroke="#000" stroke-width="0.25mm" fill="none" style="stroke:#000;stroke-width:0.25mm;fill:none"><path d="M 76.027 77.45 L 89.55 81.073 L 93.173 67.55 L 79.65 63.927 L 76.027 77.45 Z M 0 66.25 L 14 66.25 L 14 52.25 L 0 52.25 L 0 66.25 Z M 0 47.25 L 14 47.25 L 14 33.25 L 0 33.25 L 0 47.25 Z M 0 28.25 L 14 28.25 L 14 14.25 L 0 14.25 L 0 28.25 Z M 19 66.25 L 33 66.25 L 33 52.25 L 19 52.25 L 19 66.25 Z M 19 47.25 L 33 47.25 L 33 33.25 L 19 33.25 L 19 47.25 Z M 19 28.25 L 33 28.25 L 33 14.25 L 19 14.25 L 19 28.25 Z M 38 56.75 L 52 56.75 L 52 42.75 L 38 42.75 L 38 56.75 Z M 38 37.75 L 52 37.75 L 52 23.75 L 38 23.75 L 38 37.75 Z M 38 18.75 L 52 18.75 L 52 4.75 L 38 4.75 L 38 18.75 Z M 57 52 L 71 52 L 71 38 L 57 38 L 57 52 Z M 57 33 L 71 33 L 71 19 L 57 19 L 57 33 Z M 57 14 L 71 14 L 71 0 L 57 0 L 57 14 Z M 76 55.167 L 90 55.167 L 90 41.167 L 76 41.167 L 76 55.167 Z M 76 36.167 L 90 36.167 L 90 22.167 L 76 22.167 L 76 36.167 Z M 76 17.167 L 90 17.167 L 90 3.167 L 76 3.167 L 76 17.167 Z M 95 57.542 L 109 57.542 L 109 43.542 L 95 43.542 L 95 57.542 Z M 95 38.542 L 109 38.542 L 109 24.542 L 95 24.542 L 95 38.542 Z M 95 19.542 L 109 19.542 L 109 5.542 L 95 5.542 L 95 19.542 Z M 57 77 L 71 77 L 71 63 L 57 63 L 57 77 Z M 94.289 82.809 L 106.413 89.809 L 113.413 77.684 L 101.289 70.684 L 94.289 82.809 Z M 110.542 92.712 L 120.441 102.611 L 130.341 92.712 L 120.441 82.812 L 110.542 92.712 Z" vector-effect="non-scaling-stroke"/></g></svg>