0
SECTION
2
HEADER
9
$INSUNITS
70
4
0
ENDSEC
0
SECTION
2
TABLES
0
TABLE
2
LTYPE
0
LTYPE
72
65
70
0
2
CONTINUOUS
3
______
73
0
40
0
0
LTYPE
72
65
70
0
2
DASHED
3
_ _ _ 
73
2
40
7.5
49
5
49
-2.5
0
LTYPE
72
65
70
0
2
DOTTED
3
. . . 
73
2
40
1.5
49
0.5
49
-1
0
ENDTAB
0
TABLE
2
LAYER
0
ENDTAB
0
ENDSEC
0
SECTION
2
ENTITIES
0
LINE
8
0
6
CONTINUOUS
10
93.1
20
-106.9
11
106.9
21
-106.9
0
LINE
8
0
6
CONTINUOUS
10
106.9
20
-106.9
11
106.9
21
-93.1
0
LINE
8
0
6
CONTINUOUS
10
106.9
20
-93.1
11
93.1
21
-93.1
0
LINE
8
0
6
CONTINUOUS
10
93.1
20
-93.1
11
93.1
21
-106.9
0
LINE
8
0
6
CONTINUOUS
10
93.1
20
-87.9
11
106.9
21
-87.9
0
LINE
8
0
6
CONTINUOUS
10
106.9
20
-87.9
11
106.9
21
-74.1
0
LINE
8
0
6
CONTINUOUS
10
106.9
20
-74.1
11
93.1
21
-74.1
0
LINE
8
0
6
CONTINUOUS
10
93.1
20
-74.1
11
93.1
21
-87.9
0
LINE
8
0
6
CONTINUOUS
10
93.1
20
-68.9
11
106.9
21
-68.9
0
LINE
8
0
6
CONTINUOUS
10
106.9
20
-68.9
11
106.9
21
-55.1
0
LINE
8
0
6
CONTINUOUS
10
106.9
20
-55.1
11
93.1
21
-55.1
0
LINE
8
0
6
CONTINUOUS
10
93.1
20
-55.1
11
93.1
21
-68.9
0
LINE
8
0
6
CONTINUOUS
10
112.1
20
-106.9
11
125.9
21
-106.9
0
LINE
8
0
6
CONTINUOUS
10
125.9
20
-106.9
11
125.9
21
-93.1
0
LINE
8
0
6
CONTINUOUS
10
125.9
20
-93.1
11
112.1
21
-93.1
0
LINE
8
0
6
CONTINUOUS
10
112.1
20
-93.1
11
112.1
21
-106.9
0
LINE
8
0
6
CONTINUOUS
10
112.1
20
-87.9
11
125.9
21
-87.9
0
LINE
8
0
6
CONTINUOUS
10
125.9
20
-87.9
11
125.9
21
-74.1
0
LINE
8
0
6
CONTINUOUS
10
125.9
20
-74.1
11
112.1
21
-74.1
0
LINE
8
0
6
CONTINUOUS
10
112.1
20
-74.1
11
112.1
21
-87.9
0
LINE
8
0
6
CONTINUOUS
10
112.1
20
-68.9
11
125.9
21
-68.9
0
LINE
8
0
6
CONTINUOUS
10
125.9
20
-68.9
11
125.9
21
-55.1
0
LINE
8
0
6
CONTINUOUS
10
125.9
20
-55.1
11
112.1
21
-55.1
0
LINE
8
0
6
CONTINUOUS
10
112.1
20
-55.1
11
112.1
21
-68.9
0
LINE
8
0
6
CONTINUOUS
10
131.1
20
-97.4
11
144.9
21
-97.4
0
LINE
8
0
6
CONTINUOUS
10
144.9
20
-97.4
11
144.9
21
-83.6
0
LINE
8
0
6
CONTINUOUS
10
144.9
20
-83.6
11
131.1
21
-83.6
0
LINE
8
0
6
CONTINUOUS
10
131.1
20
-83.6
11
131.1
21
-97.4
0
LINE
8
0
6
CONTINUOUS
10
131.1
20
-78.4
11
144.9
21
-78.4
0
LINE
8
0
6
CONTINUOUS
10
144.9
20
-78.4
11
144.9
21
-64.6
0
LINE
8
0
6
CONTINUOUS
10
144.9
20
-64.6
11
131.1
21
-64.6
0
LINE
8
0
6
CONTINUOUS
10
131.1
20
-64.6
11
131.1
21
-78.4
0
LINE
8
0
6
CONTINUOUS
10
131.1
20
-59.4
11
144.9
21
-59.4
0
LINE
8
0
6
CONTINUOUS
10
144.9
20
-59.4
11
144.9
21
-45.6
0
LINE
8
0
6
CONTINUOUS
10
144.9
20
-45.6
11
131.1
21
-45.6
0
LINE
8
0
6
CONTINUOUS
10
131.1
20
-45.6
11
131.1
21
-59.4
0
LINE
8
0
6
CONTINUOUS
10
150.1
20
-92.65
11
163.9
21
-92.65
0
LINE
8
0
6
CONTINUOUS
10
163.9
20
-92.65
11
163.9
21
-78.85
0
LINE
8
0
6
CONTINUOUS
10
163.9
20
-78.85
11
150.1
21
-78.85
0
LINE
8
0
6
CONTINUOUS
10
150.1
20
-78.85
11
150.1
21
-92.65
0
LINE
8
0
6
CONTINUOUS
10
150.1
20
-73.65
11
163.9
21
-73.65
0
LINE
8
0
6
CONTINUOUS
10
163.9
20
-73.65
11
163.9
21
-59.85
0
LINE
8
0
6
CONTINUOUS
10
163.9
20
-59.85
11
150.1
21
-59.85
0
LINE
8
0
6
CONTINUOUS
10
150.1
20
-59.85
11
150.1
21
-73.65
0
LINE
8
0
6
CONTINUOUS
10
150.1
20
-54.65
11
163.9
21
-54.65
0
LINE
8
0
6
CONTINUOUS
10
163.9
20
-54.65
11
163.9
21
-40.85
0
LINE
8
0
6
CONTINUOUS
10
163.9
20
-40.85
11
150.1
21
-40.85
0
LINE
8
0
6
CONTINUOUS
10
150.1
20
-40.85
11
150.1
21
-54.65
0
LINE
8
0
6
CONTINUOUS
10
169.1
20
-95.8166667
11
182.9
21
-95.8166667
0
LINE
8
0
6
CONTINUOUS
10
182.9
20
-95.8166667
11
182.9
21
-82.0166667
0
LINE
8
0
6
CONTINUOUS
10
182.9
20
-82.0166667
11
169.1
21
-82.0166667
0
LINE
8
0
6
CONTINUOUS
10
169.1
20
-82.0166667
11
169.1
21
-95.8166667
0
LINE
8
0
6
CONTINUOUS
10
169.1
20
-76.8166667
11
182.9
21
-76.8166667
0
LINE
8
0
6
CONTINUOUS
10
182.9
20
-76.8166667
11
182.9
21
-63.0166667
0
LINE
8
0
6
CONTINUOUS
10
182.9
20
-63.0166667
11
169.1
21
-63.0166667
0
LINE
8
0
6
CONTINUOUS
10
169.1
20
-63.0166667
11
169.1
21
-76.8166667
0
LINE
8
0
6
CONTINUOUS
10
169.1
20
-57.8166667
11
182.9
21
-57.8166667
0
LINE
8
0
6
CONTINUOUS
10
182.9
20
-57.8166667
11
182.9
21
-44.0166667
0
LINE
8
0
6
CONTINUOUS
10
182.9
20
-44.0166667
11
169.1
21
-44.0166667
0
LINE
8
0
6
CONTINUOUS
10
169.1
20
-44.0166667
11
169.1
21
-57.8166667
0
LINE
8
0
6
CONTINUOUS
10
188.1
20
-98.1916667
11
201.9
21
-98.1916667
0
LINE
8
0
6
CONTINUOUS
10
201.9
20
-98.1916667
11
201.9
21
-84.3916667
0
LINE
8
0
6
CONTINUOUS
10
201.9
20
-84.3916667
11
188.1
21
-84.3916667
0
LINE
8
0
6
CONTINUOUS
10
188.1
20
-84.3916667
11
188.1
21
-98.1916667
0
LINE
8
0
6
CONTINUOUS
10
188.1
20
-79.1916667
11
201.9
21
-79.1916667
0
LINE
8
0
6
CONTINUOUS
10
201.9
20
-79.1916667
11
201.9
21
-65.3916667
0
LINE
8
0
6
CONTINUOUS
10
201.9
20
-65.3916667
11
188.1
21
-65.3916667
0
LINE
8
0
6
CONTINUOUS
10
188.1
20
-65.3916667
11
188.1
21
-79.1916667
0
LINE
8
0
6
CONTINUOUS
10
188.1
20
-60.1916667
11
201.9
21
-60.1916667
0
LINE
8
0
6
CONTINUOUS
10
201.9
20
-60.1916667
11
201.9
21
-46.3916667
0
LINE
8
0
6
CONTINUOUS
10
201.9
20
-46.3916667
11
188.1
21
-46.3916667
0
LINE
8
0
6
CONTINUOUS
10
188.1
20
-46.3916667
11
188.1
21
-60.1916667
0
LINE
8
0
6
CONTINUOUS
10
150.1
20
-117.65
11
163.9
21
-117.65
0
LINE
8
0
6
CONTINUOUS
10
163.9
20
-117.65
11
163.9
21
-103.85
0
LINE
8
0
6
CONTINUOUS
10
163.9
20
-103.85
11
150.1
21
-103.85
0
LINE
8
0
6
CONTINUOUS
10
150.1
20
-103.85
11
150.1
21
-117.65
0
LINE
8
0
6
CONTINUOUS
10
169.1492604
20
-118.1290368
11
182.4790368
21
-121.7007396
0
LINE
8
0
6
CONTINUOUS
10
182.4790368
20
-121.7007396
11
186.0507396
21
-108.3709632
0
LINE
8
0
6
CONTINUOUS
10
186.0507396
20
-108.3709632
11
172.7209632
21
-104.7992604
0
LINE
8
0
6
CONTINUOUS
10
172.7209632
20
-104.7992604
11
169.1492604
21
-118.1290368
0
LINE
8
0
6
CONTINUOUS
10
187.4254491
20
-123.5220622
11
199.3765997
21
-130.4220622
0
LINE
8
0
6
CONTINUOUS
10
199.3765997
20
-130.4220622
11
206.2765997
21
-118.4709116
0
LINE
8
0
6
CONTINUOUS
10
206.2765997
20
-118.4709116
11
194.3254491
21
-111.5709116
0
LINE
8
0
6
CONTINUOUS
10
194.3254491
20
-111.5709116
11
187.4254491
21
-123.5220622
0
LINE
8
0
6
CONTINUOUS
10
203.6830741
20
-133.4615504
11
213.4411477
21
-143.219624
0
LINE
8
0
6
CONTINUOUS
10
213.4411477
20
-143.219624
11
223.1992213
21
-133.4615504
0
LINE
8
0
6
CONTINUOUS
10
223.1992213
20
-133.4615504
11
213.4411477
21
-123.7034768
0
LINE
8
0
6
CONTINUOUS
10
213.4411477
20
-123.7034768
11
203.6830741
21
-133.4615504
0
ENDSEC
0
EOF