0
SECTION
2
HEADER
9
$INSUNITS
70
4
0
ENDSEC
0
SECTION
2
TABLES
0
TABLE
2
LTYPE
0
LTYPE
72
65
70
0
2
CONTINUOUS
3
______
73
0
40
0
0
LTYPE
72
65
70
0
2
DASHED
3
_ _ _ 
73
2
40
7.5
49
5
49
-2.5
0
LTYPE
72
65
70
0
2
DOTTED
3
. . . 
73
2
40
1.5
49
0.5
49
-1
0
ENDTAB
0
TABLE
2
LAYER
0
ENDTAB
0
ENDSEC
0
SECTION
2
ENTITIES
0
LINE
8
0
6
CONTINUOUS
10
93
20
-107
11
107
21
-107
0
LINE
8
0
6
CONTINUOUS
10
107
20
-107
11
107
21
-93
0
LINE
8
0
6
CONTINUOUS
10
107
20
-93
11
93
21
-93
0
LINE
8
0
6
CONTINUOUS
10
93
20
-93
11
93
21
-107
0
LINE
8
0
6
CONTINUOUS
10
93
20
-88
11
107
21
-88
0
LINE
8
0
6
CONTINUOUS
10
107
20
-88
11
107
21
-74
0
LINE
8
0
6
CONTINUOUS
10
107
20
-74
11
93
21
-74
0
LINE
8
0
6
CONTINUOUS
10
93
20
-74
11
93
21
-88
0
LINE
8
0
6
CONTINUOUS
10
93
20
-69
11
107
21
-69
0
LINE
8
0
6
CONTINUOUS
10
107
20
-69
11
107
21
-55
0
LINE
8
0
6
CONTINUOUS
10
107
20
-55
11
93
21
-55
0
LINE
8
0
6
CONTINUOUS
10
93
20
-55
11
93
21
-69
0
LINE
8
0
6
CONTINUOUS
10
112
20
-107
11
126
21
-107
0
LINE
8
0
6
CONTINUOUS
10
126
20
-107
11
126
21
-93
0
LINE
8
0
6
CONTINUOUS
10
126
20
-93
11
112
21
-93
0
LINE
8
0
6
CONTINUOUS
10
112
20
-93
11
112
21
-107
0
LINE
8
0
6
CONTINUOUS
10
112
20
-88
11
126
21
-88
0
LINE
8
0
6
CONTINUOUS
10
126
20
-88
11
126
21
-74
0
LINE
8
0
6
CONTINUOUS
10
126
20
-74
11
112
21
-74
0
LINE
8
0
6
CONTINUOUS
10
112
20
-74
11
112
21
-88
0
LINE
8
0
6
CONTINUOUS
10
112
20
-69
11
126
21
-69
0
LINE
8
0
6
CONTINUOUS
10
126
20
-69
11
126
21
-55
0
LINE
8
0
6
CONTINUOUS
10
126
20
-55
11
112
21
-55
0
LINE
8
0
6
CONTINUOUS
10
112
20
-55
11
112
21
-69
0
LINE
8
0
6
CONTINUOUS
10
131
20
-97.5
11
145
21
-97.5
0
LINE
8
0
6
CONTINUOUS
10
145
20
-97.5
11
145
21
-83.5
0
LINE
8
0
6
CONTINUOUS
10
145
20
-83.5
11
131
21
-83.5
0
LINE
8
0
6
CONTINUOUS
10
131
20
-83.5
11
131
21
-97.5
0
LINE
8
0
6
CONTINUOUS
10
131
20
-78.5
11
145
21
-78.5
0
LINE
8
0
6
CONTINUOUS
10
145
20
-78.5
11
145
21
-64.5
0
LINE
8
0
6
CONTINUOUS
10
145
20
-64.5
11
131
21
-64.5
0
LINE
8
0
6
CONTINUOUS
10
131
20
-64.5
11
131
21
-78.5
0
LINE
8
0
6
CONTINUOUS
10
131
20
-59.5
11
145
21
-59.5
0
LINE
8
0
6
CONTINUOUS
10
145
20
-59.5
11
145
21
-45.5
0
LINE
8
0
6
CONTINUOUS
10
145
20
-45.5
11
131
21
-45.5
0
LINE
8
0
6
CONTINUOUS
10
131
20
-45.5
11
131
21
-59.5
0
LINE
8
0
6
CONTINUOUS
10
150
20
-92.75
11
164
21
-92.75
0
LINE
8
0
6
CONTINUOUS
10
164
20
-92.75
11
164
21
-78.75
0
LINE
8
0
6
CONTINUOUS
10
164
20
-78.75
11
150
21
-78.75
0
LINE
8
0
6
CONTINUOUS
10
150
20
-78.75
11
150
21
-92.75
0
LINE
8
0
6
CONTINUOUS
10
150
20
-73.75
11
164
21
-73.75
0
LINE
8
0
6
CONTINUOUS
10
164
20
-73.75
11
164
21
-59.75
0
LINE
8
0
6
CONTINUOUS
10
164
20
-59.75
11
150
21
-59.75
0
LINE
8
0
6
CONTINUOUS
10
150
20
-59.75
11
150
21
-73.75
0
LINE
8
0
6
CONTINUOUS
10
150
20
-54.75
11
164
21
-54.75
0
LINE
8
0
6
CONTINUOUS
10
164
20
-54.75
11
164
21
-40.75
0
LINE
8
0
6
CONTINUOUS
10
164
20
-40.75
11
150
21
-40.75
0
LINE
8
0
6
CONTINUOUS
10
150
20
-40.75
11
150
21
-54.75
0
LINE
8
0
6
CONTINUOUS
10
169
20
-95.9166667
11
183
21
-95.9166667
0
LINE
8
0
6
CONTINUOUS
10
183
20
-95.9166667
11
183
21
-81.9166667
0
LINE
8
0
6
CONTINUOUS
10
183
20
-81.9166667
11
169
21
-81.9166667
0
LINE
8
0
6
CONTINUOUS
10
169
20
-81.9166667
11
169
21
-95.9166667
0
LINE
8
0
6
CONTINUOUS
10
169
20
-76.9166667
11
183
21
-76.9166667
0
LINE
8
0
6
CONTINUOUS
10
183
20
-76.9166667
11
183
21
-62.9166667
0
LINE
8
0
6
CONTINUOUS
10
183
20
-62.9166667
11
169
21
-62.9166667
0
LINE
8
0
6
CONTINUOUS
10
169
20
-62.9166667
11
169
21
-76.9166667
0
LINE
8
0
6
CONTINUOUS
10
169
20
-57.9166667
11
183
21
-57.9166667
0
LINE
8
0
6
CONTINUOUS
10
183
20
-57.9166667
11
183
21
-43.9166667
0
LINE
8
0
6
CONTINUOUS
10
183
20
-43.9166667
11
169
21
-43.9166667
0
LINE
8
0
6
CONTINUOUS
10
169
20
-43.9166667
11
169
21
-57.9166667
0
LINE
8
0
6
CONTINUOUS
10
188
20
-98.2916667
11
202
21
-98.2916667
0
LINE
8
0
6
CONTINUOUS
10
202
20
-98.2916667
11
202
21
-84.2916667
0
LINE
8
0
6
CONTINUOUS
10
202
20
-84.2916667
11
188
21
-84.2916667
0
LINE
8
0
6
CONTINUOUS
10
188
20
-84.2916667
11
188
21
-98.2916667
0
LINE
8
0
6
CONTINUOUS
10
188
20
-79.2916667
11
202
21
-79.2916667
0
LINE
8
0
6
CONTINUOUS
10
202
20
-79.2916667
11
202
21
-65.2916667
0
LINE
8
0
6
CONTINUOUS
10
202
20
-65.2916667
11
188
21
-65.2916667
0
LINE
8
0
6
CONTINUOUS
10
188
20
-65.2916667
11
188
21
-79.2916667
0
LINE
8
0
6
CONTINUOUS
10
188
20
-60.2916667
11
202
21
-60.2916667
0
LINE
8
0
6
CONTINUOUS
10
202
20
-60.2916667
11
202
21
-46.2916667
0
LINE
8
0
6
CONTINUOUS
10
202
20
-46.2916667
11
188
21
-46.2916667
0
LINE
8
0
6
CONTINUOUS
10
188
20
-46.2916667
11
188
21
-60.2916667
0
LINE
8
0
6
CONTINUOUS
10
150
20
-117.75
11
164
21
-117.75
0
LINE
8
0
6
CONTINUOUS
10
164
20
-117.75
11
164
21
-103.75
0
LINE
8
0
6
CONTINUOUS
10
164
20
-103.75
11
150
21
-103.75
0
LINE
8
0
6
CONTINUOUS
10
150
20
-103.75
11
150
21
-117.75
0
LINE
8
0
6
CONTINUOUS
10
169.0267859
20
-118.1997475
11
182.5497475
21
-121.8232141
0
LINE
8
0
6
CONTINUOUS
10
182.5497475
20
-121.8232141
11
186.1732141
21
-108.3002525
0
LINE
8
0
6
CONTINUOUS
10
186.1732141
20
-108.3002525
11
172.6502525
21
-104.6767859
0
LINE
8
0
6
CONTINUOUS
10
172.6502525
20
-104.6767859
11
169.0267859
21
-118.1997475
0
LINE
8
0
6
CONTINUOUS
10
187.2888466
20
-123.5586647
11
199.4132022
21
-130.5586647
0
LINE
8
0
6
CONTINUOUS
10
199.4132022
20
-130.5586647
11
206.4132022
21
-118.4343091
0
LINE
8
0
6
CONTINUOUS
10
206.4132022
20
-118.4343091
11
194.2888466
21
-111.4343091
0
LINE
8
0
6
CONTINUOUS
10
194.2888466
20
-111.4343091
11
187.2888466
21
-123.5586647
0
LINE
8
0
6
CONTINUOUS
10
203.5416528
20
-133.4615504
11
213.4411477
21
-143.3610453
0
LINE
8
0
6
CONTINUOUS
10
213.4411477
20
-143.3610453
11
223.3406426
21
-133.4615504
0
LINE
8
0
6
CONTINUOUS
10
223.3406426
20
-133.4615504
11
213.4411477
21
-123.5620555
0
LINE
8
0
6
CONTINUOUS
10
213.4411477
20
-123.5620555
11
203.5416528
21
-133.4615504
0
ENDSEC
0
EOF