<svg width="130.099mm" height="102.37mm" viewBox="0 0 130.099 102.37" xmlns="http://www.w3.org/2000/svg"><g id="svgGroup" stroke-linecap="round" fill-rule="evenodd" font-size="9pt" stroke="#000" stroke-width="0.25mm" fill="none" style="stroke:#000;stroke-width:0.25mm;fill:none"><path d="M 110.583 92.612 L 120.341 102.37 L 130.099 92.612 L 120.341 82.853 L 110.583 92.612 Z M 94.325 82.672 L 106.277 89.572 L 113.177 77.621 L 101.225 70.721 L 94.325 82.672 Z M 38 18.55 L 51.8 18.55 L 51.8 4.75 L 38 4.75 L 38 18.55 Z M 57 13.8 L 70.8 13.8 L 70.8 0 L 57 0 L 57 13.8 Z M 76 16.967 L 89.8 16.967 L 89.8 3.167 L 76 3.167 L 76 16.967 Z M 95 19.342 L 108.8 19.342 L 108.8 5.542 L 95 5.542 L 95 19.342 Z M 38 56.55 L 51.8 56.55 L 51.8 42.75 L 38 42.75 L 38 56.55 Z M 38 37.55 L 51.8 37.55 L 51.8 23.75 L 38 23.75 L 38 37.55 Z M 57 51.8 L 70.8 51.8 L 70.8 38 L 57 38 L 57 51.8 Z M 57 32.8 L 70.8 32.8 L 70.8 19 L 57 19 L 57 32.8 Z M 76 54.967 L 89.8 54.967 L 89.8 41.167 L 76 41.167 L 76 54.967 Z M 76 35.967 L 89.8 35.967 L 89.8 22.167 L 76 22.167 L 76 35.967 Z M 95 57.342 L 108.8 57.342 L 108.8 43.542 L 95 43.542 L 95 57.342 Z M 95 38.342 L 108.8 38.342 L 108.8 24.542 L 95 24.542 L 95 38.342 Z M 57 76.8 L 70.8 76.8 L 70.8 63 L 57 63 L 57 76.8 Z M 0 66.05 L 13.8 66.05 L 13.8 52.25 L 0 52.25 L 0 66.05 Z M 0 47.05 L 13.8 47.05 L 13.8 33.25 L 0 33.25 L 0 47.05 Z M 0 28.05 L 13.8 28.05 L 13.8 14.25 L 0 14.25 L 0 28.05 Z M 19 66.05 L 32.8 66.05 L 32.8 52.25 L 19 52.25 L 19 66.05 Z M 19 47.05 L 32.8 47.05 L 32.8 33.25 L 19 33.25 L 19 47.05 Z M 19 28.05 L 32.8 28.05 L 32.8 14.25 L 19 14.25 L 19 28.05 Z M 76.049 77.279 L 89.379 80.851 L 92.951 67.521 L 79.621 63.949 L 76.049 77.279 Z" vector-effect="non-scaling-stroke"/></g></svg>