<svg width="135.878mm" height="107.986mm" viewBox="0 0 135.878 107.986" xmlns="http://www.w3.org/2000/svg"><g id="svgGroup" stroke-linecap="round" fill-rule="evenodd" font-size="9pt" stroke="#000" stroke-width="0.25mm" fill="none" style="stroke:#000;stroke-width:0.25mm;fill:none"><path d="M 0.002 69.88 L 0 14.627 A 0.5 0.5 0 0 1 0.5 14.127 L 37.5 14.137 A 0.5 0.5 0 0 0 38 13.637 L 38 5.129 A 0.5 0.5 0 0 1 38.502 4.629 L 56.498 4.685 A 0.5 0.5 0 0 0 57 4.185 L 57 0.5 A 0.5 0.5 0 0 1 57.5 0 L 74.502 0 A 0.5 0.5 0 0 1 75.002 0.5 L 75.002 2.586 A 0.5 0.5 0 0 0 75.503 3.086 L 93.501 3.045 A 0.5 0.5 0 0 1 94.002 3.545 L 94.002 5.042 A 0.5 0.5 0 0 0 94.502 5.542 L 112.502 5.542 A 0.5 0.5 0 0 1 113.002 6.041 L 113.003 7.294 A 0.5 0.5 0 0 0 113.503 7.794 L 133.253 7.794 A 0.5 0.5 0 0 1 133.753 8.294 L 133.753 68.121 A 0.5 0.5 0 0 1 133.686 68.371 L 133.438 68.8 L 135.875 94.971 A 0.5 0.5 0 0 1 135.731 95.371 L 123.263 107.839 A 0.5 0.5 0 0 1 122.556 107.839 L 109.381 94.665 A 0.5 0.5 0 0 0 109.273 94.583 L 93.248 85.555 A 0.5 0.5 0 0 0 93.128 85.506 L 75.561 80.982 A 0.5 0.5 0 0 0 75.435 80.966 L 56.475 81.011 A 0.5 0.5 0 0 1 55.974 80.517 L 55.861 71.188 A 0.5 0.5 0 0 0 55.364 70.694 L 0.499 70.38 A 0.5 0.5 0 0 1 0.002 69.88 Z M 18.42 32.637 m -1.1 0 a 1.1 1.1 0 0 1 2.2 0 a 1.1 1.1 0 0 1 -2.2 0 z M 18.42 51.637 m -1.1 0 a 1.1 1.1 0 0 1 2.2 0 a 1.1 1.1 0 0 1 -2.2 0 z M 94.388 22.79 m -1.1 0 a 1.1 1.1 0 0 1 2.2 0 a 1.1 1.1 0 0 1 -2.2 0 z M 52.077 64.752 m -1.1 0 a 1.1 1.1 0 0 1 2.2 0 a 1.1 1.1 0 0 1 -2.2 0 z M 123.297 73.777 m -1.1 0 a 1.1 1.1 0 0 1 2.2 0 a 1.1 1.1 0 0 1 -2.2 0 z" vector-effect="non-scaling-stroke"/></g></svg>