<svg width="135.878mm" height="107.986mm" viewBox="0 0 135.878 107.986" xmlns="http://www.w3.org/2000/svg"><g id="svgGroup" stroke-linecap="round" fill-rule="evenodd" font-size="9pt" stroke="#000" stroke-width="0.25mm" fill="none" style="stroke:#000;stroke-width:0.25mm;fill:none"><path d="M 0.002 69.88 L 0 14.627 A 0.5 0.5 0 0 1 0.5 14.127 L 37.5 14.137 A 0.5 0.5 0 0 0 38 13.637 L 38 5.129 A 0.5 0.5 0 0 1 38.502 4.629 L 56.498 4.685 A 0.5 0.5 0 0 0 57 4.185 L 57 0.5 A 0.5 0.5 0 0 1 57.5 0 L 74.502 0 A 0.5 0.5 0 0 1 75.002 0.5 L 75.002 2.586 A 0.5 0.5 0 0 0 75.503 3.086 L 93.501 3.045 A 0.5 0.5 0 0 1 94.002 3.545 L 94.002 5.042 A 0.5 0.5 0 0 0 94.502 5.542 L 112.502 5.542 A 0.5 0.5 0 0 1 113.002 6.041 L 113.003 7.794 L 113.003 56.713 A 0.5 0.5 0 0 0 113.253 57.146 L 133.214 68.671 A 0.5 0.5 0 0 1 133.462 69.058 L 135.875 94.971 A 0.5 0.5 0 0 1 135.731 95.371 L 123.263 107.839 A 0.5 0.5 0 0 1 122.556 107.839 L 109.381 94.665 A 0.5 0.5 0 0 0 109.273 94.583 L 93.248 85.555 A 0.5 0.5 0 0 0 93.128 85.506 L 75.561 80.982 A 0.5 0.5 0 0 0 75.435 80.966 L 56.475 81.011 A 0.5 0.5 0 0 1 55.974 80.517 L 55.861 71.188 A 0.5 0.5 0 0 0 55.364 70.694 L 0.499 70.38 A 0.5 0.5 0 0 1 0.002 69.88 Z M 77.947 79.337 L 91.47 82.96 L 95.093 69.437 L 81.57 65.814 L 77.947 79.337 Z M 1.92 68.137 L 15.92 68.137 L 15.92 54.137 L 1.92 54.137 L 1.92 68.137 Z M 1.92 49.137 L 15.92 49.137 L 15.92 35.137 L 1.92 35.137 L 1.92 49.137 Z M 1.92 30.137 L 15.92 30.137 L 15.92 16.137 L 1.92 16.137 L 1.92 30.137 Z M 20.92 68.137 L 34.92 68.137 L 34.92 54.137 L 20.92 54.137 L 20.92 68.137 Z M 20.92 49.137 L 34.92 49.137 L 34.92 35.137 L 20.92 35.137 L 20.92 49.137 Z M 20.92 30.137 L 34.92 30.137 L 34.92 16.137 L 20.92 16.137 L 20.92 30.137 Z M 39.92 58.637 L 53.92 58.637 L 53.92 44.637 L 39.92 44.637 L 39.92 58.637 Z M 39.92 39.637 L 53.92 39.637 L 53.92 25.637 L 39.92 25.637 L 39.92 39.637 Z M 39.92 20.637 L 53.92 20.637 L 53.92 6.637 L 39.92 6.637 L 39.92 20.637 Z M 58.92 53.887 L 72.92 53.887 L 72.92 39.887 L 58.92 39.887 L 58.92 53.887 Z M 58.92 34.887 L 72.92 34.887 L 72.92 20.887 L 58.92 20.887 L 58.92 34.887 Z M 58.92 15.887 L 72.92 15.887 L 72.92 1.887 L 58.92 1.887 L 58.92 15.887 Z M 77.92 57.054 L 91.92 57.054 L 91.92 43.054 L 77.92 43.054 L 77.92 57.054 Z M 77.92 38.054 L 91.92 38.054 L 91.92 24.054 L 77.92 24.054 L 77.92 38.054 Z M 77.92 19.054 L 91.92 19.054 L 91.92 5.054 L 77.92 5.054 L 77.92 19.054 Z M 96.92 59.429 L 110.92 59.429 L 110.92 45.429 L 96.92 45.429 L 96.92 59.429 Z M 96.92 40.429 L 110.92 40.429 L 110.92 26.429 L 96.92 26.429 L 96.92 40.429 Z M 96.92 21.429 L 110.92 21.429 L 110.92 7.429 L 96.92 7.429 L 96.92 21.429 Z M 58.92 78.887 L 72.92 78.887 L 72.92 64.887 L 58.92 64.887 L 58.92 78.887 Z M 96.209 84.696 L 108.333 91.696 L 115.333 79.571 L 103.209 72.571 L 96.209 84.696 Z M 112.462 94.599 L 122.361 104.498 L 132.261 94.599 L 122.361 84.699 L 112.462 94.599 Z M 18.42 32.637 m -1.1 0 a 1.1 1.1 0 0 1 2.2 0 a 1.1 1.1 0 0 1 -2.2 0 z M 18.42 51.637 m -1.1 0 a 1.1 1.1 0 0 1 2.2 0 a 1.1 1.1 0 0 1 -2.2 0 z M 94.388 22.79 m -1.1 0 a 1.1 1.1 0 0 1 2.2 0 a 1.1 1.1 0 0 1 -2.2 0 z M 52.077 64.752 m -1.1 0 a 1.1 1.1 0 0 1 2.2 0 a 1.1 1.1 0 0 1 -2.2 0 z M 123.297 73.777 m -1.1 0 a 1.1 1.1 0 0 1 2.2 0 a 1.1 1.1 0 0 1 -2.2 0 z" vector-effect="non-scaling-stroke"/></g></svg>