<svg width="135.878mm" height="107.986mm" viewBox="0 0 135.878 107.986" xmlns="http://www.w3.org/2000/svg"><g id="svgGroup" stroke-linecap="round" fill-rule="evenodd" font-size="9pt" stroke="#000" stroke-width="0.25mm" fill="none" style="stroke:#000;stroke-width:0.25mm;fill:none"><path d="M 0.002 69.88 L 0 14.627 A 0.5 0.5 0 0 1 0.5 14.127 L 37.5 14.137 A 0.5 0.5 0 0 0 38 13.637 L 38 5.129 A 0.5 0.5 0 0 1 38.502 4.629 L 56.498 4.685 A 0.5 0.5 0 0 0 57 4.185 L 57 0.5 A 0.5 0.5 0 0 1 57.5 0 L 74.502 0 A 0.5 0.5 0 0 1 75.002 0.5 L 75.002 2.586 A 0.5 0.5 0 0 0 75.503 3.086 L 93.501 3.045 A 0.5 0.5 0 0 1 94.002 3.545 L 94.002 5.042 A 0.5 0.5 0 0 0 94.502 5.542 L 112.502 5.542 A 0.5 0.5 0 0 1 113.002 6.041 L 113.003 7.794 L 113.003 56.713 A 0.5 0.5 0 0 0 113.253 57.146 L 133.214 68.671 A 0.5 0.5 0 0 1 133.462 69.058 L 135.875 94.971 A 0.5 0.5 0 0 1 135.731 95.371 L 123.263 107.839 A 0.5 0.5 0 0 1 122.556 107.839 L 109.381 94.665 A 0.5 0.5 0 0 0 109.273 94.583 L 93.248 85.555 A 0.5 0.5 0 0 0 93.128 85.506 L 75.561 80.982 A 0.5 0.5 0 0 0 75.435 80.966 L 56.475 81.011 A 0.5 0.5 0 0 1 55.974 80.517 L 55.861 71.188 A 0.5 0.5 0 0 0 55.364 70.694 L 0.499 70.38 A 0.5 0.5 0 0 1 0.002 69.88 Z M 112.603 94.599 L 122.361 104.357 L 132.119 94.599 L 122.361 84.84 L 112.603 94.599 Z M 96.345 84.659 L 108.297 91.559 L 115.197 79.608 L 103.245 72.708 L 96.345 84.659 Z M 40.02 20.537 L 53.82 20.537 L 53.82 6.737 L 40.02 6.737 L 40.02 20.537 Z M 59.02 15.787 L 72.82 15.787 L 72.82 1.987 L 59.02 1.987 L 59.02 15.787 Z M 78.02 18.954 L 91.82 18.954 L 91.82 5.154 L 78.02 5.154 L 78.02 18.954 Z M 97.02 21.329 L 110.82 21.329 L 110.82 7.529 L 97.02 7.529 L 97.02 21.329 Z M 40.02 58.537 L 53.82 58.537 L 53.82 44.737 L 40.02 44.737 L 40.02 58.537 Z M 40.02 39.537 L 53.82 39.537 L 53.82 25.737 L 40.02 25.737 L 40.02 39.537 Z M 59.02 53.787 L 72.82 53.787 L 72.82 39.987 L 59.02 39.987 L 59.02 53.787 Z M 59.02 34.787 L 72.82 34.787 L 72.82 20.987 L 59.02 20.987 L 59.02 34.787 Z M 78.02 56.954 L 91.82 56.954 L 91.82 43.154 L 78.02 43.154 L 78.02 56.954 Z M 78.02 37.954 L 91.82 37.954 L 91.82 24.154 L 78.02 24.154 L 78.02 37.954 Z M 97.02 59.329 L 110.82 59.329 L 110.82 45.529 L 97.02 45.529 L 97.02 59.329 Z M 97.02 40.329 L 110.82 40.329 L 110.82 26.529 L 97.02 26.529 L 97.02 40.329 Z M 59.02 78.787 L 72.82 78.787 L 72.82 64.987 L 59.02 64.987 L 59.02 78.787 Z M 2.02 68.037 L 15.82 68.037 L 15.82 54.237 L 2.02 54.237 L 2.02 68.037 Z M 2.02 49.037 L 15.82 49.037 L 15.82 35.237 L 2.02 35.237 L 2.02 49.037 Z M 2.02 30.037 L 15.82 30.037 L 15.82 16.237 L 2.02 16.237 L 2.02 30.037 Z M 21.02 68.037 L 34.82 68.037 L 34.82 54.237 L 21.02 54.237 L 21.02 68.037 Z M 21.02 49.037 L 34.82 49.037 L 34.82 35.237 L 21.02 35.237 L 21.02 49.037 Z M 21.02 30.037 L 34.82 30.037 L 34.82 16.237 L 21.02 16.237 L 21.02 30.037 Z M 78.069 79.266 L 91.399 82.838 L 94.971 69.508 L 81.641 65.936 L 78.069 79.266 Z M 18.42 32.637 m -1.1 0 a 1.1 1.1 0 0 1 2.2 0 a 1.1 1.1 0 0 1 -2.2 0 z M 18.42 51.637 m -1.1 0 a 1.1 1.1 0 0 1 2.2 0 a 1.1 1.1 0 0 1 -2.2 0 z M 94.388 22.79 m -1.1 0 a 1.1 1.1 0 0 1 2.2 0 a 1.1 1.1 0 0 1 -2.2 0 z M 52.077 64.752 m -1.1 0 a 1.1 1.1 0 0 1 2.2 0 a 1.1 1.1 0 0 1 -2.2 0 z M 123.297 73.777 m -1.1 0 a 1.1 1.1 0 0 1 2.2 0 a 1.1 1.1 0 0 1 -2.2 0 z" vector-effect="non-scaling-stroke"/></g></svg>