0
SECTION
2
HEADER
9
$INSUNITS
70
4
0
ENDSEC
0
SECTION
2
TABLES
0
TABLE
2
LTYPE
0
LTYPE
72
65
70
0
2
CONTINUOUS
3
______
73
0
40
0
0
LTYPE
72
65
70
0
2
DASHED
3
_ _ _ 
73
2
40
7.5
49
5
49
-2.5
0
LTYPE
72
65
70
0
2
DOTTED
3
. . . 
73
2
40
1.5
49
0.5
49
-1
0
ENDTAB
0
TABLE
2
LAYER
0
ENDTAB
0
ENDSEC
0
SECTION
2
ENTITIES
0
LINE
8
0
6
CONTINUOUS
10
91.0819823
20
-108.7428741
11
91.0800178
21
-53.4901494
0
LINE
8
0
6
CONTINUOUS
10
91.5801494
20
-52.9901316
11
128.5798684
21
-52.9998684
0
LINE
8
0
6
CONTINUOUS
10
129.08
20
-52.4998684
11
129.08
21
-43.9915814
0
LINE
8
0
6
CONTINUOUS
10
129.5815789
20
-43.4915839
11
147.5784211
21
-43.5484161
0
LINE
8
0
6
CONTINUOUS
10
148.08
20
-43.0484186
11
148.08
21
-39.363
0
LINE
8
0
6
CONTINUOUS
10
148.58
20
-38.863
11
165.582
21
-38.863
0
LINE
8
0
6
CONTINUOUS
10
166.082
20
-39.363
11
166.082
21
-41.4488583
0
LINE
8
0
6
CONTINUOUS
10
166.5831403
20
-41.948857
11
184.5808597
21
-41.9078097
0
LINE
8
0
6
CONTINUOUS
10
185.082
20
-42.4078084
11
185.082
21
-43.9046667
0
LINE
8
0
6
CONTINUOUS
10
185.582
20
-44.4046667
11
203.5822219
21
-44.4046667
0
LINE
8
0
6
CONTINUOUS
10
204.0822219
20
-44.9044447
11
204.0827781
21
-46.1568887
0
LINE
8
0
6
CONTINUOUS
10
224.518
20
-107.6632627
11
226.955512
21
-133.8336908
0
LINE
8
0
6
CONTINUOUS
10
226.8112202
20
-134.2336135
11
214.3427089
21
-146.7021249
0
LINE
8
0
6
CONTINUOUS
10
213.6356021
20
-146.7021249
11
200.4611502
21
-133.527673
0
LINE
8
0
6
CONTINUOUS
10
200.3530143
20
-133.4456002
11
184.3282609
21
-124.417779
0
LINE
8
0
6
CONTINUOUS
10
184.2075459
20
-124.3692056
11
166.6409724
21
-119.8450451
0
LINE
8
0
6
CONTINUOUS
10
166.515094
20
-119.8292461
11
147.5551394
21
-119.8738355
0
LINE
8
0
6
CONTINUOUS
10
147.0540002
20
-119.3798956
11
146.9409515
21
-110.0511192
0
LINE
8
0
6
CONTINUOUS
10
146.4438528
20
-109.5571861
11
91.5791177
21
-109.2428481
0
LINE
8
0
6
CONTINUOUS
10
204.5827781
20
-46.6566667
11
224.333
21
-46.6566667
0
LINE
8
0
6
CONTINUOUS
10
224.833
20
-47.1566667
11
224.833
21
-106.9836921
0
LINE
8
0
6
CONTINUOUS
10
224.7660127
20
-107.2336921
11
224.518
21
-107.6632627
0
ARC
8
0
6
CONTINUOUS
10
91.5800178
20
-53.4901316
40
0.5
50
89.9849198
51
180.0020398
0
ARC
8
0
6
CONTINUOUS
10
128.58
20
-52.4998684
40
0.5
50
269.9849198
51
0
0
ARC
8
0
6
CONTINUOUS
10
129.58
20
-43.9915814
40
0.5
50
89.8190654
51
180
0
ARC
8
0
6
CONTINUOUS
10
147.58
20
-43.0484186
40
0.5
50
269.8190654
51
0
0
ARC
8
0
6
CONTINUOUS
10
148.58
20
-39.363
40
0.5
50
90
51
180
0
ARC
8
0
6
CONTINUOUS
10
165.582
20
-39.363
40
0.5
50
0
51
90
0
ARC
8
0
6
CONTINUOUS
10
166.582
20
-41.4488583
40
0.5
50
180
51
270.1306746
0
ARC
8
0
6
CONTINUOUS
10
184.582
20
-42.4078084
40
0.5
50
0
51
90.1306746
0
ARC
8
0
6
CONTINUOUS
10
185.582
20
-43.9046667
40
0.5
50
180
51
270
0
ARC
8
0
6
CONTINUOUS
10
203.5822219
20
-44.9046667
40
0.5
50
0.0254393
51
90
0
ARC
8
0
6
CONTINUOUS
10
204.5827781
20
-46.1566667
40
0.5
50
180.0254393
51
270
0
ARC
8
0
6
CONTINUOUS
10
224.333
20
-47.1566667
40
0.5
50
0
51
90
0
ARC
8
0
6
CONTINUOUS
10
224.333
20
-106.9836921
40
0.5
50
329.9999999
51
0
0
ARC
8
0
6
CONTINUOUS
10
226.4576668
20
-133.8800601
40
0.5
50
315
51
5.3211707
0
ARC
8
0
6
CONTINUOUS
10
213.9891555
20
-146.3485715
40
0.5
50
225
51
315
0
ARC
8
0
6
CONTINUOUS
10
200.1075968
20
-133.8812264
40
0.5
50
45
51
60.6045152
0
ARC
8
0
6
CONTINUOUS
10
184.0828434
20
-124.8534053
40
0.5
50
60.6045152
51
75.5576875
0
ARC
8
0
6
CONTINUOUS
10
166.5162699
20
-120.3292447
40
0.5
50
75.5576875
51
90.1347483
0
ARC
8
0
6
CONTINUOUS
10
147.5539635
20
-119.3738369
40
0.5
50
180.6942929
51
270.1347483
0
ARC
8
0
6
CONTINUOUS
10
146.4409882
20
-110.0571779
40
0.5
50
0.6942929
51
89.6717392
0
ARC
8
0
6
CONTINUOUS
10
91.5819823
20
-108.7428563
40
0.5
50
180.0020397
51
269.6717392
0
CIRCLE
8
0
6
CONTINUOUS
10
109.5
20
-71.5
40
2.15
0
CIRCLE
8
0
6
CONTINUOUS
10
109.5
20
-90.5
40
2.15
0
CIRCLE
8
0
6
CONTINUOUS
10
185.468
20
-61.6526667
40
2.15
0
CIRCLE
8
0
6
CONTINUOUS
10
143.157
20
-103.615
40
2.15
0
CIRCLE
8
0
6
CONTINUOUS
10
214.3773038
20
-112.6400804
40
2.15
0
CIRCLE
8
0
6
CONTINUOUS
10
207.762
20
-94.1426667
40
1.1
0
CIRCLE
8
0
6
CONTINUOUS
10
222.194
20
-102.6616667
40
1.1
0
ENDSEC
0
EOF