0
SECTION
2
HEADER
9
$INSUNITS
70
4
0
ENDSEC
0
SECTION
2
TABLES
0
TABLE
2
LTYPE
0
LTYPE
72
65
70
0
2
CONTINUOUS
3
______
73
0
40
0
0
LTYPE
72
65
70
0
2
DASHED
3
_ _ _ 
73
2
40
7.5
49
5
49
-2.5
0
LTYPE
72
65
70
0
2
DOTTED
3
. . . 
73
2
40
1.5
49
0.5
49
-1
0
ENDTAB
0
TABLE
2
LAYER
0
ENDTAB
0
ENDSEC
0
SECTION
2
ENTITIES
0
LINE
8
0
6
CONTINUOUS
10
91.0800178
20
-53.4901494
11
91.0819823
21
-108.7428741
0
LINE
8
0
6
CONTINUOUS
10
91.5801494
20
-52.9901316
11
128.5798684
21
-52.9998684
0
LINE
8
0
6
CONTINUOUS
10
129.08
20
-52.4998684
11
129.08
21
-43.9915814
0
LINE
8
0
6
CONTINUOUS
10
129.5815789
20
-43.4915839
11
147.5784211
21
-43.5484161
0
LINE
8
0
6
CONTINUOUS
10
148.08
20
-43.0484186
11
148.08
21
-39.363
0
LINE
8
0
6
CONTINUOUS
10
148.58
20
-38.863
11
165.582
21
-38.863
0
LINE
8
0
6
CONTINUOUS
10
166.082
20
-41.4488583
11
166.082
21
-39.363
0
LINE
8
0
6
CONTINUOUS
10
166.5831403
20
-41.948857
11
184.5808597
21
-41.9078097
0
LINE
8
0
6
CONTINUOUS
10
185.082
20
-43.9046667
11
185.082
21
-42.4078084
0
LINE
8
0
6
CONTINUOUS
10
185.582
20
-44.4046667
11
203.5822219
21
-44.4046667
0
LINE
8
0
6
CONTINUOUS
10
204.0822219
20
-44.9044447
11
204.083
21
-46.6566667
0
LINE
8
0
6
CONTINUOUS
10
224.518
20
-107.6632627
11
226.955512
21
-133.8336908
0
LINE
8
0
6
CONTINUOUS
10
214.3427089
20
-146.7021249
11
226.8112202
21
-134.2336135
0
LINE
8
0
6
CONTINUOUS
10
200.4611502
20
-133.527673
11
213.6356021
21
-146.7021249
0
LINE
8
0
6
CONTINUOUS
10
184.3282609
20
-124.417779
11
200.3530143
21
-133.4456002
0
LINE
8
0
6
CONTINUOUS
10
166.6409724
20
-119.8450451
11
184.2075459
21
-124.3692056
0
LINE
8
0
6
CONTINUOUS
10
147.5551394
20
-119.8738355
11
166.515094
21
-119.8292461
0
LINE
8
0
6
CONTINUOUS
10
146.9409515
20
-110.0511192
11
147.0540002
21
-119.3798956
0
LINE
8
0
6
CONTINUOUS
10
91.5791177
20
-109.2428481
11
146.4438528
21
-109.5571861
0
LINE
8
0
6
CONTINUOUS
10
204.5827781
20
-46.6566667
11
224.333
21
-46.6566667
0
LINE
8
0
6
CONTINUOUS
10
224.833
20
-106.9836921
11
224.833
21
-47.1566667
0
LINE
8
0
6
CONTINUOUS
10
224.518
20
-107.6632627
11
224.7660127
21
-107.2336921
0
ARC
8
0
6
CONTINUOUS
10
91.5800178
20
-53.4901316
40
0.5
50
89.9849198
51
449.9849198
0
ARC
8
0
6
CONTINUOUS
10
128.58
20
-52.4998684
40
0.5
50
269.9849198
51
629.9849198
0
ARC
8
0
6
CONTINUOUS
10
129.58
20
-43.9915814
40
0.5
50
89.8190654
51
449.8190654
0
ARC
8
0
6
CONTINUOUS
10
147.58
20
-43.0484186
40
0.5
50
269.8190654
51
629.8190654
0
ARC
8
0
6
CONTINUOUS
10
148.58
20
-39.363
40
0.5
50
90
51
450
0
ARC
8
0
6
CONTINUOUS
10
165.582
20
-39.363
40
0.5
50
0
51
360
0
ARC
8
0
6
CONTINUOUS
10
166.582
20
-41.4488583
40
0.5
50
180
51
540
0
ARC
8
0
6
CONTINUOUS
10
184.582
20
-42.4078084
40
0.5
50
0
51
360
0
ARC
8
0
6
CONTINUOUS
10
185.582
20
-43.9046667
40
0.5
50
180
51
540
0
ARC
8
0
6
CONTINUOUS
10
203.5822219
20
-44.9046667
40
0.5
50
0.0254393
51
360.0254393
0
ARC
8
0
6
CONTINUOUS
10
204.5827781
20
-46.1566667
40
0.5
50
180.0254393
51
540.0254393
0
ARC
8
0
6
CONTINUOUS
10
224.333
20
-47.1566667
40
0.5
50
0
51
360
0
ARC
8
0
6
CONTINUOUS
10
224.333
20
-106.9836921
40
0.5
50
329.9999999
51
689.9999999
0
ARC
8
0
6
CONTINUOUS
10
226.4576668
20
-133.8800601
40
0.5
50
315
51
675
0
ARC
8
0
6
CONTINUOUS
10
213.9891555
20
-146.3485715
40
0.5
50
225
51
585
0
ARC
8
0
6
CONTINUOUS
10
200.1075968
20
-133.8812264
40
0.5
50
45
51
405
0
ARC
8
0
6
CONTINUOUS
10
184.0828434
20
-124.8534053
40
0.5
50
60.6045152
51
420.6045152
0
ARC
8
0
6
CONTINUOUS
10
166.5162699
20
-120.3292447
40
0.5
50
75.5576875
51
435.5576875
0
ARC
8
0
6
CONTINUOUS
10
147.5539635
20
-119.3738369
40
0.5
50
180.6942929
51
540.6942929
0
ARC
8
0
6
CONTINUOUS
10
146.4409882
20
-110.0571779
40
0.5
50
0.6942929
51
360.6942929
0
ARC
8
0
6
CONTINUOUS
10
91.5819823
20
-108.7428563
40
0.5
50
180.0020397
51
540.0020397
0
CIRCLE
8
0
6
CONTINUOUS
10
109.5
20
-71.5
40
1.1
0
CIRCLE
8
0
6
CONTINUOUS
10
109.5
20
-90.5
40
1.1
0
CIRCLE
8
0
6
CONTINUOUS
10
185.468
20
-61.6526667
40
1.1
0
CIRCLE
8
0
6
CONTINUOUS
10
143.157
20
-103.615
40
1.1
0
CIRCLE
8
0
6
CONTINUOUS
10
214.3773038
20
-112.6400804
40
1.1
0
CIRCLE
8
0
6
CONTINUOUS
10
109.5
20
-71.5
40
2.15
0
CIRCLE
8
0
6
CONTINUOUS
10
109.5
20
-90.5
40
2.15
0
CIRCLE
8
0
6
CONTINUOUS
10
185.468
20
-61.6526667
40
2.15
0
CIRCLE
8
0
6
CONTINUOUS
10
143.157
20
-103.615
40
2.15
0
CIRCLE
8
0
6
CONTINUOUS
10
214.3773038
20
-112.6400804
40
2.15
0
CIRCLE
8
0
6
CONTINUOUS
10
207.762
20
-94.1426667
40
1.1
0
CIRCLE
8
0
6
CONTINUOUS
10
222.194
20
-102.6616667
40
1.1
0
LINE
8
0
6
CONTINUOUS
10
204.083
20
-46.6568887
11
204.083
21
-95.5764348
0
LINE
8
0
6
CONTINUOUS
10
204.333
20
-96.0094475
11
224.2941282
21
-107.5340102
0
ARC
8
0
6
CONTINUOUS
10
203.583
20
-46.6568887
40
0.5
50
0
51
0.0254393
0
ARC
8
0
6
CONTINUOUS
10
204.583
20
-95.5764348
40
0.5
50
180
51
239.9999999
0
ARC
8
0
6
CONTINUOUS
10
224.0441282
20
-107.9670229
40
0.5
50
5.3211707
51
59.9999999
0
LINE
8
0
6
CONTINUOUS
10
93
20
-107
11
107
21
-107
0
LINE
8
0
6
CONTINUOUS
10
107
20
-107
11
107
21
-93
0
LINE
8
0
6
CONTINUOUS
10
107
20
-93
11
93
21
-93
0
LINE
8
0
6
CONTINUOUS
10
93
20
-93
11
93
21
-107
0
LINE
8
0
6
CONTINUOUS
10
93
20
-88
11
107
21
-88
0
LINE
8
0
6
CONTINUOUS
10
107
20
-88
11
107
21
-74
0
LINE
8
0
6
CONTINUOUS
10
107
20
-74
11
93
21
-74
0
LINE
8
0
6
CONTINUOUS
10
93
20
-74
11
93
21
-88
0
LINE
8
0
6
CONTINUOUS
10
93
20
-69
11
107
21
-69
0
LINE
8
0
6
CONTINUOUS
10
107
20
-69
11
107
21
-55
0
LINE
8
0
6
CONTINUOUS
10
107
20
-55
11
93
21
-55
0
LINE
8
0
6
CONTINUOUS
10
93
20
-55
11
93
21
-69
0
LINE
8
0
6
CONTINUOUS
10
112
20
-107
11
126
21
-107
0
LINE
8
0
6
CONTINUOUS
10
126
20
-107
11
126
21
-93
0
LINE
8
0
6
CONTINUOUS
10
126
20
-93
11
112
21
-93
0
LINE
8
0
6
CONTINUOUS
10
112
20
-93
11
112
21
-107
0
LINE
8
0
6
CONTINUOUS
10
112
20
-88
11
126
21
-88
0
LINE
8
0
6
CONTINUOUS
10
126
20
-88
11
126
21
-74
0
LINE
8
0
6
CONTINUOUS
10
126
20
-74
11
112
21
-74
0
LINE
8
0
6
CONTINUOUS
10
112
20
-74
11
112
21
-88
0
LINE
8
0
6
CONTINUOUS
10
112
20
-69
11
126
21
-69
0
LINE
8
0
6
CONTINUOUS
10
126
20
-69
11
126
21
-55
0
LINE
8
0
6
CONTINUOUS
10
126
20
-55
11
112
21
-55
0
LINE
8
0
6
CONTINUOUS
10
112
20
-55
11
112
21
-69
0
LINE
8
0
6
CONTINUOUS
10
131
20
-97.5
11
145
21
-97.5
0
LINE
8
0
6
CONTINUOUS
10
145
20
-97.5
11
145
21
-83.5
0
LINE
8
0
6
CONTINUOUS
10
145
20
-83.5
11
131
21
-83.5
0
LINE
8
0
6
CONTINUOUS
10
131
20
-83.5
11
131
21
-97.5
0
LINE
8
0
6
CONTINUOUS
10
131
20
-78.5
11
145
21
-78.5
0
LINE
8
0
6
CONTINUOUS
10
145
20
-78.5
11
145
21
-64.5
0
LINE
8
0
6
CONTINUOUS
10
145
20
-64.5
11
131
21
-64.5
0
LINE
8
0
6
CONTINUOUS
10
131
20
-64.5
11
131
21
-78.5
0
LINE
8
0
6
CONTINUOUS
10
131
20
-59.5
11
145
21
-59.5
0
LINE
8
0
6
CONTINUOUS
10
145
20
-59.5
11
145
21
-45.5
0
LINE
8
0
6
CONTINUOUS
10
145
20
-45.5
11
131
21
-45.5
0
LINE
8
0
6
CONTINUOUS
10
131
20
-45.5
11
131
21
-59.5
0
LINE
8
0
6
CONTINUOUS
10
150
20
-92.75
11
164
21
-92.75
0
LINE
8
0
6
CONTINUOUS
10
164
20
-92.75
11
164
21
-78.75
0
LINE
8
0
6
CONTINUOUS
10
164
20
-78.75
11
150
21
-78.75
0
LINE
8
0
6
CONTINUOUS
10
150
20
-78.75
11
150
21
-92.75
0
LINE
8
0
6
CONTINUOUS
10
150
20
-73.75
11
164
21
-73.75
0
LINE
8
0
6
CONTINUOUS
10
164
20
-73.75
11
164
21
-59.75
0
LINE
8
0
6
CONTINUOUS
10
164
20
-59.75
11
150
21
-59.75
0
LINE
8
0
6
CONTINUOUS
10
150
20
-59.75
11
150
21
-73.75
0
LINE
8
0
6
CONTINUOUS
10
150
20
-54.75
11
164
21
-54.75
0
LINE
8
0
6
CONTINUOUS
10
164
20
-54.75
11
164
21
-40.75
0
LINE
8
0
6
CONTINUOUS
10
164
20
-40.75
11
150
21
-40.75
0
LINE
8
0
6
CONTINUOUS
10
150
20
-40.75
11
150
21
-54.75
0
LINE
8
0
6
CONTINUOUS
10
169
20
-95.9166667
11
183
21
-95.9166667
0
LINE
8
0
6
CONTINUOUS
10
183
20
-95.9166667
11
183
21
-81.9166667
0
LINE
8
0
6
CONTINUOUS
10
183
20
-81.9166667
11
169
21
-81.9166667
0
LINE
8
0
6
CONTINUOUS
10
169
20
-81.9166667
11
169
21
-95.9166667
0
LINE
8
0
6
CONTINUOUS
10
169
20
-76.9166667
11
183
21
-76.9166667
0
LINE
8
0
6
CONTINUOUS
10
183
20
-76.9166667
11
183
21
-62.9166667
0
LINE
8
0
6
CONTINUOUS
10
183
20
-62.9166667
11
169
21
-62.9166667
0
LINE
8
0
6
CONTINUOUS
10
169
20
-62.9166667
11
169
21
-76.9166667
0
LINE
8
0
6
CONTINUOUS
10
169
20
-57.9166667
11
183
21
-57.9166667
0
LINE
8
0
6
CONTINUOUS
10
183
20
-57.9166667
11
183
21
-43.9166667
0
LINE
8
0
6
CONTINUOUS
10
183
20
-43.9166667
11
169
21
-43.9166667
0
LINE
8
0
6
CONTINUOUS
10
169
20
-43.9166667
11
169
21
-57.9166667
0
LINE
8
0
6
CONTINUOUS
10
188
20
-98.2916667
11
202
21
-98.2916667
0
LINE
8
0
6
CONTINUOUS
10
202
20
-98.2916667
11
202
21
-84.2916667
0
LINE
8
0
6
CONTINUOUS
10
202
20
-84.2916667
11
188
21
-84.2916667
0
LINE
8
0
6
CONTINUOUS
10
188
20
-84.2916667
11
188
21
-98.2916667
0
LINE
8
0
6
CONTINUOUS
10
188
20
-79.2916667
11
202
21
-79.2916667
0
LINE
8
0
6
CONTINUOUS
10
202
20
-79.2916667
11
202
21
-65.2916667
0
LINE
8
0
6
CONTINUOUS
10
202
20
-65.2916667
11
188
21
-65.2916667
0
LINE
8
0
6
CONTINUOUS
10
188
20
-65.2916667
11
188
21
-79.2916667
0
LINE
8
0
6
CONTINUOUS
10
188
20
-60.2916667
11
202
21
-60.2916667
0
LINE
8
0
6
CONTINUOUS
10
202
20
-60.2916667
11
202
21
-46.2916667
0
LINE
8
0
6
CONTINUOUS
10
202
20
-46.2916667
11
188
21
-46.2916667
0
LINE
8
0
6
CONTINUOUS
10
188
20
-46.2916667
11
188
21
-60.2916667
0
LINE
8
0
6
CONTINUOUS
10
150
20
-117.75
11
164
21
-117.75
0
LINE
8
0
6
CONTINUOUS
10
164
20
-117.75
11
164
21
-103.75
0
LINE
8
0
6
CONTINUOUS
10
164
20
-103.75
11
150
21
-103.75
0
LINE
8
0
6
CONTINUOUS
10
150
20
-103.75
11
150
21
-117.75
0
LINE
8
0
6
CONTINUOUS
10
169.0267859
20
-118.1997475
11
182.5497475
21
-121.8232141
0
LINE
8
0
6
CONTINUOUS
10
182.5497475
20
-121.8232141
11
186.1732141
21
-108.3002525
0
LINE
8
0
6
CONTINUOUS
10
186.1732141
20
-108.3002525
11
172.6502525
21
-104.6767859
0
LINE
8
0
6
CONTINUOUS
10
172.6502525
20
-104.6767859
11
169.0267859
21
-118.1997475
0
LINE
8
0
6
CONTINUOUS
10
187.2888466
20
-123.5586647
11
199.4132022
21
-130.5586647
0
LINE
8
0
6
CONTINUOUS
10
199.4132022
20
-130.5586647
11
206.4132022
21
-118.4343091
0
LINE
8
0
6
CONTINUOUS
10
206.4132022
20
-118.4343091
11
194.2888466
21
-111.4343091
0
LINE
8
0
6
CONTINUOUS
10
194.2888466
20
-111.4343091
11
187.2888466
21
-123.5586647
0
LINE
8
0
6
CONTINUOUS
10
203.5416528
20
-133.4615504
11
213.4411477
21
-143.3610453
0
LINE
8
0
6
CONTINUOUS
10
213.4411477
20
-143.3610453
11
223.3406426
21
-133.4615504
0
LINE
8
0
6
CONTINUOUS
10
223.3406426
20
-133.4615504
11
213.4411477
21
-123.5620555
0
LINE
8
0
6
CONTINUOUS
10
213.4411477
20
-123.5620555
11
203.5416528
21
-133.4615504
0
LINE
8
0
6
CONTINUOUS
10
205.113
20
-95.4436443
11
205.113
21
-47.1566667
0
LINE
8
0
6
CONTINUOUS
10
224.083
20
-106.684654
11
205.363
21
-95.876657
0
ARC
8
0
6
CONTINUOUS
10
205.613
20
-47.1566667
40
0.5
50
90
51
180
0
ARC
8
0
6
CONTINUOUS
10
224.333
20
-106.2516413
40
0.5
50
239.9999999
51
0
0
ARC
8
0
6
CONTINUOUS
10
205.613
20
-95.4436443
40
0.5
50
180
51
239.9999999
0
LINE
8
0
6
CONTINUOUS
10
93
20
-109
11
107
21
-109
0
LINE
8
0
6
CONTINUOUS
10
109
20
-107
11
109
21
-93
0
LINE
8
0
6
CONTINUOUS
10
107
20
-91
11
93
21
-91
0
LINE
8
0
6
CONTINUOUS
10
91
20
-93
11
91
21
-107
0
LINE
8
0
6
CONTINUOUS
10
93
20
-90
11
107
21
-90
0
LINE
8
0
6
CONTINUOUS
10
109
20
-88
11
109
21
-74
0
LINE
8
0
6
CONTINUOUS
10
107
20
-72
11
93
21
-72
0
LINE
8
0
6
CONTINUOUS
10
91
20
-74
11
91
21
-88
0
LINE
8
0
6
CONTINUOUS
10
93
20
-71
11
107
21
-71
0
LINE
8
0
6
CONTINUOUS
10
109
20
-69
11
109
21
-55
0
LINE
8
0
6
CONTINUOUS
10
107
20
-53
11
93
21
-53
0
LINE
8
0
6
CONTINUOUS
10
91
20
-55
11
91
21
-69
0
LINE
8
0
6
CONTINUOUS
10
112
20
-109
11
126
21
-109
0
LINE
8
0
6
CONTINUOUS
10
128
20
-107
11
128
21
-93
0
LINE
8
0
6
CONTINUOUS
10
126
20
-91
11
112
21
-91
0
LINE
8
0
6
CONTINUOUS
10
110
20
-93
11
110
21
-107
0
LINE
8
0
6
CONTINUOUS
10
112
20
-90
11
126
21
-90
0
LINE
8
0
6
CONTINUOUS
10
128
20
-88
11
128
21
-74
0
LINE
8
0
6
CONTINUOUS
10
126
20
-72
11
112
21
-72
0
LINE
8
0
6
CONTINUOUS
10
110
20
-74
11
110
21
-88
0
LINE
8
0
6
CONTINUOUS
10
112
20
-71
11
126
21
-71
0
LINE
8
0
6
CONTINUOUS
10
128
20
-69
11
128
21
-55
0
LINE
8
0
6
CONTINUOUS
10
126
20
-53
11
112
21
-53
0
LINE
8
0
6
CONTINUOUS
10
110
20
-55
11
110
21
-69
0
LINE
8
0
6
CONTINUOUS
10
131
20
-99.5
11
145
21
-99.5
0
LINE
8
0
6
CONTINUOUS
10
147
20
-97.5
11
147
21
-83.5
0
LINE
8
0
6
CONTINUOUS
10
145
20
-81.5
11
131
21
-81.5
0
LINE
8
0
6
CONTINUOUS
10
129
20
-83.5
11
129
21
-97.5
0
LINE
8
0
6
CONTINUOUS
10
131
20
-80.5
11
145
21
-80.5
0
LINE
8
0
6
CONTINUOUS
10
147
20
-78.5
11
147
21
-64.5
0
LINE
8
0
6
CONTINUOUS
10
145
20
-62.5
11
131
21
-62.5
0
LINE
8
0
6
CONTINUOUS
10
129
20
-64.5
11
129
21
-78.5
0
LINE
8
0
6
CONTINUOUS
10
131
20
-61.5
11
145
21
-61.5
0
LINE
8
0
6
CONTINUOUS
10
147
20
-59.5
11
147
21
-45.5
0
LINE
8
0
6
CONTINUOUS
10
145
20
-43.5
11
131
21
-43.5
0
LINE
8
0
6
CONTINUOUS
10
129
20
-45.5
11
129
21
-59.5
0
LINE
8
0
6
CONTINUOUS
10
150
20
-94.75
11
164
21
-94.75
0
LINE
8
0
6
CONTINUOUS
10
166
20
-92.75
11
166
21
-78.75
0
LINE
8
0
6
CONTINUOUS
10
164
20
-76.75
11
150
21
-76.75
0
LINE
8
0
6
CONTINUOUS
10
148
20
-78.75
11
148
21
-92.75
0
LINE
8
0
6
CONTINUOUS
10
150
20
-75.75
11
164
21
-75.75
0
LINE
8
0
6
CONTINUOUS
10
166
20
-73.75
11
166
21
-59.75
0
LINE
8
0
6
CONTINUOUS
10
164
20
-57.75
11
150
21
-57.75
0
LINE
8
0
6
CONTINUOUS
10
148
20
-59.75
11
148
21
-73.75
0
LINE
8
0
6
CONTINUOUS
10
150
20
-56.75
11
164
21
-56.75
0
LINE
8
0
6
CONTINUOUS
10
166
20
-54.75
11
166
21
-40.75
0
LINE
8
0
6
CONTINUOUS
10
164
20
-38.75
11
150
21
-38.75
0
LINE
8
0
6
CONTINUOUS
10
148
20
-40.75
11
148
21
-54.75
0
LINE
8
0
6
CONTINUOUS
10
169
20
-97.9166667
11
183
21
-97.9166667
0
LINE
8
0
6
CONTINUOUS
10
185
20
-95.9166667
11
185
21
-81.9166667
0
LINE
8
0
6
CONTINUOUS
10
183
20
-79.9166667
11
169
21
-79.9166667
0
LINE
8
0
6
CONTINUOUS
10
167
20
-81.9166667
11
167
21
-95.9166667
0
LINE
8
0
6
CONTINUOUS
10
169
20
-78.9166667
11
183
21
-78.9166667
0
LINE
8
0
6
CONTINUOUS
10
185
20
-76.9166667
11
185
21
-62.9166667
0
LINE
8
0
6
CONTINUOUS
10
183
20
-60.9166667
11
169
21
-60.9166667
0
LINE
8
0
6
CONTINUOUS
10
167
20
-62.9166667
11
167
21
-76.9166667
0
LINE
8
0
6
CONTINUOUS
10
169
20
-59.9166667
11
183
21
-59.9166667
0
LINE
8
0
6
CONTINUOUS
10
185
20
-57.9166667
11
185
21
-43.9166667
0
LINE
8
0
6
CONTINUOUS
10
183
20
-41.9166667
11
169
21
-41.9166667
0
LINE
8
0
6
CONTINUOUS
10
167
20
-43.9166667
11
167
21
-57.9166667
0
LINE
8
0
6
CONTINUOUS
10
188
20
-100.2916667
11
202
21
-100.2916667
0
LINE
8
0
6
CONTINUOUS
10
204
20
-98.2916667
11
204
21
-84.2916667
0
LINE
8
0
6
CONTINUOUS
10
202
20
-82.2916667
11
188
21
-82.2916667
0
LINE
8
0
6
CONTINUOUS
10
186
20
-84.2916667
11
186
21
-98.2916667
0
LINE
8
0
6
CONTINUOUS
10
188
20
-81.2916667
11
202
21
-81.2916667
0
LINE
8
0
6
CONTINUOUS
10
204
20
-79.2916667
11
204
21
-65.2916667
0
LINE
8
0
6
CONTINUOUS
10
202
20
-63.2916667
11
188
21
-63.2916667
0
LINE
8
0
6
CONTINUOUS
10
186
20
-65.2916667
11
186
21
-79.2916667
0
LINE
8
0
6
CONTINUOUS
10
188
20
-62.2916667
11
202
21
-62.2916667
0
LINE
8
0
6
CONTINUOUS
10
204
20
-60.2916667
11
204
21
-46.2916667
0
LINE
8
0
6
CONTINUOUS
10
202
20
-44.2916667
11
188
21
-44.2916667
0
LINE
8
0
6
CONTINUOUS
10
186
20
-46.2916667
11
186
21
-60.2916667
0
LINE
8
0
6
CONTINUOUS
10
150
20
-119.75
11
164
21
-119.75
0
LINE
8
0
6
CONTINUOUS
10
166
20
-117.75
11
166
21
-103.75
0
LINE
8
0
6
CONTINUOUS
10
164
20
-101.75
11
150
21
-101.75
0
LINE
8
0
6
CONTINUOUS
10
148
20
-103.75
11
148
21
-117.75
0
LINE
8
0
6
CONTINUOUS
10
168.509148
20
-120.1315991
11
182.0321094
21
-123.7550657
0
LINE
8
0
6
CONTINUOUS
10
184.4815991
20
-122.340852
11
188.1050657
21
-108.8178906
0
LINE
8
0
6
CONTINUOUS
10
186.690852
20
-106.3684009
11
173.1678906
21
-102.7449343
0
LINE
8
0
6
CONTINUOUS
10
170.7184009
20
-104.159148
11
167.0949343
21
-117.6821094
0
LINE
8
0
6
CONTINUOUS
10
186.2888466
20
-125.2907155
11
198.4132022
21
-132.2907155
0
LINE
8
0
6
CONTINUOUS
10
201.145253
20
-131.5586647
11
208.145253
21
-119.4343091
0
LINE
8
0
6
CONTINUOUS
10
207.4132022
20
-116.7022583
11
195.2888466
21
-109.7022583
0
LINE
8
0
6
CONTINUOUS
10
192.5567958
20
-110.4343091
11
185.5567958
21
-122.5586647
0
LINE
8
0
6
CONTINUOUS
10
202.1274392
20
-134.875764
11
212.0269341
21
-144.7752589
0
LINE
8
0
6
CONTINUOUS
10
214.8553613
20
-144.7752589
11
224.7548562
21
-134.875764
0
LINE
8
0
6
CONTINUOUS
10
224.7548562
20
-132.0473368
11
214.8553613
21
-122.1478419
0
LINE
8
0
6
CONTINUOUS
10
212.0269341
20
-122.1478419
11
202.1274392
21
-132.0473368
0
ARC
8
0
6
CONTINUOUS
10
213.4411477
20
-143.3610453
40
2
50
225
51
315
0
ARC
8
0
6
CONTINUOUS
10
223.3406426
20
-133.4615504
40
2
50
315
51
45
0
ARC
8
0
6
CONTINUOUS
10
213.4411477
20
-123.5620555
40
2
50
45
51
135
0
ARC
8
0
6
CONTINUOUS
10
203.5416528
20
-133.4615504
40
2
50
135
51
225
0
ARC
8
0
6
CONTINUOUS
10
107
20
-107
40
2
50
270
51
0
0
ARC
8
0
6
CONTINUOUS
10
107
20
-93
40
2
50
0
51
90
0
ARC
8
0
6
CONTINUOUS
10
93
20
-93
40
2
50
90
51
180
0
ARC
8
0
6
CONTINUOUS
10
93
20
-107
40
2
50
180
51
270
0
ARC
8
0
6
CONTINUOUS
10
107
20
-88
40
2
50
270
51
0
0
ARC
8
0
6
CONTINUOUS
10
107
20
-74
40
2
50
0
51
90
0
ARC
8
0
6
CONTINUOUS
10
93
20
-74
40
2
50
90
51
180
0
ARC
8
0
6
CONTINUOUS
10
93
20
-88
40
2
50
180
51
270
0
ARC
8
0
6
CONTINUOUS
10
107
20
-69
40
2
50
270
51
0
0
ARC
8
0
6
CONTINUOUS
10
107
20
-55
40
2
50
0
51
90
0
ARC
8
0
6
CONTINUOUS
10
93
20
-55
40
2
50
90
51
180
0
ARC
8
0
6
CONTINUOUS
10
93
20
-69
40
2
50
180
51
270
0
ARC
8
0
6
CONTINUOUS
10
126
20
-107
40
2
50
270
51
0
0
ARC
8
0
6
CONTINUOUS
10
126
20
-93
40
2
50
0
51
90
0
ARC
8
0
6
CONTINUOUS
10
112
20
-93
40
2
50
90
51
180
0
ARC
8
0
6
CONTINUOUS
10
112
20
-107
40
2
50
180
51
270
0
ARC
8
0
6
CONTINUOUS
10
126
20
-88
40
2
50
270
51
0
0
ARC
8
0
6
CONTINUOUS
10
126
20
-74
40
2
50
0
51
90
0
ARC
8
0
6
CONTINUOUS
10
112
20
-74
40
2
50
90
51
180
0
ARC
8
0
6
CONTINUOUS
10
112
20
-88
40
2
50
180
51
270
0
ARC
8
0
6
CONTINUOUS
10
126
20
-69
40
2
50
270
51
0
0
ARC
8
0
6
CONTINUOUS
10
126
20
-55
40
2
50
0
51
90
0
ARC
8
0
6
CONTINUOUS
10
112
20
-55
40
2
50
90
51
180
0
ARC
8
0
6
CONTINUOUS
10
112
20
-69
40
2
50
180
51
270
0
ARC
8
0
6
CONTINUOUS
10
145
20
-97.5
40
2
50
270
51
0
0
ARC
8
0
6
CONTINUOUS
10
145
20
-83.5
40
2
50
0
51
90
0
ARC
8
0
6
CONTINUOUS
10
131
20
-83.5
40
2
50
90
51
180
0
ARC
8
0
6
CONTINUOUS
10
131
20
-97.5
40
2
50
180
51
270
0
ARC
8
0
6
CONTINUOUS
10
145
20
-78.5
40
2
50
270
51
0
0
ARC
8
0
6
CONTINUOUS
10
145
20
-64.5
40
2
50
0
51
90
0
ARC
8
0
6
CONTINUOUS
10
131
20
-64.5
40
2
50
90
51
180
0
ARC
8
0
6
CONTINUOUS
10
131
20
-78.5
40
2
50
180
51
270
0
ARC
8
0
6
CONTINUOUS
10
145
20
-59.5
40
2
50
270
51
0
0
ARC
8
0
6
CONTINUOUS
10
145
20
-45.5
40
2
50
0
51
90
0
ARC
8
0
6
CONTINUOUS
10
131
20
-45.5
40
2
50
90
51
180
0
ARC
8
0
6
CONTINUOUS
10
131
20
-59.5
40
2
50
180
51
270
0
ARC
8
0
6
CONTINUOUS
10
164
20
-92.75
40
2
50
270
51
0
0
ARC
8
0
6
CONTINUOUS
10
164
20
-78.75
40
2
50
0
51
90
0
ARC
8
0
6
CONTINUOUS
10
150
20
-78.75
40
2
50
90
51
180
0
ARC
8
0
6
CONTINUOUS
10
150
20
-92.75
40
2
50
180
51
270
0
ARC
8
0
6
CONTINUOUS
10
164
20
-73.75
40
2
50
270
51
0
0
ARC
8
0
6
CONTINUOUS
10
164
20
-59.75
40
2
50
0
51
90
0
ARC
8
0
6
CONTINUOUS
10
150
20
-59.75
40
2
50
90
51
180
0
ARC
8
0
6
CONTINUOUS
10
150
20
-73.75
40
2
50
180
51
270
0
ARC
8
0
6
CONTINUOUS
10
164
20
-54.75
40
2
50
270
51
0
0
ARC
8
0
6
CONTINUOUS
10
164
20
-40.75
40
2
50
0
51
90
0
ARC
8
0
6
CONTINUOUS
10
150
20
-40.75
40
2
50
90
51
180
0
ARC
8
0
6
CONTINUOUS
10
150
20
-54.75
40
2
50
180
51
270
0
ARC
8
0
6
CONTINUOUS
10
183
20
-95.9166667
40
2
50
270
51
0
0
ARC
8
0
6
CONTINUOUS
10
183
20
-81.9166667
40
2
50
0
51
90
0
ARC
8
0
6
CONTINUOUS
10
169
20
-81.9166667
40
2
50
90
51
180
0
ARC
8
0
6
CONTINUOUS
10
169
20
-95.9166667
40
2
50
180
51
270
0
ARC
8
0
6
CONTINUOUS
10
183
20
-76.9166667
40
2
50
270
51
0
0
ARC
8
0
6
CONTINUOUS
10
183
20
-62.9166667
40
2
50
0
51
90
0
ARC
8
0
6
CONTINUOUS
10
169
20
-62.9166667
40
2
50
90
51
180
0
ARC
8
0
6
CONTINUOUS
10
169
20
-76.9166667
40
2
50
180
51
270
0
ARC
8
0
6
CONTINUOUS
10
183
20
-57.9166667
40
2
50
270
51
0
0
ARC
8
0
6
CONTINUOUS
10
183
20
-43.9166667
40
2
50
0
51
90
0
ARC
8
0
6
CONTINUOUS
10
169
20
-43.9166667
40
2
50
90
51
180
0
ARC
8
0
6
CONTINUOUS
10
169
20
-57.9166667
40
2
50
180
51
270
0
ARC
8
0
6
CONTINUOUS
10
202
20
-98.2916667
40
2
50
270
51
0
0
ARC
8
0
6
CONTINUOUS
10
202
20
-84.2916667
40
2
50
0
51
90
0
ARC
8
0
6
CONTINUOUS
10
188
20
-84.2916667
40
2
50
90
51
180
0
ARC
8
0
6
CONTINUOUS
10
188
20
-98.2916667
40
2
50
180
51
270
0
ARC
8
0
6
CONTINUOUS
10
202
20
-79.2916667
40
2
50
270
51
0
0
ARC
8
0
6
CONTINUOUS
10
202
20
-65.2916667
40
2
50
0
51
90
0
ARC
8
0
6
CONTINUOUS
10
188
20
-65.2916667
40
2
50
90
51
180
0
ARC
8
0
6
CONTINUOUS
10
188
20
-79.2916667
40
2
50
180
51
270
0
ARC
8
0
6
CONTINUOUS
10
202
20
-60.2916667
40
2
50
270
51
0
0
ARC
8
0
6
CONTINUOUS
10
202
20
-46.2916667
40
2
50
0
51
90
0
ARC
8
0
6
CONTINUOUS
10
188
20
-46.2916667
40
2
50
90
51
180
0
ARC
8
0
6
CONTINUOUS
10
188
20
-60.2916667
40
2
50
180
51
270
0
ARC
8
0
6
CONTINUOUS
10
164
20
-117.75
40
2
50
270
51
0
0
ARC
8
0
6
CONTINUOUS
10
164
20
-103.75
40
2
50
0
51
90
0
ARC
8
0
6
CONTINUOUS
10
150
20
-103.75
40
2
50
90
51
180
0
ARC
8
0
6
CONTINUOUS
10
150
20
-117.75
40
2
50
180
51
270
0
ARC
8
0
6
CONTINUOUS
10
199.4132022
20
-130.5586647
40
2
50
239.9999999
51
329.9999999
0
ARC
8
0
6
CONTINUOUS
10
206.4132022
20
-118.4343091
40
2
50
329.9999999
51
59.9999999
0
ARC
8
0
6
CONTINUOUS
10
194.2888466
20
-111.4343091
40
2
50
59.9999999
51
149.9999999
0
ARC
8
0
6
CONTINUOUS
10
187.2888466
20
-123.5586647
40
2
50
149.9999999
51
239.9999999
0
ARC
8
0
6
CONTINUOUS
10
182.5497474
20
-121.823214
40
2
50
255.0000021
51
345.0000021
0
ARC
8
0
6
CONTINUOUS
10
186.173214
20
-108.3002526
40
2
50
345.0000021
51
75.0000021
0
ARC
8
0
6
CONTINUOUS
10
172.6502526
20
-104.676786
40
2
50
75.0000021
51
165.0000021
0
ARC
8
0
6
CONTINUOUS
10
169.026786
20
-118.1997474
40
2
50
165.0000021
51
255.0000021
0
LINE
8
0
6
CONTINUOUS
10
89.63
20
-52.9900516
11
89.632
21
-109.2400516
0
LINE
8
0
6
CONTINUOUS
10
89.6299662
20
-52.0397678
11
89.63
21
-52.9900516
0
LINE
8
0
6
CONTINUOUS
10
90.1300978
20
-51.53975
11
127.1298684
21
-51.5494868
0
LINE
8
0
6
CONTINUOUS
10
127.63
20
-51.0494868
11
127.63
21
-42.5369952
0
LINE
8
0
6
CONTINUOUS
10
128.1315789
20
-42.0369977
11
146.1284211
21
-42.0938299
0
LINE
8
0
6
CONTINUOUS
10
146.63
20
-41.5938324
11
146.63
21
-37.913
0
LINE
8
0
6
CONTINUOUS
10
147.13
20
-37.413
11
167.032
21
-37.413
0
LINE
8
0
6
CONTINUOUS
10
167.532
20
-39.9955476
11
167.532
21
-37.913
0
LINE
8
0
6
CONTINUOUS
10
168.0331403
20
-40.4955463
11
186.0308596
21
-40.4544989
0
LINE
8
0
6
CONTINUOUS
10
186.532
20
-42.4546667
11
186.532
21
-40.9544976
0
LINE
8
0
6
CONTINUOUS
10
187.032
20
-42.9546667
11
205.0315782
21
-42.9546667
0
LINE
8
0
6
CONTINUOUS
10
205.5315782
20
-43.4544446
11
205.5319999
21
-44.4040228
0
LINE
8
0
6
CONTINUOUS
10
205.5319999
20
-44.4040228
11
205.5321344
21
-44.7068887
0
LINE
8
0
6
CONTINUOUS
10
206.0321344
20
-45.2066667
11
225.783
21
-45.2066667
0
LINE
8
0
6
CONTINUOUS
10
226.283
20
-107.506193
11
226.283
21
-45.7066667
0
LINE
8
0
6
CONTINUOUS
10
226.0045644
20
-107.9884575
11
226.283
21
-107.506193
0
LINE
8
0
6
CONTINUOUS
10
226.0045644
20
-107.9884575
11
228.421044
21
-133.93307
0
LINE
8
0
6
CONTINUOUS
10
228.421044
20
-133.93307
11
228.4624275
21
-134.377385
0
LINE
8
0
6
CONTINUOUS
10
214.3427089
20
-148.7527345
11
228.3181356
21
-134.7773077
0
LINE
8
0
6
CONTINUOUS
10
199.5763359
20
-134.6934683
11
213.6356021
21
-148.7527345
0
LINE
8
0
6
CONTINUOUS
10
183.7823436
20
-125.7744978
11
199.4682001
21
-134.6113955
0
LINE
8
0
6
CONTINUOUS
10
166.4589288
20
-121.2954772
11
183.6616286
21
-125.7259244
0
LINE
8
0
6
CONTINUOUS
10
146.1226453
20
-121.3272085
11
166.3330503
21
-121.2796782
0
LINE
8
0
6
CONTINUOUS
10
145.6101065
20
-119.8925702
11
145.6215061
21
-120.8332685
0
LINE
8
0
6
CONTINUOUS
10
145.5083174
20
-111.4929349
11
145.6101065
21
-119.8925702
0
LINE
8
0
6
CONTINUOUS
10
90.129169
20
-110.6845647
11
145.0112187
21
-110.9990018
0
LINE
8
0
6
CONTINUOUS
10
89.632
20
-109.2400516
11
89.6320336
21
-110.1845907
0
ARC
8
0
6
CONTINUOUS
10
90.1299662
20
-52.03975
40
0.5
50
89.9849198
51
449.9849198
0
ARC
8
0
6
CONTINUOUS
10
127.13
20
-51.0494868
40
0.5
50
269.9849198
51
629.9849198
0
ARC
8
0
6
CONTINUOUS
10
128.13
20
-42.5369952
40
0.5
50
89.8190654
51
449.8190654
0
ARC
8
0
6
CONTINUOUS
10
146.13
20
-41.5938324
40
0.5
50
269.8190654
51
629.8190654
0
ARC
8
0
6
CONTINUOUS
10
147.13
20
-37.913
40
0.5
50
90
51
450
0
ARC
8
0
6
CONTINUOUS
10
167.032
20
-37.913
40
0.5
50
0
51
360
0
ARC
8
0
6
CONTINUOUS
10
168.032
20
-39.9955476
40
0.5
50
180
51
540
0
ARC
8
0
6
CONTINUOUS
10
186.032
20
-40.9544976
40
0.5
50
0
51
360
0
ARC
8
0
6
CONTINUOUS
10
187.032
20
-42.4546667
40
0.5
50
180
51
540
0
ARC
8
0
6
CONTINUOUS
10
205.0315782
20
-43.4546667
40
0.5
50
0.0254451
51
360.0254451
0
ARC
8
0
6
CONTINUOUS
10
206.0321344
20
-44.7066667
40
0.5
50
180.0254393
51
540.0254393
0
ARC
8
0
6
CONTINUOUS
10
225.783
20
-45.7066667
40
0.5
50
0
51
360
0
ARC
8
0
6
CONTINUOUS
10
227.9645823
20
-134.4237543
40
0.5
50
314.9999919
51
674.9999919
0
ARC
8
0
6
CONTINUOUS
10
213.9891555
20
-148.3991812
40
0.5
50
224.9999959
51
584.9999959
0
ARC
8
0
6
CONTINUOUS
10
199.2227825
20
-135.0470217
40
0.5
50
45
51
405
0
ARC
8
0
6
CONTINUOUS
10
183.536926
20
-126.210124
40
0.5
50
60.6045152
51
420.6045152
0
ARC
8
0
6
CONTINUOUS
10
166.3342262
20
-121.7796768
40
0.5
50
75.5576875
51
435.5576875
0
ARC
8
0
6
CONTINUOUS
10
146.1214694
20
-120.8272099
40
0.5
50
180.6942871
51
540.6942871
0
ARC
8
0
6
CONTINUOUS
10
145.0083541
20
-111.4989936
40
0.5
50
0.6942929
51
360.6942929
0
ARC
8
0
6
CONTINUOUS
10
90.1320336
20
-110.1845729
40
0.5
50
180.0020398
51
540.0020398
0
LINE
8
0
6
CONTINUOUS
10
90.832
20
-109.2400089
11
90.83
21
-52.9900089
0
LINE
8
0
6
CONTINUOUS
10
90.8299911
20
-52.7399342
11
90.83
21
-52.9900089
0
LINE
8
0
6
CONTINUOUS
10
90.8299911
20
-52.7399342
11
128.3298684
21
-52.7498026
0
LINE
8
0
6
CONTINUOUS
10
128.83
20
-52.2498026
11
128.83
21
-43.2392092
0
LINE
8
0
6
CONTINUOUS
10
128.83
20
-43.2392092
11
147.3284211
21
-43.2976253
0
LINE
8
0
6
CONTINUOUS
10
147.83
20
-42.7976278
11
147.83
21
-38.613
0
LINE
8
0
6
CONTINUOUS
10
147.83
20
-38.613
11
166.332
21
-38.613
0
LINE
8
0
6
CONTINUOUS
10
166.332
20
-41.1982876
11
166.332
21
-38.613
0
LINE
8
0
6
CONTINUOUS
10
166.8331403
20
-41.6982863
11
185.332
21
-41.6560959
0
LINE
8
0
6
CONTINUOUS
10
185.332
20
-43.6546667
11
185.332
21
-41.6560959
0
LINE
8
0
6
CONTINUOUS
10
185.832
20
-44.1546667
11
204.331889
21
-44.1546667
0
LINE
8
0
6
CONTINUOUS
10
204.332
20
-44.4045557
11
204.331889
21
-44.1546667
0
LINE
8
0
6
CONTINUOUS
10
204.332
20
-44.4045557
11
204.3326671
21
-45.9068887
0
LINE
8
0
6
CONTINUOUS
10
204.8326671
20
-46.4066667
11
225.083
21
-46.4066667
0
LINE
8
0
6
CONTINUOUS
10
225.083
20
-107.184654
11
225.083
21
-46.4066667
0
LINE
8
0
6
CONTINUOUS
10
224.8538999
20
-107.5814671
11
225.083
21
-107.184654
0
LINE
8
0
6
CONTINUOUS
10
224.7890674
20
-107.8778364
11
227.2262154
21
-134.0443563
0
LINE
8
0
6
CONTINUOUS
10
227.2371058
20
-134.1612813
11
227.2262154
21
-134.0443563
0
LINE
8
0
6
CONTINUOUS
10
213.9891555
20
-147.4092317
11
227.2371058
21
-134.1612813
0
LINE
8
0
6
CONTINUOUS
10
200.308596
20
-133.7286722
11
213.9891555
21
-147.4092317
0
LINE
8
0
6
CONTINUOUS
10
200.2004601
20
-133.6465993
11
184.2341372
21
-124.651696
0
LINE
8
0
6
CONTINUOUS
10
184.1134222
20
-124.6031227
11
166.6095856
21
-120.0951196
0
LINE
8
0
6
CONTINUOUS
10
146.8130182
20
-120.1255815
11
166.4837071
21
-120.0793206
0
LINE
8
0
6
CONTINUOUS
10
146.8100184
20
-119.8780293
11
146.8130182
21
-120.1255815
0
LINE
8
0
6
CONTINUOUS
10
146.8100184
20
-119.8780293
11
146.6939457
21
-110.2997081
0
LINE
8
0
6
CONTINUOUS
10
90.8320088
20
-109.4885718
11
146.196847
21
-109.805775
0
LINE
8
0
6
CONTINUOUS
10
90.832
20
-109.2400089
11
90.8320088
21
-109.4885718
0
ARC
8
0
6
CONTINUOUS
10
128.33
20
-52.2498026
40
0.5
50
269.9849198
51
0
0
ARC
8
0
6
CONTINUOUS
10
147.33
20
-42.7976278
40
0.5
50
269.8190654
51
0
0
ARC
8
0
6
CONTINUOUS
10
166.832
20
-41.1982876
40
0.5
50
180
51
270.1306746
0
ARC
8
0
6
CONTINUOUS
10
185.832
20
-43.6546667
40
0.5
50
180
51
270
0
ARC
8
0
6
CONTINUOUS
10
204.8326671
20
-45.9066667
40
0.5
50
180.0254393
51
270
0
ARC
8
0
6
CONTINUOUS
10
225.2869126
20
-107.8314671
40
0.5
50
149.9999999
51
185.3211707
0
ARC
8
0
6
CONTINUOUS
10
199.9550426
20
-134.0822256
40
0.5
50
45
51
60.6045152
0
ARC
8
0
6
CONTINUOUS
10
183.9887197
20
-125.0873223
40
0.5
50
60.6045152
51
75.5576875
0
ARC
8
0
6
CONTINUOUS
10
166.484883
20
-120.5793192
40
0.5
50
75.5576875
51
90.1347483
0
ARC
8
0
6
CONTINUOUS
10
146.1939824
20
-110.3057668
40
0.5
50
0.6942929
51
89.6717392
0
LINE
8
0
6
CONTINUOUS
10
93.4818975
20
-106.3565847
11
93.4801031
21
-55.8907811
0
LINE
8
0
6
CONTINUOUS
10
93.9802347
20
-55.3907633
11
130.9798684
21
-55.4005001
0
LINE
8
0
6
CONTINUOUS
10
131.48
20
-54.9005001
11
131.48
21
-46.3991723
0
LINE
8
0
6
CONTINUOUS
10
131.9815789
20
-45.8991748
11
149.9784211
21
-45.956007
0
LINE
8
0
6
CONTINUOUS
10
150.48
20
-45.4560095
11
150.48
21
-41.763
0
LINE
8
0
6
CONTINUOUS
10
150.98
20
-41.263
11
163.182
21
-41.263
0
LINE
8
0
6
CONTINUOUS
10
163.682
20
-43.8543383
11
163.682
21
-41.763
0
LINE
8
0
6
CONTINUOUS
10
164.1831404
20
-44.354337
11
182.682
21
-44.3121467
0
LINE
8
0
6
CONTINUOUS
10
182.682
20
-46.3046667
11
182.682
21
-44.3121467
0
LINE
8
0
6
CONTINUOUS
10
183.182
20
-46.8046667
11
201.2175064
21
-46.8046667
0
LINE
8
0
6
CONTINUOUS
10
201.7165548
20
-47.2738334
11
201.7977187
21
-48.5875
0
LINE
8
0
6
CONTINUOUS
10
202.2967671
20
-49.0566667
11
221.933
21
-49.0566667
0
LINE
8
0
6
CONTINUOUS
10
222.433
20
-49.5566667
11
222.433
21
-106.342152
0
LINE
8
0
6
CONTINUOUS
10
222.367375
20
-106.5897775
11
222.1362437
21
-106.995219
0
LINE
8
0
6
CONTINUOUS
10
222.0727735
20
-107.2892137
11
224.4613071
21
-132.9337832
0
LINE
8
0
6
CONTINUOUS
10
224.3170153
20
-133.3337058
11
214.3427089
21
-143.3080123
0
LINE
8
0
6
CONTINUOUS
10
201.8772257
20
-131.5496359
11
213.6356021
21
-143.3080123
0
LINE
8
0
6
CONTINUOUS
10
185.1746781
20
-122.1399677
11
201.8772257
21
-131.5496359
0
LINE
8
0
6
CONTINUOUS
10
166.8803573
20
-117.4283804
11
185.1746781
21
-122.1399677
0
LINE
8
0
6
CONTINUOUS
10
149.9261641
20
-117.4682528
11
166.8803573
21
-117.4283804
0
LINE
8
0
6
CONTINUOUS
10
149.4250249
20
-116.9743129
11
149.3348238
21
-109.5309183
0
LINE
8
0
6
CONTINUOUS
10
149.3348238
20
-109.5309183
11
149.312208
21
-107.6646655
0
LINE
8
0
6
CONTINUOUS
10
93.9790329
20
-106.8565587
11
148.8151094
21
-107.1707324
0
ARC
8
0
6
CONTINUOUS
10
93.9801031
20
-55.8907633
40
0.5
50
89.9849198
51
180.0020397
0
ARC
8
0
6
CONTINUOUS
10
130.98
20
-54.9005001
40
0.5
50
269.9849198
51
0
0
ARC
8
0
6
CONTINUOUS
10
131.98
20
-46.3991723
40
0.5
50
89.8190654
51
180
0
ARC
8
0
6
CONTINUOUS
10
149.98
20
-45.4560095
40
0.5
50
269.8190654
51
0
0
ARC
8
0
6
CONTINUOUS
10
150.98
20
-41.763
40
0.5
50
90
51
180
0
ARC
8
0
6
CONTINUOUS
10
163.182
20
-41.763
40
0.5
50
0
51
90
0
ARC
8
0
6
CONTINUOUS
10
164.182
20
-43.8543383
40
0.5
50
180
51
270.1306746
0
ARC
8
0
6
CONTINUOUS
10
183.182
20
-46.3046667
40
0.5
50
180
51
270
0
ARC
8
0
6
CONTINUOUS
10
201.2175064
20
-47.3046667
40
0.5
50
3.5354791
51
90
0
ARC
8
0
6
CONTINUOUS
10
202.2967671
20
-48.5566667
40
0.5
50
183.5354791
51
270
0
ARC
8
0
6
CONTINUOUS
10
221.933
20
-49.5566667
40
0.5
50
0
51
90
0
ARC
8
0
6
CONTINUOUS
10
221.933
20
-106.342152
40
0.5
50
330.3137039
51
0
0
ARC
8
0
6
CONTINUOUS
10
222.5706187
20
-107.2428444
40
0.5
50
150.3137039
51
185.3211764
0
ARC
8
0
6
CONTINUOUS
10
223.9634619
20
-132.9801524
40
0.5
50
315
51
5.3211707
0
ARC
8
0
6
CONTINUOUS
10
213.9891555
20
-142.9544589
40
0.5
50
225
51
315
0
ARC
8
0
6
CONTINUOUS
10
149.9249882
20
-116.9682542
40
0.5
50
180.6942929
51
270.1347483
0
ARC
8
0
6
CONTINUOUS
10
148.8122447
20
-107.6707242
40
0.5
50
0.6942929
51
89.6717335
0
ARC
8
0
6
CONTINUOUS
10
93.9818975
20
-106.3565669
40
0.5
50
180.0020397
51
269.6717392
0
ENDSEC
0
EOF