<svg width="138.835mm" height="111.486mm" viewBox="0 0 138.835 111.486" xmlns="http://www.w3.org/2000/svg"><g id="svgGroup" stroke-linecap="round" fill-rule="evenodd" font-size="9pt" stroke="#000" stroke-width="0.25mm" fill="none" style="stroke:#000;stroke-width:0.25mm;fill:none"><path d="M 1.202 71.827 L 1.2 15.577 L 1.2 15.327 L 38.7 15.337 A 0.5 0.5 0 0 0 39.2 14.837 L 39.2 5.826 L 57.698 5.885 A 0.5 0.5 0 0 0 58.2 5.385 L 58.2 1.2 L 76.702 1.2 L 76.702 3.785 A 0.5 0.5 0 0 0 77.203 4.285 L 95.702 4.243 L 95.702 6.242 A 0.5 0.5 0 0 0 96.202 6.742 L 114.702 6.742 L 114.702 6.992 L 114.703 8.494 A 0.5 0.5 0 0 0 115.203 8.994 L 135.453 8.994 L 135.453 69.772 L 135.224 70.168 A 0.5 0.5 0 0 0 135.159 70.465 L 137.596 96.631 L 137.607 96.748 L 124.359 109.996 L 110.679 96.316 A 0.5 0.5 0 0 0 110.57 96.234 L 94.604 87.239 A 0.5 0.5 0 0 0 94.483 87.19 L 76.98 82.682 A 0.5 0.5 0 0 0 76.854 82.666 L 57.183 82.713 L 57.18 82.465 L 57.064 72.887 A 0.5 0.5 0 0 0 56.567 72.393 L 1.202 72.076 L 1.202 71.827 Z M 3.852 68.944 L 3.85 18.478 A 0.5 0.5 0 0 1 4.35 17.978 L 41.35 17.988 A 0.5 0.5 0 0 0 41.85 17.488 L 41.85 8.986 A 0.5 0.5 0 0 1 42.352 8.486 L 60.348 8.543 A 0.5 0.5 0 0 0 60.85 8.043 L 60.85 4.35 A 0.5 0.5 0 0 1 61.35 3.85 L 73.552 3.85 A 0.5 0.5 0 0 1 74.052 4.35 L 74.052 6.441 A 0.5 0.5 0 0 0 74.553 6.941 L 93.052 6.899 L 93.052 8.892 A 0.5 0.5 0 0 0 93.552 9.392 L 111.588 9.392 A 0.5 0.5 0 0 1 112.087 9.861 L 112.168 11.174 A 0.5 0.5 0 0 0 112.667 11.644 L 132.303 11.644 A 0.5 0.5 0 0 1 132.803 12.144 L 132.803 68.929 A 0.5 0.5 0 0 1 132.737 69.177 L 132.506 69.582 A 0.5 0.5 0 0 0 132.443 69.876 L 134.831 95.521 A 0.5 0.5 0 0 1 134.687 95.921 L 124.713 105.895 A 0.5 0.5 0 0 1 124.006 105.895 L 112.247 94.137 L 95.545 84.727 L 77.25 80.015 L 60.296 80.055 A 0.5 0.5 0 0 1 59.795 79.561 L 59.705 72.118 L 59.682 70.252 A 0.5 0.5 0 0 0 59.185 69.758 L 4.349 69.444 A 0.5 0.5 0 0 1 3.852 68.944 Z M 136.653 8.294 L 136.653 70.093 L 136.375 70.575 L 138.791 96.52 L 138.832 96.964 M 134.912 70.508 A 0.5 0.5 0 0 0 134.664 70.121 L 114.703 58.596 A 0.5 0.5 0 0 1 114.453 58.163 L 114.453 9.244 L 114.452 7.491 M 115.983 9.244 A 0.5 0.5 0 0 0 115.483 9.744 L 115.483 58.031 A 0.5 0.5 0 0 0 115.733 58.464 L 134.453 69.272 A 0.5 0.5 0 0 0 135.203 68.839 M 3.37 71.587 L 17.37 71.587 A 2 2 0 0 0 19.37 69.587 L 19.37 55.587 A 2 2 0 0 0 17.37 53.587 L 3.37 53.587 A 2 2 0 0 0 1.37 55.587 L 1.37 69.587 A 2 2 0 0 0 3.37 71.587 Z M 3.37 52.587 L 17.37 52.587 A 2 2 0 0 0 19.37 50.587 L 19.37 36.587 A 2 2 0 0 0 17.37 34.587 L 3.37 34.587 A 2 2 0 0 0 1.37 36.587 L 1.37 50.587 A 2 2 0 0 0 3.37 52.587 Z M 3.37 33.587 L 17.37 33.587 A 2 2 0 0 0 19.37 31.587 L 19.37 17.587 A 2 2 0 0 0 17.37 15.587 L 3.37 15.587 A 2 2 0 0 0 1.37 17.587 L 1.37 31.587 A 2 2 0 0 0 3.37 33.587 Z M 22.37 71.587 L 36.37 71.587 A 2 2 0 0 0 38.37 69.587 L 38.37 55.587 A 2 2 0 0 0 36.37 53.587 L 22.37 53.587 A 2 2 0 0 0 20.37 55.587 L 20.37 69.587 A 2 2 0 0 0 22.37 71.587 Z M 22.37 52.587 L 36.37 52.587 A 2 2 0 0 0 38.37 50.587 L 38.37 36.587 A 2 2 0 0 0 36.37 34.587 L 22.37 34.587 A 2 2 0 0 0 20.37 36.587 L 20.37 50.587 A 2 2 0 0 0 22.37 52.587 Z M 22.37 33.587 L 36.37 33.587 A 2 2 0 0 0 38.37 31.587 L 38.37 17.587 A 2 2 0 0 0 36.37 15.587 L 22.37 15.587 A 2 2 0 0 0 20.37 17.587 L 20.37 31.587 A 2 2 0 0 0 22.37 33.587 Z M 41.37 62.087 L 55.37 62.087 A 2 2 0 0 0 57.37 60.087 L 57.37 46.087 A 2 2 0 0 0 55.37 44.087 L 41.37 44.087 A 2 2 0 0 0 39.37 46.087 L 39.37 60.087 A 2 2 0 0 0 41.37 62.087 Z M 41.37 43.087 L 55.37 43.087 A 2 2 0 0 0 57.37 41.087 L 57.37 27.087 A 2 2 0 0 0 55.37 25.087 L 41.37 25.087 A 2 2 0 0 0 39.37 27.087 L 39.37 41.087 A 2 2 0 0 0 41.37 43.087 Z M 41.37 24.087 L 55.37 24.087 A 2 2 0 0 0 57.37 22.087 L 57.37 8.087 A 2 2 0 0 0 55.37 6.087 L 41.37 6.087 A 2 2 0 0 0 39.37 8.087 L 39.37 22.087 A 2 2 0 0 0 41.37 24.087 Z M 60.37 57.337 L 74.37 57.337 A 2 2 0 0 0 76.37 55.337 L 76.37 41.337 A 2 2 0 0 0 74.37 39.337 L 60.37 39.337 A 2 2 0 0 0 58.37 41.337 L 58.37 55.337 A 2 2 0 0 0 60.37 57.337 Z M 60.37 38.337 L 74.37 38.337 A 2 2 0 0 0 76.37 36.337 L 76.37 22.337 A 2 2 0 0 0 74.37 20.337 L 60.37 20.337 A 2 2 0 0 0 58.37 22.337 L 58.37 36.337 A 2 2 0 0 0 60.37 38.337 Z M 60.37 19.337 L 74.37 19.337 A 2 2 0 0 0 76.37 17.337 L 76.37 3.337 A 2 2 0 0 0 74.37 1.337 L 60.37 1.337 A 2 2 0 0 0 58.37 3.337 L 58.37 17.337 A 2 2 0 0 0 60.37 19.337 Z M 79.37 60.504 L 93.37 60.504 A 2 2 0 0 0 95.37 58.504 L 95.37 44.504 A 2 2 0 0 0 93.37 42.504 L 79.37 42.504 A 2 2 0 0 0 77.37 44.504 L 77.37 58.504 A 2 2 0 0 0 79.37 60.504 Z M 79.37 41.504 L 93.37 41.504 A 2 2 0 0 0 95.37 39.504 L 95.37 25.504 A 2 2 0 0 0 93.37 23.504 L 79.37 23.504 A 2 2 0 0 0 77.37 25.504 L 77.37 39.504 A 2 2 0 0 0 79.37 41.504 Z M 79.37 22.504 L 93.37 22.504 A 2 2 0 0 0 95.37 20.504 L 95.37 6.504 A 2 2 0 0 0 93.37 4.504 L 79.37 4.504 A 2 2 0 0 0 77.37 6.504 L 77.37 20.504 A 2 2 0 0 0 79.37 22.504 Z M 98.37 62.879 L 112.37 62.879 A 2 2 0 0 0 114.37 60.879 L 114.37 46.879 A 2 2 0 0 0 112.37 44.879 L 98.37 44.879 A 2 2 0 0 0 96.37 46.879 L 96.37 60.879 A 2 2 0 0 0 98.37 62.879 Z M 98.37 43.879 L 112.37 43.879 A 2 2 0 0 0 114.37 41.879 L 114.37 27.879 A 2 2 0 0 0 112.37 25.879 L 98.37 25.879 A 2 2 0 0 0 96.37 27.879 L 96.37 41.879 A 2 2 0 0 0 98.37 43.879 Z M 98.37 24.879 L 112.37 24.879 A 2 2 0 0 0 114.37 22.879 L 114.37 8.879 A 2 2 0 0 0 112.37 6.879 L 98.37 6.879 A 2 2 0 0 0 96.37 8.879 L 96.37 22.879 A 2 2 0 0 0 98.37 24.879 Z M 60.37 82.337 L 74.37 82.337 A 2 2 0 0 0 76.37 80.337 L 76.37 66.337 A 2 2 0 0 0 74.37 64.337 L 60.37 64.337 A 2 2 0 0 0 58.37 66.337 L 58.37 80.337 A 2 2 0 0 0 60.37 82.337 Z M 96.659 87.878 L 108.783 94.878 A 2 2 0 0 0 111.515 94.146 L 118.515 82.021 A 2 2 0 0 0 117.783 79.289 L 105.659 72.289 A 2 2 0 0 0 102.927 73.021 L 95.927 85.146 A 2 2 0 0 0 96.659 87.878 Z M 112.497 97.463 L 122.397 107.362 A 2 2 0 0 0 125.225 107.362 L 135.125 97.463 A 2 2 0 0 0 135.125 94.634 L 125.225 84.735 A 2 2 0 0 0 122.397 84.735 L 112.497 94.634 A 2 2 0 0 0 112.497 97.463 Z M 78.879 82.719 L 92.402 86.342 A 2 2 0 0 0 94.852 84.928 L 98.475 71.405 A 2 2 0 0 0 97.061 68.955 L 83.538 65.332 A 2 2 0 0 0 81.088 66.746 L 77.465 80.269 A 2 2 0 0 0 78.879 82.719 Z M 0.002 72.772 L 0.002 71.827 L 0 15.577 L 0 14.627 M 114.053 96.049 L 123.811 105.807 L 133.569 96.049 L 123.811 86.29 L 114.053 96.049 Z M 97.795 86.109 L 109.747 93.009 L 116.647 81.058 L 104.695 74.158 L 97.795 86.109 Z M 41.47 21.987 L 55.27 21.987 L 55.27 8.187 L 41.47 8.187 L 41.47 21.987 Z M 60.47 17.237 L 74.27 17.237 L 74.27 3.437 L 60.47 3.437 L 60.47 17.237 Z M 79.47 20.404 L 93.27 20.404 L 93.27 6.604 L 79.47 6.604 L 79.47 20.404 Z M 98.47 22.779 L 112.27 22.779 L 112.27 8.979 L 98.47 8.979 L 98.47 22.779 Z M 41.47 59.987 L 55.27 59.987 L 55.27 46.187 L 41.47 46.187 L 41.47 59.987 Z M 41.47 40.987 L 55.27 40.987 L 55.27 27.187 L 41.47 27.187 L 41.47 40.987 Z M 60.47 55.237 L 74.27 55.237 L 74.27 41.437 L 60.47 41.437 L 60.47 55.237 Z M 60.47 36.237 L 74.27 36.237 L 74.27 22.437 L 60.47 22.437 L 60.47 36.237 Z M 79.47 58.404 L 93.27 58.404 L 93.27 44.604 L 79.47 44.604 L 79.47 58.404 Z M 79.47 39.404 L 93.27 39.404 L 93.27 25.604 L 79.47 25.604 L 79.47 39.404 Z M 98.47 60.779 L 112.27 60.779 L 112.27 46.979 L 98.47 46.979 L 98.47 60.779 Z M 98.47 41.779 L 112.27 41.779 L 112.27 27.979 L 98.47 27.979 L 98.47 41.779 Z M 60.47 80.237 L 74.27 80.237 L 74.27 66.437 L 60.47 66.437 L 60.47 80.237 Z M 3.47 69.487 L 17.27 69.487 L 17.27 55.687 L 3.47 55.687 L 3.47 69.487 Z M 3.47 50.487 L 17.27 50.487 L 17.27 36.687 L 3.47 36.687 L 3.47 50.487 Z M 3.47 31.487 L 17.27 31.487 L 17.27 17.687 L 3.47 17.687 L 3.47 31.487 Z M 22.47 69.487 L 36.27 69.487 L 36.27 55.687 L 22.47 55.687 L 22.47 69.487 Z M 22.47 50.487 L 36.27 50.487 L 36.27 36.687 L 22.47 36.687 L 22.47 50.487 Z M 22.47 31.487 L 36.27 31.487 L 36.27 17.687 L 22.47 17.687 L 22.47 31.487 Z M 79.519 80.716 L 92.849 84.288 L 96.421 70.958 L 83.091 67.386 L 79.519 80.716 Z M 137.326 96.421 L 134.888 70.25 L 135.136 69.821 M 19.87 34.087 m -2.15 0 a 2.15 2.15 0 0 1 4.3 0 a 2.15 2.15 0 0 1 -4.3 0 z M 19.87 53.087 m -2.15 0 a 2.15 2.15 0 0 1 4.3 0 a 2.15 2.15 0 0 1 -4.3 0 z M 95.838 24.24 m -2.15 0 a 2.15 2.15 0 0 1 4.3 0 a 2.15 2.15 0 0 1 -4.3 0 z M 53.527 66.202 m -2.15 0 a 2.15 2.15 0 0 1 4.3 0 a 2.15 2.15 0 0 1 -4.3 0 z M 124.747 75.227 m -2.15 0 a 2.15 2.15 0 0 1 4.3 0 a 2.15 2.15 0 0 1 -4.3 0 z M 55.992 83.42 L 55.98 82.48 L 55.878 74.08 M 19.87 34.087 m -1.1 0 a 1.1 1.1 0 0 1 2.2 0 a 1.1 1.1 0 0 1 -2.2 0 z M 19.87 53.087 m -1.1 0 a 1.1 1.1 0 0 1 2.2 0 a 1.1 1.1 0 0 1 -2.2 0 z M 95.838 24.24 m -1.1 0 a 1.1 1.1 0 0 1 2.2 0 a 1.1 1.1 0 0 1 -2.2 0 z M 53.527 66.202 m -1.1 0 a 1.1 1.1 0 0 1 2.2 0 a 1.1 1.1 0 0 1 -2.2 0 z M 124.747 75.227 m -1.1 0 a 1.1 1.1 0 0 1 2.2 0 a 1.1 1.1 0 0 1 -2.2 0 z M 118.132 56.73 m -1.1 0 a 1.1 1.1 0 0 1 2.2 0 a 1.1 1.1 0 0 1 -2.2 0 z M 132.564 65.249 m -1.1 0 a 1.1 1.1 0 0 1 2.2 0 a 1.1 1.1 0 0 1 -2.2 0 z M 38.95 15.087 m -0.5 0 a 0.5 0.5 0 0 0 1 0 a 0.5 0.5 0 0 0 -1 0 z M 114.953 8.744 m -0.5 0 a 0.5 0.5 0 0 0 1 0 a 0.5 0.5 0 0 0 -1 0 z M 1.952 71.33 m -0.5 0 a 0.5 0.5 0 0 0 1 0 a 0.5 0.5 0 0 0 -1 0 z M 37.5 13.636 m -0.5 0 a 0.5 0.5 0 0 0 1 0 a 0.5 0.5 0 0 0 -1 0 z M 116.402 7.294 m -0.5 0 a 0.5 0.5 0 0 0 1 0 a 0.5 0.5 0 0 0 -1 0 z M 138.335 97.011 m -0.5 0 a 0.5 0.5 0 0 0 1 0 a 0.5 0.5 0 0 0 -1 0 z M 124.359 110.986 m -0.5 0 a 0.5 0.5 0 0 0 1 0 a 0.5 0.5 0 0 0 -1 0 z M 1.95 16.077 m -0.5 0 a 0.5 0.5 0 0 0 1 0 a 0.5 0.5 0 0 0 -1 0 z M 39.95 6.579 m -0.5 0 a 0.5 0.5 0 0 0 1 0 a 0.5 0.5 0 0 0 -1 0 z M 57.95 5.635 m -0.5 0 a 0.5 0.5 0 0 0 1 0 a 0.5 0.5 0 0 0 -1 0 z M 58.95 1.95 m -0.5 0 a 0.5 0.5 0 0 0 1 0 a 0.5 0.5 0 0 0 -1 0 z M 75.952 1.95 m -0.5 0 a 0.5 0.5 0 0 0 1 0 a 0.5 0.5 0 0 0 -1 0 z M 76.952 4.036 m -0.5 0 a 0.5 0.5 0 0 0 1 0 a 0.5 0.5 0 0 0 -1 0 z M 94.952 4.995 m -0.5 0 a 0.5 0.5 0 0 0 1 0 a 0.5 0.5 0 0 0 -1 0 z M 95.952 6.492 m -0.5 0 a 0.5 0.5 0 0 0 1 0 a 0.5 0.5 0 0 0 -1 0 z M 113.952 7.492 m -0.5 0 a 0.5 0.5 0 0 0 1 0 a 0.5 0.5 0 0 0 -1 0 z M 134.703 9.744 m -0.5 0 a 0.5 0.5 0 0 0 1 0 a 0.5 0.5 0 0 0 -1 0 z M 124.359 108.936 m -0.5 0 a 0.5 0.5 0 0 0 1 0 a 0.5 0.5 0 0 0 -1 0 z M 110.478 96.468 m -0.5 0 a 0.5 0.5 0 0 0 1 0 a 0.5 0.5 0 0 0 -1 0 z M 94.453 87.44 m -0.5 0 a 0.5 0.5 0 0 0 1 0 a 0.5 0.5 0 0 0 -1 0 z M 76.886 82.916 m -0.5 0 a 0.5 0.5 0 0 0 1 0 a 0.5 0.5 0 0 0 -1 0 z M 57.924 81.961 m -0.5 0 a 0.5 0.5 0 0 0 1 0 a 0.5 0.5 0 0 0 -1 0 z M 56.811 72.644 m -0.5 0 a 0.5 0.5 0 0 0 1 0 a 0.5 0.5 0 0 0 -1 0 z M 0.5 14.627 m -0.5 0 a 0.5 0.5 0 0 0 1 0 a 0.5 0.5 0 0 0 -1 0 z M 38.5 5.124 m -0.5 0 a 0.5 0.5 0 0 0 1 0 a 0.5 0.5 0 0 0 -1 0 z M 57.5 0.5 m -0.5 0 a 0.5 0.5 0 0 0 1 0 a 0.5 0.5 0 0 0 -1 0 z M 77.402 0.5 m -0.5 0 a 0.5 0.5 0 0 0 1 0 a 0.5 0.5 0 0 0 -1 0 z M 78.402 2.583 m -0.5 0 a 0.5 0.5 0 0 0 1 0 a 0.5 0.5 0 0 0 -1 0 z M 96.402 3.541 m -0.5 0 a 0.5 0.5 0 0 0 1 0 a 0.5 0.5 0 0 0 -1 0 z M 97.402 5.042 m -0.5 0 a 0.5 0.5 0 0 0 1 0 a 0.5 0.5 0 0 0 -1 0 z M 115.402 6.042 m -0.5 0 a 0.5 0.5 0 0 0 1 0 a 0.5 0.5 0 0 0 -1 0 z M 136.153 8.294 m -0.5 0 a 0.5 0.5 0 0 0 1 0 a 0.5 0.5 0 0 0 -1 0 z M 109.593 97.634 m -0.5 0 a 0.5 0.5 0 0 0 1 0 a 0.5 0.5 0 0 0 -1 0 z M 93.907 88.797 m -0.5 0 a 0.5 0.5 0 0 0 1 0 a 0.5 0.5 0 0 0 -1 0 z M 76.704 84.367 m -0.5 0 a 0.5 0.5 0 0 0 1 0 a 0.5 0.5 0 0 0 -1 0 z M 56.492 83.414 m -0.5 0 a 0.5 0.5 0 0 0 1 0 a 0.5 0.5 0 0 0 -1 0 z M 55.378 74.086 m -0.5 0 a 0.5 0.5 0 0 0 1 0 a 0.5 0.5 0 0 0 -1 0 z M 134.703 69.571 m -0.5 0 a 0.5 0.5 0 0 0 1 0 a 0.5 0.5 0 0 0 -1 0 z M 136.828 96.467 m -0.5 0 a 0.5 0.5 0 0 0 1 0 a 0.5 0.5 0 0 0 -1 0 z M 56.5 4.181 m -0.5 0 a 0.5 0.5 0 0 0 1 0 a 0.5 0.5 0 0 0 -1 0 z M 0.502 72.772 m -0.5 0 a 0.5 0.5 0 0 0 1 0 a 0.5 0.5 0 0 0 -1 0 z M 115.902 7.294 L 115.902 6.991 L 115.902 6.041 M 1.45 16.077 1.452 71.33 M 1.95 15.577 38.95 15.587 M 39.45 15.087 39.45 6.579 M 39.952 6.079 57.948 6.135 M 58.45 5.635 58.45 1.95 M 58.95 1.45 75.952 1.45 M 76.452 4.036 76.452 1.95 M 76.953 4.536 94.951 4.495 M 95.452 6.492 95.452 4.995 M 95.952 6.992 113.952 6.992 M 124.713 109.289 137.181 96.821 M 110.831 96.115 124.006 109.289 M 94.698 87.005 110.723 96.033 M 77.011 82.432 94.578 86.956 M 57.925 82.461 76.885 82.416 M 57.311 72.638 57.424 81.967 M 1.949 71.83 56.814 72.144 M 114.953 9.244 134.703 9.244 M 135.203 69.571 135.203 9.744 M 0.5 14.127 37.5 14.136 M 38 13.636 38 5.124 M 38.502 4.624 56.498 4.681 M 57 4.181 57 0.5 M 57.5 0 77.402 0 M 77.902 2.583 77.902 0.5 M 78.403 3.083 96.401 3.041 M 96.902 5.042 96.902 3.541 M 97.402 5.542 115.402 5.542 M 116.402 7.794 136.153 7.794 M 124.713 111.34 138.688 97.364 M 109.946 97.28 124.006 111.34 M 94.152 88.361 109.838 97.198 M 76.829 83.882 94.032 88.313 M 56.493 83.914 76.703 83.867 M 0.499 73.272 55.381 73.586" vector-effect="non-scaling-stroke"/></g></svg>