%TF.GenerationSoftware,KiCad,Pcbnew,8.0.8+1*%
%TF.CreationDate,2026-05-17T21:37:02+00:00*%
%TF.ProjectId,backplate,6261636b-706c-4617-9465-2e6b69636164,0.1*%
%TF.SameCoordinates,Original*%
%TF.FileFunction,Drillmap*%
%TF.FilePolarity,Positive*%
%FSLAX45Y45*%
G04 Gerber Fmt 4.5, Leading zero omitted, Abs format (unit mm)*
G04 Created by KiCad (PCBNEW 8.0.8+1) date 2026-05-17 21:37:02*
%MOMM*%
%LPD*%
G01*
G04 APERTURE LIST*
%ADD10C,0.150000*%
%ADD11C,0.200000*%
G04 APERTURE END LIST*
D10*
X9108198Y-10874287D02*
X9108002Y-5349015D01*
X9158015Y-5299013D02*
X12857987Y-5299987D01*
X12908000Y-5249987D02*
X12908000Y-4399158D01*
X12958158Y-4349158D02*
X14757842Y-4354842D01*
X14808000Y-4304842D02*
X14808000Y-3936300D01*
X14858000Y-3886300D02*
X16558200Y-3886300D01*
X16608200Y-3936300D02*
X16608200Y-4144886D01*
X16658314Y-4194886D02*
X18458086Y-4190781D01*
X18508200Y-4240781D02*
X18508200Y-4390467D01*
X18558200Y-4440467D02*
X20358222Y-4440467D01*
X20408222Y-4490445D02*
X20408278Y-4615689D01*
X22451800Y-10766326D02*
X22695551Y-13383369D01*
X22681122Y-13423361D02*
X21434271Y-14670212D01*
X21363560Y-14670212D02*
X20046115Y-13352767D01*
X20035301Y-13344560D02*
X18432826Y-12441778D01*
X18420755Y-12436921D02*
X16664097Y-11984504D01*
X16651509Y-11982925D02*
X14755514Y-11987384D01*
X14705400Y-11937990D02*
X14694095Y-11005112D01*
X14644385Y-10955719D02*
X9157912Y-10924285D01*
X20458278Y-4665667D02*
X22433300Y-4665667D01*
X22483300Y-4715667D02*
X22483300Y-10698369D01*
X22476601Y-10723369D02*
X22451800Y-10766326D01*
X9108002Y-5349015D02*
G75*
G02*
X9158015Y-5299012I49998J5D01*
G01*
X12908000Y-5249987D02*
G75*
G02*
X12857987Y-5299990I-50000J-3D01*
G01*
X12908000Y-4399158D02*
G75*
G02*
X12958158Y-4349160I50000J-2D01*
G01*
X14808000Y-4304842D02*
G75*
G02*
X14757842Y-4354840I-50000J2D01*
G01*
X14808000Y-3936300D02*
G75*
G02*
X14858000Y-3886300I50000J0D01*
G01*
X16558200Y-3886300D02*
G75*
G02*
X16608200Y-3936300I0J-50000D01*
G01*
X16658314Y-4194886D02*
G75*
G02*
X16608204Y-4144886I-114J49996D01*
G01*
X18458086Y-4190781D02*
G75*
G02*
X18508199Y-4240781I114J-49999D01*
G01*
X18558200Y-4440467D02*
G75*
G02*
X18508203Y-4390467I0J49997D01*
G01*
X20358222Y-4440467D02*
G75*
G02*
X20408223Y-4490445I-2J-50003D01*
G01*
X20458278Y-4665667D02*
G75*
G02*
X20408283Y-4615689I2J49997D01*
G01*
X22433300Y-4665667D02*
G75*
G02*
X22483303Y-4715667I0J-50003D01*
G01*
X22483300Y-10698369D02*
G75*
G02*
X22476602Y-10723369I-50000J-1D01*
G01*
X22695551Y-13383369D02*
G75*
G02*
X22681124Y-13423363I-49781J-4641D01*
G01*
X21434271Y-14670212D02*
G75*
G02*
X21363560Y-14670212I-35355J35356D01*
G01*
X20035301Y-13344560D02*
G75*
G02*
X20046115Y-13352768I-24541J-43560D01*
G01*
X18420755Y-12436921D02*
G75*
G02*
X18432826Y-12441779I-12475J-48419D01*
G01*
X16651509Y-11982925D02*
G75*
G02*
X16664097Y-11984504I121J-50005D01*
G01*
X14755514Y-11987384D02*
G75*
G02*
X14705400Y-11937990I-114J50004D01*
G01*
X14644385Y-10955719D02*
G75*
G02*
X14694098Y-11005112I-285J-50001D01*
G01*
X9157912Y-10924285D02*
G75*
G02*
X9108204Y-10874287I288J49995D01*
G01*
X11060000Y-7150000D02*
G75*
G02*
X10840000Y-7150000I-110000J0D01*
G01*
X10840000Y-7150000D02*
G75*
G02*
X11060000Y-7150000I110000J0D01*
G01*
X11060000Y-9050000D02*
G75*
G02*
X10840000Y-9050000I-110000J0D01*
G01*
X10840000Y-9050000D02*
G75*
G02*
X11060000Y-9050000I110000J0D01*
G01*
X18656800Y-6165267D02*
G75*
G02*
X18436800Y-6165267I-110000J0D01*
G01*
X18436800Y-6165267D02*
G75*
G02*
X18656800Y-6165267I110000J0D01*
G01*
X14425700Y-10361500D02*
G75*
G02*
X14205700Y-10361500I-110000J0D01*
G01*
X14205700Y-10361500D02*
G75*
G02*
X14425700Y-10361500I110000J0D01*
G01*
X21547730Y-11264008D02*
G75*
G02*
X21327730Y-11264008I-110000J0D01*
G01*
X21327730Y-11264008D02*
G75*
G02*
X21547730Y-11264008I110000J0D01*
G01*
D11*
X9361279Y-15003841D02*
X9361279Y-14803841D01*
X9361279Y-14803841D02*
X9408898Y-14803841D01*
X9408898Y-14803841D02*
X9437469Y-14813365D01*
X9437469Y-14813365D02*
X9456517Y-14832412D01*
X9456517Y-14832412D02*
X9466041Y-14851460D01*
X9466041Y-14851460D02*
X9475564Y-14889555D01*
X9475564Y-14889555D02*
X9475564Y-14918127D01*
X9475564Y-14918127D02*
X9466041Y-14956222D01*
X9466041Y-14956222D02*
X9456517Y-14975269D01*
X9456517Y-14975269D02*
X9437469Y-14994317D01*
X9437469Y-14994317D02*
X9408898Y-15003841D01*
X9408898Y-15003841D02*
X9361279Y-15003841D01*
X9561279Y-15003841D02*
X9561279Y-14870507D01*
X9561279Y-14908603D02*
X9570802Y-14889555D01*
X9570802Y-14889555D02*
X9580326Y-14880031D01*
X9580326Y-14880031D02*
X9599374Y-14870507D01*
X9599374Y-14870507D02*
X9618422Y-14870507D01*
X9685088Y-15003841D02*
X9685088Y-14870507D01*
X9685088Y-14803841D02*
X9675564Y-14813365D01*
X9675564Y-14813365D02*
X9685088Y-14822888D01*
X9685088Y-14822888D02*
X9694612Y-14813365D01*
X9694612Y-14813365D02*
X9685088Y-14803841D01*
X9685088Y-14803841D02*
X9685088Y-14822888D01*
X9808898Y-15003841D02*
X9789850Y-14994317D01*
X9789850Y-14994317D02*
X9780326Y-14975269D01*
X9780326Y-14975269D02*
X9780326Y-14803841D01*
X9913660Y-15003841D02*
X9894612Y-14994317D01*
X9894612Y-14994317D02*
X9885088Y-14975269D01*
X9885088Y-14975269D02*
X9885088Y-14803841D01*
X10142231Y-15003841D02*
X10142231Y-14803841D01*
X10142231Y-14803841D02*
X10208898Y-14946698D01*
X10208898Y-14946698D02*
X10275564Y-14803841D01*
X10275564Y-14803841D02*
X10275564Y-15003841D01*
X10456517Y-15003841D02*
X10456517Y-14899079D01*
X10456517Y-14899079D02*
X10446993Y-14880031D01*
X10446993Y-14880031D02*
X10427945Y-14870507D01*
X10427945Y-14870507D02*
X10389850Y-14870507D01*
X10389850Y-14870507D02*
X10370802Y-14880031D01*
X10456517Y-14994317D02*
X10437469Y-15003841D01*
X10437469Y-15003841D02*
X10389850Y-15003841D01*
X10389850Y-15003841D02*
X10370802Y-14994317D01*
X10370802Y-14994317D02*
X10361279Y-14975269D01*
X10361279Y-14975269D02*
X10361279Y-14956222D01*
X10361279Y-14956222D02*
X10370802Y-14937174D01*
X10370802Y-14937174D02*
X10389850Y-14927650D01*
X10389850Y-14927650D02*
X10437469Y-14927650D01*
X10437469Y-14927650D02*
X10456517Y-14918127D01*
X10551755Y-14870507D02*
X10551755Y-15070507D01*
X10551755Y-14880031D02*
X10570802Y-14870507D01*
X10570802Y-14870507D02*
X10608898Y-14870507D01*
X10608898Y-14870507D02*
X10627945Y-14880031D01*
X10627945Y-14880031D02*
X10637469Y-14889555D01*
X10637469Y-14889555D02*
X10646993Y-14908603D01*
X10646993Y-14908603D02*
X10646993Y-14965746D01*
X10646993Y-14965746D02*
X10637469Y-14984793D01*
X10637469Y-14984793D02*
X10627945Y-14994317D01*
X10627945Y-14994317D02*
X10608898Y-15003841D01*
X10608898Y-15003841D02*
X10570802Y-15003841D01*
X10570802Y-15003841D02*
X10551755Y-14994317D01*
X10732707Y-14984793D02*
X10742231Y-14994317D01*
X10742231Y-14994317D02*
X10732707Y-15003841D01*
X10732707Y-15003841D02*
X10723183Y-14994317D01*
X10723183Y-14994317D02*
X10732707Y-14984793D01*
X10732707Y-14984793D02*
X10732707Y-15003841D01*
X10732707Y-14880031D02*
X10742231Y-14889555D01*
X10742231Y-14889555D02*
X10732707Y-14899079D01*
X10732707Y-14899079D02*
X10723183Y-14889555D01*
X10723183Y-14889555D02*
X10732707Y-14880031D01*
X10732707Y-14880031D02*
X10732707Y-14899079D01*
M02*
