G04 #@! TF.GenerationSoftware,KiCad,Pcbnew,8.0.8+1*
G04 #@! TF.CreationDate,2026-05-17T21:37:03+00:00*
G04 #@! TF.ProjectId,frontplate,66726f6e-7470-46c6-9174-652e6b696361,0.1*
G04 #@! TF.SameCoordinates,Original*
G04 #@! TF.FileFunction,Profile,NP*
%FSLAX46Y46*%
G04 Gerber Fmt 4.6, Leading zero omitted, Abs format (unit mm)*
G04 Created by KiCad (PCBNEW 8.0.8+1) date 2026-05-17 21:37:03*
%MOMM*%
%LPD*%
G01*
G04 APERTURE LIST*
G04 #@! TA.AperFunction,Profile*
%ADD10C,0.150000*%
G04 #@! TD*
G04 APERTURE END LIST*
D10*
X91081982Y-108742874D02*
X91080018Y-53490149D01*
X91580149Y-52990132D02*
X128579868Y-52999868D01*
X129080000Y-52499868D02*
X129080000Y-43991581D01*
X129581579Y-43491584D02*
X147578421Y-43548416D01*
X148080000Y-43048419D02*
X148080000Y-39363000D01*
X148580000Y-38863000D02*
X165582000Y-38863000D01*
X166082000Y-39363000D02*
X166082000Y-41448858D01*
X166583140Y-41948857D02*
X184580860Y-41907810D01*
X185082000Y-42407808D02*
X185082000Y-43904667D01*
X185582000Y-44404667D02*
X203582222Y-44404667D01*
X204082222Y-44904445D02*
X204083000Y-46656667D01*
X204083000Y-46656889D02*
X204083000Y-95576435D01*
X204333000Y-96009448D02*
X224294128Y-107534010D01*
X224541973Y-107920654D02*
X226955512Y-133833691D01*
X226811220Y-134233613D02*
X214342709Y-146702125D01*
X213635602Y-146702125D02*
X200461150Y-133527673D01*
X200353014Y-133445600D02*
X184328261Y-124417779D01*
X184207546Y-124369206D02*
X166640972Y-119845045D01*
X166515094Y-119829246D02*
X147555139Y-119873836D01*
X147054000Y-119379896D02*
X146940952Y-110051119D01*
X146443853Y-109557186D02*
X91579118Y-109242848D01*
X91080018Y-53490149D02*
G75*
G02*
X91580149Y-52990118I499982J49D01*
G01*
X129080000Y-52499868D02*
G75*
G02*
X128579868Y-52999900I-500000J-32D01*
G01*
X129080000Y-43991581D02*
G75*
G02*
X129581579Y-43491602I500000J-19D01*
G01*
X148080000Y-43048419D02*
G75*
G02*
X147578421Y-43548398I-500000J19D01*
G01*
X148080000Y-39363000D02*
G75*
G02*
X148580000Y-38863000I500000J0D01*
G01*
X165582000Y-38863000D02*
G75*
G02*
X166082000Y-39363000I0J-500000D01*
G01*
X166583140Y-41948857D02*
G75*
G02*
X166082042Y-41448858I-1140J499957D01*
G01*
X184580860Y-41907810D02*
G75*
G02*
X185081991Y-42407808I1140J-499990D01*
G01*
X185582000Y-44404667D02*
G75*
G02*
X185082033Y-43904667I0J499967D01*
G01*
X203582222Y-44404667D02*
G75*
G02*
X204082233Y-44904445I-22J-500033D01*
G01*
X204083000Y-46656889D02*
G75*
G02*
X204083000Y-46656667I-2147483647J111D01*
G01*
X204333000Y-96009448D02*
G75*
G02*
X204082969Y-95576435I250000J433048D01*
G01*
X224294128Y-107534010D02*
G75*
G02*
X224541942Y-107920657I-250028J-432990D01*
G01*
X226955512Y-133833691D02*
G75*
G02*
X226811236Y-134233629I-497812J-46409D01*
G01*
X214342709Y-146702125D02*
G75*
G02*
X213635602Y-146702125I-353553J353556D01*
G01*
X200353014Y-133445600D02*
G75*
G02*
X200461147Y-133527676I-245414J-435600D01*
G01*
X184207546Y-124369206D02*
G75*
G02*
X184328255Y-124417789I-124746J-484194D01*
G01*
X166515094Y-119829246D02*
G75*
G02*
X166640974Y-119845036I1206J-500054D01*
G01*
X147555139Y-119873836D02*
G75*
G02*
X147054000Y-119379896I-1139J500036D01*
G01*
X146443853Y-109557186D02*
G75*
G02*
X146940985Y-110051119I-2853J-500014D01*
G01*
X91579118Y-109242848D02*
G75*
G02*
X91082044Y-108742874I2882J499948D01*
G01*
X93100000Y-106900000D02*
X106900000Y-106900000D01*
X106900000Y-106900000D02*
X106900000Y-93100000D01*
X106900000Y-93100000D02*
X93100000Y-93100000D01*
X93100000Y-93100000D02*
X93100000Y-106900000D01*
X93100000Y-87900000D02*
X106900000Y-87900000D01*
X106900000Y-87900000D02*
X106900000Y-74100000D01*
X106900000Y-74100000D02*
X93100000Y-74100000D01*
X93100000Y-74100000D02*
X93100000Y-87900000D01*
X93100000Y-68900000D02*
X106900000Y-68900000D01*
X106900000Y-68900000D02*
X106900000Y-55100000D01*
X106900000Y-55100000D02*
X93100000Y-55100000D01*
X93100000Y-55100000D02*
X93100000Y-68900000D01*
X112100000Y-106900000D02*
X125900000Y-106900000D01*
X125900000Y-106900000D02*
X125900000Y-93100000D01*
X125900000Y-93100000D02*
X112100000Y-93100000D01*
X112100000Y-93100000D02*
X112100000Y-106900000D01*
X112100000Y-87900000D02*
X125900000Y-87900000D01*
X125900000Y-87900000D02*
X125900000Y-74100000D01*
X125900000Y-74100000D02*
X112100000Y-74100000D01*
X112100000Y-74100000D02*
X112100000Y-87900000D01*
X112100000Y-68900000D02*
X125900000Y-68900000D01*
X125900000Y-68900000D02*
X125900000Y-55100000D01*
X125900000Y-55100000D02*
X112100000Y-55100000D01*
X112100000Y-55100000D02*
X112100000Y-68900000D01*
X131100000Y-97400000D02*
X144900000Y-97400000D01*
X144900000Y-97400000D02*
X144900000Y-83600000D01*
X144900000Y-83600000D02*
X131100000Y-83600000D01*
X131100000Y-83600000D02*
X131100000Y-97400000D01*
X131100000Y-78400000D02*
X144900000Y-78400000D01*
X144900000Y-78400000D02*
X144900000Y-64600000D01*
X144900000Y-64600000D02*
X131100000Y-64600000D01*
X131100000Y-64600000D02*
X131100000Y-78400000D01*
X131100000Y-59400000D02*
X144900000Y-59400000D01*
X144900000Y-59400000D02*
X144900000Y-45600000D01*
X144900000Y-45600000D02*
X131100000Y-45600000D01*
X131100000Y-45600000D02*
X131100000Y-59400000D01*
X150100000Y-92650000D02*
X163900000Y-92650000D01*
X163900000Y-92650000D02*
X163900000Y-78850000D01*
X163900000Y-78850000D02*
X150100000Y-78850000D01*
X150100000Y-78850000D02*
X150100000Y-92650000D01*
X150100000Y-73650000D02*
X163900000Y-73650000D01*
X163900000Y-73650000D02*
X163900000Y-59850000D01*
X163900000Y-59850000D02*
X150100000Y-59850000D01*
X150100000Y-59850000D02*
X150100000Y-73650000D01*
X150100000Y-54650000D02*
X163900000Y-54650000D01*
X163900000Y-54650000D02*
X163900000Y-40850000D01*
X163900000Y-40850000D02*
X150100000Y-40850000D01*
X150100000Y-40850000D02*
X150100000Y-54650000D01*
X169100000Y-95816667D02*
X182900000Y-95816667D01*
X182900000Y-95816667D02*
X182900000Y-82016667D01*
X182900000Y-82016667D02*
X169100000Y-82016667D01*
X169100000Y-82016667D02*
X169100000Y-95816667D01*
X169100000Y-76816667D02*
X182900000Y-76816667D01*
X182900000Y-76816667D02*
X182900000Y-63016667D01*
X182900000Y-63016667D02*
X169100000Y-63016667D01*
X169100000Y-63016667D02*
X169100000Y-76816667D01*
X169100000Y-57816667D02*
X182900000Y-57816667D01*
X182900000Y-57816667D02*
X182900000Y-44016667D01*
X182900000Y-44016667D02*
X169100000Y-44016667D01*
X169100000Y-44016667D02*
X169100000Y-57816667D01*
X188100000Y-98191667D02*
X201900000Y-98191667D01*
X201900000Y-98191667D02*
X201900000Y-84391667D01*
X201900000Y-84391667D02*
X188100000Y-84391667D01*
X188100000Y-84391667D02*
X188100000Y-98191667D01*
X188100000Y-79191667D02*
X201900000Y-79191667D01*
X201900000Y-79191667D02*
X201900000Y-65391667D01*
X201900000Y-65391667D02*
X188100000Y-65391667D01*
X188100000Y-65391667D02*
X188100000Y-79191667D01*
X188100000Y-60191667D02*
X201900000Y-60191667D01*
X201900000Y-60191667D02*
X201900000Y-46391667D01*
X201900000Y-46391667D02*
X188100000Y-46391667D01*
X188100000Y-46391667D02*
X188100000Y-60191667D01*
X150100000Y-117650000D02*
X163900000Y-117650000D01*
X163900000Y-117650000D02*
X163900000Y-103850000D01*
X163900000Y-103850000D02*
X150100000Y-103850000D01*
X150100000Y-103850000D02*
X150100000Y-117650000D01*
X169149260Y-118129037D02*
X182479037Y-121700740D01*
X182479037Y-121700740D02*
X186050740Y-108370963D01*
X186050740Y-108370963D02*
X172720963Y-104799260D01*
X172720963Y-104799260D02*
X169149260Y-118129037D01*
X187425449Y-123522062D02*
X199376600Y-130422062D01*
X199376600Y-130422062D02*
X206276600Y-118470912D01*
X206276600Y-118470912D02*
X194325449Y-111570912D01*
X194325449Y-111570912D02*
X187425449Y-123522062D01*
X203683074Y-133461550D02*
X213441148Y-143219624D01*
X213441148Y-143219624D02*
X223199221Y-133461550D01*
X223199221Y-133461550D02*
X213441148Y-123703477D01*
X213441148Y-123703477D02*
X203683074Y-133461550D01*
X110600000Y-71500000D02*
G75*
G02*
X108400000Y-71500000I-1100000J0D01*
G01*
X108400000Y-71500000D02*
G75*
G02*
X110600000Y-71500000I1100000J0D01*
G01*
X110600000Y-90500000D02*
G75*
G02*
X108400000Y-90500000I-1100000J0D01*
G01*
X108400000Y-90500000D02*
G75*
G02*
X110600000Y-90500000I1100000J0D01*
G01*
X186568000Y-61652667D02*
G75*
G02*
X184368000Y-61652667I-1100000J0D01*
G01*
X184368000Y-61652667D02*
G75*
G02*
X186568000Y-61652667I1100000J0D01*
G01*
X144257000Y-103615000D02*
G75*
G02*
X142057000Y-103615000I-1100000J0D01*
G01*
X142057000Y-103615000D02*
G75*
G02*
X144257000Y-103615000I1100000J0D01*
G01*
X215477304Y-112640080D02*
G75*
G02*
X213277304Y-112640080I-1100000J0D01*
G01*
X213277304Y-112640080D02*
G75*
G02*
X215477304Y-112640080I1100000J0D01*
G01*
M02*
