%TF.GenerationSoftware,KiCad,Pcbnew,8.0.8+1*%
%TF.CreationDate,2026-05-17T21:37:03+00:00*%
%TF.ProjectId,frontplate,66726f6e-7470-46c6-9174-652e6b696361,0.1*%
%TF.SameCoordinates,Original*%
%TF.FileFunction,Drillmap*%
%TF.FilePolarity,Positive*%
%FSLAX45Y45*%
G04 Gerber Fmt 4.5, Leading zero omitted, Abs format (unit mm)*
G04 Created by KiCad (PCBNEW 8.0.8+1) date 2026-05-17 21:37:03*
%MOMM*%
%LPD*%
G01*
G04 APERTURE LIST*
%ADD10C,0.150000*%
%ADD11C,0.200000*%
G04 APERTURE END LIST*
D10*
X9108198Y-10874287D02*
X9108002Y-5349015D01*
X9158015Y-5299013D02*
X12857987Y-5299987D01*
X12908000Y-5249987D02*
X12908000Y-4399158D01*
X12958158Y-4349158D02*
X14757842Y-4354842D01*
X14808000Y-4304842D02*
X14808000Y-3936300D01*
X14858000Y-3886300D02*
X16558200Y-3886300D01*
X16608200Y-3936300D02*
X16608200Y-4144886D01*
X16658314Y-4194886D02*
X18458086Y-4190781D01*
X18508200Y-4240781D02*
X18508200Y-4390467D01*
X18558200Y-4440467D02*
X20358222Y-4440467D01*
X20408222Y-4490445D02*
X20408300Y-4665667D01*
X20408300Y-4665689D02*
X20408300Y-9557644D01*
X20433300Y-9600945D02*
X22429413Y-10753401D01*
X22454197Y-10792065D02*
X22695551Y-13383369D01*
X22681122Y-13423361D02*
X21434271Y-14670212D01*
X21363560Y-14670212D02*
X20046115Y-13352767D01*
X20035301Y-13344560D02*
X18432826Y-12441778D01*
X18420755Y-12436921D02*
X16664097Y-11984504D01*
X16651509Y-11982925D02*
X14755514Y-11987384D01*
X14705400Y-11937990D02*
X14694095Y-11005112D01*
X14644385Y-10955719D02*
X9157912Y-10924285D01*
X9108002Y-5349015D02*
G75*
G02*
X9158015Y-5299012I49998J5D01*
G01*
X12908000Y-5249987D02*
G75*
G02*
X12857987Y-5299990I-50000J-3D01*
G01*
X12908000Y-4399158D02*
G75*
G02*
X12958158Y-4349160I50000J-2D01*
G01*
X14808000Y-4304842D02*
G75*
G02*
X14757842Y-4354840I-50000J2D01*
G01*
X14808000Y-3936300D02*
G75*
G02*
X14858000Y-3886300I50000J0D01*
G01*
X16558200Y-3886300D02*
G75*
G02*
X16608200Y-3936300I0J-50000D01*
G01*
X16658314Y-4194886D02*
G75*
G02*
X16608204Y-4144886I-114J49996D01*
G01*
X18458086Y-4190781D02*
G75*
G02*
X18508199Y-4240781I114J-49999D01*
G01*
X18558200Y-4440467D02*
G75*
G02*
X18508203Y-4390467I0J49997D01*
G01*
X20358222Y-4440467D02*
G75*
G02*
X20408223Y-4490445I-2J-50003D01*
G01*
X20408300Y-4665689D02*
G75*
G02*
X20408300Y-4665667I-235156655J11D01*
G01*
X20433300Y-9600945D02*
G75*
G02*
X20408297Y-9557644I25000J43305D01*
G01*
X22429413Y-10753401D02*
G75*
G02*
X22454194Y-10792066I-25003J-43299D01*
G01*
X22695551Y-13383369D02*
G75*
G02*
X22681124Y-13423363I-49781J-4641D01*
G01*
X21434271Y-14670212D02*
G75*
G02*
X21363560Y-14670212I-35355J35356D01*
G01*
X20035301Y-13344560D02*
G75*
G02*
X20046115Y-13352768I-24541J-43560D01*
G01*
X18420755Y-12436921D02*
G75*
G02*
X18432826Y-12441779I-12475J-48419D01*
G01*
X16651509Y-11982925D02*
G75*
G02*
X16664097Y-11984504I121J-50005D01*
G01*
X14755514Y-11987384D02*
G75*
G02*
X14705400Y-11937990I-114J50004D01*
G01*
X14644385Y-10955719D02*
G75*
G02*
X14694098Y-11005112I-285J-50001D01*
G01*
X9157912Y-10924285D02*
G75*
G02*
X9108204Y-10874287I288J49995D01*
G01*
X9310000Y-10690000D02*
X10690000Y-10690000D01*
X10690000Y-10690000D02*
X10690000Y-9310000D01*
X10690000Y-9310000D02*
X9310000Y-9310000D01*
X9310000Y-9310000D02*
X9310000Y-10690000D01*
X9310000Y-8790000D02*
X10690000Y-8790000D01*
X10690000Y-8790000D02*
X10690000Y-7410000D01*
X10690000Y-7410000D02*
X9310000Y-7410000D01*
X9310000Y-7410000D02*
X9310000Y-8790000D01*
X9310000Y-6890000D02*
X10690000Y-6890000D01*
X10690000Y-6890000D02*
X10690000Y-5510000D01*
X10690000Y-5510000D02*
X9310000Y-5510000D01*
X9310000Y-5510000D02*
X9310000Y-6890000D01*
X11210000Y-10690000D02*
X12590000Y-10690000D01*
X12590000Y-10690000D02*
X12590000Y-9310000D01*
X12590000Y-9310000D02*
X11210000Y-9310000D01*
X11210000Y-9310000D02*
X11210000Y-10690000D01*
X11210000Y-8790000D02*
X12590000Y-8790000D01*
X12590000Y-8790000D02*
X12590000Y-7410000D01*
X12590000Y-7410000D02*
X11210000Y-7410000D01*
X11210000Y-7410000D02*
X11210000Y-8790000D01*
X11210000Y-6890000D02*
X12590000Y-6890000D01*
X12590000Y-6890000D02*
X12590000Y-5510000D01*
X12590000Y-5510000D02*
X11210000Y-5510000D01*
X11210000Y-5510000D02*
X11210000Y-6890000D01*
X13110000Y-9740000D02*
X14490000Y-9740000D01*
X14490000Y-9740000D02*
X14490000Y-8360000D01*
X14490000Y-8360000D02*
X13110000Y-8360000D01*
X13110000Y-8360000D02*
X13110000Y-9740000D01*
X13110000Y-7840000D02*
X14490000Y-7840000D01*
X14490000Y-7840000D02*
X14490000Y-6460000D01*
X14490000Y-6460000D02*
X13110000Y-6460000D01*
X13110000Y-6460000D02*
X13110000Y-7840000D01*
X13110000Y-5940000D02*
X14490000Y-5940000D01*
X14490000Y-5940000D02*
X14490000Y-4560000D01*
X14490000Y-4560000D02*
X13110000Y-4560000D01*
X13110000Y-4560000D02*
X13110000Y-5940000D01*
X15010000Y-9265000D02*
X16390000Y-9265000D01*
X16390000Y-9265000D02*
X16390000Y-7885000D01*
X16390000Y-7885000D02*
X15010000Y-7885000D01*
X15010000Y-7885000D02*
X15010000Y-9265000D01*
X15010000Y-7365000D02*
X16390000Y-7365000D01*
X16390000Y-7365000D02*
X16390000Y-5985000D01*
X16390000Y-5985000D02*
X15010000Y-5985000D01*
X15010000Y-5985000D02*
X15010000Y-7365000D01*
X15010000Y-5465000D02*
X16390000Y-5465000D01*
X16390000Y-5465000D02*
X16390000Y-4085000D01*
X16390000Y-4085000D02*
X15010000Y-4085000D01*
X15010000Y-4085000D02*
X15010000Y-5465000D01*
X16910000Y-9581667D02*
X18290000Y-9581667D01*
X18290000Y-9581667D02*
X18290000Y-8201667D01*
X18290000Y-8201667D02*
X16910000Y-8201667D01*
X16910000Y-8201667D02*
X16910000Y-9581667D01*
X16910000Y-7681667D02*
X18290000Y-7681667D01*
X18290000Y-7681667D02*
X18290000Y-6301667D01*
X18290000Y-6301667D02*
X16910000Y-6301667D01*
X16910000Y-6301667D02*
X16910000Y-7681667D01*
X16910000Y-5781667D02*
X18290000Y-5781667D01*
X18290000Y-5781667D02*
X18290000Y-4401667D01*
X18290000Y-4401667D02*
X16910000Y-4401667D01*
X16910000Y-4401667D02*
X16910000Y-5781667D01*
X18810000Y-9819167D02*
X20190000Y-9819167D01*
X20190000Y-9819167D02*
X20190000Y-8439167D01*
X20190000Y-8439167D02*
X18810000Y-8439167D01*
X18810000Y-8439167D02*
X18810000Y-9819167D01*
X18810000Y-7919167D02*
X20190000Y-7919167D01*
X20190000Y-7919167D02*
X20190000Y-6539167D01*
X20190000Y-6539167D02*
X18810000Y-6539167D01*
X18810000Y-6539167D02*
X18810000Y-7919167D01*
X18810000Y-6019167D02*
X20190000Y-6019167D01*
X20190000Y-6019167D02*
X20190000Y-4639167D01*
X20190000Y-4639167D02*
X18810000Y-4639167D01*
X18810000Y-4639167D02*
X18810000Y-6019167D01*
X15010000Y-11765000D02*
X16390000Y-11765000D01*
X16390000Y-11765000D02*
X16390000Y-10385000D01*
X16390000Y-10385000D02*
X15010000Y-10385000D01*
X15010000Y-10385000D02*
X15010000Y-11765000D01*
X16914926Y-11812904D02*
X18247904Y-12170074D01*
X18247904Y-12170074D02*
X18605074Y-10837096D01*
X18605074Y-10837096D02*
X17272096Y-10479926D01*
X17272096Y-10479926D02*
X16914926Y-11812904D01*
X18742545Y-12352206D02*
X19937660Y-13042206D01*
X19937660Y-13042206D02*
X20627660Y-11847091D01*
X20627660Y-11847091D02*
X19432545Y-11157091D01*
X19432545Y-11157091D02*
X18742545Y-12352206D01*
X20368307Y-13346155D02*
X21344115Y-14321962D01*
X21344115Y-14321962D02*
X22319922Y-13346155D01*
X22319922Y-13346155D02*
X21344115Y-12370348D01*
X21344115Y-12370348D02*
X20368307Y-13346155D01*
X11060000Y-7150000D02*
G75*
G02*
X10840000Y-7150000I-110000J0D01*
G01*
X10840000Y-7150000D02*
G75*
G02*
X11060000Y-7150000I110000J0D01*
G01*
X11060000Y-9050000D02*
G75*
G02*
X10840000Y-9050000I-110000J0D01*
G01*
X10840000Y-9050000D02*
G75*
G02*
X11060000Y-9050000I110000J0D01*
G01*
X18656800Y-6165267D02*
G75*
G02*
X18436800Y-6165267I-110000J0D01*
G01*
X18436800Y-6165267D02*
G75*
G02*
X18656800Y-6165267I110000J0D01*
G01*
X14425700Y-10361500D02*
G75*
G02*
X14205700Y-10361500I-110000J0D01*
G01*
X14205700Y-10361500D02*
G75*
G02*
X14425700Y-10361500I110000J0D01*
G01*
X21547730Y-11264008D02*
G75*
G02*
X21327730Y-11264008I-110000J0D01*
G01*
X21327730Y-11264008D02*
G75*
G02*
X21547730Y-11264008I110000J0D01*
G01*
D11*
X253287Y-15003841D02*
X253287Y-14803841D01*
X253287Y-14803841D02*
X300906Y-14803841D01*
X300906Y-14803841D02*
X329478Y-14813365D01*
X329478Y-14813365D02*
X348525Y-14832412D01*
X348525Y-14832412D02*
X358049Y-14851460D01*
X358049Y-14851460D02*
X367573Y-14889555D01*
X367573Y-14889555D02*
X367573Y-14918127D01*
X367573Y-14918127D02*
X358049Y-14956222D01*
X358049Y-14956222D02*
X348525Y-14975269D01*
X348525Y-14975269D02*
X329478Y-14994317D01*
X329478Y-14994317D02*
X300906Y-15003841D01*
X300906Y-15003841D02*
X253287Y-15003841D01*
X453287Y-15003841D02*
X453287Y-14870507D01*
X453287Y-14908603D02*
X462811Y-14889555D01*
X462811Y-14889555D02*
X472335Y-14880031D01*
X472335Y-14880031D02*
X491382Y-14870507D01*
X491382Y-14870507D02*
X510430Y-14870507D01*
X577097Y-15003841D02*
X577097Y-14870507D01*
X577097Y-14803841D02*
X567573Y-14813365D01*
X567573Y-14813365D02*
X577097Y-14822888D01*
X577097Y-14822888D02*
X586620Y-14813365D01*
X586620Y-14813365D02*
X577097Y-14803841D01*
X577097Y-14803841D02*
X577097Y-14822888D01*
X700906Y-15003841D02*
X681858Y-14994317D01*
X681858Y-14994317D02*
X672335Y-14975269D01*
X672335Y-14975269D02*
X672335Y-14803841D01*
X805668Y-15003841D02*
X786620Y-14994317D01*
X786620Y-14994317D02*
X777096Y-14975269D01*
X777096Y-14975269D02*
X777096Y-14803841D01*
X1034239Y-15003841D02*
X1034239Y-14803841D01*
X1034239Y-14803841D02*
X1100906Y-14946698D01*
X1100906Y-14946698D02*
X1167573Y-14803841D01*
X1167573Y-14803841D02*
X1167573Y-15003841D01*
X1348525Y-15003841D02*
X1348525Y-14899079D01*
X1348525Y-14899079D02*
X1339001Y-14880031D01*
X1339001Y-14880031D02*
X1319954Y-14870507D01*
X1319954Y-14870507D02*
X1281858Y-14870507D01*
X1281858Y-14870507D02*
X1262811Y-14880031D01*
X1348525Y-14994317D02*
X1329478Y-15003841D01*
X1329478Y-15003841D02*
X1281858Y-15003841D01*
X1281858Y-15003841D02*
X1262811Y-14994317D01*
X1262811Y-14994317D02*
X1253287Y-14975269D01*
X1253287Y-14975269D02*
X1253287Y-14956222D01*
X1253287Y-14956222D02*
X1262811Y-14937174D01*
X1262811Y-14937174D02*
X1281858Y-14927650D01*
X1281858Y-14927650D02*
X1329478Y-14927650D01*
X1329478Y-14927650D02*
X1348525Y-14918127D01*
X1443763Y-14870507D02*
X1443763Y-15070507D01*
X1443763Y-14880031D02*
X1462811Y-14870507D01*
X1462811Y-14870507D02*
X1500906Y-14870507D01*
X1500906Y-14870507D02*
X1519954Y-14880031D01*
X1519954Y-14880031D02*
X1529477Y-14889555D01*
X1529477Y-14889555D02*
X1539001Y-14908603D01*
X1539001Y-14908603D02*
X1539001Y-14965746D01*
X1539001Y-14965746D02*
X1529477Y-14984793D01*
X1529477Y-14984793D02*
X1519954Y-14994317D01*
X1519954Y-14994317D02*
X1500906Y-15003841D01*
X1500906Y-15003841D02*
X1462811Y-15003841D01*
X1462811Y-15003841D02*
X1443763Y-14994317D01*
X1624716Y-14984793D02*
X1634239Y-14994317D01*
X1634239Y-14994317D02*
X1624716Y-15003841D01*
X1624716Y-15003841D02*
X1615192Y-14994317D01*
X1615192Y-14994317D02*
X1624716Y-14984793D01*
X1624716Y-14984793D02*
X1624716Y-15003841D01*
X1624716Y-14880031D02*
X1634239Y-14889555D01*
X1634239Y-14889555D02*
X1624716Y-14899079D01*
X1624716Y-14899079D02*
X1615192Y-14889555D01*
X1615192Y-14889555D02*
X1624716Y-14880031D01*
X1624716Y-14880031D02*
X1624716Y-14899079D01*
M02*
