G04 #@! TF.GenerationSoftware,KiCad,Pcbnew,8.0.8+1*
G04 #@! TF.CreationDate,2026-05-17T21:37:08+00:00*
G04 #@! TF.ProjectId,my_first_keyboard_wireless,6d795f66-6972-4737-945f-6b6579626f61,0.1*
G04 #@! TF.SameCoordinates,Original*
G04 #@! TF.FileFunction,Copper,L1,Top*
G04 #@! TF.FilePolarity,Positive*
%FSLAX46Y46*%
G04 Gerber Fmt 4.6, Leading zero omitted, Abs format (unit mm)*
G04 Created by KiCad (PCBNEW 8.0.8+1) date 2026-05-17 21:37:08*
%MOMM*%
%LPD*%
G01*
G04 APERTURE LIST*
G04 #@! TA.AperFunction,SMDPad,CuDef*
%ADD10R,2.600000X2.600000*%
G04 #@! TD*
G04 #@! TA.AperFunction,SMDPad,CuDef*
%ADD11R,1.200000X0.900000*%
G04 #@! TD*
G04 #@! TA.AperFunction,ComponentPad*
%ADD12C,1.700000*%
G04 #@! TD*
G04 #@! TA.AperFunction,ComponentPad*
%ADD13C,0.800000*%
G04 #@! TD*
G04 #@! TA.AperFunction,SMDPad,CuDef*
%ADD14R,0.600000X1.200000*%
G04 #@! TD*
G04 #@! TA.AperFunction,SMDPad,CuDef*
%ADD15R,1.200000X0.600000*%
G04 #@! TD*
G04 #@! TA.AperFunction,ComponentPad*
%ADD16O,1.700000X1.700000*%
G04 #@! TD*
G04 #@! TA.AperFunction,SMDPad,CuDef*
%ADD17R,0.800000X1.000000*%
G04 #@! TD*
G04 #@! TA.AperFunction,SMDPad,CuDef*
%ADD18R,1.500000X0.700000*%
G04 #@! TD*
G04 #@! TA.AperFunction,SMDPad,CuDef*
%ADD19R,1.550000X1.000000*%
G04 #@! TD*
G04 #@! TA.AperFunction,ComponentPad*
%ADD20O,1.750000X1.200000*%
G04 #@! TD*
G04 #@! TA.AperFunction,ViaPad*
%ADD21C,0.600000*%
G04 #@! TD*
G04 #@! TA.AperFunction,Conductor*
%ADD22C,0.200000*%
G04 #@! TD*
G04 #@! TA.AperFunction,Conductor*
%ADD23C,0.250000*%
G04 #@! TD*
G04 APERTURE END LIST*
G04 #@! TA.AperFunction,SMDPad,CuDef*
G36*
X98025000Y-107250000D02*
G01*
X95425000Y-107250000D01*
X95425000Y-105833000D01*
X96608000Y-104650000D01*
X98025000Y-104650000D01*
X98025000Y-107250000D01*
G37*
G04 #@! TD.AperFunction*
D10*
X108275000Y-103750000D03*
G04 #@! TA.AperFunction,SMDPad,CuDef*
G36*
X98025000Y-88250000D02*
G01*
X95425000Y-88250000D01*
X95425000Y-86833000D01*
X96608000Y-85650000D01*
X98025000Y-85650000D01*
X98025000Y-88250000D01*
G37*
G04 #@! TD.AperFunction*
X108275000Y-84750000D03*
G04 #@! TA.AperFunction,SMDPad,CuDef*
G36*
X98025000Y-69250000D02*
G01*
X95425000Y-69250000D01*
X95425000Y-67833000D01*
X96608000Y-66650000D01*
X98025000Y-66650000D01*
X98025000Y-69250000D01*
G37*
G04 #@! TD.AperFunction*
X108275000Y-65750000D03*
G04 #@! TA.AperFunction,SMDPad,CuDef*
G36*
X117025000Y-107250000D02*
G01*
X114425000Y-107250000D01*
X114425000Y-105833000D01*
X115608000Y-104650000D01*
X117025000Y-104650000D01*
X117025000Y-107250000D01*
G37*
G04 #@! TD.AperFunction*
X127275000Y-103750000D03*
G04 #@! TA.AperFunction,SMDPad,CuDef*
G36*
X117025000Y-88250000D02*
G01*
X114425000Y-88250000D01*
X114425000Y-86833000D01*
X115608000Y-85650000D01*
X117025000Y-85650000D01*
X117025000Y-88250000D01*
G37*
G04 #@! TD.AperFunction*
X127275000Y-84750000D03*
G04 #@! TA.AperFunction,SMDPad,CuDef*
G36*
X117025000Y-69250000D02*
G01*
X114425000Y-69250000D01*
X114425000Y-67833000D01*
X115608000Y-66650000D01*
X117025000Y-66650000D01*
X117025000Y-69250000D01*
G37*
G04 #@! TD.AperFunction*
X127275000Y-65750000D03*
G04 #@! TA.AperFunction,SMDPad,CuDef*
G36*
X136025000Y-97750000D02*
G01*
X133425000Y-97750000D01*
X133425000Y-96333000D01*
X134608000Y-95150000D01*
X136025000Y-95150000D01*
X136025000Y-97750000D01*
G37*
G04 #@! TD.AperFunction*
X146275000Y-94250000D03*
G04 #@! TA.AperFunction,SMDPad,CuDef*
G36*
X136025000Y-78750000D02*
G01*
X133425000Y-78750000D01*
X133425000Y-77333000D01*
X134608000Y-76150000D01*
X136025000Y-76150000D01*
X136025000Y-78750000D01*
G37*
G04 #@! TD.AperFunction*
X146275000Y-75250000D03*
G04 #@! TA.AperFunction,SMDPad,CuDef*
G36*
X136025000Y-59750000D02*
G01*
X133425000Y-59750000D01*
X133425000Y-58333000D01*
X134608000Y-57150000D01*
X136025000Y-57150000D01*
X136025000Y-59750000D01*
G37*
G04 #@! TD.AperFunction*
X146275000Y-56250000D03*
G04 #@! TA.AperFunction,SMDPad,CuDef*
G36*
X155025000Y-93000000D02*
G01*
X152425000Y-93000000D01*
X152425000Y-91583000D01*
X153608000Y-90400000D01*
X155025000Y-90400000D01*
X155025000Y-93000000D01*
G37*
G04 #@! TD.AperFunction*
X165275000Y-89500000D03*
G04 #@! TA.AperFunction,SMDPad,CuDef*
G36*
X155025000Y-74000000D02*
G01*
X152425000Y-74000000D01*
X152425000Y-72583000D01*
X153608000Y-71400000D01*
X155025000Y-71400000D01*
X155025000Y-74000000D01*
G37*
G04 #@! TD.AperFunction*
X165275000Y-70500000D03*
G04 #@! TA.AperFunction,SMDPad,CuDef*
G36*
X155025000Y-55000000D02*
G01*
X152425000Y-55000000D01*
X152425000Y-53583000D01*
X153608000Y-52400000D01*
X155025000Y-52400000D01*
X155025000Y-55000000D01*
G37*
G04 #@! TD.AperFunction*
X165275000Y-51500000D03*
G04 #@! TA.AperFunction,SMDPad,CuDef*
G36*
X174025000Y-96166667D02*
G01*
X171425000Y-96166667D01*
X171425000Y-94749667D01*
X172608000Y-93566667D01*
X174025000Y-93566667D01*
X174025000Y-96166667D01*
G37*
G04 #@! TD.AperFunction*
X184275000Y-92666667D03*
G04 #@! TA.AperFunction,SMDPad,CuDef*
G36*
X174025000Y-77166667D02*
G01*
X171425000Y-77166667D01*
X171425000Y-75749667D01*
X172608000Y-74566667D01*
X174025000Y-74566667D01*
X174025000Y-77166667D01*
G37*
G04 #@! TD.AperFunction*
X184275000Y-73666667D03*
G04 #@! TA.AperFunction,SMDPad,CuDef*
G36*
X174025000Y-58166667D02*
G01*
X171425000Y-58166667D01*
X171425000Y-56749667D01*
X172608000Y-55566667D01*
X174025000Y-55566667D01*
X174025000Y-58166667D01*
G37*
G04 #@! TD.AperFunction*
X184275000Y-54666667D03*
G04 #@! TA.AperFunction,SMDPad,CuDef*
G36*
X193025000Y-98541667D02*
G01*
X190425000Y-98541667D01*
X190425000Y-97124667D01*
X191608000Y-95941667D01*
X193025000Y-95941667D01*
X193025000Y-98541667D01*
G37*
G04 #@! TD.AperFunction*
X203275000Y-95041667D03*
G04 #@! TA.AperFunction,SMDPad,CuDef*
G36*
X193025000Y-79541667D02*
G01*
X190425000Y-79541667D01*
X190425000Y-78124667D01*
X191608000Y-76941667D01*
X193025000Y-76941667D01*
X193025000Y-79541667D01*
G37*
G04 #@! TD.AperFunction*
X203275000Y-76041667D03*
G04 #@! TA.AperFunction,SMDPad,CuDef*
G36*
X193025000Y-60541667D02*
G01*
X190425000Y-60541667D01*
X190425000Y-59124667D01*
X191608000Y-57941667D01*
X193025000Y-57941667D01*
X193025000Y-60541667D01*
G37*
G04 #@! TD.AperFunction*
X203275000Y-57041667D03*
G04 #@! TA.AperFunction,SMDPad,CuDef*
G36*
X155025000Y-118000000D02*
G01*
X152425000Y-118000000D01*
X152425000Y-116583000D01*
X153608000Y-115400000D01*
X155025000Y-115400000D01*
X155025000Y-118000000D01*
G37*
G04 #@! TD.AperFunction*
X165275000Y-114500000D03*
G04 #@! TA.AperFunction,SMDPad,CuDef*
G36*
X173815859Y-119741794D02*
G01*
X171304452Y-119068865D01*
X171671198Y-117700148D01*
X173120071Y-116863641D01*
X174488788Y-117230387D01*
X173815859Y-119741794D01*
G37*
G04 #@! TD.AperFunction*
G04 #@! TA.AperFunction,SMDPad,CuDef*
G36*
X186214633Y-118094710D02*
G01*
X185541704Y-120606117D01*
X183030297Y-119933188D01*
X183703226Y-117421781D01*
X186214633Y-118094710D01*
G37*
G04 #@! TD.AperFunction*
G04 #@! TA.AperFunction,SMDPad,CuDef*
G36*
X191515624Y-126287671D02*
G01*
X189263958Y-124987671D01*
X189972458Y-123760513D01*
X191588466Y-123327505D01*
X192815624Y-124036005D01*
X191515624Y-126287671D01*
G37*
G04 #@! TD.AperFunction*
G04 #@! TA.AperFunction,SMDPad,CuDef*
G36*
X203918217Y-127905749D02*
G01*
X202618217Y-130157415D01*
X200366551Y-128857415D01*
X201666551Y-126605749D01*
X203918217Y-127905749D01*
G37*
G04 #@! TD.AperFunction*
G04 #@! TA.AperFunction,SMDPad,CuDef*
G36*
X206918088Y-137191539D02*
G01*
X205079610Y-135353061D01*
X206081581Y-134351091D01*
X207754595Y-134351091D01*
X208756566Y-135353061D01*
X206918088Y-137191539D01*
G37*
G04 #@! TD.AperFunction*
G04 #@! TA.AperFunction,SMDPad,CuDef*
G36*
X218479284Y-141964509D02*
G01*
X216640806Y-143802987D01*
X214802328Y-141964509D01*
X216640806Y-140126031D01*
X218479284Y-141964509D01*
G37*
G04 #@! TD.AperFunction*
D11*
X107750000Y-96850000D03*
X107750000Y-100150000D03*
X107750000Y-77850000D03*
X107750000Y-81150000D03*
X107750000Y-58850000D03*
X107750000Y-62150000D03*
X126750000Y-96850000D03*
X126750000Y-100150000D03*
X126750000Y-77850000D03*
X126750000Y-81150000D03*
X126750000Y-58850000D03*
X126750000Y-62150000D03*
X145750000Y-87350000D03*
X145750000Y-90650000D03*
X145750000Y-68350000D03*
X145750000Y-71650000D03*
X145750000Y-49350000D03*
X145750000Y-52650000D03*
X164750000Y-82600000D03*
X164750000Y-85900000D03*
X164750000Y-63600000D03*
X164750000Y-66900000D03*
X164750000Y-44600000D03*
X164750000Y-47900000D03*
X183750000Y-85766667D03*
X183750000Y-89066667D03*
X183750000Y-66766667D03*
X183750000Y-70066667D03*
X183750000Y-47766667D03*
X183750000Y-51066667D03*
X202750000Y-88141667D03*
X202750000Y-91441667D03*
X202750000Y-69141667D03*
X202750000Y-72441667D03*
X202750000Y-50141667D03*
X202750000Y-53441667D03*
X164750000Y-107600000D03*
X164750000Y-110900000D03*
G04 #@! TA.AperFunction,SMDPad,CuDef*
G36*
X185438118Y-111623223D02*
G01*
X186597229Y-111933806D01*
X186364292Y-112803139D01*
X185205181Y-112492556D01*
X185438118Y-111623223D01*
G37*
G04 #@! TD.AperFunction*
G04 #@! TA.AperFunction,SMDPad,CuDef*
G36*
X184584016Y-114810779D02*
G01*
X185743127Y-115121362D01*
X185510190Y-115990695D01*
X184351079Y-115680112D01*
X184584016Y-114810779D01*
G37*
G04 #@! TD.AperFunction*
G04 #@! TA.AperFunction,SMDPad,CuDef*
G36*
X204843106Y-121453796D02*
G01*
X205882336Y-122053796D01*
X205432336Y-122833218D01*
X204393106Y-122233218D01*
X204843106Y-121453796D01*
G37*
G04 #@! TD.AperFunction*
G04 #@! TA.AperFunction,SMDPad,CuDef*
G36*
X203193106Y-124311680D02*
G01*
X204232336Y-124911680D01*
X203782336Y-125691102D01*
X202743106Y-125091102D01*
X203193106Y-124311680D01*
G37*
G04 #@! TD.AperFunction*
G04 #@! TA.AperFunction,SMDPad,CuDef*
G36*
X221042545Y-135971780D02*
G01*
X221891073Y-136820308D01*
X221254677Y-137456704D01*
X220406149Y-136608176D01*
X221042545Y-135971780D01*
G37*
G04 #@! TD.AperFunction*
G04 #@! TA.AperFunction,SMDPad,CuDef*
G36*
X218709093Y-138305232D02*
G01*
X219557621Y-139153760D01*
X218921225Y-139790156D01*
X218072697Y-138941628D01*
X218709093Y-138305232D01*
G37*
G04 #@! TD.AperFunction*
D12*
X207084000Y-51836667D03*
X222324000Y-51836667D03*
D13*
X211304000Y-51836667D03*
X218104000Y-51836667D03*
D14*
X209224000Y-51836667D03*
X210124000Y-51836667D03*
X219284000Y-51836667D03*
X220184000Y-51836667D03*
D12*
X207084000Y-54376667D03*
X222324000Y-54376667D03*
D13*
X211304000Y-54376667D03*
X218104000Y-54376667D03*
D14*
X209224000Y-54376667D03*
X210124000Y-54376667D03*
X219284000Y-54376667D03*
X220184000Y-54376667D03*
D12*
X207084000Y-56916667D03*
X222324000Y-56916667D03*
D13*
X211304000Y-56916667D03*
X218104000Y-56916667D03*
D14*
X209224000Y-56916667D03*
X210124000Y-56916667D03*
X219284000Y-56916667D03*
X220184000Y-56916667D03*
D12*
X207084000Y-59456667D03*
X222324000Y-59456667D03*
D13*
X211304000Y-59456667D03*
X218104000Y-59456667D03*
D14*
X209224000Y-59456667D03*
X210124000Y-59456667D03*
X219284000Y-59456667D03*
X220184000Y-59456667D03*
D12*
X207084000Y-61996667D03*
X222324000Y-61996667D03*
D13*
X211304000Y-61996667D03*
X218104000Y-61996667D03*
D14*
X209224000Y-61996667D03*
X210124000Y-61996667D03*
X219284000Y-61996667D03*
X220184000Y-61996667D03*
D12*
X207084000Y-64536667D03*
X222324000Y-64536667D03*
D13*
X211304000Y-64536667D03*
X218104000Y-64536667D03*
D14*
X209224000Y-64536667D03*
X210124000Y-64536667D03*
X219284000Y-64536667D03*
X220184000Y-64536667D03*
D12*
X207084000Y-67076667D03*
X222324000Y-67076667D03*
D13*
X211304000Y-67076667D03*
X218104000Y-67076667D03*
D14*
X209224000Y-67076667D03*
X210124000Y-67076667D03*
X219284000Y-67076667D03*
X220184000Y-67076667D03*
D12*
X207084000Y-69616667D03*
X222324000Y-69616667D03*
D13*
X211304000Y-69616667D03*
X218104000Y-69616667D03*
D14*
X209224000Y-69616667D03*
X210124000Y-69616667D03*
X219284000Y-69616667D03*
X220184000Y-69616667D03*
D12*
X207084000Y-72156667D03*
X222324000Y-72156667D03*
D13*
X211304000Y-72156667D03*
X218104000Y-72156667D03*
D14*
X209224000Y-72156667D03*
X210124000Y-72156667D03*
X219284000Y-72156667D03*
X220184000Y-72156667D03*
D12*
X207084000Y-74696667D03*
X222324000Y-74696667D03*
D13*
X211304000Y-74696667D03*
X218104000Y-74696667D03*
D14*
X209224000Y-74696667D03*
X210124000Y-74696667D03*
X219284000Y-74696667D03*
X220184000Y-74696667D03*
D12*
X207084000Y-77236667D03*
X222324000Y-77236667D03*
D13*
X211304000Y-77236667D03*
X218104000Y-77236667D03*
D14*
X209224000Y-77236667D03*
X210124000Y-77236667D03*
X219284000Y-77236667D03*
X220184000Y-77236667D03*
D12*
X207084000Y-79776667D03*
X222324000Y-79776667D03*
D13*
X211304000Y-79776667D03*
X218104000Y-79776667D03*
D14*
X209224000Y-79776667D03*
X210124000Y-79776667D03*
X219284000Y-79776667D03*
X220184000Y-79776667D03*
D15*
X209567000Y-85366667D03*
X212107000Y-85366667D03*
X217187000Y-85366667D03*
X219727000Y-85366667D03*
X209567000Y-86266667D03*
X212107000Y-86266667D03*
X217187000Y-86266667D03*
X219727000Y-86266667D03*
D16*
X209567000Y-83616667D03*
X212107000Y-83616667D03*
X214647000Y-83616667D03*
X217187000Y-83616667D03*
D12*
X219727000Y-83616667D03*
D17*
X224125000Y-89016667D03*
X221915000Y-89016667D03*
X221915000Y-96316667D03*
X224125000Y-96316667D03*
D18*
X221265000Y-94916667D03*
X221265000Y-91916667D03*
X221265000Y-90416667D03*
D19*
X217329000Y-47981667D03*
X217329000Y-49681667D03*
X212079000Y-47981667D03*
X212079000Y-49681667D03*
D20*
X211750000Y-92416667D03*
X211750000Y-90416667D03*
G04 #@! TA.AperFunction,SMDPad,CuDef*
G36*
X213350000Y-93016667D02*
G01*
X213150000Y-93016667D01*
X213150000Y-91816667D01*
X213350000Y-91816667D01*
X213950000Y-92416667D01*
X213350000Y-93016667D01*
G37*
G04 #@! TD.AperFunction*
G04 #@! TA.AperFunction,SMDPad,CuDef*
G36*
X213350000Y-91016667D02*
G01*
X213150000Y-91016667D01*
X213150000Y-89816667D01*
X213350000Y-89816667D01*
X213950000Y-90416667D01*
X213350000Y-91016667D01*
G37*
G04 #@! TD.AperFunction*
G04 #@! TA.AperFunction,SMDPad,CuDef*
G36*
X213566000Y-93016667D02*
G01*
X214166000Y-92416667D01*
X213566000Y-91816667D01*
X214816000Y-91816667D01*
X214816000Y-93016667D01*
X213566000Y-93016667D01*
G37*
G04 #@! TD.AperFunction*
G04 #@! TA.AperFunction,SMDPad,CuDef*
G36*
X213566000Y-91016667D02*
G01*
X214166000Y-90416667D01*
X213566000Y-89816667D01*
X214816000Y-89816667D01*
X214816000Y-91016667D01*
X213566000Y-91016667D01*
G37*
G04 #@! TD.AperFunction*
D21*
X100000000Y-103875000D03*
X100000000Y-103075000D03*
X100000000Y-84875000D03*
X100000000Y-84075000D03*
X100000000Y-65875000D03*
X100000000Y-65075000D03*
X119000000Y-103875000D03*
X119000000Y-103075000D03*
X119000000Y-84875000D03*
X119000000Y-84075000D03*
X119000000Y-65875000D03*
X119000000Y-65075000D03*
X138000000Y-94375000D03*
X138000000Y-93575000D03*
X138000000Y-75375000D03*
X138000000Y-74575000D03*
X138000000Y-56375000D03*
X138000000Y-55575000D03*
X157000000Y-89625000D03*
X157000000Y-88825000D03*
X157000000Y-70625000D03*
X157000000Y-69825000D03*
X157000000Y-51625000D03*
X157000000Y-50825000D03*
X176000000Y-92791667D03*
X176000000Y-91991667D03*
X176000000Y-73791667D03*
X176000000Y-72991667D03*
X176000000Y-54791667D03*
X176000000Y-53991667D03*
X195000000Y-95166667D03*
X195000000Y-94366667D03*
X195000000Y-76166667D03*
X195000000Y-75366667D03*
X195000000Y-57166667D03*
X195000000Y-56366667D03*
X157000000Y-114625000D03*
X157000000Y-113825000D03*
X176597076Y-116992963D03*
X176804131Y-116220222D03*
X194913524Y-124352335D03*
X195313524Y-123659515D03*
X210701109Y-136201589D03*
X211266794Y-135635904D03*
D22*
X96725000Y-105950000D02*
X98800000Y-103875000D01*
X98800000Y-103875000D02*
X100000000Y-103875000D01*
X106421000Y-101896000D02*
X102154000Y-101896000D01*
X100975000Y-103075000D02*
X100000000Y-103075000D01*
X108275000Y-103750000D02*
X106421000Y-101896000D01*
X102154000Y-101896000D02*
X100975000Y-103075000D01*
X96725000Y-86950000D02*
X98800000Y-84875000D01*
X98800000Y-84875000D02*
X100000000Y-84875000D01*
X106421000Y-82896000D02*
X102154000Y-82896000D01*
X100975000Y-84075000D02*
X100000000Y-84075000D01*
X108275000Y-84750000D02*
X106421000Y-82896000D01*
X102154000Y-82896000D02*
X100975000Y-84075000D01*
X96725000Y-67950000D02*
X98800000Y-65875000D01*
X98800000Y-65875000D02*
X100000000Y-65875000D01*
X106421000Y-63896000D02*
X102154000Y-63896000D01*
X100975000Y-65075000D02*
X100000000Y-65075000D01*
X108275000Y-65750000D02*
X106421000Y-63896000D01*
X102154000Y-63896000D02*
X100975000Y-65075000D01*
X115725000Y-105950000D02*
X117800000Y-103875000D01*
X117800000Y-103875000D02*
X119000000Y-103875000D01*
X125421000Y-101896000D02*
X121154000Y-101896000D01*
X119975000Y-103075000D02*
X119000000Y-103075000D01*
X127275000Y-103750000D02*
X125421000Y-101896000D01*
X121154000Y-101896000D02*
X119975000Y-103075000D01*
X115725000Y-86950000D02*
X117800000Y-84875000D01*
X117800000Y-84875000D02*
X119000000Y-84875000D01*
X125421000Y-82896000D02*
X121154000Y-82896000D01*
X119975000Y-84075000D02*
X119000000Y-84075000D01*
X127275000Y-84750000D02*
X125421000Y-82896000D01*
X121154000Y-82896000D02*
X119975000Y-84075000D01*
X115725000Y-67950000D02*
X117800000Y-65875000D01*
X117800000Y-65875000D02*
X119000000Y-65875000D01*
X125421000Y-63896000D02*
X121154000Y-63896000D01*
X119975000Y-65075000D02*
X119000000Y-65075000D01*
X127275000Y-65750000D02*
X125421000Y-63896000D01*
X121154000Y-63896000D02*
X119975000Y-65075000D01*
X134725000Y-96450000D02*
X136800000Y-94375000D01*
X136800000Y-94375000D02*
X138000000Y-94375000D01*
X144421000Y-92396000D02*
X140154000Y-92396000D01*
X138975000Y-93575000D02*
X138000000Y-93575000D01*
X146275000Y-94250000D02*
X144421000Y-92396000D01*
X140154000Y-92396000D02*
X138975000Y-93575000D01*
X134725000Y-77450000D02*
X136800000Y-75375000D01*
X136800000Y-75375000D02*
X138000000Y-75375000D01*
X144421000Y-73396000D02*
X140154000Y-73396000D01*
X138975000Y-74575000D02*
X138000000Y-74575000D01*
X146275000Y-75250000D02*
X144421000Y-73396000D01*
X140154000Y-73396000D02*
X138975000Y-74575000D01*
X134725000Y-58450000D02*
X136800000Y-56375000D01*
X136800000Y-56375000D02*
X138000000Y-56375000D01*
X144421000Y-54396000D02*
X140154000Y-54396000D01*
X138975000Y-55575000D02*
X138000000Y-55575000D01*
X146275000Y-56250000D02*
X144421000Y-54396000D01*
X140154000Y-54396000D02*
X138975000Y-55575000D01*
X153725000Y-91700000D02*
X155800000Y-89625000D01*
X155800000Y-89625000D02*
X157000000Y-89625000D01*
X163421000Y-87646000D02*
X159154000Y-87646000D01*
X157975000Y-88825000D02*
X157000000Y-88825000D01*
X165275000Y-89500000D02*
X163421000Y-87646000D01*
X159154000Y-87646000D02*
X157975000Y-88825000D01*
X153725000Y-72700000D02*
X155800000Y-70625000D01*
X155800000Y-70625000D02*
X157000000Y-70625000D01*
X163421000Y-68646000D02*
X159154000Y-68646000D01*
X157975000Y-69825000D02*
X157000000Y-69825000D01*
X165275000Y-70500000D02*
X163421000Y-68646000D01*
X159154000Y-68646000D02*
X157975000Y-69825000D01*
X153725000Y-53700000D02*
X155800000Y-51625000D01*
X155800000Y-51625000D02*
X157000000Y-51625000D01*
X163421000Y-49646000D02*
X159154000Y-49646000D01*
X157975000Y-50825000D02*
X157000000Y-50825000D01*
X165275000Y-51500000D02*
X163421000Y-49646000D01*
X159154000Y-49646000D02*
X157975000Y-50825000D01*
X172725000Y-94866667D02*
X174800000Y-92791667D01*
X174800000Y-92791667D02*
X176000000Y-92791667D01*
X182421000Y-90812667D02*
X178154000Y-90812667D01*
X176975000Y-91991667D02*
X176000000Y-91991667D01*
X184275000Y-92666667D02*
X182421000Y-90812667D01*
X178154000Y-90812667D02*
X176975000Y-91991667D01*
X172725000Y-75866667D02*
X174800000Y-73791667D01*
X174800000Y-73791667D02*
X176000000Y-73791667D01*
X182421000Y-71812667D02*
X178154000Y-71812667D01*
X176975000Y-72991667D02*
X176000000Y-72991667D01*
X184275000Y-73666667D02*
X182421000Y-71812667D01*
X178154000Y-71812667D02*
X176975000Y-72991667D01*
X172725000Y-56866667D02*
X174800000Y-54791667D01*
X174800000Y-54791667D02*
X176000000Y-54791667D01*
X182421000Y-52812667D02*
X178154000Y-52812667D01*
X176975000Y-53991667D02*
X176000000Y-53991667D01*
X184275000Y-54666667D02*
X182421000Y-52812667D01*
X178154000Y-52812667D02*
X176975000Y-53991667D01*
X191725000Y-97241667D02*
X193800000Y-95166667D01*
X193800000Y-95166667D02*
X195000000Y-95166667D01*
X201421000Y-93187667D02*
X197154000Y-93187667D01*
X195975000Y-94366667D02*
X195000000Y-94366667D01*
X203275000Y-95041667D02*
X201421000Y-93187667D01*
X197154000Y-93187667D02*
X195975000Y-94366667D01*
X191725000Y-78241667D02*
X193800000Y-76166667D01*
X193800000Y-76166667D02*
X195000000Y-76166667D01*
X201421000Y-74187667D02*
X197154000Y-74187667D01*
X195975000Y-75366667D02*
X195000000Y-75366667D01*
X203275000Y-76041667D02*
X201421000Y-74187667D01*
X197154000Y-74187667D02*
X195975000Y-75366667D01*
X191725000Y-59241667D02*
X193800000Y-57166667D01*
X193800000Y-57166667D02*
X195000000Y-57166667D01*
X201421000Y-55187667D02*
X197154000Y-55187667D01*
X195975000Y-56366667D02*
X195000000Y-56366667D01*
X203275000Y-57041667D02*
X201421000Y-55187667D01*
X197154000Y-55187667D02*
X195975000Y-56366667D01*
X153725000Y-116700000D02*
X155800000Y-114625000D01*
X155800000Y-114625000D02*
X157000000Y-114625000D01*
X163421000Y-112646000D02*
X159154000Y-112646000D01*
X157975000Y-113825000D02*
X157000000Y-113825000D01*
X165275000Y-114500000D02*
X163421000Y-112646000D01*
X159154000Y-112646000D02*
X157975000Y-113825000D01*
X172896620Y-118149626D02*
X175437965Y-116682380D01*
X175437965Y-116682380D02*
X176597076Y-116992963D01*
X183311489Y-116743273D02*
X179189883Y-115638892D01*
X177745909Y-116472571D02*
X176804131Y-116220222D01*
X184622465Y-119013949D02*
X183311489Y-116743273D01*
X179189883Y-115638892D02*
X177745909Y-116472571D01*
X191039791Y-124511838D02*
X193874294Y-123752335D01*
X193874294Y-123752335D02*
X194913524Y-124352335D01*
X201463774Y-125848971D02*
X197768443Y-123715471D01*
X196157899Y-124147015D02*
X195313524Y-123659515D01*
X202142385Y-128381582D02*
X201463774Y-125848971D01*
X197768443Y-123715471D02*
X196157899Y-124147015D01*
X206918088Y-135353061D02*
X209852581Y-135353061D01*
X209852581Y-135353061D02*
X210701109Y-136201589D01*
X216640806Y-139342558D02*
X213623581Y-136325333D01*
X211956224Y-136325333D02*
X211266794Y-135635904D01*
X216640806Y-141964509D02*
X216640806Y-139342558D01*
X213623581Y-136325333D02*
X211956224Y-136325333D01*
D23*
X219284000Y-51836667D02*
X218104000Y-51836667D01*
X210124000Y-51836667D02*
X211304000Y-51836667D01*
X207084000Y-51836667D02*
X209204000Y-51836667D01*
X220204000Y-51836667D02*
X222324000Y-51836667D01*
X219284000Y-54376667D02*
X218104000Y-54376667D01*
X210124000Y-54376667D02*
X211304000Y-54376667D01*
X207084000Y-54376667D02*
X209204000Y-54376667D01*
X220204000Y-54376667D02*
X222324000Y-54376667D01*
X219284000Y-56916667D02*
X218104000Y-56916667D01*
X210124000Y-56916667D02*
X211304000Y-56916667D01*
X207084000Y-56916667D02*
X209204000Y-56916667D01*
X220204000Y-56916667D02*
X222324000Y-56916667D01*
X219284000Y-59456667D02*
X218104000Y-59456667D01*
X210124000Y-59456667D02*
X211304000Y-59456667D01*
X207084000Y-59456667D02*
X209204000Y-59456667D01*
X220204000Y-59456667D02*
X222324000Y-59456667D01*
X219284000Y-61996667D02*
X218104000Y-61996667D01*
X210124000Y-61996667D02*
X211304000Y-61996667D01*
X207084000Y-61996667D02*
X209204000Y-61996667D01*
X220204000Y-61996667D02*
X222324000Y-61996667D01*
X219284000Y-64536667D02*
X218104000Y-64536667D01*
X210124000Y-64536667D02*
X211304000Y-64536667D01*
X207084000Y-64536667D02*
X209204000Y-64536667D01*
X220204000Y-64536667D02*
X222324000Y-64536667D01*
X219284000Y-67076667D02*
X218104000Y-67076667D01*
X210124000Y-67076667D02*
X211304000Y-67076667D01*
X207084000Y-67076667D02*
X209204000Y-67076667D01*
X220204000Y-67076667D02*
X222324000Y-67076667D01*
X219284000Y-69616667D02*
X218104000Y-69616667D01*
X210124000Y-69616667D02*
X211304000Y-69616667D01*
X207084000Y-69616667D02*
X209204000Y-69616667D01*
X220204000Y-69616667D02*
X222324000Y-69616667D01*
X219284000Y-72156667D02*
X218104000Y-72156667D01*
X210124000Y-72156667D02*
X211304000Y-72156667D01*
X207084000Y-72156667D02*
X209204000Y-72156667D01*
X220204000Y-72156667D02*
X222324000Y-72156667D01*
X219284000Y-74696667D02*
X218104000Y-74696667D01*
X210124000Y-74696667D02*
X211304000Y-74696667D01*
X207084000Y-74696667D02*
X209204000Y-74696667D01*
X220204000Y-74696667D02*
X222324000Y-74696667D01*
X219284000Y-77236667D02*
X218104000Y-77236667D01*
X210124000Y-77236667D02*
X211304000Y-77236667D01*
X207084000Y-77236667D02*
X209204000Y-77236667D01*
X220204000Y-77236667D02*
X222324000Y-77236667D01*
X219284000Y-79776667D02*
X218104000Y-79776667D01*
X210124000Y-79776667D02*
X211304000Y-79776667D01*
X207084000Y-79776667D02*
X209204000Y-79776667D01*
X220204000Y-79776667D02*
X222324000Y-79776667D01*
X209567000Y-83616667D02*
X209567000Y-85366667D01*
X212107000Y-83616667D02*
X212107000Y-85366667D01*
X217187000Y-83616667D02*
X217187000Y-85366667D01*
X219727000Y-83616667D02*
X219727000Y-85366667D01*
X213550000Y-92416667D02*
X211750000Y-92416667D01*
X213550000Y-90416667D02*
X211750000Y-90416667D01*
M02*
