%TF.GenerationSoftware,KiCad,Pcbnew,8.0.8+1*%
%TF.CreationDate,2026-05-17T21:37:08+00:00*%
%TF.ProjectId,my_first_keyboard_wireless,6d795f66-6972-4737-945f-6b6579626f61,0.1*%
%TF.SameCoordinates,Original*%
%TF.FileFunction,Drillmap*%
%TF.FilePolarity,Positive*%
%FSLAX45Y45*%
G04 Gerber Fmt 4.5, Leading zero omitted, Abs format (unit mm)*
G04 Created by KiCad (PCBNEW 8.0.8+1) date 2026-05-17 21:37:08*
%MOMM*%
%LPD*%
G01*
G04 APERTURE LIST*
%ADD10C,0.150000*%
%ADD11C,0.200000*%
%ADD12C,0.100000*%
%ADD13C,0.220000*%
%ADD14C,0.300000*%
%ADD15C,0.430000*%
%ADD16C,0.500000*%
G04 APERTURE END LIST*
D10*
X9108198Y-10874287D02*
X9108002Y-5349015D01*
X9158015Y-5299013D02*
X12857987Y-5299987D01*
X12908000Y-5249987D02*
X12908000Y-4399158D01*
X12958158Y-4349158D02*
X14757842Y-4354842D01*
X14808000Y-4304842D02*
X14808000Y-3936300D01*
X14858000Y-3886300D02*
X16558200Y-3886300D01*
X16608200Y-3936300D02*
X16608200Y-4144886D01*
X16658314Y-4194886D02*
X18458086Y-4190781D01*
X18508200Y-4240781D02*
X18508200Y-4390467D01*
X18558200Y-4440467D02*
X20358222Y-4440467D01*
X20408222Y-4490445D02*
X20408278Y-4615689D01*
X22451800Y-10766326D02*
X22695551Y-13383369D01*
X22681122Y-13423361D02*
X21434271Y-14670212D01*
X21363560Y-14670212D02*
X20046115Y-13352767D01*
X20035301Y-13344560D02*
X18432826Y-12441778D01*
X18420755Y-12436921D02*
X16664097Y-11984504D01*
X16651509Y-11982925D02*
X14755514Y-11987384D01*
X14705400Y-11937990D02*
X14694095Y-11005112D01*
X14644385Y-10955719D02*
X9157912Y-10924285D01*
X20458278Y-4665667D02*
X22433300Y-4665667D01*
X22483300Y-4715667D02*
X22483300Y-10698369D01*
X22476601Y-10723369D02*
X22451800Y-10766326D01*
X9108002Y-5349015D02*
G75*
G02*
X9158015Y-5299012I49998J5D01*
G01*
X12908000Y-5249987D02*
G75*
G02*
X12857987Y-5299990I-50000J-3D01*
G01*
X12908000Y-4399158D02*
G75*
G02*
X12958158Y-4349160I50000J-2D01*
G01*
X14808000Y-4304842D02*
G75*
G02*
X14757842Y-4354840I-50000J2D01*
G01*
X14808000Y-3936300D02*
G75*
G02*
X14858000Y-3886300I50000J0D01*
G01*
X16558200Y-3886300D02*
G75*
G02*
X16608200Y-3936300I0J-50000D01*
G01*
X16658314Y-4194886D02*
G75*
G02*
X16608204Y-4144886I-114J49996D01*
G01*
X18458086Y-4190781D02*
G75*
G02*
X18508199Y-4240781I114J-49999D01*
G01*
X18558200Y-4440467D02*
G75*
G02*
X18508203Y-4390467I0J49997D01*
G01*
X20358222Y-4440467D02*
G75*
G02*
X20408223Y-4490445I-2J-50003D01*
G01*
X20458278Y-4665667D02*
G75*
G02*
X20408283Y-4615689I2J49997D01*
G01*
X22433300Y-4665667D02*
G75*
G02*
X22483303Y-4715667I0J-50003D01*
G01*
X22483300Y-10698369D02*
G75*
G02*
X22476602Y-10723369I-50000J-1D01*
G01*
X22695551Y-13383369D02*
G75*
G02*
X22681124Y-13423363I-49781J-4641D01*
G01*
X21434271Y-14670212D02*
G75*
G02*
X21363560Y-14670212I-35355J35356D01*
G01*
X20035301Y-13344560D02*
G75*
G02*
X20046115Y-13352768I-24541J-43560D01*
G01*
X18420755Y-12436921D02*
G75*
G02*
X18432826Y-12441779I-12475J-48419D01*
G01*
X16651509Y-11982925D02*
G75*
G02*
X16664097Y-11984504I121J-50005D01*
G01*
X14755514Y-11987384D02*
G75*
G02*
X14705400Y-11937990I-114J50004D01*
G01*
X14644385Y-10955719D02*
G75*
G02*
X14694098Y-11005112I-285J-50001D01*
G01*
X9157912Y-10924285D02*
G75*
G02*
X9108204Y-10874287I288J49995D01*
G01*
D11*
D12*
X21432900Y-4708167D02*
X21507900Y-4783167D01*
X21507900Y-4708167D02*
X21432900Y-4783167D01*
X21432900Y-4983167D02*
X21507900Y-5058167D01*
X21507900Y-4983167D02*
X21432900Y-5058167D01*
X22347500Y-9116667D02*
G75*
G02*
X22257500Y-9116667I-45000J0D01*
G01*
X22257500Y-9116667D02*
G75*
G02*
X22347500Y-9116667I45000J0D01*
G01*
X22347500Y-9416667D02*
G75*
G02*
X22257500Y-9416667I-45000J0D01*
G01*
X22257500Y-9416667D02*
G75*
G02*
X22347500Y-9416667I45000J0D01*
G01*
D13*
X20776200Y-9304267D02*
X20776200Y-9524267D01*
X20666200Y-9414267D02*
X20886200Y-9414267D01*
X22219400Y-10156167D02*
X22219400Y-10376167D01*
X22109400Y-10266167D02*
X22329400Y-10266167D01*
D14*
X9606067Y-6681067D02*
X9606067Y-6468933D01*
X9393933Y-6468933D01*
X9393933Y-6681067D01*
X9606067Y-6681067D01*
X9606067Y-8581067D02*
X9606067Y-8368933D01*
X9393933Y-8368933D01*
X9393933Y-8581067D01*
X9606067Y-8581067D01*
X9606067Y-10481067D02*
X9606067Y-10268933D01*
X9393933Y-10268933D01*
X9393933Y-10481067D01*
X9606067Y-10481067D01*
X10106067Y-6901067D02*
X10106067Y-6688933D01*
X9893933Y-6688933D01*
X9893933Y-6901067D01*
X10106067Y-6901067D01*
X10106067Y-8801067D02*
X10106067Y-8588933D01*
X9893933Y-8588933D01*
X9893933Y-8801067D01*
X10106067Y-8801067D01*
X10106067Y-10701067D02*
X10106067Y-10488933D01*
X9893933Y-10488933D01*
X9893933Y-10701067D01*
X10106067Y-10701067D01*
X10606067Y-6681067D02*
X10606067Y-6468933D01*
X10393933Y-6468933D01*
X10393933Y-6681067D01*
X10606067Y-6681067D01*
X10606067Y-8581067D02*
X10606067Y-8368933D01*
X10393933Y-8368933D01*
X10393933Y-8581067D01*
X10606067Y-8581067D01*
X10606067Y-10481067D02*
X10606067Y-10268933D01*
X10393933Y-10268933D01*
X10393933Y-10481067D01*
X10606067Y-10481067D01*
X11506067Y-6681067D02*
X11506067Y-6468933D01*
X11293933Y-6468933D01*
X11293933Y-6681067D01*
X11506067Y-6681067D01*
X11506067Y-8581067D02*
X11506067Y-8368933D01*
X11293933Y-8368933D01*
X11293933Y-8581067D01*
X11506067Y-8581067D01*
X11506067Y-10481067D02*
X11506067Y-10268933D01*
X11293933Y-10268933D01*
X11293933Y-10481067D01*
X11506067Y-10481067D01*
X12006067Y-6901067D02*
X12006067Y-6688933D01*
X11793933Y-6688933D01*
X11793933Y-6901067D01*
X12006067Y-6901067D01*
X12006067Y-8801067D02*
X12006067Y-8588933D01*
X11793933Y-8588933D01*
X11793933Y-8801067D01*
X12006067Y-8801067D01*
X12006067Y-10701067D02*
X12006067Y-10488933D01*
X11793933Y-10488933D01*
X11793933Y-10701067D01*
X12006067Y-10701067D01*
X12506067Y-6681067D02*
X12506067Y-6468933D01*
X12293933Y-6468933D01*
X12293933Y-6681067D01*
X12506067Y-6681067D01*
X12506067Y-8581067D02*
X12506067Y-8368933D01*
X12293933Y-8368933D01*
X12293933Y-8581067D01*
X12506067Y-8581067D01*
X12506067Y-10481067D02*
X12506067Y-10268933D01*
X12293933Y-10268933D01*
X12293933Y-10481067D01*
X12506067Y-10481067D01*
X13406067Y-5731067D02*
X13406067Y-5518933D01*
X13193933Y-5518933D01*
X13193933Y-5731067D01*
X13406067Y-5731067D01*
X13406067Y-7631067D02*
X13406067Y-7418933D01*
X13193933Y-7418933D01*
X13193933Y-7631067D01*
X13406067Y-7631067D01*
X13406067Y-9531067D02*
X13406067Y-9318933D01*
X13193933Y-9318933D01*
X13193933Y-9531067D01*
X13406067Y-9531067D01*
X13906067Y-5951067D02*
X13906067Y-5738933D01*
X13693933Y-5738933D01*
X13693933Y-5951067D01*
X13906067Y-5951067D01*
X13906067Y-7851067D02*
X13906067Y-7638933D01*
X13693933Y-7638933D01*
X13693933Y-7851067D01*
X13906067Y-7851067D01*
X13906067Y-9751067D02*
X13906067Y-9538933D01*
X13693933Y-9538933D01*
X13693933Y-9751067D01*
X13906067Y-9751067D01*
X14406067Y-5731067D02*
X14406067Y-5518933D01*
X14193933Y-5518933D01*
X14193933Y-5731067D01*
X14406067Y-5731067D01*
X14406067Y-7631067D02*
X14406067Y-7418933D01*
X14193933Y-7418933D01*
X14193933Y-7631067D01*
X14406067Y-7631067D01*
X14406067Y-9531067D02*
X14406067Y-9318933D01*
X14193933Y-9318933D01*
X14193933Y-9531067D01*
X14406067Y-9531067D01*
X15306067Y-5256067D02*
X15306067Y-5043933D01*
X15093933Y-5043933D01*
X15093933Y-5256067D01*
X15306067Y-5256067D01*
X15306067Y-7156067D02*
X15306067Y-6943933D01*
X15093933Y-6943933D01*
X15093933Y-7156067D01*
X15306067Y-7156067D01*
X15306067Y-9056067D02*
X15306067Y-8843933D01*
X15093933Y-8843933D01*
X15093933Y-9056067D01*
X15306067Y-9056067D01*
X15306067Y-11556067D02*
X15306067Y-11343933D01*
X15093933Y-11343933D01*
X15093933Y-11556067D01*
X15306067Y-11556067D01*
X15806067Y-5476067D02*
X15806067Y-5263933D01*
X15593933Y-5263933D01*
X15593933Y-5476067D01*
X15806067Y-5476067D01*
X15806067Y-7376067D02*
X15806067Y-7163933D01*
X15593933Y-7163933D01*
X15593933Y-7376067D01*
X15806067Y-7376067D01*
X15806067Y-9276067D02*
X15806067Y-9063933D01*
X15593933Y-9063933D01*
X15593933Y-9276067D01*
X15806067Y-9276067D01*
X15806067Y-11776067D02*
X15806067Y-11563933D01*
X15593933Y-11563933D01*
X15593933Y-11776067D01*
X15806067Y-11776067D01*
X16306067Y-5256067D02*
X16306067Y-5043933D01*
X16093933Y-5043933D01*
X16093933Y-5256067D01*
X16306067Y-5256067D01*
X16306067Y-7156067D02*
X16306067Y-6943933D01*
X16093933Y-6943933D01*
X16093933Y-7156067D01*
X16306067Y-7156067D01*
X16306067Y-9056067D02*
X16306067Y-8843933D01*
X16093933Y-8843933D01*
X16093933Y-9056067D01*
X16306067Y-9056067D01*
X16306067Y-11556067D02*
X16306067Y-11343933D01*
X16093933Y-11343933D01*
X16093933Y-11556067D01*
X16306067Y-11556067D01*
X17206067Y-5572734D02*
X17206067Y-5360600D01*
X16993933Y-5360600D01*
X16993933Y-5572734D01*
X17206067Y-5572734D01*
X17206067Y-7472734D02*
X17206067Y-7260600D01*
X16993933Y-7260600D01*
X16993933Y-7472734D01*
X17206067Y-7472734D01*
X17206067Y-9372734D02*
X17206067Y-9160600D01*
X16993933Y-9160600D01*
X16993933Y-9372734D01*
X17206067Y-9372734D01*
X17286047Y-11663880D02*
X17286047Y-11451746D01*
X17073913Y-11451746D01*
X17073913Y-11663880D01*
X17286047Y-11663880D01*
X17706067Y-5792734D02*
X17706067Y-5580600D01*
X17493933Y-5580600D01*
X17493933Y-5792734D01*
X17706067Y-5792734D01*
X17706067Y-7692734D02*
X17706067Y-7480600D01*
X17493933Y-7480600D01*
X17493933Y-7692734D01*
X17706067Y-7692734D01*
X17706067Y-9592734D02*
X17706067Y-9380600D01*
X17493933Y-9380600D01*
X17493933Y-9592734D01*
X17706067Y-9592734D01*
X17712070Y-12005793D02*
X17712070Y-11793659D01*
X17499936Y-11793659D01*
X17499936Y-12005793D01*
X17712070Y-12005793D01*
X18206067Y-5572734D02*
X18206067Y-5360600D01*
X17993933Y-5360600D01*
X17993933Y-5572734D01*
X18206067Y-5572734D01*
X18206067Y-7472734D02*
X18206067Y-7260600D01*
X17993933Y-7260600D01*
X17993933Y-7472734D01*
X18206067Y-7472734D01*
X18206067Y-9372734D02*
X18206067Y-9160600D01*
X17993933Y-9160600D01*
X17993933Y-9372734D01*
X18206067Y-9372734D01*
X18251973Y-11922699D02*
X18251973Y-11710565D01*
X18039839Y-11710565D01*
X18039839Y-11922699D01*
X18251973Y-11922699D01*
X19106067Y-5810234D02*
X19106067Y-5598100D01*
X18893933Y-5598100D01*
X18893933Y-5810234D01*
X19106067Y-5810234D01*
X19106067Y-7710234D02*
X19106067Y-7498100D01*
X18893933Y-7498100D01*
X18893933Y-7710234D01*
X19106067Y-7710234D01*
X19106067Y-9610234D02*
X19106067Y-9398100D01*
X18893933Y-9398100D01*
X18893933Y-9610234D01*
X19106067Y-9610234D01*
X19170657Y-12280475D02*
X19170657Y-12068341D01*
X18958523Y-12068341D01*
X18958523Y-12280475D01*
X19170657Y-12280475D01*
X19493669Y-12721001D02*
X19493669Y-12508867D01*
X19281535Y-12508867D01*
X19281535Y-12721001D01*
X19493669Y-12721001D01*
X19606067Y-6030234D02*
X19606067Y-5818100D01*
X19393933Y-5818100D01*
X19393933Y-6030234D01*
X19606067Y-6030234D01*
X19606067Y-7930234D02*
X19606067Y-7718100D01*
X19393933Y-7718100D01*
X19393933Y-7930234D01*
X19606067Y-7930234D01*
X19606067Y-9830234D02*
X19606067Y-9618100D01*
X19393933Y-9618100D01*
X19393933Y-9830234D01*
X19606067Y-9830234D01*
X20036682Y-12780475D02*
X20036682Y-12568341D01*
X19824548Y-12568341D01*
X19824548Y-12780475D01*
X20036682Y-12780475D01*
X20106067Y-5810234D02*
X20106067Y-5598100D01*
X19893933Y-5598100D01*
X19893933Y-5810234D01*
X20106067Y-5810234D01*
X20106067Y-7710234D02*
X20106067Y-7498100D01*
X19893933Y-7498100D01*
X19893933Y-7710234D01*
X20106067Y-7710234D01*
X20106067Y-9610234D02*
X20106067Y-9398100D01*
X19893933Y-9398100D01*
X19893933Y-9610234D01*
X20106067Y-9610234D01*
X20831463Y-13363834D02*
X20831463Y-13151700D01*
X20619329Y-13151700D01*
X20619329Y-13363834D01*
X20831463Y-13363834D01*
X21029453Y-13872950D02*
X21029453Y-13660816D01*
X20817319Y-13660816D01*
X20817319Y-13872950D01*
X21029453Y-13872950D01*
X21538570Y-14070940D02*
X21538570Y-13858806D01*
X21326436Y-13858806D01*
X21326436Y-14070940D01*
X21538570Y-14070940D01*
D15*
X10950000Y-7365000D02*
X11165000Y-7150000D01*
X10950000Y-6935000D01*
X10735000Y-7150000D01*
X10950000Y-7365000D01*
X10950000Y-9265000D02*
X11165000Y-9050000D01*
X10950000Y-8835000D01*
X10735000Y-9050000D01*
X10950000Y-9265000D01*
X14315700Y-10576500D02*
X14530700Y-10361500D01*
X14315700Y-10146500D01*
X14100700Y-10361500D01*
X14315700Y-10576500D01*
X18546800Y-6380267D02*
X18761800Y-6165267D01*
X18546800Y-5950267D01*
X18331800Y-6165267D01*
X18546800Y-6380267D01*
X21437730Y-11479008D02*
X21652730Y-11264008D01*
X21437730Y-11049008D01*
X21222730Y-11264008D01*
X21437730Y-11479008D01*
D16*
X9750000Y-5950000D02*
X10250000Y-6450000D01*
X10250000Y-5950000D02*
X9750000Y-6450000D01*
X10250000Y-6200000D02*
G75*
G02*
X9750000Y-6200000I-250000J0D01*
G01*
X9750000Y-6200000D02*
G75*
G02*
X10250000Y-6200000I250000J0D01*
G01*
X9750000Y-7850000D02*
X10250000Y-8350000D01*
X10250000Y-7850000D02*
X9750000Y-8350000D01*
X10250000Y-8100000D02*
G75*
G02*
X9750000Y-8100000I-250000J0D01*
G01*
X9750000Y-8100000D02*
G75*
G02*
X10250000Y-8100000I250000J0D01*
G01*
X9750000Y-9750000D02*
X10250000Y-10250000D01*
X10250000Y-9750000D02*
X9750000Y-10250000D01*
X10250000Y-10000000D02*
G75*
G02*
X9750000Y-10000000I-250000J0D01*
G01*
X9750000Y-10000000D02*
G75*
G02*
X10250000Y-10000000I250000J0D01*
G01*
X11650000Y-5950000D02*
X12150000Y-6450000D01*
X12150000Y-5950000D02*
X11650000Y-6450000D01*
X12150000Y-6200000D02*
G75*
G02*
X11650000Y-6200000I-250000J0D01*
G01*
X11650000Y-6200000D02*
G75*
G02*
X12150000Y-6200000I250000J0D01*
G01*
X11650000Y-7850000D02*
X12150000Y-8350000D01*
X12150000Y-7850000D02*
X11650000Y-8350000D01*
X12150000Y-8100000D02*
G75*
G02*
X11650000Y-8100000I-250000J0D01*
G01*
X11650000Y-8100000D02*
G75*
G02*
X12150000Y-8100000I250000J0D01*
G01*
X11650000Y-9750000D02*
X12150000Y-10250000D01*
X12150000Y-9750000D02*
X11650000Y-10250000D01*
X12150000Y-10000000D02*
G75*
G02*
X11650000Y-10000000I-250000J0D01*
G01*
X11650000Y-10000000D02*
G75*
G02*
X12150000Y-10000000I250000J0D01*
G01*
X13550000Y-5000000D02*
X14050000Y-5500000D01*
X14050000Y-5000000D02*
X13550000Y-5500000D01*
X14050000Y-5250000D02*
G75*
G02*
X13550000Y-5250000I-250000J0D01*
G01*
X13550000Y-5250000D02*
G75*
G02*
X14050000Y-5250000I250000J0D01*
G01*
X13550000Y-6900000D02*
X14050000Y-7400000D01*
X14050000Y-6900000D02*
X13550000Y-7400000D01*
X14050000Y-7150000D02*
G75*
G02*
X13550000Y-7150000I-250000J0D01*
G01*
X13550000Y-7150000D02*
G75*
G02*
X14050000Y-7150000I250000J0D01*
G01*
X13550000Y-8800000D02*
X14050000Y-9300000D01*
X14050000Y-8800000D02*
X13550000Y-9300000D01*
X14050000Y-9050000D02*
G75*
G02*
X13550000Y-9050000I-250000J0D01*
G01*
X13550000Y-9050000D02*
G75*
G02*
X14050000Y-9050000I250000J0D01*
G01*
X15450000Y-4525000D02*
X15950000Y-5025000D01*
X15950000Y-4525000D02*
X15450000Y-5025000D01*
X15950000Y-4775000D02*
G75*
G02*
X15450000Y-4775000I-250000J0D01*
G01*
X15450000Y-4775000D02*
G75*
G02*
X15950000Y-4775000I250000J0D01*
G01*
X15450000Y-6425000D02*
X15950000Y-6925000D01*
X15950000Y-6425000D02*
X15450000Y-6925000D01*
X15950000Y-6675000D02*
G75*
G02*
X15450000Y-6675000I-250000J0D01*
G01*
X15450000Y-6675000D02*
G75*
G02*
X15950000Y-6675000I250000J0D01*
G01*
X15450000Y-8325000D02*
X15950000Y-8825000D01*
X15950000Y-8325000D02*
X15450000Y-8825000D01*
X15950000Y-8575000D02*
G75*
G02*
X15450000Y-8575000I-250000J0D01*
G01*
X15450000Y-8575000D02*
G75*
G02*
X15950000Y-8575000I250000J0D01*
G01*
X15450000Y-10825000D02*
X15950000Y-11325000D01*
X15950000Y-10825000D02*
X15450000Y-11325000D01*
X15950000Y-11075000D02*
G75*
G02*
X15450000Y-11075000I-250000J0D01*
G01*
X15450000Y-11075000D02*
G75*
G02*
X15950000Y-11075000I250000J0D01*
G01*
X17350000Y-4841667D02*
X17850000Y-5341667D01*
X17850000Y-4841667D02*
X17350000Y-5341667D01*
X17850000Y-5091667D02*
G75*
G02*
X17350000Y-5091667I-250000J0D01*
G01*
X17350000Y-5091667D02*
G75*
G02*
X17850000Y-5091667I250000J0D01*
G01*
X17350000Y-6741667D02*
X17850000Y-7241667D01*
X17850000Y-6741667D02*
X17350000Y-7241667D01*
X17850000Y-6991667D02*
G75*
G02*
X17350000Y-6991667I-250000J0D01*
G01*
X17350000Y-6991667D02*
G75*
G02*
X17850000Y-6991667I250000J0D01*
G01*
X17350000Y-8641667D02*
X17850000Y-9141667D01*
X17850000Y-8641667D02*
X17350000Y-9141667D01*
X17850000Y-8891667D02*
G75*
G02*
X17350000Y-8891667I-250000J0D01*
G01*
X17350000Y-8891667D02*
G75*
G02*
X17850000Y-8891667I250000J0D01*
G01*
X17510000Y-11075000D02*
X18010000Y-11575000D01*
X18010000Y-11075000D02*
X17510000Y-11575000D01*
X18010000Y-11325000D02*
G75*
G02*
X17510000Y-11325000I-250000J0D01*
G01*
X17510000Y-11325000D02*
G75*
G02*
X18010000Y-11325000I250000J0D01*
G01*
X19250000Y-5079167D02*
X19750000Y-5579167D01*
X19750000Y-5079167D02*
X19250000Y-5579167D01*
X19750000Y-5329167D02*
G75*
G02*
X19250000Y-5329167I-250000J0D01*
G01*
X19250000Y-5329167D02*
G75*
G02*
X19750000Y-5329167I250000J0D01*
G01*
X19250000Y-6979167D02*
X19750000Y-7479167D01*
X19750000Y-6979167D02*
X19250000Y-7479167D01*
X19750000Y-7229167D02*
G75*
G02*
X19250000Y-7229167I-250000J0D01*
G01*
X19250000Y-7229167D02*
G75*
G02*
X19750000Y-7229167I250000J0D01*
G01*
X19250000Y-8879167D02*
X19750000Y-9379167D01*
X19750000Y-8879167D02*
X19250000Y-9379167D01*
X19750000Y-9129167D02*
G75*
G02*
X19250000Y-9129167I-250000J0D01*
G01*
X19250000Y-9129167D02*
G75*
G02*
X19750000Y-9129167I250000J0D01*
G01*
X19435102Y-11849649D02*
X19935102Y-12349649D01*
X19935102Y-11849649D02*
X19435102Y-12349649D01*
X19935102Y-12099649D02*
G75*
G02*
X19435102Y-12099649I-250000J0D01*
G01*
X19435102Y-12099649D02*
G75*
G02*
X19935102Y-12099649I250000J0D01*
G01*
X21094115Y-13096155D02*
X21594115Y-13596155D01*
X21594115Y-13096155D02*
X21094115Y-13596155D01*
X21594115Y-13346155D02*
G75*
G02*
X21094115Y-13346155I-250000J0D01*
G01*
X21094115Y-13346155D02*
G75*
G02*
X21594115Y-13346155I250000J0D01*
G01*
D11*
X9361279Y-15003841D02*
X9361279Y-14803841D01*
X9361279Y-14803841D02*
X9408898Y-14803841D01*
X9408898Y-14803841D02*
X9437469Y-14813365D01*
X9437469Y-14813365D02*
X9456517Y-14832412D01*
X9456517Y-14832412D02*
X9466041Y-14851460D01*
X9466041Y-14851460D02*
X9475564Y-14889555D01*
X9475564Y-14889555D02*
X9475564Y-14918127D01*
X9475564Y-14918127D02*
X9466041Y-14956222D01*
X9466041Y-14956222D02*
X9456517Y-14975269D01*
X9456517Y-14975269D02*
X9437469Y-14994317D01*
X9437469Y-14994317D02*
X9408898Y-15003841D01*
X9408898Y-15003841D02*
X9361279Y-15003841D01*
X9561279Y-15003841D02*
X9561279Y-14870507D01*
X9561279Y-14908603D02*
X9570802Y-14889555D01*
X9570802Y-14889555D02*
X9580326Y-14880031D01*
X9580326Y-14880031D02*
X9599374Y-14870507D01*
X9599374Y-14870507D02*
X9618422Y-14870507D01*
X9685088Y-15003841D02*
X9685088Y-14870507D01*
X9685088Y-14803841D02*
X9675564Y-14813365D01*
X9675564Y-14813365D02*
X9685088Y-14822888D01*
X9685088Y-14822888D02*
X9694612Y-14813365D01*
X9694612Y-14813365D02*
X9685088Y-14803841D01*
X9685088Y-14803841D02*
X9685088Y-14822888D01*
X9808898Y-15003841D02*
X9789850Y-14994317D01*
X9789850Y-14994317D02*
X9780326Y-14975269D01*
X9780326Y-14975269D02*
X9780326Y-14803841D01*
X9913660Y-15003841D02*
X9894612Y-14994317D01*
X9894612Y-14994317D02*
X9885088Y-14975269D01*
X9885088Y-14975269D02*
X9885088Y-14803841D01*
X10142231Y-15003841D02*
X10142231Y-14803841D01*
X10142231Y-14803841D02*
X10208898Y-14946698D01*
X10208898Y-14946698D02*
X10275564Y-14803841D01*
X10275564Y-14803841D02*
X10275564Y-15003841D01*
X10456517Y-15003841D02*
X10456517Y-14899079D01*
X10456517Y-14899079D02*
X10446993Y-14880031D01*
X10446993Y-14880031D02*
X10427945Y-14870507D01*
X10427945Y-14870507D02*
X10389850Y-14870507D01*
X10389850Y-14870507D02*
X10370802Y-14880031D01*
X10456517Y-14994317D02*
X10437469Y-15003841D01*
X10437469Y-15003841D02*
X10389850Y-15003841D01*
X10389850Y-15003841D02*
X10370802Y-14994317D01*
X10370802Y-14994317D02*
X10361279Y-14975269D01*
X10361279Y-14975269D02*
X10361279Y-14956222D01*
X10361279Y-14956222D02*
X10370802Y-14937174D01*
X10370802Y-14937174D02*
X10389850Y-14927650D01*
X10389850Y-14927650D02*
X10437469Y-14927650D01*
X10437469Y-14927650D02*
X10456517Y-14918127D01*
X10551755Y-14870507D02*
X10551755Y-15070507D01*
X10551755Y-14880031D02*
X10570802Y-14870507D01*
X10570802Y-14870507D02*
X10608898Y-14870507D01*
X10608898Y-14870507D02*
X10627945Y-14880031D01*
X10627945Y-14880031D02*
X10637469Y-14889555D01*
X10637469Y-14889555D02*
X10646993Y-14908603D01*
X10646993Y-14908603D02*
X10646993Y-14965746D01*
X10646993Y-14965746D02*
X10637469Y-14984793D01*
X10637469Y-14984793D02*
X10627945Y-14994317D01*
X10627945Y-14994317D02*
X10608898Y-15003841D01*
X10608898Y-15003841D02*
X10570802Y-15003841D01*
X10570802Y-15003841D02*
X10551755Y-14994317D01*
X10732707Y-14984793D02*
X10742231Y-14994317D01*
X10742231Y-14994317D02*
X10732707Y-15003841D01*
X10732707Y-15003841D02*
X10723183Y-14994317D01*
X10723183Y-14994317D02*
X10732707Y-14984793D01*
X10732707Y-14984793D02*
X10732707Y-15003841D01*
X10732707Y-14880031D02*
X10742231Y-14889555D01*
X10742231Y-14889555D02*
X10732707Y-14899079D01*
X10732707Y-14899079D02*
X10723183Y-14889555D01*
X10723183Y-14889555D02*
X10732707Y-14880031D01*
X10732707Y-14880031D02*
X10732707Y-14899079D01*
D12*
X9025502Y-15294857D02*
X9100502Y-15369857D01*
X9100502Y-15294857D02*
X9025502Y-15369857D01*
D11*
X9399374Y-15223841D02*
X9418422Y-15223841D01*
X9418422Y-15223841D02*
X9437469Y-15233365D01*
X9437469Y-15233365D02*
X9446993Y-15242888D01*
X9446993Y-15242888D02*
X9456517Y-15261936D01*
X9456517Y-15261936D02*
X9466041Y-15300031D01*
X9466041Y-15300031D02*
X9466041Y-15347650D01*
X9466041Y-15347650D02*
X9456517Y-15385746D01*
X9456517Y-15385746D02*
X9446993Y-15404793D01*
X9446993Y-15404793D02*
X9437469Y-15414317D01*
X9437469Y-15414317D02*
X9418422Y-15423841D01*
X9418422Y-15423841D02*
X9399374Y-15423841D01*
X9399374Y-15423841D02*
X9380326Y-15414317D01*
X9380326Y-15414317D02*
X9370802Y-15404793D01*
X9370802Y-15404793D02*
X9361279Y-15385746D01*
X9361279Y-15385746D02*
X9351755Y-15347650D01*
X9351755Y-15347650D02*
X9351755Y-15300031D01*
X9351755Y-15300031D02*
X9361279Y-15261936D01*
X9361279Y-15261936D02*
X9370802Y-15242888D01*
X9370802Y-15242888D02*
X9380326Y-15233365D01*
X9380326Y-15233365D02*
X9399374Y-15223841D01*
X9551755Y-15404793D02*
X9561279Y-15414317D01*
X9561279Y-15414317D02*
X9551755Y-15423841D01*
X9551755Y-15423841D02*
X9542231Y-15414317D01*
X9542231Y-15414317D02*
X9551755Y-15404793D01*
X9551755Y-15404793D02*
X9551755Y-15423841D01*
X9627945Y-15223841D02*
X9761279Y-15223841D01*
X9761279Y-15223841D02*
X9675564Y-15423841D01*
X9932707Y-15223841D02*
X9837469Y-15223841D01*
X9837469Y-15223841D02*
X9827945Y-15319079D01*
X9827945Y-15319079D02*
X9837469Y-15309555D01*
X9837469Y-15309555D02*
X9856517Y-15300031D01*
X9856517Y-15300031D02*
X9904136Y-15300031D01*
X9904136Y-15300031D02*
X9923183Y-15309555D01*
X9923183Y-15309555D02*
X9932707Y-15319079D01*
X9932707Y-15319079D02*
X9942231Y-15338127D01*
X9942231Y-15338127D02*
X9942231Y-15385746D01*
X9942231Y-15385746D02*
X9932707Y-15404793D01*
X9932707Y-15404793D02*
X9923183Y-15414317D01*
X9923183Y-15414317D02*
X9904136Y-15423841D01*
X9904136Y-15423841D02*
X9856517Y-15423841D01*
X9856517Y-15423841D02*
X9837469Y-15414317D01*
X9837469Y-15414317D02*
X9827945Y-15404793D01*
X10066041Y-15223841D02*
X10085088Y-15223841D01*
X10085088Y-15223841D02*
X10104136Y-15233365D01*
X10104136Y-15233365D02*
X10113660Y-15242888D01*
X10113660Y-15242888D02*
X10123183Y-15261936D01*
X10123183Y-15261936D02*
X10132707Y-15300031D01*
X10132707Y-15300031D02*
X10132707Y-15347650D01*
X10132707Y-15347650D02*
X10123183Y-15385746D01*
X10123183Y-15385746D02*
X10113660Y-15404793D01*
X10113660Y-15404793D02*
X10104136Y-15414317D01*
X10104136Y-15414317D02*
X10085088Y-15423841D01*
X10085088Y-15423841D02*
X10066041Y-15423841D01*
X10066041Y-15423841D02*
X10046993Y-15414317D01*
X10046993Y-15414317D02*
X10037469Y-15404793D01*
X10037469Y-15404793D02*
X10027945Y-15385746D01*
X10027945Y-15385746D02*
X10018422Y-15347650D01*
X10018422Y-15347650D02*
X10018422Y-15300031D01*
X10018422Y-15300031D02*
X10027945Y-15261936D01*
X10027945Y-15261936D02*
X10037469Y-15242888D01*
X10037469Y-15242888D02*
X10046993Y-15233365D01*
X10046993Y-15233365D02*
X10066041Y-15223841D01*
X10218422Y-15423841D02*
X10218422Y-15290507D01*
X10218422Y-15309555D02*
X10227945Y-15300031D01*
X10227945Y-15300031D02*
X10246993Y-15290507D01*
X10246993Y-15290507D02*
X10275564Y-15290507D01*
X10275564Y-15290507D02*
X10294612Y-15300031D01*
X10294612Y-15300031D02*
X10304136Y-15319079D01*
X10304136Y-15319079D02*
X10304136Y-15423841D01*
X10304136Y-15319079D02*
X10313660Y-15300031D01*
X10313660Y-15300031D02*
X10332707Y-15290507D01*
X10332707Y-15290507D02*
X10361279Y-15290507D01*
X10361279Y-15290507D02*
X10380326Y-15300031D01*
X10380326Y-15300031D02*
X10389850Y-15319079D01*
X10389850Y-15319079D02*
X10389850Y-15423841D01*
X10485088Y-15423841D02*
X10485088Y-15290507D01*
X10485088Y-15309555D02*
X10494612Y-15300031D01*
X10494612Y-15300031D02*
X10513660Y-15290507D01*
X10513660Y-15290507D02*
X10542231Y-15290507D01*
X10542231Y-15290507D02*
X10561279Y-15300031D01*
X10561279Y-15300031D02*
X10570803Y-15319079D01*
X10570803Y-15319079D02*
X10570803Y-15423841D01*
X10570803Y-15319079D02*
X10580326Y-15300031D01*
X10580326Y-15300031D02*
X10599374Y-15290507D01*
X10599374Y-15290507D02*
X10627945Y-15290507D01*
X10627945Y-15290507D02*
X10646993Y-15300031D01*
X10646993Y-15300031D02*
X10656517Y-15319079D01*
X10656517Y-15319079D02*
X10656517Y-15423841D01*
X11046993Y-15214317D02*
X10875565Y-15471460D01*
X11304136Y-15223841D02*
X11323184Y-15223841D01*
X11323184Y-15223841D02*
X11342231Y-15233365D01*
X11342231Y-15233365D02*
X11351755Y-15242888D01*
X11351755Y-15242888D02*
X11361279Y-15261936D01*
X11361279Y-15261936D02*
X11370803Y-15300031D01*
X11370803Y-15300031D02*
X11370803Y-15347650D01*
X11370803Y-15347650D02*
X11361279Y-15385746D01*
X11361279Y-15385746D02*
X11351755Y-15404793D01*
X11351755Y-15404793D02*
X11342231Y-15414317D01*
X11342231Y-15414317D02*
X11323184Y-15423841D01*
X11323184Y-15423841D02*
X11304136Y-15423841D01*
X11304136Y-15423841D02*
X11285088Y-15414317D01*
X11285088Y-15414317D02*
X11275564Y-15404793D01*
X11275564Y-15404793D02*
X11266041Y-15385746D01*
X11266041Y-15385746D02*
X11256517Y-15347650D01*
X11256517Y-15347650D02*
X11256517Y-15300031D01*
X11256517Y-15300031D02*
X11266041Y-15261936D01*
X11266041Y-15261936D02*
X11275564Y-15242888D01*
X11275564Y-15242888D02*
X11285088Y-15233365D01*
X11285088Y-15233365D02*
X11304136Y-15223841D01*
X11456517Y-15404793D02*
X11466041Y-15414317D01*
X11466041Y-15414317D02*
X11456517Y-15423841D01*
X11456517Y-15423841D02*
X11446993Y-15414317D01*
X11446993Y-15414317D02*
X11456517Y-15404793D01*
X11456517Y-15404793D02*
X11456517Y-15423841D01*
X11589850Y-15223841D02*
X11608898Y-15223841D01*
X11608898Y-15223841D02*
X11627945Y-15233365D01*
X11627945Y-15233365D02*
X11637469Y-15242888D01*
X11637469Y-15242888D02*
X11646993Y-15261936D01*
X11646993Y-15261936D02*
X11656517Y-15300031D01*
X11656517Y-15300031D02*
X11656517Y-15347650D01*
X11656517Y-15347650D02*
X11646993Y-15385746D01*
X11646993Y-15385746D02*
X11637469Y-15404793D01*
X11637469Y-15404793D02*
X11627945Y-15414317D01*
X11627945Y-15414317D02*
X11608898Y-15423841D01*
X11608898Y-15423841D02*
X11589850Y-15423841D01*
X11589850Y-15423841D02*
X11570803Y-15414317D01*
X11570803Y-15414317D02*
X11561279Y-15404793D01*
X11561279Y-15404793D02*
X11551755Y-15385746D01*
X11551755Y-15385746D02*
X11542231Y-15347650D01*
X11542231Y-15347650D02*
X11542231Y-15300031D01*
X11542231Y-15300031D02*
X11551755Y-15261936D01*
X11551755Y-15261936D02*
X11561279Y-15242888D01*
X11561279Y-15242888D02*
X11570803Y-15233365D01*
X11570803Y-15233365D02*
X11589850Y-15223841D01*
X11732707Y-15242888D02*
X11742231Y-15233365D01*
X11742231Y-15233365D02*
X11761279Y-15223841D01*
X11761279Y-15223841D02*
X11808898Y-15223841D01*
X11808898Y-15223841D02*
X11827945Y-15233365D01*
X11827945Y-15233365D02*
X11837469Y-15242888D01*
X11837469Y-15242888D02*
X11846993Y-15261936D01*
X11846993Y-15261936D02*
X11846993Y-15280984D01*
X11846993Y-15280984D02*
X11837469Y-15309555D01*
X11837469Y-15309555D02*
X11723184Y-15423841D01*
X11723184Y-15423841D02*
X11846993Y-15423841D01*
X11942231Y-15423841D02*
X11980326Y-15423841D01*
X11980326Y-15423841D02*
X11999374Y-15414317D01*
X11999374Y-15414317D02*
X12008898Y-15404793D01*
X12008898Y-15404793D02*
X12027945Y-15376222D01*
X12027945Y-15376222D02*
X12037469Y-15338127D01*
X12037469Y-15338127D02*
X12037469Y-15261936D01*
X12037469Y-15261936D02*
X12027945Y-15242888D01*
X12027945Y-15242888D02*
X12018422Y-15233365D01*
X12018422Y-15233365D02*
X11999374Y-15223841D01*
X11999374Y-15223841D02*
X11961279Y-15223841D01*
X11961279Y-15223841D02*
X11942231Y-15233365D01*
X11942231Y-15233365D02*
X11932707Y-15242888D01*
X11932707Y-15242888D02*
X11923184Y-15261936D01*
X11923184Y-15261936D02*
X11923184Y-15309555D01*
X11923184Y-15309555D02*
X11932707Y-15328603D01*
X11932707Y-15328603D02*
X11942231Y-15338127D01*
X11942231Y-15338127D02*
X11961279Y-15347650D01*
X11961279Y-15347650D02*
X11999374Y-15347650D01*
X11999374Y-15347650D02*
X12018422Y-15338127D01*
X12018422Y-15338127D02*
X12027945Y-15328603D01*
X12027945Y-15328603D02*
X12037469Y-15309555D01*
X12218422Y-15223841D02*
X12123184Y-15223841D01*
X12123184Y-15223841D02*
X12113660Y-15319079D01*
X12113660Y-15319079D02*
X12123184Y-15309555D01*
X12123184Y-15309555D02*
X12142231Y-15300031D01*
X12142231Y-15300031D02*
X12189850Y-15300031D01*
X12189850Y-15300031D02*
X12208898Y-15309555D01*
X12208898Y-15309555D02*
X12218422Y-15319079D01*
X12218422Y-15319079D02*
X12227945Y-15338127D01*
X12227945Y-15338127D02*
X12227945Y-15385746D01*
X12227945Y-15385746D02*
X12218422Y-15404793D01*
X12218422Y-15404793D02*
X12208898Y-15414317D01*
X12208898Y-15414317D02*
X12189850Y-15423841D01*
X12189850Y-15423841D02*
X12142231Y-15423841D01*
X12142231Y-15423841D02*
X12123184Y-15414317D01*
X12123184Y-15414317D02*
X12113660Y-15404793D01*
X12304136Y-15223841D02*
X12304136Y-15261936D01*
X12380326Y-15223841D02*
X12380326Y-15261936D01*
X12675565Y-15500031D02*
X12666041Y-15490507D01*
X12666041Y-15490507D02*
X12646993Y-15461936D01*
X12646993Y-15461936D02*
X12637469Y-15442888D01*
X12637469Y-15442888D02*
X12627946Y-15414317D01*
X12627946Y-15414317D02*
X12618422Y-15366698D01*
X12618422Y-15366698D02*
X12618422Y-15328603D01*
X12618422Y-15328603D02*
X12627946Y-15280984D01*
X12627946Y-15280984D02*
X12637469Y-15252412D01*
X12637469Y-15252412D02*
X12646993Y-15233365D01*
X12646993Y-15233365D02*
X12666041Y-15204793D01*
X12666041Y-15204793D02*
X12675565Y-15195269D01*
X12742231Y-15242888D02*
X12751755Y-15233365D01*
X12751755Y-15233365D02*
X12770803Y-15223841D01*
X12770803Y-15223841D02*
X12818422Y-15223841D01*
X12818422Y-15223841D02*
X12837469Y-15233365D01*
X12837469Y-15233365D02*
X12846993Y-15242888D01*
X12846993Y-15242888D02*
X12856517Y-15261936D01*
X12856517Y-15261936D02*
X12856517Y-15280984D01*
X12856517Y-15280984D02*
X12846993Y-15309555D01*
X12846993Y-15309555D02*
X12732707Y-15423841D01*
X12732707Y-15423841D02*
X12856517Y-15423841D01*
X13094612Y-15423841D02*
X13094612Y-15223841D01*
X13180327Y-15423841D02*
X13180327Y-15319079D01*
X13180327Y-15319079D02*
X13170803Y-15300031D01*
X13170803Y-15300031D02*
X13151755Y-15290507D01*
X13151755Y-15290507D02*
X13123184Y-15290507D01*
X13123184Y-15290507D02*
X13104136Y-15300031D01*
X13104136Y-15300031D02*
X13094612Y-15309555D01*
X13304136Y-15423841D02*
X13285088Y-15414317D01*
X13285088Y-15414317D02*
X13275565Y-15404793D01*
X13275565Y-15404793D02*
X13266041Y-15385746D01*
X13266041Y-15385746D02*
X13266041Y-15328603D01*
X13266041Y-15328603D02*
X13275565Y-15309555D01*
X13275565Y-15309555D02*
X13285088Y-15300031D01*
X13285088Y-15300031D02*
X13304136Y-15290507D01*
X13304136Y-15290507D02*
X13332708Y-15290507D01*
X13332708Y-15290507D02*
X13351755Y-15300031D01*
X13351755Y-15300031D02*
X13361279Y-15309555D01*
X13361279Y-15309555D02*
X13370803Y-15328603D01*
X13370803Y-15328603D02*
X13370803Y-15385746D01*
X13370803Y-15385746D02*
X13361279Y-15404793D01*
X13361279Y-15404793D02*
X13351755Y-15414317D01*
X13351755Y-15414317D02*
X13332708Y-15423841D01*
X13332708Y-15423841D02*
X13304136Y-15423841D01*
X13485088Y-15423841D02*
X13466041Y-15414317D01*
X13466041Y-15414317D02*
X13456517Y-15395269D01*
X13456517Y-15395269D02*
X13456517Y-15223841D01*
X13637469Y-15414317D02*
X13618422Y-15423841D01*
X13618422Y-15423841D02*
X13580327Y-15423841D01*
X13580327Y-15423841D02*
X13561279Y-15414317D01*
X13561279Y-15414317D02*
X13551755Y-15395269D01*
X13551755Y-15395269D02*
X13551755Y-15319079D01*
X13551755Y-15319079D02*
X13561279Y-15300031D01*
X13561279Y-15300031D02*
X13580327Y-15290507D01*
X13580327Y-15290507D02*
X13618422Y-15290507D01*
X13618422Y-15290507D02*
X13637469Y-15300031D01*
X13637469Y-15300031D02*
X13646993Y-15319079D01*
X13646993Y-15319079D02*
X13646993Y-15338127D01*
X13646993Y-15338127D02*
X13551755Y-15357174D01*
X13723184Y-15414317D02*
X13742231Y-15423841D01*
X13742231Y-15423841D02*
X13780327Y-15423841D01*
X13780327Y-15423841D02*
X13799374Y-15414317D01*
X13799374Y-15414317D02*
X13808898Y-15395269D01*
X13808898Y-15395269D02*
X13808898Y-15385746D01*
X13808898Y-15385746D02*
X13799374Y-15366698D01*
X13799374Y-15366698D02*
X13780327Y-15357174D01*
X13780327Y-15357174D02*
X13751755Y-15357174D01*
X13751755Y-15357174D02*
X13732708Y-15347650D01*
X13732708Y-15347650D02*
X13723184Y-15328603D01*
X13723184Y-15328603D02*
X13723184Y-15319079D01*
X13723184Y-15319079D02*
X13732708Y-15300031D01*
X13732708Y-15300031D02*
X13751755Y-15290507D01*
X13751755Y-15290507D02*
X13780327Y-15290507D01*
X13780327Y-15290507D02*
X13799374Y-15300031D01*
X13875565Y-15500031D02*
X13885089Y-15490507D01*
X13885089Y-15490507D02*
X13904136Y-15461936D01*
X13904136Y-15461936D02*
X13913660Y-15442888D01*
X13913660Y-15442888D02*
X13923184Y-15414317D01*
X13923184Y-15414317D02*
X13932708Y-15366698D01*
X13932708Y-15366698D02*
X13932708Y-15328603D01*
X13932708Y-15328603D02*
X13923184Y-15280984D01*
X13923184Y-15280984D02*
X13913660Y-15252412D01*
X13913660Y-15252412D02*
X13904136Y-15233365D01*
X13904136Y-15233365D02*
X13885089Y-15204793D01*
X13885089Y-15204793D02*
X13875565Y-15195269D01*
X14237470Y-15500031D02*
X14227946Y-15490507D01*
X14227946Y-15490507D02*
X14208898Y-15461936D01*
X14208898Y-15461936D02*
X14199374Y-15442888D01*
X14199374Y-15442888D02*
X14189850Y-15414317D01*
X14189850Y-15414317D02*
X14180327Y-15366698D01*
X14180327Y-15366698D02*
X14180327Y-15328603D01*
X14180327Y-15328603D02*
X14189850Y-15280984D01*
X14189850Y-15280984D02*
X14199374Y-15252412D01*
X14199374Y-15252412D02*
X14208898Y-15233365D01*
X14208898Y-15233365D02*
X14227946Y-15204793D01*
X14227946Y-15204793D02*
X14237470Y-15195269D01*
X14313660Y-15290507D02*
X14313660Y-15423841D01*
X14313660Y-15309555D02*
X14323184Y-15300031D01*
X14323184Y-15300031D02*
X14342231Y-15290507D01*
X14342231Y-15290507D02*
X14370803Y-15290507D01*
X14370803Y-15290507D02*
X14389850Y-15300031D01*
X14389850Y-15300031D02*
X14399374Y-15319079D01*
X14399374Y-15319079D02*
X14399374Y-15423841D01*
X14523184Y-15423841D02*
X14504136Y-15414317D01*
X14504136Y-15414317D02*
X14494612Y-15404793D01*
X14494612Y-15404793D02*
X14485089Y-15385746D01*
X14485089Y-15385746D02*
X14485089Y-15328603D01*
X14485089Y-15328603D02*
X14494612Y-15309555D01*
X14494612Y-15309555D02*
X14504136Y-15300031D01*
X14504136Y-15300031D02*
X14523184Y-15290507D01*
X14523184Y-15290507D02*
X14551755Y-15290507D01*
X14551755Y-15290507D02*
X14570803Y-15300031D01*
X14570803Y-15300031D02*
X14580327Y-15309555D01*
X14580327Y-15309555D02*
X14589850Y-15328603D01*
X14589850Y-15328603D02*
X14589850Y-15385746D01*
X14589850Y-15385746D02*
X14580327Y-15404793D01*
X14580327Y-15404793D02*
X14570803Y-15414317D01*
X14570803Y-15414317D02*
X14551755Y-15423841D01*
X14551755Y-15423841D02*
X14523184Y-15423841D01*
X14646993Y-15290507D02*
X14723184Y-15290507D01*
X14675565Y-15223841D02*
X14675565Y-15395269D01*
X14675565Y-15395269D02*
X14685089Y-15414317D01*
X14685089Y-15414317D02*
X14704136Y-15423841D01*
X14704136Y-15423841D02*
X14723184Y-15423841D01*
X14942231Y-15290507D02*
X14942231Y-15490507D01*
X14942231Y-15300031D02*
X14961279Y-15290507D01*
X14961279Y-15290507D02*
X14999374Y-15290507D01*
X14999374Y-15290507D02*
X15018422Y-15300031D01*
X15018422Y-15300031D02*
X15027946Y-15309555D01*
X15027946Y-15309555D02*
X15037470Y-15328603D01*
X15037470Y-15328603D02*
X15037470Y-15385746D01*
X15037470Y-15385746D02*
X15027946Y-15404793D01*
X15027946Y-15404793D02*
X15018422Y-15414317D01*
X15018422Y-15414317D02*
X14999374Y-15423841D01*
X14999374Y-15423841D02*
X14961279Y-15423841D01*
X14961279Y-15423841D02*
X14942231Y-15414317D01*
X15151755Y-15423841D02*
X15132708Y-15414317D01*
X15132708Y-15414317D02*
X15123184Y-15395269D01*
X15123184Y-15395269D02*
X15123184Y-15223841D01*
X15313660Y-15423841D02*
X15313660Y-15319079D01*
X15313660Y-15319079D02*
X15304136Y-15300031D01*
X15304136Y-15300031D02*
X15285089Y-15290507D01*
X15285089Y-15290507D02*
X15246993Y-15290507D01*
X15246993Y-15290507D02*
X15227946Y-15300031D01*
X15313660Y-15414317D02*
X15294612Y-15423841D01*
X15294612Y-15423841D02*
X15246993Y-15423841D01*
X15246993Y-15423841D02*
X15227946Y-15414317D01*
X15227946Y-15414317D02*
X15218422Y-15395269D01*
X15218422Y-15395269D02*
X15218422Y-15376222D01*
X15218422Y-15376222D02*
X15227946Y-15357174D01*
X15227946Y-15357174D02*
X15246993Y-15347650D01*
X15246993Y-15347650D02*
X15294612Y-15347650D01*
X15294612Y-15347650D02*
X15313660Y-15338127D01*
X15380327Y-15290507D02*
X15456517Y-15290507D01*
X15408898Y-15223841D02*
X15408898Y-15395269D01*
X15408898Y-15395269D02*
X15418422Y-15414317D01*
X15418422Y-15414317D02*
X15437470Y-15423841D01*
X15437470Y-15423841D02*
X15456517Y-15423841D01*
X15599374Y-15414317D02*
X15580327Y-15423841D01*
X15580327Y-15423841D02*
X15542231Y-15423841D01*
X15542231Y-15423841D02*
X15523184Y-15414317D01*
X15523184Y-15414317D02*
X15513660Y-15395269D01*
X15513660Y-15395269D02*
X15513660Y-15319079D01*
X15513660Y-15319079D02*
X15523184Y-15300031D01*
X15523184Y-15300031D02*
X15542231Y-15290507D01*
X15542231Y-15290507D02*
X15580327Y-15290507D01*
X15580327Y-15290507D02*
X15599374Y-15300031D01*
X15599374Y-15300031D02*
X15608898Y-15319079D01*
X15608898Y-15319079D02*
X15608898Y-15338127D01*
X15608898Y-15338127D02*
X15513660Y-15357174D01*
X15780327Y-15423841D02*
X15780327Y-15223841D01*
X15780327Y-15414317D02*
X15761279Y-15423841D01*
X15761279Y-15423841D02*
X15723184Y-15423841D01*
X15723184Y-15423841D02*
X15704136Y-15414317D01*
X15704136Y-15414317D02*
X15694612Y-15404793D01*
X15694612Y-15404793D02*
X15685089Y-15385746D01*
X15685089Y-15385746D02*
X15685089Y-15328603D01*
X15685089Y-15328603D02*
X15694612Y-15309555D01*
X15694612Y-15309555D02*
X15704136Y-15300031D01*
X15704136Y-15300031D02*
X15723184Y-15290507D01*
X15723184Y-15290507D02*
X15761279Y-15290507D01*
X15761279Y-15290507D02*
X15780327Y-15300031D01*
X15856517Y-15500031D02*
X15866041Y-15490507D01*
X15866041Y-15490507D02*
X15885089Y-15461936D01*
X15885089Y-15461936D02*
X15894612Y-15442888D01*
X15894612Y-15442888D02*
X15904136Y-15414317D01*
X15904136Y-15414317D02*
X15913660Y-15366698D01*
X15913660Y-15366698D02*
X15913660Y-15328603D01*
X15913660Y-15328603D02*
X15904136Y-15280984D01*
X15904136Y-15280984D02*
X15894612Y-15252412D01*
X15894612Y-15252412D02*
X15885089Y-15233365D01*
X15885089Y-15233365D02*
X15866041Y-15204793D01*
X15866041Y-15204793D02*
X15856517Y-15195269D01*
D12*
X9100502Y-15596357D02*
G75*
G02*
X9010502Y-15596357I-45000J0D01*
G01*
X9010502Y-15596357D02*
G75*
G02*
X9100502Y-15596357I45000J0D01*
G01*
D11*
X9399374Y-15487841D02*
X9418422Y-15487841D01*
X9418422Y-15487841D02*
X9437469Y-15497365D01*
X9437469Y-15497365D02*
X9446993Y-15506888D01*
X9446993Y-15506888D02*
X9456517Y-15525936D01*
X9456517Y-15525936D02*
X9466041Y-15564031D01*
X9466041Y-15564031D02*
X9466041Y-15611650D01*
X9466041Y-15611650D02*
X9456517Y-15649746D01*
X9456517Y-15649746D02*
X9446993Y-15668793D01*
X9446993Y-15668793D02*
X9437469Y-15678317D01*
X9437469Y-15678317D02*
X9418422Y-15687841D01*
X9418422Y-15687841D02*
X9399374Y-15687841D01*
X9399374Y-15687841D02*
X9380326Y-15678317D01*
X9380326Y-15678317D02*
X9370802Y-15668793D01*
X9370802Y-15668793D02*
X9361279Y-15649746D01*
X9361279Y-15649746D02*
X9351755Y-15611650D01*
X9351755Y-15611650D02*
X9351755Y-15564031D01*
X9351755Y-15564031D02*
X9361279Y-15525936D01*
X9361279Y-15525936D02*
X9370802Y-15506888D01*
X9370802Y-15506888D02*
X9380326Y-15497365D01*
X9380326Y-15497365D02*
X9399374Y-15487841D01*
X9551755Y-15668793D02*
X9561279Y-15678317D01*
X9561279Y-15678317D02*
X9551755Y-15687841D01*
X9551755Y-15687841D02*
X9542231Y-15678317D01*
X9542231Y-15678317D02*
X9551755Y-15668793D01*
X9551755Y-15668793D02*
X9551755Y-15687841D01*
X9656517Y-15687841D02*
X9694612Y-15687841D01*
X9694612Y-15687841D02*
X9713660Y-15678317D01*
X9713660Y-15678317D02*
X9723183Y-15668793D01*
X9723183Y-15668793D02*
X9742231Y-15640222D01*
X9742231Y-15640222D02*
X9751755Y-15602127D01*
X9751755Y-15602127D02*
X9751755Y-15525936D01*
X9751755Y-15525936D02*
X9742231Y-15506888D01*
X9742231Y-15506888D02*
X9732707Y-15497365D01*
X9732707Y-15497365D02*
X9713660Y-15487841D01*
X9713660Y-15487841D02*
X9675564Y-15487841D01*
X9675564Y-15487841D02*
X9656517Y-15497365D01*
X9656517Y-15497365D02*
X9646993Y-15506888D01*
X9646993Y-15506888D02*
X9637469Y-15525936D01*
X9637469Y-15525936D02*
X9637469Y-15573555D01*
X9637469Y-15573555D02*
X9646993Y-15592603D01*
X9646993Y-15592603D02*
X9656517Y-15602127D01*
X9656517Y-15602127D02*
X9675564Y-15611650D01*
X9675564Y-15611650D02*
X9713660Y-15611650D01*
X9713660Y-15611650D02*
X9732707Y-15602127D01*
X9732707Y-15602127D02*
X9742231Y-15592603D01*
X9742231Y-15592603D02*
X9751755Y-15573555D01*
X9875564Y-15487841D02*
X9894612Y-15487841D01*
X9894612Y-15487841D02*
X9913660Y-15497365D01*
X9913660Y-15497365D02*
X9923183Y-15506888D01*
X9923183Y-15506888D02*
X9932707Y-15525936D01*
X9932707Y-15525936D02*
X9942231Y-15564031D01*
X9942231Y-15564031D02*
X9942231Y-15611650D01*
X9942231Y-15611650D02*
X9932707Y-15649746D01*
X9932707Y-15649746D02*
X9923183Y-15668793D01*
X9923183Y-15668793D02*
X9913660Y-15678317D01*
X9913660Y-15678317D02*
X9894612Y-15687841D01*
X9894612Y-15687841D02*
X9875564Y-15687841D01*
X9875564Y-15687841D02*
X9856517Y-15678317D01*
X9856517Y-15678317D02*
X9846993Y-15668793D01*
X9846993Y-15668793D02*
X9837469Y-15649746D01*
X9837469Y-15649746D02*
X9827945Y-15611650D01*
X9827945Y-15611650D02*
X9827945Y-15564031D01*
X9827945Y-15564031D02*
X9837469Y-15525936D01*
X9837469Y-15525936D02*
X9846993Y-15506888D01*
X9846993Y-15506888D02*
X9856517Y-15497365D01*
X9856517Y-15497365D02*
X9875564Y-15487841D01*
X10066041Y-15487841D02*
X10085088Y-15487841D01*
X10085088Y-15487841D02*
X10104136Y-15497365D01*
X10104136Y-15497365D02*
X10113660Y-15506888D01*
X10113660Y-15506888D02*
X10123183Y-15525936D01*
X10123183Y-15525936D02*
X10132707Y-15564031D01*
X10132707Y-15564031D02*
X10132707Y-15611650D01*
X10132707Y-15611650D02*
X10123183Y-15649746D01*
X10123183Y-15649746D02*
X10113660Y-15668793D01*
X10113660Y-15668793D02*
X10104136Y-15678317D01*
X10104136Y-15678317D02*
X10085088Y-15687841D01*
X10085088Y-15687841D02*
X10066041Y-15687841D01*
X10066041Y-15687841D02*
X10046993Y-15678317D01*
X10046993Y-15678317D02*
X10037469Y-15668793D01*
X10037469Y-15668793D02*
X10027945Y-15649746D01*
X10027945Y-15649746D02*
X10018422Y-15611650D01*
X10018422Y-15611650D02*
X10018422Y-15564031D01*
X10018422Y-15564031D02*
X10027945Y-15525936D01*
X10027945Y-15525936D02*
X10037469Y-15506888D01*
X10037469Y-15506888D02*
X10046993Y-15497365D01*
X10046993Y-15497365D02*
X10066041Y-15487841D01*
X10218422Y-15687841D02*
X10218422Y-15554507D01*
X10218422Y-15573555D02*
X10227945Y-15564031D01*
X10227945Y-15564031D02*
X10246993Y-15554507D01*
X10246993Y-15554507D02*
X10275564Y-15554507D01*
X10275564Y-15554507D02*
X10294612Y-15564031D01*
X10294612Y-15564031D02*
X10304136Y-15583079D01*
X10304136Y-15583079D02*
X10304136Y-15687841D01*
X10304136Y-15583079D02*
X10313660Y-15564031D01*
X10313660Y-15564031D02*
X10332707Y-15554507D01*
X10332707Y-15554507D02*
X10361279Y-15554507D01*
X10361279Y-15554507D02*
X10380326Y-15564031D01*
X10380326Y-15564031D02*
X10389850Y-15583079D01*
X10389850Y-15583079D02*
X10389850Y-15687841D01*
X10485088Y-15687841D02*
X10485088Y-15554507D01*
X10485088Y-15573555D02*
X10494612Y-15564031D01*
X10494612Y-15564031D02*
X10513660Y-15554507D01*
X10513660Y-15554507D02*
X10542231Y-15554507D01*
X10542231Y-15554507D02*
X10561279Y-15564031D01*
X10561279Y-15564031D02*
X10570803Y-15583079D01*
X10570803Y-15583079D02*
X10570803Y-15687841D01*
X10570803Y-15583079D02*
X10580326Y-15564031D01*
X10580326Y-15564031D02*
X10599374Y-15554507D01*
X10599374Y-15554507D02*
X10627945Y-15554507D01*
X10627945Y-15554507D02*
X10646993Y-15564031D01*
X10646993Y-15564031D02*
X10656517Y-15583079D01*
X10656517Y-15583079D02*
X10656517Y-15687841D01*
X11046993Y-15478317D02*
X10875565Y-15735460D01*
X11304136Y-15487841D02*
X11323184Y-15487841D01*
X11323184Y-15487841D02*
X11342231Y-15497365D01*
X11342231Y-15497365D02*
X11351755Y-15506888D01*
X11351755Y-15506888D02*
X11361279Y-15525936D01*
X11361279Y-15525936D02*
X11370803Y-15564031D01*
X11370803Y-15564031D02*
X11370803Y-15611650D01*
X11370803Y-15611650D02*
X11361279Y-15649746D01*
X11361279Y-15649746D02*
X11351755Y-15668793D01*
X11351755Y-15668793D02*
X11342231Y-15678317D01*
X11342231Y-15678317D02*
X11323184Y-15687841D01*
X11323184Y-15687841D02*
X11304136Y-15687841D01*
X11304136Y-15687841D02*
X11285088Y-15678317D01*
X11285088Y-15678317D02*
X11275564Y-15668793D01*
X11275564Y-15668793D02*
X11266041Y-15649746D01*
X11266041Y-15649746D02*
X11256517Y-15611650D01*
X11256517Y-15611650D02*
X11256517Y-15564031D01*
X11256517Y-15564031D02*
X11266041Y-15525936D01*
X11266041Y-15525936D02*
X11275564Y-15506888D01*
X11275564Y-15506888D02*
X11285088Y-15497365D01*
X11285088Y-15497365D02*
X11304136Y-15487841D01*
X11456517Y-15668793D02*
X11466041Y-15678317D01*
X11466041Y-15678317D02*
X11456517Y-15687841D01*
X11456517Y-15687841D02*
X11446993Y-15678317D01*
X11446993Y-15678317D02*
X11456517Y-15668793D01*
X11456517Y-15668793D02*
X11456517Y-15687841D01*
X11589850Y-15487841D02*
X11608898Y-15487841D01*
X11608898Y-15487841D02*
X11627945Y-15497365D01*
X11627945Y-15497365D02*
X11637469Y-15506888D01*
X11637469Y-15506888D02*
X11646993Y-15525936D01*
X11646993Y-15525936D02*
X11656517Y-15564031D01*
X11656517Y-15564031D02*
X11656517Y-15611650D01*
X11656517Y-15611650D02*
X11646993Y-15649746D01*
X11646993Y-15649746D02*
X11637469Y-15668793D01*
X11637469Y-15668793D02*
X11627945Y-15678317D01*
X11627945Y-15678317D02*
X11608898Y-15687841D01*
X11608898Y-15687841D02*
X11589850Y-15687841D01*
X11589850Y-15687841D02*
X11570803Y-15678317D01*
X11570803Y-15678317D02*
X11561279Y-15668793D01*
X11561279Y-15668793D02*
X11551755Y-15649746D01*
X11551755Y-15649746D02*
X11542231Y-15611650D01*
X11542231Y-15611650D02*
X11542231Y-15564031D01*
X11542231Y-15564031D02*
X11551755Y-15525936D01*
X11551755Y-15525936D02*
X11561279Y-15506888D01*
X11561279Y-15506888D02*
X11570803Y-15497365D01*
X11570803Y-15497365D02*
X11589850Y-15487841D01*
X11723184Y-15487841D02*
X11846993Y-15487841D01*
X11846993Y-15487841D02*
X11780326Y-15564031D01*
X11780326Y-15564031D02*
X11808898Y-15564031D01*
X11808898Y-15564031D02*
X11827945Y-15573555D01*
X11827945Y-15573555D02*
X11837469Y-15583079D01*
X11837469Y-15583079D02*
X11846993Y-15602127D01*
X11846993Y-15602127D02*
X11846993Y-15649746D01*
X11846993Y-15649746D02*
X11837469Y-15668793D01*
X11837469Y-15668793D02*
X11827945Y-15678317D01*
X11827945Y-15678317D02*
X11808898Y-15687841D01*
X11808898Y-15687841D02*
X11751755Y-15687841D01*
X11751755Y-15687841D02*
X11732707Y-15678317D01*
X11732707Y-15678317D02*
X11723184Y-15668793D01*
X12027945Y-15487841D02*
X11932707Y-15487841D01*
X11932707Y-15487841D02*
X11923184Y-15583079D01*
X11923184Y-15583079D02*
X11932707Y-15573555D01*
X11932707Y-15573555D02*
X11951755Y-15564031D01*
X11951755Y-15564031D02*
X11999374Y-15564031D01*
X11999374Y-15564031D02*
X12018422Y-15573555D01*
X12018422Y-15573555D02*
X12027945Y-15583079D01*
X12027945Y-15583079D02*
X12037469Y-15602127D01*
X12037469Y-15602127D02*
X12037469Y-15649746D01*
X12037469Y-15649746D02*
X12027945Y-15668793D01*
X12027945Y-15668793D02*
X12018422Y-15678317D01*
X12018422Y-15678317D02*
X11999374Y-15687841D01*
X11999374Y-15687841D02*
X11951755Y-15687841D01*
X11951755Y-15687841D02*
X11932707Y-15678317D01*
X11932707Y-15678317D02*
X11923184Y-15668793D01*
X12208898Y-15554507D02*
X12208898Y-15687841D01*
X12161279Y-15478317D02*
X12113660Y-15621174D01*
X12113660Y-15621174D02*
X12237469Y-15621174D01*
X12304136Y-15487841D02*
X12304136Y-15525936D01*
X12380326Y-15487841D02*
X12380326Y-15525936D01*
X12675565Y-15764031D02*
X12666041Y-15754507D01*
X12666041Y-15754507D02*
X12646993Y-15725936D01*
X12646993Y-15725936D02*
X12637469Y-15706888D01*
X12637469Y-15706888D02*
X12627946Y-15678317D01*
X12627946Y-15678317D02*
X12618422Y-15630698D01*
X12618422Y-15630698D02*
X12618422Y-15592603D01*
X12618422Y-15592603D02*
X12627946Y-15544984D01*
X12627946Y-15544984D02*
X12637469Y-15516412D01*
X12637469Y-15516412D02*
X12646993Y-15497365D01*
X12646993Y-15497365D02*
X12666041Y-15468793D01*
X12666041Y-15468793D02*
X12675565Y-15459269D01*
X12742231Y-15506888D02*
X12751755Y-15497365D01*
X12751755Y-15497365D02*
X12770803Y-15487841D01*
X12770803Y-15487841D02*
X12818422Y-15487841D01*
X12818422Y-15487841D02*
X12837469Y-15497365D01*
X12837469Y-15497365D02*
X12846993Y-15506888D01*
X12846993Y-15506888D02*
X12856517Y-15525936D01*
X12856517Y-15525936D02*
X12856517Y-15544984D01*
X12856517Y-15544984D02*
X12846993Y-15573555D01*
X12846993Y-15573555D02*
X12732707Y-15687841D01*
X12732707Y-15687841D02*
X12856517Y-15687841D01*
X13094612Y-15687841D02*
X13094612Y-15487841D01*
X13180327Y-15687841D02*
X13180327Y-15583079D01*
X13180327Y-15583079D02*
X13170803Y-15564031D01*
X13170803Y-15564031D02*
X13151755Y-15554507D01*
X13151755Y-15554507D02*
X13123184Y-15554507D01*
X13123184Y-15554507D02*
X13104136Y-15564031D01*
X13104136Y-15564031D02*
X13094612Y-15573555D01*
X13304136Y-15687841D02*
X13285088Y-15678317D01*
X13285088Y-15678317D02*
X13275565Y-15668793D01*
X13275565Y-15668793D02*
X13266041Y-15649746D01*
X13266041Y-15649746D02*
X13266041Y-15592603D01*
X13266041Y-15592603D02*
X13275565Y-15573555D01*
X13275565Y-15573555D02*
X13285088Y-15564031D01*
X13285088Y-15564031D02*
X13304136Y-15554507D01*
X13304136Y-15554507D02*
X13332708Y-15554507D01*
X13332708Y-15554507D02*
X13351755Y-15564031D01*
X13351755Y-15564031D02*
X13361279Y-15573555D01*
X13361279Y-15573555D02*
X13370803Y-15592603D01*
X13370803Y-15592603D02*
X13370803Y-15649746D01*
X13370803Y-15649746D02*
X13361279Y-15668793D01*
X13361279Y-15668793D02*
X13351755Y-15678317D01*
X13351755Y-15678317D02*
X13332708Y-15687841D01*
X13332708Y-15687841D02*
X13304136Y-15687841D01*
X13485088Y-15687841D02*
X13466041Y-15678317D01*
X13466041Y-15678317D02*
X13456517Y-15659269D01*
X13456517Y-15659269D02*
X13456517Y-15487841D01*
X13637469Y-15678317D02*
X13618422Y-15687841D01*
X13618422Y-15687841D02*
X13580327Y-15687841D01*
X13580327Y-15687841D02*
X13561279Y-15678317D01*
X13561279Y-15678317D02*
X13551755Y-15659269D01*
X13551755Y-15659269D02*
X13551755Y-15583079D01*
X13551755Y-15583079D02*
X13561279Y-15564031D01*
X13561279Y-15564031D02*
X13580327Y-15554507D01*
X13580327Y-15554507D02*
X13618422Y-15554507D01*
X13618422Y-15554507D02*
X13637469Y-15564031D01*
X13637469Y-15564031D02*
X13646993Y-15583079D01*
X13646993Y-15583079D02*
X13646993Y-15602127D01*
X13646993Y-15602127D02*
X13551755Y-15621174D01*
X13723184Y-15678317D02*
X13742231Y-15687841D01*
X13742231Y-15687841D02*
X13780327Y-15687841D01*
X13780327Y-15687841D02*
X13799374Y-15678317D01*
X13799374Y-15678317D02*
X13808898Y-15659269D01*
X13808898Y-15659269D02*
X13808898Y-15649746D01*
X13808898Y-15649746D02*
X13799374Y-15630698D01*
X13799374Y-15630698D02*
X13780327Y-15621174D01*
X13780327Y-15621174D02*
X13751755Y-15621174D01*
X13751755Y-15621174D02*
X13732708Y-15611650D01*
X13732708Y-15611650D02*
X13723184Y-15592603D01*
X13723184Y-15592603D02*
X13723184Y-15583079D01*
X13723184Y-15583079D02*
X13732708Y-15564031D01*
X13732708Y-15564031D02*
X13751755Y-15554507D01*
X13751755Y-15554507D02*
X13780327Y-15554507D01*
X13780327Y-15554507D02*
X13799374Y-15564031D01*
X13875565Y-15764031D02*
X13885089Y-15754507D01*
X13885089Y-15754507D02*
X13904136Y-15725936D01*
X13904136Y-15725936D02*
X13913660Y-15706888D01*
X13913660Y-15706888D02*
X13923184Y-15678317D01*
X13923184Y-15678317D02*
X13932708Y-15630698D01*
X13932708Y-15630698D02*
X13932708Y-15592603D01*
X13932708Y-15592603D02*
X13923184Y-15544984D01*
X13923184Y-15544984D02*
X13913660Y-15516412D01*
X13913660Y-15516412D02*
X13904136Y-15497365D01*
X13904136Y-15497365D02*
X13885089Y-15468793D01*
X13885089Y-15468793D02*
X13875565Y-15459269D01*
X14237470Y-15764031D02*
X14227946Y-15754507D01*
X14227946Y-15754507D02*
X14208898Y-15725936D01*
X14208898Y-15725936D02*
X14199374Y-15706888D01*
X14199374Y-15706888D02*
X14189850Y-15678317D01*
X14189850Y-15678317D02*
X14180327Y-15630698D01*
X14180327Y-15630698D02*
X14180327Y-15592603D01*
X14180327Y-15592603D02*
X14189850Y-15544984D01*
X14189850Y-15544984D02*
X14199374Y-15516412D01*
X14199374Y-15516412D02*
X14208898Y-15497365D01*
X14208898Y-15497365D02*
X14227946Y-15468793D01*
X14227946Y-15468793D02*
X14237470Y-15459269D01*
X14313660Y-15554507D02*
X14313660Y-15687841D01*
X14313660Y-15573555D02*
X14323184Y-15564031D01*
X14323184Y-15564031D02*
X14342231Y-15554507D01*
X14342231Y-15554507D02*
X14370803Y-15554507D01*
X14370803Y-15554507D02*
X14389850Y-15564031D01*
X14389850Y-15564031D02*
X14399374Y-15583079D01*
X14399374Y-15583079D02*
X14399374Y-15687841D01*
X14523184Y-15687841D02*
X14504136Y-15678317D01*
X14504136Y-15678317D02*
X14494612Y-15668793D01*
X14494612Y-15668793D02*
X14485089Y-15649746D01*
X14485089Y-15649746D02*
X14485089Y-15592603D01*
X14485089Y-15592603D02*
X14494612Y-15573555D01*
X14494612Y-15573555D02*
X14504136Y-15564031D01*
X14504136Y-15564031D02*
X14523184Y-15554507D01*
X14523184Y-15554507D02*
X14551755Y-15554507D01*
X14551755Y-15554507D02*
X14570803Y-15564031D01*
X14570803Y-15564031D02*
X14580327Y-15573555D01*
X14580327Y-15573555D02*
X14589850Y-15592603D01*
X14589850Y-15592603D02*
X14589850Y-15649746D01*
X14589850Y-15649746D02*
X14580327Y-15668793D01*
X14580327Y-15668793D02*
X14570803Y-15678317D01*
X14570803Y-15678317D02*
X14551755Y-15687841D01*
X14551755Y-15687841D02*
X14523184Y-15687841D01*
X14646993Y-15554507D02*
X14723184Y-15554507D01*
X14675565Y-15487841D02*
X14675565Y-15659269D01*
X14675565Y-15659269D02*
X14685089Y-15678317D01*
X14685089Y-15678317D02*
X14704136Y-15687841D01*
X14704136Y-15687841D02*
X14723184Y-15687841D01*
X14942231Y-15554507D02*
X14942231Y-15754507D01*
X14942231Y-15564031D02*
X14961279Y-15554507D01*
X14961279Y-15554507D02*
X14999374Y-15554507D01*
X14999374Y-15554507D02*
X15018422Y-15564031D01*
X15018422Y-15564031D02*
X15027946Y-15573555D01*
X15027946Y-15573555D02*
X15037470Y-15592603D01*
X15037470Y-15592603D02*
X15037470Y-15649746D01*
X15037470Y-15649746D02*
X15027946Y-15668793D01*
X15027946Y-15668793D02*
X15018422Y-15678317D01*
X15018422Y-15678317D02*
X14999374Y-15687841D01*
X14999374Y-15687841D02*
X14961279Y-15687841D01*
X14961279Y-15687841D02*
X14942231Y-15678317D01*
X15151755Y-15687841D02*
X15132708Y-15678317D01*
X15132708Y-15678317D02*
X15123184Y-15659269D01*
X15123184Y-15659269D02*
X15123184Y-15487841D01*
X15313660Y-15687841D02*
X15313660Y-15583079D01*
X15313660Y-15583079D02*
X15304136Y-15564031D01*
X15304136Y-15564031D02*
X15285089Y-15554507D01*
X15285089Y-15554507D02*
X15246993Y-15554507D01*
X15246993Y-15554507D02*
X15227946Y-15564031D01*
X15313660Y-15678317D02*
X15294612Y-15687841D01*
X15294612Y-15687841D02*
X15246993Y-15687841D01*
X15246993Y-15687841D02*
X15227946Y-15678317D01*
X15227946Y-15678317D02*
X15218422Y-15659269D01*
X15218422Y-15659269D02*
X15218422Y-15640222D01*
X15218422Y-15640222D02*
X15227946Y-15621174D01*
X15227946Y-15621174D02*
X15246993Y-15611650D01*
X15246993Y-15611650D02*
X15294612Y-15611650D01*
X15294612Y-15611650D02*
X15313660Y-15602127D01*
X15380327Y-15554507D02*
X15456517Y-15554507D01*
X15408898Y-15487841D02*
X15408898Y-15659269D01*
X15408898Y-15659269D02*
X15418422Y-15678317D01*
X15418422Y-15678317D02*
X15437470Y-15687841D01*
X15437470Y-15687841D02*
X15456517Y-15687841D01*
X15599374Y-15678317D02*
X15580327Y-15687841D01*
X15580327Y-15687841D02*
X15542231Y-15687841D01*
X15542231Y-15687841D02*
X15523184Y-15678317D01*
X15523184Y-15678317D02*
X15513660Y-15659269D01*
X15513660Y-15659269D02*
X15513660Y-15583079D01*
X15513660Y-15583079D02*
X15523184Y-15564031D01*
X15523184Y-15564031D02*
X15542231Y-15554507D01*
X15542231Y-15554507D02*
X15580327Y-15554507D01*
X15580327Y-15554507D02*
X15599374Y-15564031D01*
X15599374Y-15564031D02*
X15608898Y-15583079D01*
X15608898Y-15583079D02*
X15608898Y-15602127D01*
X15608898Y-15602127D02*
X15513660Y-15621174D01*
X15780327Y-15687841D02*
X15780327Y-15487841D01*
X15780327Y-15678317D02*
X15761279Y-15687841D01*
X15761279Y-15687841D02*
X15723184Y-15687841D01*
X15723184Y-15687841D02*
X15704136Y-15678317D01*
X15704136Y-15678317D02*
X15694612Y-15668793D01*
X15694612Y-15668793D02*
X15685089Y-15649746D01*
X15685089Y-15649746D02*
X15685089Y-15592603D01*
X15685089Y-15592603D02*
X15694612Y-15573555D01*
X15694612Y-15573555D02*
X15704136Y-15564031D01*
X15704136Y-15564031D02*
X15723184Y-15554507D01*
X15723184Y-15554507D02*
X15761279Y-15554507D01*
X15761279Y-15554507D02*
X15780327Y-15564031D01*
X15856517Y-15764031D02*
X15866041Y-15754507D01*
X15866041Y-15754507D02*
X15885089Y-15725936D01*
X15885089Y-15725936D02*
X15894612Y-15706888D01*
X15894612Y-15706888D02*
X15904136Y-15678317D01*
X15904136Y-15678317D02*
X15913660Y-15630698D01*
X15913660Y-15630698D02*
X15913660Y-15592603D01*
X15913660Y-15592603D02*
X15904136Y-15544984D01*
X15904136Y-15544984D02*
X15894612Y-15516412D01*
X15894612Y-15516412D02*
X15885089Y-15497365D01*
X15885089Y-15497365D02*
X15866041Y-15468793D01*
X15866041Y-15468793D02*
X15856517Y-15459269D01*
X9000502Y-15760357D02*
X9000502Y-15960357D01*
X8900502Y-15860357D02*
X9100502Y-15860357D01*
X9351755Y-15770888D02*
X9361279Y-15761365D01*
X9361279Y-15761365D02*
X9380326Y-15751841D01*
X9380326Y-15751841D02*
X9427945Y-15751841D01*
X9427945Y-15751841D02*
X9446993Y-15761365D01*
X9446993Y-15761365D02*
X9456517Y-15770888D01*
X9456517Y-15770888D02*
X9466041Y-15789936D01*
X9466041Y-15789936D02*
X9466041Y-15808984D01*
X9466041Y-15808984D02*
X9456517Y-15837555D01*
X9456517Y-15837555D02*
X9342231Y-15951841D01*
X9342231Y-15951841D02*
X9466041Y-15951841D01*
X9551755Y-15932793D02*
X9561279Y-15942317D01*
X9561279Y-15942317D02*
X9551755Y-15951841D01*
X9551755Y-15951841D02*
X9542231Y-15942317D01*
X9542231Y-15942317D02*
X9551755Y-15932793D01*
X9551755Y-15932793D02*
X9551755Y-15951841D01*
X9637469Y-15770888D02*
X9646993Y-15761365D01*
X9646993Y-15761365D02*
X9666041Y-15751841D01*
X9666041Y-15751841D02*
X9713660Y-15751841D01*
X9713660Y-15751841D02*
X9732707Y-15761365D01*
X9732707Y-15761365D02*
X9742231Y-15770888D01*
X9742231Y-15770888D02*
X9751755Y-15789936D01*
X9751755Y-15789936D02*
X9751755Y-15808984D01*
X9751755Y-15808984D02*
X9742231Y-15837555D01*
X9742231Y-15837555D02*
X9627945Y-15951841D01*
X9627945Y-15951841D02*
X9751755Y-15951841D01*
X9875564Y-15751841D02*
X9894612Y-15751841D01*
X9894612Y-15751841D02*
X9913660Y-15761365D01*
X9913660Y-15761365D02*
X9923183Y-15770888D01*
X9923183Y-15770888D02*
X9932707Y-15789936D01*
X9932707Y-15789936D02*
X9942231Y-15828031D01*
X9942231Y-15828031D02*
X9942231Y-15875650D01*
X9942231Y-15875650D02*
X9932707Y-15913746D01*
X9932707Y-15913746D02*
X9923183Y-15932793D01*
X9923183Y-15932793D02*
X9913660Y-15942317D01*
X9913660Y-15942317D02*
X9894612Y-15951841D01*
X9894612Y-15951841D02*
X9875564Y-15951841D01*
X9875564Y-15951841D02*
X9856517Y-15942317D01*
X9856517Y-15942317D02*
X9846993Y-15932793D01*
X9846993Y-15932793D02*
X9837469Y-15913746D01*
X9837469Y-15913746D02*
X9827945Y-15875650D01*
X9827945Y-15875650D02*
X9827945Y-15828031D01*
X9827945Y-15828031D02*
X9837469Y-15789936D01*
X9837469Y-15789936D02*
X9846993Y-15770888D01*
X9846993Y-15770888D02*
X9856517Y-15761365D01*
X9856517Y-15761365D02*
X9875564Y-15751841D01*
X10066041Y-15751841D02*
X10085088Y-15751841D01*
X10085088Y-15751841D02*
X10104136Y-15761365D01*
X10104136Y-15761365D02*
X10113660Y-15770888D01*
X10113660Y-15770888D02*
X10123183Y-15789936D01*
X10123183Y-15789936D02*
X10132707Y-15828031D01*
X10132707Y-15828031D02*
X10132707Y-15875650D01*
X10132707Y-15875650D02*
X10123183Y-15913746D01*
X10123183Y-15913746D02*
X10113660Y-15932793D01*
X10113660Y-15932793D02*
X10104136Y-15942317D01*
X10104136Y-15942317D02*
X10085088Y-15951841D01*
X10085088Y-15951841D02*
X10066041Y-15951841D01*
X10066041Y-15951841D02*
X10046993Y-15942317D01*
X10046993Y-15942317D02*
X10037469Y-15932793D01*
X10037469Y-15932793D02*
X10027945Y-15913746D01*
X10027945Y-15913746D02*
X10018422Y-15875650D01*
X10018422Y-15875650D02*
X10018422Y-15828031D01*
X10018422Y-15828031D02*
X10027945Y-15789936D01*
X10027945Y-15789936D02*
X10037469Y-15770888D01*
X10037469Y-15770888D02*
X10046993Y-15761365D01*
X10046993Y-15761365D02*
X10066041Y-15751841D01*
X10218422Y-15951841D02*
X10218422Y-15818507D01*
X10218422Y-15837555D02*
X10227945Y-15828031D01*
X10227945Y-15828031D02*
X10246993Y-15818507D01*
X10246993Y-15818507D02*
X10275564Y-15818507D01*
X10275564Y-15818507D02*
X10294612Y-15828031D01*
X10294612Y-15828031D02*
X10304136Y-15847079D01*
X10304136Y-15847079D02*
X10304136Y-15951841D01*
X10304136Y-15847079D02*
X10313660Y-15828031D01*
X10313660Y-15828031D02*
X10332707Y-15818507D01*
X10332707Y-15818507D02*
X10361279Y-15818507D01*
X10361279Y-15818507D02*
X10380326Y-15828031D01*
X10380326Y-15828031D02*
X10389850Y-15847079D01*
X10389850Y-15847079D02*
X10389850Y-15951841D01*
X10485088Y-15951841D02*
X10485088Y-15818507D01*
X10485088Y-15837555D02*
X10494612Y-15828031D01*
X10494612Y-15828031D02*
X10513660Y-15818507D01*
X10513660Y-15818507D02*
X10542231Y-15818507D01*
X10542231Y-15818507D02*
X10561279Y-15828031D01*
X10561279Y-15828031D02*
X10570803Y-15847079D01*
X10570803Y-15847079D02*
X10570803Y-15951841D01*
X10570803Y-15847079D02*
X10580326Y-15828031D01*
X10580326Y-15828031D02*
X10599374Y-15818507D01*
X10599374Y-15818507D02*
X10627945Y-15818507D01*
X10627945Y-15818507D02*
X10646993Y-15828031D01*
X10646993Y-15828031D02*
X10656517Y-15847079D01*
X10656517Y-15847079D02*
X10656517Y-15951841D01*
X11046993Y-15742317D02*
X10875565Y-15999460D01*
X11304136Y-15751841D02*
X11323184Y-15751841D01*
X11323184Y-15751841D02*
X11342231Y-15761365D01*
X11342231Y-15761365D02*
X11351755Y-15770888D01*
X11351755Y-15770888D02*
X11361279Y-15789936D01*
X11361279Y-15789936D02*
X11370803Y-15828031D01*
X11370803Y-15828031D02*
X11370803Y-15875650D01*
X11370803Y-15875650D02*
X11361279Y-15913746D01*
X11361279Y-15913746D02*
X11351755Y-15932793D01*
X11351755Y-15932793D02*
X11342231Y-15942317D01*
X11342231Y-15942317D02*
X11323184Y-15951841D01*
X11323184Y-15951841D02*
X11304136Y-15951841D01*
X11304136Y-15951841D02*
X11285088Y-15942317D01*
X11285088Y-15942317D02*
X11275564Y-15932793D01*
X11275564Y-15932793D02*
X11266041Y-15913746D01*
X11266041Y-15913746D02*
X11256517Y-15875650D01*
X11256517Y-15875650D02*
X11256517Y-15828031D01*
X11256517Y-15828031D02*
X11266041Y-15789936D01*
X11266041Y-15789936D02*
X11275564Y-15770888D01*
X11275564Y-15770888D02*
X11285088Y-15761365D01*
X11285088Y-15761365D02*
X11304136Y-15751841D01*
X11456517Y-15932793D02*
X11466041Y-15942317D01*
X11466041Y-15942317D02*
X11456517Y-15951841D01*
X11456517Y-15951841D02*
X11446993Y-15942317D01*
X11446993Y-15942317D02*
X11456517Y-15932793D01*
X11456517Y-15932793D02*
X11456517Y-15951841D01*
X11589850Y-15751841D02*
X11608898Y-15751841D01*
X11608898Y-15751841D02*
X11627945Y-15761365D01*
X11627945Y-15761365D02*
X11637469Y-15770888D01*
X11637469Y-15770888D02*
X11646993Y-15789936D01*
X11646993Y-15789936D02*
X11656517Y-15828031D01*
X11656517Y-15828031D02*
X11656517Y-15875650D01*
X11656517Y-15875650D02*
X11646993Y-15913746D01*
X11646993Y-15913746D02*
X11637469Y-15932793D01*
X11637469Y-15932793D02*
X11627945Y-15942317D01*
X11627945Y-15942317D02*
X11608898Y-15951841D01*
X11608898Y-15951841D02*
X11589850Y-15951841D01*
X11589850Y-15951841D02*
X11570803Y-15942317D01*
X11570803Y-15942317D02*
X11561279Y-15932793D01*
X11561279Y-15932793D02*
X11551755Y-15913746D01*
X11551755Y-15913746D02*
X11542231Y-15875650D01*
X11542231Y-15875650D02*
X11542231Y-15828031D01*
X11542231Y-15828031D02*
X11551755Y-15789936D01*
X11551755Y-15789936D02*
X11561279Y-15770888D01*
X11561279Y-15770888D02*
X11570803Y-15761365D01*
X11570803Y-15761365D02*
X11589850Y-15751841D01*
X11770803Y-15837555D02*
X11751755Y-15828031D01*
X11751755Y-15828031D02*
X11742231Y-15818507D01*
X11742231Y-15818507D02*
X11732707Y-15799460D01*
X11732707Y-15799460D02*
X11732707Y-15789936D01*
X11732707Y-15789936D02*
X11742231Y-15770888D01*
X11742231Y-15770888D02*
X11751755Y-15761365D01*
X11751755Y-15761365D02*
X11770803Y-15751841D01*
X11770803Y-15751841D02*
X11808898Y-15751841D01*
X11808898Y-15751841D02*
X11827945Y-15761365D01*
X11827945Y-15761365D02*
X11837469Y-15770888D01*
X11837469Y-15770888D02*
X11846993Y-15789936D01*
X11846993Y-15789936D02*
X11846993Y-15799460D01*
X11846993Y-15799460D02*
X11837469Y-15818507D01*
X11837469Y-15818507D02*
X11827945Y-15828031D01*
X11827945Y-15828031D02*
X11808898Y-15837555D01*
X11808898Y-15837555D02*
X11770803Y-15837555D01*
X11770803Y-15837555D02*
X11751755Y-15847079D01*
X11751755Y-15847079D02*
X11742231Y-15856603D01*
X11742231Y-15856603D02*
X11732707Y-15875650D01*
X11732707Y-15875650D02*
X11732707Y-15913746D01*
X11732707Y-15913746D02*
X11742231Y-15932793D01*
X11742231Y-15932793D02*
X11751755Y-15942317D01*
X11751755Y-15942317D02*
X11770803Y-15951841D01*
X11770803Y-15951841D02*
X11808898Y-15951841D01*
X11808898Y-15951841D02*
X11827945Y-15942317D01*
X11827945Y-15942317D02*
X11837469Y-15932793D01*
X11837469Y-15932793D02*
X11846993Y-15913746D01*
X11846993Y-15913746D02*
X11846993Y-15875650D01*
X11846993Y-15875650D02*
X11837469Y-15856603D01*
X11837469Y-15856603D02*
X11827945Y-15847079D01*
X11827945Y-15847079D02*
X11808898Y-15837555D01*
X12018422Y-15751841D02*
X11980326Y-15751841D01*
X11980326Y-15751841D02*
X11961279Y-15761365D01*
X11961279Y-15761365D02*
X11951755Y-15770888D01*
X11951755Y-15770888D02*
X11932707Y-15799460D01*
X11932707Y-15799460D02*
X11923184Y-15837555D01*
X11923184Y-15837555D02*
X11923184Y-15913746D01*
X11923184Y-15913746D02*
X11932707Y-15932793D01*
X11932707Y-15932793D02*
X11942231Y-15942317D01*
X11942231Y-15942317D02*
X11961279Y-15951841D01*
X11961279Y-15951841D02*
X11999374Y-15951841D01*
X11999374Y-15951841D02*
X12018422Y-15942317D01*
X12018422Y-15942317D02*
X12027945Y-15932793D01*
X12027945Y-15932793D02*
X12037469Y-15913746D01*
X12037469Y-15913746D02*
X12037469Y-15866127D01*
X12037469Y-15866127D02*
X12027945Y-15847079D01*
X12027945Y-15847079D02*
X12018422Y-15837555D01*
X12018422Y-15837555D02*
X11999374Y-15828031D01*
X11999374Y-15828031D02*
X11961279Y-15828031D01*
X11961279Y-15828031D02*
X11942231Y-15837555D01*
X11942231Y-15837555D02*
X11932707Y-15847079D01*
X11932707Y-15847079D02*
X11923184Y-15866127D01*
X12208898Y-15751841D02*
X12170803Y-15751841D01*
X12170803Y-15751841D02*
X12151755Y-15761365D01*
X12151755Y-15761365D02*
X12142231Y-15770888D01*
X12142231Y-15770888D02*
X12123184Y-15799460D01*
X12123184Y-15799460D02*
X12113660Y-15837555D01*
X12113660Y-15837555D02*
X12113660Y-15913746D01*
X12113660Y-15913746D02*
X12123184Y-15932793D01*
X12123184Y-15932793D02*
X12132707Y-15942317D01*
X12132707Y-15942317D02*
X12151755Y-15951841D01*
X12151755Y-15951841D02*
X12189850Y-15951841D01*
X12189850Y-15951841D02*
X12208898Y-15942317D01*
X12208898Y-15942317D02*
X12218422Y-15932793D01*
X12218422Y-15932793D02*
X12227945Y-15913746D01*
X12227945Y-15913746D02*
X12227945Y-15866127D01*
X12227945Y-15866127D02*
X12218422Y-15847079D01*
X12218422Y-15847079D02*
X12208898Y-15837555D01*
X12208898Y-15837555D02*
X12189850Y-15828031D01*
X12189850Y-15828031D02*
X12151755Y-15828031D01*
X12151755Y-15828031D02*
X12132707Y-15837555D01*
X12132707Y-15837555D02*
X12123184Y-15847079D01*
X12123184Y-15847079D02*
X12113660Y-15866127D01*
X12304136Y-15751841D02*
X12304136Y-15789936D01*
X12380326Y-15751841D02*
X12380326Y-15789936D01*
X12675565Y-16028031D02*
X12666041Y-16018507D01*
X12666041Y-16018507D02*
X12646993Y-15989936D01*
X12646993Y-15989936D02*
X12637469Y-15970888D01*
X12637469Y-15970888D02*
X12627946Y-15942317D01*
X12627946Y-15942317D02*
X12618422Y-15894698D01*
X12618422Y-15894698D02*
X12618422Y-15856603D01*
X12618422Y-15856603D02*
X12627946Y-15808984D01*
X12627946Y-15808984D02*
X12637469Y-15780412D01*
X12637469Y-15780412D02*
X12646993Y-15761365D01*
X12646993Y-15761365D02*
X12666041Y-15732793D01*
X12666041Y-15732793D02*
X12675565Y-15723269D01*
X12742231Y-15770888D02*
X12751755Y-15761365D01*
X12751755Y-15761365D02*
X12770803Y-15751841D01*
X12770803Y-15751841D02*
X12818422Y-15751841D01*
X12818422Y-15751841D02*
X12837469Y-15761365D01*
X12837469Y-15761365D02*
X12846993Y-15770888D01*
X12846993Y-15770888D02*
X12856517Y-15789936D01*
X12856517Y-15789936D02*
X12856517Y-15808984D01*
X12856517Y-15808984D02*
X12846993Y-15837555D01*
X12846993Y-15837555D02*
X12732707Y-15951841D01*
X12732707Y-15951841D02*
X12856517Y-15951841D01*
X13094612Y-15951841D02*
X13094612Y-15751841D01*
X13180327Y-15951841D02*
X13180327Y-15847079D01*
X13180327Y-15847079D02*
X13170803Y-15828031D01*
X13170803Y-15828031D02*
X13151755Y-15818507D01*
X13151755Y-15818507D02*
X13123184Y-15818507D01*
X13123184Y-15818507D02*
X13104136Y-15828031D01*
X13104136Y-15828031D02*
X13094612Y-15837555D01*
X13304136Y-15951841D02*
X13285088Y-15942317D01*
X13285088Y-15942317D02*
X13275565Y-15932793D01*
X13275565Y-15932793D02*
X13266041Y-15913746D01*
X13266041Y-15913746D02*
X13266041Y-15856603D01*
X13266041Y-15856603D02*
X13275565Y-15837555D01*
X13275565Y-15837555D02*
X13285088Y-15828031D01*
X13285088Y-15828031D02*
X13304136Y-15818507D01*
X13304136Y-15818507D02*
X13332708Y-15818507D01*
X13332708Y-15818507D02*
X13351755Y-15828031D01*
X13351755Y-15828031D02*
X13361279Y-15837555D01*
X13361279Y-15837555D02*
X13370803Y-15856603D01*
X13370803Y-15856603D02*
X13370803Y-15913746D01*
X13370803Y-15913746D02*
X13361279Y-15932793D01*
X13361279Y-15932793D02*
X13351755Y-15942317D01*
X13351755Y-15942317D02*
X13332708Y-15951841D01*
X13332708Y-15951841D02*
X13304136Y-15951841D01*
X13485088Y-15951841D02*
X13466041Y-15942317D01*
X13466041Y-15942317D02*
X13456517Y-15923269D01*
X13456517Y-15923269D02*
X13456517Y-15751841D01*
X13637469Y-15942317D02*
X13618422Y-15951841D01*
X13618422Y-15951841D02*
X13580327Y-15951841D01*
X13580327Y-15951841D02*
X13561279Y-15942317D01*
X13561279Y-15942317D02*
X13551755Y-15923269D01*
X13551755Y-15923269D02*
X13551755Y-15847079D01*
X13551755Y-15847079D02*
X13561279Y-15828031D01*
X13561279Y-15828031D02*
X13580327Y-15818507D01*
X13580327Y-15818507D02*
X13618422Y-15818507D01*
X13618422Y-15818507D02*
X13637469Y-15828031D01*
X13637469Y-15828031D02*
X13646993Y-15847079D01*
X13646993Y-15847079D02*
X13646993Y-15866127D01*
X13646993Y-15866127D02*
X13551755Y-15885174D01*
X13723184Y-15942317D02*
X13742231Y-15951841D01*
X13742231Y-15951841D02*
X13780327Y-15951841D01*
X13780327Y-15951841D02*
X13799374Y-15942317D01*
X13799374Y-15942317D02*
X13808898Y-15923269D01*
X13808898Y-15923269D02*
X13808898Y-15913746D01*
X13808898Y-15913746D02*
X13799374Y-15894698D01*
X13799374Y-15894698D02*
X13780327Y-15885174D01*
X13780327Y-15885174D02*
X13751755Y-15885174D01*
X13751755Y-15885174D02*
X13732708Y-15875650D01*
X13732708Y-15875650D02*
X13723184Y-15856603D01*
X13723184Y-15856603D02*
X13723184Y-15847079D01*
X13723184Y-15847079D02*
X13732708Y-15828031D01*
X13732708Y-15828031D02*
X13751755Y-15818507D01*
X13751755Y-15818507D02*
X13780327Y-15818507D01*
X13780327Y-15818507D02*
X13799374Y-15828031D01*
X13875565Y-16028031D02*
X13885089Y-16018507D01*
X13885089Y-16018507D02*
X13904136Y-15989936D01*
X13904136Y-15989936D02*
X13913660Y-15970888D01*
X13913660Y-15970888D02*
X13923184Y-15942317D01*
X13923184Y-15942317D02*
X13932708Y-15894698D01*
X13932708Y-15894698D02*
X13932708Y-15856603D01*
X13932708Y-15856603D02*
X13923184Y-15808984D01*
X13923184Y-15808984D02*
X13913660Y-15780412D01*
X13913660Y-15780412D02*
X13904136Y-15761365D01*
X13904136Y-15761365D02*
X13885089Y-15732793D01*
X13885089Y-15732793D02*
X13875565Y-15723269D01*
X14237470Y-16028031D02*
X14227946Y-16018507D01*
X14227946Y-16018507D02*
X14208898Y-15989936D01*
X14208898Y-15989936D02*
X14199374Y-15970888D01*
X14199374Y-15970888D02*
X14189850Y-15942317D01*
X14189850Y-15942317D02*
X14180327Y-15894698D01*
X14180327Y-15894698D02*
X14180327Y-15856603D01*
X14180327Y-15856603D02*
X14189850Y-15808984D01*
X14189850Y-15808984D02*
X14199374Y-15780412D01*
X14199374Y-15780412D02*
X14208898Y-15761365D01*
X14208898Y-15761365D02*
X14227946Y-15732793D01*
X14227946Y-15732793D02*
X14237470Y-15723269D01*
X14313660Y-15818507D02*
X14313660Y-15951841D01*
X14313660Y-15837555D02*
X14323184Y-15828031D01*
X14323184Y-15828031D02*
X14342231Y-15818507D01*
X14342231Y-15818507D02*
X14370803Y-15818507D01*
X14370803Y-15818507D02*
X14389850Y-15828031D01*
X14389850Y-15828031D02*
X14399374Y-15847079D01*
X14399374Y-15847079D02*
X14399374Y-15951841D01*
X14523184Y-15951841D02*
X14504136Y-15942317D01*
X14504136Y-15942317D02*
X14494612Y-15932793D01*
X14494612Y-15932793D02*
X14485089Y-15913746D01*
X14485089Y-15913746D02*
X14485089Y-15856603D01*
X14485089Y-15856603D02*
X14494612Y-15837555D01*
X14494612Y-15837555D02*
X14504136Y-15828031D01*
X14504136Y-15828031D02*
X14523184Y-15818507D01*
X14523184Y-15818507D02*
X14551755Y-15818507D01*
X14551755Y-15818507D02*
X14570803Y-15828031D01*
X14570803Y-15828031D02*
X14580327Y-15837555D01*
X14580327Y-15837555D02*
X14589850Y-15856603D01*
X14589850Y-15856603D02*
X14589850Y-15913746D01*
X14589850Y-15913746D02*
X14580327Y-15932793D01*
X14580327Y-15932793D02*
X14570803Y-15942317D01*
X14570803Y-15942317D02*
X14551755Y-15951841D01*
X14551755Y-15951841D02*
X14523184Y-15951841D01*
X14646993Y-15818507D02*
X14723184Y-15818507D01*
X14675565Y-15751841D02*
X14675565Y-15923269D01*
X14675565Y-15923269D02*
X14685089Y-15942317D01*
X14685089Y-15942317D02*
X14704136Y-15951841D01*
X14704136Y-15951841D02*
X14723184Y-15951841D01*
X14942231Y-15818507D02*
X14942231Y-16018507D01*
X14942231Y-15828031D02*
X14961279Y-15818507D01*
X14961279Y-15818507D02*
X14999374Y-15818507D01*
X14999374Y-15818507D02*
X15018422Y-15828031D01*
X15018422Y-15828031D02*
X15027946Y-15837555D01*
X15027946Y-15837555D02*
X15037470Y-15856603D01*
X15037470Y-15856603D02*
X15037470Y-15913746D01*
X15037470Y-15913746D02*
X15027946Y-15932793D01*
X15027946Y-15932793D02*
X15018422Y-15942317D01*
X15018422Y-15942317D02*
X14999374Y-15951841D01*
X14999374Y-15951841D02*
X14961279Y-15951841D01*
X14961279Y-15951841D02*
X14942231Y-15942317D01*
X15151755Y-15951841D02*
X15132708Y-15942317D01*
X15132708Y-15942317D02*
X15123184Y-15923269D01*
X15123184Y-15923269D02*
X15123184Y-15751841D01*
X15313660Y-15951841D02*
X15313660Y-15847079D01*
X15313660Y-15847079D02*
X15304136Y-15828031D01*
X15304136Y-15828031D02*
X15285089Y-15818507D01*
X15285089Y-15818507D02*
X15246993Y-15818507D01*
X15246993Y-15818507D02*
X15227946Y-15828031D01*
X15313660Y-15942317D02*
X15294612Y-15951841D01*
X15294612Y-15951841D02*
X15246993Y-15951841D01*
X15246993Y-15951841D02*
X15227946Y-15942317D01*
X15227946Y-15942317D02*
X15218422Y-15923269D01*
X15218422Y-15923269D02*
X15218422Y-15904222D01*
X15218422Y-15904222D02*
X15227946Y-15885174D01*
X15227946Y-15885174D02*
X15246993Y-15875650D01*
X15246993Y-15875650D02*
X15294612Y-15875650D01*
X15294612Y-15875650D02*
X15313660Y-15866127D01*
X15380327Y-15818507D02*
X15456517Y-15818507D01*
X15408898Y-15751841D02*
X15408898Y-15923269D01*
X15408898Y-15923269D02*
X15418422Y-15942317D01*
X15418422Y-15942317D02*
X15437470Y-15951841D01*
X15437470Y-15951841D02*
X15456517Y-15951841D01*
X15599374Y-15942317D02*
X15580327Y-15951841D01*
X15580327Y-15951841D02*
X15542231Y-15951841D01*
X15542231Y-15951841D02*
X15523184Y-15942317D01*
X15523184Y-15942317D02*
X15513660Y-15923269D01*
X15513660Y-15923269D02*
X15513660Y-15847079D01*
X15513660Y-15847079D02*
X15523184Y-15828031D01*
X15523184Y-15828031D02*
X15542231Y-15818507D01*
X15542231Y-15818507D02*
X15580327Y-15818507D01*
X15580327Y-15818507D02*
X15599374Y-15828031D01*
X15599374Y-15828031D02*
X15608898Y-15847079D01*
X15608898Y-15847079D02*
X15608898Y-15866127D01*
X15608898Y-15866127D02*
X15513660Y-15885174D01*
X15780327Y-15951841D02*
X15780327Y-15751841D01*
X15780327Y-15942317D02*
X15761279Y-15951841D01*
X15761279Y-15951841D02*
X15723184Y-15951841D01*
X15723184Y-15951841D02*
X15704136Y-15942317D01*
X15704136Y-15942317D02*
X15694612Y-15932793D01*
X15694612Y-15932793D02*
X15685089Y-15913746D01*
X15685089Y-15913746D02*
X15685089Y-15856603D01*
X15685089Y-15856603D02*
X15694612Y-15837555D01*
X15694612Y-15837555D02*
X15704136Y-15828031D01*
X15704136Y-15828031D02*
X15723184Y-15818507D01*
X15723184Y-15818507D02*
X15761279Y-15818507D01*
X15761279Y-15818507D02*
X15780327Y-15828031D01*
X15856517Y-16028031D02*
X15866041Y-16018507D01*
X15866041Y-16018507D02*
X15885089Y-15989936D01*
X15885089Y-15989936D02*
X15894612Y-15970888D01*
X15894612Y-15970888D02*
X15904136Y-15942317D01*
X15904136Y-15942317D02*
X15913660Y-15894698D01*
X15913660Y-15894698D02*
X15913660Y-15856603D01*
X15913660Y-15856603D02*
X15904136Y-15808984D01*
X15904136Y-15808984D02*
X15894612Y-15780412D01*
X15894612Y-15780412D02*
X15885089Y-15761365D01*
X15885089Y-15761365D02*
X15866041Y-15732793D01*
X15866041Y-15732793D02*
X15856517Y-15723269D01*
X9071213Y-16251068D02*
X9071213Y-16109646D01*
X8929790Y-16109646D01*
X8929790Y-16251068D01*
X9071213Y-16251068D01*
X9342231Y-16071841D02*
X9466041Y-16071841D01*
X9466041Y-16071841D02*
X9399374Y-16148031D01*
X9399374Y-16148031D02*
X9427945Y-16148031D01*
X9427945Y-16148031D02*
X9446993Y-16157555D01*
X9446993Y-16157555D02*
X9456517Y-16167079D01*
X9456517Y-16167079D02*
X9466041Y-16186127D01*
X9466041Y-16186127D02*
X9466041Y-16233746D01*
X9466041Y-16233746D02*
X9456517Y-16252793D01*
X9456517Y-16252793D02*
X9446993Y-16262317D01*
X9446993Y-16262317D02*
X9427945Y-16271841D01*
X9427945Y-16271841D02*
X9370802Y-16271841D01*
X9370802Y-16271841D02*
X9351755Y-16262317D01*
X9351755Y-16262317D02*
X9342231Y-16252793D01*
X9551755Y-16252793D02*
X9561279Y-16262317D01*
X9561279Y-16262317D02*
X9551755Y-16271841D01*
X9551755Y-16271841D02*
X9542231Y-16262317D01*
X9542231Y-16262317D02*
X9551755Y-16252793D01*
X9551755Y-16252793D02*
X9551755Y-16271841D01*
X9685088Y-16071841D02*
X9704136Y-16071841D01*
X9704136Y-16071841D02*
X9723183Y-16081365D01*
X9723183Y-16081365D02*
X9732707Y-16090888D01*
X9732707Y-16090888D02*
X9742231Y-16109936D01*
X9742231Y-16109936D02*
X9751755Y-16148031D01*
X9751755Y-16148031D02*
X9751755Y-16195650D01*
X9751755Y-16195650D02*
X9742231Y-16233746D01*
X9742231Y-16233746D02*
X9732707Y-16252793D01*
X9732707Y-16252793D02*
X9723183Y-16262317D01*
X9723183Y-16262317D02*
X9704136Y-16271841D01*
X9704136Y-16271841D02*
X9685088Y-16271841D01*
X9685088Y-16271841D02*
X9666041Y-16262317D01*
X9666041Y-16262317D02*
X9656517Y-16252793D01*
X9656517Y-16252793D02*
X9646993Y-16233746D01*
X9646993Y-16233746D02*
X9637469Y-16195650D01*
X9637469Y-16195650D02*
X9637469Y-16148031D01*
X9637469Y-16148031D02*
X9646993Y-16109936D01*
X9646993Y-16109936D02*
X9656517Y-16090888D01*
X9656517Y-16090888D02*
X9666041Y-16081365D01*
X9666041Y-16081365D02*
X9685088Y-16071841D01*
X9875564Y-16071841D02*
X9894612Y-16071841D01*
X9894612Y-16071841D02*
X9913660Y-16081365D01*
X9913660Y-16081365D02*
X9923183Y-16090888D01*
X9923183Y-16090888D02*
X9932707Y-16109936D01*
X9932707Y-16109936D02*
X9942231Y-16148031D01*
X9942231Y-16148031D02*
X9942231Y-16195650D01*
X9942231Y-16195650D02*
X9932707Y-16233746D01*
X9932707Y-16233746D02*
X9923183Y-16252793D01*
X9923183Y-16252793D02*
X9913660Y-16262317D01*
X9913660Y-16262317D02*
X9894612Y-16271841D01*
X9894612Y-16271841D02*
X9875564Y-16271841D01*
X9875564Y-16271841D02*
X9856517Y-16262317D01*
X9856517Y-16262317D02*
X9846993Y-16252793D01*
X9846993Y-16252793D02*
X9837469Y-16233746D01*
X9837469Y-16233746D02*
X9827945Y-16195650D01*
X9827945Y-16195650D02*
X9827945Y-16148031D01*
X9827945Y-16148031D02*
X9837469Y-16109936D01*
X9837469Y-16109936D02*
X9846993Y-16090888D01*
X9846993Y-16090888D02*
X9856517Y-16081365D01*
X9856517Y-16081365D02*
X9875564Y-16071841D01*
X10066041Y-16071841D02*
X10085088Y-16071841D01*
X10085088Y-16071841D02*
X10104136Y-16081365D01*
X10104136Y-16081365D02*
X10113660Y-16090888D01*
X10113660Y-16090888D02*
X10123183Y-16109936D01*
X10123183Y-16109936D02*
X10132707Y-16148031D01*
X10132707Y-16148031D02*
X10132707Y-16195650D01*
X10132707Y-16195650D02*
X10123183Y-16233746D01*
X10123183Y-16233746D02*
X10113660Y-16252793D01*
X10113660Y-16252793D02*
X10104136Y-16262317D01*
X10104136Y-16262317D02*
X10085088Y-16271841D01*
X10085088Y-16271841D02*
X10066041Y-16271841D01*
X10066041Y-16271841D02*
X10046993Y-16262317D01*
X10046993Y-16262317D02*
X10037469Y-16252793D01*
X10037469Y-16252793D02*
X10027945Y-16233746D01*
X10027945Y-16233746D02*
X10018422Y-16195650D01*
X10018422Y-16195650D02*
X10018422Y-16148031D01*
X10018422Y-16148031D02*
X10027945Y-16109936D01*
X10027945Y-16109936D02*
X10037469Y-16090888D01*
X10037469Y-16090888D02*
X10046993Y-16081365D01*
X10046993Y-16081365D02*
X10066041Y-16071841D01*
X10218422Y-16271841D02*
X10218422Y-16138507D01*
X10218422Y-16157555D02*
X10227945Y-16148031D01*
X10227945Y-16148031D02*
X10246993Y-16138507D01*
X10246993Y-16138507D02*
X10275564Y-16138507D01*
X10275564Y-16138507D02*
X10294612Y-16148031D01*
X10294612Y-16148031D02*
X10304136Y-16167079D01*
X10304136Y-16167079D02*
X10304136Y-16271841D01*
X10304136Y-16167079D02*
X10313660Y-16148031D01*
X10313660Y-16148031D02*
X10332707Y-16138507D01*
X10332707Y-16138507D02*
X10361279Y-16138507D01*
X10361279Y-16138507D02*
X10380326Y-16148031D01*
X10380326Y-16148031D02*
X10389850Y-16167079D01*
X10389850Y-16167079D02*
X10389850Y-16271841D01*
X10485088Y-16271841D02*
X10485088Y-16138507D01*
X10485088Y-16157555D02*
X10494612Y-16148031D01*
X10494612Y-16148031D02*
X10513660Y-16138507D01*
X10513660Y-16138507D02*
X10542231Y-16138507D01*
X10542231Y-16138507D02*
X10561279Y-16148031D01*
X10561279Y-16148031D02*
X10570803Y-16167079D01*
X10570803Y-16167079D02*
X10570803Y-16271841D01*
X10570803Y-16167079D02*
X10580326Y-16148031D01*
X10580326Y-16148031D02*
X10599374Y-16138507D01*
X10599374Y-16138507D02*
X10627945Y-16138507D01*
X10627945Y-16138507D02*
X10646993Y-16148031D01*
X10646993Y-16148031D02*
X10656517Y-16167079D01*
X10656517Y-16167079D02*
X10656517Y-16271841D01*
X11046993Y-16062317D02*
X10875565Y-16319460D01*
X11304136Y-16071841D02*
X11323184Y-16071841D01*
X11323184Y-16071841D02*
X11342231Y-16081365D01*
X11342231Y-16081365D02*
X11351755Y-16090888D01*
X11351755Y-16090888D02*
X11361279Y-16109936D01*
X11361279Y-16109936D02*
X11370803Y-16148031D01*
X11370803Y-16148031D02*
X11370803Y-16195650D01*
X11370803Y-16195650D02*
X11361279Y-16233746D01*
X11361279Y-16233746D02*
X11351755Y-16252793D01*
X11351755Y-16252793D02*
X11342231Y-16262317D01*
X11342231Y-16262317D02*
X11323184Y-16271841D01*
X11323184Y-16271841D02*
X11304136Y-16271841D01*
X11304136Y-16271841D02*
X11285088Y-16262317D01*
X11285088Y-16262317D02*
X11275564Y-16252793D01*
X11275564Y-16252793D02*
X11266041Y-16233746D01*
X11266041Y-16233746D02*
X11256517Y-16195650D01*
X11256517Y-16195650D02*
X11256517Y-16148031D01*
X11256517Y-16148031D02*
X11266041Y-16109936D01*
X11266041Y-16109936D02*
X11275564Y-16090888D01*
X11275564Y-16090888D02*
X11285088Y-16081365D01*
X11285088Y-16081365D02*
X11304136Y-16071841D01*
X11456517Y-16252793D02*
X11466041Y-16262317D01*
X11466041Y-16262317D02*
X11456517Y-16271841D01*
X11456517Y-16271841D02*
X11446993Y-16262317D01*
X11446993Y-16262317D02*
X11456517Y-16252793D01*
X11456517Y-16252793D02*
X11456517Y-16271841D01*
X11656517Y-16271841D02*
X11542231Y-16271841D01*
X11599374Y-16271841D02*
X11599374Y-16071841D01*
X11599374Y-16071841D02*
X11580326Y-16100412D01*
X11580326Y-16100412D02*
X11561279Y-16119460D01*
X11561279Y-16119460D02*
X11542231Y-16128984D01*
X11846993Y-16271841D02*
X11732707Y-16271841D01*
X11789850Y-16271841D02*
X11789850Y-16071841D01*
X11789850Y-16071841D02*
X11770803Y-16100412D01*
X11770803Y-16100412D02*
X11751755Y-16119460D01*
X11751755Y-16119460D02*
X11732707Y-16128984D01*
X11961279Y-16157555D02*
X11942231Y-16148031D01*
X11942231Y-16148031D02*
X11932707Y-16138507D01*
X11932707Y-16138507D02*
X11923184Y-16119460D01*
X11923184Y-16119460D02*
X11923184Y-16109936D01*
X11923184Y-16109936D02*
X11932707Y-16090888D01*
X11932707Y-16090888D02*
X11942231Y-16081365D01*
X11942231Y-16081365D02*
X11961279Y-16071841D01*
X11961279Y-16071841D02*
X11999374Y-16071841D01*
X11999374Y-16071841D02*
X12018422Y-16081365D01*
X12018422Y-16081365D02*
X12027945Y-16090888D01*
X12027945Y-16090888D02*
X12037469Y-16109936D01*
X12037469Y-16109936D02*
X12037469Y-16119460D01*
X12037469Y-16119460D02*
X12027945Y-16138507D01*
X12027945Y-16138507D02*
X12018422Y-16148031D01*
X12018422Y-16148031D02*
X11999374Y-16157555D01*
X11999374Y-16157555D02*
X11961279Y-16157555D01*
X11961279Y-16157555D02*
X11942231Y-16167079D01*
X11942231Y-16167079D02*
X11932707Y-16176603D01*
X11932707Y-16176603D02*
X11923184Y-16195650D01*
X11923184Y-16195650D02*
X11923184Y-16233746D01*
X11923184Y-16233746D02*
X11932707Y-16252793D01*
X11932707Y-16252793D02*
X11942231Y-16262317D01*
X11942231Y-16262317D02*
X11961279Y-16271841D01*
X11961279Y-16271841D02*
X11999374Y-16271841D01*
X11999374Y-16271841D02*
X12018422Y-16262317D01*
X12018422Y-16262317D02*
X12027945Y-16252793D01*
X12027945Y-16252793D02*
X12037469Y-16233746D01*
X12037469Y-16233746D02*
X12037469Y-16195650D01*
X12037469Y-16195650D02*
X12027945Y-16176603D01*
X12027945Y-16176603D02*
X12018422Y-16167079D01*
X12018422Y-16167079D02*
X11999374Y-16157555D01*
X12227945Y-16271841D02*
X12113660Y-16271841D01*
X12170803Y-16271841D02*
X12170803Y-16071841D01*
X12170803Y-16071841D02*
X12151755Y-16100412D01*
X12151755Y-16100412D02*
X12132707Y-16119460D01*
X12132707Y-16119460D02*
X12113660Y-16128984D01*
X12304136Y-16071841D02*
X12304136Y-16109936D01*
X12380326Y-16071841D02*
X12380326Y-16109936D01*
X12675565Y-16348031D02*
X12666041Y-16338507D01*
X12666041Y-16338507D02*
X12646993Y-16309936D01*
X12646993Y-16309936D02*
X12637469Y-16290888D01*
X12637469Y-16290888D02*
X12627946Y-16262317D01*
X12627946Y-16262317D02*
X12618422Y-16214698D01*
X12618422Y-16214698D02*
X12618422Y-16176603D01*
X12618422Y-16176603D02*
X12627946Y-16128984D01*
X12627946Y-16128984D02*
X12637469Y-16100412D01*
X12637469Y-16100412D02*
X12646993Y-16081365D01*
X12646993Y-16081365D02*
X12666041Y-16052793D01*
X12666041Y-16052793D02*
X12675565Y-16043269D01*
X12837469Y-16071841D02*
X12799374Y-16071841D01*
X12799374Y-16071841D02*
X12780326Y-16081365D01*
X12780326Y-16081365D02*
X12770803Y-16090888D01*
X12770803Y-16090888D02*
X12751755Y-16119460D01*
X12751755Y-16119460D02*
X12742231Y-16157555D01*
X12742231Y-16157555D02*
X12742231Y-16233746D01*
X12742231Y-16233746D02*
X12751755Y-16252793D01*
X12751755Y-16252793D02*
X12761279Y-16262317D01*
X12761279Y-16262317D02*
X12780326Y-16271841D01*
X12780326Y-16271841D02*
X12818422Y-16271841D01*
X12818422Y-16271841D02*
X12837469Y-16262317D01*
X12837469Y-16262317D02*
X12846993Y-16252793D01*
X12846993Y-16252793D02*
X12856517Y-16233746D01*
X12856517Y-16233746D02*
X12856517Y-16186127D01*
X12856517Y-16186127D02*
X12846993Y-16167079D01*
X12846993Y-16167079D02*
X12837469Y-16157555D01*
X12837469Y-16157555D02*
X12818422Y-16148031D01*
X12818422Y-16148031D02*
X12780326Y-16148031D01*
X12780326Y-16148031D02*
X12761279Y-16157555D01*
X12761279Y-16157555D02*
X12751755Y-16167079D01*
X12751755Y-16167079D02*
X12742231Y-16186127D01*
X13027946Y-16071841D02*
X12989850Y-16071841D01*
X12989850Y-16071841D02*
X12970803Y-16081365D01*
X12970803Y-16081365D02*
X12961279Y-16090888D01*
X12961279Y-16090888D02*
X12942231Y-16119460D01*
X12942231Y-16119460D02*
X12932707Y-16157555D01*
X12932707Y-16157555D02*
X12932707Y-16233746D01*
X12932707Y-16233746D02*
X12942231Y-16252793D01*
X12942231Y-16252793D02*
X12951755Y-16262317D01*
X12951755Y-16262317D02*
X12970803Y-16271841D01*
X12970803Y-16271841D02*
X13008898Y-16271841D01*
X13008898Y-16271841D02*
X13027946Y-16262317D01*
X13027946Y-16262317D02*
X13037469Y-16252793D01*
X13037469Y-16252793D02*
X13046993Y-16233746D01*
X13046993Y-16233746D02*
X13046993Y-16186127D01*
X13046993Y-16186127D02*
X13037469Y-16167079D01*
X13037469Y-16167079D02*
X13027946Y-16157555D01*
X13027946Y-16157555D02*
X13008898Y-16148031D01*
X13008898Y-16148031D02*
X12970803Y-16148031D01*
X12970803Y-16148031D02*
X12951755Y-16157555D01*
X12951755Y-16157555D02*
X12942231Y-16167079D01*
X12942231Y-16167079D02*
X12932707Y-16186127D01*
X13285088Y-16271841D02*
X13285088Y-16071841D01*
X13370803Y-16271841D02*
X13370803Y-16167079D01*
X13370803Y-16167079D02*
X13361279Y-16148031D01*
X13361279Y-16148031D02*
X13342231Y-16138507D01*
X13342231Y-16138507D02*
X13313660Y-16138507D01*
X13313660Y-16138507D02*
X13294612Y-16148031D01*
X13294612Y-16148031D02*
X13285088Y-16157555D01*
X13494612Y-16271841D02*
X13475565Y-16262317D01*
X13475565Y-16262317D02*
X13466041Y-16252793D01*
X13466041Y-16252793D02*
X13456517Y-16233746D01*
X13456517Y-16233746D02*
X13456517Y-16176603D01*
X13456517Y-16176603D02*
X13466041Y-16157555D01*
X13466041Y-16157555D02*
X13475565Y-16148031D01*
X13475565Y-16148031D02*
X13494612Y-16138507D01*
X13494612Y-16138507D02*
X13523184Y-16138507D01*
X13523184Y-16138507D02*
X13542231Y-16148031D01*
X13542231Y-16148031D02*
X13551755Y-16157555D01*
X13551755Y-16157555D02*
X13561279Y-16176603D01*
X13561279Y-16176603D02*
X13561279Y-16233746D01*
X13561279Y-16233746D02*
X13551755Y-16252793D01*
X13551755Y-16252793D02*
X13542231Y-16262317D01*
X13542231Y-16262317D02*
X13523184Y-16271841D01*
X13523184Y-16271841D02*
X13494612Y-16271841D01*
X13675565Y-16271841D02*
X13656517Y-16262317D01*
X13656517Y-16262317D02*
X13646993Y-16243269D01*
X13646993Y-16243269D02*
X13646993Y-16071841D01*
X13827946Y-16262317D02*
X13808898Y-16271841D01*
X13808898Y-16271841D02*
X13770803Y-16271841D01*
X13770803Y-16271841D02*
X13751755Y-16262317D01*
X13751755Y-16262317D02*
X13742231Y-16243269D01*
X13742231Y-16243269D02*
X13742231Y-16167079D01*
X13742231Y-16167079D02*
X13751755Y-16148031D01*
X13751755Y-16148031D02*
X13770803Y-16138507D01*
X13770803Y-16138507D02*
X13808898Y-16138507D01*
X13808898Y-16138507D02*
X13827946Y-16148031D01*
X13827946Y-16148031D02*
X13837469Y-16167079D01*
X13837469Y-16167079D02*
X13837469Y-16186127D01*
X13837469Y-16186127D02*
X13742231Y-16205174D01*
X13913660Y-16262317D02*
X13932708Y-16271841D01*
X13932708Y-16271841D02*
X13970803Y-16271841D01*
X13970803Y-16271841D02*
X13989850Y-16262317D01*
X13989850Y-16262317D02*
X13999374Y-16243269D01*
X13999374Y-16243269D02*
X13999374Y-16233746D01*
X13999374Y-16233746D02*
X13989850Y-16214698D01*
X13989850Y-16214698D02*
X13970803Y-16205174D01*
X13970803Y-16205174D02*
X13942231Y-16205174D01*
X13942231Y-16205174D02*
X13923184Y-16195650D01*
X13923184Y-16195650D02*
X13913660Y-16176603D01*
X13913660Y-16176603D02*
X13913660Y-16167079D01*
X13913660Y-16167079D02*
X13923184Y-16148031D01*
X13923184Y-16148031D02*
X13942231Y-16138507D01*
X13942231Y-16138507D02*
X13970803Y-16138507D01*
X13970803Y-16138507D02*
X13989850Y-16148031D01*
X14066041Y-16348031D02*
X14075565Y-16338507D01*
X14075565Y-16338507D02*
X14094612Y-16309936D01*
X14094612Y-16309936D02*
X14104136Y-16290888D01*
X14104136Y-16290888D02*
X14113660Y-16262317D01*
X14113660Y-16262317D02*
X14123184Y-16214698D01*
X14123184Y-16214698D02*
X14123184Y-16176603D01*
X14123184Y-16176603D02*
X14113660Y-16128984D01*
X14113660Y-16128984D02*
X14104136Y-16100412D01*
X14104136Y-16100412D02*
X14094612Y-16081365D01*
X14094612Y-16081365D02*
X14075565Y-16052793D01*
X14075565Y-16052793D02*
X14066041Y-16043269D01*
X14427946Y-16348031D02*
X14418422Y-16338507D01*
X14418422Y-16338507D02*
X14399374Y-16309936D01*
X14399374Y-16309936D02*
X14389850Y-16290888D01*
X14389850Y-16290888D02*
X14380327Y-16262317D01*
X14380327Y-16262317D02*
X14370803Y-16214698D01*
X14370803Y-16214698D02*
X14370803Y-16176603D01*
X14370803Y-16176603D02*
X14380327Y-16128984D01*
X14380327Y-16128984D02*
X14389850Y-16100412D01*
X14389850Y-16100412D02*
X14399374Y-16081365D01*
X14399374Y-16081365D02*
X14418422Y-16052793D01*
X14418422Y-16052793D02*
X14427946Y-16043269D01*
X14504136Y-16138507D02*
X14504136Y-16271841D01*
X14504136Y-16157555D02*
X14513660Y-16148031D01*
X14513660Y-16148031D02*
X14532708Y-16138507D01*
X14532708Y-16138507D02*
X14561279Y-16138507D01*
X14561279Y-16138507D02*
X14580327Y-16148031D01*
X14580327Y-16148031D02*
X14589850Y-16167079D01*
X14589850Y-16167079D02*
X14589850Y-16271841D01*
X14713660Y-16271841D02*
X14694612Y-16262317D01*
X14694612Y-16262317D02*
X14685089Y-16252793D01*
X14685089Y-16252793D02*
X14675565Y-16233746D01*
X14675565Y-16233746D02*
X14675565Y-16176603D01*
X14675565Y-16176603D02*
X14685089Y-16157555D01*
X14685089Y-16157555D02*
X14694612Y-16148031D01*
X14694612Y-16148031D02*
X14713660Y-16138507D01*
X14713660Y-16138507D02*
X14742231Y-16138507D01*
X14742231Y-16138507D02*
X14761279Y-16148031D01*
X14761279Y-16148031D02*
X14770803Y-16157555D01*
X14770803Y-16157555D02*
X14780327Y-16176603D01*
X14780327Y-16176603D02*
X14780327Y-16233746D01*
X14780327Y-16233746D02*
X14770803Y-16252793D01*
X14770803Y-16252793D02*
X14761279Y-16262317D01*
X14761279Y-16262317D02*
X14742231Y-16271841D01*
X14742231Y-16271841D02*
X14713660Y-16271841D01*
X14837470Y-16138507D02*
X14913660Y-16138507D01*
X14866041Y-16071841D02*
X14866041Y-16243269D01*
X14866041Y-16243269D02*
X14875565Y-16262317D01*
X14875565Y-16262317D02*
X14894612Y-16271841D01*
X14894612Y-16271841D02*
X14913660Y-16271841D01*
X15132708Y-16138507D02*
X15132708Y-16338507D01*
X15132708Y-16148031D02*
X15151755Y-16138507D01*
X15151755Y-16138507D02*
X15189851Y-16138507D01*
X15189851Y-16138507D02*
X15208898Y-16148031D01*
X15208898Y-16148031D02*
X15218422Y-16157555D01*
X15218422Y-16157555D02*
X15227946Y-16176603D01*
X15227946Y-16176603D02*
X15227946Y-16233746D01*
X15227946Y-16233746D02*
X15218422Y-16252793D01*
X15218422Y-16252793D02*
X15208898Y-16262317D01*
X15208898Y-16262317D02*
X15189851Y-16271841D01*
X15189851Y-16271841D02*
X15151755Y-16271841D01*
X15151755Y-16271841D02*
X15132708Y-16262317D01*
X15342231Y-16271841D02*
X15323184Y-16262317D01*
X15323184Y-16262317D02*
X15313660Y-16243269D01*
X15313660Y-16243269D02*
X15313660Y-16071841D01*
X15504136Y-16271841D02*
X15504136Y-16167079D01*
X15504136Y-16167079D02*
X15494612Y-16148031D01*
X15494612Y-16148031D02*
X15475565Y-16138507D01*
X15475565Y-16138507D02*
X15437470Y-16138507D01*
X15437470Y-16138507D02*
X15418422Y-16148031D01*
X15504136Y-16262317D02*
X15485089Y-16271841D01*
X15485089Y-16271841D02*
X15437470Y-16271841D01*
X15437470Y-16271841D02*
X15418422Y-16262317D01*
X15418422Y-16262317D02*
X15408898Y-16243269D01*
X15408898Y-16243269D02*
X15408898Y-16224222D01*
X15408898Y-16224222D02*
X15418422Y-16205174D01*
X15418422Y-16205174D02*
X15437470Y-16195650D01*
X15437470Y-16195650D02*
X15485089Y-16195650D01*
X15485089Y-16195650D02*
X15504136Y-16186127D01*
X15570803Y-16138507D02*
X15646993Y-16138507D01*
X15599374Y-16071841D02*
X15599374Y-16243269D01*
X15599374Y-16243269D02*
X15608898Y-16262317D01*
X15608898Y-16262317D02*
X15627946Y-16271841D01*
X15627946Y-16271841D02*
X15646993Y-16271841D01*
X15789851Y-16262317D02*
X15770803Y-16271841D01*
X15770803Y-16271841D02*
X15732708Y-16271841D01*
X15732708Y-16271841D02*
X15713660Y-16262317D01*
X15713660Y-16262317D02*
X15704136Y-16243269D01*
X15704136Y-16243269D02*
X15704136Y-16167079D01*
X15704136Y-16167079D02*
X15713660Y-16148031D01*
X15713660Y-16148031D02*
X15732708Y-16138507D01*
X15732708Y-16138507D02*
X15770803Y-16138507D01*
X15770803Y-16138507D02*
X15789851Y-16148031D01*
X15789851Y-16148031D02*
X15799374Y-16167079D01*
X15799374Y-16167079D02*
X15799374Y-16186127D01*
X15799374Y-16186127D02*
X15704136Y-16205174D01*
X15970803Y-16271841D02*
X15970803Y-16071841D01*
X15970803Y-16262317D02*
X15951755Y-16271841D01*
X15951755Y-16271841D02*
X15913660Y-16271841D01*
X15913660Y-16271841D02*
X15894612Y-16262317D01*
X15894612Y-16262317D02*
X15885089Y-16252793D01*
X15885089Y-16252793D02*
X15875565Y-16233746D01*
X15875565Y-16233746D02*
X15875565Y-16176603D01*
X15875565Y-16176603D02*
X15885089Y-16157555D01*
X15885089Y-16157555D02*
X15894612Y-16148031D01*
X15894612Y-16148031D02*
X15913660Y-16138507D01*
X15913660Y-16138507D02*
X15951755Y-16138507D01*
X15951755Y-16138507D02*
X15970803Y-16148031D01*
X16046993Y-16348031D02*
X16056517Y-16338507D01*
X16056517Y-16338507D02*
X16075565Y-16309936D01*
X16075565Y-16309936D02*
X16085089Y-16290888D01*
X16085089Y-16290888D02*
X16094612Y-16262317D01*
X16094612Y-16262317D02*
X16104136Y-16214698D01*
X16104136Y-16214698D02*
X16104136Y-16176603D01*
X16104136Y-16176603D02*
X16094612Y-16128984D01*
X16094612Y-16128984D02*
X16085089Y-16100412D01*
X16085089Y-16100412D02*
X16075565Y-16081365D01*
X16075565Y-16081365D02*
X16056517Y-16052793D01*
X16056517Y-16052793D02*
X16046993Y-16043269D01*
X9000502Y-16600357D02*
X9100502Y-16500357D01*
X9000502Y-16400357D01*
X8900502Y-16500357D01*
X9000502Y-16600357D01*
X9446993Y-16458507D02*
X9446993Y-16591841D01*
X9399374Y-16382317D02*
X9351755Y-16525174D01*
X9351755Y-16525174D02*
X9475564Y-16525174D01*
X9551755Y-16572793D02*
X9561279Y-16582317D01*
X9561279Y-16582317D02*
X9551755Y-16591841D01*
X9551755Y-16591841D02*
X9542231Y-16582317D01*
X9542231Y-16582317D02*
X9551755Y-16572793D01*
X9551755Y-16572793D02*
X9551755Y-16591841D01*
X9627945Y-16391841D02*
X9751755Y-16391841D01*
X9751755Y-16391841D02*
X9685088Y-16468031D01*
X9685088Y-16468031D02*
X9713660Y-16468031D01*
X9713660Y-16468031D02*
X9732707Y-16477555D01*
X9732707Y-16477555D02*
X9742231Y-16487079D01*
X9742231Y-16487079D02*
X9751755Y-16506127D01*
X9751755Y-16506127D02*
X9751755Y-16553746D01*
X9751755Y-16553746D02*
X9742231Y-16572793D01*
X9742231Y-16572793D02*
X9732707Y-16582317D01*
X9732707Y-16582317D02*
X9713660Y-16591841D01*
X9713660Y-16591841D02*
X9656517Y-16591841D01*
X9656517Y-16591841D02*
X9637469Y-16582317D01*
X9637469Y-16582317D02*
X9627945Y-16572793D01*
X9875564Y-16391841D02*
X9894612Y-16391841D01*
X9894612Y-16391841D02*
X9913660Y-16401365D01*
X9913660Y-16401365D02*
X9923183Y-16410888D01*
X9923183Y-16410888D02*
X9932707Y-16429936D01*
X9932707Y-16429936D02*
X9942231Y-16468031D01*
X9942231Y-16468031D02*
X9942231Y-16515650D01*
X9942231Y-16515650D02*
X9932707Y-16553746D01*
X9932707Y-16553746D02*
X9923183Y-16572793D01*
X9923183Y-16572793D02*
X9913660Y-16582317D01*
X9913660Y-16582317D02*
X9894612Y-16591841D01*
X9894612Y-16591841D02*
X9875564Y-16591841D01*
X9875564Y-16591841D02*
X9856517Y-16582317D01*
X9856517Y-16582317D02*
X9846993Y-16572793D01*
X9846993Y-16572793D02*
X9837469Y-16553746D01*
X9837469Y-16553746D02*
X9827945Y-16515650D01*
X9827945Y-16515650D02*
X9827945Y-16468031D01*
X9827945Y-16468031D02*
X9837469Y-16429936D01*
X9837469Y-16429936D02*
X9846993Y-16410888D01*
X9846993Y-16410888D02*
X9856517Y-16401365D01*
X9856517Y-16401365D02*
X9875564Y-16391841D01*
X10066041Y-16391841D02*
X10085088Y-16391841D01*
X10085088Y-16391841D02*
X10104136Y-16401365D01*
X10104136Y-16401365D02*
X10113660Y-16410888D01*
X10113660Y-16410888D02*
X10123183Y-16429936D01*
X10123183Y-16429936D02*
X10132707Y-16468031D01*
X10132707Y-16468031D02*
X10132707Y-16515650D01*
X10132707Y-16515650D02*
X10123183Y-16553746D01*
X10123183Y-16553746D02*
X10113660Y-16572793D01*
X10113660Y-16572793D02*
X10104136Y-16582317D01*
X10104136Y-16582317D02*
X10085088Y-16591841D01*
X10085088Y-16591841D02*
X10066041Y-16591841D01*
X10066041Y-16591841D02*
X10046993Y-16582317D01*
X10046993Y-16582317D02*
X10037469Y-16572793D01*
X10037469Y-16572793D02*
X10027945Y-16553746D01*
X10027945Y-16553746D02*
X10018422Y-16515650D01*
X10018422Y-16515650D02*
X10018422Y-16468031D01*
X10018422Y-16468031D02*
X10027945Y-16429936D01*
X10027945Y-16429936D02*
X10037469Y-16410888D01*
X10037469Y-16410888D02*
X10046993Y-16401365D01*
X10046993Y-16401365D02*
X10066041Y-16391841D01*
X10218422Y-16591841D02*
X10218422Y-16458507D01*
X10218422Y-16477555D02*
X10227945Y-16468031D01*
X10227945Y-16468031D02*
X10246993Y-16458507D01*
X10246993Y-16458507D02*
X10275564Y-16458507D01*
X10275564Y-16458507D02*
X10294612Y-16468031D01*
X10294612Y-16468031D02*
X10304136Y-16487079D01*
X10304136Y-16487079D02*
X10304136Y-16591841D01*
X10304136Y-16487079D02*
X10313660Y-16468031D01*
X10313660Y-16468031D02*
X10332707Y-16458507D01*
X10332707Y-16458507D02*
X10361279Y-16458507D01*
X10361279Y-16458507D02*
X10380326Y-16468031D01*
X10380326Y-16468031D02*
X10389850Y-16487079D01*
X10389850Y-16487079D02*
X10389850Y-16591841D01*
X10485088Y-16591841D02*
X10485088Y-16458507D01*
X10485088Y-16477555D02*
X10494612Y-16468031D01*
X10494612Y-16468031D02*
X10513660Y-16458507D01*
X10513660Y-16458507D02*
X10542231Y-16458507D01*
X10542231Y-16458507D02*
X10561279Y-16468031D01*
X10561279Y-16468031D02*
X10570803Y-16487079D01*
X10570803Y-16487079D02*
X10570803Y-16591841D01*
X10570803Y-16487079D02*
X10580326Y-16468031D01*
X10580326Y-16468031D02*
X10599374Y-16458507D01*
X10599374Y-16458507D02*
X10627945Y-16458507D01*
X10627945Y-16458507D02*
X10646993Y-16468031D01*
X10646993Y-16468031D02*
X10656517Y-16487079D01*
X10656517Y-16487079D02*
X10656517Y-16591841D01*
X11046993Y-16382317D02*
X10875565Y-16639460D01*
X11304136Y-16391841D02*
X11323184Y-16391841D01*
X11323184Y-16391841D02*
X11342231Y-16401365D01*
X11342231Y-16401365D02*
X11351755Y-16410888D01*
X11351755Y-16410888D02*
X11361279Y-16429936D01*
X11361279Y-16429936D02*
X11370803Y-16468031D01*
X11370803Y-16468031D02*
X11370803Y-16515650D01*
X11370803Y-16515650D02*
X11361279Y-16553746D01*
X11361279Y-16553746D02*
X11351755Y-16572793D01*
X11351755Y-16572793D02*
X11342231Y-16582317D01*
X11342231Y-16582317D02*
X11323184Y-16591841D01*
X11323184Y-16591841D02*
X11304136Y-16591841D01*
X11304136Y-16591841D02*
X11285088Y-16582317D01*
X11285088Y-16582317D02*
X11275564Y-16572793D01*
X11275564Y-16572793D02*
X11266041Y-16553746D01*
X11266041Y-16553746D02*
X11256517Y-16515650D01*
X11256517Y-16515650D02*
X11256517Y-16468031D01*
X11256517Y-16468031D02*
X11266041Y-16429936D01*
X11266041Y-16429936D02*
X11275564Y-16410888D01*
X11275564Y-16410888D02*
X11285088Y-16401365D01*
X11285088Y-16401365D02*
X11304136Y-16391841D01*
X11456517Y-16572793D02*
X11466041Y-16582317D01*
X11466041Y-16582317D02*
X11456517Y-16591841D01*
X11456517Y-16591841D02*
X11446993Y-16582317D01*
X11446993Y-16582317D02*
X11456517Y-16572793D01*
X11456517Y-16572793D02*
X11456517Y-16591841D01*
X11656517Y-16591841D02*
X11542231Y-16591841D01*
X11599374Y-16591841D02*
X11599374Y-16391841D01*
X11599374Y-16391841D02*
X11580326Y-16420412D01*
X11580326Y-16420412D02*
X11561279Y-16439460D01*
X11561279Y-16439460D02*
X11542231Y-16448984D01*
X11827945Y-16391841D02*
X11789850Y-16391841D01*
X11789850Y-16391841D02*
X11770803Y-16401365D01*
X11770803Y-16401365D02*
X11761279Y-16410888D01*
X11761279Y-16410888D02*
X11742231Y-16439460D01*
X11742231Y-16439460D02*
X11732707Y-16477555D01*
X11732707Y-16477555D02*
X11732707Y-16553746D01*
X11732707Y-16553746D02*
X11742231Y-16572793D01*
X11742231Y-16572793D02*
X11751755Y-16582317D01*
X11751755Y-16582317D02*
X11770803Y-16591841D01*
X11770803Y-16591841D02*
X11808898Y-16591841D01*
X11808898Y-16591841D02*
X11827945Y-16582317D01*
X11827945Y-16582317D02*
X11837469Y-16572793D01*
X11837469Y-16572793D02*
X11846993Y-16553746D01*
X11846993Y-16553746D02*
X11846993Y-16506127D01*
X11846993Y-16506127D02*
X11837469Y-16487079D01*
X11837469Y-16487079D02*
X11827945Y-16477555D01*
X11827945Y-16477555D02*
X11808898Y-16468031D01*
X11808898Y-16468031D02*
X11770803Y-16468031D01*
X11770803Y-16468031D02*
X11751755Y-16477555D01*
X11751755Y-16477555D02*
X11742231Y-16487079D01*
X11742231Y-16487079D02*
X11732707Y-16506127D01*
X11942231Y-16591841D02*
X11980326Y-16591841D01*
X11980326Y-16591841D02*
X11999374Y-16582317D01*
X11999374Y-16582317D02*
X12008898Y-16572793D01*
X12008898Y-16572793D02*
X12027945Y-16544222D01*
X12027945Y-16544222D02*
X12037469Y-16506127D01*
X12037469Y-16506127D02*
X12037469Y-16429936D01*
X12037469Y-16429936D02*
X12027945Y-16410888D01*
X12027945Y-16410888D02*
X12018422Y-16401365D01*
X12018422Y-16401365D02*
X11999374Y-16391841D01*
X11999374Y-16391841D02*
X11961279Y-16391841D01*
X11961279Y-16391841D02*
X11942231Y-16401365D01*
X11942231Y-16401365D02*
X11932707Y-16410888D01*
X11932707Y-16410888D02*
X11923184Y-16429936D01*
X11923184Y-16429936D02*
X11923184Y-16477555D01*
X11923184Y-16477555D02*
X11932707Y-16496603D01*
X11932707Y-16496603D02*
X11942231Y-16506127D01*
X11942231Y-16506127D02*
X11961279Y-16515650D01*
X11961279Y-16515650D02*
X11999374Y-16515650D01*
X11999374Y-16515650D02*
X12018422Y-16506127D01*
X12018422Y-16506127D02*
X12027945Y-16496603D01*
X12027945Y-16496603D02*
X12037469Y-16477555D01*
X12104136Y-16391841D02*
X12227945Y-16391841D01*
X12227945Y-16391841D02*
X12161279Y-16468031D01*
X12161279Y-16468031D02*
X12189850Y-16468031D01*
X12189850Y-16468031D02*
X12208898Y-16477555D01*
X12208898Y-16477555D02*
X12218422Y-16487079D01*
X12218422Y-16487079D02*
X12227945Y-16506127D01*
X12227945Y-16506127D02*
X12227945Y-16553746D01*
X12227945Y-16553746D02*
X12218422Y-16572793D01*
X12218422Y-16572793D02*
X12208898Y-16582317D01*
X12208898Y-16582317D02*
X12189850Y-16591841D01*
X12189850Y-16591841D02*
X12132707Y-16591841D01*
X12132707Y-16591841D02*
X12113660Y-16582317D01*
X12113660Y-16582317D02*
X12104136Y-16572793D01*
X12304136Y-16391841D02*
X12304136Y-16429936D01*
X12380326Y-16391841D02*
X12380326Y-16429936D01*
X12675565Y-16668031D02*
X12666041Y-16658507D01*
X12666041Y-16658507D02*
X12646993Y-16629936D01*
X12646993Y-16629936D02*
X12637469Y-16610888D01*
X12637469Y-16610888D02*
X12627946Y-16582317D01*
X12627946Y-16582317D02*
X12618422Y-16534698D01*
X12618422Y-16534698D02*
X12618422Y-16496603D01*
X12618422Y-16496603D02*
X12627946Y-16448984D01*
X12627946Y-16448984D02*
X12637469Y-16420412D01*
X12637469Y-16420412D02*
X12646993Y-16401365D01*
X12646993Y-16401365D02*
X12666041Y-16372793D01*
X12666041Y-16372793D02*
X12675565Y-16363269D01*
X12846993Y-16391841D02*
X12751755Y-16391841D01*
X12751755Y-16391841D02*
X12742231Y-16487079D01*
X12742231Y-16487079D02*
X12751755Y-16477555D01*
X12751755Y-16477555D02*
X12770803Y-16468031D01*
X12770803Y-16468031D02*
X12818422Y-16468031D01*
X12818422Y-16468031D02*
X12837469Y-16477555D01*
X12837469Y-16477555D02*
X12846993Y-16487079D01*
X12846993Y-16487079D02*
X12856517Y-16506127D01*
X12856517Y-16506127D02*
X12856517Y-16553746D01*
X12856517Y-16553746D02*
X12846993Y-16572793D01*
X12846993Y-16572793D02*
X12837469Y-16582317D01*
X12837469Y-16582317D02*
X12818422Y-16591841D01*
X12818422Y-16591841D02*
X12770803Y-16591841D01*
X12770803Y-16591841D02*
X12751755Y-16582317D01*
X12751755Y-16582317D02*
X12742231Y-16572793D01*
X13094612Y-16591841D02*
X13094612Y-16391841D01*
X13180327Y-16591841D02*
X13180327Y-16487079D01*
X13180327Y-16487079D02*
X13170803Y-16468031D01*
X13170803Y-16468031D02*
X13151755Y-16458507D01*
X13151755Y-16458507D02*
X13123184Y-16458507D01*
X13123184Y-16458507D02*
X13104136Y-16468031D01*
X13104136Y-16468031D02*
X13094612Y-16477555D01*
X13304136Y-16591841D02*
X13285088Y-16582317D01*
X13285088Y-16582317D02*
X13275565Y-16572793D01*
X13275565Y-16572793D02*
X13266041Y-16553746D01*
X13266041Y-16553746D02*
X13266041Y-16496603D01*
X13266041Y-16496603D02*
X13275565Y-16477555D01*
X13275565Y-16477555D02*
X13285088Y-16468031D01*
X13285088Y-16468031D02*
X13304136Y-16458507D01*
X13304136Y-16458507D02*
X13332708Y-16458507D01*
X13332708Y-16458507D02*
X13351755Y-16468031D01*
X13351755Y-16468031D02*
X13361279Y-16477555D01*
X13361279Y-16477555D02*
X13370803Y-16496603D01*
X13370803Y-16496603D02*
X13370803Y-16553746D01*
X13370803Y-16553746D02*
X13361279Y-16572793D01*
X13361279Y-16572793D02*
X13351755Y-16582317D01*
X13351755Y-16582317D02*
X13332708Y-16591841D01*
X13332708Y-16591841D02*
X13304136Y-16591841D01*
X13485088Y-16591841D02*
X13466041Y-16582317D01*
X13466041Y-16582317D02*
X13456517Y-16563269D01*
X13456517Y-16563269D02*
X13456517Y-16391841D01*
X13637469Y-16582317D02*
X13618422Y-16591841D01*
X13618422Y-16591841D02*
X13580327Y-16591841D01*
X13580327Y-16591841D02*
X13561279Y-16582317D01*
X13561279Y-16582317D02*
X13551755Y-16563269D01*
X13551755Y-16563269D02*
X13551755Y-16487079D01*
X13551755Y-16487079D02*
X13561279Y-16468031D01*
X13561279Y-16468031D02*
X13580327Y-16458507D01*
X13580327Y-16458507D02*
X13618422Y-16458507D01*
X13618422Y-16458507D02*
X13637469Y-16468031D01*
X13637469Y-16468031D02*
X13646993Y-16487079D01*
X13646993Y-16487079D02*
X13646993Y-16506127D01*
X13646993Y-16506127D02*
X13551755Y-16525174D01*
X13723184Y-16582317D02*
X13742231Y-16591841D01*
X13742231Y-16591841D02*
X13780327Y-16591841D01*
X13780327Y-16591841D02*
X13799374Y-16582317D01*
X13799374Y-16582317D02*
X13808898Y-16563269D01*
X13808898Y-16563269D02*
X13808898Y-16553746D01*
X13808898Y-16553746D02*
X13799374Y-16534698D01*
X13799374Y-16534698D02*
X13780327Y-16525174D01*
X13780327Y-16525174D02*
X13751755Y-16525174D01*
X13751755Y-16525174D02*
X13732708Y-16515650D01*
X13732708Y-16515650D02*
X13723184Y-16496603D01*
X13723184Y-16496603D02*
X13723184Y-16487079D01*
X13723184Y-16487079D02*
X13732708Y-16468031D01*
X13732708Y-16468031D02*
X13751755Y-16458507D01*
X13751755Y-16458507D02*
X13780327Y-16458507D01*
X13780327Y-16458507D02*
X13799374Y-16468031D01*
X13875565Y-16668031D02*
X13885089Y-16658507D01*
X13885089Y-16658507D02*
X13904136Y-16629936D01*
X13904136Y-16629936D02*
X13913660Y-16610888D01*
X13913660Y-16610888D02*
X13923184Y-16582317D01*
X13923184Y-16582317D02*
X13932708Y-16534698D01*
X13932708Y-16534698D02*
X13932708Y-16496603D01*
X13932708Y-16496603D02*
X13923184Y-16448984D01*
X13923184Y-16448984D02*
X13913660Y-16420412D01*
X13913660Y-16420412D02*
X13904136Y-16401365D01*
X13904136Y-16401365D02*
X13885089Y-16372793D01*
X13885089Y-16372793D02*
X13875565Y-16363269D01*
X14237470Y-16668031D02*
X14227946Y-16658507D01*
X14227946Y-16658507D02*
X14208898Y-16629936D01*
X14208898Y-16629936D02*
X14199374Y-16610888D01*
X14199374Y-16610888D02*
X14189850Y-16582317D01*
X14189850Y-16582317D02*
X14180327Y-16534698D01*
X14180327Y-16534698D02*
X14180327Y-16496603D01*
X14180327Y-16496603D02*
X14189850Y-16448984D01*
X14189850Y-16448984D02*
X14199374Y-16420412D01*
X14199374Y-16420412D02*
X14208898Y-16401365D01*
X14208898Y-16401365D02*
X14227946Y-16372793D01*
X14227946Y-16372793D02*
X14237470Y-16363269D01*
X14313660Y-16458507D02*
X14313660Y-16591841D01*
X14313660Y-16477555D02*
X14323184Y-16468031D01*
X14323184Y-16468031D02*
X14342231Y-16458507D01*
X14342231Y-16458507D02*
X14370803Y-16458507D01*
X14370803Y-16458507D02*
X14389850Y-16468031D01*
X14389850Y-16468031D02*
X14399374Y-16487079D01*
X14399374Y-16487079D02*
X14399374Y-16591841D01*
X14523184Y-16591841D02*
X14504136Y-16582317D01*
X14504136Y-16582317D02*
X14494612Y-16572793D01*
X14494612Y-16572793D02*
X14485089Y-16553746D01*
X14485089Y-16553746D02*
X14485089Y-16496603D01*
X14485089Y-16496603D02*
X14494612Y-16477555D01*
X14494612Y-16477555D02*
X14504136Y-16468031D01*
X14504136Y-16468031D02*
X14523184Y-16458507D01*
X14523184Y-16458507D02*
X14551755Y-16458507D01*
X14551755Y-16458507D02*
X14570803Y-16468031D01*
X14570803Y-16468031D02*
X14580327Y-16477555D01*
X14580327Y-16477555D02*
X14589850Y-16496603D01*
X14589850Y-16496603D02*
X14589850Y-16553746D01*
X14589850Y-16553746D02*
X14580327Y-16572793D01*
X14580327Y-16572793D02*
X14570803Y-16582317D01*
X14570803Y-16582317D02*
X14551755Y-16591841D01*
X14551755Y-16591841D02*
X14523184Y-16591841D01*
X14646993Y-16458507D02*
X14723184Y-16458507D01*
X14675565Y-16391841D02*
X14675565Y-16563269D01*
X14675565Y-16563269D02*
X14685089Y-16582317D01*
X14685089Y-16582317D02*
X14704136Y-16591841D01*
X14704136Y-16591841D02*
X14723184Y-16591841D01*
X14942231Y-16458507D02*
X14942231Y-16658507D01*
X14942231Y-16468031D02*
X14961279Y-16458507D01*
X14961279Y-16458507D02*
X14999374Y-16458507D01*
X14999374Y-16458507D02*
X15018422Y-16468031D01*
X15018422Y-16468031D02*
X15027946Y-16477555D01*
X15027946Y-16477555D02*
X15037470Y-16496603D01*
X15037470Y-16496603D02*
X15037470Y-16553746D01*
X15037470Y-16553746D02*
X15027946Y-16572793D01*
X15027946Y-16572793D02*
X15018422Y-16582317D01*
X15018422Y-16582317D02*
X14999374Y-16591841D01*
X14999374Y-16591841D02*
X14961279Y-16591841D01*
X14961279Y-16591841D02*
X14942231Y-16582317D01*
X15151755Y-16591841D02*
X15132708Y-16582317D01*
X15132708Y-16582317D02*
X15123184Y-16563269D01*
X15123184Y-16563269D02*
X15123184Y-16391841D01*
X15313660Y-16591841D02*
X15313660Y-16487079D01*
X15313660Y-16487079D02*
X15304136Y-16468031D01*
X15304136Y-16468031D02*
X15285089Y-16458507D01*
X15285089Y-16458507D02*
X15246993Y-16458507D01*
X15246993Y-16458507D02*
X15227946Y-16468031D01*
X15313660Y-16582317D02*
X15294612Y-16591841D01*
X15294612Y-16591841D02*
X15246993Y-16591841D01*
X15246993Y-16591841D02*
X15227946Y-16582317D01*
X15227946Y-16582317D02*
X15218422Y-16563269D01*
X15218422Y-16563269D02*
X15218422Y-16544222D01*
X15218422Y-16544222D02*
X15227946Y-16525174D01*
X15227946Y-16525174D02*
X15246993Y-16515650D01*
X15246993Y-16515650D02*
X15294612Y-16515650D01*
X15294612Y-16515650D02*
X15313660Y-16506127D01*
X15380327Y-16458507D02*
X15456517Y-16458507D01*
X15408898Y-16391841D02*
X15408898Y-16563269D01*
X15408898Y-16563269D02*
X15418422Y-16582317D01*
X15418422Y-16582317D02*
X15437470Y-16591841D01*
X15437470Y-16591841D02*
X15456517Y-16591841D01*
X15599374Y-16582317D02*
X15580327Y-16591841D01*
X15580327Y-16591841D02*
X15542231Y-16591841D01*
X15542231Y-16591841D02*
X15523184Y-16582317D01*
X15523184Y-16582317D02*
X15513660Y-16563269D01*
X15513660Y-16563269D02*
X15513660Y-16487079D01*
X15513660Y-16487079D02*
X15523184Y-16468031D01*
X15523184Y-16468031D02*
X15542231Y-16458507D01*
X15542231Y-16458507D02*
X15580327Y-16458507D01*
X15580327Y-16458507D02*
X15599374Y-16468031D01*
X15599374Y-16468031D02*
X15608898Y-16487079D01*
X15608898Y-16487079D02*
X15608898Y-16506127D01*
X15608898Y-16506127D02*
X15513660Y-16525174D01*
X15780327Y-16591841D02*
X15780327Y-16391841D01*
X15780327Y-16582317D02*
X15761279Y-16591841D01*
X15761279Y-16591841D02*
X15723184Y-16591841D01*
X15723184Y-16591841D02*
X15704136Y-16582317D01*
X15704136Y-16582317D02*
X15694612Y-16572793D01*
X15694612Y-16572793D02*
X15685089Y-16553746D01*
X15685089Y-16553746D02*
X15685089Y-16496603D01*
X15685089Y-16496603D02*
X15694612Y-16477555D01*
X15694612Y-16477555D02*
X15704136Y-16468031D01*
X15704136Y-16468031D02*
X15723184Y-16458507D01*
X15723184Y-16458507D02*
X15761279Y-16458507D01*
X15761279Y-16458507D02*
X15780327Y-16468031D01*
X15856517Y-16668031D02*
X15866041Y-16658507D01*
X15866041Y-16658507D02*
X15885089Y-16629936D01*
X15885089Y-16629936D02*
X15894612Y-16610888D01*
X15894612Y-16610888D02*
X15904136Y-16582317D01*
X15904136Y-16582317D02*
X15913660Y-16534698D01*
X15913660Y-16534698D02*
X15913660Y-16496603D01*
X15913660Y-16496603D02*
X15904136Y-16448984D01*
X15904136Y-16448984D02*
X15894612Y-16420412D01*
X15894612Y-16420412D02*
X15885089Y-16401365D01*
X15885089Y-16401365D02*
X15866041Y-16372793D01*
X15866041Y-16372793D02*
X15856517Y-16363269D01*
X8900502Y-16720357D02*
X9100502Y-16920357D01*
X9100502Y-16720357D02*
X8900502Y-16920357D01*
X9100502Y-16820357D02*
G75*
G02*
X8900502Y-16820357I-100000J0D01*
G01*
X8900502Y-16820357D02*
G75*
G02*
X9100502Y-16820357I100000J0D01*
G01*
X9456517Y-16711841D02*
X9361279Y-16711841D01*
X9361279Y-16711841D02*
X9351755Y-16807079D01*
X9351755Y-16807079D02*
X9361279Y-16797555D01*
X9361279Y-16797555D02*
X9380326Y-16788031D01*
X9380326Y-16788031D02*
X9427945Y-16788031D01*
X9427945Y-16788031D02*
X9446993Y-16797555D01*
X9446993Y-16797555D02*
X9456517Y-16807079D01*
X9456517Y-16807079D02*
X9466041Y-16826127D01*
X9466041Y-16826127D02*
X9466041Y-16873746D01*
X9466041Y-16873746D02*
X9456517Y-16892793D01*
X9456517Y-16892793D02*
X9446993Y-16902317D01*
X9446993Y-16902317D02*
X9427945Y-16911841D01*
X9427945Y-16911841D02*
X9380326Y-16911841D01*
X9380326Y-16911841D02*
X9361279Y-16902317D01*
X9361279Y-16902317D02*
X9351755Y-16892793D01*
X9551755Y-16892793D02*
X9561279Y-16902317D01*
X9561279Y-16902317D02*
X9551755Y-16911841D01*
X9551755Y-16911841D02*
X9542231Y-16902317D01*
X9542231Y-16902317D02*
X9551755Y-16892793D01*
X9551755Y-16892793D02*
X9551755Y-16911841D01*
X9685088Y-16711841D02*
X9704136Y-16711841D01*
X9704136Y-16711841D02*
X9723183Y-16721365D01*
X9723183Y-16721365D02*
X9732707Y-16730888D01*
X9732707Y-16730888D02*
X9742231Y-16749936D01*
X9742231Y-16749936D02*
X9751755Y-16788031D01*
X9751755Y-16788031D02*
X9751755Y-16835650D01*
X9751755Y-16835650D02*
X9742231Y-16873746D01*
X9742231Y-16873746D02*
X9732707Y-16892793D01*
X9732707Y-16892793D02*
X9723183Y-16902317D01*
X9723183Y-16902317D02*
X9704136Y-16911841D01*
X9704136Y-16911841D02*
X9685088Y-16911841D01*
X9685088Y-16911841D02*
X9666041Y-16902317D01*
X9666041Y-16902317D02*
X9656517Y-16892793D01*
X9656517Y-16892793D02*
X9646993Y-16873746D01*
X9646993Y-16873746D02*
X9637469Y-16835650D01*
X9637469Y-16835650D02*
X9637469Y-16788031D01*
X9637469Y-16788031D02*
X9646993Y-16749936D01*
X9646993Y-16749936D02*
X9656517Y-16730888D01*
X9656517Y-16730888D02*
X9666041Y-16721365D01*
X9666041Y-16721365D02*
X9685088Y-16711841D01*
X9875564Y-16711841D02*
X9894612Y-16711841D01*
X9894612Y-16711841D02*
X9913660Y-16721365D01*
X9913660Y-16721365D02*
X9923183Y-16730888D01*
X9923183Y-16730888D02*
X9932707Y-16749936D01*
X9932707Y-16749936D02*
X9942231Y-16788031D01*
X9942231Y-16788031D02*
X9942231Y-16835650D01*
X9942231Y-16835650D02*
X9932707Y-16873746D01*
X9932707Y-16873746D02*
X9923183Y-16892793D01*
X9923183Y-16892793D02*
X9913660Y-16902317D01*
X9913660Y-16902317D02*
X9894612Y-16911841D01*
X9894612Y-16911841D02*
X9875564Y-16911841D01*
X9875564Y-16911841D02*
X9856517Y-16902317D01*
X9856517Y-16902317D02*
X9846993Y-16892793D01*
X9846993Y-16892793D02*
X9837469Y-16873746D01*
X9837469Y-16873746D02*
X9827945Y-16835650D01*
X9827945Y-16835650D02*
X9827945Y-16788031D01*
X9827945Y-16788031D02*
X9837469Y-16749936D01*
X9837469Y-16749936D02*
X9846993Y-16730888D01*
X9846993Y-16730888D02*
X9856517Y-16721365D01*
X9856517Y-16721365D02*
X9875564Y-16711841D01*
X10066041Y-16711841D02*
X10085088Y-16711841D01*
X10085088Y-16711841D02*
X10104136Y-16721365D01*
X10104136Y-16721365D02*
X10113660Y-16730888D01*
X10113660Y-16730888D02*
X10123183Y-16749936D01*
X10123183Y-16749936D02*
X10132707Y-16788031D01*
X10132707Y-16788031D02*
X10132707Y-16835650D01*
X10132707Y-16835650D02*
X10123183Y-16873746D01*
X10123183Y-16873746D02*
X10113660Y-16892793D01*
X10113660Y-16892793D02*
X10104136Y-16902317D01*
X10104136Y-16902317D02*
X10085088Y-16911841D01*
X10085088Y-16911841D02*
X10066041Y-16911841D01*
X10066041Y-16911841D02*
X10046993Y-16902317D01*
X10046993Y-16902317D02*
X10037469Y-16892793D01*
X10037469Y-16892793D02*
X10027945Y-16873746D01*
X10027945Y-16873746D02*
X10018422Y-16835650D01*
X10018422Y-16835650D02*
X10018422Y-16788031D01*
X10018422Y-16788031D02*
X10027945Y-16749936D01*
X10027945Y-16749936D02*
X10037469Y-16730888D01*
X10037469Y-16730888D02*
X10046993Y-16721365D01*
X10046993Y-16721365D02*
X10066041Y-16711841D01*
X10218422Y-16911841D02*
X10218422Y-16778508D01*
X10218422Y-16797555D02*
X10227945Y-16788031D01*
X10227945Y-16788031D02*
X10246993Y-16778508D01*
X10246993Y-16778508D02*
X10275564Y-16778508D01*
X10275564Y-16778508D02*
X10294612Y-16788031D01*
X10294612Y-16788031D02*
X10304136Y-16807079D01*
X10304136Y-16807079D02*
X10304136Y-16911841D01*
X10304136Y-16807079D02*
X10313660Y-16788031D01*
X10313660Y-16788031D02*
X10332707Y-16778508D01*
X10332707Y-16778508D02*
X10361279Y-16778508D01*
X10361279Y-16778508D02*
X10380326Y-16788031D01*
X10380326Y-16788031D02*
X10389850Y-16807079D01*
X10389850Y-16807079D02*
X10389850Y-16911841D01*
X10485088Y-16911841D02*
X10485088Y-16778508D01*
X10485088Y-16797555D02*
X10494612Y-16788031D01*
X10494612Y-16788031D02*
X10513660Y-16778508D01*
X10513660Y-16778508D02*
X10542231Y-16778508D01*
X10542231Y-16778508D02*
X10561279Y-16788031D01*
X10561279Y-16788031D02*
X10570803Y-16807079D01*
X10570803Y-16807079D02*
X10570803Y-16911841D01*
X10570803Y-16807079D02*
X10580326Y-16788031D01*
X10580326Y-16788031D02*
X10599374Y-16778508D01*
X10599374Y-16778508D02*
X10627945Y-16778508D01*
X10627945Y-16778508D02*
X10646993Y-16788031D01*
X10646993Y-16788031D02*
X10656517Y-16807079D01*
X10656517Y-16807079D02*
X10656517Y-16911841D01*
X11046993Y-16702317D02*
X10875565Y-16959460D01*
X11304136Y-16711841D02*
X11323184Y-16711841D01*
X11323184Y-16711841D02*
X11342231Y-16721365D01*
X11342231Y-16721365D02*
X11351755Y-16730888D01*
X11351755Y-16730888D02*
X11361279Y-16749936D01*
X11361279Y-16749936D02*
X11370803Y-16788031D01*
X11370803Y-16788031D02*
X11370803Y-16835650D01*
X11370803Y-16835650D02*
X11361279Y-16873746D01*
X11361279Y-16873746D02*
X11351755Y-16892793D01*
X11351755Y-16892793D02*
X11342231Y-16902317D01*
X11342231Y-16902317D02*
X11323184Y-16911841D01*
X11323184Y-16911841D02*
X11304136Y-16911841D01*
X11304136Y-16911841D02*
X11285088Y-16902317D01*
X11285088Y-16902317D02*
X11275564Y-16892793D01*
X11275564Y-16892793D02*
X11266041Y-16873746D01*
X11266041Y-16873746D02*
X11256517Y-16835650D01*
X11256517Y-16835650D02*
X11256517Y-16788031D01*
X11256517Y-16788031D02*
X11266041Y-16749936D01*
X11266041Y-16749936D02*
X11275564Y-16730888D01*
X11275564Y-16730888D02*
X11285088Y-16721365D01*
X11285088Y-16721365D02*
X11304136Y-16711841D01*
X11456517Y-16892793D02*
X11466041Y-16902317D01*
X11466041Y-16902317D02*
X11456517Y-16911841D01*
X11456517Y-16911841D02*
X11446993Y-16902317D01*
X11446993Y-16902317D02*
X11456517Y-16892793D01*
X11456517Y-16892793D02*
X11456517Y-16911841D01*
X11656517Y-16911841D02*
X11542231Y-16911841D01*
X11599374Y-16911841D02*
X11599374Y-16711841D01*
X11599374Y-16711841D02*
X11580326Y-16740412D01*
X11580326Y-16740412D02*
X11561279Y-16759460D01*
X11561279Y-16759460D02*
X11542231Y-16768984D01*
X11751755Y-16911841D02*
X11789850Y-16911841D01*
X11789850Y-16911841D02*
X11808898Y-16902317D01*
X11808898Y-16902317D02*
X11818422Y-16892793D01*
X11818422Y-16892793D02*
X11837469Y-16864222D01*
X11837469Y-16864222D02*
X11846993Y-16826127D01*
X11846993Y-16826127D02*
X11846993Y-16749936D01*
X11846993Y-16749936D02*
X11837469Y-16730888D01*
X11837469Y-16730888D02*
X11827945Y-16721365D01*
X11827945Y-16721365D02*
X11808898Y-16711841D01*
X11808898Y-16711841D02*
X11770803Y-16711841D01*
X11770803Y-16711841D02*
X11751755Y-16721365D01*
X11751755Y-16721365D02*
X11742231Y-16730888D01*
X11742231Y-16730888D02*
X11732707Y-16749936D01*
X11732707Y-16749936D02*
X11732707Y-16797555D01*
X11732707Y-16797555D02*
X11742231Y-16816603D01*
X11742231Y-16816603D02*
X11751755Y-16826127D01*
X11751755Y-16826127D02*
X11770803Y-16835650D01*
X11770803Y-16835650D02*
X11808898Y-16835650D01*
X11808898Y-16835650D02*
X11827945Y-16826127D01*
X11827945Y-16826127D02*
X11837469Y-16816603D01*
X11837469Y-16816603D02*
X11846993Y-16797555D01*
X12018422Y-16711841D02*
X11980326Y-16711841D01*
X11980326Y-16711841D02*
X11961279Y-16721365D01*
X11961279Y-16721365D02*
X11951755Y-16730888D01*
X11951755Y-16730888D02*
X11932707Y-16759460D01*
X11932707Y-16759460D02*
X11923184Y-16797555D01*
X11923184Y-16797555D02*
X11923184Y-16873746D01*
X11923184Y-16873746D02*
X11932707Y-16892793D01*
X11932707Y-16892793D02*
X11942231Y-16902317D01*
X11942231Y-16902317D02*
X11961279Y-16911841D01*
X11961279Y-16911841D02*
X11999374Y-16911841D01*
X11999374Y-16911841D02*
X12018422Y-16902317D01*
X12018422Y-16902317D02*
X12027945Y-16892793D01*
X12027945Y-16892793D02*
X12037469Y-16873746D01*
X12037469Y-16873746D02*
X12037469Y-16826127D01*
X12037469Y-16826127D02*
X12027945Y-16807079D01*
X12027945Y-16807079D02*
X12018422Y-16797555D01*
X12018422Y-16797555D02*
X11999374Y-16788031D01*
X11999374Y-16788031D02*
X11961279Y-16788031D01*
X11961279Y-16788031D02*
X11942231Y-16797555D01*
X11942231Y-16797555D02*
X11932707Y-16807079D01*
X11932707Y-16807079D02*
X11923184Y-16826127D01*
X12132707Y-16911841D02*
X12170803Y-16911841D01*
X12170803Y-16911841D02*
X12189850Y-16902317D01*
X12189850Y-16902317D02*
X12199374Y-16892793D01*
X12199374Y-16892793D02*
X12218422Y-16864222D01*
X12218422Y-16864222D02*
X12227945Y-16826127D01*
X12227945Y-16826127D02*
X12227945Y-16749936D01*
X12227945Y-16749936D02*
X12218422Y-16730888D01*
X12218422Y-16730888D02*
X12208898Y-16721365D01*
X12208898Y-16721365D02*
X12189850Y-16711841D01*
X12189850Y-16711841D02*
X12151755Y-16711841D01*
X12151755Y-16711841D02*
X12132707Y-16721365D01*
X12132707Y-16721365D02*
X12123184Y-16730888D01*
X12123184Y-16730888D02*
X12113660Y-16749936D01*
X12113660Y-16749936D02*
X12113660Y-16797555D01*
X12113660Y-16797555D02*
X12123184Y-16816603D01*
X12123184Y-16816603D02*
X12132707Y-16826127D01*
X12132707Y-16826127D02*
X12151755Y-16835650D01*
X12151755Y-16835650D02*
X12189850Y-16835650D01*
X12189850Y-16835650D02*
X12208898Y-16826127D01*
X12208898Y-16826127D02*
X12218422Y-16816603D01*
X12218422Y-16816603D02*
X12227945Y-16797555D01*
X12304136Y-16711841D02*
X12304136Y-16749936D01*
X12380326Y-16711841D02*
X12380326Y-16749936D01*
X12675565Y-16988031D02*
X12666041Y-16978508D01*
X12666041Y-16978508D02*
X12646993Y-16949936D01*
X12646993Y-16949936D02*
X12637469Y-16930889D01*
X12637469Y-16930889D02*
X12627946Y-16902317D01*
X12627946Y-16902317D02*
X12618422Y-16854698D01*
X12618422Y-16854698D02*
X12618422Y-16816603D01*
X12618422Y-16816603D02*
X12627946Y-16768984D01*
X12627946Y-16768984D02*
X12637469Y-16740412D01*
X12637469Y-16740412D02*
X12646993Y-16721365D01*
X12646993Y-16721365D02*
X12666041Y-16692793D01*
X12666041Y-16692793D02*
X12675565Y-16683269D01*
X12742231Y-16730888D02*
X12751755Y-16721365D01*
X12751755Y-16721365D02*
X12770803Y-16711841D01*
X12770803Y-16711841D02*
X12818422Y-16711841D01*
X12818422Y-16711841D02*
X12837469Y-16721365D01*
X12837469Y-16721365D02*
X12846993Y-16730888D01*
X12846993Y-16730888D02*
X12856517Y-16749936D01*
X12856517Y-16749936D02*
X12856517Y-16768984D01*
X12856517Y-16768984D02*
X12846993Y-16797555D01*
X12846993Y-16797555D02*
X12732707Y-16911841D01*
X12732707Y-16911841D02*
X12856517Y-16911841D01*
X12932707Y-16730888D02*
X12942231Y-16721365D01*
X12942231Y-16721365D02*
X12961279Y-16711841D01*
X12961279Y-16711841D02*
X13008898Y-16711841D01*
X13008898Y-16711841D02*
X13027946Y-16721365D01*
X13027946Y-16721365D02*
X13037469Y-16730888D01*
X13037469Y-16730888D02*
X13046993Y-16749936D01*
X13046993Y-16749936D02*
X13046993Y-16768984D01*
X13046993Y-16768984D02*
X13037469Y-16797555D01*
X13037469Y-16797555D02*
X12923184Y-16911841D01*
X12923184Y-16911841D02*
X13046993Y-16911841D01*
X13285088Y-16911841D02*
X13285088Y-16711841D01*
X13370803Y-16911841D02*
X13370803Y-16807079D01*
X13370803Y-16807079D02*
X13361279Y-16788031D01*
X13361279Y-16788031D02*
X13342231Y-16778508D01*
X13342231Y-16778508D02*
X13313660Y-16778508D01*
X13313660Y-16778508D02*
X13294612Y-16788031D01*
X13294612Y-16788031D02*
X13285088Y-16797555D01*
X13494612Y-16911841D02*
X13475565Y-16902317D01*
X13475565Y-16902317D02*
X13466041Y-16892793D01*
X13466041Y-16892793D02*
X13456517Y-16873746D01*
X13456517Y-16873746D02*
X13456517Y-16816603D01*
X13456517Y-16816603D02*
X13466041Y-16797555D01*
X13466041Y-16797555D02*
X13475565Y-16788031D01*
X13475565Y-16788031D02*
X13494612Y-16778508D01*
X13494612Y-16778508D02*
X13523184Y-16778508D01*
X13523184Y-16778508D02*
X13542231Y-16788031D01*
X13542231Y-16788031D02*
X13551755Y-16797555D01*
X13551755Y-16797555D02*
X13561279Y-16816603D01*
X13561279Y-16816603D02*
X13561279Y-16873746D01*
X13561279Y-16873746D02*
X13551755Y-16892793D01*
X13551755Y-16892793D02*
X13542231Y-16902317D01*
X13542231Y-16902317D02*
X13523184Y-16911841D01*
X13523184Y-16911841D02*
X13494612Y-16911841D01*
X13675565Y-16911841D02*
X13656517Y-16902317D01*
X13656517Y-16902317D02*
X13646993Y-16883269D01*
X13646993Y-16883269D02*
X13646993Y-16711841D01*
X13827946Y-16902317D02*
X13808898Y-16911841D01*
X13808898Y-16911841D02*
X13770803Y-16911841D01*
X13770803Y-16911841D02*
X13751755Y-16902317D01*
X13751755Y-16902317D02*
X13742231Y-16883269D01*
X13742231Y-16883269D02*
X13742231Y-16807079D01*
X13742231Y-16807079D02*
X13751755Y-16788031D01*
X13751755Y-16788031D02*
X13770803Y-16778508D01*
X13770803Y-16778508D02*
X13808898Y-16778508D01*
X13808898Y-16778508D02*
X13827946Y-16788031D01*
X13827946Y-16788031D02*
X13837469Y-16807079D01*
X13837469Y-16807079D02*
X13837469Y-16826127D01*
X13837469Y-16826127D02*
X13742231Y-16845174D01*
X13913660Y-16902317D02*
X13932708Y-16911841D01*
X13932708Y-16911841D02*
X13970803Y-16911841D01*
X13970803Y-16911841D02*
X13989850Y-16902317D01*
X13989850Y-16902317D02*
X13999374Y-16883269D01*
X13999374Y-16883269D02*
X13999374Y-16873746D01*
X13999374Y-16873746D02*
X13989850Y-16854698D01*
X13989850Y-16854698D02*
X13970803Y-16845174D01*
X13970803Y-16845174D02*
X13942231Y-16845174D01*
X13942231Y-16845174D02*
X13923184Y-16835650D01*
X13923184Y-16835650D02*
X13913660Y-16816603D01*
X13913660Y-16816603D02*
X13913660Y-16807079D01*
X13913660Y-16807079D02*
X13923184Y-16788031D01*
X13923184Y-16788031D02*
X13942231Y-16778508D01*
X13942231Y-16778508D02*
X13970803Y-16778508D01*
X13970803Y-16778508D02*
X13989850Y-16788031D01*
X14066041Y-16988031D02*
X14075565Y-16978508D01*
X14075565Y-16978508D02*
X14094612Y-16949936D01*
X14094612Y-16949936D02*
X14104136Y-16930889D01*
X14104136Y-16930889D02*
X14113660Y-16902317D01*
X14113660Y-16902317D02*
X14123184Y-16854698D01*
X14123184Y-16854698D02*
X14123184Y-16816603D01*
X14123184Y-16816603D02*
X14113660Y-16768984D01*
X14113660Y-16768984D02*
X14104136Y-16740412D01*
X14104136Y-16740412D02*
X14094612Y-16721365D01*
X14094612Y-16721365D02*
X14075565Y-16692793D01*
X14075565Y-16692793D02*
X14066041Y-16683269D01*
X14427946Y-16988031D02*
X14418422Y-16978508D01*
X14418422Y-16978508D02*
X14399374Y-16949936D01*
X14399374Y-16949936D02*
X14389850Y-16930889D01*
X14389850Y-16930889D02*
X14380327Y-16902317D01*
X14380327Y-16902317D02*
X14370803Y-16854698D01*
X14370803Y-16854698D02*
X14370803Y-16816603D01*
X14370803Y-16816603D02*
X14380327Y-16768984D01*
X14380327Y-16768984D02*
X14389850Y-16740412D01*
X14389850Y-16740412D02*
X14399374Y-16721365D01*
X14399374Y-16721365D02*
X14418422Y-16692793D01*
X14418422Y-16692793D02*
X14427946Y-16683269D01*
X14504136Y-16778508D02*
X14504136Y-16911841D01*
X14504136Y-16797555D02*
X14513660Y-16788031D01*
X14513660Y-16788031D02*
X14532708Y-16778508D01*
X14532708Y-16778508D02*
X14561279Y-16778508D01*
X14561279Y-16778508D02*
X14580327Y-16788031D01*
X14580327Y-16788031D02*
X14589850Y-16807079D01*
X14589850Y-16807079D02*
X14589850Y-16911841D01*
X14713660Y-16911841D02*
X14694612Y-16902317D01*
X14694612Y-16902317D02*
X14685089Y-16892793D01*
X14685089Y-16892793D02*
X14675565Y-16873746D01*
X14675565Y-16873746D02*
X14675565Y-16816603D01*
X14675565Y-16816603D02*
X14685089Y-16797555D01*
X14685089Y-16797555D02*
X14694612Y-16788031D01*
X14694612Y-16788031D02*
X14713660Y-16778508D01*
X14713660Y-16778508D02*
X14742231Y-16778508D01*
X14742231Y-16778508D02*
X14761279Y-16788031D01*
X14761279Y-16788031D02*
X14770803Y-16797555D01*
X14770803Y-16797555D02*
X14780327Y-16816603D01*
X14780327Y-16816603D02*
X14780327Y-16873746D01*
X14780327Y-16873746D02*
X14770803Y-16892793D01*
X14770803Y-16892793D02*
X14761279Y-16902317D01*
X14761279Y-16902317D02*
X14742231Y-16911841D01*
X14742231Y-16911841D02*
X14713660Y-16911841D01*
X14837470Y-16778508D02*
X14913660Y-16778508D01*
X14866041Y-16711841D02*
X14866041Y-16883269D01*
X14866041Y-16883269D02*
X14875565Y-16902317D01*
X14875565Y-16902317D02*
X14894612Y-16911841D01*
X14894612Y-16911841D02*
X14913660Y-16911841D01*
X15132708Y-16778508D02*
X15132708Y-16978508D01*
X15132708Y-16788031D02*
X15151755Y-16778508D01*
X15151755Y-16778508D02*
X15189851Y-16778508D01*
X15189851Y-16778508D02*
X15208898Y-16788031D01*
X15208898Y-16788031D02*
X15218422Y-16797555D01*
X15218422Y-16797555D02*
X15227946Y-16816603D01*
X15227946Y-16816603D02*
X15227946Y-16873746D01*
X15227946Y-16873746D02*
X15218422Y-16892793D01*
X15218422Y-16892793D02*
X15208898Y-16902317D01*
X15208898Y-16902317D02*
X15189851Y-16911841D01*
X15189851Y-16911841D02*
X15151755Y-16911841D01*
X15151755Y-16911841D02*
X15132708Y-16902317D01*
X15342231Y-16911841D02*
X15323184Y-16902317D01*
X15323184Y-16902317D02*
X15313660Y-16883269D01*
X15313660Y-16883269D02*
X15313660Y-16711841D01*
X15504136Y-16911841D02*
X15504136Y-16807079D01*
X15504136Y-16807079D02*
X15494612Y-16788031D01*
X15494612Y-16788031D02*
X15475565Y-16778508D01*
X15475565Y-16778508D02*
X15437470Y-16778508D01*
X15437470Y-16778508D02*
X15418422Y-16788031D01*
X15504136Y-16902317D02*
X15485089Y-16911841D01*
X15485089Y-16911841D02*
X15437470Y-16911841D01*
X15437470Y-16911841D02*
X15418422Y-16902317D01*
X15418422Y-16902317D02*
X15408898Y-16883269D01*
X15408898Y-16883269D02*
X15408898Y-16864222D01*
X15408898Y-16864222D02*
X15418422Y-16845174D01*
X15418422Y-16845174D02*
X15437470Y-16835650D01*
X15437470Y-16835650D02*
X15485089Y-16835650D01*
X15485089Y-16835650D02*
X15504136Y-16826127D01*
X15570803Y-16778508D02*
X15646993Y-16778508D01*
X15599374Y-16711841D02*
X15599374Y-16883269D01*
X15599374Y-16883269D02*
X15608898Y-16902317D01*
X15608898Y-16902317D02*
X15627946Y-16911841D01*
X15627946Y-16911841D02*
X15646993Y-16911841D01*
X15789851Y-16902317D02*
X15770803Y-16911841D01*
X15770803Y-16911841D02*
X15732708Y-16911841D01*
X15732708Y-16911841D02*
X15713660Y-16902317D01*
X15713660Y-16902317D02*
X15704136Y-16883269D01*
X15704136Y-16883269D02*
X15704136Y-16807079D01*
X15704136Y-16807079D02*
X15713660Y-16788031D01*
X15713660Y-16788031D02*
X15732708Y-16778508D01*
X15732708Y-16778508D02*
X15770803Y-16778508D01*
X15770803Y-16778508D02*
X15789851Y-16788031D01*
X15789851Y-16788031D02*
X15799374Y-16807079D01*
X15799374Y-16807079D02*
X15799374Y-16826127D01*
X15799374Y-16826127D02*
X15704136Y-16845174D01*
X15970803Y-16911841D02*
X15970803Y-16711841D01*
X15970803Y-16902317D02*
X15951755Y-16911841D01*
X15951755Y-16911841D02*
X15913660Y-16911841D01*
X15913660Y-16911841D02*
X15894612Y-16902317D01*
X15894612Y-16902317D02*
X15885089Y-16892793D01*
X15885089Y-16892793D02*
X15875565Y-16873746D01*
X15875565Y-16873746D02*
X15875565Y-16816603D01*
X15875565Y-16816603D02*
X15885089Y-16797555D01*
X15885089Y-16797555D02*
X15894612Y-16788031D01*
X15894612Y-16788031D02*
X15913660Y-16778508D01*
X15913660Y-16778508D02*
X15951755Y-16778508D01*
X15951755Y-16778508D02*
X15970803Y-16788031D01*
X16046993Y-16988031D02*
X16056517Y-16978508D01*
X16056517Y-16978508D02*
X16075565Y-16949936D01*
X16075565Y-16949936D02*
X16085089Y-16930889D01*
X16085089Y-16930889D02*
X16094612Y-16902317D01*
X16094612Y-16902317D02*
X16104136Y-16854698D01*
X16104136Y-16854698D02*
X16104136Y-16816603D01*
X16104136Y-16816603D02*
X16094612Y-16768984D01*
X16094612Y-16768984D02*
X16085089Y-16740412D01*
X16085089Y-16740412D02*
X16075565Y-16721365D01*
X16075565Y-16721365D02*
X16056517Y-16692793D01*
X16056517Y-16692793D02*
X16046993Y-16683269D01*
M02*
