G04 #@! TF.GenerationSoftware,KiCad,Pcbnew,8.0.8+1*
G04 #@! TF.CreationDate,2026-05-21T21:18:10+00:00*
G04 #@! TF.ProjectId,my_first_keyboard_wireless,6d795f66-6972-4737-945f-6b6579626f61,0.1*
G04 #@! TF.SameCoordinates,Original*
G04 #@! TF.FileFunction,Soldermask,Top*
G04 #@! TF.FilePolarity,Negative*
%FSLAX46Y46*%
G04 Gerber Fmt 4.6, Leading zero omitted, Abs format (unit mm)*
G04 Created by KiCad (PCBNEW 8.0.8+1) date 2026-05-21 21:18:10*
%MOMM*%
%LPD*%
G01*
G04 APERTURE LIST*
%ADD10C,2.300000*%
%ADD11C,4.400000*%
%ADD12C,5.100000*%
%ADD13C,3.100000*%
%ADD14C,1.800000*%
%ADD15C,0.900000*%
%ADD16O,1.800000X1.800000*%
%ADD17C,1.000000*%
%ADD18C,0.850000*%
%ADD19O,1.850000X1.300000*%
G04 APERTURE END LIST*
D10*
X207762000Y-94142667D03*
X222194000Y-102661667D03*
D11*
X109500000Y-71500000D03*
X109500000Y-90500000D03*
X185468000Y-61652667D03*
X143157000Y-103615000D03*
X214377304Y-112640080D03*
D12*
X100000000Y-100000000D03*
D13*
X100000000Y-105950000D03*
X105000000Y-103750000D03*
G36*
X95389645Y-107285355D02*
G01*
X95375000Y-107250000D01*
X95375000Y-105833000D01*
X95389645Y-105797645D01*
X96572645Y-104614645D01*
X96608000Y-104600000D01*
X98025000Y-104600000D01*
X98060355Y-104614645D01*
X98075000Y-104650000D01*
X98075000Y-107250000D01*
X98060355Y-107285355D01*
X98025000Y-107300000D01*
X95425000Y-107300000D01*
X95389645Y-107285355D01*
G37*
G36*
G01*
X109625000Y-102450000D02*
X109625000Y-105050000D01*
G75*
G02*
X109575000Y-105100000I-50000J0D01*
G01*
X106975000Y-105100000D01*
G75*
G02*
X106925000Y-105050000I0J50000D01*
G01*
X106925000Y-102450000D01*
G75*
G02*
X106975000Y-102400000I50000J0D01*
G01*
X109575000Y-102400000D01*
G75*
G02*
X109625000Y-102450000I0J-50000D01*
G01*
G37*
X95000000Y-103750000D03*
D12*
X100000000Y-81000000D03*
D13*
X100000000Y-86950000D03*
X105000000Y-84750000D03*
G36*
X95389645Y-88285355D02*
G01*
X95375000Y-88250000D01*
X95375000Y-86833000D01*
X95389645Y-86797645D01*
X96572645Y-85614645D01*
X96608000Y-85600000D01*
X98025000Y-85600000D01*
X98060355Y-85614645D01*
X98075000Y-85650000D01*
X98075000Y-88250000D01*
X98060355Y-88285355D01*
X98025000Y-88300000D01*
X95425000Y-88300000D01*
X95389645Y-88285355D01*
G37*
G36*
G01*
X109625000Y-83450000D02*
X109625000Y-86050000D01*
G75*
G02*
X109575000Y-86100000I-50000J0D01*
G01*
X106975000Y-86100000D01*
G75*
G02*
X106925000Y-86050000I0J50000D01*
G01*
X106925000Y-83450000D01*
G75*
G02*
X106975000Y-83400000I50000J0D01*
G01*
X109575000Y-83400000D01*
G75*
G02*
X109625000Y-83450000I0J-50000D01*
G01*
G37*
X95000000Y-84750000D03*
D12*
X100000000Y-62000000D03*
D13*
X100000000Y-67950000D03*
X105000000Y-65750000D03*
G36*
X95389645Y-69285355D02*
G01*
X95375000Y-69250000D01*
X95375000Y-67833000D01*
X95389645Y-67797645D01*
X96572645Y-66614645D01*
X96608000Y-66600000D01*
X98025000Y-66600000D01*
X98060355Y-66614645D01*
X98075000Y-66650000D01*
X98075000Y-69250000D01*
X98060355Y-69285355D01*
X98025000Y-69300000D01*
X95425000Y-69300000D01*
X95389645Y-69285355D01*
G37*
G36*
G01*
X109625000Y-64450000D02*
X109625000Y-67050000D01*
G75*
G02*
X109575000Y-67100000I-50000J0D01*
G01*
X106975000Y-67100000D01*
G75*
G02*
X106925000Y-67050000I0J50000D01*
G01*
X106925000Y-64450000D01*
G75*
G02*
X106975000Y-64400000I50000J0D01*
G01*
X109575000Y-64400000D01*
G75*
G02*
X109625000Y-64450000I0J-50000D01*
G01*
G37*
X95000000Y-65750000D03*
D12*
X119000000Y-100000000D03*
D13*
X119000000Y-105950000D03*
X124000000Y-103750000D03*
G36*
X114389645Y-107285355D02*
G01*
X114375000Y-107250000D01*
X114375000Y-105833000D01*
X114389645Y-105797645D01*
X115572645Y-104614645D01*
X115608000Y-104600000D01*
X117025000Y-104600000D01*
X117060355Y-104614645D01*
X117075000Y-104650000D01*
X117075000Y-107250000D01*
X117060355Y-107285355D01*
X117025000Y-107300000D01*
X114425000Y-107300000D01*
X114389645Y-107285355D01*
G37*
G36*
G01*
X128625000Y-102450000D02*
X128625000Y-105050000D01*
G75*
G02*
X128575000Y-105100000I-50000J0D01*
G01*
X125975000Y-105100000D01*
G75*
G02*
X125925000Y-105050000I0J50000D01*
G01*
X125925000Y-102450000D01*
G75*
G02*
X125975000Y-102400000I50000J0D01*
G01*
X128575000Y-102400000D01*
G75*
G02*
X128625000Y-102450000I0J-50000D01*
G01*
G37*
X114000000Y-103750000D03*
D12*
X119000000Y-81000000D03*
D13*
X119000000Y-86950000D03*
X124000000Y-84750000D03*
G36*
X114389645Y-88285355D02*
G01*
X114375000Y-88250000D01*
X114375000Y-86833000D01*
X114389645Y-86797645D01*
X115572645Y-85614645D01*
X115608000Y-85600000D01*
X117025000Y-85600000D01*
X117060355Y-85614645D01*
X117075000Y-85650000D01*
X117075000Y-88250000D01*
X117060355Y-88285355D01*
X117025000Y-88300000D01*
X114425000Y-88300000D01*
X114389645Y-88285355D01*
G37*
G36*
G01*
X128625000Y-83450000D02*
X128625000Y-86050000D01*
G75*
G02*
X128575000Y-86100000I-50000J0D01*
G01*
X125975000Y-86100000D01*
G75*
G02*
X125925000Y-86050000I0J50000D01*
G01*
X125925000Y-83450000D01*
G75*
G02*
X125975000Y-83400000I50000J0D01*
G01*
X128575000Y-83400000D01*
G75*
G02*
X128625000Y-83450000I0J-50000D01*
G01*
G37*
X114000000Y-84750000D03*
D12*
X119000000Y-62000000D03*
D13*
X119000000Y-67950000D03*
X124000000Y-65750000D03*
G36*
X114389645Y-69285355D02*
G01*
X114375000Y-69250000D01*
X114375000Y-67833000D01*
X114389645Y-67797645D01*
X115572645Y-66614645D01*
X115608000Y-66600000D01*
X117025000Y-66600000D01*
X117060355Y-66614645D01*
X117075000Y-66650000D01*
X117075000Y-69250000D01*
X117060355Y-69285355D01*
X117025000Y-69300000D01*
X114425000Y-69300000D01*
X114389645Y-69285355D01*
G37*
G36*
G01*
X128625000Y-64450000D02*
X128625000Y-67050000D01*
G75*
G02*
X128575000Y-67100000I-50000J0D01*
G01*
X125975000Y-67100000D01*
G75*
G02*
X125925000Y-67050000I0J50000D01*
G01*
X125925000Y-64450000D01*
G75*
G02*
X125975000Y-64400000I50000J0D01*
G01*
X128575000Y-64400000D01*
G75*
G02*
X128625000Y-64450000I0J-50000D01*
G01*
G37*
X114000000Y-65750000D03*
D12*
X138000000Y-90500000D03*
D13*
X138000000Y-96450000D03*
X143000000Y-94250000D03*
G36*
X133389645Y-97785355D02*
G01*
X133375000Y-97750000D01*
X133375000Y-96333000D01*
X133389645Y-96297645D01*
X134572645Y-95114645D01*
X134608000Y-95100000D01*
X136025000Y-95100000D01*
X136060355Y-95114645D01*
X136075000Y-95150000D01*
X136075000Y-97750000D01*
X136060355Y-97785355D01*
X136025000Y-97800000D01*
X133425000Y-97800000D01*
X133389645Y-97785355D01*
G37*
G36*
G01*
X147625000Y-92950000D02*
X147625000Y-95550000D01*
G75*
G02*
X147575000Y-95600000I-50000J0D01*
G01*
X144975000Y-95600000D01*
G75*
G02*
X144925000Y-95550000I0J50000D01*
G01*
X144925000Y-92950000D01*
G75*
G02*
X144975000Y-92900000I50000J0D01*
G01*
X147575000Y-92900000D01*
G75*
G02*
X147625000Y-92950000I0J-50000D01*
G01*
G37*
X133000000Y-94250000D03*
D12*
X138000000Y-71500000D03*
D13*
X138000000Y-77450000D03*
X143000000Y-75250000D03*
G36*
X133389645Y-78785355D02*
G01*
X133375000Y-78750000D01*
X133375000Y-77333000D01*
X133389645Y-77297645D01*
X134572645Y-76114645D01*
X134608000Y-76100000D01*
X136025000Y-76100000D01*
X136060355Y-76114645D01*
X136075000Y-76150000D01*
X136075000Y-78750000D01*
X136060355Y-78785355D01*
X136025000Y-78800000D01*
X133425000Y-78800000D01*
X133389645Y-78785355D01*
G37*
G36*
G01*
X147625000Y-73950000D02*
X147625000Y-76550000D01*
G75*
G02*
X147575000Y-76600000I-50000J0D01*
G01*
X144975000Y-76600000D01*
G75*
G02*
X144925000Y-76550000I0J50000D01*
G01*
X144925000Y-73950000D01*
G75*
G02*
X144975000Y-73900000I50000J0D01*
G01*
X147575000Y-73900000D01*
G75*
G02*
X147625000Y-73950000I0J-50000D01*
G01*
G37*
X133000000Y-75250000D03*
D12*
X138000000Y-52500000D03*
D13*
X138000000Y-58450000D03*
X143000000Y-56250000D03*
G36*
X133389645Y-59785355D02*
G01*
X133375000Y-59750000D01*
X133375000Y-58333000D01*
X133389645Y-58297645D01*
X134572645Y-57114645D01*
X134608000Y-57100000D01*
X136025000Y-57100000D01*
X136060355Y-57114645D01*
X136075000Y-57150000D01*
X136075000Y-59750000D01*
X136060355Y-59785355D01*
X136025000Y-59800000D01*
X133425000Y-59800000D01*
X133389645Y-59785355D01*
G37*
G36*
G01*
X147625000Y-54950000D02*
X147625000Y-57550000D01*
G75*
G02*
X147575000Y-57600000I-50000J0D01*
G01*
X144975000Y-57600000D01*
G75*
G02*
X144925000Y-57550000I0J50000D01*
G01*
X144925000Y-54950000D01*
G75*
G02*
X144975000Y-54900000I50000J0D01*
G01*
X147575000Y-54900000D01*
G75*
G02*
X147625000Y-54950000I0J-50000D01*
G01*
G37*
X133000000Y-56250000D03*
D12*
X157000000Y-85750000D03*
D13*
X157000000Y-91700000D03*
X162000000Y-89500000D03*
G36*
X152389645Y-93035355D02*
G01*
X152375000Y-93000000D01*
X152375000Y-91583000D01*
X152389645Y-91547645D01*
X153572645Y-90364645D01*
X153608000Y-90350000D01*
X155025000Y-90350000D01*
X155060355Y-90364645D01*
X155075000Y-90400000D01*
X155075000Y-93000000D01*
X155060355Y-93035355D01*
X155025000Y-93050000D01*
X152425000Y-93050000D01*
X152389645Y-93035355D01*
G37*
G36*
G01*
X166625000Y-88200000D02*
X166625000Y-90800000D01*
G75*
G02*
X166575000Y-90850000I-50000J0D01*
G01*
X163975000Y-90850000D01*
G75*
G02*
X163925000Y-90800000I0J50000D01*
G01*
X163925000Y-88200000D01*
G75*
G02*
X163975000Y-88150000I50000J0D01*
G01*
X166575000Y-88150000D01*
G75*
G02*
X166625000Y-88200000I0J-50000D01*
G01*
G37*
X152000000Y-89500000D03*
D12*
X157000000Y-66750000D03*
D13*
X157000000Y-72700000D03*
X162000000Y-70500000D03*
G36*
X152389645Y-74035355D02*
G01*
X152375000Y-74000000D01*
X152375000Y-72583000D01*
X152389645Y-72547645D01*
X153572645Y-71364645D01*
X153608000Y-71350000D01*
X155025000Y-71350000D01*
X155060355Y-71364645D01*
X155075000Y-71400000D01*
X155075000Y-74000000D01*
X155060355Y-74035355D01*
X155025000Y-74050000D01*
X152425000Y-74050000D01*
X152389645Y-74035355D01*
G37*
G36*
G01*
X166625000Y-69200000D02*
X166625000Y-71800000D01*
G75*
G02*
X166575000Y-71850000I-50000J0D01*
G01*
X163975000Y-71850000D01*
G75*
G02*
X163925000Y-71800000I0J50000D01*
G01*
X163925000Y-69200000D01*
G75*
G02*
X163975000Y-69150000I50000J0D01*
G01*
X166575000Y-69150000D01*
G75*
G02*
X166625000Y-69200000I0J-50000D01*
G01*
G37*
X152000000Y-70500000D03*
D12*
X157000000Y-47750000D03*
D13*
X157000000Y-53700000D03*
X162000000Y-51500000D03*
G36*
X152389645Y-55035355D02*
G01*
X152375000Y-55000000D01*
X152375000Y-53583000D01*
X152389645Y-53547645D01*
X153572645Y-52364645D01*
X153608000Y-52350000D01*
X155025000Y-52350000D01*
X155060355Y-52364645D01*
X155075000Y-52400000D01*
X155075000Y-55000000D01*
X155060355Y-55035355D01*
X155025000Y-55050000D01*
X152425000Y-55050000D01*
X152389645Y-55035355D01*
G37*
G36*
G01*
X166625000Y-50200000D02*
X166625000Y-52800000D01*
G75*
G02*
X166575000Y-52850000I-50000J0D01*
G01*
X163975000Y-52850000D01*
G75*
G02*
X163925000Y-52800000I0J50000D01*
G01*
X163925000Y-50200000D01*
G75*
G02*
X163975000Y-50150000I50000J0D01*
G01*
X166575000Y-50150000D01*
G75*
G02*
X166625000Y-50200000I0J-50000D01*
G01*
G37*
X152000000Y-51500000D03*
D12*
X176000000Y-88916667D03*
D13*
X176000000Y-94866667D03*
X181000000Y-92666667D03*
G36*
X171389645Y-96202022D02*
G01*
X171375000Y-96166667D01*
X171375000Y-94749667D01*
X171389645Y-94714312D01*
X172572645Y-93531312D01*
X172608000Y-93516667D01*
X174025000Y-93516667D01*
X174060355Y-93531312D01*
X174075000Y-93566667D01*
X174075000Y-96166667D01*
X174060355Y-96202022D01*
X174025000Y-96216667D01*
X171425000Y-96216667D01*
X171389645Y-96202022D01*
G37*
G36*
G01*
X185625000Y-91366667D02*
X185625000Y-93966667D01*
G75*
G02*
X185575000Y-94016667I-50000J0D01*
G01*
X182975000Y-94016667D01*
G75*
G02*
X182925000Y-93966667I0J50000D01*
G01*
X182925000Y-91366667D01*
G75*
G02*
X182975000Y-91316667I50000J0D01*
G01*
X185575000Y-91316667D01*
G75*
G02*
X185625000Y-91366667I0J-50000D01*
G01*
G37*
X171000000Y-92666667D03*
D12*
X176000000Y-69916667D03*
D13*
X176000000Y-75866667D03*
X181000000Y-73666667D03*
G36*
X171389645Y-77202022D02*
G01*
X171375000Y-77166667D01*
X171375000Y-75749667D01*
X171389645Y-75714312D01*
X172572645Y-74531312D01*
X172608000Y-74516667D01*
X174025000Y-74516667D01*
X174060355Y-74531312D01*
X174075000Y-74566667D01*
X174075000Y-77166667D01*
X174060355Y-77202022D01*
X174025000Y-77216667D01*
X171425000Y-77216667D01*
X171389645Y-77202022D01*
G37*
G36*
G01*
X185625000Y-72366667D02*
X185625000Y-74966667D01*
G75*
G02*
X185575000Y-75016667I-50000J0D01*
G01*
X182975000Y-75016667D01*
G75*
G02*
X182925000Y-74966667I0J50000D01*
G01*
X182925000Y-72366667D01*
G75*
G02*
X182975000Y-72316667I50000J0D01*
G01*
X185575000Y-72316667D01*
G75*
G02*
X185625000Y-72366667I0J-50000D01*
G01*
G37*
X171000000Y-73666667D03*
D12*
X176000000Y-50916667D03*
D13*
X176000000Y-56866667D03*
X181000000Y-54666667D03*
G36*
X171389645Y-58202022D02*
G01*
X171375000Y-58166667D01*
X171375000Y-56749667D01*
X171389645Y-56714312D01*
X172572645Y-55531312D01*
X172608000Y-55516667D01*
X174025000Y-55516667D01*
X174060355Y-55531312D01*
X174075000Y-55566667D01*
X174075000Y-58166667D01*
X174060355Y-58202022D01*
X174025000Y-58216667D01*
X171425000Y-58216667D01*
X171389645Y-58202022D01*
G37*
G36*
G01*
X185625000Y-53366667D02*
X185625000Y-55966667D01*
G75*
G02*
X185575000Y-56016667I-50000J0D01*
G01*
X182975000Y-56016667D01*
G75*
G02*
X182925000Y-55966667I0J50000D01*
G01*
X182925000Y-53366667D01*
G75*
G02*
X182975000Y-53316667I50000J0D01*
G01*
X185575000Y-53316667D01*
G75*
G02*
X185625000Y-53366667I0J-50000D01*
G01*
G37*
X171000000Y-54666667D03*
D12*
X195000000Y-91291667D03*
D13*
X195000000Y-97241667D03*
X200000000Y-95041667D03*
G36*
X190389645Y-98577022D02*
G01*
X190375000Y-98541667D01*
X190375000Y-97124667D01*
X190389645Y-97089312D01*
X191572645Y-95906312D01*
X191608000Y-95891667D01*
X193025000Y-95891667D01*
X193060355Y-95906312D01*
X193075000Y-95941667D01*
X193075000Y-98541667D01*
X193060355Y-98577022D01*
X193025000Y-98591667D01*
X190425000Y-98591667D01*
X190389645Y-98577022D01*
G37*
G36*
G01*
X204625000Y-93741667D02*
X204625000Y-96341667D01*
G75*
G02*
X204575000Y-96391667I-50000J0D01*
G01*
X201975000Y-96391667D01*
G75*
G02*
X201925000Y-96341667I0J50000D01*
G01*
X201925000Y-93741667D01*
G75*
G02*
X201975000Y-93691667I50000J0D01*
G01*
X204575000Y-93691667D01*
G75*
G02*
X204625000Y-93741667I0J-50000D01*
G01*
G37*
X190000000Y-95041667D03*
D12*
X195000000Y-72291667D03*
D13*
X195000000Y-78241667D03*
X200000000Y-76041667D03*
G36*
X190389645Y-79577022D02*
G01*
X190375000Y-79541667D01*
X190375000Y-78124667D01*
X190389645Y-78089312D01*
X191572645Y-76906312D01*
X191608000Y-76891667D01*
X193025000Y-76891667D01*
X193060355Y-76906312D01*
X193075000Y-76941667D01*
X193075000Y-79541667D01*
X193060355Y-79577022D01*
X193025000Y-79591667D01*
X190425000Y-79591667D01*
X190389645Y-79577022D01*
G37*
G36*
G01*
X204625000Y-74741667D02*
X204625000Y-77341667D01*
G75*
G02*
X204575000Y-77391667I-50000J0D01*
G01*
X201975000Y-77391667D01*
G75*
G02*
X201925000Y-77341667I0J50000D01*
G01*
X201925000Y-74741667D01*
G75*
G02*
X201975000Y-74691667I50000J0D01*
G01*
X204575000Y-74691667D01*
G75*
G02*
X204625000Y-74741667I0J-50000D01*
G01*
G37*
X190000000Y-76041667D03*
D12*
X195000000Y-53291667D03*
D13*
X195000000Y-59241667D03*
X200000000Y-57041667D03*
G36*
X190389645Y-60577022D02*
G01*
X190375000Y-60541667D01*
X190375000Y-59124667D01*
X190389645Y-59089312D01*
X191572645Y-57906312D01*
X191608000Y-57891667D01*
X193025000Y-57891667D01*
X193060355Y-57906312D01*
X193075000Y-57941667D01*
X193075000Y-60541667D01*
X193060355Y-60577022D01*
X193025000Y-60591667D01*
X190425000Y-60591667D01*
X190389645Y-60577022D01*
G37*
G36*
G01*
X204625000Y-55741667D02*
X204625000Y-58341667D01*
G75*
G02*
X204575000Y-58391667I-50000J0D01*
G01*
X201975000Y-58391667D01*
G75*
G02*
X201925000Y-58341667I0J50000D01*
G01*
X201925000Y-55741667D01*
G75*
G02*
X201975000Y-55691667I50000J0D01*
G01*
X204575000Y-55691667D01*
G75*
G02*
X204625000Y-55741667I0J-50000D01*
G01*
G37*
X190000000Y-57041667D03*
D12*
X157000000Y-110750000D03*
D13*
X157000000Y-116700000D03*
X162000000Y-114500000D03*
G36*
X152389645Y-118035355D02*
G01*
X152375000Y-118000000D01*
X152375000Y-116583000D01*
X152389645Y-116547645D01*
X153572645Y-115364645D01*
X153608000Y-115350000D01*
X155025000Y-115350000D01*
X155060355Y-115364645D01*
X155075000Y-115400000D01*
X155075000Y-118000000D01*
X155060355Y-118035355D01*
X155025000Y-118050000D01*
X152425000Y-118050000D01*
X152389645Y-118035355D01*
G37*
G36*
G01*
X166625000Y-113200000D02*
X166625000Y-115800000D01*
G75*
G02*
X166575000Y-115850000I-50000J0D01*
G01*
X163975000Y-115850000D01*
G75*
G02*
X163925000Y-115800000I0J50000D01*
G01*
X163925000Y-113200000D01*
G75*
G02*
X163975000Y-113150000I50000J0D01*
G01*
X166575000Y-113150000D01*
G75*
G02*
X166625000Y-113200000I0J-50000D01*
G01*
G37*
X152000000Y-114500000D03*
D12*
X177600000Y-113250000D03*
D13*
X176060027Y-118997259D03*
X181459058Y-118166317D03*
G36*
X171261151Y-119093865D02*
G01*
X171256155Y-119055924D01*
X171622902Y-117687207D01*
X171646198Y-117656847D01*
X173095072Y-116820340D01*
X173133012Y-116815344D01*
X174501729Y-117182091D01*
X174532089Y-117205387D01*
X174537085Y-117243328D01*
X173864155Y-119754735D01*
X173840859Y-119785095D01*
X173802918Y-119790091D01*
X171291511Y-119117161D01*
X171261151Y-119093865D01*
G37*
G36*
G01*
X186262929Y-118107651D02*
X185590000Y-120619058D01*
G75*
G02*
X185528763Y-120654413I-48296J12941D01*
G01*
X183017356Y-119981484D01*
G75*
G02*
X182982001Y-119920247I12941J48296D01*
G01*
X183654930Y-117408840D01*
G75*
G02*
X183716167Y-117373485I48296J-12941D01*
G01*
X186227574Y-118046414D01*
G75*
G02*
X186262929Y-118107651I-12941J-48296D01*
G01*
G37*
X171799799Y-115578127D03*
D12*
X196851024Y-120996487D03*
D13*
X193876024Y-126149338D03*
X199306151Y-126744082D03*
G36*
X189215662Y-125000612D02*
G01*
X189220657Y-124962671D01*
X189929157Y-123735513D01*
X189959517Y-123712217D01*
X191575525Y-123279209D01*
X191613466Y-123284204D01*
X192840624Y-123992704D01*
X192863920Y-124023064D01*
X192858925Y-124061005D01*
X191558925Y-126312671D01*
X191528565Y-126335967D01*
X191490624Y-126330972D01*
X189238958Y-125030972D01*
X189215662Y-125000612D01*
G37*
G36*
G01*
X203961518Y-127930749D02*
X202661518Y-130182415D01*
G75*
G02*
X202593217Y-130200716I-43301J25000D01*
G01*
X200341551Y-128900716D01*
G75*
G02*
X200323250Y-128832415I25000J43301D01*
G01*
X201623250Y-126580749D01*
G75*
G02*
X201691551Y-126562448I43301J-25000D01*
G01*
X203943217Y-127862448D01*
G75*
G02*
X203961518Y-127930749I-25000J-43301D01*
G01*
G37*
X190645897Y-121744082D03*
D12*
X213441148Y-133461550D03*
D13*
X209233863Y-137668835D03*
X214325031Y-139648734D03*
G36*
X205029611Y-135353061D02*
G01*
X205044255Y-135317706D01*
X206046225Y-134315735D01*
X206081581Y-134301091D01*
X207754595Y-134301091D01*
X207789951Y-134315735D01*
X208791921Y-135317706D01*
X208806565Y-135353061D01*
X208791921Y-135388416D01*
X206953443Y-137226894D01*
X206918088Y-137241538D01*
X206882733Y-137226894D01*
X205044255Y-135388416D01*
X205029611Y-135353061D01*
G37*
G36*
G01*
X218514639Y-141999864D02*
X216676161Y-143838342D01*
G75*
G02*
X216605451Y-143838342I-35355J35355D01*
G01*
X214766973Y-141999864D01*
G75*
G02*
X214766973Y-141929154I35355J35355D01*
G01*
X216605451Y-140090676D01*
G75*
G02*
X216676161Y-140090676I35355J-35355D01*
G01*
X218514639Y-141929154D01*
G75*
G02*
X218514639Y-141999864I-35355J-35355D01*
G01*
G37*
X207253964Y-132577667D03*
G36*
G01*
X107250000Y-96350000D02*
X108450000Y-96350000D01*
G75*
G02*
X108500000Y-96400000I0J-50000D01*
G01*
X108500000Y-97300000D01*
G75*
G02*
X108450000Y-97350000I-50000J0D01*
G01*
X107250000Y-97350000D01*
G75*
G02*
X107200000Y-97300000I0J50000D01*
G01*
X107200000Y-96400000D01*
G75*
G02*
X107250000Y-96350000I50000J0D01*
G01*
G37*
G36*
G01*
X107250000Y-99650000D02*
X108450000Y-99650000D01*
G75*
G02*
X108500000Y-99700000I0J-50000D01*
G01*
X108500000Y-100600000D01*
G75*
G02*
X108450000Y-100650000I-50000J0D01*
G01*
X107250000Y-100650000D01*
G75*
G02*
X107200000Y-100600000I0J50000D01*
G01*
X107200000Y-99700000D01*
G75*
G02*
X107250000Y-99650000I50000J0D01*
G01*
G37*
G36*
G01*
X107250000Y-77350000D02*
X108450000Y-77350000D01*
G75*
G02*
X108500000Y-77400000I0J-50000D01*
G01*
X108500000Y-78300000D01*
G75*
G02*
X108450000Y-78350000I-50000J0D01*
G01*
X107250000Y-78350000D01*
G75*
G02*
X107200000Y-78300000I0J50000D01*
G01*
X107200000Y-77400000D01*
G75*
G02*
X107250000Y-77350000I50000J0D01*
G01*
G37*
G36*
G01*
X107250000Y-80650000D02*
X108450000Y-80650000D01*
G75*
G02*
X108500000Y-80700000I0J-50000D01*
G01*
X108500000Y-81600000D01*
G75*
G02*
X108450000Y-81650000I-50000J0D01*
G01*
X107250000Y-81650000D01*
G75*
G02*
X107200000Y-81600000I0J50000D01*
G01*
X107200000Y-80700000D01*
G75*
G02*
X107250000Y-80650000I50000J0D01*
G01*
G37*
G36*
G01*
X107250000Y-58350000D02*
X108450000Y-58350000D01*
G75*
G02*
X108500000Y-58400000I0J-50000D01*
G01*
X108500000Y-59300000D01*
G75*
G02*
X108450000Y-59350000I-50000J0D01*
G01*
X107250000Y-59350000D01*
G75*
G02*
X107200000Y-59300000I0J50000D01*
G01*
X107200000Y-58400000D01*
G75*
G02*
X107250000Y-58350000I50000J0D01*
G01*
G37*
G36*
G01*
X107250000Y-61650000D02*
X108450000Y-61650000D01*
G75*
G02*
X108500000Y-61700000I0J-50000D01*
G01*
X108500000Y-62600000D01*
G75*
G02*
X108450000Y-62650000I-50000J0D01*
G01*
X107250000Y-62650000D01*
G75*
G02*
X107200000Y-62600000I0J50000D01*
G01*
X107200000Y-61700000D01*
G75*
G02*
X107250000Y-61650000I50000J0D01*
G01*
G37*
G36*
G01*
X126250000Y-96350000D02*
X127450000Y-96350000D01*
G75*
G02*
X127500000Y-96400000I0J-50000D01*
G01*
X127500000Y-97300000D01*
G75*
G02*
X127450000Y-97350000I-50000J0D01*
G01*
X126250000Y-97350000D01*
G75*
G02*
X126200000Y-97300000I0J50000D01*
G01*
X126200000Y-96400000D01*
G75*
G02*
X126250000Y-96350000I50000J0D01*
G01*
G37*
G36*
G01*
X126250000Y-99650000D02*
X127450000Y-99650000D01*
G75*
G02*
X127500000Y-99700000I0J-50000D01*
G01*
X127500000Y-100600000D01*
G75*
G02*
X127450000Y-100650000I-50000J0D01*
G01*
X126250000Y-100650000D01*
G75*
G02*
X126200000Y-100600000I0J50000D01*
G01*
X126200000Y-99700000D01*
G75*
G02*
X126250000Y-99650000I50000J0D01*
G01*
G37*
G36*
G01*
X126250000Y-77350000D02*
X127450000Y-77350000D01*
G75*
G02*
X127500000Y-77400000I0J-50000D01*
G01*
X127500000Y-78300000D01*
G75*
G02*
X127450000Y-78350000I-50000J0D01*
G01*
X126250000Y-78350000D01*
G75*
G02*
X126200000Y-78300000I0J50000D01*
G01*
X126200000Y-77400000D01*
G75*
G02*
X126250000Y-77350000I50000J0D01*
G01*
G37*
G36*
G01*
X126250000Y-80650000D02*
X127450000Y-80650000D01*
G75*
G02*
X127500000Y-80700000I0J-50000D01*
G01*
X127500000Y-81600000D01*
G75*
G02*
X127450000Y-81650000I-50000J0D01*
G01*
X126250000Y-81650000D01*
G75*
G02*
X126200000Y-81600000I0J50000D01*
G01*
X126200000Y-80700000D01*
G75*
G02*
X126250000Y-80650000I50000J0D01*
G01*
G37*
G36*
G01*
X126250000Y-58350000D02*
X127450000Y-58350000D01*
G75*
G02*
X127500000Y-58400000I0J-50000D01*
G01*
X127500000Y-59300000D01*
G75*
G02*
X127450000Y-59350000I-50000J0D01*
G01*
X126250000Y-59350000D01*
G75*
G02*
X126200000Y-59300000I0J50000D01*
G01*
X126200000Y-58400000D01*
G75*
G02*
X126250000Y-58350000I50000J0D01*
G01*
G37*
G36*
G01*
X126250000Y-61650000D02*
X127450000Y-61650000D01*
G75*
G02*
X127500000Y-61700000I0J-50000D01*
G01*
X127500000Y-62600000D01*
G75*
G02*
X127450000Y-62650000I-50000J0D01*
G01*
X126250000Y-62650000D01*
G75*
G02*
X126200000Y-62600000I0J50000D01*
G01*
X126200000Y-61700000D01*
G75*
G02*
X126250000Y-61650000I50000J0D01*
G01*
G37*
G36*
G01*
X145250000Y-86850000D02*
X146450000Y-86850000D01*
G75*
G02*
X146500000Y-86900000I0J-50000D01*
G01*
X146500000Y-87800000D01*
G75*
G02*
X146450000Y-87850000I-50000J0D01*
G01*
X145250000Y-87850000D01*
G75*
G02*
X145200000Y-87800000I0J50000D01*
G01*
X145200000Y-86900000D01*
G75*
G02*
X145250000Y-86850000I50000J0D01*
G01*
G37*
G36*
G01*
X145250000Y-90150000D02*
X146450000Y-90150000D01*
G75*
G02*
X146500000Y-90200000I0J-50000D01*
G01*
X146500000Y-91100000D01*
G75*
G02*
X146450000Y-91150000I-50000J0D01*
G01*
X145250000Y-91150000D01*
G75*
G02*
X145200000Y-91100000I0J50000D01*
G01*
X145200000Y-90200000D01*
G75*
G02*
X145250000Y-90150000I50000J0D01*
G01*
G37*
G36*
G01*
X145250000Y-67850000D02*
X146450000Y-67850000D01*
G75*
G02*
X146500000Y-67900000I0J-50000D01*
G01*
X146500000Y-68800000D01*
G75*
G02*
X146450000Y-68850000I-50000J0D01*
G01*
X145250000Y-68850000D01*
G75*
G02*
X145200000Y-68800000I0J50000D01*
G01*
X145200000Y-67900000D01*
G75*
G02*
X145250000Y-67850000I50000J0D01*
G01*
G37*
G36*
G01*
X145250000Y-71150000D02*
X146450000Y-71150000D01*
G75*
G02*
X146500000Y-71200000I0J-50000D01*
G01*
X146500000Y-72100000D01*
G75*
G02*
X146450000Y-72150000I-50000J0D01*
G01*
X145250000Y-72150000D01*
G75*
G02*
X145200000Y-72100000I0J50000D01*
G01*
X145200000Y-71200000D01*
G75*
G02*
X145250000Y-71150000I50000J0D01*
G01*
G37*
G36*
G01*
X145250000Y-48850000D02*
X146450000Y-48850000D01*
G75*
G02*
X146500000Y-48900000I0J-50000D01*
G01*
X146500000Y-49800000D01*
G75*
G02*
X146450000Y-49850000I-50000J0D01*
G01*
X145250000Y-49850000D01*
G75*
G02*
X145200000Y-49800000I0J50000D01*
G01*
X145200000Y-48900000D01*
G75*
G02*
X145250000Y-48850000I50000J0D01*
G01*
G37*
G36*
G01*
X145250000Y-52150000D02*
X146450000Y-52150000D01*
G75*
G02*
X146500000Y-52200000I0J-50000D01*
G01*
X146500000Y-53100000D01*
G75*
G02*
X146450000Y-53150000I-50000J0D01*
G01*
X145250000Y-53150000D01*
G75*
G02*
X145200000Y-53100000I0J50000D01*
G01*
X145200000Y-52200000D01*
G75*
G02*
X145250000Y-52150000I50000J0D01*
G01*
G37*
G36*
G01*
X164250000Y-82100000D02*
X165450000Y-82100000D01*
G75*
G02*
X165500000Y-82150000I0J-50000D01*
G01*
X165500000Y-83050000D01*
G75*
G02*
X165450000Y-83100000I-50000J0D01*
G01*
X164250000Y-83100000D01*
G75*
G02*
X164200000Y-83050000I0J50000D01*
G01*
X164200000Y-82150000D01*
G75*
G02*
X164250000Y-82100000I50000J0D01*
G01*
G37*
G36*
G01*
X164250000Y-85400000D02*
X165450000Y-85400000D01*
G75*
G02*
X165500000Y-85450000I0J-50000D01*
G01*
X165500000Y-86350000D01*
G75*
G02*
X165450000Y-86400000I-50000J0D01*
G01*
X164250000Y-86400000D01*
G75*
G02*
X164200000Y-86350000I0J50000D01*
G01*
X164200000Y-85450000D01*
G75*
G02*
X164250000Y-85400000I50000J0D01*
G01*
G37*
G36*
G01*
X164250000Y-63100000D02*
X165450000Y-63100000D01*
G75*
G02*
X165500000Y-63150000I0J-50000D01*
G01*
X165500000Y-64050000D01*
G75*
G02*
X165450000Y-64100000I-50000J0D01*
G01*
X164250000Y-64100000D01*
G75*
G02*
X164200000Y-64050000I0J50000D01*
G01*
X164200000Y-63150000D01*
G75*
G02*
X164250000Y-63100000I50000J0D01*
G01*
G37*
G36*
G01*
X164250000Y-66400000D02*
X165450000Y-66400000D01*
G75*
G02*
X165500000Y-66450000I0J-50000D01*
G01*
X165500000Y-67350000D01*
G75*
G02*
X165450000Y-67400000I-50000J0D01*
G01*
X164250000Y-67400000D01*
G75*
G02*
X164200000Y-67350000I0J50000D01*
G01*
X164200000Y-66450000D01*
G75*
G02*
X164250000Y-66400000I50000J0D01*
G01*
G37*
G36*
G01*
X164250000Y-44100000D02*
X165450000Y-44100000D01*
G75*
G02*
X165500000Y-44150000I0J-50000D01*
G01*
X165500000Y-45050000D01*
G75*
G02*
X165450000Y-45100000I-50000J0D01*
G01*
X164250000Y-45100000D01*
G75*
G02*
X164200000Y-45050000I0J50000D01*
G01*
X164200000Y-44150000D01*
G75*
G02*
X164250000Y-44100000I50000J0D01*
G01*
G37*
G36*
G01*
X164250000Y-47400000D02*
X165450000Y-47400000D01*
G75*
G02*
X165500000Y-47450000I0J-50000D01*
G01*
X165500000Y-48350000D01*
G75*
G02*
X165450000Y-48400000I-50000J0D01*
G01*
X164250000Y-48400000D01*
G75*
G02*
X164200000Y-48350000I0J50000D01*
G01*
X164200000Y-47450000D01*
G75*
G02*
X164250000Y-47400000I50000J0D01*
G01*
G37*
G36*
G01*
X183250000Y-85266667D02*
X184450000Y-85266667D01*
G75*
G02*
X184500000Y-85316667I0J-50000D01*
G01*
X184500000Y-86216667D01*
G75*
G02*
X184450000Y-86266667I-50000J0D01*
G01*
X183250000Y-86266667D01*
G75*
G02*
X183200000Y-86216667I0J50000D01*
G01*
X183200000Y-85316667D01*
G75*
G02*
X183250000Y-85266667I50000J0D01*
G01*
G37*
G36*
G01*
X183250000Y-88566667D02*
X184450000Y-88566667D01*
G75*
G02*
X184500000Y-88616667I0J-50000D01*
G01*
X184500000Y-89516667D01*
G75*
G02*
X184450000Y-89566667I-50000J0D01*
G01*
X183250000Y-89566667D01*
G75*
G02*
X183200000Y-89516667I0J50000D01*
G01*
X183200000Y-88616667D01*
G75*
G02*
X183250000Y-88566667I50000J0D01*
G01*
G37*
G36*
G01*
X183250000Y-66266667D02*
X184450000Y-66266667D01*
G75*
G02*
X184500000Y-66316667I0J-50000D01*
G01*
X184500000Y-67216667D01*
G75*
G02*
X184450000Y-67266667I-50000J0D01*
G01*
X183250000Y-67266667D01*
G75*
G02*
X183200000Y-67216667I0J50000D01*
G01*
X183200000Y-66316667D01*
G75*
G02*
X183250000Y-66266667I50000J0D01*
G01*
G37*
G36*
G01*
X183250000Y-69566667D02*
X184450000Y-69566667D01*
G75*
G02*
X184500000Y-69616667I0J-50000D01*
G01*
X184500000Y-70516667D01*
G75*
G02*
X184450000Y-70566667I-50000J0D01*
G01*
X183250000Y-70566667D01*
G75*
G02*
X183200000Y-70516667I0J50000D01*
G01*
X183200000Y-69616667D01*
G75*
G02*
X183250000Y-69566667I50000J0D01*
G01*
G37*
G36*
G01*
X183250000Y-47266667D02*
X184450000Y-47266667D01*
G75*
G02*
X184500000Y-47316667I0J-50000D01*
G01*
X184500000Y-48216667D01*
G75*
G02*
X184450000Y-48266667I-50000J0D01*
G01*
X183250000Y-48266667D01*
G75*
G02*
X183200000Y-48216667I0J50000D01*
G01*
X183200000Y-47316667D01*
G75*
G02*
X183250000Y-47266667I50000J0D01*
G01*
G37*
G36*
G01*
X183250000Y-50566667D02*
X184450000Y-50566667D01*
G75*
G02*
X184500000Y-50616667I0J-50000D01*
G01*
X184500000Y-51516667D01*
G75*
G02*
X184450000Y-51566667I-50000J0D01*
G01*
X183250000Y-51566667D01*
G75*
G02*
X183200000Y-51516667I0J50000D01*
G01*
X183200000Y-50616667D01*
G75*
G02*
X183250000Y-50566667I50000J0D01*
G01*
G37*
G36*
G01*
X202250000Y-87641667D02*
X203450000Y-87641667D01*
G75*
G02*
X203500000Y-87691667I0J-50000D01*
G01*
X203500000Y-88591667D01*
G75*
G02*
X203450000Y-88641667I-50000J0D01*
G01*
X202250000Y-88641667D01*
G75*
G02*
X202200000Y-88591667I0J50000D01*
G01*
X202200000Y-87691667D01*
G75*
G02*
X202250000Y-87641667I50000J0D01*
G01*
G37*
G36*
G01*
X202250000Y-90941667D02*
X203450000Y-90941667D01*
G75*
G02*
X203500000Y-90991667I0J-50000D01*
G01*
X203500000Y-91891667D01*
G75*
G02*
X203450000Y-91941667I-50000J0D01*
G01*
X202250000Y-91941667D01*
G75*
G02*
X202200000Y-91891667I0J50000D01*
G01*
X202200000Y-90991667D01*
G75*
G02*
X202250000Y-90941667I50000J0D01*
G01*
G37*
G36*
G01*
X202250000Y-68641667D02*
X203450000Y-68641667D01*
G75*
G02*
X203500000Y-68691667I0J-50000D01*
G01*
X203500000Y-69591667D01*
G75*
G02*
X203450000Y-69641667I-50000J0D01*
G01*
X202250000Y-69641667D01*
G75*
G02*
X202200000Y-69591667I0J50000D01*
G01*
X202200000Y-68691667D01*
G75*
G02*
X202250000Y-68641667I50000J0D01*
G01*
G37*
G36*
G01*
X202250000Y-71941667D02*
X203450000Y-71941667D01*
G75*
G02*
X203500000Y-71991667I0J-50000D01*
G01*
X203500000Y-72891667D01*
G75*
G02*
X203450000Y-72941667I-50000J0D01*
G01*
X202250000Y-72941667D01*
G75*
G02*
X202200000Y-72891667I0J50000D01*
G01*
X202200000Y-71991667D01*
G75*
G02*
X202250000Y-71941667I50000J0D01*
G01*
G37*
G36*
G01*
X202250000Y-49641667D02*
X203450000Y-49641667D01*
G75*
G02*
X203500000Y-49691667I0J-50000D01*
G01*
X203500000Y-50591667D01*
G75*
G02*
X203450000Y-50641667I-50000J0D01*
G01*
X202250000Y-50641667D01*
G75*
G02*
X202200000Y-50591667I0J50000D01*
G01*
X202200000Y-49691667D01*
G75*
G02*
X202250000Y-49641667I50000J0D01*
G01*
G37*
G36*
G01*
X202250000Y-52941667D02*
X203450000Y-52941667D01*
G75*
G02*
X203500000Y-52991667I0J-50000D01*
G01*
X203500000Y-53891667D01*
G75*
G02*
X203450000Y-53941667I-50000J0D01*
G01*
X202250000Y-53941667D01*
G75*
G02*
X202200000Y-53891667I0J50000D01*
G01*
X202200000Y-52991667D01*
G75*
G02*
X202250000Y-52941667I50000J0D01*
G01*
G37*
G36*
G01*
X164250000Y-107100000D02*
X165450000Y-107100000D01*
G75*
G02*
X165500000Y-107150000I0J-50000D01*
G01*
X165500000Y-108050000D01*
G75*
G02*
X165450000Y-108100000I-50000J0D01*
G01*
X164250000Y-108100000D01*
G75*
G02*
X164200000Y-108050000I0J50000D01*
G01*
X164200000Y-107150000D01*
G75*
G02*
X164250000Y-107100000I50000J0D01*
G01*
G37*
G36*
G01*
X164250000Y-110400000D02*
X165450000Y-110400000D01*
G75*
G02*
X165500000Y-110450000I0J-50000D01*
G01*
X165500000Y-111350000D01*
G75*
G02*
X165450000Y-111400000I-50000J0D01*
G01*
X164250000Y-111400000D01*
G75*
G02*
X164200000Y-111350000I0J50000D01*
G01*
X164200000Y-110450000D01*
G75*
G02*
X164250000Y-110400000I50000J0D01*
G01*
G37*
G36*
G01*
X185547651Y-111600809D02*
X186706762Y-111911392D01*
G75*
G02*
X186742117Y-111972629I-12941J-48296D01*
G01*
X186509180Y-112841962D01*
G75*
G02*
X186447943Y-112877317I-48296J12941D01*
G01*
X185288832Y-112566734D01*
G75*
G02*
X185253477Y-112505497I12941J48296D01*
G01*
X185486414Y-111636164D01*
G75*
G02*
X185547651Y-111600809I48296J-12941D01*
G01*
G37*
G36*
G01*
X184693549Y-114788365D02*
X185852660Y-115098948D01*
G75*
G02*
X185888015Y-115160185I-12941J-48296D01*
G01*
X185655078Y-116029518D01*
G75*
G02*
X185593841Y-116064873I-48296J12941D01*
G01*
X184434730Y-115754290D01*
G75*
G02*
X184399375Y-115693053I12941J48296D01*
G01*
X184632312Y-114823720D01*
G75*
G02*
X184693549Y-114788365I48296J-12941D01*
G01*
G37*
G36*
G01*
X204954709Y-121460495D02*
X205993939Y-122060495D01*
G75*
G02*
X206012240Y-122128796I-25000J-43301D01*
G01*
X205562240Y-122908218D01*
G75*
G02*
X205493939Y-122926519I-43301J25000D01*
G01*
X204454709Y-122326519D01*
G75*
G02*
X204436408Y-122258218I25000J43301D01*
G01*
X204886408Y-121478796D01*
G75*
G02*
X204954709Y-121460495I43301J-25000D01*
G01*
G37*
G36*
G01*
X203304709Y-124318379D02*
X204343939Y-124918379D01*
G75*
G02*
X204362240Y-124986680I-25000J-43301D01*
G01*
X203912240Y-125766102D01*
G75*
G02*
X203843939Y-125784403I-43301J25000D01*
G01*
X202804709Y-125184403D01*
G75*
G02*
X202786408Y-125116102I25000J43301D01*
G01*
X203236408Y-124336680D01*
G75*
G02*
X203304709Y-124318379I43301J-25000D01*
G01*
G37*
G36*
G01*
X221148611Y-136007136D02*
X221997139Y-136855664D01*
G75*
G02*
X221997139Y-136926374I-35355J-35355D01*
G01*
X221360743Y-137562770D01*
G75*
G02*
X221290033Y-137562770I-35355J35355D01*
G01*
X220441505Y-136714242D01*
G75*
G02*
X220441505Y-136643532I35355J35355D01*
G01*
X221077901Y-136007136D01*
G75*
G02*
X221148611Y-136007136I35355J-35355D01*
G01*
G37*
G36*
G01*
X218815159Y-138340588D02*
X219663687Y-139189116D01*
G75*
G02*
X219663687Y-139259826I-35355J-35355D01*
G01*
X219027291Y-139896222D01*
G75*
G02*
X218956581Y-139896222I-35355J35355D01*
G01*
X218108053Y-139047694D01*
G75*
G02*
X218108053Y-138976984I35355J35355D01*
G01*
X218744449Y-138340588D01*
G75*
G02*
X218815159Y-138340588I35355J-35355D01*
G01*
G37*
D14*
X207084000Y-51836667D03*
X222324000Y-51836667D03*
D15*
X211304000Y-51836667D03*
X218104000Y-51836667D03*
G36*
G01*
X208874000Y-52436667D02*
X208874000Y-51236667D01*
G75*
G02*
X208924000Y-51186667I50000J0D01*
G01*
X209524000Y-51186667D01*
G75*
G02*
X209574000Y-51236667I0J-50000D01*
G01*
X209574000Y-52436667D01*
G75*
G02*
X209524000Y-52486667I-50000J0D01*
G01*
X208924000Y-52486667D01*
G75*
G02*
X208874000Y-52436667I0J50000D01*
G01*
G37*
G36*
G01*
X209774000Y-52436667D02*
X209774000Y-51236667D01*
G75*
G02*
X209824000Y-51186667I50000J0D01*
G01*
X210424000Y-51186667D01*
G75*
G02*
X210474000Y-51236667I0J-50000D01*
G01*
X210474000Y-52436667D01*
G75*
G02*
X210424000Y-52486667I-50000J0D01*
G01*
X209824000Y-52486667D01*
G75*
G02*
X209774000Y-52436667I0J50000D01*
G01*
G37*
G36*
G01*
X218934000Y-52436667D02*
X218934000Y-51236667D01*
G75*
G02*
X218984000Y-51186667I50000J0D01*
G01*
X219584000Y-51186667D01*
G75*
G02*
X219634000Y-51236667I0J-50000D01*
G01*
X219634000Y-52436667D01*
G75*
G02*
X219584000Y-52486667I-50000J0D01*
G01*
X218984000Y-52486667D01*
G75*
G02*
X218934000Y-52436667I0J50000D01*
G01*
G37*
G36*
G01*
X219834000Y-52436667D02*
X219834000Y-51236667D01*
G75*
G02*
X219884000Y-51186667I50000J0D01*
G01*
X220484000Y-51186667D01*
G75*
G02*
X220534000Y-51236667I0J-50000D01*
G01*
X220534000Y-52436667D01*
G75*
G02*
X220484000Y-52486667I-50000J0D01*
G01*
X219884000Y-52486667D01*
G75*
G02*
X219834000Y-52436667I0J50000D01*
G01*
G37*
D14*
X207084000Y-54376667D03*
X222324000Y-54376667D03*
D15*
X211304000Y-54376667D03*
X218104000Y-54376667D03*
G36*
G01*
X208874000Y-54976667D02*
X208874000Y-53776667D01*
G75*
G02*
X208924000Y-53726667I50000J0D01*
G01*
X209524000Y-53726667D01*
G75*
G02*
X209574000Y-53776667I0J-50000D01*
G01*
X209574000Y-54976667D01*
G75*
G02*
X209524000Y-55026667I-50000J0D01*
G01*
X208924000Y-55026667D01*
G75*
G02*
X208874000Y-54976667I0J50000D01*
G01*
G37*
G36*
G01*
X209774000Y-54976667D02*
X209774000Y-53776667D01*
G75*
G02*
X209824000Y-53726667I50000J0D01*
G01*
X210424000Y-53726667D01*
G75*
G02*
X210474000Y-53776667I0J-50000D01*
G01*
X210474000Y-54976667D01*
G75*
G02*
X210424000Y-55026667I-50000J0D01*
G01*
X209824000Y-55026667D01*
G75*
G02*
X209774000Y-54976667I0J50000D01*
G01*
G37*
G36*
G01*
X218934000Y-54976667D02*
X218934000Y-53776667D01*
G75*
G02*
X218984000Y-53726667I50000J0D01*
G01*
X219584000Y-53726667D01*
G75*
G02*
X219634000Y-53776667I0J-50000D01*
G01*
X219634000Y-54976667D01*
G75*
G02*
X219584000Y-55026667I-50000J0D01*
G01*
X218984000Y-55026667D01*
G75*
G02*
X218934000Y-54976667I0J50000D01*
G01*
G37*
G36*
G01*
X219834000Y-54976667D02*
X219834000Y-53776667D01*
G75*
G02*
X219884000Y-53726667I50000J0D01*
G01*
X220484000Y-53726667D01*
G75*
G02*
X220534000Y-53776667I0J-50000D01*
G01*
X220534000Y-54976667D01*
G75*
G02*
X220484000Y-55026667I-50000J0D01*
G01*
X219884000Y-55026667D01*
G75*
G02*
X219834000Y-54976667I0J50000D01*
G01*
G37*
D14*
X207084000Y-56916667D03*
X222324000Y-56916667D03*
D15*
X211304000Y-56916667D03*
X218104000Y-56916667D03*
G36*
G01*
X208874000Y-57516667D02*
X208874000Y-56316667D01*
G75*
G02*
X208924000Y-56266667I50000J0D01*
G01*
X209524000Y-56266667D01*
G75*
G02*
X209574000Y-56316667I0J-50000D01*
G01*
X209574000Y-57516667D01*
G75*
G02*
X209524000Y-57566667I-50000J0D01*
G01*
X208924000Y-57566667D01*
G75*
G02*
X208874000Y-57516667I0J50000D01*
G01*
G37*
G36*
G01*
X209774000Y-57516667D02*
X209774000Y-56316667D01*
G75*
G02*
X209824000Y-56266667I50000J0D01*
G01*
X210424000Y-56266667D01*
G75*
G02*
X210474000Y-56316667I0J-50000D01*
G01*
X210474000Y-57516667D01*
G75*
G02*
X210424000Y-57566667I-50000J0D01*
G01*
X209824000Y-57566667D01*
G75*
G02*
X209774000Y-57516667I0J50000D01*
G01*
G37*
G36*
G01*
X218934000Y-57516667D02*
X218934000Y-56316667D01*
G75*
G02*
X218984000Y-56266667I50000J0D01*
G01*
X219584000Y-56266667D01*
G75*
G02*
X219634000Y-56316667I0J-50000D01*
G01*
X219634000Y-57516667D01*
G75*
G02*
X219584000Y-57566667I-50000J0D01*
G01*
X218984000Y-57566667D01*
G75*
G02*
X218934000Y-57516667I0J50000D01*
G01*
G37*
G36*
G01*
X219834000Y-57516667D02*
X219834000Y-56316667D01*
G75*
G02*
X219884000Y-56266667I50000J0D01*
G01*
X220484000Y-56266667D01*
G75*
G02*
X220534000Y-56316667I0J-50000D01*
G01*
X220534000Y-57516667D01*
G75*
G02*
X220484000Y-57566667I-50000J0D01*
G01*
X219884000Y-57566667D01*
G75*
G02*
X219834000Y-57516667I0J50000D01*
G01*
G37*
D14*
X207084000Y-59456667D03*
X222324000Y-59456667D03*
D15*
X211304000Y-59456667D03*
X218104000Y-59456667D03*
G36*
G01*
X208874000Y-60056667D02*
X208874000Y-58856667D01*
G75*
G02*
X208924000Y-58806667I50000J0D01*
G01*
X209524000Y-58806667D01*
G75*
G02*
X209574000Y-58856667I0J-50000D01*
G01*
X209574000Y-60056667D01*
G75*
G02*
X209524000Y-60106667I-50000J0D01*
G01*
X208924000Y-60106667D01*
G75*
G02*
X208874000Y-60056667I0J50000D01*
G01*
G37*
G36*
G01*
X209774000Y-60056667D02*
X209774000Y-58856667D01*
G75*
G02*
X209824000Y-58806667I50000J0D01*
G01*
X210424000Y-58806667D01*
G75*
G02*
X210474000Y-58856667I0J-50000D01*
G01*
X210474000Y-60056667D01*
G75*
G02*
X210424000Y-60106667I-50000J0D01*
G01*
X209824000Y-60106667D01*
G75*
G02*
X209774000Y-60056667I0J50000D01*
G01*
G37*
G36*
G01*
X218934000Y-60056667D02*
X218934000Y-58856667D01*
G75*
G02*
X218984000Y-58806667I50000J0D01*
G01*
X219584000Y-58806667D01*
G75*
G02*
X219634000Y-58856667I0J-50000D01*
G01*
X219634000Y-60056667D01*
G75*
G02*
X219584000Y-60106667I-50000J0D01*
G01*
X218984000Y-60106667D01*
G75*
G02*
X218934000Y-60056667I0J50000D01*
G01*
G37*
G36*
G01*
X219834000Y-60056667D02*
X219834000Y-58856667D01*
G75*
G02*
X219884000Y-58806667I50000J0D01*
G01*
X220484000Y-58806667D01*
G75*
G02*
X220534000Y-58856667I0J-50000D01*
G01*
X220534000Y-60056667D01*
G75*
G02*
X220484000Y-60106667I-50000J0D01*
G01*
X219884000Y-60106667D01*
G75*
G02*
X219834000Y-60056667I0J50000D01*
G01*
G37*
D14*
X207084000Y-61996667D03*
X222324000Y-61996667D03*
D15*
X211304000Y-61996667D03*
X218104000Y-61996667D03*
G36*
G01*
X208874000Y-62596667D02*
X208874000Y-61396667D01*
G75*
G02*
X208924000Y-61346667I50000J0D01*
G01*
X209524000Y-61346667D01*
G75*
G02*
X209574000Y-61396667I0J-50000D01*
G01*
X209574000Y-62596667D01*
G75*
G02*
X209524000Y-62646667I-50000J0D01*
G01*
X208924000Y-62646667D01*
G75*
G02*
X208874000Y-62596667I0J50000D01*
G01*
G37*
G36*
G01*
X209774000Y-62596667D02*
X209774000Y-61396667D01*
G75*
G02*
X209824000Y-61346667I50000J0D01*
G01*
X210424000Y-61346667D01*
G75*
G02*
X210474000Y-61396667I0J-50000D01*
G01*
X210474000Y-62596667D01*
G75*
G02*
X210424000Y-62646667I-50000J0D01*
G01*
X209824000Y-62646667D01*
G75*
G02*
X209774000Y-62596667I0J50000D01*
G01*
G37*
G36*
G01*
X218934000Y-62596667D02*
X218934000Y-61396667D01*
G75*
G02*
X218984000Y-61346667I50000J0D01*
G01*
X219584000Y-61346667D01*
G75*
G02*
X219634000Y-61396667I0J-50000D01*
G01*
X219634000Y-62596667D01*
G75*
G02*
X219584000Y-62646667I-50000J0D01*
G01*
X218984000Y-62646667D01*
G75*
G02*
X218934000Y-62596667I0J50000D01*
G01*
G37*
G36*
G01*
X219834000Y-62596667D02*
X219834000Y-61396667D01*
G75*
G02*
X219884000Y-61346667I50000J0D01*
G01*
X220484000Y-61346667D01*
G75*
G02*
X220534000Y-61396667I0J-50000D01*
G01*
X220534000Y-62596667D01*
G75*
G02*
X220484000Y-62646667I-50000J0D01*
G01*
X219884000Y-62646667D01*
G75*
G02*
X219834000Y-62596667I0J50000D01*
G01*
G37*
D14*
X207084000Y-64536667D03*
X222324000Y-64536667D03*
D15*
X211304000Y-64536667D03*
X218104000Y-64536667D03*
G36*
G01*
X208874000Y-65136667D02*
X208874000Y-63936667D01*
G75*
G02*
X208924000Y-63886667I50000J0D01*
G01*
X209524000Y-63886667D01*
G75*
G02*
X209574000Y-63936667I0J-50000D01*
G01*
X209574000Y-65136667D01*
G75*
G02*
X209524000Y-65186667I-50000J0D01*
G01*
X208924000Y-65186667D01*
G75*
G02*
X208874000Y-65136667I0J50000D01*
G01*
G37*
G36*
G01*
X209774000Y-65136667D02*
X209774000Y-63936667D01*
G75*
G02*
X209824000Y-63886667I50000J0D01*
G01*
X210424000Y-63886667D01*
G75*
G02*
X210474000Y-63936667I0J-50000D01*
G01*
X210474000Y-65136667D01*
G75*
G02*
X210424000Y-65186667I-50000J0D01*
G01*
X209824000Y-65186667D01*
G75*
G02*
X209774000Y-65136667I0J50000D01*
G01*
G37*
G36*
G01*
X218934000Y-65136667D02*
X218934000Y-63936667D01*
G75*
G02*
X218984000Y-63886667I50000J0D01*
G01*
X219584000Y-63886667D01*
G75*
G02*
X219634000Y-63936667I0J-50000D01*
G01*
X219634000Y-65136667D01*
G75*
G02*
X219584000Y-65186667I-50000J0D01*
G01*
X218984000Y-65186667D01*
G75*
G02*
X218934000Y-65136667I0J50000D01*
G01*
G37*
G36*
G01*
X219834000Y-65136667D02*
X219834000Y-63936667D01*
G75*
G02*
X219884000Y-63886667I50000J0D01*
G01*
X220484000Y-63886667D01*
G75*
G02*
X220534000Y-63936667I0J-50000D01*
G01*
X220534000Y-65136667D01*
G75*
G02*
X220484000Y-65186667I-50000J0D01*
G01*
X219884000Y-65186667D01*
G75*
G02*
X219834000Y-65136667I0J50000D01*
G01*
G37*
D14*
X207084000Y-67076667D03*
X222324000Y-67076667D03*
D15*
X211304000Y-67076667D03*
X218104000Y-67076667D03*
G36*
G01*
X208874000Y-67676667D02*
X208874000Y-66476667D01*
G75*
G02*
X208924000Y-66426667I50000J0D01*
G01*
X209524000Y-66426667D01*
G75*
G02*
X209574000Y-66476667I0J-50000D01*
G01*
X209574000Y-67676667D01*
G75*
G02*
X209524000Y-67726667I-50000J0D01*
G01*
X208924000Y-67726667D01*
G75*
G02*
X208874000Y-67676667I0J50000D01*
G01*
G37*
G36*
G01*
X209774000Y-67676667D02*
X209774000Y-66476667D01*
G75*
G02*
X209824000Y-66426667I50000J0D01*
G01*
X210424000Y-66426667D01*
G75*
G02*
X210474000Y-66476667I0J-50000D01*
G01*
X210474000Y-67676667D01*
G75*
G02*
X210424000Y-67726667I-50000J0D01*
G01*
X209824000Y-67726667D01*
G75*
G02*
X209774000Y-67676667I0J50000D01*
G01*
G37*
G36*
G01*
X218934000Y-67676667D02*
X218934000Y-66476667D01*
G75*
G02*
X218984000Y-66426667I50000J0D01*
G01*
X219584000Y-66426667D01*
G75*
G02*
X219634000Y-66476667I0J-50000D01*
G01*
X219634000Y-67676667D01*
G75*
G02*
X219584000Y-67726667I-50000J0D01*
G01*
X218984000Y-67726667D01*
G75*
G02*
X218934000Y-67676667I0J50000D01*
G01*
G37*
G36*
G01*
X219834000Y-67676667D02*
X219834000Y-66476667D01*
G75*
G02*
X219884000Y-66426667I50000J0D01*
G01*
X220484000Y-66426667D01*
G75*
G02*
X220534000Y-66476667I0J-50000D01*
G01*
X220534000Y-67676667D01*
G75*
G02*
X220484000Y-67726667I-50000J0D01*
G01*
X219884000Y-67726667D01*
G75*
G02*
X219834000Y-67676667I0J50000D01*
G01*
G37*
D14*
X207084000Y-69616667D03*
X222324000Y-69616667D03*
D15*
X211304000Y-69616667D03*
X218104000Y-69616667D03*
G36*
G01*
X208874000Y-70216667D02*
X208874000Y-69016667D01*
G75*
G02*
X208924000Y-68966667I50000J0D01*
G01*
X209524000Y-68966667D01*
G75*
G02*
X209574000Y-69016667I0J-50000D01*
G01*
X209574000Y-70216667D01*
G75*
G02*
X209524000Y-70266667I-50000J0D01*
G01*
X208924000Y-70266667D01*
G75*
G02*
X208874000Y-70216667I0J50000D01*
G01*
G37*
G36*
G01*
X209774000Y-70216667D02*
X209774000Y-69016667D01*
G75*
G02*
X209824000Y-68966667I50000J0D01*
G01*
X210424000Y-68966667D01*
G75*
G02*
X210474000Y-69016667I0J-50000D01*
G01*
X210474000Y-70216667D01*
G75*
G02*
X210424000Y-70266667I-50000J0D01*
G01*
X209824000Y-70266667D01*
G75*
G02*
X209774000Y-70216667I0J50000D01*
G01*
G37*
G36*
G01*
X218934000Y-70216667D02*
X218934000Y-69016667D01*
G75*
G02*
X218984000Y-68966667I50000J0D01*
G01*
X219584000Y-68966667D01*
G75*
G02*
X219634000Y-69016667I0J-50000D01*
G01*
X219634000Y-70216667D01*
G75*
G02*
X219584000Y-70266667I-50000J0D01*
G01*
X218984000Y-70266667D01*
G75*
G02*
X218934000Y-70216667I0J50000D01*
G01*
G37*
G36*
G01*
X219834000Y-70216667D02*
X219834000Y-69016667D01*
G75*
G02*
X219884000Y-68966667I50000J0D01*
G01*
X220484000Y-68966667D01*
G75*
G02*
X220534000Y-69016667I0J-50000D01*
G01*
X220534000Y-70216667D01*
G75*
G02*
X220484000Y-70266667I-50000J0D01*
G01*
X219884000Y-70266667D01*
G75*
G02*
X219834000Y-70216667I0J50000D01*
G01*
G37*
D14*
X207084000Y-72156667D03*
X222324000Y-72156667D03*
D15*
X211304000Y-72156667D03*
X218104000Y-72156667D03*
G36*
G01*
X208874000Y-72756667D02*
X208874000Y-71556667D01*
G75*
G02*
X208924000Y-71506667I50000J0D01*
G01*
X209524000Y-71506667D01*
G75*
G02*
X209574000Y-71556667I0J-50000D01*
G01*
X209574000Y-72756667D01*
G75*
G02*
X209524000Y-72806667I-50000J0D01*
G01*
X208924000Y-72806667D01*
G75*
G02*
X208874000Y-72756667I0J50000D01*
G01*
G37*
G36*
G01*
X209774000Y-72756667D02*
X209774000Y-71556667D01*
G75*
G02*
X209824000Y-71506667I50000J0D01*
G01*
X210424000Y-71506667D01*
G75*
G02*
X210474000Y-71556667I0J-50000D01*
G01*
X210474000Y-72756667D01*
G75*
G02*
X210424000Y-72806667I-50000J0D01*
G01*
X209824000Y-72806667D01*
G75*
G02*
X209774000Y-72756667I0J50000D01*
G01*
G37*
G36*
G01*
X218934000Y-72756667D02*
X218934000Y-71556667D01*
G75*
G02*
X218984000Y-71506667I50000J0D01*
G01*
X219584000Y-71506667D01*
G75*
G02*
X219634000Y-71556667I0J-50000D01*
G01*
X219634000Y-72756667D01*
G75*
G02*
X219584000Y-72806667I-50000J0D01*
G01*
X218984000Y-72806667D01*
G75*
G02*
X218934000Y-72756667I0J50000D01*
G01*
G37*
G36*
G01*
X219834000Y-72756667D02*
X219834000Y-71556667D01*
G75*
G02*
X219884000Y-71506667I50000J0D01*
G01*
X220484000Y-71506667D01*
G75*
G02*
X220534000Y-71556667I0J-50000D01*
G01*
X220534000Y-72756667D01*
G75*
G02*
X220484000Y-72806667I-50000J0D01*
G01*
X219884000Y-72806667D01*
G75*
G02*
X219834000Y-72756667I0J50000D01*
G01*
G37*
D14*
X207084000Y-74696667D03*
X222324000Y-74696667D03*
D15*
X211304000Y-74696667D03*
X218104000Y-74696667D03*
G36*
G01*
X208874000Y-75296667D02*
X208874000Y-74096667D01*
G75*
G02*
X208924000Y-74046667I50000J0D01*
G01*
X209524000Y-74046667D01*
G75*
G02*
X209574000Y-74096667I0J-50000D01*
G01*
X209574000Y-75296667D01*
G75*
G02*
X209524000Y-75346667I-50000J0D01*
G01*
X208924000Y-75346667D01*
G75*
G02*
X208874000Y-75296667I0J50000D01*
G01*
G37*
G36*
G01*
X209774000Y-75296667D02*
X209774000Y-74096667D01*
G75*
G02*
X209824000Y-74046667I50000J0D01*
G01*
X210424000Y-74046667D01*
G75*
G02*
X210474000Y-74096667I0J-50000D01*
G01*
X210474000Y-75296667D01*
G75*
G02*
X210424000Y-75346667I-50000J0D01*
G01*
X209824000Y-75346667D01*
G75*
G02*
X209774000Y-75296667I0J50000D01*
G01*
G37*
G36*
G01*
X218934000Y-75296667D02*
X218934000Y-74096667D01*
G75*
G02*
X218984000Y-74046667I50000J0D01*
G01*
X219584000Y-74046667D01*
G75*
G02*
X219634000Y-74096667I0J-50000D01*
G01*
X219634000Y-75296667D01*
G75*
G02*
X219584000Y-75346667I-50000J0D01*
G01*
X218984000Y-75346667D01*
G75*
G02*
X218934000Y-75296667I0J50000D01*
G01*
G37*
G36*
G01*
X219834000Y-75296667D02*
X219834000Y-74096667D01*
G75*
G02*
X219884000Y-74046667I50000J0D01*
G01*
X220484000Y-74046667D01*
G75*
G02*
X220534000Y-74096667I0J-50000D01*
G01*
X220534000Y-75296667D01*
G75*
G02*
X220484000Y-75346667I-50000J0D01*
G01*
X219884000Y-75346667D01*
G75*
G02*
X219834000Y-75296667I0J50000D01*
G01*
G37*
D14*
X207084000Y-77236667D03*
X222324000Y-77236667D03*
D15*
X211304000Y-77236667D03*
X218104000Y-77236667D03*
G36*
G01*
X208874000Y-77836667D02*
X208874000Y-76636667D01*
G75*
G02*
X208924000Y-76586667I50000J0D01*
G01*
X209524000Y-76586667D01*
G75*
G02*
X209574000Y-76636667I0J-50000D01*
G01*
X209574000Y-77836667D01*
G75*
G02*
X209524000Y-77886667I-50000J0D01*
G01*
X208924000Y-77886667D01*
G75*
G02*
X208874000Y-77836667I0J50000D01*
G01*
G37*
G36*
G01*
X209774000Y-77836667D02*
X209774000Y-76636667D01*
G75*
G02*
X209824000Y-76586667I50000J0D01*
G01*
X210424000Y-76586667D01*
G75*
G02*
X210474000Y-76636667I0J-50000D01*
G01*
X210474000Y-77836667D01*
G75*
G02*
X210424000Y-77886667I-50000J0D01*
G01*
X209824000Y-77886667D01*
G75*
G02*
X209774000Y-77836667I0J50000D01*
G01*
G37*
G36*
G01*
X218934000Y-77836667D02*
X218934000Y-76636667D01*
G75*
G02*
X218984000Y-76586667I50000J0D01*
G01*
X219584000Y-76586667D01*
G75*
G02*
X219634000Y-76636667I0J-50000D01*
G01*
X219634000Y-77836667D01*
G75*
G02*
X219584000Y-77886667I-50000J0D01*
G01*
X218984000Y-77886667D01*
G75*
G02*
X218934000Y-77836667I0J50000D01*
G01*
G37*
G36*
G01*
X219834000Y-77836667D02*
X219834000Y-76636667D01*
G75*
G02*
X219884000Y-76586667I50000J0D01*
G01*
X220484000Y-76586667D01*
G75*
G02*
X220534000Y-76636667I0J-50000D01*
G01*
X220534000Y-77836667D01*
G75*
G02*
X220484000Y-77886667I-50000J0D01*
G01*
X219884000Y-77886667D01*
G75*
G02*
X219834000Y-77836667I0J50000D01*
G01*
G37*
D14*
X207084000Y-79776667D03*
X222324000Y-79776667D03*
D15*
X211304000Y-79776667D03*
X218104000Y-79776667D03*
G36*
G01*
X208874000Y-80376667D02*
X208874000Y-79176667D01*
G75*
G02*
X208924000Y-79126667I50000J0D01*
G01*
X209524000Y-79126667D01*
G75*
G02*
X209574000Y-79176667I0J-50000D01*
G01*
X209574000Y-80376667D01*
G75*
G02*
X209524000Y-80426667I-50000J0D01*
G01*
X208924000Y-80426667D01*
G75*
G02*
X208874000Y-80376667I0J50000D01*
G01*
G37*
G36*
G01*
X209774000Y-80376667D02*
X209774000Y-79176667D01*
G75*
G02*
X209824000Y-79126667I50000J0D01*
G01*
X210424000Y-79126667D01*
G75*
G02*
X210474000Y-79176667I0J-50000D01*
G01*
X210474000Y-80376667D01*
G75*
G02*
X210424000Y-80426667I-50000J0D01*
G01*
X209824000Y-80426667D01*
G75*
G02*
X209774000Y-80376667I0J50000D01*
G01*
G37*
G36*
G01*
X218934000Y-80376667D02*
X218934000Y-79176667D01*
G75*
G02*
X218984000Y-79126667I50000J0D01*
G01*
X219584000Y-79126667D01*
G75*
G02*
X219634000Y-79176667I0J-50000D01*
G01*
X219634000Y-80376667D01*
G75*
G02*
X219584000Y-80426667I-50000J0D01*
G01*
X218984000Y-80426667D01*
G75*
G02*
X218934000Y-80376667I0J50000D01*
G01*
G37*
G36*
G01*
X219834000Y-80376667D02*
X219834000Y-79176667D01*
G75*
G02*
X219884000Y-79126667I50000J0D01*
G01*
X220484000Y-79126667D01*
G75*
G02*
X220534000Y-79176667I0J-50000D01*
G01*
X220534000Y-80376667D01*
G75*
G02*
X220484000Y-80426667I-50000J0D01*
G01*
X219884000Y-80426667D01*
G75*
G02*
X219834000Y-80376667I0J50000D01*
G01*
G37*
G36*
G01*
X210167000Y-85716667D02*
X208967000Y-85716667D01*
G75*
G02*
X208917000Y-85666667I0J50000D01*
G01*
X208917000Y-85066667D01*
G75*
G02*
X208967000Y-85016667I50000J0D01*
G01*
X210167000Y-85016667D01*
G75*
G02*
X210217000Y-85066667I0J-50000D01*
G01*
X210217000Y-85666667D01*
G75*
G02*
X210167000Y-85716667I-50000J0D01*
G01*
G37*
G36*
G01*
X212707000Y-85716667D02*
X211507000Y-85716667D01*
G75*
G02*
X211457000Y-85666667I0J50000D01*
G01*
X211457000Y-85066667D01*
G75*
G02*
X211507000Y-85016667I50000J0D01*
G01*
X212707000Y-85016667D01*
G75*
G02*
X212757000Y-85066667I0J-50000D01*
G01*
X212757000Y-85666667D01*
G75*
G02*
X212707000Y-85716667I-50000J0D01*
G01*
G37*
G36*
G01*
X217787000Y-85716667D02*
X216587000Y-85716667D01*
G75*
G02*
X216537000Y-85666667I0J50000D01*
G01*
X216537000Y-85066667D01*
G75*
G02*
X216587000Y-85016667I50000J0D01*
G01*
X217787000Y-85016667D01*
G75*
G02*
X217837000Y-85066667I0J-50000D01*
G01*
X217837000Y-85666667D01*
G75*
G02*
X217787000Y-85716667I-50000J0D01*
G01*
G37*
G36*
G01*
X220327000Y-85716667D02*
X219127000Y-85716667D01*
G75*
G02*
X219077000Y-85666667I0J50000D01*
G01*
X219077000Y-85066667D01*
G75*
G02*
X219127000Y-85016667I50000J0D01*
G01*
X220327000Y-85016667D01*
G75*
G02*
X220377000Y-85066667I0J-50000D01*
G01*
X220377000Y-85666667D01*
G75*
G02*
X220327000Y-85716667I-50000J0D01*
G01*
G37*
G36*
G01*
X210167000Y-86616667D02*
X208967000Y-86616667D01*
G75*
G02*
X208917000Y-86566667I0J50000D01*
G01*
X208917000Y-85966667D01*
G75*
G02*
X208967000Y-85916667I50000J0D01*
G01*
X210167000Y-85916667D01*
G75*
G02*
X210217000Y-85966667I0J-50000D01*
G01*
X210217000Y-86566667D01*
G75*
G02*
X210167000Y-86616667I-50000J0D01*
G01*
G37*
G36*
G01*
X212707000Y-86616667D02*
X211507000Y-86616667D01*
G75*
G02*
X211457000Y-86566667I0J50000D01*
G01*
X211457000Y-85966667D01*
G75*
G02*
X211507000Y-85916667I50000J0D01*
G01*
X212707000Y-85916667D01*
G75*
G02*
X212757000Y-85966667I0J-50000D01*
G01*
X212757000Y-86566667D01*
G75*
G02*
X212707000Y-86616667I-50000J0D01*
G01*
G37*
G36*
G01*
X217787000Y-86616667D02*
X216587000Y-86616667D01*
G75*
G02*
X216537000Y-86566667I0J50000D01*
G01*
X216537000Y-85966667D01*
G75*
G02*
X216587000Y-85916667I50000J0D01*
G01*
X217787000Y-85916667D01*
G75*
G02*
X217837000Y-85966667I0J-50000D01*
G01*
X217837000Y-86566667D01*
G75*
G02*
X217787000Y-86616667I-50000J0D01*
G01*
G37*
G36*
G01*
X220327000Y-86616667D02*
X219127000Y-86616667D01*
G75*
G02*
X219077000Y-86566667I0J50000D01*
G01*
X219077000Y-85966667D01*
G75*
G02*
X219127000Y-85916667I50000J0D01*
G01*
X220327000Y-85916667D01*
G75*
G02*
X220377000Y-85966667I0J-50000D01*
G01*
X220377000Y-86566667D01*
G75*
G02*
X220327000Y-86616667I-50000J0D01*
G01*
G37*
D16*
X209567000Y-83616667D03*
X212107000Y-83616667D03*
X214647000Y-83616667D03*
X217187000Y-83616667D03*
D14*
X219727000Y-83616667D03*
G36*
G01*
X224525000Y-89566667D02*
X223725000Y-89566667D01*
G75*
G02*
X223675000Y-89516667I0J50000D01*
G01*
X223675000Y-88516667D01*
G75*
G02*
X223725000Y-88466667I50000J0D01*
G01*
X224525000Y-88466667D01*
G75*
G02*
X224575000Y-88516667I0J-50000D01*
G01*
X224575000Y-89516667D01*
G75*
G02*
X224525000Y-89566667I-50000J0D01*
G01*
G37*
G36*
G01*
X222315000Y-89566667D02*
X221515000Y-89566667D01*
G75*
G02*
X221465000Y-89516667I0J50000D01*
G01*
X221465000Y-88516667D01*
G75*
G02*
X221515000Y-88466667I50000J0D01*
G01*
X222315000Y-88466667D01*
G75*
G02*
X222365000Y-88516667I0J-50000D01*
G01*
X222365000Y-89516667D01*
G75*
G02*
X222315000Y-89566667I-50000J0D01*
G01*
G37*
G36*
G01*
X222315000Y-96866667D02*
X221515000Y-96866667D01*
G75*
G02*
X221465000Y-96816667I0J50000D01*
G01*
X221465000Y-95816667D01*
G75*
G02*
X221515000Y-95766667I50000J0D01*
G01*
X222315000Y-95766667D01*
G75*
G02*
X222365000Y-95816667I0J-50000D01*
G01*
X222365000Y-96816667D01*
G75*
G02*
X222315000Y-96866667I-50000J0D01*
G01*
G37*
G36*
G01*
X224525000Y-96866667D02*
X223725000Y-96866667D01*
G75*
G02*
X223675000Y-96816667I0J50000D01*
G01*
X223675000Y-95816667D01*
G75*
G02*
X223725000Y-95766667I50000J0D01*
G01*
X224525000Y-95766667D01*
G75*
G02*
X224575000Y-95816667I0J-50000D01*
G01*
X224575000Y-96816667D01*
G75*
G02*
X224525000Y-96866667I-50000J0D01*
G01*
G37*
G36*
G01*
X222015000Y-95316667D02*
X220515000Y-95316667D01*
G75*
G02*
X220465000Y-95266667I0J50000D01*
G01*
X220465000Y-94566667D01*
G75*
G02*
X220515000Y-94516667I50000J0D01*
G01*
X222015000Y-94516667D01*
G75*
G02*
X222065000Y-94566667I0J-50000D01*
G01*
X222065000Y-95266667D01*
G75*
G02*
X222015000Y-95316667I-50000J0D01*
G01*
G37*
G36*
G01*
X222015000Y-92316667D02*
X220515000Y-92316667D01*
G75*
G02*
X220465000Y-92266667I0J50000D01*
G01*
X220465000Y-91566667D01*
G75*
G02*
X220515000Y-91516667I50000J0D01*
G01*
X222015000Y-91516667D01*
G75*
G02*
X222065000Y-91566667I0J-50000D01*
G01*
X222065000Y-92266667D01*
G75*
G02*
X222015000Y-92316667I-50000J0D01*
G01*
G37*
G36*
G01*
X222015000Y-90816667D02*
X220515000Y-90816667D01*
G75*
G02*
X220465000Y-90766667I0J50000D01*
G01*
X220465000Y-90066667D01*
G75*
G02*
X220515000Y-90016667I50000J0D01*
G01*
X222015000Y-90016667D01*
G75*
G02*
X222065000Y-90066667I0J-50000D01*
G01*
X222065000Y-90766667D01*
G75*
G02*
X222015000Y-90816667I-50000J0D01*
G01*
G37*
D17*
X223025000Y-91166667D03*
X223025000Y-94166667D03*
D18*
X214704000Y-47456667D03*
X214704000Y-50206667D03*
G36*
G01*
X218154000Y-47481667D02*
X218154000Y-48481667D01*
G75*
G02*
X218104000Y-48531667I-50000J0D01*
G01*
X216554000Y-48531667D01*
G75*
G02*
X216504000Y-48481667I0J50000D01*
G01*
X216504000Y-47481667D01*
G75*
G02*
X216554000Y-47431667I50000J0D01*
G01*
X218104000Y-47431667D01*
G75*
G02*
X218154000Y-47481667I0J-50000D01*
G01*
G37*
G36*
G01*
X218154000Y-49181667D02*
X218154000Y-50181667D01*
G75*
G02*
X218104000Y-50231667I-50000J0D01*
G01*
X216554000Y-50231667D01*
G75*
G02*
X216504000Y-50181667I0J50000D01*
G01*
X216504000Y-49181667D01*
G75*
G02*
X216554000Y-49131667I50000J0D01*
G01*
X218104000Y-49131667D01*
G75*
G02*
X218154000Y-49181667I0J-50000D01*
G01*
G37*
G36*
G01*
X212904000Y-47481667D02*
X212904000Y-48481667D01*
G75*
G02*
X212854000Y-48531667I-50000J0D01*
G01*
X211304000Y-48531667D01*
G75*
G02*
X211254000Y-48481667I0J50000D01*
G01*
X211254000Y-47481667D01*
G75*
G02*
X211304000Y-47431667I50000J0D01*
G01*
X212854000Y-47431667D01*
G75*
G02*
X212904000Y-47481667I0J-50000D01*
G01*
G37*
G36*
G01*
X212904000Y-49181667D02*
X212904000Y-50181667D01*
G75*
G02*
X212854000Y-50231667I-50000J0D01*
G01*
X211304000Y-50231667D01*
G75*
G02*
X211254000Y-50181667I0J50000D01*
G01*
X211254000Y-49181667D01*
G75*
G02*
X211304000Y-49131667I50000J0D01*
G01*
X212854000Y-49131667D01*
G75*
G02*
X212904000Y-49181667I0J-50000D01*
G01*
G37*
D19*
X211750000Y-92416667D03*
X211750000Y-90416667D03*
G36*
X213985355Y-92452022D02*
G01*
X213385355Y-93052022D01*
X213350000Y-93066667D01*
X213150000Y-93066667D01*
X213114645Y-93052022D01*
X213100000Y-93016667D01*
X213100000Y-91816667D01*
X213114645Y-91781312D01*
X213150000Y-91766667D01*
X213350000Y-91766667D01*
X213385355Y-91781312D01*
X213985355Y-92381312D01*
X214000000Y-92416667D01*
X213985355Y-92452022D01*
G37*
G36*
X213985355Y-90452022D02*
G01*
X213385355Y-91052022D01*
X213350000Y-91066667D01*
X213150000Y-91066667D01*
X213114645Y-91052022D01*
X213100000Y-91016667D01*
X213100000Y-89816667D01*
X213114645Y-89781312D01*
X213150000Y-89766667D01*
X213350000Y-89766667D01*
X213385355Y-89781312D01*
X213985355Y-90381312D01*
X214000000Y-90416667D01*
X213985355Y-90452022D01*
G37*
G36*
X214851355Y-93052022D02*
G01*
X214816000Y-93066667D01*
X213566000Y-93066667D01*
X213530645Y-93052022D01*
X213516000Y-93016667D01*
X213530645Y-92981312D01*
X214095290Y-92416667D01*
X213530645Y-91852022D01*
X213516000Y-91816667D01*
X213530645Y-91781312D01*
X213566000Y-91766667D01*
X214816000Y-91766667D01*
X214851355Y-91781312D01*
X214866000Y-91816667D01*
X214866000Y-93016667D01*
X214851355Y-93052022D01*
G37*
G36*
X214851355Y-91052022D02*
G01*
X214816000Y-91066667D01*
X213566000Y-91066667D01*
X213530645Y-91052022D01*
X213516000Y-91016667D01*
X213530645Y-90981312D01*
X214095290Y-90416667D01*
X213530645Y-89852022D01*
X213516000Y-89816667D01*
X213530645Y-89781312D01*
X213566000Y-89766667D01*
X214816000Y-89766667D01*
X214851355Y-89781312D01*
X214866000Y-89816667D01*
X214866000Y-91016667D01*
X214851355Y-91052022D01*
G37*
M02*
