%TF.GenerationSoftware,KiCad,Pcbnew,8.0.8+1*%
%TF.CreationDate,2026-05-17T21:37:08+00:00*%
%TF.ProjectId,my_first_keyboard_wireless,6d795f66-6972-4737-945f-6b6579626f61,0.1*%
%TF.SameCoordinates,Original*%
%TF.FileFunction,Drillmap*%
%TF.FilePolarity,Positive*%
%FSLAX45Y45*%
G04 Gerber Fmt 4.5, Leading zero omitted, Abs format (unit mm)*
G04 Created by KiCad (PCBNEW 8.0.8+1) date 2026-05-17 21:37:08*
%MOMM*%
%LPD*%
G01*
G04 APERTURE LIST*
%ADD10C,0.150000*%
%ADD11C,0.200000*%
%ADD12C,0.100000*%
G04 APERTURE END LIST*
D10*
X9108198Y-10874287D02*
X9108002Y-5349015D01*
X9158015Y-5299013D02*
X12857987Y-5299987D01*
X12908000Y-5249987D02*
X12908000Y-4399158D01*
X12958158Y-4349158D02*
X14757842Y-4354842D01*
X14808000Y-4304842D02*
X14808000Y-3936300D01*
X14858000Y-3886300D02*
X16558200Y-3886300D01*
X16608200Y-3936300D02*
X16608200Y-4144886D01*
X16658314Y-4194886D02*
X18458086Y-4190781D01*
X18508200Y-4240781D02*
X18508200Y-4390467D01*
X18558200Y-4440467D02*
X20358222Y-4440467D01*
X20408222Y-4490445D02*
X20408278Y-4615689D01*
X22451800Y-10766326D02*
X22695551Y-13383369D01*
X22681122Y-13423361D02*
X21434271Y-14670212D01*
X21363560Y-14670212D02*
X20046115Y-13352767D01*
X20035301Y-13344560D02*
X18432826Y-12441778D01*
X18420755Y-12436921D02*
X16664097Y-11984504D01*
X16651509Y-11982925D02*
X14755514Y-11987384D01*
X14705400Y-11937990D02*
X14694095Y-11005112D01*
X14644385Y-10955719D02*
X9157912Y-10924285D01*
X20458278Y-4665667D02*
X22433300Y-4665667D01*
X22483300Y-4715667D02*
X22483300Y-10698369D01*
X22476601Y-10723369D02*
X22451800Y-10766326D01*
X9108002Y-5349015D02*
G75*
G02*
X9158015Y-5299012I49998J5D01*
G01*
X12908000Y-5249987D02*
G75*
G02*
X12857987Y-5299990I-50000J-3D01*
G01*
X12908000Y-4399158D02*
G75*
G02*
X12958158Y-4349160I50000J-2D01*
G01*
X14808000Y-4304842D02*
G75*
G02*
X14757842Y-4354840I-50000J2D01*
G01*
X14808000Y-3936300D02*
G75*
G02*
X14858000Y-3886300I50000J0D01*
G01*
X16558200Y-3886300D02*
G75*
G02*
X16608200Y-3936300I0J-50000D01*
G01*
X16658314Y-4194886D02*
G75*
G02*
X16608204Y-4144886I-114J49996D01*
G01*
X18458086Y-4190781D02*
G75*
G02*
X18508199Y-4240781I114J-49999D01*
G01*
X18558200Y-4440467D02*
G75*
G02*
X18508203Y-4390467I0J49997D01*
G01*
X20358222Y-4440467D02*
G75*
G02*
X20408223Y-4490445I-2J-50003D01*
G01*
X20458278Y-4665667D02*
G75*
G02*
X20408283Y-4615689I2J49997D01*
G01*
X22433300Y-4665667D02*
G75*
G02*
X22483303Y-4715667I0J-50003D01*
G01*
X22483300Y-10698369D02*
G75*
G02*
X22476602Y-10723369I-50000J-1D01*
G01*
X22695551Y-13383369D02*
G75*
G02*
X22681124Y-13423363I-49781J-4641D01*
G01*
X21434271Y-14670212D02*
G75*
G02*
X21363560Y-14670212I-35355J35356D01*
G01*
X20035301Y-13344560D02*
G75*
G02*
X20046115Y-13352768I-24541J-43560D01*
G01*
X18420755Y-12436921D02*
G75*
G02*
X18432826Y-12441779I-12475J-48419D01*
G01*
X16651509Y-11982925D02*
G75*
G02*
X16664097Y-11984504I121J-50005D01*
G01*
X14755514Y-11987384D02*
G75*
G02*
X14705400Y-11937990I-114J50004D01*
G01*
X14644385Y-10955719D02*
G75*
G02*
X14694098Y-11005112I-285J-50001D01*
G01*
X9157912Y-10924285D02*
G75*
G02*
X9108204Y-10874287I288J49995D01*
G01*
D11*
D12*
X9985000Y-6492500D02*
X10015000Y-6522500D01*
X10015000Y-6492500D02*
X9985000Y-6522500D01*
X9985000Y-6572500D02*
X10015000Y-6602500D01*
X10015000Y-6572500D02*
X9985000Y-6602500D01*
X9985000Y-8392500D02*
X10015000Y-8422500D01*
X10015000Y-8392500D02*
X9985000Y-8422500D01*
X9985000Y-8472500D02*
X10015000Y-8502500D01*
X10015000Y-8472500D02*
X9985000Y-8502500D01*
X9985000Y-10292500D02*
X10015000Y-10322500D01*
X10015000Y-10292500D02*
X9985000Y-10322500D01*
X9985000Y-10372500D02*
X10015000Y-10402500D01*
X10015000Y-10372500D02*
X9985000Y-10402500D01*
X11885000Y-6492500D02*
X11915000Y-6522500D01*
X11915000Y-6492500D02*
X11885000Y-6522500D01*
X11885000Y-6572500D02*
X11915000Y-6602500D01*
X11915000Y-6572500D02*
X11885000Y-6602500D01*
X11885000Y-8392500D02*
X11915000Y-8422500D01*
X11915000Y-8392500D02*
X11885000Y-8422500D01*
X11885000Y-8472500D02*
X11915000Y-8502500D01*
X11915000Y-8472500D02*
X11885000Y-8502500D01*
X11885000Y-10292500D02*
X11915000Y-10322500D01*
X11915000Y-10292500D02*
X11885000Y-10322500D01*
X11885000Y-10372500D02*
X11915000Y-10402500D01*
X11915000Y-10372500D02*
X11885000Y-10402500D01*
X13785000Y-5542500D02*
X13815000Y-5572500D01*
X13815000Y-5542500D02*
X13785000Y-5572500D01*
X13785000Y-5622500D02*
X13815000Y-5652500D01*
X13815000Y-5622500D02*
X13785000Y-5652500D01*
X13785000Y-7442500D02*
X13815000Y-7472500D01*
X13815000Y-7442500D02*
X13785000Y-7472500D01*
X13785000Y-7522500D02*
X13815000Y-7552500D01*
X13815000Y-7522500D02*
X13785000Y-7552500D01*
X13785000Y-9342500D02*
X13815000Y-9372500D01*
X13815000Y-9342500D02*
X13785000Y-9372500D01*
X13785000Y-9422500D02*
X13815000Y-9452500D01*
X13815000Y-9422500D02*
X13785000Y-9452500D01*
X15685000Y-5067500D02*
X15715000Y-5097500D01*
X15715000Y-5067500D02*
X15685000Y-5097500D01*
X15685000Y-5147500D02*
X15715000Y-5177500D01*
X15715000Y-5147500D02*
X15685000Y-5177500D01*
X15685000Y-6967500D02*
X15715000Y-6997500D01*
X15715000Y-6967500D02*
X15685000Y-6997500D01*
X15685000Y-7047500D02*
X15715000Y-7077500D01*
X15715000Y-7047500D02*
X15685000Y-7077500D01*
X15685000Y-8867500D02*
X15715000Y-8897500D01*
X15715000Y-8867500D02*
X15685000Y-8897500D01*
X15685000Y-8947500D02*
X15715000Y-8977500D01*
X15715000Y-8947500D02*
X15685000Y-8977500D01*
X15685000Y-11367500D02*
X15715000Y-11397500D01*
X15715000Y-11367500D02*
X15685000Y-11397500D01*
X15685000Y-11447500D02*
X15715000Y-11477500D01*
X15715000Y-11447500D02*
X15685000Y-11477500D01*
X17585000Y-5384167D02*
X17615000Y-5414167D01*
X17615000Y-5384167D02*
X17585000Y-5414167D01*
X17585000Y-5464167D02*
X17615000Y-5494167D01*
X17615000Y-5464167D02*
X17585000Y-5494167D01*
X17585000Y-7284167D02*
X17615000Y-7314167D01*
X17615000Y-7284167D02*
X17585000Y-7314167D01*
X17585000Y-7364167D02*
X17615000Y-7394167D01*
X17615000Y-7364167D02*
X17585000Y-7394167D01*
X17585000Y-9184167D02*
X17615000Y-9214167D01*
X17615000Y-9184167D02*
X17585000Y-9214167D01*
X17585000Y-9264167D02*
X17615000Y-9294167D01*
X17615000Y-9264167D02*
X17585000Y-9294167D01*
X17644708Y-11684296D02*
X17674708Y-11714296D01*
X17674708Y-11684296D02*
X17644708Y-11714296D01*
X17665413Y-11607022D02*
X17695413Y-11637022D01*
X17695413Y-11607022D02*
X17665413Y-11637022D01*
X19476352Y-12420233D02*
X19506352Y-12450233D01*
X19506352Y-12420233D02*
X19476352Y-12450233D01*
X19485000Y-5621667D02*
X19515000Y-5651667D01*
X19515000Y-5621667D02*
X19485000Y-5651667D01*
X19485000Y-5701667D02*
X19515000Y-5731667D01*
X19515000Y-5701667D02*
X19485000Y-5731667D01*
X19485000Y-7521667D02*
X19515000Y-7551667D01*
X19515000Y-7521667D02*
X19485000Y-7551667D01*
X19485000Y-7601667D02*
X19515000Y-7631667D01*
X19515000Y-7601667D02*
X19485000Y-7631667D01*
X19485000Y-9421667D02*
X19515000Y-9451667D01*
X19515000Y-9421667D02*
X19485000Y-9451667D01*
X19485000Y-9501667D02*
X19515000Y-9531667D01*
X19515000Y-9501667D02*
X19485000Y-9531667D01*
X19516352Y-12350951D02*
X19546352Y-12380951D01*
X19546352Y-12350951D02*
X19516352Y-12380951D01*
X21055111Y-13605159D02*
X21085111Y-13635159D01*
X21085111Y-13605159D02*
X21055111Y-13635159D01*
X21111679Y-13548590D02*
X21141679Y-13578590D01*
X21141679Y-13548590D02*
X21111679Y-13578590D01*
X21150400Y-5183667D02*
G75*
G02*
X21110400Y-5183667I-20000J0D01*
G01*
X21110400Y-5183667D02*
G75*
G02*
X21150400Y-5183667I20000J0D01*
G01*
X21150400Y-5437667D02*
G75*
G02*
X21110400Y-5437667I-20000J0D01*
G01*
X21110400Y-5437667D02*
G75*
G02*
X21150400Y-5437667I20000J0D01*
G01*
X21150400Y-5691667D02*
G75*
G02*
X21110400Y-5691667I-20000J0D01*
G01*
X21110400Y-5691667D02*
G75*
G02*
X21150400Y-5691667I20000J0D01*
G01*
X21150400Y-5945667D02*
G75*
G02*
X21110400Y-5945667I-20000J0D01*
G01*
X21110400Y-5945667D02*
G75*
G02*
X21150400Y-5945667I20000J0D01*
G01*
X21150400Y-6199667D02*
G75*
G02*
X21110400Y-6199667I-20000J0D01*
G01*
X21110400Y-6199667D02*
G75*
G02*
X21150400Y-6199667I20000J0D01*
G01*
X21150400Y-6453667D02*
G75*
G02*
X21110400Y-6453667I-20000J0D01*
G01*
X21110400Y-6453667D02*
G75*
G02*
X21150400Y-6453667I20000J0D01*
G01*
X21150400Y-6707667D02*
G75*
G02*
X21110400Y-6707667I-20000J0D01*
G01*
X21110400Y-6707667D02*
G75*
G02*
X21150400Y-6707667I20000J0D01*
G01*
X21150400Y-6961667D02*
G75*
G02*
X21110400Y-6961667I-20000J0D01*
G01*
X21110400Y-6961667D02*
G75*
G02*
X21150400Y-6961667I20000J0D01*
G01*
X21150400Y-7215667D02*
G75*
G02*
X21110400Y-7215667I-20000J0D01*
G01*
X21110400Y-7215667D02*
G75*
G02*
X21150400Y-7215667I20000J0D01*
G01*
X21150400Y-7469667D02*
G75*
G02*
X21110400Y-7469667I-20000J0D01*
G01*
X21110400Y-7469667D02*
G75*
G02*
X21150400Y-7469667I20000J0D01*
G01*
X21150400Y-7723667D02*
G75*
G02*
X21110400Y-7723667I-20000J0D01*
G01*
X21110400Y-7723667D02*
G75*
G02*
X21150400Y-7723667I20000J0D01*
G01*
X21150400Y-7977667D02*
G75*
G02*
X21110400Y-7977667I-20000J0D01*
G01*
X21110400Y-7977667D02*
G75*
G02*
X21150400Y-7977667I20000J0D01*
G01*
X21830400Y-5183667D02*
G75*
G02*
X21790400Y-5183667I-20000J0D01*
G01*
X21790400Y-5183667D02*
G75*
G02*
X21830400Y-5183667I20000J0D01*
G01*
X21830400Y-5437667D02*
G75*
G02*
X21790400Y-5437667I-20000J0D01*
G01*
X21790400Y-5437667D02*
G75*
G02*
X21830400Y-5437667I20000J0D01*
G01*
X21830400Y-5691667D02*
G75*
G02*
X21790400Y-5691667I-20000J0D01*
G01*
X21790400Y-5691667D02*
G75*
G02*
X21830400Y-5691667I20000J0D01*
G01*
X21830400Y-5945667D02*
G75*
G02*
X21790400Y-5945667I-20000J0D01*
G01*
X21790400Y-5945667D02*
G75*
G02*
X21830400Y-5945667I20000J0D01*
G01*
X21830400Y-6199667D02*
G75*
G02*
X21790400Y-6199667I-20000J0D01*
G01*
X21790400Y-6199667D02*
G75*
G02*
X21830400Y-6199667I20000J0D01*
G01*
X21830400Y-6453667D02*
G75*
G02*
X21790400Y-6453667I-20000J0D01*
G01*
X21790400Y-6453667D02*
G75*
G02*
X21830400Y-6453667I20000J0D01*
G01*
X21830400Y-6707667D02*
G75*
G02*
X21790400Y-6707667I-20000J0D01*
G01*
X21790400Y-6707667D02*
G75*
G02*
X21830400Y-6707667I20000J0D01*
G01*
X21830400Y-6961667D02*
G75*
G02*
X21790400Y-6961667I-20000J0D01*
G01*
X21790400Y-6961667D02*
G75*
G02*
X21830400Y-6961667I20000J0D01*
G01*
X21830400Y-7215667D02*
G75*
G02*
X21790400Y-7215667I-20000J0D01*
G01*
X21790400Y-7215667D02*
G75*
G02*
X21830400Y-7215667I20000J0D01*
G01*
X21830400Y-7469667D02*
G75*
G02*
X21790400Y-7469667I-20000J0D01*
G01*
X21790400Y-7469667D02*
G75*
G02*
X21830400Y-7469667I20000J0D01*
G01*
X21830400Y-7723667D02*
G75*
G02*
X21790400Y-7723667I-20000J0D01*
G01*
X21790400Y-7723667D02*
G75*
G02*
X21830400Y-7723667I20000J0D01*
G01*
X21830400Y-7977667D02*
G75*
G02*
X21790400Y-7977667I-20000J0D01*
G01*
X21790400Y-7977667D02*
G75*
G02*
X21830400Y-7977667I20000J0D01*
G01*
X21175000Y-9004167D02*
X21175000Y-9079167D01*
X21137500Y-9041667D02*
X21212500Y-9041667D01*
X21175000Y-9204167D02*
X21175000Y-9279167D01*
X21137500Y-9241667D02*
X21212500Y-9241667D01*
X20743756Y-5219022D02*
X20743756Y-5148311D01*
X20673044Y-5148311D01*
X20673044Y-5219022D01*
X20743756Y-5219022D01*
X20743756Y-5473022D02*
X20743756Y-5402311D01*
X20673044Y-5402311D01*
X20673044Y-5473022D01*
X20743756Y-5473022D01*
X20743756Y-5727022D02*
X20743756Y-5656311D01*
X20673044Y-5656311D01*
X20673044Y-5727022D01*
X20743756Y-5727022D01*
X20743756Y-5981022D02*
X20743756Y-5910311D01*
X20673044Y-5910311D01*
X20673044Y-5981022D01*
X20743756Y-5981022D01*
X20743756Y-6235022D02*
X20743756Y-6164311D01*
X20673044Y-6164311D01*
X20673044Y-6235022D01*
X20743756Y-6235022D01*
X20743756Y-6489022D02*
X20743756Y-6418311D01*
X20673044Y-6418311D01*
X20673044Y-6489022D01*
X20743756Y-6489022D01*
X20743756Y-6743022D02*
X20743756Y-6672311D01*
X20673044Y-6672311D01*
X20673044Y-6743022D01*
X20743756Y-6743022D01*
X20743756Y-6997022D02*
X20743756Y-6926311D01*
X20673044Y-6926311D01*
X20673044Y-6997022D01*
X20743756Y-6997022D01*
X20743756Y-7251022D02*
X20743756Y-7180311D01*
X20673044Y-7180311D01*
X20673044Y-7251022D01*
X20743756Y-7251022D01*
X20743756Y-7505022D02*
X20743756Y-7434311D01*
X20673044Y-7434311D01*
X20673044Y-7505022D01*
X20743756Y-7505022D01*
X20743756Y-7759022D02*
X20743756Y-7688311D01*
X20673044Y-7688311D01*
X20673044Y-7759022D01*
X20743756Y-7759022D01*
X20743756Y-8013022D02*
X20743756Y-7942311D01*
X20673044Y-7942311D01*
X20673044Y-8013022D01*
X20743756Y-8013022D01*
X20992056Y-8397022D02*
X20992056Y-8326311D01*
X20921344Y-8326311D01*
X20921344Y-8397022D01*
X20992056Y-8397022D01*
X21246056Y-8397022D02*
X21246056Y-8326311D01*
X21175344Y-8326311D01*
X21175344Y-8397022D01*
X21246056Y-8397022D01*
X21500056Y-8397022D02*
X21500056Y-8326311D01*
X21429344Y-8326311D01*
X21429344Y-8397022D01*
X21500056Y-8397022D01*
X21754056Y-8397022D02*
X21754056Y-8326311D01*
X21683344Y-8326311D01*
X21683344Y-8397022D01*
X21754056Y-8397022D01*
X22008056Y-8397022D02*
X22008056Y-8326311D01*
X21937344Y-8326311D01*
X21937344Y-8397022D01*
X22008056Y-8397022D01*
X22267756Y-5219022D02*
X22267756Y-5148311D01*
X22197044Y-5148311D01*
X22197044Y-5219022D01*
X22267756Y-5219022D01*
X22267756Y-5473022D02*
X22267756Y-5402311D01*
X22197044Y-5402311D01*
X22197044Y-5473022D01*
X22267756Y-5473022D01*
X22267756Y-5727022D02*
X22267756Y-5656311D01*
X22197044Y-5656311D01*
X22197044Y-5727022D01*
X22267756Y-5727022D01*
X22267756Y-5981022D02*
X22267756Y-5910311D01*
X22197044Y-5910311D01*
X22197044Y-5981022D01*
X22267756Y-5981022D01*
X22267756Y-6235022D02*
X22267756Y-6164311D01*
X22197044Y-6164311D01*
X22197044Y-6235022D01*
X22267756Y-6235022D01*
X22267756Y-6489022D02*
X22267756Y-6418311D01*
X22197044Y-6418311D01*
X22197044Y-6489022D01*
X22267756Y-6489022D01*
X22267756Y-6743022D02*
X22267756Y-6672311D01*
X22197044Y-6672311D01*
X22197044Y-6743022D01*
X22267756Y-6743022D01*
X22267756Y-6997022D02*
X22267756Y-6926311D01*
X22197044Y-6926311D01*
X22197044Y-6997022D01*
X22267756Y-6997022D01*
X22267756Y-7251022D02*
X22267756Y-7180311D01*
X22197044Y-7180311D01*
X22197044Y-7251022D01*
X22267756Y-7251022D01*
X22267756Y-7505022D02*
X22267756Y-7434311D01*
X22197044Y-7434311D01*
X22197044Y-7505022D01*
X22267756Y-7505022D01*
X22267756Y-7759022D02*
X22267756Y-7688311D01*
X22197044Y-7688311D01*
X22197044Y-7759022D01*
X22267756Y-7759022D01*
X22267756Y-8013022D02*
X22267756Y-7942311D01*
X22197044Y-7942311D01*
X22197044Y-8013022D01*
X22267756Y-8013022D01*
D11*
X9361279Y-15003841D02*
X9361279Y-14803841D01*
X9361279Y-14803841D02*
X9408898Y-14803841D01*
X9408898Y-14803841D02*
X9437469Y-14813365D01*
X9437469Y-14813365D02*
X9456517Y-14832412D01*
X9456517Y-14832412D02*
X9466041Y-14851460D01*
X9466041Y-14851460D02*
X9475564Y-14889555D01*
X9475564Y-14889555D02*
X9475564Y-14918127D01*
X9475564Y-14918127D02*
X9466041Y-14956222D01*
X9466041Y-14956222D02*
X9456517Y-14975269D01*
X9456517Y-14975269D02*
X9437469Y-14994317D01*
X9437469Y-14994317D02*
X9408898Y-15003841D01*
X9408898Y-15003841D02*
X9361279Y-15003841D01*
X9561279Y-15003841D02*
X9561279Y-14870507D01*
X9561279Y-14908603D02*
X9570802Y-14889555D01*
X9570802Y-14889555D02*
X9580326Y-14880031D01*
X9580326Y-14880031D02*
X9599374Y-14870507D01*
X9599374Y-14870507D02*
X9618422Y-14870507D01*
X9685088Y-15003841D02*
X9685088Y-14870507D01*
X9685088Y-14803841D02*
X9675564Y-14813365D01*
X9675564Y-14813365D02*
X9685088Y-14822888D01*
X9685088Y-14822888D02*
X9694612Y-14813365D01*
X9694612Y-14813365D02*
X9685088Y-14803841D01*
X9685088Y-14803841D02*
X9685088Y-14822888D01*
X9808898Y-15003841D02*
X9789850Y-14994317D01*
X9789850Y-14994317D02*
X9780326Y-14975269D01*
X9780326Y-14975269D02*
X9780326Y-14803841D01*
X9913660Y-15003841D02*
X9894612Y-14994317D01*
X9894612Y-14994317D02*
X9885088Y-14975269D01*
X9885088Y-14975269D02*
X9885088Y-14803841D01*
X10142231Y-15003841D02*
X10142231Y-14803841D01*
X10142231Y-14803841D02*
X10208898Y-14946698D01*
X10208898Y-14946698D02*
X10275564Y-14803841D01*
X10275564Y-14803841D02*
X10275564Y-15003841D01*
X10456517Y-15003841D02*
X10456517Y-14899079D01*
X10456517Y-14899079D02*
X10446993Y-14880031D01*
X10446993Y-14880031D02*
X10427945Y-14870507D01*
X10427945Y-14870507D02*
X10389850Y-14870507D01*
X10389850Y-14870507D02*
X10370802Y-14880031D01*
X10456517Y-14994317D02*
X10437469Y-15003841D01*
X10437469Y-15003841D02*
X10389850Y-15003841D01*
X10389850Y-15003841D02*
X10370802Y-14994317D01*
X10370802Y-14994317D02*
X10361279Y-14975269D01*
X10361279Y-14975269D02*
X10361279Y-14956222D01*
X10361279Y-14956222D02*
X10370802Y-14937174D01*
X10370802Y-14937174D02*
X10389850Y-14927650D01*
X10389850Y-14927650D02*
X10437469Y-14927650D01*
X10437469Y-14927650D02*
X10456517Y-14918127D01*
X10551755Y-14870507D02*
X10551755Y-15070507D01*
X10551755Y-14880031D02*
X10570802Y-14870507D01*
X10570802Y-14870507D02*
X10608898Y-14870507D01*
X10608898Y-14870507D02*
X10627945Y-14880031D01*
X10627945Y-14880031D02*
X10637469Y-14889555D01*
X10637469Y-14889555D02*
X10646993Y-14908603D01*
X10646993Y-14908603D02*
X10646993Y-14965746D01*
X10646993Y-14965746D02*
X10637469Y-14984793D01*
X10637469Y-14984793D02*
X10627945Y-14994317D01*
X10627945Y-14994317D02*
X10608898Y-15003841D01*
X10608898Y-15003841D02*
X10570802Y-15003841D01*
X10570802Y-15003841D02*
X10551755Y-14994317D01*
X10732707Y-14984793D02*
X10742231Y-14994317D01*
X10742231Y-14994317D02*
X10732707Y-15003841D01*
X10732707Y-15003841D02*
X10723183Y-14994317D01*
X10723183Y-14994317D02*
X10732707Y-14984793D01*
X10732707Y-14984793D02*
X10732707Y-15003841D01*
X10732707Y-14880031D02*
X10742231Y-14889555D01*
X10742231Y-14889555D02*
X10732707Y-14899079D01*
X10732707Y-14899079D02*
X10723183Y-14889555D01*
X10723183Y-14889555D02*
X10732707Y-14880031D01*
X10732707Y-14880031D02*
X10732707Y-14899079D01*
D12*
X9070502Y-15317357D02*
X9100502Y-15347357D01*
X9100502Y-15317357D02*
X9070502Y-15347357D01*
D11*
X9399374Y-15223841D02*
X9418422Y-15223841D01*
X9418422Y-15223841D02*
X9437469Y-15233365D01*
X9437469Y-15233365D02*
X9446993Y-15242888D01*
X9446993Y-15242888D02*
X9456517Y-15261936D01*
X9456517Y-15261936D02*
X9466041Y-15300031D01*
X9466041Y-15300031D02*
X9466041Y-15347650D01*
X9466041Y-15347650D02*
X9456517Y-15385746D01*
X9456517Y-15385746D02*
X9446993Y-15404793D01*
X9446993Y-15404793D02*
X9437469Y-15414317D01*
X9437469Y-15414317D02*
X9418422Y-15423841D01*
X9418422Y-15423841D02*
X9399374Y-15423841D01*
X9399374Y-15423841D02*
X9380326Y-15414317D01*
X9380326Y-15414317D02*
X9370802Y-15404793D01*
X9370802Y-15404793D02*
X9361279Y-15385746D01*
X9361279Y-15385746D02*
X9351755Y-15347650D01*
X9351755Y-15347650D02*
X9351755Y-15300031D01*
X9351755Y-15300031D02*
X9361279Y-15261936D01*
X9361279Y-15261936D02*
X9370802Y-15242888D01*
X9370802Y-15242888D02*
X9380326Y-15233365D01*
X9380326Y-15233365D02*
X9399374Y-15223841D01*
X9551755Y-15404793D02*
X9561279Y-15414317D01*
X9561279Y-15414317D02*
X9551755Y-15423841D01*
X9551755Y-15423841D02*
X9542231Y-15414317D01*
X9542231Y-15414317D02*
X9551755Y-15404793D01*
X9551755Y-15404793D02*
X9551755Y-15423841D01*
X9627945Y-15223841D02*
X9751755Y-15223841D01*
X9751755Y-15223841D02*
X9685088Y-15300031D01*
X9685088Y-15300031D02*
X9713660Y-15300031D01*
X9713660Y-15300031D02*
X9732707Y-15309555D01*
X9732707Y-15309555D02*
X9742231Y-15319079D01*
X9742231Y-15319079D02*
X9751755Y-15338127D01*
X9751755Y-15338127D02*
X9751755Y-15385746D01*
X9751755Y-15385746D02*
X9742231Y-15404793D01*
X9742231Y-15404793D02*
X9732707Y-15414317D01*
X9732707Y-15414317D02*
X9713660Y-15423841D01*
X9713660Y-15423841D02*
X9656517Y-15423841D01*
X9656517Y-15423841D02*
X9637469Y-15414317D01*
X9637469Y-15414317D02*
X9627945Y-15404793D01*
X9875564Y-15223841D02*
X9894612Y-15223841D01*
X9894612Y-15223841D02*
X9913660Y-15233365D01*
X9913660Y-15233365D02*
X9923183Y-15242888D01*
X9923183Y-15242888D02*
X9932707Y-15261936D01*
X9932707Y-15261936D02*
X9942231Y-15300031D01*
X9942231Y-15300031D02*
X9942231Y-15347650D01*
X9942231Y-15347650D02*
X9932707Y-15385746D01*
X9932707Y-15385746D02*
X9923183Y-15404793D01*
X9923183Y-15404793D02*
X9913660Y-15414317D01*
X9913660Y-15414317D02*
X9894612Y-15423841D01*
X9894612Y-15423841D02*
X9875564Y-15423841D01*
X9875564Y-15423841D02*
X9856517Y-15414317D01*
X9856517Y-15414317D02*
X9846993Y-15404793D01*
X9846993Y-15404793D02*
X9837469Y-15385746D01*
X9837469Y-15385746D02*
X9827945Y-15347650D01*
X9827945Y-15347650D02*
X9827945Y-15300031D01*
X9827945Y-15300031D02*
X9837469Y-15261936D01*
X9837469Y-15261936D02*
X9846993Y-15242888D01*
X9846993Y-15242888D02*
X9856517Y-15233365D01*
X9856517Y-15233365D02*
X9875564Y-15223841D01*
X10066041Y-15223841D02*
X10085088Y-15223841D01*
X10085088Y-15223841D02*
X10104136Y-15233365D01*
X10104136Y-15233365D02*
X10113660Y-15242888D01*
X10113660Y-15242888D02*
X10123183Y-15261936D01*
X10123183Y-15261936D02*
X10132707Y-15300031D01*
X10132707Y-15300031D02*
X10132707Y-15347650D01*
X10132707Y-15347650D02*
X10123183Y-15385746D01*
X10123183Y-15385746D02*
X10113660Y-15404793D01*
X10113660Y-15404793D02*
X10104136Y-15414317D01*
X10104136Y-15414317D02*
X10085088Y-15423841D01*
X10085088Y-15423841D02*
X10066041Y-15423841D01*
X10066041Y-15423841D02*
X10046993Y-15414317D01*
X10046993Y-15414317D02*
X10037469Y-15404793D01*
X10037469Y-15404793D02*
X10027945Y-15385746D01*
X10027945Y-15385746D02*
X10018422Y-15347650D01*
X10018422Y-15347650D02*
X10018422Y-15300031D01*
X10018422Y-15300031D02*
X10027945Y-15261936D01*
X10027945Y-15261936D02*
X10037469Y-15242888D01*
X10037469Y-15242888D02*
X10046993Y-15233365D01*
X10046993Y-15233365D02*
X10066041Y-15223841D01*
X10218422Y-15423841D02*
X10218422Y-15290507D01*
X10218422Y-15309555D02*
X10227945Y-15300031D01*
X10227945Y-15300031D02*
X10246993Y-15290507D01*
X10246993Y-15290507D02*
X10275564Y-15290507D01*
X10275564Y-15290507D02*
X10294612Y-15300031D01*
X10294612Y-15300031D02*
X10304136Y-15319079D01*
X10304136Y-15319079D02*
X10304136Y-15423841D01*
X10304136Y-15319079D02*
X10313660Y-15300031D01*
X10313660Y-15300031D02*
X10332707Y-15290507D01*
X10332707Y-15290507D02*
X10361279Y-15290507D01*
X10361279Y-15290507D02*
X10380326Y-15300031D01*
X10380326Y-15300031D02*
X10389850Y-15319079D01*
X10389850Y-15319079D02*
X10389850Y-15423841D01*
X10485088Y-15423841D02*
X10485088Y-15290507D01*
X10485088Y-15309555D02*
X10494612Y-15300031D01*
X10494612Y-15300031D02*
X10513660Y-15290507D01*
X10513660Y-15290507D02*
X10542231Y-15290507D01*
X10542231Y-15290507D02*
X10561279Y-15300031D01*
X10561279Y-15300031D02*
X10570803Y-15319079D01*
X10570803Y-15319079D02*
X10570803Y-15423841D01*
X10570803Y-15319079D02*
X10580326Y-15300031D01*
X10580326Y-15300031D02*
X10599374Y-15290507D01*
X10599374Y-15290507D02*
X10627945Y-15290507D01*
X10627945Y-15290507D02*
X10646993Y-15300031D01*
X10646993Y-15300031D02*
X10656517Y-15319079D01*
X10656517Y-15319079D02*
X10656517Y-15423841D01*
X11046993Y-15214317D02*
X10875565Y-15471460D01*
X11304136Y-15223841D02*
X11323184Y-15223841D01*
X11323184Y-15223841D02*
X11342231Y-15233365D01*
X11342231Y-15233365D02*
X11351755Y-15242888D01*
X11351755Y-15242888D02*
X11361279Y-15261936D01*
X11361279Y-15261936D02*
X11370803Y-15300031D01*
X11370803Y-15300031D02*
X11370803Y-15347650D01*
X11370803Y-15347650D02*
X11361279Y-15385746D01*
X11361279Y-15385746D02*
X11351755Y-15404793D01*
X11351755Y-15404793D02*
X11342231Y-15414317D01*
X11342231Y-15414317D02*
X11323184Y-15423841D01*
X11323184Y-15423841D02*
X11304136Y-15423841D01*
X11304136Y-15423841D02*
X11285088Y-15414317D01*
X11285088Y-15414317D02*
X11275564Y-15404793D01*
X11275564Y-15404793D02*
X11266041Y-15385746D01*
X11266041Y-15385746D02*
X11256517Y-15347650D01*
X11256517Y-15347650D02*
X11256517Y-15300031D01*
X11256517Y-15300031D02*
X11266041Y-15261936D01*
X11266041Y-15261936D02*
X11275564Y-15242888D01*
X11275564Y-15242888D02*
X11285088Y-15233365D01*
X11285088Y-15233365D02*
X11304136Y-15223841D01*
X11456517Y-15404793D02*
X11466041Y-15414317D01*
X11466041Y-15414317D02*
X11456517Y-15423841D01*
X11456517Y-15423841D02*
X11446993Y-15414317D01*
X11446993Y-15414317D02*
X11456517Y-15404793D01*
X11456517Y-15404793D02*
X11456517Y-15423841D01*
X11589850Y-15223841D02*
X11608898Y-15223841D01*
X11608898Y-15223841D02*
X11627945Y-15233365D01*
X11627945Y-15233365D02*
X11637469Y-15242888D01*
X11637469Y-15242888D02*
X11646993Y-15261936D01*
X11646993Y-15261936D02*
X11656517Y-15300031D01*
X11656517Y-15300031D02*
X11656517Y-15347650D01*
X11656517Y-15347650D02*
X11646993Y-15385746D01*
X11646993Y-15385746D02*
X11637469Y-15404793D01*
X11637469Y-15404793D02*
X11627945Y-15414317D01*
X11627945Y-15414317D02*
X11608898Y-15423841D01*
X11608898Y-15423841D02*
X11589850Y-15423841D01*
X11589850Y-15423841D02*
X11570803Y-15414317D01*
X11570803Y-15414317D02*
X11561279Y-15404793D01*
X11561279Y-15404793D02*
X11551755Y-15385746D01*
X11551755Y-15385746D02*
X11542231Y-15347650D01*
X11542231Y-15347650D02*
X11542231Y-15300031D01*
X11542231Y-15300031D02*
X11551755Y-15261936D01*
X11551755Y-15261936D02*
X11561279Y-15242888D01*
X11561279Y-15242888D02*
X11570803Y-15233365D01*
X11570803Y-15233365D02*
X11589850Y-15223841D01*
X11846993Y-15423841D02*
X11732707Y-15423841D01*
X11789850Y-15423841D02*
X11789850Y-15223841D01*
X11789850Y-15223841D02*
X11770803Y-15252412D01*
X11770803Y-15252412D02*
X11751755Y-15271460D01*
X11751755Y-15271460D02*
X11732707Y-15280984D01*
X12037469Y-15423841D02*
X11923184Y-15423841D01*
X11980326Y-15423841D02*
X11980326Y-15223841D01*
X11980326Y-15223841D02*
X11961279Y-15252412D01*
X11961279Y-15252412D02*
X11942231Y-15271460D01*
X11942231Y-15271460D02*
X11923184Y-15280984D01*
X12151755Y-15309555D02*
X12132707Y-15300031D01*
X12132707Y-15300031D02*
X12123184Y-15290507D01*
X12123184Y-15290507D02*
X12113660Y-15271460D01*
X12113660Y-15271460D02*
X12113660Y-15261936D01*
X12113660Y-15261936D02*
X12123184Y-15242888D01*
X12123184Y-15242888D02*
X12132707Y-15233365D01*
X12132707Y-15233365D02*
X12151755Y-15223841D01*
X12151755Y-15223841D02*
X12189850Y-15223841D01*
X12189850Y-15223841D02*
X12208898Y-15233365D01*
X12208898Y-15233365D02*
X12218422Y-15242888D01*
X12218422Y-15242888D02*
X12227945Y-15261936D01*
X12227945Y-15261936D02*
X12227945Y-15271460D01*
X12227945Y-15271460D02*
X12218422Y-15290507D01*
X12218422Y-15290507D02*
X12208898Y-15300031D01*
X12208898Y-15300031D02*
X12189850Y-15309555D01*
X12189850Y-15309555D02*
X12151755Y-15309555D01*
X12151755Y-15309555D02*
X12132707Y-15319079D01*
X12132707Y-15319079D02*
X12123184Y-15328603D01*
X12123184Y-15328603D02*
X12113660Y-15347650D01*
X12113660Y-15347650D02*
X12113660Y-15385746D01*
X12113660Y-15385746D02*
X12123184Y-15404793D01*
X12123184Y-15404793D02*
X12132707Y-15414317D01*
X12132707Y-15414317D02*
X12151755Y-15423841D01*
X12151755Y-15423841D02*
X12189850Y-15423841D01*
X12189850Y-15423841D02*
X12208898Y-15414317D01*
X12208898Y-15414317D02*
X12218422Y-15404793D01*
X12218422Y-15404793D02*
X12227945Y-15385746D01*
X12227945Y-15385746D02*
X12227945Y-15347650D01*
X12227945Y-15347650D02*
X12218422Y-15328603D01*
X12218422Y-15328603D02*
X12208898Y-15319079D01*
X12208898Y-15319079D02*
X12189850Y-15309555D01*
X12304136Y-15223841D02*
X12304136Y-15261936D01*
X12380326Y-15223841D02*
X12380326Y-15261936D01*
X12675565Y-15500031D02*
X12666041Y-15490507D01*
X12666041Y-15490507D02*
X12646993Y-15461936D01*
X12646993Y-15461936D02*
X12637469Y-15442888D01*
X12637469Y-15442888D02*
X12627946Y-15414317D01*
X12627946Y-15414317D02*
X12618422Y-15366698D01*
X12618422Y-15366698D02*
X12618422Y-15328603D01*
X12618422Y-15328603D02*
X12627946Y-15280984D01*
X12627946Y-15280984D02*
X12637469Y-15252412D01*
X12637469Y-15252412D02*
X12646993Y-15233365D01*
X12646993Y-15233365D02*
X12666041Y-15204793D01*
X12666041Y-15204793D02*
X12675565Y-15195269D01*
X12837469Y-15290507D02*
X12837469Y-15423841D01*
X12789850Y-15214317D02*
X12742231Y-15357174D01*
X12742231Y-15357174D02*
X12866041Y-15357174D01*
X13027946Y-15290507D02*
X13027946Y-15423841D01*
X12980326Y-15214317D02*
X12932707Y-15357174D01*
X12932707Y-15357174D02*
X13056517Y-15357174D01*
X13285088Y-15423841D02*
X13285088Y-15223841D01*
X13370803Y-15423841D02*
X13370803Y-15319079D01*
X13370803Y-15319079D02*
X13361279Y-15300031D01*
X13361279Y-15300031D02*
X13342231Y-15290507D01*
X13342231Y-15290507D02*
X13313660Y-15290507D01*
X13313660Y-15290507D02*
X13294612Y-15300031D01*
X13294612Y-15300031D02*
X13285088Y-15309555D01*
X13494612Y-15423841D02*
X13475565Y-15414317D01*
X13475565Y-15414317D02*
X13466041Y-15404793D01*
X13466041Y-15404793D02*
X13456517Y-15385746D01*
X13456517Y-15385746D02*
X13456517Y-15328603D01*
X13456517Y-15328603D02*
X13466041Y-15309555D01*
X13466041Y-15309555D02*
X13475565Y-15300031D01*
X13475565Y-15300031D02*
X13494612Y-15290507D01*
X13494612Y-15290507D02*
X13523184Y-15290507D01*
X13523184Y-15290507D02*
X13542231Y-15300031D01*
X13542231Y-15300031D02*
X13551755Y-15309555D01*
X13551755Y-15309555D02*
X13561279Y-15328603D01*
X13561279Y-15328603D02*
X13561279Y-15385746D01*
X13561279Y-15385746D02*
X13551755Y-15404793D01*
X13551755Y-15404793D02*
X13542231Y-15414317D01*
X13542231Y-15414317D02*
X13523184Y-15423841D01*
X13523184Y-15423841D02*
X13494612Y-15423841D01*
X13675565Y-15423841D02*
X13656517Y-15414317D01*
X13656517Y-15414317D02*
X13646993Y-15395269D01*
X13646993Y-15395269D02*
X13646993Y-15223841D01*
X13827946Y-15414317D02*
X13808898Y-15423841D01*
X13808898Y-15423841D02*
X13770803Y-15423841D01*
X13770803Y-15423841D02*
X13751755Y-15414317D01*
X13751755Y-15414317D02*
X13742231Y-15395269D01*
X13742231Y-15395269D02*
X13742231Y-15319079D01*
X13742231Y-15319079D02*
X13751755Y-15300031D01*
X13751755Y-15300031D02*
X13770803Y-15290507D01*
X13770803Y-15290507D02*
X13808898Y-15290507D01*
X13808898Y-15290507D02*
X13827946Y-15300031D01*
X13827946Y-15300031D02*
X13837469Y-15319079D01*
X13837469Y-15319079D02*
X13837469Y-15338127D01*
X13837469Y-15338127D02*
X13742231Y-15357174D01*
X13913660Y-15414317D02*
X13932708Y-15423841D01*
X13932708Y-15423841D02*
X13970803Y-15423841D01*
X13970803Y-15423841D02*
X13989850Y-15414317D01*
X13989850Y-15414317D02*
X13999374Y-15395269D01*
X13999374Y-15395269D02*
X13999374Y-15385746D01*
X13999374Y-15385746D02*
X13989850Y-15366698D01*
X13989850Y-15366698D02*
X13970803Y-15357174D01*
X13970803Y-15357174D02*
X13942231Y-15357174D01*
X13942231Y-15357174D02*
X13923184Y-15347650D01*
X13923184Y-15347650D02*
X13913660Y-15328603D01*
X13913660Y-15328603D02*
X13913660Y-15319079D01*
X13913660Y-15319079D02*
X13923184Y-15300031D01*
X13923184Y-15300031D02*
X13942231Y-15290507D01*
X13942231Y-15290507D02*
X13970803Y-15290507D01*
X13970803Y-15290507D02*
X13989850Y-15300031D01*
X14066041Y-15500031D02*
X14075565Y-15490507D01*
X14075565Y-15490507D02*
X14094612Y-15461936D01*
X14094612Y-15461936D02*
X14104136Y-15442888D01*
X14104136Y-15442888D02*
X14113660Y-15414317D01*
X14113660Y-15414317D02*
X14123184Y-15366698D01*
X14123184Y-15366698D02*
X14123184Y-15328603D01*
X14123184Y-15328603D02*
X14113660Y-15280984D01*
X14113660Y-15280984D02*
X14104136Y-15252412D01*
X14104136Y-15252412D02*
X14094612Y-15233365D01*
X14094612Y-15233365D02*
X14075565Y-15204793D01*
X14075565Y-15204793D02*
X14066041Y-15195269D01*
D12*
X9100502Y-15596357D02*
G75*
G02*
X9060502Y-15596357I-20000J0D01*
G01*
X9060502Y-15596357D02*
G75*
G02*
X9100502Y-15596357I20000J0D01*
G01*
D11*
X9399374Y-15487841D02*
X9418422Y-15487841D01*
X9418422Y-15487841D02*
X9437469Y-15497365D01*
X9437469Y-15497365D02*
X9446993Y-15506888D01*
X9446993Y-15506888D02*
X9456517Y-15525936D01*
X9456517Y-15525936D02*
X9466041Y-15564031D01*
X9466041Y-15564031D02*
X9466041Y-15611650D01*
X9466041Y-15611650D02*
X9456517Y-15649746D01*
X9456517Y-15649746D02*
X9446993Y-15668793D01*
X9446993Y-15668793D02*
X9437469Y-15678317D01*
X9437469Y-15678317D02*
X9418422Y-15687841D01*
X9418422Y-15687841D02*
X9399374Y-15687841D01*
X9399374Y-15687841D02*
X9380326Y-15678317D01*
X9380326Y-15678317D02*
X9370802Y-15668793D01*
X9370802Y-15668793D02*
X9361279Y-15649746D01*
X9361279Y-15649746D02*
X9351755Y-15611650D01*
X9351755Y-15611650D02*
X9351755Y-15564031D01*
X9351755Y-15564031D02*
X9361279Y-15525936D01*
X9361279Y-15525936D02*
X9370802Y-15506888D01*
X9370802Y-15506888D02*
X9380326Y-15497365D01*
X9380326Y-15497365D02*
X9399374Y-15487841D01*
X9551755Y-15668793D02*
X9561279Y-15678317D01*
X9561279Y-15678317D02*
X9551755Y-15687841D01*
X9551755Y-15687841D02*
X9542231Y-15678317D01*
X9542231Y-15678317D02*
X9551755Y-15668793D01*
X9551755Y-15668793D02*
X9551755Y-15687841D01*
X9732707Y-15554507D02*
X9732707Y-15687841D01*
X9685088Y-15478317D02*
X9637469Y-15621174D01*
X9637469Y-15621174D02*
X9761279Y-15621174D01*
X9875564Y-15487841D02*
X9894612Y-15487841D01*
X9894612Y-15487841D02*
X9913660Y-15497365D01*
X9913660Y-15497365D02*
X9923183Y-15506888D01*
X9923183Y-15506888D02*
X9932707Y-15525936D01*
X9932707Y-15525936D02*
X9942231Y-15564031D01*
X9942231Y-15564031D02*
X9942231Y-15611650D01*
X9942231Y-15611650D02*
X9932707Y-15649746D01*
X9932707Y-15649746D02*
X9923183Y-15668793D01*
X9923183Y-15668793D02*
X9913660Y-15678317D01*
X9913660Y-15678317D02*
X9894612Y-15687841D01*
X9894612Y-15687841D02*
X9875564Y-15687841D01*
X9875564Y-15687841D02*
X9856517Y-15678317D01*
X9856517Y-15678317D02*
X9846993Y-15668793D01*
X9846993Y-15668793D02*
X9837469Y-15649746D01*
X9837469Y-15649746D02*
X9827945Y-15611650D01*
X9827945Y-15611650D02*
X9827945Y-15564031D01*
X9827945Y-15564031D02*
X9837469Y-15525936D01*
X9837469Y-15525936D02*
X9846993Y-15506888D01*
X9846993Y-15506888D02*
X9856517Y-15497365D01*
X9856517Y-15497365D02*
X9875564Y-15487841D01*
X10066041Y-15487841D02*
X10085088Y-15487841D01*
X10085088Y-15487841D02*
X10104136Y-15497365D01*
X10104136Y-15497365D02*
X10113660Y-15506888D01*
X10113660Y-15506888D02*
X10123183Y-15525936D01*
X10123183Y-15525936D02*
X10132707Y-15564031D01*
X10132707Y-15564031D02*
X10132707Y-15611650D01*
X10132707Y-15611650D02*
X10123183Y-15649746D01*
X10123183Y-15649746D02*
X10113660Y-15668793D01*
X10113660Y-15668793D02*
X10104136Y-15678317D01*
X10104136Y-15678317D02*
X10085088Y-15687841D01*
X10085088Y-15687841D02*
X10066041Y-15687841D01*
X10066041Y-15687841D02*
X10046993Y-15678317D01*
X10046993Y-15678317D02*
X10037469Y-15668793D01*
X10037469Y-15668793D02*
X10027945Y-15649746D01*
X10027945Y-15649746D02*
X10018422Y-15611650D01*
X10018422Y-15611650D02*
X10018422Y-15564031D01*
X10018422Y-15564031D02*
X10027945Y-15525936D01*
X10027945Y-15525936D02*
X10037469Y-15506888D01*
X10037469Y-15506888D02*
X10046993Y-15497365D01*
X10046993Y-15497365D02*
X10066041Y-15487841D01*
X10218422Y-15687841D02*
X10218422Y-15554507D01*
X10218422Y-15573555D02*
X10227945Y-15564031D01*
X10227945Y-15564031D02*
X10246993Y-15554507D01*
X10246993Y-15554507D02*
X10275564Y-15554507D01*
X10275564Y-15554507D02*
X10294612Y-15564031D01*
X10294612Y-15564031D02*
X10304136Y-15583079D01*
X10304136Y-15583079D02*
X10304136Y-15687841D01*
X10304136Y-15583079D02*
X10313660Y-15564031D01*
X10313660Y-15564031D02*
X10332707Y-15554507D01*
X10332707Y-15554507D02*
X10361279Y-15554507D01*
X10361279Y-15554507D02*
X10380326Y-15564031D01*
X10380326Y-15564031D02*
X10389850Y-15583079D01*
X10389850Y-15583079D02*
X10389850Y-15687841D01*
X10485088Y-15687841D02*
X10485088Y-15554507D01*
X10485088Y-15573555D02*
X10494612Y-15564031D01*
X10494612Y-15564031D02*
X10513660Y-15554507D01*
X10513660Y-15554507D02*
X10542231Y-15554507D01*
X10542231Y-15554507D02*
X10561279Y-15564031D01*
X10561279Y-15564031D02*
X10570803Y-15583079D01*
X10570803Y-15583079D02*
X10570803Y-15687841D01*
X10570803Y-15583079D02*
X10580326Y-15564031D01*
X10580326Y-15564031D02*
X10599374Y-15554507D01*
X10599374Y-15554507D02*
X10627945Y-15554507D01*
X10627945Y-15554507D02*
X10646993Y-15564031D01*
X10646993Y-15564031D02*
X10656517Y-15583079D01*
X10656517Y-15583079D02*
X10656517Y-15687841D01*
X11046993Y-15478317D02*
X10875565Y-15735460D01*
X11304136Y-15487841D02*
X11323184Y-15487841D01*
X11323184Y-15487841D02*
X11342231Y-15497365D01*
X11342231Y-15497365D02*
X11351755Y-15506888D01*
X11351755Y-15506888D02*
X11361279Y-15525936D01*
X11361279Y-15525936D02*
X11370803Y-15564031D01*
X11370803Y-15564031D02*
X11370803Y-15611650D01*
X11370803Y-15611650D02*
X11361279Y-15649746D01*
X11361279Y-15649746D02*
X11351755Y-15668793D01*
X11351755Y-15668793D02*
X11342231Y-15678317D01*
X11342231Y-15678317D02*
X11323184Y-15687841D01*
X11323184Y-15687841D02*
X11304136Y-15687841D01*
X11304136Y-15687841D02*
X11285088Y-15678317D01*
X11285088Y-15678317D02*
X11275564Y-15668793D01*
X11275564Y-15668793D02*
X11266041Y-15649746D01*
X11266041Y-15649746D02*
X11256517Y-15611650D01*
X11256517Y-15611650D02*
X11256517Y-15564031D01*
X11256517Y-15564031D02*
X11266041Y-15525936D01*
X11266041Y-15525936D02*
X11275564Y-15506888D01*
X11275564Y-15506888D02*
X11285088Y-15497365D01*
X11285088Y-15497365D02*
X11304136Y-15487841D01*
X11456517Y-15668793D02*
X11466041Y-15678317D01*
X11466041Y-15678317D02*
X11456517Y-15687841D01*
X11456517Y-15687841D02*
X11446993Y-15678317D01*
X11446993Y-15678317D02*
X11456517Y-15668793D01*
X11456517Y-15668793D02*
X11456517Y-15687841D01*
X11589850Y-15487841D02*
X11608898Y-15487841D01*
X11608898Y-15487841D02*
X11627945Y-15497365D01*
X11627945Y-15497365D02*
X11637469Y-15506888D01*
X11637469Y-15506888D02*
X11646993Y-15525936D01*
X11646993Y-15525936D02*
X11656517Y-15564031D01*
X11656517Y-15564031D02*
X11656517Y-15611650D01*
X11656517Y-15611650D02*
X11646993Y-15649746D01*
X11646993Y-15649746D02*
X11637469Y-15668793D01*
X11637469Y-15668793D02*
X11627945Y-15678317D01*
X11627945Y-15678317D02*
X11608898Y-15687841D01*
X11608898Y-15687841D02*
X11589850Y-15687841D01*
X11589850Y-15687841D02*
X11570803Y-15678317D01*
X11570803Y-15678317D02*
X11561279Y-15668793D01*
X11561279Y-15668793D02*
X11551755Y-15649746D01*
X11551755Y-15649746D02*
X11542231Y-15611650D01*
X11542231Y-15611650D02*
X11542231Y-15564031D01*
X11542231Y-15564031D02*
X11551755Y-15525936D01*
X11551755Y-15525936D02*
X11561279Y-15506888D01*
X11561279Y-15506888D02*
X11570803Y-15497365D01*
X11570803Y-15497365D02*
X11589850Y-15487841D01*
X11846993Y-15687841D02*
X11732707Y-15687841D01*
X11789850Y-15687841D02*
X11789850Y-15487841D01*
X11789850Y-15487841D02*
X11770803Y-15516412D01*
X11770803Y-15516412D02*
X11751755Y-15535460D01*
X11751755Y-15535460D02*
X11732707Y-15544984D01*
X12027945Y-15487841D02*
X11932707Y-15487841D01*
X11932707Y-15487841D02*
X11923184Y-15583079D01*
X11923184Y-15583079D02*
X11932707Y-15573555D01*
X11932707Y-15573555D02*
X11951755Y-15564031D01*
X11951755Y-15564031D02*
X11999374Y-15564031D01*
X11999374Y-15564031D02*
X12018422Y-15573555D01*
X12018422Y-15573555D02*
X12027945Y-15583079D01*
X12027945Y-15583079D02*
X12037469Y-15602127D01*
X12037469Y-15602127D02*
X12037469Y-15649746D01*
X12037469Y-15649746D02*
X12027945Y-15668793D01*
X12027945Y-15668793D02*
X12018422Y-15678317D01*
X12018422Y-15678317D02*
X11999374Y-15687841D01*
X11999374Y-15687841D02*
X11951755Y-15687841D01*
X11951755Y-15687841D02*
X11932707Y-15678317D01*
X11932707Y-15678317D02*
X11923184Y-15668793D01*
X12104136Y-15487841D02*
X12237469Y-15487841D01*
X12237469Y-15487841D02*
X12151755Y-15687841D01*
X12304136Y-15487841D02*
X12304136Y-15525936D01*
X12380326Y-15487841D02*
X12380326Y-15525936D01*
X12675565Y-15764031D02*
X12666041Y-15754507D01*
X12666041Y-15754507D02*
X12646993Y-15725936D01*
X12646993Y-15725936D02*
X12637469Y-15706888D01*
X12637469Y-15706888D02*
X12627946Y-15678317D01*
X12627946Y-15678317D02*
X12618422Y-15630698D01*
X12618422Y-15630698D02*
X12618422Y-15592603D01*
X12618422Y-15592603D02*
X12627946Y-15544984D01*
X12627946Y-15544984D02*
X12637469Y-15516412D01*
X12637469Y-15516412D02*
X12646993Y-15497365D01*
X12646993Y-15497365D02*
X12666041Y-15468793D01*
X12666041Y-15468793D02*
X12675565Y-15459269D01*
X12742231Y-15506888D02*
X12751755Y-15497365D01*
X12751755Y-15497365D02*
X12770803Y-15487841D01*
X12770803Y-15487841D02*
X12818422Y-15487841D01*
X12818422Y-15487841D02*
X12837469Y-15497365D01*
X12837469Y-15497365D02*
X12846993Y-15506888D01*
X12846993Y-15506888D02*
X12856517Y-15525936D01*
X12856517Y-15525936D02*
X12856517Y-15544984D01*
X12856517Y-15544984D02*
X12846993Y-15573555D01*
X12846993Y-15573555D02*
X12732707Y-15687841D01*
X12732707Y-15687841D02*
X12856517Y-15687841D01*
X13027946Y-15554507D02*
X13027946Y-15687841D01*
X12980326Y-15478317D02*
X12932707Y-15621174D01*
X12932707Y-15621174D02*
X13056517Y-15621174D01*
X13285088Y-15687841D02*
X13285088Y-15487841D01*
X13370803Y-15687841D02*
X13370803Y-15583079D01*
X13370803Y-15583079D02*
X13361279Y-15564031D01*
X13361279Y-15564031D02*
X13342231Y-15554507D01*
X13342231Y-15554507D02*
X13313660Y-15554507D01*
X13313660Y-15554507D02*
X13294612Y-15564031D01*
X13294612Y-15564031D02*
X13285088Y-15573555D01*
X13494612Y-15687841D02*
X13475565Y-15678317D01*
X13475565Y-15678317D02*
X13466041Y-15668793D01*
X13466041Y-15668793D02*
X13456517Y-15649746D01*
X13456517Y-15649746D02*
X13456517Y-15592603D01*
X13456517Y-15592603D02*
X13466041Y-15573555D01*
X13466041Y-15573555D02*
X13475565Y-15564031D01*
X13475565Y-15564031D02*
X13494612Y-15554507D01*
X13494612Y-15554507D02*
X13523184Y-15554507D01*
X13523184Y-15554507D02*
X13542231Y-15564031D01*
X13542231Y-15564031D02*
X13551755Y-15573555D01*
X13551755Y-15573555D02*
X13561279Y-15592603D01*
X13561279Y-15592603D02*
X13561279Y-15649746D01*
X13561279Y-15649746D02*
X13551755Y-15668793D01*
X13551755Y-15668793D02*
X13542231Y-15678317D01*
X13542231Y-15678317D02*
X13523184Y-15687841D01*
X13523184Y-15687841D02*
X13494612Y-15687841D01*
X13675565Y-15687841D02*
X13656517Y-15678317D01*
X13656517Y-15678317D02*
X13646993Y-15659269D01*
X13646993Y-15659269D02*
X13646993Y-15487841D01*
X13827946Y-15678317D02*
X13808898Y-15687841D01*
X13808898Y-15687841D02*
X13770803Y-15687841D01*
X13770803Y-15687841D02*
X13751755Y-15678317D01*
X13751755Y-15678317D02*
X13742231Y-15659269D01*
X13742231Y-15659269D02*
X13742231Y-15583079D01*
X13742231Y-15583079D02*
X13751755Y-15564031D01*
X13751755Y-15564031D02*
X13770803Y-15554507D01*
X13770803Y-15554507D02*
X13808898Y-15554507D01*
X13808898Y-15554507D02*
X13827946Y-15564031D01*
X13827946Y-15564031D02*
X13837469Y-15583079D01*
X13837469Y-15583079D02*
X13837469Y-15602127D01*
X13837469Y-15602127D02*
X13742231Y-15621174D01*
X13913660Y-15678317D02*
X13932708Y-15687841D01*
X13932708Y-15687841D02*
X13970803Y-15687841D01*
X13970803Y-15687841D02*
X13989850Y-15678317D01*
X13989850Y-15678317D02*
X13999374Y-15659269D01*
X13999374Y-15659269D02*
X13999374Y-15649746D01*
X13999374Y-15649746D02*
X13989850Y-15630698D01*
X13989850Y-15630698D02*
X13970803Y-15621174D01*
X13970803Y-15621174D02*
X13942231Y-15621174D01*
X13942231Y-15621174D02*
X13923184Y-15611650D01*
X13923184Y-15611650D02*
X13913660Y-15592603D01*
X13913660Y-15592603D02*
X13913660Y-15583079D01*
X13913660Y-15583079D02*
X13923184Y-15564031D01*
X13923184Y-15564031D02*
X13942231Y-15554507D01*
X13942231Y-15554507D02*
X13970803Y-15554507D01*
X13970803Y-15554507D02*
X13989850Y-15564031D01*
X14066041Y-15764031D02*
X14075565Y-15754507D01*
X14075565Y-15754507D02*
X14094612Y-15725936D01*
X14094612Y-15725936D02*
X14104136Y-15706888D01*
X14104136Y-15706888D02*
X14113660Y-15678317D01*
X14113660Y-15678317D02*
X14123184Y-15630698D01*
X14123184Y-15630698D02*
X14123184Y-15592603D01*
X14123184Y-15592603D02*
X14113660Y-15544984D01*
X14113660Y-15544984D02*
X14104136Y-15516412D01*
X14104136Y-15516412D02*
X14094612Y-15497365D01*
X14094612Y-15497365D02*
X14075565Y-15468793D01*
X14075565Y-15468793D02*
X14066041Y-15459269D01*
D12*
X9063002Y-15822857D02*
X9063002Y-15897857D01*
X9025502Y-15860357D02*
X9100502Y-15860357D01*
D11*
X9399374Y-15751841D02*
X9418422Y-15751841D01*
X9418422Y-15751841D02*
X9437469Y-15761365D01*
X9437469Y-15761365D02*
X9446993Y-15770888D01*
X9446993Y-15770888D02*
X9456517Y-15789936D01*
X9456517Y-15789936D02*
X9466041Y-15828031D01*
X9466041Y-15828031D02*
X9466041Y-15875650D01*
X9466041Y-15875650D02*
X9456517Y-15913746D01*
X9456517Y-15913746D02*
X9446993Y-15932793D01*
X9446993Y-15932793D02*
X9437469Y-15942317D01*
X9437469Y-15942317D02*
X9418422Y-15951841D01*
X9418422Y-15951841D02*
X9399374Y-15951841D01*
X9399374Y-15951841D02*
X9380326Y-15942317D01*
X9380326Y-15942317D02*
X9370802Y-15932793D01*
X9370802Y-15932793D02*
X9361279Y-15913746D01*
X9361279Y-15913746D02*
X9351755Y-15875650D01*
X9351755Y-15875650D02*
X9351755Y-15828031D01*
X9351755Y-15828031D02*
X9361279Y-15789936D01*
X9361279Y-15789936D02*
X9370802Y-15770888D01*
X9370802Y-15770888D02*
X9380326Y-15761365D01*
X9380326Y-15761365D02*
X9399374Y-15751841D01*
X9551755Y-15932793D02*
X9561279Y-15942317D01*
X9561279Y-15942317D02*
X9551755Y-15951841D01*
X9551755Y-15951841D02*
X9542231Y-15942317D01*
X9542231Y-15942317D02*
X9551755Y-15932793D01*
X9551755Y-15932793D02*
X9551755Y-15951841D01*
X9627945Y-15751841D02*
X9761279Y-15751841D01*
X9761279Y-15751841D02*
X9675564Y-15951841D01*
X9932707Y-15751841D02*
X9837469Y-15751841D01*
X9837469Y-15751841D02*
X9827945Y-15847079D01*
X9827945Y-15847079D02*
X9837469Y-15837555D01*
X9837469Y-15837555D02*
X9856517Y-15828031D01*
X9856517Y-15828031D02*
X9904136Y-15828031D01*
X9904136Y-15828031D02*
X9923183Y-15837555D01*
X9923183Y-15837555D02*
X9932707Y-15847079D01*
X9932707Y-15847079D02*
X9942231Y-15866127D01*
X9942231Y-15866127D02*
X9942231Y-15913746D01*
X9942231Y-15913746D02*
X9932707Y-15932793D01*
X9932707Y-15932793D02*
X9923183Y-15942317D01*
X9923183Y-15942317D02*
X9904136Y-15951841D01*
X9904136Y-15951841D02*
X9856517Y-15951841D01*
X9856517Y-15951841D02*
X9837469Y-15942317D01*
X9837469Y-15942317D02*
X9827945Y-15932793D01*
X10066041Y-15751841D02*
X10085088Y-15751841D01*
X10085088Y-15751841D02*
X10104136Y-15761365D01*
X10104136Y-15761365D02*
X10113660Y-15770888D01*
X10113660Y-15770888D02*
X10123183Y-15789936D01*
X10123183Y-15789936D02*
X10132707Y-15828031D01*
X10132707Y-15828031D02*
X10132707Y-15875650D01*
X10132707Y-15875650D02*
X10123183Y-15913746D01*
X10123183Y-15913746D02*
X10113660Y-15932793D01*
X10113660Y-15932793D02*
X10104136Y-15942317D01*
X10104136Y-15942317D02*
X10085088Y-15951841D01*
X10085088Y-15951841D02*
X10066041Y-15951841D01*
X10066041Y-15951841D02*
X10046993Y-15942317D01*
X10046993Y-15942317D02*
X10037469Y-15932793D01*
X10037469Y-15932793D02*
X10027945Y-15913746D01*
X10027945Y-15913746D02*
X10018422Y-15875650D01*
X10018422Y-15875650D02*
X10018422Y-15828031D01*
X10018422Y-15828031D02*
X10027945Y-15789936D01*
X10027945Y-15789936D02*
X10037469Y-15770888D01*
X10037469Y-15770888D02*
X10046993Y-15761365D01*
X10046993Y-15761365D02*
X10066041Y-15751841D01*
X10218422Y-15951841D02*
X10218422Y-15818507D01*
X10218422Y-15837555D02*
X10227945Y-15828031D01*
X10227945Y-15828031D02*
X10246993Y-15818507D01*
X10246993Y-15818507D02*
X10275564Y-15818507D01*
X10275564Y-15818507D02*
X10294612Y-15828031D01*
X10294612Y-15828031D02*
X10304136Y-15847079D01*
X10304136Y-15847079D02*
X10304136Y-15951841D01*
X10304136Y-15847079D02*
X10313660Y-15828031D01*
X10313660Y-15828031D02*
X10332707Y-15818507D01*
X10332707Y-15818507D02*
X10361279Y-15818507D01*
X10361279Y-15818507D02*
X10380326Y-15828031D01*
X10380326Y-15828031D02*
X10389850Y-15847079D01*
X10389850Y-15847079D02*
X10389850Y-15951841D01*
X10485088Y-15951841D02*
X10485088Y-15818507D01*
X10485088Y-15837555D02*
X10494612Y-15828031D01*
X10494612Y-15828031D02*
X10513660Y-15818507D01*
X10513660Y-15818507D02*
X10542231Y-15818507D01*
X10542231Y-15818507D02*
X10561279Y-15828031D01*
X10561279Y-15828031D02*
X10570803Y-15847079D01*
X10570803Y-15847079D02*
X10570803Y-15951841D01*
X10570803Y-15847079D02*
X10580326Y-15828031D01*
X10580326Y-15828031D02*
X10599374Y-15818507D01*
X10599374Y-15818507D02*
X10627945Y-15818507D01*
X10627945Y-15818507D02*
X10646993Y-15828031D01*
X10646993Y-15828031D02*
X10656517Y-15847079D01*
X10656517Y-15847079D02*
X10656517Y-15951841D01*
X11046993Y-15742317D02*
X10875565Y-15999460D01*
X11304136Y-15751841D02*
X11323184Y-15751841D01*
X11323184Y-15751841D02*
X11342231Y-15761365D01*
X11342231Y-15761365D02*
X11351755Y-15770888D01*
X11351755Y-15770888D02*
X11361279Y-15789936D01*
X11361279Y-15789936D02*
X11370803Y-15828031D01*
X11370803Y-15828031D02*
X11370803Y-15875650D01*
X11370803Y-15875650D02*
X11361279Y-15913746D01*
X11361279Y-15913746D02*
X11351755Y-15932793D01*
X11351755Y-15932793D02*
X11342231Y-15942317D01*
X11342231Y-15942317D02*
X11323184Y-15951841D01*
X11323184Y-15951841D02*
X11304136Y-15951841D01*
X11304136Y-15951841D02*
X11285088Y-15942317D01*
X11285088Y-15942317D02*
X11275564Y-15932793D01*
X11275564Y-15932793D02*
X11266041Y-15913746D01*
X11266041Y-15913746D02*
X11256517Y-15875650D01*
X11256517Y-15875650D02*
X11256517Y-15828031D01*
X11256517Y-15828031D02*
X11266041Y-15789936D01*
X11266041Y-15789936D02*
X11275564Y-15770888D01*
X11275564Y-15770888D02*
X11285088Y-15761365D01*
X11285088Y-15761365D02*
X11304136Y-15751841D01*
X11456517Y-15932793D02*
X11466041Y-15942317D01*
X11466041Y-15942317D02*
X11456517Y-15951841D01*
X11456517Y-15951841D02*
X11446993Y-15942317D01*
X11446993Y-15942317D02*
X11456517Y-15932793D01*
X11456517Y-15932793D02*
X11456517Y-15951841D01*
X11589850Y-15751841D02*
X11608898Y-15751841D01*
X11608898Y-15751841D02*
X11627945Y-15761365D01*
X11627945Y-15761365D02*
X11637469Y-15770888D01*
X11637469Y-15770888D02*
X11646993Y-15789936D01*
X11646993Y-15789936D02*
X11656517Y-15828031D01*
X11656517Y-15828031D02*
X11656517Y-15875650D01*
X11656517Y-15875650D02*
X11646993Y-15913746D01*
X11646993Y-15913746D02*
X11637469Y-15932793D01*
X11637469Y-15932793D02*
X11627945Y-15942317D01*
X11627945Y-15942317D02*
X11608898Y-15951841D01*
X11608898Y-15951841D02*
X11589850Y-15951841D01*
X11589850Y-15951841D02*
X11570803Y-15942317D01*
X11570803Y-15942317D02*
X11561279Y-15932793D01*
X11561279Y-15932793D02*
X11551755Y-15913746D01*
X11551755Y-15913746D02*
X11542231Y-15875650D01*
X11542231Y-15875650D02*
X11542231Y-15828031D01*
X11542231Y-15828031D02*
X11551755Y-15789936D01*
X11551755Y-15789936D02*
X11561279Y-15770888D01*
X11561279Y-15770888D02*
X11570803Y-15761365D01*
X11570803Y-15761365D02*
X11589850Y-15751841D01*
X11732707Y-15770888D02*
X11742231Y-15761365D01*
X11742231Y-15761365D02*
X11761279Y-15751841D01*
X11761279Y-15751841D02*
X11808898Y-15751841D01*
X11808898Y-15751841D02*
X11827945Y-15761365D01*
X11827945Y-15761365D02*
X11837469Y-15770888D01*
X11837469Y-15770888D02*
X11846993Y-15789936D01*
X11846993Y-15789936D02*
X11846993Y-15808984D01*
X11846993Y-15808984D02*
X11837469Y-15837555D01*
X11837469Y-15837555D02*
X11723184Y-15951841D01*
X11723184Y-15951841D02*
X11846993Y-15951841D01*
X11942231Y-15951841D02*
X11980326Y-15951841D01*
X11980326Y-15951841D02*
X11999374Y-15942317D01*
X11999374Y-15942317D02*
X12008898Y-15932793D01*
X12008898Y-15932793D02*
X12027945Y-15904222D01*
X12027945Y-15904222D02*
X12037469Y-15866127D01*
X12037469Y-15866127D02*
X12037469Y-15789936D01*
X12037469Y-15789936D02*
X12027945Y-15770888D01*
X12027945Y-15770888D02*
X12018422Y-15761365D01*
X12018422Y-15761365D02*
X11999374Y-15751841D01*
X11999374Y-15751841D02*
X11961279Y-15751841D01*
X11961279Y-15751841D02*
X11942231Y-15761365D01*
X11942231Y-15761365D02*
X11932707Y-15770888D01*
X11932707Y-15770888D02*
X11923184Y-15789936D01*
X11923184Y-15789936D02*
X11923184Y-15837555D01*
X11923184Y-15837555D02*
X11932707Y-15856603D01*
X11932707Y-15856603D02*
X11942231Y-15866127D01*
X11942231Y-15866127D02*
X11961279Y-15875650D01*
X11961279Y-15875650D02*
X11999374Y-15875650D01*
X11999374Y-15875650D02*
X12018422Y-15866127D01*
X12018422Y-15866127D02*
X12027945Y-15856603D01*
X12027945Y-15856603D02*
X12037469Y-15837555D01*
X12218422Y-15751841D02*
X12123184Y-15751841D01*
X12123184Y-15751841D02*
X12113660Y-15847079D01*
X12113660Y-15847079D02*
X12123184Y-15837555D01*
X12123184Y-15837555D02*
X12142231Y-15828031D01*
X12142231Y-15828031D02*
X12189850Y-15828031D01*
X12189850Y-15828031D02*
X12208898Y-15837555D01*
X12208898Y-15837555D02*
X12218422Y-15847079D01*
X12218422Y-15847079D02*
X12227945Y-15866127D01*
X12227945Y-15866127D02*
X12227945Y-15913746D01*
X12227945Y-15913746D02*
X12218422Y-15932793D01*
X12218422Y-15932793D02*
X12208898Y-15942317D01*
X12208898Y-15942317D02*
X12189850Y-15951841D01*
X12189850Y-15951841D02*
X12142231Y-15951841D01*
X12142231Y-15951841D02*
X12123184Y-15942317D01*
X12123184Y-15942317D02*
X12113660Y-15932793D01*
X12304136Y-15751841D02*
X12304136Y-15789936D01*
X12380326Y-15751841D02*
X12380326Y-15789936D01*
X12675565Y-16028031D02*
X12666041Y-16018507D01*
X12666041Y-16018507D02*
X12646993Y-15989936D01*
X12646993Y-15989936D02*
X12637469Y-15970888D01*
X12637469Y-15970888D02*
X12627946Y-15942317D01*
X12627946Y-15942317D02*
X12618422Y-15894698D01*
X12618422Y-15894698D02*
X12618422Y-15856603D01*
X12618422Y-15856603D02*
X12627946Y-15808984D01*
X12627946Y-15808984D02*
X12637469Y-15780412D01*
X12637469Y-15780412D02*
X12646993Y-15761365D01*
X12646993Y-15761365D02*
X12666041Y-15732793D01*
X12666041Y-15732793D02*
X12675565Y-15723269D01*
X12742231Y-15770888D02*
X12751755Y-15761365D01*
X12751755Y-15761365D02*
X12770803Y-15751841D01*
X12770803Y-15751841D02*
X12818422Y-15751841D01*
X12818422Y-15751841D02*
X12837469Y-15761365D01*
X12837469Y-15761365D02*
X12846993Y-15770888D01*
X12846993Y-15770888D02*
X12856517Y-15789936D01*
X12856517Y-15789936D02*
X12856517Y-15808984D01*
X12856517Y-15808984D02*
X12846993Y-15837555D01*
X12846993Y-15837555D02*
X12732707Y-15951841D01*
X12732707Y-15951841D02*
X12856517Y-15951841D01*
X13094612Y-15951841D02*
X13094612Y-15751841D01*
X13180327Y-15951841D02*
X13180327Y-15847079D01*
X13180327Y-15847079D02*
X13170803Y-15828031D01*
X13170803Y-15828031D02*
X13151755Y-15818507D01*
X13151755Y-15818507D02*
X13123184Y-15818507D01*
X13123184Y-15818507D02*
X13104136Y-15828031D01*
X13104136Y-15828031D02*
X13094612Y-15837555D01*
X13304136Y-15951841D02*
X13285088Y-15942317D01*
X13285088Y-15942317D02*
X13275565Y-15932793D01*
X13275565Y-15932793D02*
X13266041Y-15913746D01*
X13266041Y-15913746D02*
X13266041Y-15856603D01*
X13266041Y-15856603D02*
X13275565Y-15837555D01*
X13275565Y-15837555D02*
X13285088Y-15828031D01*
X13285088Y-15828031D02*
X13304136Y-15818507D01*
X13304136Y-15818507D02*
X13332708Y-15818507D01*
X13332708Y-15818507D02*
X13351755Y-15828031D01*
X13351755Y-15828031D02*
X13361279Y-15837555D01*
X13361279Y-15837555D02*
X13370803Y-15856603D01*
X13370803Y-15856603D02*
X13370803Y-15913746D01*
X13370803Y-15913746D02*
X13361279Y-15932793D01*
X13361279Y-15932793D02*
X13351755Y-15942317D01*
X13351755Y-15942317D02*
X13332708Y-15951841D01*
X13332708Y-15951841D02*
X13304136Y-15951841D01*
X13485088Y-15951841D02*
X13466041Y-15942317D01*
X13466041Y-15942317D02*
X13456517Y-15923269D01*
X13456517Y-15923269D02*
X13456517Y-15751841D01*
X13637469Y-15942317D02*
X13618422Y-15951841D01*
X13618422Y-15951841D02*
X13580327Y-15951841D01*
X13580327Y-15951841D02*
X13561279Y-15942317D01*
X13561279Y-15942317D02*
X13551755Y-15923269D01*
X13551755Y-15923269D02*
X13551755Y-15847079D01*
X13551755Y-15847079D02*
X13561279Y-15828031D01*
X13561279Y-15828031D02*
X13580327Y-15818507D01*
X13580327Y-15818507D02*
X13618422Y-15818507D01*
X13618422Y-15818507D02*
X13637469Y-15828031D01*
X13637469Y-15828031D02*
X13646993Y-15847079D01*
X13646993Y-15847079D02*
X13646993Y-15866127D01*
X13646993Y-15866127D02*
X13551755Y-15885174D01*
X13723184Y-15942317D02*
X13742231Y-15951841D01*
X13742231Y-15951841D02*
X13780327Y-15951841D01*
X13780327Y-15951841D02*
X13799374Y-15942317D01*
X13799374Y-15942317D02*
X13808898Y-15923269D01*
X13808898Y-15923269D02*
X13808898Y-15913746D01*
X13808898Y-15913746D02*
X13799374Y-15894698D01*
X13799374Y-15894698D02*
X13780327Y-15885174D01*
X13780327Y-15885174D02*
X13751755Y-15885174D01*
X13751755Y-15885174D02*
X13732708Y-15875650D01*
X13732708Y-15875650D02*
X13723184Y-15856603D01*
X13723184Y-15856603D02*
X13723184Y-15847079D01*
X13723184Y-15847079D02*
X13732708Y-15828031D01*
X13732708Y-15828031D02*
X13751755Y-15818507D01*
X13751755Y-15818507D02*
X13780327Y-15818507D01*
X13780327Y-15818507D02*
X13799374Y-15828031D01*
X13875565Y-16028031D02*
X13885089Y-16018507D01*
X13885089Y-16018507D02*
X13904136Y-15989936D01*
X13904136Y-15989936D02*
X13913660Y-15970888D01*
X13913660Y-15970888D02*
X13923184Y-15942317D01*
X13923184Y-15942317D02*
X13932708Y-15894698D01*
X13932708Y-15894698D02*
X13932708Y-15856603D01*
X13932708Y-15856603D02*
X13923184Y-15808984D01*
X13923184Y-15808984D02*
X13913660Y-15780412D01*
X13913660Y-15780412D02*
X13904136Y-15761365D01*
X13904136Y-15761365D02*
X13885089Y-15732793D01*
X13885089Y-15732793D02*
X13875565Y-15723269D01*
D12*
X9085858Y-16159713D02*
X9085858Y-16089001D01*
X9015146Y-16089001D01*
X9015146Y-16159713D01*
X9085858Y-16159713D01*
D11*
X9466041Y-16215841D02*
X9351755Y-16215841D01*
X9408898Y-16215841D02*
X9408898Y-16015841D01*
X9408898Y-16015841D02*
X9389850Y-16044412D01*
X9389850Y-16044412D02*
X9370802Y-16063460D01*
X9370802Y-16063460D02*
X9351755Y-16072984D01*
X9551755Y-16196793D02*
X9561279Y-16206317D01*
X9561279Y-16206317D02*
X9551755Y-16215841D01*
X9551755Y-16215841D02*
X9542231Y-16206317D01*
X9542231Y-16206317D02*
X9551755Y-16196793D01*
X9551755Y-16196793D02*
X9551755Y-16215841D01*
X9685088Y-16015841D02*
X9704136Y-16015841D01*
X9704136Y-16015841D02*
X9723183Y-16025365D01*
X9723183Y-16025365D02*
X9732707Y-16034888D01*
X9732707Y-16034888D02*
X9742231Y-16053936D01*
X9742231Y-16053936D02*
X9751755Y-16092031D01*
X9751755Y-16092031D02*
X9751755Y-16139650D01*
X9751755Y-16139650D02*
X9742231Y-16177746D01*
X9742231Y-16177746D02*
X9732707Y-16196793D01*
X9732707Y-16196793D02*
X9723183Y-16206317D01*
X9723183Y-16206317D02*
X9704136Y-16215841D01*
X9704136Y-16215841D02*
X9685088Y-16215841D01*
X9685088Y-16215841D02*
X9666041Y-16206317D01*
X9666041Y-16206317D02*
X9656517Y-16196793D01*
X9656517Y-16196793D02*
X9646993Y-16177746D01*
X9646993Y-16177746D02*
X9637469Y-16139650D01*
X9637469Y-16139650D02*
X9637469Y-16092031D01*
X9637469Y-16092031D02*
X9646993Y-16053936D01*
X9646993Y-16053936D02*
X9656517Y-16034888D01*
X9656517Y-16034888D02*
X9666041Y-16025365D01*
X9666041Y-16025365D02*
X9685088Y-16015841D01*
X9875564Y-16015841D02*
X9894612Y-16015841D01*
X9894612Y-16015841D02*
X9913660Y-16025365D01*
X9913660Y-16025365D02*
X9923183Y-16034888D01*
X9923183Y-16034888D02*
X9932707Y-16053936D01*
X9932707Y-16053936D02*
X9942231Y-16092031D01*
X9942231Y-16092031D02*
X9942231Y-16139650D01*
X9942231Y-16139650D02*
X9932707Y-16177746D01*
X9932707Y-16177746D02*
X9923183Y-16196793D01*
X9923183Y-16196793D02*
X9913660Y-16206317D01*
X9913660Y-16206317D02*
X9894612Y-16215841D01*
X9894612Y-16215841D02*
X9875564Y-16215841D01*
X9875564Y-16215841D02*
X9856517Y-16206317D01*
X9856517Y-16206317D02*
X9846993Y-16196793D01*
X9846993Y-16196793D02*
X9837469Y-16177746D01*
X9837469Y-16177746D02*
X9827945Y-16139650D01*
X9827945Y-16139650D02*
X9827945Y-16092031D01*
X9827945Y-16092031D02*
X9837469Y-16053936D01*
X9837469Y-16053936D02*
X9846993Y-16034888D01*
X9846993Y-16034888D02*
X9856517Y-16025365D01*
X9856517Y-16025365D02*
X9875564Y-16015841D01*
X10066041Y-16015841D02*
X10085088Y-16015841D01*
X10085088Y-16015841D02*
X10104136Y-16025365D01*
X10104136Y-16025365D02*
X10113660Y-16034888D01*
X10113660Y-16034888D02*
X10123183Y-16053936D01*
X10123183Y-16053936D02*
X10132707Y-16092031D01*
X10132707Y-16092031D02*
X10132707Y-16139650D01*
X10132707Y-16139650D02*
X10123183Y-16177746D01*
X10123183Y-16177746D02*
X10113660Y-16196793D01*
X10113660Y-16196793D02*
X10104136Y-16206317D01*
X10104136Y-16206317D02*
X10085088Y-16215841D01*
X10085088Y-16215841D02*
X10066041Y-16215841D01*
X10066041Y-16215841D02*
X10046993Y-16206317D01*
X10046993Y-16206317D02*
X10037469Y-16196793D01*
X10037469Y-16196793D02*
X10027945Y-16177746D01*
X10027945Y-16177746D02*
X10018422Y-16139650D01*
X10018422Y-16139650D02*
X10018422Y-16092031D01*
X10018422Y-16092031D02*
X10027945Y-16053936D01*
X10027945Y-16053936D02*
X10037469Y-16034888D01*
X10037469Y-16034888D02*
X10046993Y-16025365D01*
X10046993Y-16025365D02*
X10066041Y-16015841D01*
X10218422Y-16215841D02*
X10218422Y-16082507D01*
X10218422Y-16101555D02*
X10227945Y-16092031D01*
X10227945Y-16092031D02*
X10246993Y-16082507D01*
X10246993Y-16082507D02*
X10275564Y-16082507D01*
X10275564Y-16082507D02*
X10294612Y-16092031D01*
X10294612Y-16092031D02*
X10304136Y-16111079D01*
X10304136Y-16111079D02*
X10304136Y-16215841D01*
X10304136Y-16111079D02*
X10313660Y-16092031D01*
X10313660Y-16092031D02*
X10332707Y-16082507D01*
X10332707Y-16082507D02*
X10361279Y-16082507D01*
X10361279Y-16082507D02*
X10380326Y-16092031D01*
X10380326Y-16092031D02*
X10389850Y-16111079D01*
X10389850Y-16111079D02*
X10389850Y-16215841D01*
X10485088Y-16215841D02*
X10485088Y-16082507D01*
X10485088Y-16101555D02*
X10494612Y-16092031D01*
X10494612Y-16092031D02*
X10513660Y-16082507D01*
X10513660Y-16082507D02*
X10542231Y-16082507D01*
X10542231Y-16082507D02*
X10561279Y-16092031D01*
X10561279Y-16092031D02*
X10570803Y-16111079D01*
X10570803Y-16111079D02*
X10570803Y-16215841D01*
X10570803Y-16111079D02*
X10580326Y-16092031D01*
X10580326Y-16092031D02*
X10599374Y-16082507D01*
X10599374Y-16082507D02*
X10627945Y-16082507D01*
X10627945Y-16082507D02*
X10646993Y-16092031D01*
X10646993Y-16092031D02*
X10656517Y-16111079D01*
X10656517Y-16111079D02*
X10656517Y-16215841D01*
X11046993Y-16006317D02*
X10875565Y-16263460D01*
X11304136Y-16015841D02*
X11323184Y-16015841D01*
X11323184Y-16015841D02*
X11342231Y-16025365D01*
X11342231Y-16025365D02*
X11351755Y-16034888D01*
X11351755Y-16034888D02*
X11361279Y-16053936D01*
X11361279Y-16053936D02*
X11370803Y-16092031D01*
X11370803Y-16092031D02*
X11370803Y-16139650D01*
X11370803Y-16139650D02*
X11361279Y-16177746D01*
X11361279Y-16177746D02*
X11351755Y-16196793D01*
X11351755Y-16196793D02*
X11342231Y-16206317D01*
X11342231Y-16206317D02*
X11323184Y-16215841D01*
X11323184Y-16215841D02*
X11304136Y-16215841D01*
X11304136Y-16215841D02*
X11285088Y-16206317D01*
X11285088Y-16206317D02*
X11275564Y-16196793D01*
X11275564Y-16196793D02*
X11266041Y-16177746D01*
X11266041Y-16177746D02*
X11256517Y-16139650D01*
X11256517Y-16139650D02*
X11256517Y-16092031D01*
X11256517Y-16092031D02*
X11266041Y-16053936D01*
X11266041Y-16053936D02*
X11275564Y-16034888D01*
X11275564Y-16034888D02*
X11285088Y-16025365D01*
X11285088Y-16025365D02*
X11304136Y-16015841D01*
X11456517Y-16196793D02*
X11466041Y-16206317D01*
X11466041Y-16206317D02*
X11456517Y-16215841D01*
X11456517Y-16215841D02*
X11446993Y-16206317D01*
X11446993Y-16206317D02*
X11456517Y-16196793D01*
X11456517Y-16196793D02*
X11456517Y-16215841D01*
X11589850Y-16015841D02*
X11608898Y-16015841D01*
X11608898Y-16015841D02*
X11627945Y-16025365D01*
X11627945Y-16025365D02*
X11637469Y-16034888D01*
X11637469Y-16034888D02*
X11646993Y-16053936D01*
X11646993Y-16053936D02*
X11656517Y-16092031D01*
X11656517Y-16092031D02*
X11656517Y-16139650D01*
X11656517Y-16139650D02*
X11646993Y-16177746D01*
X11646993Y-16177746D02*
X11637469Y-16196793D01*
X11637469Y-16196793D02*
X11627945Y-16206317D01*
X11627945Y-16206317D02*
X11608898Y-16215841D01*
X11608898Y-16215841D02*
X11589850Y-16215841D01*
X11589850Y-16215841D02*
X11570803Y-16206317D01*
X11570803Y-16206317D02*
X11561279Y-16196793D01*
X11561279Y-16196793D02*
X11551755Y-16177746D01*
X11551755Y-16177746D02*
X11542231Y-16139650D01*
X11542231Y-16139650D02*
X11542231Y-16092031D01*
X11542231Y-16092031D02*
X11551755Y-16053936D01*
X11551755Y-16053936D02*
X11561279Y-16034888D01*
X11561279Y-16034888D02*
X11570803Y-16025365D01*
X11570803Y-16025365D02*
X11589850Y-16015841D01*
X11723184Y-16015841D02*
X11846993Y-16015841D01*
X11846993Y-16015841D02*
X11780326Y-16092031D01*
X11780326Y-16092031D02*
X11808898Y-16092031D01*
X11808898Y-16092031D02*
X11827945Y-16101555D01*
X11827945Y-16101555D02*
X11837469Y-16111079D01*
X11837469Y-16111079D02*
X11846993Y-16130127D01*
X11846993Y-16130127D02*
X11846993Y-16177746D01*
X11846993Y-16177746D02*
X11837469Y-16196793D01*
X11837469Y-16196793D02*
X11827945Y-16206317D01*
X11827945Y-16206317D02*
X11808898Y-16215841D01*
X11808898Y-16215841D02*
X11751755Y-16215841D01*
X11751755Y-16215841D02*
X11732707Y-16206317D01*
X11732707Y-16206317D02*
X11723184Y-16196793D01*
X11942231Y-16215841D02*
X11980326Y-16215841D01*
X11980326Y-16215841D02*
X11999374Y-16206317D01*
X11999374Y-16206317D02*
X12008898Y-16196793D01*
X12008898Y-16196793D02*
X12027945Y-16168222D01*
X12027945Y-16168222D02*
X12037469Y-16130127D01*
X12037469Y-16130127D02*
X12037469Y-16053936D01*
X12037469Y-16053936D02*
X12027945Y-16034888D01*
X12027945Y-16034888D02*
X12018422Y-16025365D01*
X12018422Y-16025365D02*
X11999374Y-16015841D01*
X11999374Y-16015841D02*
X11961279Y-16015841D01*
X11961279Y-16015841D02*
X11942231Y-16025365D01*
X11942231Y-16025365D02*
X11932707Y-16034888D01*
X11932707Y-16034888D02*
X11923184Y-16053936D01*
X11923184Y-16053936D02*
X11923184Y-16101555D01*
X11923184Y-16101555D02*
X11932707Y-16120603D01*
X11932707Y-16120603D02*
X11942231Y-16130127D01*
X11942231Y-16130127D02*
X11961279Y-16139650D01*
X11961279Y-16139650D02*
X11999374Y-16139650D01*
X11999374Y-16139650D02*
X12018422Y-16130127D01*
X12018422Y-16130127D02*
X12027945Y-16120603D01*
X12027945Y-16120603D02*
X12037469Y-16101555D01*
X12208898Y-16082507D02*
X12208898Y-16215841D01*
X12161279Y-16006317D02*
X12113660Y-16149174D01*
X12113660Y-16149174D02*
X12237469Y-16149174D01*
X12304136Y-16015841D02*
X12304136Y-16053936D01*
X12380326Y-16015841D02*
X12380326Y-16053936D01*
X12675565Y-16292031D02*
X12666041Y-16282507D01*
X12666041Y-16282507D02*
X12646993Y-16253936D01*
X12646993Y-16253936D02*
X12637469Y-16234888D01*
X12637469Y-16234888D02*
X12627946Y-16206317D01*
X12627946Y-16206317D02*
X12618422Y-16158698D01*
X12618422Y-16158698D02*
X12618422Y-16120603D01*
X12618422Y-16120603D02*
X12627946Y-16072984D01*
X12627946Y-16072984D02*
X12637469Y-16044412D01*
X12637469Y-16044412D02*
X12646993Y-16025365D01*
X12646993Y-16025365D02*
X12666041Y-15996793D01*
X12666041Y-15996793D02*
X12675565Y-15987269D01*
X12742231Y-16034888D02*
X12751755Y-16025365D01*
X12751755Y-16025365D02*
X12770803Y-16015841D01*
X12770803Y-16015841D02*
X12818422Y-16015841D01*
X12818422Y-16015841D02*
X12837469Y-16025365D01*
X12837469Y-16025365D02*
X12846993Y-16034888D01*
X12846993Y-16034888D02*
X12856517Y-16053936D01*
X12856517Y-16053936D02*
X12856517Y-16072984D01*
X12856517Y-16072984D02*
X12846993Y-16101555D01*
X12846993Y-16101555D02*
X12732707Y-16215841D01*
X12732707Y-16215841D02*
X12856517Y-16215841D01*
X12951755Y-16215841D02*
X12989850Y-16215841D01*
X12989850Y-16215841D02*
X13008898Y-16206317D01*
X13008898Y-16206317D02*
X13018422Y-16196793D01*
X13018422Y-16196793D02*
X13037469Y-16168222D01*
X13037469Y-16168222D02*
X13046993Y-16130127D01*
X13046993Y-16130127D02*
X13046993Y-16053936D01*
X13046993Y-16053936D02*
X13037469Y-16034888D01*
X13037469Y-16034888D02*
X13027946Y-16025365D01*
X13027946Y-16025365D02*
X13008898Y-16015841D01*
X13008898Y-16015841D02*
X12970803Y-16015841D01*
X12970803Y-16015841D02*
X12951755Y-16025365D01*
X12951755Y-16025365D02*
X12942231Y-16034888D01*
X12942231Y-16034888D02*
X12932707Y-16053936D01*
X12932707Y-16053936D02*
X12932707Y-16101555D01*
X12932707Y-16101555D02*
X12942231Y-16120603D01*
X12942231Y-16120603D02*
X12951755Y-16130127D01*
X12951755Y-16130127D02*
X12970803Y-16139650D01*
X12970803Y-16139650D02*
X13008898Y-16139650D01*
X13008898Y-16139650D02*
X13027946Y-16130127D01*
X13027946Y-16130127D02*
X13037469Y-16120603D01*
X13037469Y-16120603D02*
X13046993Y-16101555D01*
X13285088Y-16215841D02*
X13285088Y-16015841D01*
X13370803Y-16215841D02*
X13370803Y-16111079D01*
X13370803Y-16111079D02*
X13361279Y-16092031D01*
X13361279Y-16092031D02*
X13342231Y-16082507D01*
X13342231Y-16082507D02*
X13313660Y-16082507D01*
X13313660Y-16082507D02*
X13294612Y-16092031D01*
X13294612Y-16092031D02*
X13285088Y-16101555D01*
X13494612Y-16215841D02*
X13475565Y-16206317D01*
X13475565Y-16206317D02*
X13466041Y-16196793D01*
X13466041Y-16196793D02*
X13456517Y-16177746D01*
X13456517Y-16177746D02*
X13456517Y-16120603D01*
X13456517Y-16120603D02*
X13466041Y-16101555D01*
X13466041Y-16101555D02*
X13475565Y-16092031D01*
X13475565Y-16092031D02*
X13494612Y-16082507D01*
X13494612Y-16082507D02*
X13523184Y-16082507D01*
X13523184Y-16082507D02*
X13542231Y-16092031D01*
X13542231Y-16092031D02*
X13551755Y-16101555D01*
X13551755Y-16101555D02*
X13561279Y-16120603D01*
X13561279Y-16120603D02*
X13561279Y-16177746D01*
X13561279Y-16177746D02*
X13551755Y-16196793D01*
X13551755Y-16196793D02*
X13542231Y-16206317D01*
X13542231Y-16206317D02*
X13523184Y-16215841D01*
X13523184Y-16215841D02*
X13494612Y-16215841D01*
X13675565Y-16215841D02*
X13656517Y-16206317D01*
X13656517Y-16206317D02*
X13646993Y-16187269D01*
X13646993Y-16187269D02*
X13646993Y-16015841D01*
X13827946Y-16206317D02*
X13808898Y-16215841D01*
X13808898Y-16215841D02*
X13770803Y-16215841D01*
X13770803Y-16215841D02*
X13751755Y-16206317D01*
X13751755Y-16206317D02*
X13742231Y-16187269D01*
X13742231Y-16187269D02*
X13742231Y-16111079D01*
X13742231Y-16111079D02*
X13751755Y-16092031D01*
X13751755Y-16092031D02*
X13770803Y-16082507D01*
X13770803Y-16082507D02*
X13808898Y-16082507D01*
X13808898Y-16082507D02*
X13827946Y-16092031D01*
X13827946Y-16092031D02*
X13837469Y-16111079D01*
X13837469Y-16111079D02*
X13837469Y-16130127D01*
X13837469Y-16130127D02*
X13742231Y-16149174D01*
X13913660Y-16206317D02*
X13932708Y-16215841D01*
X13932708Y-16215841D02*
X13970803Y-16215841D01*
X13970803Y-16215841D02*
X13989850Y-16206317D01*
X13989850Y-16206317D02*
X13999374Y-16187269D01*
X13999374Y-16187269D02*
X13999374Y-16177746D01*
X13999374Y-16177746D02*
X13989850Y-16158698D01*
X13989850Y-16158698D02*
X13970803Y-16149174D01*
X13970803Y-16149174D02*
X13942231Y-16149174D01*
X13942231Y-16149174D02*
X13923184Y-16139650D01*
X13923184Y-16139650D02*
X13913660Y-16120603D01*
X13913660Y-16120603D02*
X13913660Y-16111079D01*
X13913660Y-16111079D02*
X13923184Y-16092031D01*
X13923184Y-16092031D02*
X13942231Y-16082507D01*
X13942231Y-16082507D02*
X13970803Y-16082507D01*
X13970803Y-16082507D02*
X13989850Y-16092031D01*
X14066041Y-16292031D02*
X14075565Y-16282507D01*
X14075565Y-16282507D02*
X14094612Y-16253936D01*
X14094612Y-16253936D02*
X14104136Y-16234888D01*
X14104136Y-16234888D02*
X14113660Y-16206317D01*
X14113660Y-16206317D02*
X14123184Y-16158698D01*
X14123184Y-16158698D02*
X14123184Y-16120603D01*
X14123184Y-16120603D02*
X14113660Y-16072984D01*
X14113660Y-16072984D02*
X14104136Y-16044412D01*
X14104136Y-16044412D02*
X14094612Y-16025365D01*
X14094612Y-16025365D02*
X14075565Y-15996793D01*
X14075565Y-15996793D02*
X14066041Y-15987269D01*
M02*
