M48
; DRILL file {KiCad 8.0.8+1} date 2026-05-21T21:18:10+0000
; FORMAT={-:-/ absolute / metric / decimal}
; #@! TF.CreationDate,2026-05-21T21:18:10+00:00
; #@! TF.GenerationSoftware,Kicad,Pcbnew,8.0.8+1
; #@! TF.FileFunction,NonPlated,1,2,NPTH
FMAT,2
METRIC
; #@! TA.AperFunction,NonPlated,NPTH,ComponentDrill
T1C0.750
; #@! TA.AperFunction,NonPlated,NPTH,ComponentDrill
T2C0.900
; #@! TA.AperFunction,NonPlated,NPTH,ComponentDrill
T3C2.200
; #@! TA.AperFunction,NonPlated,NPTH,ComponentDrill
T4C3.000
; #@! TA.AperFunction,NonPlated,NPTH,ComponentDrill
T5C4.300
; #@! TA.AperFunction,NonPlated,NPTH,ComponentDrill
T6C5.000
%
G90
G05
T1
X214.704Y-47.457
X214.704Y-50.207
T2
X223.025Y-91.167
X223.025Y-94.167
T3
X207.762Y-94.143
X222.194Y-102.662
T4
X95.0Y-65.75
X95.0Y-84.75
X95.0Y-103.75
X100.0Y-67.95
X100.0Y-86.95
X100.0Y-105.95
X105.0Y-65.75
X105.0Y-84.75
X105.0Y-103.75
X114.0Y-65.75
X114.0Y-84.75
X114.0Y-103.75
X119.0Y-67.95
X119.0Y-86.95
X119.0Y-105.95
X124.0Y-65.75
X124.0Y-84.75
X124.0Y-103.75
X133.0Y-56.25
X133.0Y-75.25
X133.0Y-94.25
X138.0Y-58.45
X138.0Y-77.45
X138.0Y-96.45
X143.0Y-56.25
X143.0Y-75.25
X143.0Y-94.25
X152.0Y-51.5
X152.0Y-70.5
X152.0Y-89.5
X152.0Y-114.5
X157.0Y-53.7
X157.0Y-72.7
X157.0Y-91.7
X157.0Y-116.7
X162.0Y-51.5
X162.0Y-70.5
X162.0Y-89.5
X162.0Y-114.5
X171.0Y-54.667
X171.0Y-73.667
X171.0Y-92.667
X171.8Y-115.578
X176.0Y-56.867
X176.0Y-75.867
X176.0Y-94.867
X176.06Y-118.997
X181.0Y-54.667
X181.0Y-73.667
X181.0Y-92.667
X181.459Y-118.166
X190.0Y-57.042
X190.0Y-76.042
X190.0Y-95.042
X190.646Y-121.744
X193.876Y-126.149
X195.0Y-59.242
X195.0Y-78.242
X195.0Y-97.242
X199.306Y-126.744
X200.0Y-57.042
X200.0Y-76.042
X200.0Y-95.042
X207.254Y-132.578
X209.234Y-137.669
X214.325Y-139.649
T5
X109.5Y-71.5
X109.5Y-90.5
X143.157Y-103.615
X185.468Y-61.653
X214.377Y-112.64
T6
X100.0Y-62.0
X100.0Y-81.0
X100.0Y-100.0
X119.0Y-62.0
X119.0Y-81.0
X119.0Y-100.0
X138.0Y-52.5
X138.0Y-71.5
X138.0Y-90.5
X157.0Y-47.75
X157.0Y-66.75
X157.0Y-85.75
X157.0Y-110.75
X176.0Y-50.917
X176.0Y-69.917
X176.0Y-88.917
X177.6Y-113.25
X195.0Y-53.292
X195.0Y-72.292
X195.0Y-91.292
X196.851Y-120.996
X213.441Y-133.462
M30
