M48
; DRILL file {KiCad 8.0.8+1} date 2026-05-21T21:18:10+0000
; FORMAT={-:-/ absolute / metric / decimal}
; #@! TF.CreationDate,2026-05-21T21:18:10+00:00
; #@! TF.GenerationSoftware,Kicad,Pcbnew,8.0.8+1
; #@! TF.FileFunction,Plated,1,2,PTH
FMAT,2
METRIC
; #@! TA.AperFunction,Plated,PTH,ViaDrill
T1C0.300
; #@! TA.AperFunction,Plated,PTH,ComponentDrill
T2C0.400
; #@! TA.AperFunction,Plated,PTH,ComponentDrill
T3C0.750
; #@! TA.AperFunction,Plated,PTH,ComponentDrill
T4C1.000
%
G90
G05
T1
X100.0Y-65.075
X100.0Y-65.875
X100.0Y-84.075
X100.0Y-84.875
X100.0Y-103.075
X100.0Y-103.875
X119.0Y-65.075
X119.0Y-65.875
X119.0Y-84.075
X119.0Y-84.875
X119.0Y-103.075
X119.0Y-103.875
X138.0Y-55.575
X138.0Y-56.375
X138.0Y-74.575
X138.0Y-75.375
X138.0Y-93.575
X138.0Y-94.375
X157.0Y-50.825
X157.0Y-51.625
X157.0Y-69.825
X157.0Y-70.625
X157.0Y-88.825
X157.0Y-89.625
X157.0Y-113.825
X157.0Y-114.625
X176.0Y-53.992
X176.0Y-54.792
X176.0Y-72.992
X176.0Y-73.792
X176.0Y-91.992
X176.0Y-92.792
X176.597Y-116.993
X176.804Y-116.22
X194.914Y-124.352
X195.0Y-56.367
X195.0Y-57.167
X195.0Y-75.367
X195.0Y-76.167
X195.0Y-94.367
X195.0Y-95.167
X195.314Y-123.66
X210.701Y-136.202
X211.267Y-135.636
T2
X211.304Y-51.837
X211.304Y-54.377
X211.304Y-56.917
X211.304Y-59.457
X211.304Y-61.997
X211.304Y-64.537
X211.304Y-67.077
X211.304Y-69.617
X211.304Y-72.157
X211.304Y-74.697
X211.304Y-77.237
X211.304Y-79.777
X218.104Y-51.837
X218.104Y-54.377
X218.104Y-56.917
X218.104Y-59.457
X218.104Y-61.997
X218.104Y-64.537
X218.104Y-67.077
X218.104Y-69.617
X218.104Y-72.157
X218.104Y-74.697
X218.104Y-77.237
X218.104Y-79.777
T3
X211.75Y-90.417
X211.75Y-92.417
T4
X207.084Y-51.837
X207.084Y-54.377
X207.084Y-56.917
X207.084Y-59.457
X207.084Y-61.997
X207.084Y-64.537
X207.084Y-67.077
X207.084Y-69.617
X207.084Y-72.157
X207.084Y-74.697
X207.084Y-77.237
X207.084Y-79.777
X209.567Y-83.617
X212.107Y-83.617
X214.647Y-83.617
X217.187Y-83.617
X219.727Y-83.617
X222.324Y-51.837
X222.324Y-54.377
X222.324Y-56.917
X222.324Y-59.457
X222.324Y-61.997
X222.324Y-64.537
X222.324Y-67.077
X222.324Y-69.617
X222.324Y-72.157
X222.324Y-74.697
X222.324Y-77.237
X222.324Y-79.777
M30
