G04 #@! TF.GenerationSoftware,KiCad,Pcbnew,8.0.8+1*
G04 #@! TF.CreationDate,2026-05-17T21:37:08+00:00*
G04 #@! TF.ProjectId,my_first_keyboard_wireless,6d795f66-6972-4737-945f-6b6579626f61,0.1*
G04 #@! TF.SameCoordinates,Original*
G04 #@! TF.FileFunction,Soldermask,Bot*
G04 #@! TF.FilePolarity,Negative*
%FSLAX46Y46*%
G04 Gerber Fmt 4.6, Leading zero omitted, Abs format (unit mm)*
G04 Created by KiCad (PCBNEW 8.0.8+1) date 2026-05-17 21:37:08*
%MOMM*%
%LPD*%
G01*
G04 APERTURE LIST*
%ADD10C,2.300000*%
%ADD11C,4.400000*%
%ADD12C,5.100000*%
%ADD13C,3.100000*%
%ADD14C,1.800000*%
%ADD15C,0.900000*%
%ADD16O,1.800000X1.800000*%
%ADD17C,1.000000*%
%ADD18C,0.850000*%
%ADD19O,1.850000X1.300000*%
G04 APERTURE END LIST*
D10*
X207762000Y-94142667D03*
X222194000Y-102661667D03*
D11*
X109500000Y-71500000D03*
X109500000Y-90500000D03*
X185468000Y-61652667D03*
X143157000Y-103615000D03*
X214377304Y-112640080D03*
D12*
X100000000Y-100000000D03*
D13*
X100000000Y-105950000D03*
X105000000Y-103750000D03*
G36*
X101939645Y-107285355D02*
G01*
X101925000Y-107250000D01*
X101925000Y-104650000D01*
X101939645Y-104614645D01*
X101975000Y-104600000D01*
X103392000Y-104600000D01*
X103427355Y-104614645D01*
X104610355Y-105797645D01*
X104625000Y-105833000D01*
X104625000Y-107250000D01*
X104610355Y-107285355D01*
X104575000Y-107300000D01*
X101975000Y-107300000D01*
X101939645Y-107285355D01*
G37*
G36*
G01*
X93075000Y-102450000D02*
X93075000Y-105050000D01*
G75*
G02*
X93025000Y-105100000I-50000J0D01*
G01*
X91425000Y-105100000D01*
G75*
G02*
X91375000Y-105050000I0J50000D01*
G01*
X91375000Y-102450000D01*
G75*
G02*
X91425000Y-102400000I50000J0D01*
G01*
X93025000Y-102400000D01*
G75*
G02*
X93075000Y-102450000I0J-50000D01*
G01*
G37*
X95000000Y-103750000D03*
D12*
X100000000Y-81000000D03*
D13*
X100000000Y-86950000D03*
X105000000Y-84750000D03*
G36*
X101939645Y-88285355D02*
G01*
X101925000Y-88250000D01*
X101925000Y-85650000D01*
X101939645Y-85614645D01*
X101975000Y-85600000D01*
X103392000Y-85600000D01*
X103427355Y-85614645D01*
X104610355Y-86797645D01*
X104625000Y-86833000D01*
X104625000Y-88250000D01*
X104610355Y-88285355D01*
X104575000Y-88300000D01*
X101975000Y-88300000D01*
X101939645Y-88285355D01*
G37*
G36*
G01*
X93075000Y-83450000D02*
X93075000Y-86050000D01*
G75*
G02*
X93025000Y-86100000I-50000J0D01*
G01*
X91425000Y-86100000D01*
G75*
G02*
X91375000Y-86050000I0J50000D01*
G01*
X91375000Y-83450000D01*
G75*
G02*
X91425000Y-83400000I50000J0D01*
G01*
X93025000Y-83400000D01*
G75*
G02*
X93075000Y-83450000I0J-50000D01*
G01*
G37*
X95000000Y-84750000D03*
D12*
X100000000Y-62000000D03*
D13*
X100000000Y-67950000D03*
X105000000Y-65750000D03*
G36*
X101939645Y-69285355D02*
G01*
X101925000Y-69250000D01*
X101925000Y-66650000D01*
X101939645Y-66614645D01*
X101975000Y-66600000D01*
X103392000Y-66600000D01*
X103427355Y-66614645D01*
X104610355Y-67797645D01*
X104625000Y-67833000D01*
X104625000Y-69250000D01*
X104610355Y-69285355D01*
X104575000Y-69300000D01*
X101975000Y-69300000D01*
X101939645Y-69285355D01*
G37*
G36*
G01*
X93075000Y-64450000D02*
X93075000Y-67050000D01*
G75*
G02*
X93025000Y-67100000I-50000J0D01*
G01*
X91425000Y-67100000D01*
G75*
G02*
X91375000Y-67050000I0J50000D01*
G01*
X91375000Y-64450000D01*
G75*
G02*
X91425000Y-64400000I50000J0D01*
G01*
X93025000Y-64400000D01*
G75*
G02*
X93075000Y-64450000I0J-50000D01*
G01*
G37*
X95000000Y-65750000D03*
D12*
X119000000Y-100000000D03*
D13*
X119000000Y-105950000D03*
X124000000Y-103750000D03*
G36*
X120939645Y-107285355D02*
G01*
X120925000Y-107250000D01*
X120925000Y-104650000D01*
X120939645Y-104614645D01*
X120975000Y-104600000D01*
X122392000Y-104600000D01*
X122427355Y-104614645D01*
X123610355Y-105797645D01*
X123625000Y-105833000D01*
X123625000Y-107250000D01*
X123610355Y-107285355D01*
X123575000Y-107300000D01*
X120975000Y-107300000D01*
X120939645Y-107285355D01*
G37*
G36*
G01*
X112075000Y-102450000D02*
X112075000Y-105050000D01*
G75*
G02*
X112025000Y-105100000I-50000J0D01*
G01*
X109425000Y-105100000D01*
G75*
G02*
X109375000Y-105050000I0J50000D01*
G01*
X109375000Y-102450000D01*
G75*
G02*
X109425000Y-102400000I50000J0D01*
G01*
X112025000Y-102400000D01*
G75*
G02*
X112075000Y-102450000I0J-50000D01*
G01*
G37*
X114000000Y-103750000D03*
D12*
X119000000Y-81000000D03*
D13*
X119000000Y-86950000D03*
X124000000Y-84750000D03*
G36*
X120939645Y-88285355D02*
G01*
X120925000Y-88250000D01*
X120925000Y-85650000D01*
X120939645Y-85614645D01*
X120975000Y-85600000D01*
X122392000Y-85600000D01*
X122427355Y-85614645D01*
X123610355Y-86797645D01*
X123625000Y-86833000D01*
X123625000Y-88250000D01*
X123610355Y-88285355D01*
X123575000Y-88300000D01*
X120975000Y-88300000D01*
X120939645Y-88285355D01*
G37*
G36*
G01*
X112075000Y-83450000D02*
X112075000Y-86050000D01*
G75*
G02*
X112025000Y-86100000I-50000J0D01*
G01*
X109425000Y-86100000D01*
G75*
G02*
X109375000Y-86050000I0J50000D01*
G01*
X109375000Y-83450000D01*
G75*
G02*
X109425000Y-83400000I50000J0D01*
G01*
X112025000Y-83400000D01*
G75*
G02*
X112075000Y-83450000I0J-50000D01*
G01*
G37*
X114000000Y-84750000D03*
D12*
X119000000Y-62000000D03*
D13*
X119000000Y-67950000D03*
X124000000Y-65750000D03*
G36*
X120939645Y-69285355D02*
G01*
X120925000Y-69250000D01*
X120925000Y-66650000D01*
X120939645Y-66614645D01*
X120975000Y-66600000D01*
X122392000Y-66600000D01*
X122427355Y-66614645D01*
X123610355Y-67797645D01*
X123625000Y-67833000D01*
X123625000Y-69250000D01*
X123610355Y-69285355D01*
X123575000Y-69300000D01*
X120975000Y-69300000D01*
X120939645Y-69285355D01*
G37*
G36*
G01*
X112075000Y-64450000D02*
X112075000Y-67050000D01*
G75*
G02*
X112025000Y-67100000I-50000J0D01*
G01*
X109425000Y-67100000D01*
G75*
G02*
X109375000Y-67050000I0J50000D01*
G01*
X109375000Y-64450000D01*
G75*
G02*
X109425000Y-64400000I50000J0D01*
G01*
X112025000Y-64400000D01*
G75*
G02*
X112075000Y-64450000I0J-50000D01*
G01*
G37*
X114000000Y-65750000D03*
D12*
X138000000Y-90500000D03*
D13*
X138000000Y-96450000D03*
X143000000Y-94250000D03*
G36*
X139939645Y-97785355D02*
G01*
X139925000Y-97750000D01*
X139925000Y-95150000D01*
X139939645Y-95114645D01*
X139975000Y-95100000D01*
X141392000Y-95100000D01*
X141427355Y-95114645D01*
X142610355Y-96297645D01*
X142625000Y-96333000D01*
X142625000Y-97750000D01*
X142610355Y-97785355D01*
X142575000Y-97800000D01*
X139975000Y-97800000D01*
X139939645Y-97785355D01*
G37*
G36*
G01*
X131075000Y-92950000D02*
X131075000Y-95550000D01*
G75*
G02*
X131025000Y-95600000I-50000J0D01*
G01*
X128425000Y-95600000D01*
G75*
G02*
X128375000Y-95550000I0J50000D01*
G01*
X128375000Y-92950000D01*
G75*
G02*
X128425000Y-92900000I50000J0D01*
G01*
X131025000Y-92900000D01*
G75*
G02*
X131075000Y-92950000I0J-50000D01*
G01*
G37*
X133000000Y-94250000D03*
D12*
X138000000Y-71500000D03*
D13*
X138000000Y-77450000D03*
X143000000Y-75250000D03*
G36*
X139939645Y-78785355D02*
G01*
X139925000Y-78750000D01*
X139925000Y-76150000D01*
X139939645Y-76114645D01*
X139975000Y-76100000D01*
X141392000Y-76100000D01*
X141427355Y-76114645D01*
X142610355Y-77297645D01*
X142625000Y-77333000D01*
X142625000Y-78750000D01*
X142610355Y-78785355D01*
X142575000Y-78800000D01*
X139975000Y-78800000D01*
X139939645Y-78785355D01*
G37*
G36*
G01*
X131075000Y-73950000D02*
X131075000Y-76550000D01*
G75*
G02*
X131025000Y-76600000I-50000J0D01*
G01*
X128425000Y-76600000D01*
G75*
G02*
X128375000Y-76550000I0J50000D01*
G01*
X128375000Y-73950000D01*
G75*
G02*
X128425000Y-73900000I50000J0D01*
G01*
X131025000Y-73900000D01*
G75*
G02*
X131075000Y-73950000I0J-50000D01*
G01*
G37*
X133000000Y-75250000D03*
D12*
X138000000Y-52500000D03*
D13*
X138000000Y-58450000D03*
X143000000Y-56250000D03*
G36*
X139939645Y-59785355D02*
G01*
X139925000Y-59750000D01*
X139925000Y-57150000D01*
X139939645Y-57114645D01*
X139975000Y-57100000D01*
X141392000Y-57100000D01*
X141427355Y-57114645D01*
X142610355Y-58297645D01*
X142625000Y-58333000D01*
X142625000Y-59750000D01*
X142610355Y-59785355D01*
X142575000Y-59800000D01*
X139975000Y-59800000D01*
X139939645Y-59785355D01*
G37*
G36*
G01*
X131075000Y-54950000D02*
X131075000Y-57550000D01*
G75*
G02*
X131025000Y-57600000I-50000J0D01*
G01*
X128425000Y-57600000D01*
G75*
G02*
X128375000Y-57550000I0J50000D01*
G01*
X128375000Y-54950000D01*
G75*
G02*
X128425000Y-54900000I50000J0D01*
G01*
X131025000Y-54900000D01*
G75*
G02*
X131075000Y-54950000I0J-50000D01*
G01*
G37*
X133000000Y-56250000D03*
D12*
X157000000Y-85750000D03*
D13*
X157000000Y-91700000D03*
X162000000Y-89500000D03*
G36*
X158939645Y-93035355D02*
G01*
X158925000Y-93000000D01*
X158925000Y-90400000D01*
X158939645Y-90364645D01*
X158975000Y-90350000D01*
X160392000Y-90350000D01*
X160427355Y-90364645D01*
X161610355Y-91547645D01*
X161625000Y-91583000D01*
X161625000Y-93000000D01*
X161610355Y-93035355D01*
X161575000Y-93050000D01*
X158975000Y-93050000D01*
X158939645Y-93035355D01*
G37*
G36*
G01*
X150075000Y-88200000D02*
X150075000Y-90800000D01*
G75*
G02*
X150025000Y-90850000I-50000J0D01*
G01*
X147425000Y-90850000D01*
G75*
G02*
X147375000Y-90800000I0J50000D01*
G01*
X147375000Y-88200000D01*
G75*
G02*
X147425000Y-88150000I50000J0D01*
G01*
X150025000Y-88150000D01*
G75*
G02*
X150075000Y-88200000I0J-50000D01*
G01*
G37*
X152000000Y-89500000D03*
D12*
X157000000Y-66750000D03*
D13*
X157000000Y-72700000D03*
X162000000Y-70500000D03*
G36*
X158939645Y-74035355D02*
G01*
X158925000Y-74000000D01*
X158925000Y-71400000D01*
X158939645Y-71364645D01*
X158975000Y-71350000D01*
X160392000Y-71350000D01*
X160427355Y-71364645D01*
X161610355Y-72547645D01*
X161625000Y-72583000D01*
X161625000Y-74000000D01*
X161610355Y-74035355D01*
X161575000Y-74050000D01*
X158975000Y-74050000D01*
X158939645Y-74035355D01*
G37*
G36*
G01*
X150075000Y-69200000D02*
X150075000Y-71800000D01*
G75*
G02*
X150025000Y-71850000I-50000J0D01*
G01*
X147425000Y-71850000D01*
G75*
G02*
X147375000Y-71800000I0J50000D01*
G01*
X147375000Y-69200000D01*
G75*
G02*
X147425000Y-69150000I50000J0D01*
G01*
X150025000Y-69150000D01*
G75*
G02*
X150075000Y-69200000I0J-50000D01*
G01*
G37*
X152000000Y-70500000D03*
D12*
X157000000Y-47750000D03*
D13*
X157000000Y-53700000D03*
X162000000Y-51500000D03*
G36*
X158939645Y-55035355D02*
G01*
X158925000Y-55000000D01*
X158925000Y-52400000D01*
X158939645Y-52364645D01*
X158975000Y-52350000D01*
X160392000Y-52350000D01*
X160427355Y-52364645D01*
X161610355Y-53547645D01*
X161625000Y-53583000D01*
X161625000Y-55000000D01*
X161610355Y-55035355D01*
X161575000Y-55050000D01*
X158975000Y-55050000D01*
X158939645Y-55035355D01*
G37*
G36*
G01*
X150075000Y-50200000D02*
X150075000Y-52800000D01*
G75*
G02*
X150025000Y-52850000I-50000J0D01*
G01*
X147425000Y-52850000D01*
G75*
G02*
X147375000Y-52800000I0J50000D01*
G01*
X147375000Y-50200000D01*
G75*
G02*
X147425000Y-50150000I50000J0D01*
G01*
X150025000Y-50150000D01*
G75*
G02*
X150075000Y-50200000I0J-50000D01*
G01*
G37*
X152000000Y-51500000D03*
D12*
X176000000Y-88916667D03*
D13*
X176000000Y-94866667D03*
X181000000Y-92666667D03*
G36*
X177939645Y-96202022D02*
G01*
X177925000Y-96166667D01*
X177925000Y-93566667D01*
X177939645Y-93531312D01*
X177975000Y-93516667D01*
X179392000Y-93516667D01*
X179427355Y-93531312D01*
X180610355Y-94714312D01*
X180625000Y-94749667D01*
X180625000Y-96166667D01*
X180610355Y-96202022D01*
X180575000Y-96216667D01*
X177975000Y-96216667D01*
X177939645Y-96202022D01*
G37*
G36*
G01*
X169075000Y-91366667D02*
X169075000Y-93966667D01*
G75*
G02*
X169025000Y-94016667I-50000J0D01*
G01*
X166425000Y-94016667D01*
G75*
G02*
X166375000Y-93966667I0J50000D01*
G01*
X166375000Y-91366667D01*
G75*
G02*
X166425000Y-91316667I50000J0D01*
G01*
X169025000Y-91316667D01*
G75*
G02*
X169075000Y-91366667I0J-50000D01*
G01*
G37*
X171000000Y-92666667D03*
D12*
X176000000Y-69916667D03*
D13*
X176000000Y-75866667D03*
X181000000Y-73666667D03*
G36*
X177939645Y-77202022D02*
G01*
X177925000Y-77166667D01*
X177925000Y-74566667D01*
X177939645Y-74531312D01*
X177975000Y-74516667D01*
X179392000Y-74516667D01*
X179427355Y-74531312D01*
X180610355Y-75714312D01*
X180625000Y-75749667D01*
X180625000Y-77166667D01*
X180610355Y-77202022D01*
X180575000Y-77216667D01*
X177975000Y-77216667D01*
X177939645Y-77202022D01*
G37*
G36*
G01*
X169075000Y-72366667D02*
X169075000Y-74966667D01*
G75*
G02*
X169025000Y-75016667I-50000J0D01*
G01*
X166425000Y-75016667D01*
G75*
G02*
X166375000Y-74966667I0J50000D01*
G01*
X166375000Y-72366667D01*
G75*
G02*
X166425000Y-72316667I50000J0D01*
G01*
X169025000Y-72316667D01*
G75*
G02*
X169075000Y-72366667I0J-50000D01*
G01*
G37*
X171000000Y-73666667D03*
D12*
X176000000Y-50916667D03*
D13*
X176000000Y-56866667D03*
X181000000Y-54666667D03*
G36*
X177939645Y-58202022D02*
G01*
X177925000Y-58166667D01*
X177925000Y-55566667D01*
X177939645Y-55531312D01*
X177975000Y-55516667D01*
X179392000Y-55516667D01*
X179427355Y-55531312D01*
X180610355Y-56714312D01*
X180625000Y-56749667D01*
X180625000Y-58166667D01*
X180610355Y-58202022D01*
X180575000Y-58216667D01*
X177975000Y-58216667D01*
X177939645Y-58202022D01*
G37*
G36*
G01*
X169075000Y-53366667D02*
X169075000Y-55966667D01*
G75*
G02*
X169025000Y-56016667I-50000J0D01*
G01*
X166425000Y-56016667D01*
G75*
G02*
X166375000Y-55966667I0J50000D01*
G01*
X166375000Y-53366667D01*
G75*
G02*
X166425000Y-53316667I50000J0D01*
G01*
X169025000Y-53316667D01*
G75*
G02*
X169075000Y-53366667I0J-50000D01*
G01*
G37*
X171000000Y-54666667D03*
D12*
X195000000Y-91291667D03*
D13*
X195000000Y-97241667D03*
X200000000Y-95041667D03*
G36*
X196939645Y-98577022D02*
G01*
X196925000Y-98541667D01*
X196925000Y-95941667D01*
X196939645Y-95906312D01*
X196975000Y-95891667D01*
X198392000Y-95891667D01*
X198427355Y-95906312D01*
X199610355Y-97089312D01*
X199625000Y-97124667D01*
X199625000Y-98541667D01*
X199610355Y-98577022D01*
X199575000Y-98591667D01*
X196975000Y-98591667D01*
X196939645Y-98577022D01*
G37*
G36*
G01*
X188075000Y-93741667D02*
X188075000Y-96341667D01*
G75*
G02*
X188025000Y-96391667I-50000J0D01*
G01*
X185425000Y-96391667D01*
G75*
G02*
X185375000Y-96341667I0J50000D01*
G01*
X185375000Y-93741667D01*
G75*
G02*
X185425000Y-93691667I50000J0D01*
G01*
X188025000Y-93691667D01*
G75*
G02*
X188075000Y-93741667I0J-50000D01*
G01*
G37*
X190000000Y-95041667D03*
D12*
X195000000Y-72291667D03*
D13*
X195000000Y-78241667D03*
X200000000Y-76041667D03*
G36*
X196939645Y-79577022D02*
G01*
X196925000Y-79541667D01*
X196925000Y-76941667D01*
X196939645Y-76906312D01*
X196975000Y-76891667D01*
X198392000Y-76891667D01*
X198427355Y-76906312D01*
X199610355Y-78089312D01*
X199625000Y-78124667D01*
X199625000Y-79541667D01*
X199610355Y-79577022D01*
X199575000Y-79591667D01*
X196975000Y-79591667D01*
X196939645Y-79577022D01*
G37*
G36*
G01*
X188075000Y-74741667D02*
X188075000Y-77341667D01*
G75*
G02*
X188025000Y-77391667I-50000J0D01*
G01*
X185425000Y-77391667D01*
G75*
G02*
X185375000Y-77341667I0J50000D01*
G01*
X185375000Y-74741667D01*
G75*
G02*
X185425000Y-74691667I50000J0D01*
G01*
X188025000Y-74691667D01*
G75*
G02*
X188075000Y-74741667I0J-50000D01*
G01*
G37*
X190000000Y-76041667D03*
D12*
X195000000Y-53291667D03*
D13*
X195000000Y-59241667D03*
X200000000Y-57041667D03*
G36*
X196939645Y-60577022D02*
G01*
X196925000Y-60541667D01*
X196925000Y-57941667D01*
X196939645Y-57906312D01*
X196975000Y-57891667D01*
X198392000Y-57891667D01*
X198427355Y-57906312D01*
X199610355Y-59089312D01*
X199625000Y-59124667D01*
X199625000Y-60541667D01*
X199610355Y-60577022D01*
X199575000Y-60591667D01*
X196975000Y-60591667D01*
X196939645Y-60577022D01*
G37*
G36*
G01*
X188075000Y-55741667D02*
X188075000Y-58341667D01*
G75*
G02*
X188025000Y-58391667I-50000J0D01*
G01*
X185425000Y-58391667D01*
G75*
G02*
X185375000Y-58341667I0J50000D01*
G01*
X185375000Y-55741667D01*
G75*
G02*
X185425000Y-55691667I50000J0D01*
G01*
X188025000Y-55691667D01*
G75*
G02*
X188075000Y-55741667I0J-50000D01*
G01*
G37*
X190000000Y-57041667D03*
D12*
X157000000Y-110750000D03*
D13*
X157000000Y-116700000D03*
X162000000Y-114500000D03*
G36*
X158939645Y-118035355D02*
G01*
X158925000Y-118000000D01*
X158925000Y-115400000D01*
X158939645Y-115364645D01*
X158975000Y-115350000D01*
X160392000Y-115350000D01*
X160427355Y-115364645D01*
X161610355Y-116547645D01*
X161625000Y-116583000D01*
X161625000Y-118000000D01*
X161610355Y-118035355D01*
X161575000Y-118050000D01*
X158975000Y-118050000D01*
X158939645Y-118035355D01*
G37*
G36*
G01*
X150075000Y-113200000D02*
X150075000Y-115800000D01*
G75*
G02*
X150025000Y-115850000I-50000J0D01*
G01*
X147425000Y-115850000D01*
G75*
G02*
X147375000Y-115800000I0J50000D01*
G01*
X147375000Y-113200000D01*
G75*
G02*
X147425000Y-113150000I50000J0D01*
G01*
X150025000Y-113150000D01*
G75*
G02*
X150075000Y-113200000I0J-50000D01*
G01*
G37*
X152000000Y-114500000D03*
D12*
X177600000Y-113250000D03*
D13*
X176060027Y-118997259D03*
X181459058Y-118166317D03*
G36*
X177587965Y-120789130D02*
G01*
X177582969Y-120751189D01*
X178255899Y-118239782D01*
X178279195Y-118209422D01*
X178317136Y-118204426D01*
X179685853Y-118571173D01*
X179716213Y-118594469D01*
X180552720Y-120043343D01*
X180557716Y-120081283D01*
X180190969Y-121450000D01*
X180167673Y-121480360D01*
X180129732Y-121485356D01*
X177618325Y-120812426D01*
X177587965Y-120789130D01*
G37*
G36*
G01*
X170276856Y-113824196D02*
X169603927Y-116335603D01*
G75*
G02*
X169542690Y-116370958I-48296J12941D01*
G01*
X167031283Y-115698029D01*
G75*
G02*
X166995928Y-115636792I12941J48296D01*
G01*
X167668857Y-113125385D01*
G75*
G02*
X167730094Y-113090030I48296J-12941D01*
G01*
X170241501Y-113762959D01*
G75*
G02*
X170276856Y-113824196I-12941J-48296D01*
G01*
G37*
X171799799Y-115578127D03*
D12*
X196851024Y-120996487D03*
D13*
X193876024Y-126149338D03*
X199306151Y-126744082D03*
G36*
X194888128Y-128275612D02*
G01*
X194893123Y-128237671D01*
X196193123Y-125986005D01*
X196223483Y-125962709D01*
X196261424Y-125967704D01*
X197488582Y-126676204D01*
X197511878Y-126706564D01*
X197944886Y-128322572D01*
X197939891Y-128360513D01*
X197231391Y-129587671D01*
X197201031Y-129610967D01*
X197163090Y-129605972D01*
X194911424Y-128305972D01*
X194888128Y-128275612D01*
G37*
G36*
G01*
X189628798Y-119655749D02*
X188328798Y-121907415D01*
G75*
G02*
X188260497Y-121925716I-43301J25000D01*
G01*
X186008831Y-120625716D01*
G75*
G02*
X185990530Y-120557415I25000J43301D01*
G01*
X187290530Y-118305749D01*
G75*
G02*
X187358831Y-118287448I43301J-25000D01*
G01*
X189610497Y-119587448D01*
G75*
G02*
X189628798Y-119655749I-25000J-43301D01*
G01*
G37*
X190645897Y-121744082D03*
D12*
X213441148Y-133461550D03*
D13*
X209233863Y-137668835D03*
X214325031Y-139648734D03*
G36*
X209661160Y-139984610D02*
G01*
X209675804Y-139949255D01*
X211514282Y-138110777D01*
X211549637Y-138096133D01*
X211584992Y-138110777D01*
X212586963Y-139112747D01*
X212601607Y-139148103D01*
X212601607Y-140821117D01*
X212586963Y-140856473D01*
X211584992Y-141858443D01*
X211549637Y-141873087D01*
X211514282Y-141858443D01*
X209675804Y-140019965D01*
X209661160Y-139984610D01*
G37*
G36*
G01*
X206812022Y-130297247D02*
X204973544Y-132135725D01*
G75*
G02*
X204902834Y-132135725I-35355J35355D01*
G01*
X203064356Y-130297247D01*
G75*
G02*
X203064356Y-130226537I35355J35355D01*
G01*
X204902834Y-128388059D01*
G75*
G02*
X204973544Y-128388059I35355J-35355D01*
G01*
X206812022Y-130226537D01*
G75*
G02*
X206812022Y-130297247I-35355J-35355D01*
G01*
G37*
X207253964Y-132577667D03*
G36*
G01*
X91650000Y-96350000D02*
X92850000Y-96350000D01*
G75*
G02*
X92900000Y-96400000I0J-50000D01*
G01*
X92900000Y-97300000D01*
G75*
G02*
X92850000Y-97350000I-50000J0D01*
G01*
X91650000Y-97350000D01*
G75*
G02*
X91600000Y-97300000I0J50000D01*
G01*
X91600000Y-96400000D01*
G75*
G02*
X91650000Y-96350000I50000J0D01*
G01*
G37*
G36*
G01*
X91650000Y-99650000D02*
X92850000Y-99650000D01*
G75*
G02*
X92900000Y-99700000I0J-50000D01*
G01*
X92900000Y-100600000D01*
G75*
G02*
X92850000Y-100650000I-50000J0D01*
G01*
X91650000Y-100650000D01*
G75*
G02*
X91600000Y-100600000I0J50000D01*
G01*
X91600000Y-99700000D01*
G75*
G02*
X91650000Y-99650000I50000J0D01*
G01*
G37*
G36*
G01*
X91650000Y-77350000D02*
X92850000Y-77350000D01*
G75*
G02*
X92900000Y-77400000I0J-50000D01*
G01*
X92900000Y-78300000D01*
G75*
G02*
X92850000Y-78350000I-50000J0D01*
G01*
X91650000Y-78350000D01*
G75*
G02*
X91600000Y-78300000I0J50000D01*
G01*
X91600000Y-77400000D01*
G75*
G02*
X91650000Y-77350000I50000J0D01*
G01*
G37*
G36*
G01*
X91650000Y-80650000D02*
X92850000Y-80650000D01*
G75*
G02*
X92900000Y-80700000I0J-50000D01*
G01*
X92900000Y-81600000D01*
G75*
G02*
X92850000Y-81650000I-50000J0D01*
G01*
X91650000Y-81650000D01*
G75*
G02*
X91600000Y-81600000I0J50000D01*
G01*
X91600000Y-80700000D01*
G75*
G02*
X91650000Y-80650000I50000J0D01*
G01*
G37*
G36*
G01*
X91650000Y-58350000D02*
X92850000Y-58350000D01*
G75*
G02*
X92900000Y-58400000I0J-50000D01*
G01*
X92900000Y-59300000D01*
G75*
G02*
X92850000Y-59350000I-50000J0D01*
G01*
X91650000Y-59350000D01*
G75*
G02*
X91600000Y-59300000I0J50000D01*
G01*
X91600000Y-58400000D01*
G75*
G02*
X91650000Y-58350000I50000J0D01*
G01*
G37*
G36*
G01*
X91650000Y-61650000D02*
X92850000Y-61650000D01*
G75*
G02*
X92900000Y-61700000I0J-50000D01*
G01*
X92900000Y-62600000D01*
G75*
G02*
X92850000Y-62650000I-50000J0D01*
G01*
X91650000Y-62650000D01*
G75*
G02*
X91600000Y-62600000I0J50000D01*
G01*
X91600000Y-61700000D01*
G75*
G02*
X91650000Y-61650000I50000J0D01*
G01*
G37*
G36*
G01*
X110650000Y-96350000D02*
X111850000Y-96350000D01*
G75*
G02*
X111900000Y-96400000I0J-50000D01*
G01*
X111900000Y-97300000D01*
G75*
G02*
X111850000Y-97350000I-50000J0D01*
G01*
X110650000Y-97350000D01*
G75*
G02*
X110600000Y-97300000I0J50000D01*
G01*
X110600000Y-96400000D01*
G75*
G02*
X110650000Y-96350000I50000J0D01*
G01*
G37*
G36*
G01*
X110650000Y-99650000D02*
X111850000Y-99650000D01*
G75*
G02*
X111900000Y-99700000I0J-50000D01*
G01*
X111900000Y-100600000D01*
G75*
G02*
X111850000Y-100650000I-50000J0D01*
G01*
X110650000Y-100650000D01*
G75*
G02*
X110600000Y-100600000I0J50000D01*
G01*
X110600000Y-99700000D01*
G75*
G02*
X110650000Y-99650000I50000J0D01*
G01*
G37*
G36*
G01*
X110650000Y-77350000D02*
X111850000Y-77350000D01*
G75*
G02*
X111900000Y-77400000I0J-50000D01*
G01*
X111900000Y-78300000D01*
G75*
G02*
X111850000Y-78350000I-50000J0D01*
G01*
X110650000Y-78350000D01*
G75*
G02*
X110600000Y-78300000I0J50000D01*
G01*
X110600000Y-77400000D01*
G75*
G02*
X110650000Y-77350000I50000J0D01*
G01*
G37*
G36*
G01*
X110650000Y-80650000D02*
X111850000Y-80650000D01*
G75*
G02*
X111900000Y-80700000I0J-50000D01*
G01*
X111900000Y-81600000D01*
G75*
G02*
X111850000Y-81650000I-50000J0D01*
G01*
X110650000Y-81650000D01*
G75*
G02*
X110600000Y-81600000I0J50000D01*
G01*
X110600000Y-80700000D01*
G75*
G02*
X110650000Y-80650000I50000J0D01*
G01*
G37*
G36*
G01*
X110650000Y-58350000D02*
X111850000Y-58350000D01*
G75*
G02*
X111900000Y-58400000I0J-50000D01*
G01*
X111900000Y-59300000D01*
G75*
G02*
X111850000Y-59350000I-50000J0D01*
G01*
X110650000Y-59350000D01*
G75*
G02*
X110600000Y-59300000I0J50000D01*
G01*
X110600000Y-58400000D01*
G75*
G02*
X110650000Y-58350000I50000J0D01*
G01*
G37*
G36*
G01*
X110650000Y-61650000D02*
X111850000Y-61650000D01*
G75*
G02*
X111900000Y-61700000I0J-50000D01*
G01*
X111900000Y-62600000D01*
G75*
G02*
X111850000Y-62650000I-50000J0D01*
G01*
X110650000Y-62650000D01*
G75*
G02*
X110600000Y-62600000I0J50000D01*
G01*
X110600000Y-61700000D01*
G75*
G02*
X110650000Y-61650000I50000J0D01*
G01*
G37*
G36*
G01*
X129650000Y-86850000D02*
X130850000Y-86850000D01*
G75*
G02*
X130900000Y-86900000I0J-50000D01*
G01*
X130900000Y-87800000D01*
G75*
G02*
X130850000Y-87850000I-50000J0D01*
G01*
X129650000Y-87850000D01*
G75*
G02*
X129600000Y-87800000I0J50000D01*
G01*
X129600000Y-86900000D01*
G75*
G02*
X129650000Y-86850000I50000J0D01*
G01*
G37*
G36*
G01*
X129650000Y-90150000D02*
X130850000Y-90150000D01*
G75*
G02*
X130900000Y-90200000I0J-50000D01*
G01*
X130900000Y-91100000D01*
G75*
G02*
X130850000Y-91150000I-50000J0D01*
G01*
X129650000Y-91150000D01*
G75*
G02*
X129600000Y-91100000I0J50000D01*
G01*
X129600000Y-90200000D01*
G75*
G02*
X129650000Y-90150000I50000J0D01*
G01*
G37*
G36*
G01*
X129650000Y-67850000D02*
X130850000Y-67850000D01*
G75*
G02*
X130900000Y-67900000I0J-50000D01*
G01*
X130900000Y-68800000D01*
G75*
G02*
X130850000Y-68850000I-50000J0D01*
G01*
X129650000Y-68850000D01*
G75*
G02*
X129600000Y-68800000I0J50000D01*
G01*
X129600000Y-67900000D01*
G75*
G02*
X129650000Y-67850000I50000J0D01*
G01*
G37*
G36*
G01*
X129650000Y-71150000D02*
X130850000Y-71150000D01*
G75*
G02*
X130900000Y-71200000I0J-50000D01*
G01*
X130900000Y-72100000D01*
G75*
G02*
X130850000Y-72150000I-50000J0D01*
G01*
X129650000Y-72150000D01*
G75*
G02*
X129600000Y-72100000I0J50000D01*
G01*
X129600000Y-71200000D01*
G75*
G02*
X129650000Y-71150000I50000J0D01*
G01*
G37*
G36*
G01*
X129650000Y-48850000D02*
X130850000Y-48850000D01*
G75*
G02*
X130900000Y-48900000I0J-50000D01*
G01*
X130900000Y-49800000D01*
G75*
G02*
X130850000Y-49850000I-50000J0D01*
G01*
X129650000Y-49850000D01*
G75*
G02*
X129600000Y-49800000I0J50000D01*
G01*
X129600000Y-48900000D01*
G75*
G02*
X129650000Y-48850000I50000J0D01*
G01*
G37*
G36*
G01*
X129650000Y-52150000D02*
X130850000Y-52150000D01*
G75*
G02*
X130900000Y-52200000I0J-50000D01*
G01*
X130900000Y-53100000D01*
G75*
G02*
X130850000Y-53150000I-50000J0D01*
G01*
X129650000Y-53150000D01*
G75*
G02*
X129600000Y-53100000I0J50000D01*
G01*
X129600000Y-52200000D01*
G75*
G02*
X129650000Y-52150000I50000J0D01*
G01*
G37*
G36*
G01*
X148650000Y-82100000D02*
X149850000Y-82100000D01*
G75*
G02*
X149900000Y-82150000I0J-50000D01*
G01*
X149900000Y-83050000D01*
G75*
G02*
X149850000Y-83100000I-50000J0D01*
G01*
X148650000Y-83100000D01*
G75*
G02*
X148600000Y-83050000I0J50000D01*
G01*
X148600000Y-82150000D01*
G75*
G02*
X148650000Y-82100000I50000J0D01*
G01*
G37*
G36*
G01*
X148650000Y-85400000D02*
X149850000Y-85400000D01*
G75*
G02*
X149900000Y-85450000I0J-50000D01*
G01*
X149900000Y-86350000D01*
G75*
G02*
X149850000Y-86400000I-50000J0D01*
G01*
X148650000Y-86400000D01*
G75*
G02*
X148600000Y-86350000I0J50000D01*
G01*
X148600000Y-85450000D01*
G75*
G02*
X148650000Y-85400000I50000J0D01*
G01*
G37*
G36*
G01*
X148650000Y-63100000D02*
X149850000Y-63100000D01*
G75*
G02*
X149900000Y-63150000I0J-50000D01*
G01*
X149900000Y-64050000D01*
G75*
G02*
X149850000Y-64100000I-50000J0D01*
G01*
X148650000Y-64100000D01*
G75*
G02*
X148600000Y-64050000I0J50000D01*
G01*
X148600000Y-63150000D01*
G75*
G02*
X148650000Y-63100000I50000J0D01*
G01*
G37*
G36*
G01*
X148650000Y-66400000D02*
X149850000Y-66400000D01*
G75*
G02*
X149900000Y-66450000I0J-50000D01*
G01*
X149900000Y-67350000D01*
G75*
G02*
X149850000Y-67400000I-50000J0D01*
G01*
X148650000Y-67400000D01*
G75*
G02*
X148600000Y-67350000I0J50000D01*
G01*
X148600000Y-66450000D01*
G75*
G02*
X148650000Y-66400000I50000J0D01*
G01*
G37*
G36*
G01*
X148650000Y-44100000D02*
X149850000Y-44100000D01*
G75*
G02*
X149900000Y-44150000I0J-50000D01*
G01*
X149900000Y-45050000D01*
G75*
G02*
X149850000Y-45100000I-50000J0D01*
G01*
X148650000Y-45100000D01*
G75*
G02*
X148600000Y-45050000I0J50000D01*
G01*
X148600000Y-44150000D01*
G75*
G02*
X148650000Y-44100000I50000J0D01*
G01*
G37*
G36*
G01*
X148650000Y-47400000D02*
X149850000Y-47400000D01*
G75*
G02*
X149900000Y-47450000I0J-50000D01*
G01*
X149900000Y-48350000D01*
G75*
G02*
X149850000Y-48400000I-50000J0D01*
G01*
X148650000Y-48400000D01*
G75*
G02*
X148600000Y-48350000I0J50000D01*
G01*
X148600000Y-47450000D01*
G75*
G02*
X148650000Y-47400000I50000J0D01*
G01*
G37*
G36*
G01*
X167650000Y-85266667D02*
X168850000Y-85266667D01*
G75*
G02*
X168900000Y-85316667I0J-50000D01*
G01*
X168900000Y-86216667D01*
G75*
G02*
X168850000Y-86266667I-50000J0D01*
G01*
X167650000Y-86266667D01*
G75*
G02*
X167600000Y-86216667I0J50000D01*
G01*
X167600000Y-85316667D01*
G75*
G02*
X167650000Y-85266667I50000J0D01*
G01*
G37*
G36*
G01*
X167650000Y-88566667D02*
X168850000Y-88566667D01*
G75*
G02*
X168900000Y-88616667I0J-50000D01*
G01*
X168900000Y-89516667D01*
G75*
G02*
X168850000Y-89566667I-50000J0D01*
G01*
X167650000Y-89566667D01*
G75*
G02*
X167600000Y-89516667I0J50000D01*
G01*
X167600000Y-88616667D01*
G75*
G02*
X167650000Y-88566667I50000J0D01*
G01*
G37*
G36*
G01*
X167650000Y-66266667D02*
X168850000Y-66266667D01*
G75*
G02*
X168900000Y-66316667I0J-50000D01*
G01*
X168900000Y-67216667D01*
G75*
G02*
X168850000Y-67266667I-50000J0D01*
G01*
X167650000Y-67266667D01*
G75*
G02*
X167600000Y-67216667I0J50000D01*
G01*
X167600000Y-66316667D01*
G75*
G02*
X167650000Y-66266667I50000J0D01*
G01*
G37*
G36*
G01*
X167650000Y-69566667D02*
X168850000Y-69566667D01*
G75*
G02*
X168900000Y-69616667I0J-50000D01*
G01*
X168900000Y-70516667D01*
G75*
G02*
X168850000Y-70566667I-50000J0D01*
G01*
X167650000Y-70566667D01*
G75*
G02*
X167600000Y-70516667I0J50000D01*
G01*
X167600000Y-69616667D01*
G75*
G02*
X167650000Y-69566667I50000J0D01*
G01*
G37*
G36*
G01*
X167650000Y-47266667D02*
X168850000Y-47266667D01*
G75*
G02*
X168900000Y-47316667I0J-50000D01*
G01*
X168900000Y-48216667D01*
G75*
G02*
X168850000Y-48266667I-50000J0D01*
G01*
X167650000Y-48266667D01*
G75*
G02*
X167600000Y-48216667I0J50000D01*
G01*
X167600000Y-47316667D01*
G75*
G02*
X167650000Y-47266667I50000J0D01*
G01*
G37*
G36*
G01*
X167650000Y-50566667D02*
X168850000Y-50566667D01*
G75*
G02*
X168900000Y-50616667I0J-50000D01*
G01*
X168900000Y-51516667D01*
G75*
G02*
X168850000Y-51566667I-50000J0D01*
G01*
X167650000Y-51566667D01*
G75*
G02*
X167600000Y-51516667I0J50000D01*
G01*
X167600000Y-50616667D01*
G75*
G02*
X167650000Y-50566667I50000J0D01*
G01*
G37*
G36*
G01*
X186650000Y-87641667D02*
X187850000Y-87641667D01*
G75*
G02*
X187900000Y-87691667I0J-50000D01*
G01*
X187900000Y-88591667D01*
G75*
G02*
X187850000Y-88641667I-50000J0D01*
G01*
X186650000Y-88641667D01*
G75*
G02*
X186600000Y-88591667I0J50000D01*
G01*
X186600000Y-87691667D01*
G75*
G02*
X186650000Y-87641667I50000J0D01*
G01*
G37*
G36*
G01*
X186650000Y-90941667D02*
X187850000Y-90941667D01*
G75*
G02*
X187900000Y-90991667I0J-50000D01*
G01*
X187900000Y-91891667D01*
G75*
G02*
X187850000Y-91941667I-50000J0D01*
G01*
X186650000Y-91941667D01*
G75*
G02*
X186600000Y-91891667I0J50000D01*
G01*
X186600000Y-90991667D01*
G75*
G02*
X186650000Y-90941667I50000J0D01*
G01*
G37*
G36*
G01*
X186650000Y-68641667D02*
X187850000Y-68641667D01*
G75*
G02*
X187900000Y-68691667I0J-50000D01*
G01*
X187900000Y-69591667D01*
G75*
G02*
X187850000Y-69641667I-50000J0D01*
G01*
X186650000Y-69641667D01*
G75*
G02*
X186600000Y-69591667I0J50000D01*
G01*
X186600000Y-68691667D01*
G75*
G02*
X186650000Y-68641667I50000J0D01*
G01*
G37*
G36*
G01*
X186650000Y-71941667D02*
X187850000Y-71941667D01*
G75*
G02*
X187900000Y-71991667I0J-50000D01*
G01*
X187900000Y-72891667D01*
G75*
G02*
X187850000Y-72941667I-50000J0D01*
G01*
X186650000Y-72941667D01*
G75*
G02*
X186600000Y-72891667I0J50000D01*
G01*
X186600000Y-71991667D01*
G75*
G02*
X186650000Y-71941667I50000J0D01*
G01*
G37*
G36*
G01*
X186650000Y-49641667D02*
X187850000Y-49641667D01*
G75*
G02*
X187900000Y-49691667I0J-50000D01*
G01*
X187900000Y-50591667D01*
G75*
G02*
X187850000Y-50641667I-50000J0D01*
G01*
X186650000Y-50641667D01*
G75*
G02*
X186600000Y-50591667I0J50000D01*
G01*
X186600000Y-49691667D01*
G75*
G02*
X186650000Y-49641667I50000J0D01*
G01*
G37*
G36*
G01*
X186650000Y-52941667D02*
X187850000Y-52941667D01*
G75*
G02*
X187900000Y-52991667I0J-50000D01*
G01*
X187900000Y-53891667D01*
G75*
G02*
X187850000Y-53941667I-50000J0D01*
G01*
X186650000Y-53941667D01*
G75*
G02*
X186600000Y-53891667I0J50000D01*
G01*
X186600000Y-52991667D01*
G75*
G02*
X186650000Y-52941667I50000J0D01*
G01*
G37*
G36*
G01*
X148650000Y-107100000D02*
X149850000Y-107100000D01*
G75*
G02*
X149900000Y-107150000I0J-50000D01*
G01*
X149900000Y-108050000D01*
G75*
G02*
X149850000Y-108100000I-50000J0D01*
G01*
X148650000Y-108100000D01*
G75*
G02*
X148600000Y-108050000I0J50000D01*
G01*
X148600000Y-107150000D01*
G75*
G02*
X148650000Y-107100000I50000J0D01*
G01*
G37*
G36*
G01*
X148650000Y-110400000D02*
X149850000Y-110400000D01*
G75*
G02*
X149900000Y-110450000I0J-50000D01*
G01*
X149900000Y-111350000D01*
G75*
G02*
X149850000Y-111400000I-50000J0D01*
G01*
X148650000Y-111400000D01*
G75*
G02*
X148600000Y-111350000I0J50000D01*
G01*
X148600000Y-110450000D01*
G75*
G02*
X148650000Y-110400000I50000J0D01*
G01*
G37*
G36*
G01*
X170479208Y-107563232D02*
X171638319Y-107873815D01*
G75*
G02*
X171673674Y-107935052I-12941J-48296D01*
G01*
X171440737Y-108804385D01*
G75*
G02*
X171379500Y-108839740I-48296J12941D01*
G01*
X170220389Y-108529157D01*
G75*
G02*
X170185034Y-108467920I12941J48296D01*
G01*
X170417971Y-107598587D01*
G75*
G02*
X170479208Y-107563232I48296J-12941D01*
G01*
G37*
G36*
G01*
X169625106Y-110750788D02*
X170784217Y-111061371D01*
G75*
G02*
X170819572Y-111122608I-12941J-48296D01*
G01*
X170586635Y-111991941D01*
G75*
G02*
X170525398Y-112027296I-48296J12941D01*
G01*
X169366287Y-111716713D01*
G75*
G02*
X169330932Y-111655476I12941J48296D01*
G01*
X169563869Y-110786143D01*
G75*
G02*
X169625106Y-110750788I48296J-12941D01*
G01*
G37*
G36*
G01*
X191444713Y-113660495D02*
X192483943Y-114260495D01*
G75*
G02*
X192502244Y-114328796I-25000J-43301D01*
G01*
X192052244Y-115108218D01*
G75*
G02*
X191983943Y-115126519I-43301J25000D01*
G01*
X190944713Y-114526519D01*
G75*
G02*
X190926412Y-114458218I25000J43301D01*
G01*
X191376412Y-113678796D01*
G75*
G02*
X191444713Y-113660495I43301J-25000D01*
G01*
G37*
G36*
G01*
X189794713Y-116518379D02*
X190833943Y-117118379D01*
G75*
G02*
X190852244Y-117186680I-25000J-43301D01*
G01*
X190402244Y-117966102D01*
G75*
G02*
X190333943Y-117984403I-43301J25000D01*
G01*
X189294713Y-117384403D01*
G75*
G02*
X189276412Y-117316102I25000J43301D01*
G01*
X189726412Y-116536680D01*
G75*
G02*
X189794713Y-116518379I43301J-25000D01*
G01*
G37*
G36*
G01*
X210117745Y-124976270D02*
X210966273Y-125824798D01*
G75*
G02*
X210966273Y-125895508I-35355J-35355D01*
G01*
X210329877Y-126531904D01*
G75*
G02*
X210259167Y-126531904I-35355J35355D01*
G01*
X209410639Y-125683376D01*
G75*
G02*
X209410639Y-125612666I35355J35355D01*
G01*
X210047035Y-124976270D01*
G75*
G02*
X210117745Y-124976270I35355J-35355D01*
G01*
G37*
G36*
G01*
X207784293Y-127309722D02*
X208632821Y-128158250D01*
G75*
G02*
X208632821Y-128228960I-35355J-35355D01*
G01*
X207996425Y-128865356D01*
G75*
G02*
X207925715Y-128865356I-35355J35355D01*
G01*
X207077187Y-128016828D01*
G75*
G02*
X207077187Y-127946118I35355J35355D01*
G01*
X207713583Y-127309722D01*
G75*
G02*
X207784293Y-127309722I35355J-35355D01*
G01*
G37*
D14*
X207084000Y-51836667D03*
X222324000Y-51836667D03*
D15*
X211304000Y-51836667D03*
X218104000Y-51836667D03*
G36*
G01*
X208874000Y-52436667D02*
X208874000Y-51236667D01*
G75*
G02*
X208924000Y-51186667I50000J0D01*
G01*
X209524000Y-51186667D01*
G75*
G02*
X209574000Y-51236667I0J-50000D01*
G01*
X209574000Y-52436667D01*
G75*
G02*
X209524000Y-52486667I-50000J0D01*
G01*
X208924000Y-52486667D01*
G75*
G02*
X208874000Y-52436667I0J50000D01*
G01*
G37*
G36*
G01*
X209774000Y-52436667D02*
X209774000Y-51236667D01*
G75*
G02*
X209824000Y-51186667I50000J0D01*
G01*
X210424000Y-51186667D01*
G75*
G02*
X210474000Y-51236667I0J-50000D01*
G01*
X210474000Y-52436667D01*
G75*
G02*
X210424000Y-52486667I-50000J0D01*
G01*
X209824000Y-52486667D01*
G75*
G02*
X209774000Y-52436667I0J50000D01*
G01*
G37*
G36*
G01*
X218934000Y-52436667D02*
X218934000Y-51236667D01*
G75*
G02*
X218984000Y-51186667I50000J0D01*
G01*
X219584000Y-51186667D01*
G75*
G02*
X219634000Y-51236667I0J-50000D01*
G01*
X219634000Y-52436667D01*
G75*
G02*
X219584000Y-52486667I-50000J0D01*
G01*
X218984000Y-52486667D01*
G75*
G02*
X218934000Y-52436667I0J50000D01*
G01*
G37*
G36*
G01*
X219834000Y-52436667D02*
X219834000Y-51236667D01*
G75*
G02*
X219884000Y-51186667I50000J0D01*
G01*
X220484000Y-51186667D01*
G75*
G02*
X220534000Y-51236667I0J-50000D01*
G01*
X220534000Y-52436667D01*
G75*
G02*
X220484000Y-52486667I-50000J0D01*
G01*
X219884000Y-52486667D01*
G75*
G02*
X219834000Y-52436667I0J50000D01*
G01*
G37*
D14*
X207084000Y-54376667D03*
X222324000Y-54376667D03*
D15*
X211304000Y-54376667D03*
X218104000Y-54376667D03*
G36*
G01*
X208874000Y-54976667D02*
X208874000Y-53776667D01*
G75*
G02*
X208924000Y-53726667I50000J0D01*
G01*
X209524000Y-53726667D01*
G75*
G02*
X209574000Y-53776667I0J-50000D01*
G01*
X209574000Y-54976667D01*
G75*
G02*
X209524000Y-55026667I-50000J0D01*
G01*
X208924000Y-55026667D01*
G75*
G02*
X208874000Y-54976667I0J50000D01*
G01*
G37*
G36*
G01*
X209774000Y-54976667D02*
X209774000Y-53776667D01*
G75*
G02*
X209824000Y-53726667I50000J0D01*
G01*
X210424000Y-53726667D01*
G75*
G02*
X210474000Y-53776667I0J-50000D01*
G01*
X210474000Y-54976667D01*
G75*
G02*
X210424000Y-55026667I-50000J0D01*
G01*
X209824000Y-55026667D01*
G75*
G02*
X209774000Y-54976667I0J50000D01*
G01*
G37*
G36*
G01*
X218934000Y-54976667D02*
X218934000Y-53776667D01*
G75*
G02*
X218984000Y-53726667I50000J0D01*
G01*
X219584000Y-53726667D01*
G75*
G02*
X219634000Y-53776667I0J-50000D01*
G01*
X219634000Y-54976667D01*
G75*
G02*
X219584000Y-55026667I-50000J0D01*
G01*
X218984000Y-55026667D01*
G75*
G02*
X218934000Y-54976667I0J50000D01*
G01*
G37*
G36*
G01*
X219834000Y-54976667D02*
X219834000Y-53776667D01*
G75*
G02*
X219884000Y-53726667I50000J0D01*
G01*
X220484000Y-53726667D01*
G75*
G02*
X220534000Y-53776667I0J-50000D01*
G01*
X220534000Y-54976667D01*
G75*
G02*
X220484000Y-55026667I-50000J0D01*
G01*
X219884000Y-55026667D01*
G75*
G02*
X219834000Y-54976667I0J50000D01*
G01*
G37*
D14*
X207084000Y-56916667D03*
X222324000Y-56916667D03*
D15*
X211304000Y-56916667D03*
X218104000Y-56916667D03*
G36*
G01*
X208874000Y-57516667D02*
X208874000Y-56316667D01*
G75*
G02*
X208924000Y-56266667I50000J0D01*
G01*
X209524000Y-56266667D01*
G75*
G02*
X209574000Y-56316667I0J-50000D01*
G01*
X209574000Y-57516667D01*
G75*
G02*
X209524000Y-57566667I-50000J0D01*
G01*
X208924000Y-57566667D01*
G75*
G02*
X208874000Y-57516667I0J50000D01*
G01*
G37*
G36*
G01*
X209774000Y-57516667D02*
X209774000Y-56316667D01*
G75*
G02*
X209824000Y-56266667I50000J0D01*
G01*
X210424000Y-56266667D01*
G75*
G02*
X210474000Y-56316667I0J-50000D01*
G01*
X210474000Y-57516667D01*
G75*
G02*
X210424000Y-57566667I-50000J0D01*
G01*
X209824000Y-57566667D01*
G75*
G02*
X209774000Y-57516667I0J50000D01*
G01*
G37*
G36*
G01*
X218934000Y-57516667D02*
X218934000Y-56316667D01*
G75*
G02*
X218984000Y-56266667I50000J0D01*
G01*
X219584000Y-56266667D01*
G75*
G02*
X219634000Y-56316667I0J-50000D01*
G01*
X219634000Y-57516667D01*
G75*
G02*
X219584000Y-57566667I-50000J0D01*
G01*
X218984000Y-57566667D01*
G75*
G02*
X218934000Y-57516667I0J50000D01*
G01*
G37*
G36*
G01*
X219834000Y-57516667D02*
X219834000Y-56316667D01*
G75*
G02*
X219884000Y-56266667I50000J0D01*
G01*
X220484000Y-56266667D01*
G75*
G02*
X220534000Y-56316667I0J-50000D01*
G01*
X220534000Y-57516667D01*
G75*
G02*
X220484000Y-57566667I-50000J0D01*
G01*
X219884000Y-57566667D01*
G75*
G02*
X219834000Y-57516667I0J50000D01*
G01*
G37*
D14*
X207084000Y-59456667D03*
X222324000Y-59456667D03*
D15*
X211304000Y-59456667D03*
X218104000Y-59456667D03*
G36*
G01*
X208874000Y-60056667D02*
X208874000Y-58856667D01*
G75*
G02*
X208924000Y-58806667I50000J0D01*
G01*
X209524000Y-58806667D01*
G75*
G02*
X209574000Y-58856667I0J-50000D01*
G01*
X209574000Y-60056667D01*
G75*
G02*
X209524000Y-60106667I-50000J0D01*
G01*
X208924000Y-60106667D01*
G75*
G02*
X208874000Y-60056667I0J50000D01*
G01*
G37*
G36*
G01*
X209774000Y-60056667D02*
X209774000Y-58856667D01*
G75*
G02*
X209824000Y-58806667I50000J0D01*
G01*
X210424000Y-58806667D01*
G75*
G02*
X210474000Y-58856667I0J-50000D01*
G01*
X210474000Y-60056667D01*
G75*
G02*
X210424000Y-60106667I-50000J0D01*
G01*
X209824000Y-60106667D01*
G75*
G02*
X209774000Y-60056667I0J50000D01*
G01*
G37*
G36*
G01*
X218934000Y-60056667D02*
X218934000Y-58856667D01*
G75*
G02*
X218984000Y-58806667I50000J0D01*
G01*
X219584000Y-58806667D01*
G75*
G02*
X219634000Y-58856667I0J-50000D01*
G01*
X219634000Y-60056667D01*
G75*
G02*
X219584000Y-60106667I-50000J0D01*
G01*
X218984000Y-60106667D01*
G75*
G02*
X218934000Y-60056667I0J50000D01*
G01*
G37*
G36*
G01*
X219834000Y-60056667D02*
X219834000Y-58856667D01*
G75*
G02*
X219884000Y-58806667I50000J0D01*
G01*
X220484000Y-58806667D01*
G75*
G02*
X220534000Y-58856667I0J-50000D01*
G01*
X220534000Y-60056667D01*
G75*
G02*
X220484000Y-60106667I-50000J0D01*
G01*
X219884000Y-60106667D01*
G75*
G02*
X219834000Y-60056667I0J50000D01*
G01*
G37*
D14*
X207084000Y-61996667D03*
X222324000Y-61996667D03*
D15*
X211304000Y-61996667D03*
X218104000Y-61996667D03*
G36*
G01*
X208874000Y-62596667D02*
X208874000Y-61396667D01*
G75*
G02*
X208924000Y-61346667I50000J0D01*
G01*
X209524000Y-61346667D01*
G75*
G02*
X209574000Y-61396667I0J-50000D01*
G01*
X209574000Y-62596667D01*
G75*
G02*
X209524000Y-62646667I-50000J0D01*
G01*
X208924000Y-62646667D01*
G75*
G02*
X208874000Y-62596667I0J50000D01*
G01*
G37*
G36*
G01*
X209774000Y-62596667D02*
X209774000Y-61396667D01*
G75*
G02*
X209824000Y-61346667I50000J0D01*
G01*
X210424000Y-61346667D01*
G75*
G02*
X210474000Y-61396667I0J-50000D01*
G01*
X210474000Y-62596667D01*
G75*
G02*
X210424000Y-62646667I-50000J0D01*
G01*
X209824000Y-62646667D01*
G75*
G02*
X209774000Y-62596667I0J50000D01*
G01*
G37*
G36*
G01*
X218934000Y-62596667D02*
X218934000Y-61396667D01*
G75*
G02*
X218984000Y-61346667I50000J0D01*
G01*
X219584000Y-61346667D01*
G75*
G02*
X219634000Y-61396667I0J-50000D01*
G01*
X219634000Y-62596667D01*
G75*
G02*
X219584000Y-62646667I-50000J0D01*
G01*
X218984000Y-62646667D01*
G75*
G02*
X218934000Y-62596667I0J50000D01*
G01*
G37*
G36*
G01*
X219834000Y-62596667D02*
X219834000Y-61396667D01*
G75*
G02*
X219884000Y-61346667I50000J0D01*
G01*
X220484000Y-61346667D01*
G75*
G02*
X220534000Y-61396667I0J-50000D01*
G01*
X220534000Y-62596667D01*
G75*
G02*
X220484000Y-62646667I-50000J0D01*
G01*
X219884000Y-62646667D01*
G75*
G02*
X219834000Y-62596667I0J50000D01*
G01*
G37*
D14*
X207084000Y-64536667D03*
X222324000Y-64536667D03*
D15*
X211304000Y-64536667D03*
X218104000Y-64536667D03*
G36*
G01*
X208874000Y-65136667D02*
X208874000Y-63936667D01*
G75*
G02*
X208924000Y-63886667I50000J0D01*
G01*
X209524000Y-63886667D01*
G75*
G02*
X209574000Y-63936667I0J-50000D01*
G01*
X209574000Y-65136667D01*
G75*
G02*
X209524000Y-65186667I-50000J0D01*
G01*
X208924000Y-65186667D01*
G75*
G02*
X208874000Y-65136667I0J50000D01*
G01*
G37*
G36*
G01*
X209774000Y-65136667D02*
X209774000Y-63936667D01*
G75*
G02*
X209824000Y-63886667I50000J0D01*
G01*
X210424000Y-63886667D01*
G75*
G02*
X210474000Y-63936667I0J-50000D01*
G01*
X210474000Y-65136667D01*
G75*
G02*
X210424000Y-65186667I-50000J0D01*
G01*
X209824000Y-65186667D01*
G75*
G02*
X209774000Y-65136667I0J50000D01*
G01*
G37*
G36*
G01*
X218934000Y-65136667D02*
X218934000Y-63936667D01*
G75*
G02*
X218984000Y-63886667I50000J0D01*
G01*
X219584000Y-63886667D01*
G75*
G02*
X219634000Y-63936667I0J-50000D01*
G01*
X219634000Y-65136667D01*
G75*
G02*
X219584000Y-65186667I-50000J0D01*
G01*
X218984000Y-65186667D01*
G75*
G02*
X218934000Y-65136667I0J50000D01*
G01*
G37*
G36*
G01*
X219834000Y-65136667D02*
X219834000Y-63936667D01*
G75*
G02*
X219884000Y-63886667I50000J0D01*
G01*
X220484000Y-63886667D01*
G75*
G02*
X220534000Y-63936667I0J-50000D01*
G01*
X220534000Y-65136667D01*
G75*
G02*
X220484000Y-65186667I-50000J0D01*
G01*
X219884000Y-65186667D01*
G75*
G02*
X219834000Y-65136667I0J50000D01*
G01*
G37*
D14*
X207084000Y-67076667D03*
X222324000Y-67076667D03*
D15*
X211304000Y-67076667D03*
X218104000Y-67076667D03*
G36*
G01*
X208874000Y-67676667D02*
X208874000Y-66476667D01*
G75*
G02*
X208924000Y-66426667I50000J0D01*
G01*
X209524000Y-66426667D01*
G75*
G02*
X209574000Y-66476667I0J-50000D01*
G01*
X209574000Y-67676667D01*
G75*
G02*
X209524000Y-67726667I-50000J0D01*
G01*
X208924000Y-67726667D01*
G75*
G02*
X208874000Y-67676667I0J50000D01*
G01*
G37*
G36*
G01*
X209774000Y-67676667D02*
X209774000Y-66476667D01*
G75*
G02*
X209824000Y-66426667I50000J0D01*
G01*
X210424000Y-66426667D01*
G75*
G02*
X210474000Y-66476667I0J-50000D01*
G01*
X210474000Y-67676667D01*
G75*
G02*
X210424000Y-67726667I-50000J0D01*
G01*
X209824000Y-67726667D01*
G75*
G02*
X209774000Y-67676667I0J50000D01*
G01*
G37*
G36*
G01*
X218934000Y-67676667D02*
X218934000Y-66476667D01*
G75*
G02*
X218984000Y-66426667I50000J0D01*
G01*
X219584000Y-66426667D01*
G75*
G02*
X219634000Y-66476667I0J-50000D01*
G01*
X219634000Y-67676667D01*
G75*
G02*
X219584000Y-67726667I-50000J0D01*
G01*
X218984000Y-67726667D01*
G75*
G02*
X218934000Y-67676667I0J50000D01*
G01*
G37*
G36*
G01*
X219834000Y-67676667D02*
X219834000Y-66476667D01*
G75*
G02*
X219884000Y-66426667I50000J0D01*
G01*
X220484000Y-66426667D01*
G75*
G02*
X220534000Y-66476667I0J-50000D01*
G01*
X220534000Y-67676667D01*
G75*
G02*
X220484000Y-67726667I-50000J0D01*
G01*
X219884000Y-67726667D01*
G75*
G02*
X219834000Y-67676667I0J50000D01*
G01*
G37*
D14*
X207084000Y-69616667D03*
X222324000Y-69616667D03*
D15*
X211304000Y-69616667D03*
X218104000Y-69616667D03*
G36*
G01*
X208874000Y-70216667D02*
X208874000Y-69016667D01*
G75*
G02*
X208924000Y-68966667I50000J0D01*
G01*
X209524000Y-68966667D01*
G75*
G02*
X209574000Y-69016667I0J-50000D01*
G01*
X209574000Y-70216667D01*
G75*
G02*
X209524000Y-70266667I-50000J0D01*
G01*
X208924000Y-70266667D01*
G75*
G02*
X208874000Y-70216667I0J50000D01*
G01*
G37*
G36*
G01*
X209774000Y-70216667D02*
X209774000Y-69016667D01*
G75*
G02*
X209824000Y-68966667I50000J0D01*
G01*
X210424000Y-68966667D01*
G75*
G02*
X210474000Y-69016667I0J-50000D01*
G01*
X210474000Y-70216667D01*
G75*
G02*
X210424000Y-70266667I-50000J0D01*
G01*
X209824000Y-70266667D01*
G75*
G02*
X209774000Y-70216667I0J50000D01*
G01*
G37*
G36*
G01*
X218934000Y-70216667D02*
X218934000Y-69016667D01*
G75*
G02*
X218984000Y-68966667I50000J0D01*
G01*
X219584000Y-68966667D01*
G75*
G02*
X219634000Y-69016667I0J-50000D01*
G01*
X219634000Y-70216667D01*
G75*
G02*
X219584000Y-70266667I-50000J0D01*
G01*
X218984000Y-70266667D01*
G75*
G02*
X218934000Y-70216667I0J50000D01*
G01*
G37*
G36*
G01*
X219834000Y-70216667D02*
X219834000Y-69016667D01*
G75*
G02*
X219884000Y-68966667I50000J0D01*
G01*
X220484000Y-68966667D01*
G75*
G02*
X220534000Y-69016667I0J-50000D01*
G01*
X220534000Y-70216667D01*
G75*
G02*
X220484000Y-70266667I-50000J0D01*
G01*
X219884000Y-70266667D01*
G75*
G02*
X219834000Y-70216667I0J50000D01*
G01*
G37*
D14*
X207084000Y-72156667D03*
X222324000Y-72156667D03*
D15*
X211304000Y-72156667D03*
X218104000Y-72156667D03*
G36*
G01*
X208874000Y-72756667D02*
X208874000Y-71556667D01*
G75*
G02*
X208924000Y-71506667I50000J0D01*
G01*
X209524000Y-71506667D01*
G75*
G02*
X209574000Y-71556667I0J-50000D01*
G01*
X209574000Y-72756667D01*
G75*
G02*
X209524000Y-72806667I-50000J0D01*
G01*
X208924000Y-72806667D01*
G75*
G02*
X208874000Y-72756667I0J50000D01*
G01*
G37*
G36*
G01*
X209774000Y-72756667D02*
X209774000Y-71556667D01*
G75*
G02*
X209824000Y-71506667I50000J0D01*
G01*
X210424000Y-71506667D01*
G75*
G02*
X210474000Y-71556667I0J-50000D01*
G01*
X210474000Y-72756667D01*
G75*
G02*
X210424000Y-72806667I-50000J0D01*
G01*
X209824000Y-72806667D01*
G75*
G02*
X209774000Y-72756667I0J50000D01*
G01*
G37*
G36*
G01*
X218934000Y-72756667D02*
X218934000Y-71556667D01*
G75*
G02*
X218984000Y-71506667I50000J0D01*
G01*
X219584000Y-71506667D01*
G75*
G02*
X219634000Y-71556667I0J-50000D01*
G01*
X219634000Y-72756667D01*
G75*
G02*
X219584000Y-72806667I-50000J0D01*
G01*
X218984000Y-72806667D01*
G75*
G02*
X218934000Y-72756667I0J50000D01*
G01*
G37*
G36*
G01*
X219834000Y-72756667D02*
X219834000Y-71556667D01*
G75*
G02*
X219884000Y-71506667I50000J0D01*
G01*
X220484000Y-71506667D01*
G75*
G02*
X220534000Y-71556667I0J-50000D01*
G01*
X220534000Y-72756667D01*
G75*
G02*
X220484000Y-72806667I-50000J0D01*
G01*
X219884000Y-72806667D01*
G75*
G02*
X219834000Y-72756667I0J50000D01*
G01*
G37*
D14*
X207084000Y-74696667D03*
X222324000Y-74696667D03*
D15*
X211304000Y-74696667D03*
X218104000Y-74696667D03*
G36*
G01*
X208874000Y-75296667D02*
X208874000Y-74096667D01*
G75*
G02*
X208924000Y-74046667I50000J0D01*
G01*
X209524000Y-74046667D01*
G75*
G02*
X209574000Y-74096667I0J-50000D01*
G01*
X209574000Y-75296667D01*
G75*
G02*
X209524000Y-75346667I-50000J0D01*
G01*
X208924000Y-75346667D01*
G75*
G02*
X208874000Y-75296667I0J50000D01*
G01*
G37*
G36*
G01*
X209774000Y-75296667D02*
X209774000Y-74096667D01*
G75*
G02*
X209824000Y-74046667I50000J0D01*
G01*
X210424000Y-74046667D01*
G75*
G02*
X210474000Y-74096667I0J-50000D01*
G01*
X210474000Y-75296667D01*
G75*
G02*
X210424000Y-75346667I-50000J0D01*
G01*
X209824000Y-75346667D01*
G75*
G02*
X209774000Y-75296667I0J50000D01*
G01*
G37*
G36*
G01*
X218934000Y-75296667D02*
X218934000Y-74096667D01*
G75*
G02*
X218984000Y-74046667I50000J0D01*
G01*
X219584000Y-74046667D01*
G75*
G02*
X219634000Y-74096667I0J-50000D01*
G01*
X219634000Y-75296667D01*
G75*
G02*
X219584000Y-75346667I-50000J0D01*
G01*
X218984000Y-75346667D01*
G75*
G02*
X218934000Y-75296667I0J50000D01*
G01*
G37*
G36*
G01*
X219834000Y-75296667D02*
X219834000Y-74096667D01*
G75*
G02*
X219884000Y-74046667I50000J0D01*
G01*
X220484000Y-74046667D01*
G75*
G02*
X220534000Y-74096667I0J-50000D01*
G01*
X220534000Y-75296667D01*
G75*
G02*
X220484000Y-75346667I-50000J0D01*
G01*
X219884000Y-75346667D01*
G75*
G02*
X219834000Y-75296667I0J50000D01*
G01*
G37*
D14*
X207084000Y-77236667D03*
X222324000Y-77236667D03*
D15*
X211304000Y-77236667D03*
X218104000Y-77236667D03*
G36*
G01*
X208874000Y-77836667D02*
X208874000Y-76636667D01*
G75*
G02*
X208924000Y-76586667I50000J0D01*
G01*
X209524000Y-76586667D01*
G75*
G02*
X209574000Y-76636667I0J-50000D01*
G01*
X209574000Y-77836667D01*
G75*
G02*
X209524000Y-77886667I-50000J0D01*
G01*
X208924000Y-77886667D01*
G75*
G02*
X208874000Y-77836667I0J50000D01*
G01*
G37*
G36*
G01*
X209774000Y-77836667D02*
X209774000Y-76636667D01*
G75*
G02*
X209824000Y-76586667I50000J0D01*
G01*
X210424000Y-76586667D01*
G75*
G02*
X210474000Y-76636667I0J-50000D01*
G01*
X210474000Y-77836667D01*
G75*
G02*
X210424000Y-77886667I-50000J0D01*
G01*
X209824000Y-77886667D01*
G75*
G02*
X209774000Y-77836667I0J50000D01*
G01*
G37*
G36*
G01*
X218934000Y-77836667D02*
X218934000Y-76636667D01*
G75*
G02*
X218984000Y-76586667I50000J0D01*
G01*
X219584000Y-76586667D01*
G75*
G02*
X219634000Y-76636667I0J-50000D01*
G01*
X219634000Y-77836667D01*
G75*
G02*
X219584000Y-77886667I-50000J0D01*
G01*
X218984000Y-77886667D01*
G75*
G02*
X218934000Y-77836667I0J50000D01*
G01*
G37*
G36*
G01*
X219834000Y-77836667D02*
X219834000Y-76636667D01*
G75*
G02*
X219884000Y-76586667I50000J0D01*
G01*
X220484000Y-76586667D01*
G75*
G02*
X220534000Y-76636667I0J-50000D01*
G01*
X220534000Y-77836667D01*
G75*
G02*
X220484000Y-77886667I-50000J0D01*
G01*
X219884000Y-77886667D01*
G75*
G02*
X219834000Y-77836667I0J50000D01*
G01*
G37*
D14*
X207084000Y-79776667D03*
X222324000Y-79776667D03*
D15*
X211304000Y-79776667D03*
X218104000Y-79776667D03*
G36*
G01*
X208874000Y-80376667D02*
X208874000Y-79176667D01*
G75*
G02*
X208924000Y-79126667I50000J0D01*
G01*
X209524000Y-79126667D01*
G75*
G02*
X209574000Y-79176667I0J-50000D01*
G01*
X209574000Y-80376667D01*
G75*
G02*
X209524000Y-80426667I-50000J0D01*
G01*
X208924000Y-80426667D01*
G75*
G02*
X208874000Y-80376667I0J50000D01*
G01*
G37*
G36*
G01*
X209774000Y-80376667D02*
X209774000Y-79176667D01*
G75*
G02*
X209824000Y-79126667I50000J0D01*
G01*
X210424000Y-79126667D01*
G75*
G02*
X210474000Y-79176667I0J-50000D01*
G01*
X210474000Y-80376667D01*
G75*
G02*
X210424000Y-80426667I-50000J0D01*
G01*
X209824000Y-80426667D01*
G75*
G02*
X209774000Y-80376667I0J50000D01*
G01*
G37*
G36*
G01*
X218934000Y-80376667D02*
X218934000Y-79176667D01*
G75*
G02*
X218984000Y-79126667I50000J0D01*
G01*
X219584000Y-79126667D01*
G75*
G02*
X219634000Y-79176667I0J-50000D01*
G01*
X219634000Y-80376667D01*
G75*
G02*
X219584000Y-80426667I-50000J0D01*
G01*
X218984000Y-80426667D01*
G75*
G02*
X218934000Y-80376667I0J50000D01*
G01*
G37*
G36*
G01*
X219834000Y-80376667D02*
X219834000Y-79176667D01*
G75*
G02*
X219884000Y-79126667I50000J0D01*
G01*
X220484000Y-79126667D01*
G75*
G02*
X220534000Y-79176667I0J-50000D01*
G01*
X220534000Y-80376667D01*
G75*
G02*
X220484000Y-80426667I-50000J0D01*
G01*
X219884000Y-80426667D01*
G75*
G02*
X219834000Y-80376667I0J50000D01*
G01*
G37*
G36*
G01*
X219127000Y-85016667D02*
X220327000Y-85016667D01*
G75*
G02*
X220377000Y-85066667I0J-50000D01*
G01*
X220377000Y-85666667D01*
G75*
G02*
X220327000Y-85716667I-50000J0D01*
G01*
X219127000Y-85716667D01*
G75*
G02*
X219077000Y-85666667I0J50000D01*
G01*
X219077000Y-85066667D01*
G75*
G02*
X219127000Y-85016667I50000J0D01*
G01*
G37*
G36*
G01*
X216587000Y-85016667D02*
X217787000Y-85016667D01*
G75*
G02*
X217837000Y-85066667I0J-50000D01*
G01*
X217837000Y-85666667D01*
G75*
G02*
X217787000Y-85716667I-50000J0D01*
G01*
X216587000Y-85716667D01*
G75*
G02*
X216537000Y-85666667I0J50000D01*
G01*
X216537000Y-85066667D01*
G75*
G02*
X216587000Y-85016667I50000J0D01*
G01*
G37*
G36*
G01*
X211507000Y-85016667D02*
X212707000Y-85016667D01*
G75*
G02*
X212757000Y-85066667I0J-50000D01*
G01*
X212757000Y-85666667D01*
G75*
G02*
X212707000Y-85716667I-50000J0D01*
G01*
X211507000Y-85716667D01*
G75*
G02*
X211457000Y-85666667I0J50000D01*
G01*
X211457000Y-85066667D01*
G75*
G02*
X211507000Y-85016667I50000J0D01*
G01*
G37*
G36*
G01*
X208967000Y-85016667D02*
X210167000Y-85016667D01*
G75*
G02*
X210217000Y-85066667I0J-50000D01*
G01*
X210217000Y-85666667D01*
G75*
G02*
X210167000Y-85716667I-50000J0D01*
G01*
X208967000Y-85716667D01*
G75*
G02*
X208917000Y-85666667I0J50000D01*
G01*
X208917000Y-85066667D01*
G75*
G02*
X208967000Y-85016667I50000J0D01*
G01*
G37*
G36*
G01*
X219127000Y-85916667D02*
X220327000Y-85916667D01*
G75*
G02*
X220377000Y-85966667I0J-50000D01*
G01*
X220377000Y-86566667D01*
G75*
G02*
X220327000Y-86616667I-50000J0D01*
G01*
X219127000Y-86616667D01*
G75*
G02*
X219077000Y-86566667I0J50000D01*
G01*
X219077000Y-85966667D01*
G75*
G02*
X219127000Y-85916667I50000J0D01*
G01*
G37*
G36*
G01*
X216587000Y-85916667D02*
X217787000Y-85916667D01*
G75*
G02*
X217837000Y-85966667I0J-50000D01*
G01*
X217837000Y-86566667D01*
G75*
G02*
X217787000Y-86616667I-50000J0D01*
G01*
X216587000Y-86616667D01*
G75*
G02*
X216537000Y-86566667I0J50000D01*
G01*
X216537000Y-85966667D01*
G75*
G02*
X216587000Y-85916667I50000J0D01*
G01*
G37*
G36*
G01*
X211507000Y-85916667D02*
X212707000Y-85916667D01*
G75*
G02*
X212757000Y-85966667I0J-50000D01*
G01*
X212757000Y-86566667D01*
G75*
G02*
X212707000Y-86616667I-50000J0D01*
G01*
X211507000Y-86616667D01*
G75*
G02*
X211457000Y-86566667I0J50000D01*
G01*
X211457000Y-85966667D01*
G75*
G02*
X211507000Y-85916667I50000J0D01*
G01*
G37*
G36*
G01*
X208967000Y-85916667D02*
X210167000Y-85916667D01*
G75*
G02*
X210217000Y-85966667I0J-50000D01*
G01*
X210217000Y-86566667D01*
G75*
G02*
X210167000Y-86616667I-50000J0D01*
G01*
X208967000Y-86616667D01*
G75*
G02*
X208917000Y-86566667I0J50000D01*
G01*
X208917000Y-85966667D01*
G75*
G02*
X208967000Y-85916667I50000J0D01*
G01*
G37*
D16*
X209567000Y-83616667D03*
X212107000Y-83616667D03*
X214647000Y-83616667D03*
X217187000Y-83616667D03*
D14*
X219727000Y-83616667D03*
G36*
G01*
X221515000Y-88466667D02*
X222315000Y-88466667D01*
G75*
G02*
X222365000Y-88516667I0J-50000D01*
G01*
X222365000Y-89516667D01*
G75*
G02*
X222315000Y-89566667I-50000J0D01*
G01*
X221515000Y-89566667D01*
G75*
G02*
X221465000Y-89516667I0J50000D01*
G01*
X221465000Y-88516667D01*
G75*
G02*
X221515000Y-88466667I50000J0D01*
G01*
G37*
G36*
G01*
X223725000Y-88466667D02*
X224525000Y-88466667D01*
G75*
G02*
X224575000Y-88516667I0J-50000D01*
G01*
X224575000Y-89516667D01*
G75*
G02*
X224525000Y-89566667I-50000J0D01*
G01*
X223725000Y-89566667D01*
G75*
G02*
X223675000Y-89516667I0J50000D01*
G01*
X223675000Y-88516667D01*
G75*
G02*
X223725000Y-88466667I50000J0D01*
G01*
G37*
G36*
G01*
X221515000Y-95766667D02*
X222315000Y-95766667D01*
G75*
G02*
X222365000Y-95816667I0J-50000D01*
G01*
X222365000Y-96816667D01*
G75*
G02*
X222315000Y-96866667I-50000J0D01*
G01*
X221515000Y-96866667D01*
G75*
G02*
X221465000Y-96816667I0J50000D01*
G01*
X221465000Y-95816667D01*
G75*
G02*
X221515000Y-95766667I50000J0D01*
G01*
G37*
G36*
G01*
X223725000Y-95766667D02*
X224525000Y-95766667D01*
G75*
G02*
X224575000Y-95816667I0J-50000D01*
G01*
X224575000Y-96816667D01*
G75*
G02*
X224525000Y-96866667I-50000J0D01*
G01*
X223725000Y-96866667D01*
G75*
G02*
X223675000Y-96816667I0J50000D01*
G01*
X223675000Y-95816667D01*
G75*
G02*
X223725000Y-95766667I50000J0D01*
G01*
G37*
G36*
G01*
X220515000Y-90016667D02*
X222015000Y-90016667D01*
G75*
G02*
X222065000Y-90066667I0J-50000D01*
G01*
X222065000Y-90766667D01*
G75*
G02*
X222015000Y-90816667I-50000J0D01*
G01*
X220515000Y-90816667D01*
G75*
G02*
X220465000Y-90766667I0J50000D01*
G01*
X220465000Y-90066667D01*
G75*
G02*
X220515000Y-90016667I50000J0D01*
G01*
G37*
G36*
G01*
X220515000Y-93016667D02*
X222015000Y-93016667D01*
G75*
G02*
X222065000Y-93066667I0J-50000D01*
G01*
X222065000Y-93766667D01*
G75*
G02*
X222015000Y-93816667I-50000J0D01*
G01*
X220515000Y-93816667D01*
G75*
G02*
X220465000Y-93766667I0J50000D01*
G01*
X220465000Y-93066667D01*
G75*
G02*
X220515000Y-93016667I50000J0D01*
G01*
G37*
G36*
G01*
X220515000Y-94516667D02*
X222015000Y-94516667D01*
G75*
G02*
X222065000Y-94566667I0J-50000D01*
G01*
X222065000Y-95266667D01*
G75*
G02*
X222015000Y-95316667I-50000J0D01*
G01*
X220515000Y-95316667D01*
G75*
G02*
X220465000Y-95266667I0J50000D01*
G01*
X220465000Y-94566667D01*
G75*
G02*
X220515000Y-94516667I50000J0D01*
G01*
G37*
D17*
X223025000Y-91166667D03*
X223025000Y-94166667D03*
D18*
X214704000Y-47456667D03*
X214704000Y-50206667D03*
G36*
G01*
X212904000Y-47481667D02*
X212904000Y-48481667D01*
G75*
G02*
X212854000Y-48531667I-50000J0D01*
G01*
X211304000Y-48531667D01*
G75*
G02*
X211254000Y-48481667I0J50000D01*
G01*
X211254000Y-47481667D01*
G75*
G02*
X211304000Y-47431667I50000J0D01*
G01*
X212854000Y-47431667D01*
G75*
G02*
X212904000Y-47481667I0J-50000D01*
G01*
G37*
G36*
G01*
X212904000Y-49181667D02*
X212904000Y-50181667D01*
G75*
G02*
X212854000Y-50231667I-50000J0D01*
G01*
X211304000Y-50231667D01*
G75*
G02*
X211254000Y-50181667I0J50000D01*
G01*
X211254000Y-49181667D01*
G75*
G02*
X211304000Y-49131667I50000J0D01*
G01*
X212854000Y-49131667D01*
G75*
G02*
X212904000Y-49181667I0J-50000D01*
G01*
G37*
G36*
G01*
X218154000Y-47481667D02*
X218154000Y-48481667D01*
G75*
G02*
X218104000Y-48531667I-50000J0D01*
G01*
X216554000Y-48531667D01*
G75*
G02*
X216504000Y-48481667I0J50000D01*
G01*
X216504000Y-47481667D01*
G75*
G02*
X216554000Y-47431667I50000J0D01*
G01*
X218104000Y-47431667D01*
G75*
G02*
X218154000Y-47481667I0J-50000D01*
G01*
G37*
G36*
G01*
X218154000Y-49181667D02*
X218154000Y-50181667D01*
G75*
G02*
X218104000Y-50231667I-50000J0D01*
G01*
X216554000Y-50231667D01*
G75*
G02*
X216504000Y-50181667I0J50000D01*
G01*
X216504000Y-49181667D01*
G75*
G02*
X216554000Y-49131667I50000J0D01*
G01*
X218104000Y-49131667D01*
G75*
G02*
X218154000Y-49181667I0J-50000D01*
G01*
G37*
D19*
X211750000Y-92416667D03*
X211750000Y-90416667D03*
G36*
X213985355Y-92452022D02*
G01*
X213385355Y-93052022D01*
X213350000Y-93066667D01*
X213150000Y-93066667D01*
X213114645Y-93052022D01*
X213100000Y-93016667D01*
X213100000Y-91816667D01*
X213114645Y-91781312D01*
X213150000Y-91766667D01*
X213350000Y-91766667D01*
X213385355Y-91781312D01*
X213985355Y-92381312D01*
X214000000Y-92416667D01*
X213985355Y-92452022D01*
G37*
G36*
X213985355Y-90452022D02*
G01*
X213385355Y-91052022D01*
X213350000Y-91066667D01*
X213150000Y-91066667D01*
X213114645Y-91052022D01*
X213100000Y-91016667D01*
X213100000Y-89816667D01*
X213114645Y-89781312D01*
X213150000Y-89766667D01*
X213350000Y-89766667D01*
X213385355Y-89781312D01*
X213985355Y-90381312D01*
X214000000Y-90416667D01*
X213985355Y-90452022D01*
G37*
G36*
X214851355Y-91052022D02*
G01*
X214816000Y-91066667D01*
X213566000Y-91066667D01*
X213530645Y-91052022D01*
X213516000Y-91016667D01*
X213530645Y-90981312D01*
X214095290Y-90416667D01*
X213530645Y-89852022D01*
X213516000Y-89816667D01*
X213530645Y-89781312D01*
X213566000Y-89766667D01*
X214816000Y-89766667D01*
X214851355Y-89781312D01*
X214866000Y-89816667D01*
X214866000Y-91016667D01*
X214851355Y-91052022D01*
G37*
G36*
X214851355Y-93052022D02*
G01*
X214816000Y-93066667D01*
X213566000Y-93066667D01*
X213530645Y-93052022D01*
X213516000Y-93016667D01*
X213530645Y-92981312D01*
X214095290Y-92416667D01*
X213530645Y-91852022D01*
X213516000Y-91816667D01*
X213530645Y-91781312D01*
X213566000Y-91766667D01*
X214816000Y-91766667D01*
X214851355Y-91781312D01*
X214866000Y-91816667D01*
X214866000Y-93016667D01*
X214851355Y-93052022D01*
G37*
M02*
