G04 #@! TF.GenerationSoftware,KiCad,Pcbnew,8.0.8+1*
G04 #@! TF.CreationDate,2026-05-17T21:37:08+00:00*
G04 #@! TF.ProjectId,my_first_keyboard_wireless,6d795f66-6972-4737-945f-6b6579626f61,0.1*
G04 #@! TF.SameCoordinates,Original*
G04 #@! TF.FileFunction,Profile,NP*
%FSLAX46Y46*%
G04 Gerber Fmt 4.6, Leading zero omitted, Abs format (unit mm)*
G04 Created by KiCad (PCBNEW 8.0.8+1) date 2026-05-17 21:37:08*
%MOMM*%
%LPD*%
G01*
G04 APERTURE LIST*
G04 #@! TA.AperFunction,Profile*
%ADD10C,0.150000*%
G04 #@! TD*
G04 APERTURE END LIST*
D10*
X91081982Y-108742874D02*
X91080018Y-53490149D01*
X91580149Y-52990132D02*
X128579868Y-52999868D01*
X129080000Y-52499868D02*
X129080000Y-43991581D01*
X129581579Y-43491584D02*
X147578421Y-43548416D01*
X148080000Y-43048419D02*
X148080000Y-39363000D01*
X148580000Y-38863000D02*
X165582000Y-38863000D01*
X166082000Y-39363000D02*
X166082000Y-41448858D01*
X166583140Y-41948857D02*
X184580860Y-41907810D01*
X185082000Y-42407808D02*
X185082000Y-43904667D01*
X185582000Y-44404667D02*
X203582222Y-44404667D01*
X204082222Y-44904445D02*
X204082778Y-46156889D01*
X224518000Y-107663263D02*
X226955512Y-133833691D01*
X226811220Y-134233613D02*
X214342709Y-146702125D01*
X213635602Y-146702125D02*
X200461150Y-133527673D01*
X200353014Y-133445600D02*
X184328261Y-124417779D01*
X184207546Y-124369206D02*
X166640972Y-119845045D01*
X166515094Y-119829246D02*
X147555139Y-119873836D01*
X147054000Y-119379896D02*
X146940952Y-110051119D01*
X146443853Y-109557186D02*
X91579118Y-109242848D01*
X204582778Y-46656667D02*
X224333000Y-46656667D01*
X224833000Y-47156667D02*
X224833000Y-106983692D01*
X224766013Y-107233692D02*
X224518000Y-107663263D01*
X91080018Y-53490149D02*
G75*
G02*
X91580149Y-52990118I499982J49D01*
G01*
X129080000Y-52499868D02*
G75*
G02*
X128579868Y-52999900I-500000J-32D01*
G01*
X129080000Y-43991581D02*
G75*
G02*
X129581579Y-43491602I500000J-19D01*
G01*
X148080000Y-43048419D02*
G75*
G02*
X147578421Y-43548398I-500000J19D01*
G01*
X148080000Y-39363000D02*
G75*
G02*
X148580000Y-38863000I500000J0D01*
G01*
X165582000Y-38863000D02*
G75*
G02*
X166082000Y-39363000I0J-500000D01*
G01*
X166583140Y-41948857D02*
G75*
G02*
X166082042Y-41448858I-1140J499957D01*
G01*
X184580860Y-41907810D02*
G75*
G02*
X185081991Y-42407808I1140J-499990D01*
G01*
X185582000Y-44404667D02*
G75*
G02*
X185082033Y-43904667I0J499967D01*
G01*
X203582222Y-44404667D02*
G75*
G02*
X204082233Y-44904445I-22J-500033D01*
G01*
X204582778Y-46656667D02*
G75*
G02*
X204082833Y-46156889I22J499967D01*
G01*
X224333000Y-46656667D02*
G75*
G02*
X224833033Y-47156667I0J-500033D01*
G01*
X224833000Y-106983692D02*
G75*
G02*
X224766016Y-107233694I-500000J-8D01*
G01*
X226955512Y-133833691D02*
G75*
G02*
X226811236Y-134233629I-497812J-46409D01*
G01*
X214342709Y-146702125D02*
G75*
G02*
X213635602Y-146702125I-353553J353556D01*
G01*
X200353014Y-133445600D02*
G75*
G02*
X200461147Y-133527676I-245414J-435600D01*
G01*
X184207546Y-124369206D02*
G75*
G02*
X184328255Y-124417789I-124746J-484194D01*
G01*
X166515094Y-119829246D02*
G75*
G02*
X166640974Y-119845036I1206J-500054D01*
G01*
X147555139Y-119873836D02*
G75*
G02*
X147054000Y-119379896I-1139J500036D01*
G01*
X146443853Y-109557186D02*
G75*
G02*
X146940985Y-110051119I-2853J-500014D01*
G01*
X91579118Y-109242848D02*
G75*
G02*
X91082044Y-108742874I2882J499948D01*
G01*
M02*
